<svg width="76" height="56" viewBox="0 0 76 56" fill="none" xmlns="http://www.w3.org/2000/svg">
<mask id="path-1-inside-1_1351_28942" fill="white">
<path d="M0 26.1334C0 25.1962 0.759759 24.4364 1.69697 24.4364H73.9879C74.9251 24.4364 75.6848 25.1962 75.6848 26.1334V52.6061C75.6848 54.4805 74.1653 56 72.2909 56H3.39394C1.51952 56 0 54.4805 0 52.6061V26.1334Z"/>
</mask>
<path d="M0 26.1334C0 25.1962 0.759759 24.4364 1.69697 24.4364H73.9879C74.9251 24.4364 75.6848 25.1962 75.6848 26.1334V52.6061C75.6848 54.4805 74.1653 56 72.2909 56H3.39394C1.51952 56 0 54.4805 0 52.6061V26.1334Z" fill="#FEBD01" stroke="#8D0F3A" stroke-width="4.07273" mask="url(#path-1-inside-1_1351_28942)"/>
<mask id="path-2-inside-2_1351_28942" fill="white">
<path d="M0 11.8788C0 5.3183 5.31832 0 11.8788 0H63.8061C70.3665 0 75.6848 5.31832 75.6848 11.8788V24.4364C75.6848 25.3736 74.9251 26.1333 73.9879 26.1333H1.69697C0.75976 26.1333 0 25.3736 0 24.4364V11.8788Z"/>
</mask>
<path d="M0 11.8788C0 5.3183 5.31832 0 11.8788 0H63.8061C70.3665 0 75.6848 5.31832 75.6848 11.8788V24.4364C75.6848 25.3736 74.9251 26.1333 73.9879 26.1333H1.69697C0.75976 26.1333 0 25.3736 0 24.4364V11.8788Z" fill="#FEBD01" stroke="#8D0F3A" stroke-width="4.07273" mask="url(#path-2-inside-2_1351_28942)"/>
<path d="M10.5207 10.1818C10.5207 5.12089 14.6234 1.01818 19.6844 1.01818H56.6783C61.7393 1.01818 65.842 5.12088 65.842 10.1818V19.6848H10.5207V10.1818Z" fill="#E54E17" stroke="#8D0F3A" stroke-width="2.03636"/>
<mask id="path-4-inside-3_1351_28942" fill="white">
<path fill-rule="evenodd" clip-rule="evenodd" d="M46.8365 30.5456H28.8484V49.5516H46.8365V30.5456ZM52.9456 49.5516H66.8601V30.5456H52.9456V49.5516ZM9.50256 30.5456H22.7393V49.5516H9.50256V30.5456Z"/>
</mask>
<path fill-rule="evenodd" clip-rule="evenodd" d="M46.8365 30.5456H28.8484V49.5516H46.8365V30.5456ZM52.9456 49.5516H66.8601V30.5456H52.9456V49.5516ZM9.50256 30.5456H22.7393V49.5516H9.50256V30.5456Z" fill="#E54E17"/>
<path d="M46.8365 30.5456H48.8729V28.5092H46.8365V30.5456ZM28.8484 30.5456V28.5092H26.812V30.5456H28.8484ZM28.8484 49.5516H26.812V51.588H28.8484V49.5516ZM46.8365 49.5516V51.588H48.8729V49.5516H46.8365ZM52.9456 49.5516H50.9092V51.588H52.9456V49.5516ZM66.8601 49.5516V51.588H68.8965V49.5516H66.8601ZM66.8601 30.5456H68.8965V28.5092H66.8601V30.5456ZM52.9456 30.5456V28.5092H50.9092V30.5456H52.9456ZM22.7393 30.5456H24.7756V28.5092H22.7393V30.5456ZM9.50256 30.5456V28.5092H7.4662V30.5456H9.50256ZM22.7393 49.5516V51.588H24.7756V49.5516H22.7393ZM9.50256 49.5516H7.4662V51.588H9.50256V49.5516ZM46.8365 28.5092H28.8484V32.5819H46.8365V28.5092ZM26.812 30.5456V49.5516H30.8847V30.5456H26.812ZM28.8484 51.588H46.8365V47.5153H28.8484V51.588ZM48.8729 49.5516V30.5456H44.8001V49.5516H48.8729ZM52.9456 51.588H66.8601V47.5153H52.9456V51.588ZM68.8965 49.5516V30.5456H64.8238V49.5516H68.8965ZM66.8601 28.5092H52.9456V32.5819H66.8601V28.5092ZM50.9092 30.5456V49.5516H54.982V30.5456H50.9092ZM22.7393 28.5092H9.50256V32.5819H22.7393V28.5092ZM24.7756 49.5516V30.5456H20.7029V49.5516H24.7756ZM9.50256 51.588H22.7393V47.5153H9.50256V51.588ZM7.4662 30.5456V49.5516H11.5389V30.5456H7.4662Z" fill="#8D0F3A" mask="url(#path-4-inside-3_1351_28942)"/>
<rect x="28.0184" y="13.0182" width="19.9636" height="23.9636" rx="6.27879" fill="#FEBD01" stroke="#8D0F3A" stroke-width="2.03636"/>
<path d="M40.6685 27.1604C40.025 27.8033 39.204 28.5748 38.202 29.4768C38.2017 29.477 38.2015 29.4772 38.2012 29.4775L38.0002 29.6575L37.7993 29.4775C37.799 29.4772 37.7987 29.477 37.7985 29.4767C36.7965 28.5748 35.9754 27.8033 35.332 27.1604C34.6933 26.5223 34.2042 25.968 33.8527 25.4953C33.5005 25.0216 33.2871 24.6287 33.1758 24.3132C33.058 23.9789 33.0002 23.6417 33.0002 23.297C33.0002 22.6071 33.2209 22.0824 33.652 21.6516C34.0833 21.2207 34.6089 21 35.3002 21C35.6742 21 36.0245 21.0779 36.3616 21.2355C36.7003 21.3939 36.9904 21.6151 37.2386 21.9068L38.0002 22.8021L38.7619 21.9068C39.0101 21.6151 39.3002 21.3939 39.6389 21.2355C39.976 21.0779 40.3263 21 40.7002 21C41.3915 21 41.9172 21.2207 42.3485 21.6516C42.7796 22.0824 43.0002 22.6071 43.0002 23.297C43.0002 23.6417 42.9425 23.9789 42.8246 24.3132C42.7134 24.6287 42.5 25.0216 42.1478 25.4953C41.7963 25.968 41.3072 26.5223 40.6685 27.1604Z" fill="#8D0F3A" stroke="#8D0F3A" stroke-width="2"/>
</svg>
