<svg width="43" height="41" viewBox="0 0 43 41" fill="none" xmlns="http://www.w3.org/2000/svg">
<path d="M21.4919 41L18.3756 38.0954C14.7578 34.7066 11.7668 31.7834 9.40272 29.3256C7.03861 26.8678 5.15806 24.6614 3.76109 22.7064C2.36411 20.7514 1.38802 18.9546 0.832813 17.3161C0.277604 15.6776 0 14.0018 0 12.2888C0 8.78837 1.12833 5.86512 3.38498 3.51907C5.64163 1.17302 8.45349 0 11.8206 0C13.6832 0 15.4563 0.409628 17.1398 1.22888C18.8234 2.04814 20.2741 3.20254 21.4919 4.6921C22.7098 3.20254 24.1605 2.04814 25.8441 1.22888C27.5276 0.409628 29.3007 0 31.1633 0C34.5304 0 37.3422 1.17302 39.5989 3.51907C41.8555 5.86512 42.9839 8.78837 42.9839 12.2888C42.9839 14.0018 42.7063 15.6776 42.1511 17.3161C41.5958 18.9546 40.6198 20.7514 39.2228 22.7064C37.8258 24.6614 35.9453 26.8678 33.5812 29.3256C31.217 31.7834 28.2261 34.7066 24.6083 38.0954L21.4919 41Z" fill="url(#paint0_linear_1600_20835)"/>
<path d="M22.6213 38.4012C5.68959 21.7046 1.27296 11.8736 7.03969 2.3723C2.8099 5.12571 0.00877107 12.8612 4.62366 20.0053C11.1457 29.6954 16.5289 32.9331 22.6213 38.4012Z" fill="#7277EB"/>
<path d="M39.3462 5.2905C36.701 2.31469 34.3865 1.98404 31.0801 1.32275C37.3623 4.29856 40.3381 9.91953 40.9994 16.8631C41.6607 13.226 41.9914 8.2663 39.3462 5.2905Z" fill="#959FF4"/>
<defs>
<linearGradient id="paint0_linear_1600_20835" x1="10.2788" y1="6.83333" x2="42.9564" y2="20.5653" gradientUnits="userSpaceOnUse">
<stop offset="0.174574" stop-color="#949EF3"/>
<stop offset="0.944221" stop-color="#6156E3"/>
</linearGradient>
</defs>
</svg>
