<svg width="41" height="41" viewBox="0 0 41 41" fill="none" xmlns="http://www.w3.org/2000/svg">
<g id="heart">
<path id="Vector" d="M20.303 41L17.3591 38.0954C13.9414 34.7066 11.1159 31.7834 8.88257 29.3256C6.64924 26.8678 4.87272 24.6614 3.55303 22.7064C2.23333 20.7514 1.31124 18.9546 0.786742 17.3161C0.262247 15.6776 0 14.0018 0 12.2888C0 8.78837 1.06591 5.86512 3.19773 3.51907C5.32954 1.17302 7.98585 0 11.1667 0C12.9263 0 14.6013 0.409628 16.1917 1.22888C17.7821 2.04814 19.1525 3.20254 20.303 4.6921C21.4535 3.20254 22.824 2.04814 24.4144 1.22888C26.0048 0.409628 27.6798 0 29.4394 0C32.6202 0 35.2765 1.17302 37.4083 3.51907C39.5401 5.86512 40.606 8.78837 40.606 12.2888C40.606 14.0018 40.3438 15.6776 39.8193 17.3161C39.2948 18.9546 38.3727 20.7514 37.053 22.7064C35.7333 24.6614 33.9568 26.8678 31.7235 29.3256C29.4901 31.7834 26.6646 34.7066 23.247 38.0954L20.303 41Z" fill="#E54E17"/>
<path id="Vector 55" d="M21.3698 38.4012C5.3747 21.7046 1.20239 11.8736 6.65012 2.3723C2.65431 5.12571 0.00814047 12.8612 4.36774 20.0053C10.529 29.6954 15.6144 32.9331 21.3698 38.4012Z" fill="#F36B21"/>
<path id="Vector 56" d="M36.1492 5.96774C33.6504 2.99194 31.4639 2.66129 28.3403 2C34.2751 4.97581 37.0862 10.5968 37.711 17.5403C38.3357 13.9032 38.648 8.94355 36.1492 5.96774Z" fill="#F36B21"/>
</g>
</svg>
