<svg width="1374" height="772" viewBox="0 0 1374 772" fill="none" xmlns="http://www.w3.org/2000/svg">
<path d="M108.846 456.753C152.985 530.299 220.393 520.75 248.581 506.783C253.61 501.405 390.638 392.625 467.654 358.79C532.734 310.767 518.064 256.381 502.595 235.191C463.73 163.553 382.458 148.036 349.067 162.177C322.354 173.49 292.371 154.522 280.718 143.623C238.453 63.7634 153.934 65.3748 116.957 76.163C89.3767 82.2952 37.4263 112.687 50.2709 185.195C65.5407 226.363 98.6335 338.31 108.846 456.753Z" fill="#F87793"/>
<path d="M379.124 593.589C421.807 685.939 492.838 644.489 523.018 612.221C570.107 540.313 541.476 463.123 511.723 430.254C487.92 403.959 449.3 407.161 432.966 412.049C397.234 434.083 336.441 501.239 379.124 593.589Z" fill="#F87793"/>
<path d="M409.922 657.682L446.698 666.872L403.943 712.585L409.922 657.682Z" fill="#F87793"/>
<path d="M108.846 456.753C152.985 530.299 220.393 520.75 248.581 506.783C253.61 501.405 390.638 392.625 467.654 358.79C532.734 310.767 518.064 256.381 502.595 235.191C463.73 163.553 382.458 148.036 349.067 162.177C322.354 173.49 292.371 154.522 280.718 143.623C238.453 63.7634 153.934 65.3748 116.957 76.163C89.3767 82.2952 37.4263 112.687 50.2709 185.195C65.5407 226.363 98.6335 338.31 108.846 456.753Z" stroke="#FFD873"/>
<path d="M379.124 593.589C421.807 685.939 492.838 644.489 523.018 612.221C570.107 540.313 541.476 463.123 511.723 430.254C487.92 403.959 449.3 407.161 432.966 412.049C397.234 434.083 336.441 501.239 379.124 593.589Z" stroke="#FFD873"/>
<path d="M409.922 657.682L446.698 666.872L403.943 712.585L409.922 657.682Z" stroke="#FFD873"/>
<path d="M-160.91 335.529C-181.108 432.587 -96.5296 439.933 -53.1296 431.656C27.2947 401.324 49.6659 322.093 45.0053 278.003C41.2768 242.732 7.63097 226.702 -8.44517 221.022C-50.2979 217.76 -142.767 248.344 -160.91 335.529Z" fill="#F87793"/>
<path d="M-144.507 436.572L-112.761 451.139L-152.826 499.368L-144.507 436.572Z" fill="#F87793"/>
<path d="M-160.91 335.529C-181.108 432.587 -96.5296 439.933 -53.1296 431.656C27.2947 401.324 49.6659 322.093 45.0053 278.003C41.2768 242.732 7.63097 226.702 -8.44517 221.022C-50.2979 217.76 -142.767 248.344 -160.91 335.529Z" stroke="#FFD873"/>
<path d="M-144.507 436.572L-112.761 451.139L-152.826 499.368L-144.507 436.572Z" stroke="#FFD873"/>
<path d="M137.59 770.986C177.612 864.52 259.127 837.243 292.066 794.475C342.632 728.818 334.031 647.197 290.658 596.549C261.92 562.99 213.848 561.249 188.396 576.524C142.429 604.11 98.0293 678.533 137.59 770.986Z" fill="#F87793"/>
<path d="M165.699 832.565L210.542 849.299L160.416 908.284L165.699 832.565Z" fill="#F87793"/>
<path d="M137.59 770.986C177.612 864.52 259.127 837.243 292.066 794.475C342.632 728.818 334.031 647.197 290.658 596.549C261.92 562.99 213.848 561.249 188.396 576.524C142.429 604.11 98.0293 678.533 137.59 770.986Z" stroke="#FFD873"/>
<path d="M165.699 832.565L210.542 849.299L160.416 908.284L165.699 832.565Z" stroke="#FFD873"/>
<path d="M-114.518 637.283C-120.414 738.849 -31.5972 748.123 16.1573 722.95C89.4666 684.304 125.889 607.125 107.539 543.019C95.3802 500.542 48.2347 485.129 18.7338 488.421C-34.5444 494.366 -109.452 550.017 -114.518 637.283Z" fill="#F87793"/>
<path d="M-106.224 724.437L-58.6918 743.687L-113.848 808.05L-106.224 724.437Z" fill="#F87793"/>
<path d="M-114.518 637.283C-120.414 738.849 -31.5972 748.123 16.1573 722.95C89.4666 684.304 125.889 607.125 107.539 543.019C95.3802 500.542 48.2347 485.129 18.7338 488.421C-34.5444 494.366 -109.452 550.017 -114.518 637.283Z" stroke="#FFD873"/>
<path d="M-106.224 724.437L-58.6918 743.687L-113.848 808.05L-106.224 724.437Z" stroke="#FFD873"/>
<path d="M654.488 721.002C642.313 718.488 636.714 726.613 635.436 730.989C635.516 732.054 633.663 757.342 629.71 768.876C628.442 780.529 635.68 784.304 639.458 784.734C650.912 787.623 660.545 780.481 662.315 775.532C663.731 771.573 668.696 770.239 671.002 770.066C683.666 773.399 691.791 764.229 694.271 759.228C696.325 755.685 698.184 747.162 689.192 741.414C683.304 739.001 668.119 731.54 654.488 721.002Z" fill="#F87793"/>
<path d="M613.365 736.387C599.329 731.872 596.775 743.515 597.253 749.9C600.298 761.98 611.339 766.505 617.764 766.559C622.904 766.602 626.354 762.17 627.436 759.949C628.595 753.976 627.402 740.902 613.365 736.387Z" fill="#F87793"/>
<path d="M603.508 733.379L598.918 736.398L598.241 727.352L603.508 733.379Z" fill="#F87793"/>
<path d="M654.488 721.002C642.313 718.488 636.714 726.613 635.436 730.989C635.516 732.054 633.663 757.342 629.71 768.876C628.442 780.529 635.68 784.304 639.458 784.734C650.912 787.623 660.545 780.481 662.315 775.532C663.731 771.573 668.696 770.239 671.002 770.066C683.666 773.399 691.791 764.229 694.271 759.228C696.325 755.685 698.184 747.162 689.192 741.414C683.304 739.001 668.119 731.54 654.488 721.002Z" stroke="#FFD873"/>
<path d="M613.365 736.387C599.329 731.872 596.775 743.515 597.253 749.9C600.298 761.98 611.339 766.505 617.764 766.559C622.904 766.602 626.354 762.17 627.436 759.949C628.595 753.976 627.402 740.902 613.365 736.387Z" stroke="#FFD873"/>
<path d="M603.508 733.379L598.918 736.398L598.241 727.352L603.508 733.379Z" stroke="#FFD873"/>
<path d="M693.895 704.139C685.529 692.458 676.443 700.755 673.065 706.195C668.404 717.747 674.656 727.911 679.814 731.742C683.941 734.807 688.953 732.793 691.137 731.636C695.593 727.494 701.41 714.632 693.895 704.139Z" fill="#F87793"/>
<path d="M681.511 695.969L676.841 697.924L675.632 688.918L681.511 695.969Z" fill="#F87793"/>
<path d="M693.895 704.139C685.529 692.458 676.443 700.755 673.065 706.195C668.404 717.747 674.656 727.911 679.814 731.742C683.941 734.807 688.953 732.793 691.137 731.636C695.593 727.494 701.41 714.632 693.895 704.139Z" stroke="#FFD873"/>
<path d="M681.511 695.969L676.841 697.924L675.632 688.918L681.511 695.969Z" stroke="#FFD873"/>
<path d="M618.161 693.219C604.26 688.304 599.166 699.673 600.493 707.384C602.529 719.221 612.076 726.316 621.734 726.664C628.134 726.894 633.038 721.939 633.908 717.726C635.479 710.117 631.903 698.077 618.161 693.219Z" fill="#F87793"/>
<path d="M608.836 690.171L602.65 693.31L601.282 682.175L608.836 690.171Z" fill="#F87793"/>
<path d="M618.161 693.219C604.26 688.304 599.166 699.673 600.493 707.384C602.529 719.221 612.076 726.316 621.734 726.664C628.134 726.894 633.038 721.939 633.908 717.726C635.479 710.117 631.903 698.077 618.161 693.219Z" stroke="#FFD873"/>
<path d="M608.836 690.171L602.65 693.31L601.282 682.175L608.836 690.171Z" stroke="#FFD873"/>
<path d="M657.165 679.464C646.915 668.865 637.207 677.424 635.203 684.987C632.127 696.597 636.781 708.057 645.417 712.394C651.14 715.267 657.411 711.754 659.956 708.285C664.553 702.021 665.972 688.571 657.165 679.464Z" fill="#F87793"/>
<path d="M647.058 671.793L640.34 674.971L638.891 662.772L647.058 671.793Z" fill="#F87793"/>
<path d="M657.165 679.464C646.915 668.865 637.207 677.424 635.203 684.987C632.127 696.597 636.781 708.057 645.417 712.394C651.14 715.267 657.411 711.754 659.956 708.285C664.553 702.021 665.972 688.571 657.165 679.464Z" stroke="#FFD873"/>
<path d="M647.058 671.793L640.34 674.971L638.891 662.772L647.058 671.793Z" stroke="#FFD873"/>
<path d="M1345.15 764.929C1357.41 748.087 1348.88 733.92 1343.08 728.942C1341.4 728.328 1304.09 708.003 1289.22 693.99C1272.32 683.992 1261.55 692.429 1258.27 697.897C1245.94 713.378 1250.18 733.022 1256.51 739.147C1261.57 744.047 1260.17 752.55 1258.84 756.188C1244.99 773.21 1253.36 791.955 1259.28 799.2C1263.27 804.786 1274.99 813.52 1289.98 803.773C1297.74 796.456 1319.63 778.443 1345.15 764.929Z" fill="#F87793"/>
<path d="M1350.12 691.523C1366.72 673.224 1350.72 661.272 1340.64 657.583C1320.1 653.872 1305.55 667.592 1301.02 677.361C1297.4 685.176 1301.78 693.508 1304.42 696.697C1312.73 702.597 1333.51 709.823 1350.12 691.523Z" fill="#F87793"/>
<path d="M1361.53 678.56L1360.09 669.466L1374.37 674.692L1361.53 678.56Z" fill="#F87793"/>
<path d="M1345.15 764.929C1357.41 748.087 1348.88 733.92 1343.08 728.942C1341.4 728.328 1304.09 708.003 1289.22 693.99C1272.32 683.992 1261.55 692.429 1258.27 697.897C1245.94 713.378 1250.18 733.022 1256.51 739.147C1261.57 744.047 1260.17 752.55 1258.84 756.188C1244.99 773.21 1253.36 791.955 1259.28 799.2C1263.27 804.786 1274.99 813.52 1289.98 803.773C1297.74 796.456 1319.63 778.443 1345.15 764.929Z" stroke="#FFD873"/>
<path d="M1350.12 691.523C1366.72 673.224 1350.72 661.272 1340.64 657.583C1320.1 653.872 1305.55 667.592 1301.02 677.361C1297.4 685.176 1301.78 693.508 1304.42 696.697C1312.73 702.597 1333.51 709.823 1350.12 691.523Z" stroke="#FFD873"/>
<path d="M1361.53 678.56L1360.09 669.466L1374.37 674.692L1361.53 678.56Z" stroke="#FFD873"/>
<path d="M1343.62 836.738C1367.24 832.052 1360.86 812.444 1354.89 803.525C1340.49 788.419 1320.65 790.929 1311.23 796.151C1303.7 800.329 1303.31 809.372 1303.56 813.505C1306.8 823.172 1322.41 840.948 1343.62 836.738Z" fill="#F87793"/>
<path d="M1364.66 823.49L1364.9 815.011L1379.49 819.397L1364.66 823.49Z" fill="#F87793"/>
<path d="M1343.62 836.738C1367.24 832.052 1360.86 812.444 1354.89 803.525C1340.49 788.419 1320.65 790.929 1311.23 796.151C1303.7 800.329 1303.31 809.372 1303.56 813.505C1306.8 823.172 1322.41 840.948 1343.62 836.738Z" stroke="#FFD873"/>
<path d="M1364.66 823.49L1364.9 815.011L1379.49 819.397L1364.66 823.49Z" stroke="#FFD873"/>
<path d="M1412.68 728.71C1429.8 710.893 1415.97 695.253 1403.29 691.943C1383.81 686.861 1366.38 696.523 1359.17 711.023C1354.39 720.631 1358.56 731.544 1364.38 735.787C1374.91 743.449 1395.76 746.321 1412.68 728.71Z" fill="#F87793"/>
<path d="M1423.79 716.586L1423.28 704.973L1441.22 710.588L1423.79 716.586Z" fill="#F87793"/>
<path d="M1412.68 728.71C1429.8 710.893 1415.97 695.253 1403.29 691.943C1383.81 686.861 1366.38 696.523 1359.17 711.023C1354.39 720.631 1358.56 731.544 1364.38 735.787C1374.91 743.449 1395.76 746.321 1412.68 728.71Z" stroke="#FFD873"/>
<path d="M1423.79 716.586L1423.28 704.973L1441.22 710.588L1423.79 716.586Z" stroke="#FFD873"/>
<path d="M1406.69 797.755C1429.96 789.444 1423.61 768.706 1413.46 760.415C1397.87 747.688 1377.16 746.861 1364.56 757.042C1356.22 763.788 1357.24 775.791 1360.77 782.075C1367.15 793.424 1386.7 804.897 1406.69 797.755Z" fill="#F87793"/>
<path d="M1425.39 787.638L1425.19 775.185L1444.81 781.415L1425.39 787.638Z" fill="#F87793"/>
<path d="M1406.69 797.755C1429.96 789.444 1423.61 768.706 1413.46 760.415C1397.87 747.688 1377.16 746.861 1364.56 757.042C1356.22 763.788 1357.24 775.791 1360.77 782.075C1367.15 793.424 1386.7 804.897 1406.69 797.755Z" stroke="#FFD873"/>
<path d="M1425.39 787.638L1425.19 775.185L1444.81 781.415L1425.39 787.638Z" stroke="#FFD873"/>
<path d="M1257.75 218.183C1254.87 206.679 1245.57 205.231 1241.28 205.944C1240.4 206.453 1217.9 215.33 1206.35 216.707C1195.81 220.441 1195.57 228.225 1196.76 231.65C1199.02 242.689 1209.14 248.011 1214.13 247.484C1218.12 247.062 1221.32 250.777 1222.42 252.687C1224.8 264.951 1236.05 268.137 1241.37 268.198C1245.27 268.496 1253.36 266.566 1254.58 256.458C1254.21 250.399 1254.34 234.26 1257.75 218.183Z" fill="#FFD873"/>
<path d="M1227.51 189.211C1225.58 175.279 1214.51 177.904 1209.22 180.958C1200.1 188.575 1200.79 199.937 1203.4 205.482C1205.49 209.917 1210.73 211.047 1213.08 211.058C1218.7 209.581 1229.44 203.143 1227.51 189.211Z" fill="#FFD873"/>
<path d="M1226.01 179.495L1221.52 176.8L1229.01 172.473L1226.01 179.495Z" fill="#FFD873"/>
<path d="M1257.75 218.183C1254.87 206.679 1245.57 205.231 1241.28 205.944C1240.4 206.453 1217.9 215.33 1206.35 216.707C1195.81 220.441 1195.57 228.225 1196.76 231.65C1199.02 242.689 1209.14 248.011 1214.13 247.484C1218.12 247.062 1221.32 250.777 1222.42 252.687C1224.8 264.951 1236.05 268.137 1241.37 268.198C1245.27 268.496 1253.36 266.566 1254.58 256.458C1254.21 250.399 1254.34 234.26 1257.75 218.183Z" stroke="#FFD873"/>
<path d="M1227.51 189.211C1225.58 175.279 1214.51 177.904 1209.22 180.958C1200.1 188.575 1200.79 199.937 1203.4 205.482C1205.49 209.917 1210.73 211.047 1213.08 211.058C1218.7 209.581 1229.44 203.143 1227.51 189.211Z" stroke="#FFD873"/>
<path d="M1226.01 179.495L1221.52 176.8L1229.01 172.473L1226.01 179.495Z" stroke="#FFD873"/>
<path d="M1288.56 245.069C1295.13 233.043 1284.24 228.669 1278.17 228.019C1266.31 228.795 1260.16 238.375 1259.01 244.395C1258.08 249.21 1261.89 252.684 1263.78 254.082C1269.19 256.197 1282.65 255.871 1288.56 245.069Z" fill="#FFD873"/>
<path d="M1290.45 231.044L1286.84 227.84L1294.08 223.073L1290.45 231.044Z" fill="#FFD873"/>
<path d="M1288.56 245.069C1295.13 233.043 1284.24 228.669 1278.17 228.019C1266.31 228.795 1260.16 238.375 1259.01 244.395C1258.08 249.21 1261.89 252.684 1263.78 254.082C1269.19 256.197 1282.65 255.871 1288.56 245.069Z" stroke="#FFD873"/>
<path d="M1290.45 231.044L1286.84 227.84L1294.08 223.073L1290.45 231.044Z" stroke="#FFD873"/>
<path d="M1266.59 175.463C1265.06 161.481 1253.18 161.81 1247.1 166.142C1237.77 172.793 1235.63 183.935 1239.33 192.379C1241.78 197.974 1248.07 200.138 1252.05 199.141C1259.24 197.341 1268.1 189.283 1266.59 175.463Z" fill="#FFD873"/>
<path d="M1265.35 166.187L1260.09 162.17L1269.09 156.384L1265.35 166.187Z" fill="#FFD873"/>
<path d="M1266.59 175.463C1265.06 161.481 1253.18 161.81 1247.1 166.142C1237.77 172.793 1235.63 183.935 1239.33 192.379C1241.78 197.974 1248.07 200.138 1252.05 199.141C1259.24 197.341 1268.1 189.283 1266.59 175.463Z" stroke="#FFD873"/>
<path d="M1265.35 166.187L1260.09 162.17L1269.09 156.384L1265.35 166.187Z" stroke="#FFD873"/>
<path d="M1294.56 203.289C1299.43 190.092 1288.05 185.293 1280.72 186.702C1269.47 188.864 1261.55 197.608 1261.4 206.825C1261.3 212.933 1266.91 216.868 1270.95 217.619C1278.23 218.976 1290.38 214.628 1294.56 203.289Z" fill="#FFD873"/>
<path d="M1296.97 191.428L1291.46 186.97L1301.34 180.675L1296.97 191.428Z" fill="#FFD873"/>
<path d="M1294.56 203.289C1299.43 190.092 1288.05 185.293 1280.72 186.702C1269.47 188.864 1261.55 197.608 1261.4 206.825C1261.3 212.933 1266.91 216.868 1270.95 217.619C1278.23 218.976 1290.38 214.628 1294.56 203.289Z" stroke="#FFD873"/>
<path d="M1296.97 191.428L1291.46 186.97L1301.34 180.675L1296.97 191.428Z" stroke="#FFD873"/>
<path d="M1257.75 218.183C1254.87 206.679 1245.57 205.231 1241.28 205.944C1240.4 206.453 1217.9 215.33 1206.35 216.707C1195.81 220.441 1195.57 228.225 1196.76 231.65C1199.02 242.689 1209.14 248.011 1214.13 247.484C1218.12 247.062 1221.32 250.777 1222.42 252.687C1224.8 264.951 1236.05 268.137 1241.37 268.198C1245.27 268.496 1253.36 266.566 1254.58 256.458C1254.21 250.399 1254.34 234.26 1257.75 218.183Z" fill="#F87793"/>
<path d="M1227.51 189.211C1225.58 175.279 1214.51 177.904 1209.22 180.958C1200.1 188.575 1200.79 199.937 1203.4 205.482C1205.49 209.917 1210.73 211.047 1213.08 211.058C1218.7 209.581 1229.44 203.143 1227.51 189.211Z" fill="#F87793"/>
<path d="M1226.01 179.495L1221.52 176.8L1229.01 172.473L1226.01 179.495Z" fill="#F87793"/>
<path d="M1257.75 218.183C1254.87 206.679 1245.57 205.231 1241.28 205.944C1240.4 206.453 1217.9 215.33 1206.35 216.707C1195.81 220.441 1195.57 228.225 1196.76 231.65C1199.02 242.689 1209.14 248.011 1214.13 247.484C1218.12 247.062 1221.32 250.777 1222.42 252.687C1224.8 264.951 1236.05 268.137 1241.37 268.198C1245.27 268.496 1253.36 266.566 1254.58 256.458C1254.21 250.399 1254.34 234.26 1257.75 218.183Z" stroke="#FFD873"/>
<path d="M1227.51 189.211C1225.58 175.279 1214.51 177.904 1209.22 180.958C1200.1 188.575 1200.79 199.937 1203.4 205.482C1205.49 209.917 1210.73 211.047 1213.08 211.058C1218.7 209.581 1229.44 203.143 1227.51 189.211Z" stroke="#FFD873"/>
<path d="M1226.01 179.495L1221.52 176.8L1229.01 172.473L1226.01 179.495Z" stroke="#FFD873"/>
<path d="M1288.56 245.069C1295.13 233.043 1284.24 228.669 1278.17 228.019C1266.31 228.795 1260.16 238.375 1259.01 244.395C1258.08 249.21 1261.89 252.684 1263.78 254.082C1269.19 256.197 1282.65 255.871 1288.56 245.069Z" fill="#F87793"/>
<path d="M1290.45 231.044L1286.84 227.84L1294.08 223.073L1290.45 231.044Z" fill="#F87793"/>
<path d="M1288.56 245.069C1295.13 233.043 1284.24 228.669 1278.17 228.019C1266.31 228.795 1260.16 238.375 1259.01 244.395C1258.08 249.21 1261.89 252.684 1263.78 254.082C1269.19 256.197 1282.65 255.871 1288.56 245.069Z" stroke="#FFD873"/>
<path d="M1290.45 231.044L1286.84 227.84L1294.08 223.073L1290.45 231.044Z" stroke="#FFD873"/>
<path d="M1266.59 175.463C1265.06 161.481 1253.18 161.81 1247.1 166.142C1237.77 172.793 1235.63 183.935 1239.33 192.379C1241.78 197.974 1248.07 200.138 1252.05 199.141C1259.24 197.341 1268.1 189.283 1266.59 175.463Z" fill="#F87793"/>
<path d="M1265.35 166.187L1260.09 162.17L1269.09 156.384L1265.35 166.187Z" fill="#F87793"/>
<path d="M1266.59 175.463C1265.06 161.481 1253.18 161.81 1247.1 166.142C1237.77 172.793 1235.63 183.935 1239.33 192.379C1241.78 197.974 1248.07 200.138 1252.05 199.141C1259.24 197.341 1268.1 189.283 1266.59 175.463Z" stroke="#FFD873"/>
<path d="M1265.35 166.187L1260.09 162.17L1269.09 156.384L1265.35 166.187Z" stroke="#FFD873"/>
<path d="M1294.56 203.289C1299.43 190.092 1288.05 185.293 1280.72 186.702C1269.47 188.864 1261.55 197.608 1261.4 206.825C1261.3 212.933 1266.91 216.868 1270.95 217.619C1278.23 218.976 1290.38 214.628 1294.56 203.289Z" fill="#F87793"/>
<path d="M1296.97 191.428L1291.46 186.97L1301.34 180.675L1296.97 191.428Z" fill="#F87793"/>
<path d="M1294.56 203.289C1299.43 190.092 1288.05 185.293 1280.72 186.702C1269.47 188.864 1261.55 197.608 1261.4 206.825C1261.3 212.933 1266.91 216.868 1270.95 217.619C1278.23 218.976 1290.38 214.628 1294.56 203.289Z" stroke="#FFD873"/>
<path d="M1296.97 191.428L1291.46 186.97L1301.34 180.675L1296.97 191.428Z" stroke="#FFD873"/>
<path d="M778.349 161.518C764.721 160.941 760.089 170.727 759.476 175.692C759.75 176.831 762.2 204.545 759.952 217.733C760.632 230.577 769.137 233.389 773.305 233.189C786.218 234.299 795.392 224.866 796.436 219.195C797.272 214.658 802.415 212.337 804.882 211.744C819.185 213.122 826.368 201.759 828.172 195.905C829.771 191.706 830.283 182.149 819.532 177.508C812.729 175.932 794.969 170.528 778.349 161.518Z" fill="#F87793"/>
<path d="M736.525 185.428C720.527 183.013 719.814 196.071 721.457 202.903C726.883 215.448 739.638 218.403 746.606 217.329C752.181 216.47 755.136 211.062 755.917 208.466C756.118 201.793 752.522 187.843 736.525 185.428Z" fill="#F87793"/>
<path d="M725.32 183.907L720.881 187.986L718.553 178.308L725.32 183.907Z" fill="#F87793"/>
<path d="M778.349 161.518C764.721 160.941 760.089 170.727 759.476 175.692C759.75 176.831 762.2 204.545 759.952 217.733C760.632 230.577 769.137 233.389 773.305 233.189C786.218 234.299 795.392 224.866 796.436 219.195C797.272 214.658 802.415 212.337 804.882 211.744C819.185 213.122 826.368 201.759 828.172 195.905C829.771 191.706 830.283 182.149 819.532 177.508C812.729 175.932 794.969 170.528 778.349 161.518Z" stroke="#FFD873"/>
<path d="M736.525 185.428C720.527 183.013 719.814 196.071 721.457 202.903C726.883 215.448 739.638 218.403 746.606 217.329C752.181 216.47 755.136 211.062 755.917 208.466C756.118 201.793 752.522 187.843 736.525 185.428Z" stroke="#FFD873"/>
<path d="M725.32 183.907L720.881 187.986L718.553 178.308L725.32 183.907Z" stroke="#FFD873"/>
<path d="M818.054 136.311C806.935 125.134 798.557 135.721 795.858 142.208C792.846 155.541 801.408 165.446 807.67 168.686C812.679 171.278 817.752 168.214 819.914 166.576C824.01 161.305 828.042 146.35 818.054 136.311Z" fill="#F87793"/>
<path d="M803.202 129.645L798.49 132.585L795.593 123.045L803.202 129.645Z" fill="#F87793"/>
<path d="M818.054 136.311C806.935 125.134 798.557 135.721 795.858 142.208C792.846 155.541 801.408 165.446 807.67 168.686C812.679 171.278 817.752 168.214 819.914 166.576C824.01 161.305 828.042 146.35 818.054 136.311Z" stroke="#FFD873"/>
<path d="M803.202 129.645L798.49 132.585L795.593 123.045L803.202 129.645Z" stroke="#FFD873"/>
<path d="M734.11 137.832C718.188 134.959 714.675 148.17 717.471 156.287C721.763 168.747 733.353 174.749 743.874 173.423C750.845 172.544 755.283 166.314 755.483 161.597C755.843 153.08 749.847 140.671 734.11 137.832Z" fill="#F87793"/>
<path d="M723.473 136.174L717.327 140.664L713.882 128.846L723.473 136.174Z" fill="#F87793"/>
<path d="M734.11 137.832C718.188 134.959 714.675 148.17 717.471 156.287C721.763 168.747 733.353 174.749 743.874 173.423C750.845 172.544 755.283 166.314 755.483 161.597C755.843 153.08 749.847 140.671 734.11 137.832Z" stroke="#FFD873"/>
<path d="M723.473 136.174L717.327 140.664L713.882 128.846L723.473 136.174Z" stroke="#FFD873"/>
<path d="M773.929 116.06C760.96 106.388 751.955 117.369 751.118 125.912C749.832 139.028 756.892 150.619 767.01 153.794C773.714 155.897 779.887 150.986 782.032 146.781C785.905 139.187 785.072 124.37 773.929 116.06Z" fill="#F87793"/>
<path d="M761.631 109.533L754.915 114.159L751.197 101.203L761.631 109.533Z" fill="#F87793"/>
<path d="M773.929 116.06C760.96 106.388 751.955 117.369 751.118 125.912C749.832 139.028 756.892 150.619 767.01 153.794C773.714 155.897 779.887 150.986 782.032 146.781C785.905 139.187 785.072 124.37 773.929 116.06Z" stroke="#FFD873"/>
<path d="M761.631 109.533L754.915 114.159L751.197 101.203L761.631 109.533Z" stroke="#FFD873"/>
</svg>
