<svg width="1374" height="772" viewBox="0 0 1374 772" fill="none" xmlns="http://www.w3.org/2000/svg">
<path d="M108.847 456.753C152.986 530.299 220.394 520.75 248.581 506.783C253.611 501.405 390.639 392.625 467.655 358.79C532.735 310.767 518.065 256.381 502.596 235.191C463.731 163.553 382.459 148.036 349.068 162.177C322.355 173.49 292.372 154.522 280.719 143.623C238.454 63.7634 153.935 65.3748 116.958 76.163C89.3777 82.2952 37.4273 112.687 50.2719 185.195C65.5417 226.363 98.6345 338.31 108.847 456.753Z" fill="#FFD873"/>
<path d="M379.125 593.589C421.808 685.939 492.839 644.489 523.019 612.221C570.108 540.313 541.477 463.123 511.724 430.254C487.921 403.959 449.301 407.161 432.967 412.049C397.235 434.083 336.442 501.239 379.125 593.589Z" fill="#FFD873"/>
<path d="M409.923 657.682L446.699 666.872L403.944 712.585L409.923 657.682Z" fill="#FFD873"/>
<path d="M108.847 456.753C152.986 530.299 220.394 520.75 248.581 506.783C253.611 501.405 390.639 392.625 467.655 358.79C532.735 310.767 518.065 256.381 502.596 235.191C463.731 163.553 382.459 148.036 349.068 162.177C322.355 173.49 292.372 154.522 280.719 143.623C238.454 63.7634 153.935 65.3748 116.958 76.163C89.3777 82.2952 37.4273 112.687 50.2719 185.195C65.5417 226.363 98.6345 338.31 108.847 456.753Z" stroke="#FFD873"/>
<path d="M379.125 593.589C421.808 685.939 492.839 644.489 523.019 612.221C570.108 540.313 541.477 463.123 511.724 430.254C487.921 403.959 449.301 407.161 432.967 412.049C397.235 434.083 336.442 501.239 379.125 593.589Z" stroke="#FFD873"/>
<path d="M409.923 657.682L446.699 666.872L403.944 712.585L409.923 657.682Z" stroke="#FFD873"/>
<path d="M-160.909 335.529C-181.107 432.587 -96.5286 439.933 -53.1286 431.656C27.2957 401.324 49.6669 322.093 45.0063 278.003C41.2777 242.732 7.63195 226.702 -8.4442 221.022C-50.2969 217.76 -142.766 248.344 -160.909 335.529Z" fill="#FFD873"/>
<path d="M-144.506 436.572L-112.76 451.139L-152.825 499.368L-144.506 436.572Z" fill="#FFD873"/>
<path d="M-160.909 335.529C-181.107 432.587 -96.5286 439.933 -53.1286 431.656C27.2957 401.324 49.6669 322.093 45.0063 278.003C41.2777 242.732 7.63195 226.702 -8.4442 221.022C-50.2969 217.76 -142.766 248.344 -160.909 335.529Z" stroke="#FFD873"/>
<path d="M-144.506 436.572L-112.76 451.139L-152.825 499.368L-144.506 436.572Z" stroke="#FFD873"/>
<path d="M137.59 770.986C177.612 864.52 259.127 837.243 292.066 794.475C342.632 728.818 334.031 647.197 290.658 596.549C261.92 562.99 213.848 561.249 188.396 576.524C142.429 604.11 98.0293 678.533 137.59 770.986Z" fill="#FFD873"/>
<path d="M165.699 832.565L210.542 849.299L160.416 908.284L165.699 832.565Z" fill="#FFD873"/>
<path d="M137.59 770.986C177.612 864.52 259.127 837.243 292.066 794.475C342.632 728.818 334.031 647.197 290.658 596.549C261.92 562.99 213.848 561.249 188.396 576.524C142.429 604.11 98.0293 678.533 137.59 770.986Z" stroke="#FFD873"/>
<path d="M165.699 832.565L210.542 849.299L160.416 908.284L165.699 832.565Z" stroke="#FFD873"/>
<path d="M-114.518 637.283C-120.414 738.849 -31.5972 748.123 16.1573 722.95C89.4666 684.304 125.889 607.125 107.539 543.019C95.3802 500.542 48.2347 485.129 18.7338 488.421C-34.5444 494.366 -109.452 550.017 -114.518 637.283Z" fill="#FFD873"/>
<path d="M-106.224 724.437L-58.6918 743.687L-113.848 808.05L-106.224 724.437Z" fill="#FFD873"/>
<path d="M-114.518 637.283C-120.414 738.849 -31.5972 748.123 16.1573 722.95C89.4666 684.304 125.889 607.125 107.539 543.019C95.3802 500.542 48.2347 485.129 18.7338 488.421C-34.5444 494.366 -109.452 550.017 -114.518 637.283Z" stroke="#FFD873"/>
<path d="M-106.224 724.437L-58.6918 743.687L-113.848 808.05L-106.224 724.437Z" stroke="#FFD873"/>
<path d="M654.487 721.002C642.312 718.488 636.713 726.613 635.435 730.989C635.515 732.054 633.662 757.342 629.709 768.876C628.441 780.529 635.679 784.304 639.457 784.734C650.911 787.623 660.544 780.481 662.314 775.532C663.73 771.573 668.696 770.239 671.001 770.066C683.665 773.399 691.791 764.229 694.27 759.228C696.324 755.685 698.183 747.162 689.191 741.414C683.303 739.001 668.118 731.54 654.487 721.002Z" fill="#FFD873"/>
<path d="M613.364 736.387C599.328 731.872 596.774 743.515 597.252 749.9C600.297 761.98 611.338 766.505 617.763 766.559C622.903 766.602 626.353 762.17 627.435 759.949C628.594 753.976 627.401 740.902 613.364 736.387Z" fill="#FFD873"/>
<path d="M603.507 733.379L598.917 736.398L598.24 727.352L603.507 733.379Z" fill="#FFD873"/>
<path d="M654.487 721.002C642.312 718.488 636.713 726.613 635.435 730.989C635.515 732.054 633.662 757.342 629.709 768.876C628.441 780.529 635.679 784.304 639.457 784.734C650.911 787.623 660.544 780.481 662.314 775.532C663.73 771.573 668.696 770.239 671.001 770.066C683.665 773.399 691.791 764.229 694.27 759.228C696.324 755.685 698.183 747.162 689.191 741.414C683.303 739.001 668.118 731.54 654.487 721.002Z" stroke="#FFD873"/>
<path d="M613.364 736.387C599.328 731.872 596.774 743.515 597.252 749.9C600.297 761.98 611.338 766.505 617.763 766.559C622.903 766.602 626.353 762.17 627.435 759.949C628.594 753.976 627.401 740.902 613.364 736.387Z" stroke="#FFD873"/>
<path d="M603.507 733.379L598.917 736.398L598.24 727.352L603.507 733.379Z" stroke="#FFD873"/>
<path d="M693.893 704.139C685.527 692.458 676.441 700.755 673.063 706.195C668.402 717.747 674.654 727.911 679.812 731.742C683.939 734.807 688.951 732.793 691.135 731.636C695.591 727.494 701.408 714.632 693.893 704.139Z" fill="#FFD873"/>
<path d="M681.509 695.969L676.839 697.924L675.63 688.918L681.509 695.969Z" fill="#FFD873"/>
<path d="M693.893 704.139C685.527 692.458 676.441 700.755 673.063 706.195C668.402 717.747 674.654 727.911 679.812 731.742C683.939 734.807 688.951 732.793 691.135 731.636C695.591 727.494 701.408 714.632 693.893 704.139Z" stroke="#FFD873"/>
<path d="M681.509 695.969L676.839 697.924L675.63 688.918L681.509 695.969Z" stroke="#FFD873"/>
<path d="M618.16 693.219C604.259 688.304 599.165 699.673 600.492 707.384C602.528 719.221 612.075 726.316 621.733 726.664C628.133 726.894 633.037 721.939 633.907 717.726C635.478 710.117 631.902 698.077 618.16 693.219Z" fill="#FFD873"/>
<path d="M608.835 690.171L602.649 693.31L601.281 682.175L608.835 690.171Z" fill="#FFD873"/>
<path d="M618.16 693.219C604.259 688.304 599.165 699.673 600.492 707.384C602.528 719.221 612.075 726.316 621.733 726.664C628.133 726.894 633.037 721.939 633.907 717.726C635.478 710.117 631.902 698.077 618.16 693.219Z" stroke="#FFD873"/>
<path d="M608.835 690.171L602.649 693.31L601.281 682.175L608.835 690.171Z" stroke="#FFD873"/>
<path d="M657.165 679.464C646.915 668.865 637.207 677.424 635.203 684.987C632.127 696.597 636.781 708.057 645.417 712.394C651.14 715.267 657.411 711.754 659.956 708.285C664.553 702.021 665.972 688.571 657.165 679.464Z" fill="#FFD873"/>
<path d="M647.058 671.793L640.34 674.971L638.891 662.772L647.058 671.793Z" fill="#FFD873"/>
<path d="M657.165 679.464C646.915 668.865 637.207 677.424 635.203 684.987C632.127 696.597 636.781 708.057 645.417 712.394C651.14 715.267 657.411 711.754 659.956 708.285C664.553 702.021 665.972 688.571 657.165 679.464Z" stroke="#FFD873"/>
<path d="M647.058 671.793L640.34 674.971L638.891 662.772L647.058 671.793Z" stroke="#FFD873"/>
<path d="M1345.15 764.929C1357.41 748.087 1348.88 733.92 1343.09 728.942C1341.41 728.328 1304.09 708.003 1289.22 693.99C1272.32 683.992 1261.55 692.429 1258.28 697.897C1245.94 713.378 1250.18 733.022 1256.51 739.147C1261.57 744.047 1260.17 752.55 1258.84 756.188C1244.99 773.21 1253.36 791.955 1259.28 799.2C1263.27 804.786 1274.99 813.52 1289.98 803.773C1297.74 796.456 1319.63 778.443 1345.15 764.929Z" fill="#FFD873"/>
<path d="M1350.12 691.523C1366.72 673.224 1350.72 661.272 1340.64 657.583C1320.1 653.872 1305.55 667.592 1301.03 677.361C1297.4 685.176 1301.78 693.508 1304.42 696.697C1312.74 702.597 1333.52 709.823 1350.12 691.523Z" fill="#FFD873"/>
<path d="M1361.53 678.56L1360.1 669.466L1374.37 674.692L1361.53 678.56Z" fill="#FFD873"/>
<path d="M1345.15 764.929C1357.41 748.087 1348.88 733.92 1343.09 728.942C1341.41 728.328 1304.09 708.003 1289.22 693.99C1272.32 683.992 1261.55 692.429 1258.28 697.897C1245.94 713.378 1250.18 733.022 1256.51 739.147C1261.57 744.047 1260.17 752.55 1258.84 756.188C1244.99 773.21 1253.36 791.955 1259.28 799.2C1263.27 804.786 1274.99 813.52 1289.98 803.773C1297.74 796.456 1319.63 778.443 1345.15 764.929Z" stroke="#FFD873"/>
<path d="M1350.12 691.523C1366.72 673.224 1350.72 661.272 1340.64 657.583C1320.1 653.872 1305.55 667.592 1301.03 677.361C1297.4 685.176 1301.78 693.508 1304.42 696.697C1312.74 702.597 1333.52 709.823 1350.12 691.523Z" stroke="#FFD873"/>
<path d="M1361.53 678.56L1360.1 669.466L1374.37 674.692L1361.53 678.56Z" stroke="#FFD873"/>
<path d="M1343.62 836.738C1367.24 832.052 1360.86 812.444 1354.89 803.525C1340.49 788.419 1320.65 790.929 1311.23 796.151C1303.7 800.329 1303.31 809.372 1303.56 813.505C1306.8 823.172 1322.41 840.948 1343.62 836.738Z" fill="#FFD873"/>
<path d="M1364.66 823.49L1364.9 815.011L1379.49 819.397L1364.66 823.49Z" fill="#FFD873"/>
<path d="M1343.62 836.738C1367.24 832.052 1360.86 812.444 1354.89 803.525C1340.49 788.419 1320.65 790.929 1311.23 796.151C1303.7 800.329 1303.31 809.372 1303.56 813.505C1306.8 823.172 1322.41 840.948 1343.62 836.738Z" stroke="#FFD873"/>
<path d="M1364.66 823.49L1364.9 815.011L1379.49 819.397L1364.66 823.49Z" stroke="#FFD873"/>
<path d="M1412.68 728.71C1429.8 710.893 1415.97 695.253 1403.29 691.943C1383.81 686.861 1366.38 696.523 1359.17 711.023C1354.39 720.631 1358.56 731.544 1364.39 735.787C1374.91 743.449 1395.76 746.321 1412.68 728.71Z" fill="#FFD873"/>
<path d="M1423.79 716.586L1423.28 704.973L1441.22 710.588L1423.79 716.586Z" fill="#FFD873"/>
<path d="M1412.68 728.71C1429.8 710.893 1415.97 695.253 1403.29 691.943C1383.81 686.861 1366.38 696.523 1359.17 711.023C1354.39 720.631 1358.56 731.544 1364.39 735.787C1374.91 743.449 1395.76 746.321 1412.68 728.71Z" stroke="#FFD873"/>
<path d="M1423.79 716.586L1423.28 704.973L1441.22 710.588L1423.79 716.586Z" stroke="#FFD873"/>
<path d="M1406.69 797.755C1429.96 789.444 1423.61 768.706 1413.46 760.415C1397.86 747.688 1377.15 746.861 1364.56 757.042C1356.22 763.788 1357.24 775.791 1360.77 782.075C1367.15 793.424 1386.7 804.897 1406.69 797.755Z" fill="#FFD873"/>
<path d="M1425.39 787.638L1425.19 775.185L1444.81 781.415L1425.39 787.638Z" fill="#FFD873"/>
<path d="M1406.69 797.755C1429.96 789.444 1423.61 768.706 1413.46 760.415C1397.86 747.688 1377.15 746.861 1364.56 757.042C1356.22 763.788 1357.24 775.791 1360.77 782.075C1367.15 793.424 1386.7 804.897 1406.69 797.755Z" stroke="#FFD873"/>
<path d="M1425.39 787.638L1425.19 775.185L1444.81 781.415L1425.39 787.638Z" stroke="#FFD873"/>
<path d="M1257.75 218.183C1254.87 206.679 1245.57 205.231 1241.28 205.944C1240.4 206.453 1217.9 215.33 1206.35 216.707C1195.81 220.441 1195.56 228.225 1196.76 231.65C1199.02 242.689 1209.14 248.011 1214.13 247.484C1218.12 247.062 1221.32 250.777 1222.42 252.687C1224.8 264.951 1236.04 268.137 1241.37 268.198C1245.26 268.496 1253.36 266.566 1254.58 256.458C1254.21 250.399 1254.34 234.26 1257.75 218.183Z" fill="#FFD873"/>
<path d="M1227.51 189.211C1225.57 175.279 1214.51 177.904 1209.22 180.958C1200.1 188.575 1200.78 199.937 1203.4 205.482C1205.49 209.917 1210.72 211.047 1213.08 211.058C1218.69 209.581 1229.44 203.143 1227.51 189.211Z" fill="#FFD873"/>
<path d="M1226.01 179.495L1221.52 176.8L1229.01 172.473L1226.01 179.495Z" fill="#FFD873"/>
<path d="M1257.75 218.183C1254.87 206.679 1245.57 205.231 1241.28 205.944C1240.4 206.453 1217.9 215.33 1206.35 216.707C1195.81 220.441 1195.56 228.225 1196.76 231.65C1199.02 242.689 1209.14 248.011 1214.13 247.484C1218.12 247.062 1221.32 250.777 1222.42 252.687C1224.8 264.951 1236.04 268.137 1241.37 268.198C1245.26 268.496 1253.36 266.566 1254.58 256.458C1254.21 250.399 1254.34 234.26 1257.75 218.183Z" stroke="#FFD873"/>
<path d="M1227.51 189.211C1225.57 175.279 1214.51 177.904 1209.22 180.958C1200.1 188.575 1200.78 199.937 1203.4 205.482C1205.49 209.917 1210.72 211.047 1213.08 211.058C1218.69 209.581 1229.44 203.143 1227.51 189.211Z" stroke="#FFD873"/>
<path d="M1226.01 179.495L1221.52 176.8L1229.01 172.473L1226.01 179.495Z" stroke="#FFD873"/>
<path d="M1288.56 245.069C1295.13 233.043 1284.24 228.669 1278.17 228.019C1266.31 228.795 1260.16 238.375 1259.01 244.395C1258.08 249.21 1261.89 252.684 1263.78 254.082C1269.19 256.197 1282.65 255.871 1288.56 245.069Z" fill="#FFD873"/>
<path d="M1290.45 231.044L1286.84 227.84L1294.08 223.073L1290.45 231.044Z" fill="#FFD873"/>
<path d="M1288.56 245.069C1295.13 233.043 1284.24 228.669 1278.17 228.019C1266.31 228.795 1260.16 238.375 1259.01 244.395C1258.08 249.21 1261.89 252.684 1263.78 254.082C1269.19 256.197 1282.65 255.871 1288.56 245.069Z" stroke="#FFD873"/>
<path d="M1290.45 231.044L1286.84 227.84L1294.08 223.073L1290.45 231.044Z" stroke="#FFD873"/>
<path d="M1266.59 175.463C1265.06 161.481 1253.18 161.81 1247.1 166.142C1237.77 172.793 1235.63 183.935 1239.33 192.379C1241.78 197.974 1248.07 200.138 1252.05 199.141C1259.24 197.341 1268.1 189.283 1266.59 175.463Z" fill="#FFD873"/>
<path d="M1265.35 166.187L1260.09 162.17L1269.09 156.384L1265.35 166.187Z" fill="#FFD873"/>
<path d="M1266.59 175.463C1265.06 161.481 1253.18 161.81 1247.1 166.142C1237.77 172.793 1235.63 183.935 1239.33 192.379C1241.78 197.974 1248.07 200.138 1252.05 199.141C1259.24 197.341 1268.1 189.283 1266.59 175.463Z" stroke="#FFD873"/>
<path d="M1265.35 166.187L1260.09 162.17L1269.09 156.384L1265.35 166.187Z" stroke="#FFD873"/>
<path d="M1294.56 203.289C1299.42 190.092 1288.05 185.293 1280.72 186.702C1269.47 188.864 1261.55 197.608 1261.39 206.825C1261.29 212.933 1266.91 216.868 1270.94 217.619C1278.23 218.976 1290.38 214.628 1294.56 203.289Z" fill="#FFD873"/>
<path d="M1296.97 191.428L1291.45 186.97L1301.34 180.675L1296.97 191.428Z" fill="#FFD873"/>
<path d="M1294.56 203.289C1299.42 190.092 1288.05 185.293 1280.72 186.702C1269.47 188.864 1261.55 197.608 1261.39 206.825C1261.29 212.933 1266.91 216.868 1270.94 217.619C1278.23 218.976 1290.38 214.628 1294.56 203.289Z" stroke="#FFD873"/>
<path d="M1296.97 191.428L1291.45 186.97L1301.34 180.675L1296.97 191.428Z" stroke="#FFD873"/>
<path d="M1257.75 218.183C1254.87 206.679 1245.57 205.231 1241.28 205.944C1240.4 206.453 1217.9 215.33 1206.35 216.707C1195.81 220.441 1195.56 228.225 1196.76 231.65C1199.02 242.689 1209.14 248.011 1214.13 247.484C1218.12 247.062 1221.32 250.777 1222.42 252.687C1224.8 264.951 1236.04 268.137 1241.37 268.198C1245.26 268.496 1253.36 266.566 1254.58 256.458C1254.21 250.399 1254.34 234.26 1257.75 218.183Z" fill="#FFD873"/>
<path d="M1227.51 189.211C1225.57 175.279 1214.51 177.904 1209.22 180.958C1200.1 188.575 1200.78 199.937 1203.4 205.482C1205.49 209.917 1210.72 211.047 1213.08 211.058C1218.69 209.581 1229.44 203.143 1227.51 189.211Z" fill="#FFD873"/>
<path d="M1226.01 179.495L1221.52 176.8L1229.01 172.473L1226.01 179.495Z" fill="#FFD873"/>
<path d="M1257.75 218.183C1254.87 206.679 1245.57 205.231 1241.28 205.944C1240.4 206.453 1217.9 215.33 1206.35 216.707C1195.81 220.441 1195.56 228.225 1196.76 231.65C1199.02 242.689 1209.14 248.011 1214.13 247.484C1218.12 247.062 1221.32 250.777 1222.42 252.687C1224.8 264.951 1236.04 268.137 1241.37 268.198C1245.26 268.496 1253.36 266.566 1254.58 256.458C1254.21 250.399 1254.34 234.26 1257.75 218.183Z" stroke="#FFD873"/>
<path d="M1227.51 189.211C1225.57 175.279 1214.51 177.904 1209.22 180.958C1200.1 188.575 1200.78 199.937 1203.4 205.482C1205.49 209.917 1210.72 211.047 1213.08 211.058C1218.69 209.581 1229.44 203.143 1227.51 189.211Z" stroke="#FFD873"/>
<path d="M1226.01 179.495L1221.52 176.8L1229.01 172.473L1226.01 179.495Z" stroke="#FFD873"/>
<path d="M1288.56 245.069C1295.13 233.043 1284.24 228.669 1278.17 228.019C1266.31 228.795 1260.16 238.375 1259.01 244.395C1258.08 249.21 1261.89 252.684 1263.78 254.082C1269.19 256.197 1282.65 255.871 1288.56 245.069Z" fill="#FFD873"/>
<path d="M1290.45 231.044L1286.84 227.84L1294.08 223.073L1290.45 231.044Z" fill="#FFD873"/>
<path d="M1288.56 245.069C1295.13 233.043 1284.24 228.669 1278.17 228.019C1266.31 228.795 1260.16 238.375 1259.01 244.395C1258.08 249.21 1261.89 252.684 1263.78 254.082C1269.19 256.197 1282.65 255.871 1288.56 245.069Z" stroke="#FFD873"/>
<path d="M1290.45 231.044L1286.84 227.84L1294.08 223.073L1290.45 231.044Z" stroke="#FFD873"/>
<path d="M1266.59 175.463C1265.06 161.481 1253.18 161.81 1247.1 166.142C1237.77 172.793 1235.63 183.935 1239.33 192.379C1241.78 197.974 1248.07 200.138 1252.05 199.141C1259.24 197.341 1268.1 189.283 1266.59 175.463Z" fill="#FFD873"/>
<path d="M1265.35 166.187L1260.09 162.17L1269.09 156.384L1265.35 166.187Z" fill="#FFD873"/>
<path d="M1266.59 175.463C1265.06 161.481 1253.18 161.81 1247.1 166.142C1237.77 172.793 1235.63 183.935 1239.33 192.379C1241.78 197.974 1248.07 200.138 1252.05 199.141C1259.24 197.341 1268.1 189.283 1266.59 175.463Z" stroke="#FFD873"/>
<path d="M1265.35 166.187L1260.09 162.17L1269.09 156.384L1265.35 166.187Z" stroke="#FFD873"/>
<path d="M1294.56 203.289C1299.42 190.092 1288.05 185.293 1280.72 186.702C1269.47 188.864 1261.55 197.608 1261.39 206.825C1261.29 212.933 1266.91 216.868 1270.94 217.619C1278.23 218.976 1290.38 214.628 1294.56 203.289Z" fill="#FFD873"/>
<path d="M1296.97 191.428L1291.45 186.97L1301.34 180.675L1296.97 191.428Z" fill="#FFD873"/>
<path d="M1294.56 203.289C1299.42 190.092 1288.05 185.293 1280.72 186.702C1269.47 188.864 1261.55 197.608 1261.39 206.825C1261.29 212.933 1266.91 216.868 1270.94 217.619C1278.23 218.976 1290.38 214.628 1294.56 203.289Z" stroke="#FFD873"/>
<path d="M1296.97 191.428L1291.45 186.97L1301.34 180.675L1296.97 191.428Z" stroke="#FFD873"/>
<path d="M778.347 161.518C764.719 160.941 760.087 170.727 759.474 175.692C759.748 176.831 762.198 204.545 759.95 217.733C760.631 230.577 769.136 233.389 773.303 233.189C786.216 234.299 795.39 224.866 796.435 219.195C797.27 214.658 802.413 212.337 804.88 211.744C819.183 213.122 826.366 201.759 828.17 195.905C829.769 191.706 830.281 182.149 819.53 177.508C812.727 175.932 794.967 170.528 778.347 161.518Z" fill="#FFD873"/>
<path d="M736.523 185.428C720.526 183.013 719.812 196.071 721.455 202.903C726.882 215.448 739.636 218.403 746.605 217.329C752.179 216.47 755.134 211.062 755.915 208.466C756.116 201.793 752.521 187.843 736.523 185.428Z" fill="#FFD873"/>
<path d="M725.318 183.907L720.879 187.986L718.551 178.308L725.318 183.907Z" fill="#FFD873"/>
<path d="M778.347 161.518C764.719 160.941 760.087 170.727 759.474 175.692C759.748 176.831 762.198 204.545 759.95 217.733C760.631 230.577 769.136 233.389 773.303 233.189C786.216 234.299 795.39 224.866 796.435 219.195C797.27 214.658 802.413 212.337 804.88 211.744C819.183 213.122 826.366 201.759 828.17 195.905C829.769 191.706 830.281 182.149 819.53 177.508C812.727 175.932 794.967 170.528 778.347 161.518Z" stroke="#FFD873"/>
<path d="M736.523 185.428C720.526 183.013 719.812 196.071 721.455 202.903C726.882 215.448 739.636 218.403 746.605 217.329C752.179 216.47 755.134 211.062 755.915 208.466C756.116 201.793 752.521 187.843 736.523 185.428Z" stroke="#FFD873"/>
<path d="M725.318 183.907L720.879 187.986L718.551 178.308L725.318 183.907Z" stroke="#FFD873"/>
<path d="M818.053 136.311C806.934 125.134 798.556 135.721 795.857 142.208C792.845 155.541 801.407 165.446 807.669 168.686C812.678 171.278 817.751 168.214 819.913 166.576C824.009 161.305 828.041 146.35 818.053 136.311Z" fill="#FFD873"/>
<path d="M803.201 129.645L798.489 132.585L795.592 123.045L803.201 129.645Z" fill="#FFD873"/>
<path d="M818.053 136.311C806.934 125.134 798.556 135.721 795.857 142.208C792.845 155.541 801.407 165.446 807.669 168.686C812.678 171.278 817.751 168.214 819.913 166.576C824.009 161.305 828.041 146.35 818.053 136.311Z" stroke="#FFD873"/>
<path d="M803.201 129.645L798.489 132.585L795.592 123.045L803.201 129.645Z" stroke="#FFD873"/>
<path d="M734.11 137.832C718.188 134.959 714.675 148.17 717.471 156.287C721.763 168.747 733.353 174.749 743.874 173.423C750.845 172.544 755.283 166.314 755.483 161.597C755.843 153.08 749.847 140.671 734.11 137.832Z" fill="#FFD873"/>
<path d="M723.473 136.174L717.327 140.664L713.882 128.846L723.473 136.174Z" fill="#FFD873"/>
<path d="M734.11 137.832C718.188 134.959 714.675 148.17 717.471 156.287C721.763 168.747 733.353 174.749 743.874 173.423C750.845 172.544 755.283 166.314 755.483 161.597C755.843 153.08 749.847 140.671 734.11 137.832Z" stroke="#FFD873"/>
<path d="M723.473 136.174L717.327 140.664L713.882 128.846L723.473 136.174Z" stroke="#FFD873"/>
<path d="M773.927 116.06C760.958 106.388 751.953 117.369 751.116 125.912C749.831 139.028 756.89 150.619 767.008 153.794C773.712 155.897 779.885 150.986 782.03 146.781C785.903 139.187 785.07 124.37 773.927 116.06Z" fill="#FFD873"/>
<path d="M761.629 109.533L754.913 114.159L751.195 101.203L761.629 109.533Z" fill="#FFD873"/>
<path d="M773.927 116.06C760.958 106.388 751.953 117.369 751.116 125.912C749.831 139.028 756.89 150.619 767.008 153.794C773.712 155.897 779.885 150.986 782.03 146.781C785.903 139.187 785.07 124.37 773.927 116.06Z" stroke="#FFD873"/>
<path d="M761.629 109.533L754.913 114.159L751.195 101.203L761.629 109.533Z" stroke="#FFD873"/>
</svg>
