<svg width="30" height="30" viewBox="0 0 30 30" fill="none" xmlns="http://www.w3.org/2000/svg">
<g clip-path="url(#clip0_32_3600)">
<path d="M15 30C6.71573 30 0 23.2843 0 15C0 6.71573 6.71573 0 15 0C23.2843 0 30 6.71573 30 15C30 23.2843 23.2843 30 15 30Z" fill="#FFCC4D"/>
<path d="M9.58366 15.8334C7.05235 15.8334 5.00033 13.7814 5.00033 11.2501C5.00033 8.71878 7.05235 6.66675 9.58366 6.66675C12.115 6.66675 14.167 8.71878 14.167 11.2501C14.167 13.7814 12.115 15.8334 9.58366 15.8334Z" fill="#F4F7F9"/>
<path d="M20.4167 15.8334C17.8854 15.8334 15.8333 13.7814 15.8333 11.2501C15.8333 8.71878 17.8854 6.66675 20.4167 6.66675C22.948 6.66675 25 8.71878 25 11.2501C25 13.7814 22.948 15.8334 20.4167 15.8334Z" fill="#F4F7F9"/>
<rect x="9" y="20" width="13" height="2" rx="1" fill="#65471B"/>
<circle cx="10" cy="11" r="2" fill="#65471B"/>
<circle cx="21" cy="11" r="2" fill="#65471B"/>
</g>
<defs>
<clipPath id="clip0_32_3600">
<rect width="30" height="30" fill="white" transform="matrix(-1 0 0 1 30 0)"/>
</clipPath>
</defs>
</svg>
