<svg width="30" height="30" viewBox="0 0 30 30" fill="none" xmlns="http://www.w3.org/2000/svg">
<g clip-path="url(#clip0_32_3585)">
<path d="M15 30C6.71573 30 0 23.2843 0 15C0 6.71573 6.71573 0 15 0C23.2843 0 30 6.71573 30 15C30 23.2843 23.2843 30 15 30Z" fill="#FFCB4C"/>
<path d="M9.58366 15.8332C7.05235 15.8332 5.00033 13.7811 5.00033 11.2498C5.00033 8.71853 7.05235 6.6665 9.58366 6.6665C12.115 6.6665 14.167 8.71853 14.167 11.2498C14.167 13.7811 12.115 15.8332 9.58366 15.8332Z" fill="#F4F7F9"/>
<path d="M20.4167 15.8334C17.8854 15.8334 15.8333 13.7814 15.8333 11.2501C15.8333 8.71878 17.8854 6.66675 20.4167 6.66675C22.948 6.66675 25 8.71878 25 11.2501C25 13.7814 22.948 15.8334 20.4167 15.8334Z" fill="#F4F7F9"/>
<path d="M12.1558 12.6468C12.5406 13.9203 11.0844 12.9705 9.76267 13.3699C8.44096 13.7692 7.75426 15.3664 7.36951 14.0929C6.98476 12.8195 7.7443 11.4634 9.06601 11.0641C10.3877 10.6647 11.7711 11.3734 12.1558 12.6468Z" fill="#65471B"/>
<path d="M22.8104 13.8187C22.5853 15.1298 21.7072 13.6293 20.3464 13.3957C18.9856 13.162 17.6574 14.2838 17.8825 12.9726C18.1076 11.6615 19.3932 10.788 20.754 11.0217C22.1148 11.2553 23.0355 12.5076 22.8104 13.8187Z" fill="#65471B"/>
<path d="M10.98 21.4907C10.4458 22.1875 9.83346 22.9472 9.77017 24.2096C9.73002 25.0104 10.8626 24.2498 11.9945 23.4893C13.1264 22.7288 15.5897 22.265 15.5897 22.265L18.053 21.8012C18.6689 21.6853 20.0001 21.9821 20.0001 21.9821C20.0001 21.9821 19.9992 21.9822 21.3304 22.279C22.0656 22.4429 20.9986 21.2969 20.4165 20.8088C19.8345 20.3207 18.9917 19.4851 17.5551 19.1579C16.1185 18.8307 14.7073 19.1467 13.7606 19.325C12.8138 19.5032 11.6364 20.6345 10.98 21.4907Z" fill="#65471B" stroke="#65471B" stroke-width="0.3"/>
<path d="M9 19C9 20.1046 8.32843 20.5 7.5 20.5C6.67157 20.5 5.5 20.1046 5.5 19C5.5 17.8954 6.67157 16 7.5 16C8.32843 16 9 17.8954 9 19Z" fill="#1AC3ED" fill-opacity="0.7"/>
</g>
<defs>
<clipPath id="clip0_32_3585">
<rect width="30" height="30" fill="white" transform="matrix(-1 0 0 1 30 0)"/>
</clipPath>
</defs>
</svg>
