<svg width="30" height="30" viewBox="0 0 30 30" fill="none" xmlns="http://www.w3.org/2000/svg">
<g clip-path="url(#clip0_32_3611)">
<path d="M15 30C6.71573 30 0 23.2843 0 15C0 6.71573 6.71573 0 15 0C23.2843 0 30 6.71573 30 15C30 23.2843 23.2843 30 15 30Z" fill="#FFCC4D"/>
<path d="M9.58366 15.8334C7.05235 15.8334 5.00033 13.7814 5.00033 11.2501C5.00033 8.71878 7.05235 6.66675 9.58366 6.66675C12.115 6.66675 14.167 8.71878 14.167 11.2501C14.167 13.7814 12.115 15.8334 9.58366 15.8334Z" fill="#F4F7F9"/>
<path d="M20.4167 15.8334C17.8854 15.8334 15.8333 13.7814 15.8333 11.2501C15.8333 8.71878 17.8854 6.66675 20.4167 6.66675C22.948 6.66675 25 8.71878 25 11.2501C25 13.7814 22.948 15.8334 20.4167 15.8334Z" fill="#F4F7F9"/>
<path d="M10.7422 19.5199C13.0447 18.9641 18.1363 19.4699 20.0438 23.1907C20.0688 23.2383 20.0809 23.2916 20.0791 23.3453C20.0773 23.399 20.0617 23.4513 20.0336 23.4971C20.0056 23.543 19.9662 23.5807 19.9192 23.6068C19.8722 23.6328 19.8192 23.6463 19.7655 23.6457C19.6922 23.6457 19.6211 23.6201 19.5647 23.5732C16.9947 21.4232 13.368 21.4232 11.2013 21.4232C9.83884 21.4232 9.08801 21.4232 9.08801 20.8332C9.08801 20.2432 9.67551 19.7766 10.7422 19.5199ZM21.2497 10.8332C20.6971 10.8332 20.1672 10.6137 19.7765 10.223C19.3858 9.83235 19.1663 9.30244 19.1663 8.74991C19.1663 7.70658 19.9355 6.84991 20.9363 6.69824C21.5781 6.77108 22.1969 6.98019 22.7513 7.31158C23.1241 7.69763 23.3327 8.21324 23.333 8.74991C23.333 9.30244 23.1135 9.83235 22.7228 10.223C22.3321 10.6137 21.8022 10.8332 21.2497 10.8332ZM10.4163 10.8332C9.86381 10.8332 9.3339 10.6137 8.9432 10.223C8.5525 9.83235 8.33301 9.30244 8.33301 8.74991C8.33301 7.70658 9.10218 6.84991 10.103 6.69824C10.7445 6.77109 11.3631 6.98021 11.9172 7.31158C12.2905 7.69735 12.4994 8.21307 12.4997 8.74991C12.4997 9.30244 12.2802 9.83235 11.8895 10.223C11.4988 10.6137 10.9689 10.8332 10.4163 10.8332Z" fill="#65471B"/>
</g>
<defs>
<clipPath id="clip0_32_3611">
<rect width="30" height="30" fill="white" transform="matrix(-1 0 0 1 30 0)"/>
</clipPath>
</defs>
</svg>
