<svg width="228" height="228" viewBox="0 0 228 228" fill="none" xmlns="http://www.w3.org/2000/svg">
<circle cx="114" cy="114" r="114" fill="#FFEFCA"/>
<rect x="28.7322" y="18.6362" width="64" height="117" rx="7.5" transform="rotate(10.5323 28.7322 18.6362)" fill="#AF7979" stroke="#8D0F3A"/>
<rect x="33.4959" y="24.583" width="23.6432" height="25.2218" rx="7.5" transform="rotate(10.5323 33.4959 24.583)" fill="#FFEFCA" stroke="#8D0F3A"/>
<rect x="70.9695" y="15.583" width="64" height="117" rx="7.5" transform="rotate(10.5323 70.9695 15.583)" fill="#FF7171" stroke="#8D0F3A"/>
<rect x="75.7332" y="21.5297" width="23.6432" height="25.2218" rx="7.5" transform="rotate(10.5323 75.7332 21.5297)" fill="#FFEFCA" stroke="#8D0F3A"/>
<rect x="113.97" y="7.63619" width="64" height="117" rx="7.5" transform="rotate(10.5323 113.97 7.63619)" fill="#442F2F" stroke="#8D0F3A"/>
<rect x="118.733" y="13.583" width="23.6432" height="25.2218" rx="7.5" transform="rotate(10.5323 118.733 13.583)" fill="#FFEFCA" stroke="#8D0F3A"/>
<path d="M41 26.5001L32 35.5C32 31.5 34 29.0001 34.5 28.5001C36.5 26 39.8333 26.1667 41 26.5001Z" fill="white"/>
<rect x="156.207" y="4.58297" width="64" height="117" rx="7.5" transform="rotate(10.5323 156.207 4.58297)" fill="#EB2E2E" stroke="#8D0F3A"/>
<rect x="160.97" y="10.5297" width="23.6432" height="25.2218" rx="7.5" transform="rotate(10.5323 160.97 10.5297)" fill="#FFEFCA" stroke="#8D0F3A"/>
<rect x="23.9695" y="89.6362" width="64" height="117" rx="7.5" transform="rotate(10.5323 23.9695 89.6362)" fill="#AEDDFF" stroke="#8D0F3A"/>
<rect x="28.7332" y="95.583" width="23.6432" height="25.2218" rx="7.5" transform="rotate(10.5323 28.7332 95.583)" fill="#AF7979" stroke="#8D0F3A"/>
<rect x="66.2068" y="86.583" width="64" height="117" rx="7.5" transform="rotate(10.5323 66.2068 86.583)" fill="#73C4FF" stroke="#8D0F3A"/>
<rect x="70.9705" y="92.5297" width="23.6432" height="25.2218" rx="7.5" transform="rotate(10.5323 70.9705 92.5297)" fill="#FF7171" stroke="#8D0F3A"/>
<path d="M182 23.0002C178.8 19.8002 169.667 14.6668 165.5 12.5002C166.3 12.1002 168.167 12.3335 169 12.5002L177.5 14.0002C182.7 16.0002 182.667 20.8335 182 23.0002Z" fill="white"/>
<rect x="109.207" y="78.6362" width="64" height="117" rx="7.5" transform="rotate(10.5323 109.207 78.6362)" fill="#5780F0" stroke="#8D0F3A"/>
<rect x="113.97" y="84.583" width="23.6432" height="25.2218" rx="7.5" transform="rotate(10.5323 113.97 84.583)" fill="#442F2F" stroke="#8D0F3A"/>
<rect x="151.444" y="75.583" width="64" height="117" rx="7.5" transform="rotate(10.5323 151.444 75.583)" fill="#121D3B" stroke="#8D0F3A"/>
<rect x="156.208" y="81.5297" width="23.6432" height="25.2218" rx="7.5" transform="rotate(10.5323 156.208 81.5297)" fill="#EB2E2E" stroke="#8D0F3A"/>
</svg>
