<svg width="112" height="124" viewBox="0 0 112 124" fill="none" xmlns="http://www.w3.org/2000/svg">
<path d="M1.81988 79.2776C1.81988 71.2369 8.33817 64.7186 16.3789 64.7186H94.8926C102.933 64.7186 109.452 71.2368 109.452 79.2776V86.6479C109.452 105.745 93.9707 121.226 74.874 121.226H36.3975C17.3008 121.226 1.81988 105.745 1.81988 86.6479V79.2776Z" fill="#CB8641" stroke="#8D0F3A" stroke-width="3.63975"/>
<path d="M28.8447 120.79C8.39478 120.79 10.8006 72.1714 14.5598 47.8621H95.7575C102.524 89.9648 98.7648 109.512 98.7648 109.512C97.2612 118.534 92.7502 120.79 88.991 120.79H28.8447Z" fill="#CB8641" stroke="#8D0F3A" stroke-width="3.63975"/>
<path d="M90.2188 19.2922H17.2909C10.0728 19.2922 9.02051 34.3289 9.02051 44.1028C9.02051 48.7175 14.2835 61.395 59.3936 61.395C115.781 61.395 99.9926 29.8179 99.2408 24.5551C98.6393 20.3448 92.9755 19.2922 90.2188 19.2922Z" fill="#CB8641" stroke="#8D0F3A" stroke-width="3.63975"/>
<path d="M40.7018 2C32.2812 2 31.1786 13.5281 31.6798 19.2922H43.7088C44.7112 17.2873 40.7018 11.022 56.3887 11.022C70.6099 11.022 68.7699 17.2873 68.5193 19.2922H79.045C79.045 6.66137 73.0303 2.50122 70.023 2H40.7018Z" fill="#CB8641" stroke="#8D0F3A" stroke-width="3.63975"/>
<rect x="70.9888" y="46.6741" width="9.89327" height="21.9226" rx="4.94663" fill="#E4AA52" stroke="#8D0F3A" stroke-width="3.63975"/>
<rect x="33.398" y="46.6741" width="9.89327" height="21.9226" rx="4.94663" fill="#E4AA52" stroke="#8D0F3A" stroke-width="3.63975"/>
</svg>
