<svg width="112" height="124" viewBox="0 0 112 124" fill="none" xmlns="http://www.w3.org/2000/svg">
<path d="M1.81988 79.2773C1.81988 71.2366 8.33817 64.7183 16.3789 64.7183H94.8926C102.933 64.7183 109.452 71.2366 109.452 79.2773V86.6477C109.452 105.744 93.9707 121.225 74.874 121.225H36.3975C17.3008 121.225 1.81988 105.744 1.81988 86.6477V79.2773Z" fill="#CC9000" stroke="black" stroke-width="3.63975"/>
<path d="M28.8447 120.79C8.39478 120.79 10.8006 72.1716 14.5598 47.8623H95.7575C102.524 89.965 98.7648 109.513 98.7648 109.513C97.2612 118.535 92.7502 120.79 88.991 120.79H28.8447Z" fill="#CC9000" stroke="black" stroke-width="3.63975"/>
<path d="M90.2188 19.292H17.2909C10.0728 19.292 9.02051 34.3287 9.02051 44.1025C9.02051 48.7173 14.2835 61.3947 59.3936 61.3947C115.781 61.3947 99.9926 29.8177 99.2408 24.5548C98.6393 20.3446 92.9755 19.292 90.2188 19.292Z" fill="#CC9000" stroke="black" stroke-width="3.63975"/>
<path d="M40.7018 2C32.2812 2 31.1786 13.5281 31.6798 19.2922H43.7088C44.7112 17.2873 40.7018 11.022 56.3887 11.022C70.6099 11.022 68.7699 17.2873 68.5193 19.2922H79.045C79.045 6.66137 73.0303 2.50122 70.023 2H40.7018Z" fill="#CC9000" stroke="black" stroke-width="3.63975"/>
<rect x="70.9888" y="46.6744" width="9.89327" height="21.9226" rx="4.94663" fill="#4A4A4A" stroke="black" stroke-width="3.63975"/>
<rect x="33.398" y="46.6744" width="9.89327" height="21.9226" rx="4.94663" fill="#4A4A4A" stroke="black" stroke-width="3.63975"/>
</svg>
