<svg width="320" height="240" viewBox="0 0 137 102" fill="none" xmlns="http://www.w3.org/2000/svg">
<mask id="path-1-inside-1_1183_24343" fill="white">
<path d="M0 46.9637C0 45.4557 1.22246 44.2333 2.73044 44.2333H134.27C135.778 44.2333 137 45.4557 137 46.9637V95.9069C137 98.9229 134.555 101.368 131.539 101.368H5.4609C2.44493 101.368 0 98.9229 0 95.9069V46.9637Z"/>
</mask>
<path d="M0 46.9637C0 45.4557 1.22246 44.2333 2.73044 44.2333H134.27C135.778 44.2333 137 45.4557 137 46.9637V95.9069C137 98.9229 134.555 101.368 131.539 101.368H5.4609C2.44493 101.368 0 98.9229 0 95.9069V46.9637Z" fill="#FABA15" stroke="black" stroke-width="7.38" mask="url(#path-1-inside-1_1183_24343)"/>
<mask id="path-2-inside-2_1183_24343" fill="white">
<path d="M0 19.1131C0 8.55723 8.55723 0 19.1131 0H117.887C128.443 0 137 8.55723 137 19.1131V44.5745C137 46.0825 135.778 47.3049 134.27 47.3049H2.73044C1.22245 47.3049 0 46.0825 0 44.5745V19.1131Z"/>
</mask>
<path d="M0 19.1131C0 8.55723 8.55723 0 19.1131 0H117.887C128.443 0 137 8.55723 137 19.1131V44.5745C137 46.0825 135.778 47.3049 134.27 47.3049H2.73044C1.22245 47.3049 0 46.0825 0 44.5745V19.1131Z" fill="#FABA15" stroke="black" stroke-width="7.38" mask="url(#path-2-inside-2_1183_24343)"/>
<path d="M19.0457 16.3827C19.0457 8.35373 25.5544 1.845 33.5833 1.845H104.643C112.672 1.845 119.181 8.35373 119.181 16.3827V35.6303H19.0457V16.3827Z" fill="#F36B21" stroke="black" stroke-width="3.69"/>
<mask id="path-4-inside-3_1183_24343" fill="white">
<path fill-rule="evenodd" clip-rule="evenodd" d="M84.7799 55.2916H52.2191V89.6952H84.7799V55.2916ZM95.8382 89.6952H121.026V55.2916H95.8382V89.6952ZM17.2007 55.2916H41.1608V89.6952H17.2007V55.2916Z"/>
</mask>
<path fill-rule="evenodd" clip-rule="evenodd" d="M84.7799 55.2916H52.2191V89.6952H84.7799V55.2916ZM95.8382 89.6952H121.026V55.2916H95.8382V89.6952ZM17.2007 55.2916H41.1608V89.6952H17.2007V55.2916Z" fill="#F36B21"/>
<path d="M84.7799 55.2916H88.4699V51.6016H84.7799V55.2916ZM52.2191 55.2916V51.6016H48.5291V55.2916H52.2191ZM52.2191 89.6952H48.5291V93.3852H52.2191V89.6952ZM84.7799 89.6952V93.3852H88.4699V89.6952H84.7799ZM95.8382 89.6952H92.1482V93.3852H95.8382V89.6952ZM121.026 89.6952V93.3852H124.716V89.6952H121.026ZM121.026 55.2916H124.716V51.6016H121.026V55.2916ZM95.8382 55.2916V51.6016H92.1482V55.2916H95.8382ZM41.1608 55.2916H44.8508V51.6016H41.1608V55.2916ZM17.2007 55.2916V51.6016H13.5107V55.2916H17.2007ZM41.1608 89.6952V93.3852H44.8508V89.6952H41.1608ZM17.2007 89.6952H13.5107V93.3852H17.2007V89.6952ZM84.7799 51.6016H52.2191V58.9816H84.7799V51.6016ZM48.5291 55.2916V89.6952H55.9091V55.2916H48.5291ZM52.2191 93.3852H84.7799V86.0052H52.2191V93.3852ZM88.4699 89.6952V55.2916H81.0899V89.6952H88.4699ZM95.8382 93.3852H121.026V86.0052H95.8382V93.3852ZM124.716 89.6952V55.2916H117.336V89.6952H124.716ZM121.026 51.6016H95.8382V58.9816H121.026V51.6016ZM92.1482 55.2916V89.6952H99.5282V55.2916H92.1482ZM41.1608 51.6016H17.2007V58.9816H41.1608V51.6016ZM44.8508 89.6952V55.2916H37.4708V89.6952H44.8508ZM17.2007 93.3852H41.1608V86.0052H17.2007V93.3852ZM13.5107 55.2916V89.6952H20.8907V55.2916H13.5107Z" fill="black" mask="url(#path-4-inside-3_1183_24343)"/>
<rect x="50.7185" y="23.5666" width="36.133" height="43.3736" rx="9.89591" fill="#FABA15" stroke="black" stroke-width="3.69"/>
<path d="M73.5903 49.1394C72.4262 50.3025 70.9405 51.6987 69.127 53.3311C69.1265 53.3316 69.1261 53.332 69.1256 53.3324L68.7851 53.6373L68.4447 53.3324C68.4441 53.3318 68.4435 53.3313 68.4429 53.3308C66.6296 51.6984 65.144 50.3024 63.9799 49.1394C62.8245 47.985 61.9404 46.983 61.3055 46.1292L59.8374 47.2208L61.3055 46.1292C60.6693 45.2734 60.285 44.5655 60.0852 43.9987C59.8731 43.3972 59.7693 42.7907 59.7693 42.1708C59.7693 40.9307 60.1654 39.9898 60.9389 39.217C61.7126 38.444 62.6551 38.0478 63.8978 38.0478C64.5696 38.0478 65.1987 38.1876 65.8042 38.4708C66.4127 38.7554 66.9338 39.1527 67.3799 39.677L68.7851 41.3287L70.1904 39.677C70.6364 39.1527 71.1576 38.7554 71.766 38.4708C72.3716 38.1876 73.0007 38.0478 73.6725 38.0478C74.9152 38.0478 75.8577 38.444 76.6314 39.217C77.4049 39.9898 77.801 40.9307 77.801 42.1708C77.801 42.7907 77.6972 43.3972 77.4851 43.9987C77.2853 44.5655 76.901 45.2734 76.2647 46.1292C75.6299 46.983 74.7458 47.985 73.5903 49.1394Z" fill="black" stroke="black" stroke-width="3.69"/>
</svg>
