<svg width="70" height="70" viewBox="0 0 70 70" fill="none" xmlns="http://www.w3.org/2000/svg">
<path d="M34.978 56.8555C47.4365 56.8555 57.7197 46.5723 57.7197 34.1357C57.7197 21.6992 47.4146 11.416 34.9561 11.416C22.5195 11.416 12.2583 21.6992 12.2583 34.1357C12.2583 46.5723 22.5415 56.8555 34.978 56.8555ZM34.978 41.7383C28.7817 41.7383 23.9697 43.9575 21.6406 46.5063C18.6523 43.2764 16.8286 38.9258 16.8286 34.1357C16.8286 24.0503 24.8926 15.9644 34.9561 15.9644C45.0415 15.9644 53.1494 24.0503 53.1714 34.1357C53.1714 38.9258 51.3477 43.2764 48.3374 46.5283C46.0083 43.9575 41.1963 41.7383 34.978 41.7383ZM34.978 38.1348C39.2407 38.1787 42.5586 34.5312 42.5586 29.8291C42.5586 25.3906 39.2188 21.6772 34.978 21.6772C30.7593 21.6772 27.3975 25.3906 27.4194 29.8291C27.4414 34.5312 30.7373 38.1128 34.978 38.1348Z" fill="#1C1C1E"/>
</svg>
