<svg width="7" height="28" viewBox="0 0 7 28" fill="none" xmlns="http://www.w3.org/2000/svg">
<path d="M3.52727 19.381C2.64327 19.381 2.16227 18.887 2.08427 17.899L0.95327 3.547C0.90127 2.741 1.10927 2.065 1.57727 1.519C2.07127 0.972998 2.70827 0.699998 3.48827 0.699998C4.26827 0.699998 4.90527 0.972998 5.39927 1.519C5.89327 2.065 6.10127 2.741 6.02327 3.547L4.93127 17.899C4.85327 18.887 4.38527 19.381 3.52727 19.381ZM3.25427 28C2.50027 28 1.91527 27.805 1.49927 27.415C1.10927 26.999 0.91427 26.414 0.91427 25.66V24.997C0.91427 24.243 1.10927 23.671 1.49927 23.281C1.91527 22.865 2.50027 22.657 3.25427 22.657H3.76127C4.51527 22.657 5.08727 22.865 5.47727 23.281C5.89327 23.671 6.10127 24.243 6.10127 24.997V25.66C6.10127 26.414 5.89327 26.999 5.47727 27.415C5.08727 27.805 4.51527 28 3.76127 28H3.25427Z" fill="#F36B21"/>
</svg>
