<svg width="65" height="58" viewBox="0 0 65 58" fill="none" xmlns="http://www.w3.org/2000/svg">
<rect width="65" height="58" rx="18" fill="url(#paint0_linear_1672_22115)"/>
<path d="M35.5815 14.6364L35.0414 34.4964H29.9725L29.4185 14.6364H35.5815ZM32.5069 43.3601C31.5929 43.3601 30.8081 43.0369 30.1525 42.3906C29.497 41.7351 29.1738 40.9503 29.1831 40.0362C29.1738 39.1314 29.497 38.3558 30.1525 37.7095C30.8081 37.0632 31.5929 36.7401 32.5069 36.7401C33.3841 36.7401 34.155 37.0632 34.8198 37.7095C35.4846 38.3558 35.8216 39.1314 35.8308 40.0362C35.8216 40.6456 35.66 41.2042 35.3461 41.712C35.0414 42.2106 34.6397 42.6122 34.1412 42.9169C33.6426 43.2124 33.0978 43.3601 32.5069 43.3601Z" fill="#D063E2"/>
<defs>
<linearGradient id="paint0_linear_1672_22115" x1="32.5" y1="0" x2="32.5" y2="58" gradientUnits="userSpaceOnUse">
<stop stop-color="#F9F9F9"/>
<stop offset="1" stop-color="#FFFDEB"/>
</linearGradient>
</defs>
</svg>
