<svg width="73" height="73" viewBox="0 0 96 96" fill="none" xmlns="http://www.w3.org/2000/svg">
<mask id="mask0_1351_5283" style="mask-type:alpha" maskUnits="userSpaceOnUse" x="0" y="0" width="96" height="96">
<circle cx="48" cy="48" r="47.1429" fill="#BBB9B9"/>
<circle cx="48" cy="48" r="47.1429" fill="#E6E6E6"/>
</mask>
<g mask="url(#mask0_1351_5283)">
<circle cx="48" cy="48" r="47.1429" fill="#FCFFEB"/>
<rect x="-37.4464" y="-24.6785" width="170.893" height="144.375" fill="#FFD873"/>
<path d="M67.3102 78.2812C67.5167 74.745 58.9273 71.3675 48.1252 70.7375C37.3231 70.1075 28.3989 72.4636 28.1923 75.9998C27.9858 79.5361 36.5752 82.9135 47.3773 83.5435C58.1794 84.1735 67.1037 81.8175 67.3102 78.2812Z" fill="#FF6D00" stroke="#8D0F3A" stroke-width="0.308447" stroke-miterlimit="10"/>
<path d="M26.2829 123.262C25.7521 123.446 25.1994 123.621 24.6334 123.801C18.0267 125.896 9.23518 127.878 0.509501 127.291C-1.50412 127.155 -3.78534 126.743 -6.31223 125.493C-10.9975 123.17 -14.2044 118.141 -14.3404 112.915C-14.3667 111.745 -14.257 110.574 -14.1693 109.404C-14.1079 108.623 -14.0552 107.843 -14.064 107.058C-14.064 106.975 -14.064 106.896 -14.0684 106.813C-14.0772 106.471 -14.0991 106.12 -14.143 105.778C-14.3184 104.239 -14.8317 102.735 -15.9021 101.644C-16.161 101.381 -16.4505 101.144 -16.7488 100.942C-18.4071 99.8025 -20.5962 99.4781 -22.5001 98.6889C-27.2995 96.6986 -30.3309 91.1659 -29.4316 86.0584C-29.4316 87.6981 -28.4269 89.2106 -27.1328 90.2145C-25.8299 91.2229 -24.2725 91.806 -22.7327 92.3759C-24.5576 91.3807 -25.8913 89.5262 -26.2378 87.4789C-25.1937 88.5047 -23.632 88.8686 -22.1667 88.7678C-20.7015 88.6626 -19.2977 88.1584 -17.9202 87.6542C-18.2272 87.3605 -18.8765 86.8169 -19.8724 86.5275C-20.8112 86.2557 -21.6096 86.339 -22.022 86.4092C-19.5214 84.6775 -17.2446 83.7042 -15.6828 83.1518C-15.6828 83.1518 -8.53204 80.6178 -0.797815 82.3495C0.360344 82.6082 2.33887 83.0773 4.43145 84.5284C4.73854 84.7432 5.03685 84.9668 5.30885 85.1992C9.59053 88.7809 10.3319 94.66 10.5732 96.4268C11.2269 101.14 10.0204 103.283 10.1784 106.694C10.2222 107.641 10.1126 108.899 10.7838 110.223C11.9551 112.525 14.4162 113.397 15.3989 113.748C20.6106 115.594 25.8399 112.468 26.8138 111.863C26.6339 115.66 26.454 119.461 26.2698 123.257L26.2829 123.262Z" fill="#FF6D00" stroke="#8D0F3A" stroke-width="0.308447" stroke-miterlimit="10"/>
<path d="M74.2505 72.2792C73.0924 75.1113 70.8024 79.6006 66.2004 84.1031C63.9148 79.4209 61.6336 74.7431 59.348 70.0609C60.6597 68.1757 62.0591 65.9004 63.3621 63.2349C64.9545 59.9644 66.003 56.9262 66.7093 54.3528C67.7052 54.5325 73.7109 55.7206 75.8869 60.5212C77.5539 64.1994 76.0316 67.9215 74.2505 72.2792Z" fill="#5A5E3C" stroke="#8D0F3A" stroke-width="0.308447" stroke-miterlimit="10"/>
<path d="M29.9329 62.8226C30.7752 68.4605 33.7276 72.2045 35.0656 73.7082C30.4681 74.1861 25.8705 74.6639 21.2774 75.1462C20.1807 73.1295 18.7724 70.8586 16.9694 68.4999C14.7584 65.6152 12.5122 63.3136 10.5249 61.5293C15.3725 56.7945 24.6729 54.3219 30.5734 53.844C30.0338 55.6897 29.3582 58.9032 29.9417 62.8226H29.9329Z" fill="#5A5E3C" stroke="#8D0F3A" stroke-width="0.925341" stroke-miterlimit="10"/>
<path d="M78.5054 44.5454C78.3606 48.1535 62.0323 50.1701 47.5641 51.9588C33.1222 53.7431 18.1934 55.5845 17.1931 52.2833C16.1447 48.8242 30.2663 39.2582 46.0155 37.1582C62.1552 35.0056 78.6546 40.8803 78.5054 44.5454Z" fill="#834612" stroke="#8D0F3A" stroke-width="0.616894" stroke-miterlimit="10"/>
<path d="M66.3843 91.4637C70.6967 91.8101 73.9211 87.654 79.0012 81.1042C83.0898 75.8302 85.6518 70.9858 87.1522 67.7766C88.9991 65.3961 91.0171 62.3798 92.8421 58.7104C95.5971 53.1733 96.957 48.0615 97.6633 44.1684C97.909 44.2736 99.4796 44.9049 100.984 44.1027C102.173 43.4714 103.445 41.8756 102.836 40.4332C102.379 39.3591 101.015 38.684 99.5497 38.9251C99.87 37.4433 99.0628 35.9746 97.7423 35.4836C96.6017 35.0627 95.2593 35.4441 94.4477 36.4437C93.5308 35.0496 91.9515 34.4884 90.8241 34.9619C89.2009 35.637 89.3062 38.1096 89.3237 38.4648C89.3764 39.6616 89.8896 40.5516 90.1836 40.9812C88.3761 43.068 86.0203 46.1281 83.8663 50.1614C80.9314 55.6591 80.7165 57.9739 77.593 63.1865C74.8423 67.781 72.0215 70.8718 71.3284 71.582C64.318 78.7368 58.6851 78.4124 58.0622 82.3142C57.4656 86.0757 61.949 91.1086 66.3843 91.4637Z" fill="#FF6D00" stroke="#8D0F3A" stroke-width="0.925341" stroke-miterlimit="10"/>
<path d="M99.1811 46.9964C97.7597 50.7404 95.7636 55.0894 92.9297 59.6795C91.0082 62.7879 89.034 65.4797 87.152 67.7769C85.8886 71.4595 83.5766 76.7818 79.2993 82.2663C76.3908 85.9927 73.3462 88.8029 70.7228 90.8634C69.8674 91.5254 69.0689 92.1129 68.3232 92.6258C66.7 89.4167 65.0724 85.3965 63.9625 80.631C63.5326 78.7722 63.2255 77.001 63.0149 75.3438C65.9542 73.1649 68.095 71.5867 69.3278 70.6836C72.1003 68.6493 73.57 67.4306 75.5704 65.5147C75.8161 65.2824 76.7681 64.2521 77.584 63.1912C80.9006 58.9079 81.098 54.9842 82.8133 50.3941C83.6512 48.1582 85.1252 45.0105 87.9066 41.5164C91.3196 43.1823 94.7371 44.8395 98.1458 46.501C98.488 46.6676 98.8257 46.8342 99.1723 47.0008L99.1811 46.9964Z" fill="#CAD678" stroke="#8D0F3A" stroke-width="0.308447" stroke-miterlimit="10"/>
<path d="M70.0423 91.0258C72.714 89.1144 76.0876 86.2823 79.3032 82.2665C83.6682 76.8171 85.9451 71.4422 87.1559 67.7771C89.0335 65.4799 91.012 62.7924 92.9335 59.6797C95.7631 55.0896 97.7636 50.7406 99.1849 46.9966C98.29 46.5582 97.3995 46.1242 96.5045 45.6902C95.7236 48.7283 94.4426 52.5644 92.2711 56.7249C89.9986 61.0739 87.441 64.4277 85.3134 66.8433C85.2826 66.9003 85.23 67.0011 85.151 67.1414C81.4748 73.9411 79.6322 77.3344 78.1933 79.0924C74.1354 84.0376 69.7484 87.7772 69.7484 87.7772C69.7484 87.7772 69.7923 90.2498 70.0467 91.0258H70.0423Z" fill="#8E9751"/>
<path d="M99.1816 47.0313C97.7602 50.7972 95.7642 55.1681 92.9302 59.7889C91.0087 62.9147 89.0346 65.6197 87.1526 67.9345C85.8891 71.639 83.5772 76.992 79.2999 82.5071C76.3913 86.2555 73.3468 89.0832 70.7234 91.1525C69.8679 91.8189 69.0695 92.4064 68.3237 92.9237C65.266 88.7106 60.1815 80.7097 62.8531 76.4396C63.8446 74.8525 66.4241 73.0112 69.3283 70.8499C72.6054 68.4124 73.8776 67.2813 75.571 65.6504C75.8166 65.4137 76.7686 64.379 77.5846 63.3137C80.9011 59.0041 81.0985 55.0585 82.8138 50.4421C83.6518 48.193 85.1258 45.0277 87.9071 41.5117C91.3202 43.1864 94.7376 44.8524 98.1463 46.5271C98.4885 46.6937 98.8263 46.8603 99.1728 47.0313H99.1816Z" stroke="#8D0F3A" stroke-width="0.925341" stroke-miterlimit="10"/>
<path d="M73.3594 38.9253C73.2585 39.1006 73.1532 39.2716 73.0436 39.4426L22.883 51.5952C22.7514 50.8324 22.5101 49.8503 22.0451 48.7763C21.6151 47.7855 21.1194 46.9919 20.6851 46.4001C19.154 44.5544 14.9119 38.9472 14.381 30.5385C13.8765 22.5946 16.9737 16.7682 18.224 14.6682C20.3341 15.7116 22.7952 17.1671 25.309 19.1926C30.0732 23.0242 33.0081 27.2593 34.7322 30.2799C36.9827 29.3768 41.1722 26.5403 45.4759 26.2904C49.5119 26.058 56.4345 26.0449 58.7113 26.6279C60.6986 19.4425 66.314 13.3661 73.3156 10.8058C73.4296 10.762 73.5437 10.7182 73.6621 10.6787C78.6194 19.2276 78.479 30.4728 73.3594 38.9253Z" fill="#FF6D00" stroke="#8D0F3A" stroke-width="0.925341" stroke-miterlimit="10"/>
<path d="M73.0301 38.9297C72.9424 38.8245 72.8239 38.671 72.6792 38.4869C72.0211 37.6276 71.9685 37.4391 71.986 37.3207C72.0299 37.0182 72.258 36.7771 72.451 36.536C72.6967 36.2291 73.0608 35.532 73.7233 34.0765C74.1005 33.2479 75.2499 30.1835 75.3113 25.5846C75.3508 22.564 74.9077 20.0913 74.4296 17.439C74.333 16.8954 73.9031 15.133 73.6136 12.7086C73.539 12.0773 73.4907 11.5556 73.46 11.2092C74.6665 13.432 76.9784 18.4035 76.8775 25.1111C76.7766 31.8363 74.3023 36.7464 73.0301 38.9297Z" fill="#D54A0E"/>
<path d="M76.058 54.7254C76.4001 53.0024 77.1854 50.7622 79.0806 49.0962C79.2429 48.9516 79.4096 48.82 79.5763 48.6929C78.6419 48.6052 77.2731 48.3597 75.8254 47.6232C73.0266 46.1984 72.0614 43.9976 69.4687 40.0431C67.1963 36.5753 65.6214 33.9975 63.2568 31.9458C60.1859 29.289 57.1106 27.9256 55.1321 27.2285C53.0702 26.7507 49.6966 26.2553 45.6563 26.9786C42.989 27.4565 40.8394 28.3245 39.2908 29.0961C37.0227 30.2886 33.8729 32.2702 30.8151 35.4662C28.8849 37.4828 25.6824 40.9331 23.8925 46.4088C23.2739 48.2983 23.1116 50.2405 22.6861 52.1651C22.1465 54.607 20.5672 57.141 18.6106 58.7105C19.5538 58.6535 20.4356 58.2589 21.2954 57.8688C19.4002 60.0126 18.1807 62.7351 17.8473 65.576C18.6588 64.0503 20.0188 62.8315 21.6157 62.1695C21.6639 64.9446 20.3347 67.711 18.1412 69.4164C19.2511 69.0087 20.3698 68.5966 21.4884 68.1801C23.8706 67.2901 26.2308 66.3958 28.5602 65.4883" fill="#FF6D00"/>
<path d="M76.058 54.7254C76.4001 53.0024 77.1854 50.7622 79.0806 49.0962C79.2429 48.9516 79.4096 48.82 79.5763 48.6929C78.6419 48.6052 77.2731 48.3597 75.8254 47.6232C73.0266 46.1984 72.0614 43.9976 69.4687 40.0431C67.1963 36.5753 65.6214 33.9975 63.2568 31.9458C60.1859 29.289 57.1106 27.9256 55.1321 27.2285C53.0702 26.7507 49.6967 26.2553 45.6563 26.9786C42.989 27.4565 40.8394 28.3245 39.2908 29.0961C37.0227 30.2886 33.8729 32.2702 30.8151 35.4662C28.8849 37.4828 25.6824 40.9331 23.8925 46.4088C23.2739 48.2983 23.1116 50.2405 22.6861 52.1651C22.1465 54.607 20.5672 57.141 18.6106 58.7105C19.5538 58.6535 20.4356 58.2589 21.2954 57.8688C19.4002 60.0126 18.1807 62.7351 17.8473 65.576C18.6588 64.0503 20.0188 62.8315 21.6157 62.1695C21.6639 64.9446 20.3347 67.711 18.1412 69.4164C19.2511 69.0087 20.3698 68.5966 21.4884 68.1801C23.8706 67.2901 26.2308 66.3958 28.5602 65.4883" stroke="#8D0F3A" stroke-width="0.925341" stroke-miterlimit="10"/>
<path d="M22.4223 43.1558C17.1228 41.7616 16.7763 32.4016 16.7368 31.3582C16.5701 27.0355 18.0178 23.651 18.9391 21.8799C20.6412 23.7563 22.4442 25.5362 24.1639 27.3907C24.1639 27.395 24.1683 27.3907 24.1683 27.3907C24.6991 27.9387 25.2256 28.5305 25.7476 29.1662C28.5553 32.5814 30.2048 36.1456 31.2006 39.1619C30.9506 39.4512 26.6689 44.2737 22.4223 43.1558Z" fill="#F6927F" stroke="#8D0F3A" stroke-width="0.925341" stroke-miterlimit="10"/>
<path d="M63.8 30.5297C64.5809 27.1452 66.2128 23.958 68.516 21.3626C68.902 20.9242 69.31 20.5034 69.7312 20.1044C71.1569 18.7541 72.7669 17.623 74.3594 16.4875C74.9341 18.114 75.6009 20.556 75.7106 23.5766C75.7238 23.9317 75.7764 25.6196 75.4913 27.7327C74.8288 32.6604 72.7406 36.8428 71.1657 39.4644L63.7956 30.5297" fill="#F6927F"/>
<path d="M63.8 30.5297C64.5809 27.1452 66.2128 23.958 68.516 21.3626C68.902 20.9242 69.31 20.5034 69.7312 20.1044C71.1569 18.7541 72.7669 17.623 74.3594 16.4875C74.9341 18.114 75.6009 20.556 75.7106 23.5766C75.7238 23.9317 75.7764 25.6196 75.4913 27.7327C74.8288 32.6604 72.7406 36.8428 71.1657 39.4644L63.7956 30.5297" stroke="#8D0F3A" stroke-width="0.616894" stroke-miterlimit="10"/>
<path d="M69.8855 20.5694C70.3417 20.6395 71.2016 20.7097 72.1974 20.394C73.3907 20.017 74.1321 19.3024 74.4523 18.9517C74.5006 19.4208 74.5313 20.3414 74.0926 21.3541C73.8382 21.9372 73.5091 22.3625 73.2503 22.6474C73.5091 22.5992 73.7943 22.5378 74.0926 22.4501C74.5225 22.323 74.8954 22.1739 75.2113 22.0205C74.7945 22.7746 74.2111 23.6645 73.3995 24.572C72.8818 25.1463 72.3685 25.6242 71.8947 26.0188C72.1667 26.1108 72.8423 26.295 73.6539 26.0889C74.2637 25.9311 74.6805 25.6198 74.8954 25.4357C74.7814 26.238 74.4699 27.6058 73.5179 28.9912C72.9871 29.7672 72.4036 30.3283 71.9254 30.7185C72.2457 30.7053 72.5879 30.679 72.952 30.6308C73.4477 30.5651 73.8996 30.473 74.2988 30.3722C73.8864 31.0429 73.1977 31.9811 72.1053 32.836C70.4383 34.1424 68.7317 34.5502 67.8368 34.6992C66.7225 33.9013 66.1434 33.0508 65.8232 32.3844C64.2526 29.1578 65.8714 24.4274 69.8811 20.5781L69.8855 20.5694Z" fill="#DD7162"/>
<path d="M68.5166 21.3626C68.9684 21.5204 69.7318 21.7177 70.6837 21.6476C71.9384 21.5555 72.8421 21.0426 73.2677 20.7664C72.8553 21.8317 72.0832 22.7523 71.1005 23.3354C71.3418 23.4143 71.6664 23.4889 72.0569 23.4976C72.6886 23.5196 73.1931 23.3617 73.4958 23.239C73.0352 23.7519 72.4824 24.3087 71.8287 24.8655C71.0654 25.5187 70.324 26.0448 69.6616 26.4569C70.0432 26.6761 70.6794 26.9786 71.526 27.0969C72.2455 27.1978 72.8509 27.132 73.2545 27.0531C72.5658 29.0391 71.004 30.705 69.065 31.5161C69.5124 31.5292 69.9906 31.5249 70.4951 31.5029C71.219 31.4679 71.8858 31.3933 72.4912 31.3013C71.9428 31.8098 71.2497 32.371 70.3898 32.9058C69.1132 33.6994 67.9068 34.1553 66.968 34.4271C65.4983 34.1991 64.8052 33.6161 64.4543 33.1733C62.7521 31.0382 64.2042 26.2026 68.5122 21.367L68.5166 21.3626Z" fill="#FCFFEB"/>
<path d="M30.4814 34.9618C28.2221 32.3358 25.9628 29.7097 23.7035 27.0837C22.9358 26.5181 22.1374 25.8868 21.317 25.1722C20.6985 24.633 20.1238 24.0981 19.5929 23.5764C19.5798 24.2077 19.628 25.0845 19.9 26.0841C20.1545 27.0267 20.5186 27.7676 20.8301 28.2937C20.5405 28.0832 20.1457 27.7413 19.7947 27.224C19.2771 26.4611 19.1279 25.7115 19.0797 25.2994C18.8735 25.8254 18.233 27.658 18.9481 29.8062C19.5052 31.4809 20.5888 32.4673 21.0713 32.8531C20.7379 32.9101 20.3256 32.9539 19.8562 32.9364C19.1191 32.9057 18.5181 32.7391 18.097 32.5857C18.2944 33.1205 18.6936 33.993 19.5096 34.804C19.9922 35.2863 20.4835 35.6063 20.8695 35.8167C20.7336 35.9132 20.5537 36.0228 20.3256 36.1061C19.8386 36.2902 19.3999 36.2639 19.1542 36.2288C19.2508 36.5226 19.4438 36.996 19.8605 37.452C20.115 37.7282 20.3738 37.9211 20.58 38.0482C20.4572 38.0964 20.3168 38.1447 20.1589 38.1754C19.7333 38.2718 19.356 38.2499 19.0928 38.206C19.5842 38.7453 20.6546 39.7712 22.3567 40.3718C23.8834 40.911 25.2083 40.8584 25.9233 40.7795L30.4902 34.9575L30.4814 34.9618Z" fill="#DD7162"/>
<path d="M31.9731 38.7674C31.3282 37.097 30.3631 35.0409 28.8979 32.8664C27.2878 30.4683 25.5725 28.6709 24.1643 27.3951C24.1643 27.3951 24.1643 27.3951 24.1599 27.3951C22.8044 26.9391 21.5453 26.207 20.4573 25.2776C20.7556 26.6673 21.3347 27.9957 22.1463 29.1619C21.1022 29.0742 19.8826 28.8638 19.4264 27.9256C19.4264 30.1965 21.2558 32.0291 23.1114 33.3355C21.927 33.638 20.6898 33.7257 19.479 33.5898C20.5407 34.8349 22.1814 35.5582 23.8177 35.5012C22.7298 36.0712 21.5672 36.4964 20.3652 36.7595C21.2426 37.5486 22.4008 38.0089 23.5809 38.0528C22.5587 38.2369 21.5277 38.4298 20.5012 38.6183C22.2999 39.8064 24.5021 40.3588 26.643 40.2097C28.4197 39.7319 30.2008 39.254 31.9775 38.7761L31.9731 38.7674Z" fill="#FCFFEB"/>
<path d="M71.1351 121.039C71.157 126.423 69.4286 131.916 65.7611 135.857C61.6154 140.303 56.1361 142.175 50.3277 143.24C49.832 141.973 48.8932 139.965 47.0858 138.071C45.2476 136.147 43.37 135.226 42.7778 134.915C42.9927 134.866 43.1945 134.801 43.3832 134.713C44.594 134.134 45.116 132.986 44.9274 131.938C44.7387 130.894 43.9535 129.943 43.0234 129.119C42.4531 128.615 41.8038 128.132 41.4266 127.536C41.4266 127.536 40.9703 126.756 40.9001 125.691C40.7247 122.92 43.37 109.031 43.5016 102.359C43.6946 92.4067 38.4741 88.4479 41.295 78.0138C41.5582 77.0318 41.8302 76.2427 42.01 75.7473C43.0454 75.5149 44.0807 75.2606 45.1467 75.1116C46.4014 74.9362 47.6736 74.9275 48.9414 74.9231C49.9812 74.9187 51.034 74.9143 52.043 75.1423C54.1576 75.6158 54.3594 76.1199 56.0527 76.5364C57.2723 76.8389 58.72 76.8828 60.1238 76.589C60.8696 76.3654 61.3653 76.4619 61.6812 76.5978C63.2386 77.2642 63.8571 80.3111 62.9973 84.1866C61.8567 84.2261 60.7029 83.928 59.7334 83.3273C61.0495 85.9753 62.9139 88.3515 65.1644 90.2673C64.2783 90.4383 63.3526 90.3725 62.5059 90.0788C63.4755 90.8811 64.5766 91.942 65.6426 93.3011C67.4676 95.6422 68.4678 97.9438 69.025 99.6098C68.9021 99.4169 68.1037 98.2463 66.6209 98.049C65.7523 97.935 65.0723 98.2069 64.7652 98.3515C67.9195 100.807 70.0164 104.577 70.4376 108.549C69.3716 107.299 68.1344 106.195 66.7701 105.278C69.8146 109.684 71.122 115.682 71.1395 121.035L71.1351 121.039Z" fill="#E0E5FF" stroke="#8D0F3A" stroke-width="0.925341" stroke-miterlimit="10"/>
<path d="M52.877 49.1447C52.855 49.4779 52.8199 49.982 52.5962 50.5388C51.6354 52.9413 48.1434 53.9891 45.5419 53.9496C44.1644 53.9277 41.8788 53.897 40.6461 52.3319C38.6851 49.8461 40.1416 44.1644 44.0811 42.6694C46.6913 41.6786 49.828 42.7396 51.4644 44.7869C51.7539 45.1508 53.0437 46.8562 52.8813 49.1447H52.877Z" fill="#FCFFEB" stroke="#8D0F3A" stroke-width="0.925341" stroke-miterlimit="10"/>
<path d="M69.5779 49.6927C68.3583 51.0649 66.4719 50.9991 66.3403 50.9948C64.0766 50.8808 62.8571 48.886 62.6114 48.4783C61.3743 46.4573 61.3172 43.3577 62.9843 41.9592C63.6818 41.3761 64.4802 41.2577 64.818 41.2095C67.0817 40.9026 68.7575 42.6826 68.9681 42.9193C70.5606 44.6642 71.2142 47.8558 69.5779 49.6971V49.6927Z" fill="#FCFFEB" stroke="#8D0F3A" stroke-width="0.925341" stroke-miterlimit="10"/>
<path d="M70.0962 54.9579C70.0304 55.1508 64.6257 51.9022 58.2382 53.064C53.8688 53.8619 50.5391 56.4485 48.1877 58.908C48.1877 58.908 45.6125 57.4612 41.2168 57.2727C37.8344 57.1324 34.4565 58.0048 34.4784 58.2416C34.4872 58.2942 34.632 58.2854 35.0794 58.4038C35.8164 58.5923 36.3341 58.8597 36.6982 59.0483C36.8474 59.1228 38.7162 60.0917 38.5978 60.4468C38.4618 60.8457 36.027 59.7935 32.7105 60.004C29.622 60.2013 27.2311 61.3981 27.275 61.5779C27.3013 61.6919 28.2358 61.4069 29.7054 61.5998C29.9116 61.6261 31.9647 61.9023 31.9998 62.4021C32.0305 62.9369 29.6966 63.1035 27.1829 64.4845C26.3406 64.9492 25.4764 65.5498 24.6779 66.3521C24.6779 66.3521 24.6779 66.3653 24.6604 66.3696C24.5332 66.4968 23.3092 67.7375 22.3572 69.2061C22.2212 69.4166 22.0852 69.6358 21.9668 69.855C21.6948 69.8199 21.4316 69.7629 21.1727 69.6708C20.9973 69.6095 20.8042 69.5174 20.7428 69.342C20.6946 69.1974 20.7428 69.0395 20.7867 68.8993C20.9973 68.2636 21.2649 67.7287 21.572 67.1369C21.8483 66.6064 22.9758 65.3745 25.7001 63.7962C26.3318 63.4279 26.8626 63.1561 27.1873 62.9983C26.3538 62.7703 25.5246 62.5424 24.6911 62.3144C25.8098 60.7887 26.9986 60.1092 27.7137 59.7935C28.4156 59.4867 29.0824 59.3376 30.1485 59.1009C31.2672 58.851 32.2191 58.7195 32.9035 58.6405C32.8377 58.509 32.7149 58.3117 32.4999 58.132C32.1489 57.8383 31.7673 57.7725 31.6049 57.7593C31.9559 57.6147 32.32 57.4744 32.6885 57.3429C38.0713 55.4402 43.4498 55.9487 47.8762 57.1456C49.5257 55.5191 52.9827 52.6256 57.9619 51.9548C64.6915 51.0517 70.1664 54.7563 70.0962 54.9535V54.9579Z" fill="#D54A0E"/>
<path d="M49.749 48.3683C49.635 51.0513 47.1651 52.8225 44.8444 52.8707C42.901 52.9102 41.0585 51.7396 40.1197 49.8808C40.01 49.3459 39.8126 48.0351 40.4399 46.6059C40.5408 46.3735 41.484 44.2999 43.7214 43.651C44.0065 43.5677 44.5593 43.4406 45.248 43.4669C47.8407 43.5765 49.8631 45.7729 49.7534 48.3683H49.749Z" fill="#3F0015" stroke="#8D0F3A" stroke-width="0.925341" stroke-miterlimit="10"/>
<path d="M68.6606 46.9351C68.6606 47.22 68.6431 48.1802 67.9631 49.0526C66.8093 50.5388 64.7913 50.4116 64.5763 50.3985C64.085 50.096 63.2559 49.4998 62.6066 48.4739C61.6853 47.014 60.979 44.4406 62.26 43.0552C62.8917 42.3713 63.756 42.2485 63.949 42.2266C66.2039 41.9679 68.665 44.5282 68.6562 46.9307L68.6606 46.9351Z" fill="#3F0015" stroke="#8D0F3A" stroke-width="0.925341" stroke-miterlimit="10"/>
<path d="M77.2773 42.7306C72.5174 40.4421 64.1822 37.2505 53.5087 37.2987C34.6974 37.382 21.7558 47.4741 17.8295 50.7972C19.1807 46.7508 20.9969 44.0151 22.3919 42.2834C24.4977 39.6661 26.8008 36.8121 29.3453 35.3259C29.705 35.1198 30.7491 34.5367 31.5432 33.3399C31.6879 33.1163 31.8152 32.8927 31.9161 32.6735C32.3065 31.8537 32.4206 31.1084 32.4732 30.7094C32.4995 30.5385 32.5215 30.3719 32.539 30.2097C32.5697 29.9685 32.596 29.7406 32.6224 29.517C33.1839 24.6507 32.6267 22.5025 34.0788 20.271C34.1666 20.1307 35.0878 18.7585 36.461 18.0702C36.926 17.8422 37.4349 17.6844 37.9876 17.68C38.7422 17.6756 39.273 17.9518 39.8082 18.2105C40.4399 18.513 46.5203 21.4284 48.1215 19.9071C48.8322 19.2363 47.9767 18.3464 48.8673 17.1934C49.8412 15.9308 51.8768 15.6809 52.6357 15.5844C53.2323 15.5099 53.6754 15.523 53.7763 15.5274C54.1097 15.5362 56.1541 15.6326 57.7114 16.8996C58.5888 17.6099 59.0758 18.513 59.668 20.2052C59.9663 21.0601 60.291 22.1079 60.5849 23.353C60.6946 23.8002 60.7911 24.2736 60.8876 24.7734C60.9271 24.9751 60.9666 25.1899 61.0017 25.4091C61.0324 25.5932 61.0631 25.7774 61.0894 25.9659C61.1815 26.5797 61.2649 27.2197 61.3307 27.8949C63.3618 29.3153 65.4939 30.9506 67.6742 32.8357C71.5918 36.2158 74.7548 39.6266 77.2861 42.7306H77.2773Z" fill="#CB8641" stroke="#8D0F3A" stroke-width="0.308447" stroke-miterlimit="10"/>
<path d="M80.6243 60.6968C80.6243 60.6968 80.0759 60.0304 79.0055 59.7104C78.2554 59.4824 77.299 59.5218 77.1674 59.8594C77.0182 60.254 78.1369 60.6661 79.0055 62.0646C79.646 63.1036 79.6372 64.6381 79.6372 64.6381C79.4574 64.4846 79.1985 64.2873 78.852 64.0988C78.852 64.0988 77.9351 63.6034 76.8866 63.5333C75.7153 63.45 74.5791 64.7477 72.9032 66.2119C70.4202 68.382 67.8758 69.9296 66.4939 71.4114C65.6647 72.3014 65.2261 72.9502 65.2261 72.9502C65.0506 73.2089 64.8795 73.4719 64.6996 73.7262C64.318 74.226 63.9363 74.603 63.6029 74.9012C63.3835 75.0853 63.1905 75.23 63.0238 75.3439C62.1596 75.9577 61.1549 76.3523 60.1196 76.5671C58.7202 76.8652 57.2681 76.817 56.0485 76.5145C54.3508 76.098 54.149 75.5938 52.0388 75.1204C51.0298 74.8924 49.977 74.8968 48.9372 74.9012C47.6738 74.9055 46.3972 74.9099 45.1425 75.0897C42.7911 75.4141 40.602 76.2558 38.2286 76.2734C37.1407 76.2821 35.1885 76.155 33.0301 75.1642C31.7798 74.5943 30.7883 73.8577 30.1303 73.2966C29.5381 72.788 29.209 72.411 29.209 72.411C28.7791 72.0164 28.4808 71.7052 27.9675 71.4684C26.4014 71.1089 25.2125 71.2843 24.4843 71.4728C24.0807 71.578 23.7648 71.7052 23.4402 71.8323C21.874 72.4373 20.8168 73.1563 20.5053 73.393H20.4044C20.4044 73.393 20.4088 73.393 20.4088 73.3887C21.0756 72.7179 21.2204 71.8586 21.2686 71.6175C21.3607 71.1352 21.5669 70.6223 21.8302 70.1181C21.9793 69.8112 22.1636 69.5044 22.3566 69.2062C23.3086 67.7332 24.5325 66.4969 24.6598 66.3654C24.6685 66.361 24.6773 66.3478 24.6773 66.3478C25.4801 65.5455 26.3443 64.9449 27.1866 64.4802C29.7004 63.0992 32.0299 62.9326 31.9992 62.3934C31.9684 61.8936 29.9109 61.6174 29.7048 61.5911C28.2395 61.3982 27.3007 61.6832 27.2744 61.5692C27.2349 61.3851 29.6214 60.1926 32.7098 59.9953C36.0264 59.7893 38.4612 60.8371 38.5928 60.4381C38.7112 60.083 36.8424 59.1185 36.6932 59.0396C36.3291 58.8511 35.8158 58.588 35.0744 58.3951C34.6269 58.2812 34.4822 58.2855 34.4778 58.2329C34.4559 57.9962 37.8294 57.1238 41.2162 57.2641C45.6119 57.4482 48.1827 58.8993 48.1827 58.8993C48.9065 58.0225 52.7934 53.4762 59.4704 52.9019C64.8181 52.4416 68.7269 54.8134 69.9157 55.6025C70.4641 52.6476 72.2627 50.289 74.5484 49.7147C76.3119 49.2675 78.2554 49.912 78.5361 50.0084C79.5232 50.346 80.2602 50.8195 80.7384 51.179C80.7384 51.179 79.4969 51.1877 77.8298 51.7051C77.3341 51.8541 76.6585 52.0689 76.6673 52.3188C76.676 52.5775 77.4262 52.6827 78.1457 52.9238C80.1418 53.5946 81.3657 55.4271 81.4403 55.5411C80.6989 55.186 79.646 54.809 78.3475 54.7344C77.9614 54.7125 77.5973 54.7213 77.2639 54.7432C77.6192 54.9843 77.9877 55.2781 78.3475 55.6376C80.0891 57.3868 80.5015 59.5964 80.6155 60.6924L80.6243 60.6968Z" fill="#FCFFEB"/>
<path d="M80.6243 60.6968C80.6243 60.6968 80.0759 60.0304 79.0055 59.7104C78.2554 59.4824 77.299 59.5218 77.1674 59.8594C77.0182 60.254 78.1369 60.6661 79.0055 62.0646C79.646 63.1036 79.6372 64.6381 79.6372 64.6381C79.4574 64.4846 79.1985 64.2873 78.852 64.0988C78.852 64.0988 77.9351 63.6034 76.8866 63.5333C75.7153 63.45 74.5791 64.7477 72.9032 66.2119C70.4202 68.382 67.8758 69.9296 66.4939 71.4114C65.6647 72.3014 65.2261 72.9502 65.2261 72.9502C65.0506 73.2089 64.8795 73.4719 64.6996 73.7262C64.318 74.226 63.9363 74.603 63.6029 74.9012C63.3835 75.0853 63.1905 75.23 63.0238 75.3439C62.1596 75.9577 61.1549 76.3523 60.1196 76.5671C58.7202 76.8652 57.2681 76.817 56.0485 76.5145C54.3508 76.098 54.149 75.5938 52.0388 75.1204C51.0298 74.8924 49.977 74.8968 48.9372 74.9012C47.6738 74.9055 46.3972 74.9099 45.1425 75.0897C42.7911 75.4141 40.602 76.2558 38.2286 76.2734C37.1407 76.2821 35.1885 76.155 33.0301 75.1642C31.7798 74.5943 30.7883 73.8577 30.1303 73.2966C29.5381 72.788 29.209 72.411 29.209 72.411C28.7791 72.0164 28.4808 71.7052 27.9675 71.4684C26.4014 71.1089 25.2125 71.2843 24.4843 71.4728C24.0807 71.578 23.7648 71.7052 23.4402 71.8323C21.874 72.4373 20.8168 73.1563 20.5053 73.393H20.4044C20.4044 73.393 20.4088 73.393 20.4088 73.3887C21.0756 72.7179 21.2204 71.8586 21.2686 71.6175C21.3607 71.1352 21.5669 70.6223 21.8302 70.1181C21.9793 69.8112 22.1636 69.5044 22.3566 69.2062C23.3086 67.7332 24.5325 66.4969 24.6598 66.3654C24.6685 66.361 24.6773 66.3478 24.6773 66.3478C25.4801 65.5455 26.3443 64.9449 27.1866 64.4802C29.7004 63.0992 32.0299 62.9326 31.9992 62.3934C31.9684 61.8936 29.9109 61.6174 29.7048 61.5911C28.2395 61.3982 27.3007 61.6832 27.2744 61.5692C27.2349 61.3851 29.6214 60.1926 32.7098 59.9953C36.0264 59.7893 38.4612 60.8371 38.5928 60.4381C38.7112 60.083 36.8424 59.1185 36.6932 59.0396C36.3291 58.8511 35.8158 58.588 35.0744 58.3951C34.6269 58.2812 34.4822 58.2855 34.4778 58.2329C34.4559 57.9962 37.8294 57.1238 41.2162 57.264C45.6119 57.4482 48.1827 58.8993 48.1827 58.8993C48.9065 58.0225 52.7934 53.4762 59.4704 52.9019C64.8181 52.4416 68.7269 54.8134 69.9157 55.6025C70.4641 52.6476 72.2628 50.289 74.5484 49.7147C76.3119 49.2675 78.2554 49.912 78.5361 50.0084C79.5232 50.346 80.2602 50.8195 80.7384 51.179C80.7384 51.179 79.4969 51.1877 77.8298 51.7051C77.3341 51.8541 76.6585 52.0689 76.6673 52.3188C76.676 52.5775 77.4262 52.6827 78.1457 52.9238C80.1418 53.5946 81.3657 55.4271 81.4403 55.5411C80.6989 55.186 79.646 54.809 78.3475 54.7344C77.9614 54.7125 77.5973 54.7213 77.2639 54.7432C77.6192 54.9843 77.9877 55.2781 78.3475 55.6376C80.0891 57.3868 80.5015 59.5964 80.6155 60.6924L80.6243 60.6968Z" stroke="#8D0F3A" stroke-width="0.308447" stroke-miterlimit="10"/>
<path d="M63.5985 74.8963C62.9449 75.4093 61.7692 76.1852 60.1153 76.5623C59.409 76.7201 57.8253 76.9481 56.0442 76.5097C54.3464 76.0932 54.1446 75.589 52.0345 75.1155C51.0255 74.8876 49.9726 74.8919 48.9329 74.8963C47.6694 74.9007 46.3928 74.9051 45.1382 75.0848C42.7868 75.4093 40.5977 76.251 38.2243 76.2685C37.1363 76.2773 35.1841 76.1502 33.0257 75.1594C31.7755 74.5894 30.784 73.8529 30.126 73.2918C29.5337 72.7832 29.2047 72.4062 29.2047 72.4062C28.7748 72.0116 28.4765 71.7003 27.9632 71.4636C27.9456 71.4461 27.9325 71.4417 27.9149 71.4373C27.7965 71.3715 27.6912 71.3277 27.6035 71.3145C26.3926 71.0953 25.2871 71.2795 24.9362 71.3496C24.9011 71.354 24.8572 71.3672 24.8177 71.3759C24.7081 71.4066 24.5984 71.4373 24.4843 71.468C24.1158 71.5776 23.7649 71.696 23.4402 71.8275L21.8302 70.1133C21.9794 69.8064 22.1636 69.4995 22.3566 69.2014C23.7868 68.6753 25.8794 68.1405 28.301 68.4474C32.1791 68.9384 32.3589 71.0208 36.2063 72.3141C41.3259 74.0327 46.0989 72.0511 51.2624 72.9805C52.4907 73.1997 53.6226 73.4847 53.6226 73.4847C55.0439 73.9143 55.7108 74.4009 57.7419 74.778C60.2249 75.2339 62.2254 75.0629 63.6029 74.8919L63.5985 74.8963Z" fill="#E0E5FF"/>
<path d="M55.0746 127.071C60.9005 116.129 62.6904 103.095 60.0275 90.9861C59.5011 88.588 58.7904 86.1899 57.4831 84.1119C56.1758 82.0338 54.1973 80.289 51.8195 79.6796C48.5951 78.8554 44.91 80.4249 43.2737 83.3184L38.5402 96.9835L55.079 127.071H55.0746Z" fill="#FCFFEB"/>
<path d="M80.6243 60.6965C80.6243 60.6965 80.0759 60.0302 79.0055 59.7101C78.2554 59.4822 77.1674 59.8592 77.1674 59.8592C78.229 60.6308 78.7379 61.4331 79.0055 62.0644C79.4354 63.0859 79.6372 64.6378 79.6372 64.6378C79.0318 64.1336 78.0579 63.498 76.8866 63.5286C75.5968 63.5681 75.0397 64.3441 72.9032 66.2073C68.8585 69.7409 68.5426 68.9035 66.4939 71.4068C65.0944 73.121 64.7698 74.2082 63.0238 75.3393C61.756 76.1591 60.5846 76.4573 60.1196 76.5625C58.2595 76.9746 56.7417 76.6589 56.0485 76.5099C54.1226 76.0934 54.0524 75.5103 52.0388 75.1157C51.043 74.9228 50.2928 74.8921 48.9372 74.8965C47.6738 74.9009 46.3972 74.9053 45.1425 75.085C42.7911 75.4095 40.602 76.2512 38.2286 76.2687C37.2723 76.2775 35.1885 76.26 33.0301 75.1596C30.2751 73.7567 30.3672 72.0863 27.9675 71.4682C26.0504 70.9772 24.1991 71.5822 23.4402 71.8321C22.1065 72.2705 21.1239 72.9149 20.5053 73.3928H20.4044C20.4044 73.3928 20.4088 73.3928 20.4088 73.3884C21.3081 71.477 22.2074 69.5611 23.1112 67.6497C23.9973 66.6808 25.3266 65.4533 27.1866 64.4844C29.7267 63.1604 32.0342 62.9456 31.9992 62.3976C31.9684 61.8978 29.9109 61.6216 29.7048 61.5953C28.2395 61.4024 27.3007 61.6873 27.2744 61.5734C27.2349 61.3892 29.6214 60.1968 32.7098 59.9995C36.0264 59.7934 38.4612 60.8412 38.5928 60.4423C38.7112 60.0872 36.8424 59.1227 36.6932 59.0437C36.3291 58.8552 35.8158 58.5922 35.0744 58.3993C34.6269 58.2853 34.4822 58.2897 34.4778 58.2371C34.4559 58.0003 37.8294 57.1279 41.2162 57.2682C45.6119 57.4523 48.1827 58.9035 48.1827 58.9035C48.9065 58.0266 52.7934 53.4804 59.4704 52.9061C64.8181 52.4457 68.7269 54.8175 69.9157 55.6066C70.4641 52.6518 72.2628 50.2931 74.5484 49.7188C76.3119 49.2717 78.2554 49.9161 78.5361 50.0126C79.5232 50.3501 80.2602 50.8236 80.7384 51.1831C80.7384 51.1831 79.4969 51.1919 77.8298 51.7092C77.3341 51.8583 76.6673 52.323 76.6673 52.323C77.2376 52.4764 77.9263 52.7263 78.6546 53.1296C80.0321 53.8969 80.927 54.8745 81.4403 55.5409C81.392 55.5233 81.3394 55.5102 81.2911 55.4927C80.0935 55.1112 78.7555 54.8394 77.2683 54.743C77.6236 54.9841 77.9921 55.2778 78.3519 55.6373C80.0935 57.3866 80.5059 59.5961 80.6199 60.6922L80.6243 60.6965Z" stroke="#8D0F3A" stroke-width="0.925341" stroke-miterlimit="10"/>
<path d="M77.9704 141.477C70.8503 144.002 60.2734 146.865 47.209 147.255C38.6193 147.514 31.0605 146.637 24.8969 145.432C22.3612 144.936 20.0668 144.388 18.0269 143.84C19.6807 134.853 20.795 127.233 21.5408 121.525C24.0721 102.126 23.4974 96.1898 23.1201 93.2613C22.5235 88.6317 21.5891 81.3629 18.4305 75.5058C17.9654 74.6465 15.5438 70.2844 11.7052 63.1778C11.6087 62.9981 11.3806 62.5772 11.2841 62.3975C13.0301 61.9941 15.0876 61.6434 17.4083 61.4856C20.387 61.2839 23.0105 61.4505 25.1469 61.7355C24.8223 62.792 24.3792 64.7254 24.7477 67.0928C25.0109 68.7807 25.5944 70.0915 26.0594 70.9464C27.5115 70.28 29.5295 69.5479 32.0169 69.2015C36.0836 68.636 39.4177 69.3857 41.3436 69.9819C40.747 71.1261 40.0889 72.6649 39.6371 74.5589C39.0711 76.9482 39.0492 79.0262 39.1501 80.508C42.6597 84.0723 46.937 89.1578 50.6878 95.94C56.018 105.567 58.0404 114.542 58.8783 120.504C60.5497 118.027 62.6423 114.279 63.6601 109.417C66.4765 96.0101 60.5103 77.3866 61.2297 76.273C61.7518 76.0889 62.2782 75.9004 62.8003 75.7163C64.0374 77.8732 65.8404 81.1262 67.8672 85.1595C72.4648 94.3047 74.8556 98.8597 75.7813 104.664C76.6543 110.153 75.7813 111.192 75.8339 120.008C75.8647 125.326 76.277 132.652 77.9616 141.473L77.9704 141.477Z" fill="#CAD678" stroke="#8D0F3A" stroke-width="0.308447" stroke-miterlimit="10"/>
<path d="M33.3064 78.7017C32.451 79.8941 31.5955 81.091 30.74 82.2834C26.8971 86.1809 25.3572 89.9249 24.6685 92.2002C21.2642 103.437 27.8403 115.107 28.1254 115.602C29.9679 118.79 32.8546 125.585 32.8546 125.585L33.8504 128.737C33.3284 128.89 32.5124 129.21 31.7403 129.899C31.3147 130.28 29.8802 131.556 30.1171 133.174C30.1434 133.353 30.297 134.397 31.1305 134.826C31.9859 135.265 33.2318 134.927 34.0347 133.884C34.0873 133.976 34.9296 135.431 36.6273 135.519C37.825 135.581 38.97 134.932 39.5578 133.853C39.7289 133.994 41.1152 135.094 42.7735 134.638C43.0543 134.563 43.9975 134.305 44.4318 133.481C45.2346 131.955 43.5193 129.938 43.2824 129.671C42.3392 128.592 41.1635 128.163 40.4835 127.983C40.4923 127.001 40.5142 126.015 40.5493 125.015C40.8345 116.795 41.9224 109.131 43.4973 102.082" fill="#FF6D00"/>
<path d="M33.3064 78.7017C32.451 79.8941 31.5955 81.091 30.74 82.2834C26.8971 86.1809 25.3572 89.9249 24.6685 92.2002C21.2642 103.437 27.8403 115.107 28.1254 115.602C29.9679 118.79 32.8546 125.585 32.8546 125.585L33.8504 128.737C33.3284 128.89 32.5124 129.21 31.7403 129.899C31.3147 130.28 29.8802 131.556 30.1171 133.174C30.1434 133.353 30.297 134.397 31.1305 134.826C31.9859 135.265 33.2318 134.927 34.0347 133.884C34.0873 133.976 34.9296 135.431 36.6273 135.519C37.825 135.581 38.97 134.932 39.5578 133.853C39.7289 133.994 41.1152 135.094 42.7735 134.638C43.0543 134.563 43.9975 134.305 44.4318 133.481C45.2346 131.955 43.5193 129.938 43.2824 129.671C42.3392 128.592 41.1635 128.163 40.4835 127.983C40.4923 127.001 40.5142 126.015 40.5493 125.015C40.8345 116.795 41.9224 109.131 43.4973 102.082" stroke="#8D0F3A" stroke-width="0.925341" stroke-miterlimit="10"/>
<path d="M46.7657 20.337C47.2615 20.5518 48.0336 20.8412 49.0163 21.0165C50.3016 21.2489 51.3677 21.4374 52.0784 20.8149C52.2451 20.6658 52.6969 20.2099 52.7364 19.1445" stroke="#8D0F3A" stroke-width="0.616894" stroke-miterlimit="10"/>
<path d="M60.8831 24.7735L32.5389 30.2054C32.6091 27.6626 32.8109 25.5276 33.0171 23.9011C33.2145 22.3185 33.4119 21.3233 34.0787 20.2667C34.1664 20.1264 35.0877 18.7542 36.4608 18.0659C36.5091 18.2807 35.873 19.2365 35.715 20.8849C35.5483 22.6911 36.0572 24.2606 36.6144 25.4312C39.7203 24.528 43.5677 23.6731 48.0205 23.2523C52.89 22.7876 57.1585 22.9717 60.576 23.3531L60.8787 24.7735H60.8831Z" fill="#9F632F"/>
<path d="M61.0846 25.9663C61.0846 25.9663 61.076 25.9706 61.0674 25.9706" stroke="#8D0F3A" stroke-width="0.308447" stroke-miterlimit="10"/>
<path d="M77.2773 42.7306C72.5174 40.4421 64.1822 37.2505 53.5087 37.2987C34.6974 37.382 21.7558 47.4741 17.8295 50.7972C17.9041 50.5912 17.9699 50.3808 18.0488 50.1791C19.3693 46.4702 21.0715 43.9274 22.3919 42.2834C24.4977 39.6661 26.8008 36.8121 29.3453 35.3259C29.705 35.1198 30.7491 34.5367 31.5432 33.3399C31.6879 33.1163 31.8152 32.8927 31.9161 32.6735C32.2056 32.0597 32.3416 31.4942 32.4206 31.0777C32.4425 30.9374 32.4557 30.8147 32.4732 30.7094C32.4995 30.5385 32.5215 30.3719 32.539 30.2097C32.5697 29.9685 32.596 29.7406 32.6224 29.517C33.1839 24.6507 32.6267 22.5025 34.0788 20.271C34.1666 20.1307 35.0878 18.7585 36.461 18.0702C36.926 17.8422 37.4349 17.6844 37.9876 17.68C38.7422 17.6756 39.273 17.9518 39.8082 18.2105C40.4399 18.513 46.5203 21.4284 48.1215 19.9071C48.8322 19.2363 47.9767 18.3464 48.8673 17.1934C49.8412 15.9308 51.8768 15.6809 52.6357 15.5844C53.2323 15.5099 53.6754 15.523 53.7763 15.5274C54.1097 15.5362 56.1541 15.6326 57.7114 16.8996C58.5888 17.6099 59.0758 18.513 59.668 20.2052C59.9663 21.0601 60.291 22.1079 60.5849 23.353C60.6946 23.8002 60.7911 24.2736 60.8876 24.7734C60.9271 24.9751 60.9666 25.1899 61.0017 25.4091C61.0324 25.5932 61.0631 25.7774 61.0894 25.9659C61.1815 26.5797 61.2649 27.2197 61.3307 27.8949C63.3618 29.3153 65.4939 30.9506 67.6742 32.8357C71.5918 36.2158 74.7548 39.6266 77.2861 42.7306H77.2773Z" stroke="#8D0F3A" stroke-width="0.308447" stroke-miterlimit="10"/>
<path d="M32.4201 31.0779C33.4379 30.5957 34.7014 30.0389 36.1754 29.4953C48.7835 24.8481 61.2469 26.6763 61.3215 27.8951C61.4005 29.1621 47.9369 27.7811 33.8766 35.9486C26.4012 40.2932 21.3211 45.8391 18.0484 50.1749C19.3689 46.466 21.0711 43.9232 22.3915 42.2792C24.4973 39.6619 26.8004 36.8079 29.3449 35.3217C29.6125 35.1639 30.7268 34.5764 31.5427 33.3357C31.7182 33.0683 31.8411 32.8315 31.9156 32.6693" fill="#9F632F"/>
<path d="M61.3262 27.8948C59.1809 27.7633 56.7198 27.7195 54.0087 27.8466C51.2888 27.9694 48.3056 28.2763 45.1295 28.855C39.8783 29.8063 35.4343 31.253 31.9115 32.6735C32.2011 32.0597 32.3371 31.4942 32.416 31.0777C32.438 30.9374 32.4511 30.8146 32.4687 30.7094C32.495 30.5384 32.5169 30.3718 32.5345 30.2096C32.5652 29.9685 32.5915 29.7405 32.6178 29.5169C35.1886 27.6406 38.3121 26.6761 41.4225 25.9922C47.7924 24.5761 54.3772 24.1684 60.8787 24.7734H60.9094L60.9927 25.4091L61.0673 25.9702L61.3218 27.8948H61.3262Z" fill="#3F0015"/>
<path d="M20.7291 81.1703C20.7291 81.1703 17.2722 73.1826 15.1007 68.9476C13.8855 66.5758 12.6483 64.3092 11.4112 62.1566C12.9028 61.9024 14.0917 61.613 14.934 61.3807C15.8552 61.1264 16.386 60.9422 16.9914 61.1571C17.4433 61.3193 18.0312 61.7445 18.5137 63.0159C19.8649 66.6065 22.2251 85.5851 22.2251 85.5851L20.7335 81.1659L20.7291 81.1703Z" fill="#E6F29B"/>
<path d="M43.4971 102.082C43.4401 104.195 43.212 106.953 42.4662 112.429C41.9485 116.252 41.3694 120.048 41.0755 122.63C39.7857 122.315 38.3073 122.152 36.6841 122.319C36.3902 122.35 35.4733 122.455 34.3108 122.788C33.4992 123.021 32.3981 123.419 31.1653 124.117C29.8493 122.188 28.055 119.237 26.5503 115.375C24.8657 111.056 21.3341 101.999 24.6726 92.2006C25.4579 89.8989 27.0986 86.1549 30.7442 82.2838C31.5997 79.5657 32.5472 78.816 33.3062 78.702C36.8816 78.1628 43.813 90.3987 43.4971 102.078V102.082Z" fill="#CAD678" stroke="#8D0F3A" stroke-width="0.925341" stroke-miterlimit="10"/>
<path d="M40.6461 86.5931C40.6461 91.7707 37.6323 95.4971 33.9472 94.914C30.2973 94.3397 27.3668 89.7496 27.3668 84.6641C27.3668 79.5786 30.2973 75.8434 33.9472 76.3256C37.5972 76.8078 40.6461 81.4155 40.6461 86.5931Z" fill="#CAD678"/>
<path d="M4.33502 89.8198C4.42276 89.7847 4.83075 90.7273 5.85291 92.117C6.20826 92.5993 6.53289 92.9939 6.79172 93.292C6.94527 93.0421 7.12513 92.6826 7.23481 92.2223C7.42784 91.4024 7.29184 90.7141 7.19094 90.3547C7.68228 91.1306 8.34032 92.3582 8.70005 93.9627C9.23526 96.3477 8.8185 98.2942 8.68689 99.0132C8.26575 101.258 8.08149 104.901 9.27475 110.916C7.58138 107.637 7.0023 104.883 6.78295 102.976C6.47148 100.236 6.93649 99.4954 6.43199 96.6326C5.76079 92.7922 4.17709 89.8899 4.33502 89.8242V89.8198Z" fill="#D05B04"/>
<path d="M5.44082 87.299C5.4496 88.053 5.41889 88.7545 5.36625 89.3946C4.31337 87.7549 2.79987 86.4134 1.04069 85.5673C2.50594 88.018 3.49301 90.7448 3.92293 93.5638C2.75161 91.4945 0.71167 89.9382 -1.59149 89.3551C-1.2186 89.7716 -0.349977 90.8588 -0.104307 92.5072C0.0887203 93.7918 -0.192043 94.8264 -0.376297 95.3569C-0.578096 94.2565 -1.05189 92.573 -2.27585 90.9378C-2.70139 90.3591 -3.14447 89.8856 -3.56562 89.5042C-4.50443 92.95 -4.06135 96.7466 -2.35482 99.89C-3.9429 97.9435 -5.66259 96.1153 -7.50512 94.4099C-6.94798 95.5761 -6.36451 97.0097 -5.90388 98.6932C-5.37744 100.6 -5.14493 102.323 -5.04842 103.726C-6.15832 103.082 -8.0491 101.775 -9.51435 99.4516C-10.2865 98.2241 -10.7252 97.0535 -10.984 96.1329C-11.4227 97.8865 -11.8351 100.289 -11.7824 103.147C-11.721 106.291 -11.1112 108.882 -10.5365 110.701C-11.3437 109.219 -12.4975 107.935 -13.875 106.957C-13.9364 106.905 -14.0066 106.856 -14.0724 106.812C-14.1251 104.932 -14.5945 102.981 -15.9062 101.644C-17.6127 99.9076 -20.258 99.6226 -22.5042 98.6888C-26.8166 96.9001 -29.7076 92.2442 -29.5847 87.6146C-29.576 87.0885 -29.5233 86.5756 -29.4356 86.0583C-29.4356 87.6979 -28.431 89.2104 -27.1368 90.2144C-25.8339 91.2227 -24.2765 91.8058 -22.7367 92.3757C-24.5617 91.3805 -25.8953 89.5261 -26.2419 87.4787C-25.1978 88.5046 -23.636 88.8685 -22.1708 88.7676C-20.7055 88.6624 -19.3017 88.1582 -17.9242 87.6541C-18.4067 87.3779 -19.0385 87.071 -19.8062 86.8255C-20.6616 86.5581 -21.4294 86.4485 -22.0216 86.409C-15.9588 82.1258 -8.01401 80.6001 -0.797445 82.3494C1.04947 82.7921 2.86567 83.4498 4.43182 84.5282C4.73891 84.7431 5.03722 84.9666 5.30922 85.199C5.37502 85.8391 5.42327 86.5361 5.43205 87.2946L5.44082 87.299Z" fill="#FCFFEB"/>
<path d="M74.0525 58.189C74.0305 59 73.8638 61.4814 72.0081 63.7611C70.4288 65.7033 68.4942 66.4135 67.8186 66.6502C66.6955 67.0448 64.5415 67.5709 58.6016 65.9268C53.5171 64.5196 49.0994 62.4766 49.231 62.1083C49.4459 61.5077 60.8521 67.9654 68.9285 63.5025C71.6484 61.9987 73.2233 59.6795 74.0568 58.189H74.0525Z" fill="#E0E5FF"/>
<path d="M63.4666 67.1018C64.809 67.2947 65.9934 67.207 67.0288 66.8606C67.0288 66.8606 68.6388 66.4529 69.9373 65.6375C71.3806 64.7344 73.2802 62.0469 74.0479 58.1846" stroke="#8D0F3A" stroke-width="0.925341" stroke-miterlimit="10"/>
<path d="M63.353 70.438C62.6598 71.5823 61.4534 72.218 60.4137 72.1785C59.9004 72.161 59.431 72.0645 59.0099 71.9067C59.0099 71.9067 58.5799 71.7445 58.172 71.4858C57.7245 71.2052 56.3207 69.8418 54.3027 67.7418C52.9427 66.3258 51.302 64.5765 49.477 62.5818C52.4031 63.9014 55.5661 65.0851 58.966 66.0233C60.0277 66.3214 61.1156 66.5932 62.2255 66.8387C62.6774 66.9396 63.1248 67.036 63.5767 67.1237C63.6425 67.2859 64.2874 68.8773 63.353 70.4293V70.438Z" fill="#6A0C0D" stroke="#8D0F3A" stroke-width="0.308447" stroke-miterlimit="10"/>
<path d="M91.9959 39.4646C92.7591 39.4646 93.3778 38.8463 93.3778 38.0836C93.3778 37.3209 92.7591 36.7026 91.9959 36.7026C91.2327 36.7026 90.614 37.3209 90.614 38.0836C90.614 38.8463 91.2327 39.4646 91.9959 39.4646Z" fill="#6A0C0D" stroke="#8D0F3A" stroke-width="0.616894" stroke-miterlimit="10"/>
<path d="M96.4574 39.8594C97.2206 39.8594 97.8393 39.2411 97.8393 38.4784C97.8393 37.7157 97.2206 37.0974 96.4574 37.0974C95.6942 37.0974 95.0755 37.7157 95.0755 38.4784C95.0755 39.2411 95.6942 39.8594 96.4574 39.8594Z" fill="#6A0C0D" stroke="#8D0F3A" stroke-width="0.616894" stroke-miterlimit="10"/>
<path d="M67.9024 53.8398C68.306 53.5855 68.7841 53.4891 69.2579 53.4277C71.2101 53.169 72.3902 53.0068 73.6361 53.6513C74.0529 53.8661 75.2286 54.5018 75.3865 55.5847C75.5006 56.387 75.0136 57.1629 74.3644 58.1932C74.1187 58.579 73.9476 58.8596 73.6625 59.1665C73.4694 59.3769 71.9822 61.0604 70.3547 60.7053C68.6438 60.3326 68.2358 58.3773 67.5339 57.0577C66.9855 56.0187 66.6959 54.607 67.9067 53.8354L67.9024 53.8398Z" fill="#3F0015" stroke="#8D0F3A" stroke-width="0.616894" stroke-miterlimit="10"/>
<path d="M24.5462 45.9091C24.3795 46.3607 24.1426 47.049 23.9233 47.9083C23.6249 49.0832 23.5767 49.7276 23.41 50.6527C23.3135 51.2007 23.0152 52.8491 22.3483 54.4186C21.9711 55.3086 21.2823 56.6194 20.0013 58.0179C20.6462 57.6803 21.6464 57.0578 22.5458 56.0012C24.7349 53.4366 24.0724 50.942 25.7789 48.3423C26.3361 47.4918 27.2749 46.4308 30.3765 44.8657C41.107 39.4426 53.5177 39.0437 53.5177 39.0437C63.5376 38.7192 70.0961 40.3808 70.1312 40.1485C70.1751 39.8679 60.6334 36.5228 48.7535 37.5355C37.2158 38.5176 28.784 43.1603 24.5506 45.9091H24.5462Z" fill="#D54A0E"/>
<path d="M77.2772 42.7306C72.4559 40.4377 64.1382 37.2943 53.5086 37.2987C34.7982 37.2987 21.7952 47.0269 17.6846 50.3895C19.1806 46.628 20.9924 44.0019 22.3962 42.2834C25.489 38.4956 27.2 36.7332 29.3496 35.3259C29.8716 34.9839 31.1263 34.2035 31.9203 32.6735C32.4906 31.5775 32.5521 30.6174 32.6266 29.517C33.096 22.7129 33.3242 21.4766 34.0831 20.271C34.1709 20.1307 35.0921 18.7585 36.4652 18.0702C36.9303 17.8422 37.4391 17.6844 37.9919 17.68C38.9044 17.6712 39.5844 18.079 39.8125 18.2105C41.4532 19.1487 46.6781 21.2793 48.1258 19.9071C48.8365 19.232 47.981 18.3464 48.8716 17.1934C49.8455 15.9308 51.881 15.6809 52.64 15.5844C53.2366 15.5099 53.6797 15.523 53.7806 15.5274C55.4126 15.6151 56.8471 16.2464 57.7157 16.8996C59.3477 18.1272 59.7732 19.9159 60.5892 23.353C61.0279 25.2031 61.2297 26.7769 61.335 27.8905C63.3661 29.3109 65.4982 30.9462 67.6785 32.8313C71.5961 36.2115 74.7591 39.6223 77.2904 42.7262L77.2772 42.7306Z" stroke="#8D0F3A" stroke-width="0.925341" stroke-miterlimit="10"/>
<path d="M47.4809 63.6117C47.459 63.5108 47.2353 62.4455 48.003 61.5906C48.7751 60.7313 49.8587 60.8365 49.9596 60.8497" stroke="#8D0F3A" stroke-width="0.616894" stroke-miterlimit="10"/>
<path d="M62.9847 70.1399C62.2916 71.2842 61.0852 71.9198 60.0455 71.8804C59.5322 71.8628 59.0628 71.7664 58.6416 71.6086C58.4442 71.5297 58.1415 71.3938 57.8037 71.1877C56.7859 70.5695 56.2551 69.8286 55.7901 69.2543C55.3119 68.6669 54.5705 67.8514 53.4738 66.9658C53.737 66.751 54.0572 66.545 54.4433 66.3828C56.2025 65.6462 57.9529 66.431 58.4135 66.6546C58.5978 66.2688 58.9663 66.0057 59.383 65.9794C59.9182 65.9444 60.2648 66.3082 60.3087 66.3565C61.2782 66.5143 62.2477 66.6721 63.2129 66.8299C63.2129 66.8299 63.9235 68.5836 62.9891 70.1355L62.9847 70.1399Z" fill="#B73A40"/>
<path d="M63.3531 70.4377C62.66 71.582 61.4536 72.2177 60.4138 72.1782C59.9006 72.1607 59.4312 72.0642 59.01 71.9064C58.8126 71.8275 58.5099 71.6916 58.1721 71.4855C57.1543 70.8674 56.6235 70.1265 56.1585 69.5521C55.6803 68.9647 54.9389 68.1492 53.8422 67.2637C54.1887 66.9699 54.5265 66.7946 54.8117 66.6806C56.7551 65.9178 58.7424 67.2593 59.0319 67.4653C59.01 66.9568 59.2952 66.4877 59.747 66.2772C60.1682 66.0843 60.6639 66.1457 61.0368 66.4351C61.8835 66.6674 62.7345 66.8954 63.5812 67.1278C63.5812 67.1278 64.2919 68.8814 63.3575 70.4333L63.3531 70.4377Z" fill="#F48888"/>
<path d="M63.353 70.438C62.6598 71.5823 61.4534 72.218 60.4137 72.1785C59.9004 72.161 59.431 72.0645 59.0099 71.9067C59.0099 71.9067 58.5799 71.7445 58.172 71.4858C57.7245 71.2052 56.3207 69.8418 54.3027 67.7418C52.9427 66.3258 51.302 64.5765 49.477 62.5818C52.4031 63.9014 55.5661 65.0851 58.966 66.0233C60.0277 66.3214 61.1156 66.5932 62.2255 66.8387C62.6774 66.9396 63.1248 67.036 63.5767 67.1237C63.6425 67.2859 64.2874 68.8773 63.353 70.4293V70.438Z" stroke="#8D0F3A" stroke-width="0.925341" stroke-miterlimit="10"/>
<path d="M58.9569 66.6633C59.8607 68.4476 60.2423 69.3815 60.1063 69.4647C60.0888 69.4735 60.0625 69.4735 60.0274 69.456C59.8387 68.9694 59.6369 68.4827 59.3605 68.0443C59.0842 67.6015 58.7244 67.2026 58.2813 66.9308C58.5051 66.8431 58.7332 66.7554 58.9569 66.6677V66.6633Z" fill="#B73A40"/>
<path d="M47.5551 46.7903C48.3958 46.7903 49.0774 46.1092 49.0774 45.2691C49.0774 44.4289 48.3958 43.7478 47.5551 43.7478C46.7144 43.7478 46.0328 44.4289 46.0328 45.2691C46.0328 46.1092 46.7144 46.7903 47.5551 46.7903Z" fill="#FCFFEB"/>
<path d="M67.2178 44.5544C67.8211 44.5544 68.3101 44.0656 68.3101 43.4627C68.3101 42.8598 67.8211 42.3711 67.2178 42.3711C66.6145 42.3711 66.1254 42.8598 66.1254 43.4627C66.1254 44.0656 66.6145 44.5544 67.2178 44.5544Z" fill="#FCFFEB"/>
<path opacity="0.6" d="M71.1705 55.8347C72.3335 55.8347 73.2763 55.5599 73.2763 55.2209C73.2763 54.882 72.3335 54.6072 71.1705 54.6072C70.0075 54.6072 69.0648 54.882 69.0648 55.2209C69.0648 55.5599 70.0075 55.8347 71.1705 55.8347Z" fill="#D54A0E"/>
<path d="M38.6543 116.803C39.9265 114.134 42.5631 107.597 40.9223 99.7012C40.3126 96.7683 39.2597 94.3658 38.2551 92.5552C41.3698 100.043 41.1943 109.201 38.6543 116.808V116.803Z" fill="#E6F29B"/>
<path d="M63.2563 20.8583C63.4712 20.4901 64.3794 18.9688 65.9499 17.259C68.2048 14.804 70.7185 13.1731 72.6488 12.1428C71.9381 12.7654 70.951 13.6509 69.8192 14.7689C68.468 16.1016 67.7924 16.768 67.2572 17.5089C65.849 19.4554 66.1034 20.2709 64.9102 21.7264C64.3486 22.4147 63.3879 23.3353 61.734 24.0719C62.0543 23.2038 62.5324 22.0859 63.2519 20.8583H63.2563Z" fill="#D05B04"/>
<path d="M26.2828 22.1429C28.0596 24.427 29.4634 27.0049 31.4638 29.1004C28.2394 27.6975 25.4537 25.3126 23.5717 22.3446C22.4135 20.5164 21.4791 18.434 19.4611 17.4081C22.0494 17.2415 24.8527 20.306 26.2828 22.1473V22.1429Z" fill="#D05B04"/>
<path opacity="0.65" d="M71.6049 39.1401C69.4115 37.7899 65.608 35.8433 60.5103 35.098C53.8289 34.1204 48.4856 35.725 45.9149 36.6938C49.5253 36.0757 54.5791 35.6197 60.5103 36.3826C64.9762 36.9525 68.7227 38.0573 71.6049 39.1445V39.1401Z" fill="#E4AA52"/>
<path d="M64.1865 129.053C75.0838 109.658 68.6656 88.2549 67.5382 84.4934V84.489C69.4816 87.6718 74.7679 96.7381 75.7901 104.664C76.0226 106.458 76.1498 108.527 76.1498 108.527C76.3165 111.758 76.1059 114.73 75.8383 120.009C75.5795 125.129 75.7857 132.416 77.966 141.473C75.132 142.481 72.0567 143.428 68.7577 144.257C60.326 146.375 52.6181 147.146 46.1122 147.278C56.7331 140.899 61.9228 133.073 64.1865 129.049V129.053Z" fill="#8E9751"/>
<path d="M58.7114 121.46C61.7603 115.993 63.0545 111.201 63.6686 107.983C63.6686 107.983 65.1602 98.6584 63.265 86.9486C63.1554 86.269 62.4798 83.4325 61.8919 79.5132C61.6594 77.9788 61.5059 76.7161 61.4093 75.9139C61.7822 75.9095 62.3174 75.9533 62.8614 76.2339C63.7651 76.6986 64.1249 77.5272 64.8663 79.1361C66.1824 81.9858 66.1999 81.885 66.371 82.3409C66.7307 83.2879 69.6656 91.7228 67.2221 103.17C65.4059 111.675 61.4708 117.865 58.7114 121.46Z" fill="#E6F29B"/>
<path d="M21.186 124.822C15.1188 126.484 7.79692 127.781 0.510166 127.29C-1.50345 127.155 -3.78029 126.747 -6.31157 125.493C-10.9925 123.169 -14.2037 118.141 -14.3397 112.915C-14.366 111.745 -14.2564 110.574 -14.1686 109.403C-14.1028 108.623 -14.0502 107.843 -14.0633 107.058C-14.0633 106.975 -14.0633 106.896 -14.0677 106.812C-14.0765 106.471 -14.0984 106.124 -14.1423 105.778C-14.3178 104.239 -14.8267 102.735 -15.9015 101.644C-16.1603 101.381 -16.4455 101.144 -16.7482 100.942C-18.4064 99.8023 -20.5912 99.4779 -22.4995 98.6932C-27.2944 96.6984 -30.3302 91.1657 -29.4265 86.0627C-29.4265 87.6979 -28.4263 89.2104 -27.1277 90.2144C-25.8292 91.2227 -24.2674 91.8058 -22.7276 92.3801C-24.5526 91.3849 -25.8862 89.5305 -26.2328 87.4787C-25.1887 88.5046 -23.6269 88.8685 -22.1661 88.7676C-20.6964 88.6668 -19.297 88.1626 -17.9195 87.6585C-18.4021 87.3823 -19.0338 87.071 -19.8015 86.8299C-20.657 86.5581 -21.4203 86.4529 -22.0169 86.4134C-15.9585 82.1302 -8.00933 80.6045 -0.792765 82.3538C1.05415 82.7965 2.87036 83.4542 4.4365 84.5326C4.74359 84.7431 5.03752 84.9667 5.3139 85.2034C9.59558 88.7852 10.337 94.6598 10.5826 96.431C11.2363 101.139 10.0255 103.288 10.1878 106.698C10.2317 107.65 10.122 108.904 10.7932 110.232C11.9645 112.534 14.4256 113.406 15.4127 113.752C17.8343 114.612 20.2647 114.397 22.2651 113.858" stroke="#8D0F3A" stroke-width="0.925341" stroke-miterlimit="10"/>
<path d="M62.7305 106.729C62.634 109.496 62.0593 111.894 61.2433 114.103C61.2258 114.16 61.2039 114.217 61.1819 114.274C58.4181 112.582 56.4484 110.671 55.6851 108.426C53.961 98.6977 53.3775 89.8814 54.7375 82.6214C54.2988 81.8892 53.8601 81.1527 53.4214 80.4162C53.9654 80.0918 54.5401 79.7103 55.1323 79.2763C55.4964 79.0089 55.8342 78.7415 56.1501 78.4784C56.2071 78.4346 56.2641 78.3864 56.3212 78.3381C56.6195 78.6976 56.9617 79.079 57.3653 79.4692C57.7645 79.8594 58.1549 80.197 58.519 80.4907C58.2032 81.1878 57.8873 81.8848 57.5715 82.5863C57.4135 90.1707 59.4973 98.3076 62.7305 106.729Z" fill="#B73A40"/>
<path d="M61.2433 114.103C61.2258 114.16 61.2039 114.217 61.1819 114.274C58.4181 112.582 56.4484 110.67 55.6851 108.426C53.961 98.6976 53.3775 89.8812 54.7375 82.6212C54.2988 81.8891 53.8601 81.1526 53.4214 80.416C53.9654 80.0916 54.5401 79.7102 55.1323 79.2762C55.4964 79.0087 55.8342 78.7413 56.1501 78.4783C55.4218 79.1227 54.7945 79.8329 54.3909 80.6615C54.4699 80.9114 54.6015 81.2052 54.8252 81.4857C55.6719 82.5335 57.3302 82.4765 57.3302 82.4765C57.2249 82.744 55.7947 82.9062 55.5227 82.7703C55.5227 82.7703 54.3777 94.1338 55.299 98.1847C55.9965 102.446 57.6109 108.084 61.2433 114.103Z" fill="#6A0C0D"/>
<path d="M62.7305 106.729C62.634 109.496 62.0593 111.894 61.2433 114.103C61.2258 114.16 61.2039 114.217 61.1819 114.274C60.4098 113.924 58.949 113.134 57.6811 111.556C56.3475 109.895 55.9132 108.207 55.7509 107.369C54.9393 103.902 54.2242 99.5833 54.0531 94.5986C53.8952 89.9998 54.2374 85.9489 54.7375 82.6214C54.2988 81.8892 53.8601 81.1527 53.4214 80.4162C53.9654 80.0918 54.5401 79.7103 55.1323 79.2763C55.4964 79.0089 55.8342 78.7415 56.1501 78.4784C56.2071 78.4346 56.2641 78.3864 56.3212 78.3381C56.6195 78.6976 56.9617 79.079 57.3653 79.4692C57.7645 79.8594 58.1549 80.197 58.519 80.4907C58.2032 81.1878 57.8873 81.8848 57.5715 82.5863C57.4135 90.1707 59.4973 98.3076 62.7305 106.729Z" stroke="#8D0F3A" stroke-width="0.925341" stroke-miterlimit="10"/>
<path d="M77.9701 141.477C70.8501 144.002 60.2731 146.865 47.2087 147.255C38.619 147.514 31.0603 146.637 24.8966 145.432C22.3609 144.936 20.0665 144.388 18.0266 143.84C19.9963 134.721 20.9922 127.04 21.5406 121.525C23.2032 104.747 24.3921 91.3454 18.8206 76.7596C16.2148 69.938 12.907 64.8963 10.7223 61.9107C12.7929 61.5907 15.2014 61.3496 17.8774 61.3145C20.6017 61.2794 23.0453 61.4679 25.151 61.7441C24.8527 62.6955 24.471 64.3351 24.6641 66.3737C24.8615 68.4825 25.581 70.0695 26.0635 70.9551C27.5156 70.2887 29.5336 69.5565 32.021 69.2102C36.0877 68.6447 39.4218 69.3943 41.3477 69.9906C40.7511 71.1348 40.093 72.6736 39.6412 74.5675C39.0753 76.9568 39.0533 79.0349 39.1542 80.5167C42.6638 84.081 46.9411 89.1665 50.692 95.9486C56.0221 105.576 58.0445 114.55 58.8824 120.513C60.5539 118.036 62.6464 114.287 63.6642 109.425C66.4806 96.0188 60.5144 77.3953 61.2338 76.2817C61.7559 76.0976 62.2823 75.9091 62.8044 75.7249C64.0415 77.8819 65.8445 81.1349 67.8713 85.1682C72.4689 94.3134 74.8598 98.8684 75.7854 104.673C76.6584 110.162 75.7854 111.201 75.838 120.017C75.8688 125.335 76.2811 132.661 77.9657 141.482L77.9701 141.477Z" stroke="#8D0F3A" stroke-width="0.925341" stroke-miterlimit="10"/>
<path d="M58.4832 80.4377C58.8517 80.6876 59.2729 80.9463 59.7423 81.1962C60.3214 81.5031 60.8697 81.7442 61.3655 81.9327C61.5146 81.4943 61.6682 81.0515 61.8217 80.6131" stroke="#8D0F3A" stroke-width="0.925341" stroke-miterlimit="10"/>
<path d="M53.4205 80.4158C52.4379 80.92 51.4596 81.4285 50.4769 81.9327L41.9135 77.2505" stroke="#8D0F3A" stroke-width="0.925341" stroke-miterlimit="10"/>
</g>
</svg>
