<svg width="71" height="70" viewBox="0 0 71 70" fill="none" xmlns="http://www.w3.org/2000/svg">
<mask id="mask0_2034_34485" style="mask-type:alpha" maskUnits="userSpaceOnUse" x="0" y="0" width="71" height="70">
<circle cx="35.578" cy="34.7064" r="34.6336" fill="#D9D9D9"/>
</mask>
<g mask="url(#mask0_2034_34485)">
<path d="M52.8103 65.7503C52.9803 62.7817 45.9057 59.9465 37.0087 59.4176C28.1116 58.8888 20.7613 60.8666 20.5912 63.8352C20.4211 66.8037 27.4957 69.639 36.3927 70.1679C45.2898 70.6967 52.6402 68.7189 52.8103 65.7503Z" fill="#F36B21" stroke="#231F20" stroke-width="0.30319" stroke-miterlimit="10"/>
<path d="M19.0187 103.51C18.5815 103.664 18.1262 103.811 17.6601 103.962C12.2185 105.721 4.97743 107.385 -2.2094 106.892C-3.8679 106.778 -5.74681 106.432 -7.82806 105.383C-11.6871 103.432 -14.3284 99.211 -14.4404 94.8241C-14.4621 93.8415 -14.3717 92.8588 -14.2995 91.8762C-14.2489 91.2211 -14.2055 90.566 -14.2127 89.9072C-14.2127 89.8373 -14.2127 89.7711 -14.2164 89.7012C-14.2236 89.4141 -14.2416 89.1197 -14.2778 88.8326C-14.4223 87.5408 -14.8451 86.2785 -15.7267 85.3621C-15.9399 85.1413 -16.1784 84.9426 -16.4241 84.7733C-17.7899 83.8164 -19.5929 83.544 -21.1611 82.8816C-25.114 81.2108 -27.6108 76.5662 -26.8701 72.2787C-26.8701 73.6551 -26.0427 74.9248 -24.9767 75.7676C-23.9036 76.6141 -22.6209 77.1036 -21.3526 77.582C-22.8557 76.7466 -23.9542 75.1898 -24.2396 73.4711C-23.3797 74.3323 -22.0933 74.6378 -20.8865 74.5531C-19.6796 74.4648 -18.5234 74.0416 -17.3888 73.6183C-17.6418 73.3718 -18.1765 72.9154 -18.9967 72.6725C-19.77 72.4443 -20.4276 72.5143 -20.7672 72.5731C-18.7077 71.1194 -16.8324 70.3024 -15.546 69.8387C-15.546 69.8387 -9.65639 67.7115 -3.28616 69.1652C-2.33225 69.3823 -0.70266 69.7761 1.02088 70.9943C1.27381 71.1746 1.51951 71.3623 1.74354 71.5574C5.27011 74.5642 5.88075 79.4994 6.07948 80.9826C6.61786 84.9389 5.62421 86.7385 5.75429 89.6018C5.79042 90.3967 5.70008 91.453 6.25292 92.5644C7.21767 94.4966 9.24472 95.2289 10.0541 95.5234C14.3467 97.0728 18.6537 94.4487 19.4559 93.9408C19.3077 97.128 19.1596 100.319 19.0078 103.506L19.0187 103.51Z" fill="#F36B21" stroke="#231F20" stroke-width="0.30319" stroke-miterlimit="10"/>
<path d="M58.5263 60.7116C57.5724 63.0891 55.6862 66.8577 51.8959 70.6373C50.0134 66.7068 48.1345 62.7799 46.252 58.8494C47.3323 57.2669 48.485 55.3568 49.5581 53.1192C50.8697 50.3737 51.7333 47.8233 52.3151 45.663C53.1353 45.8139 58.0819 46.8112 59.8741 50.8411C61.2471 53.9289 59.9933 57.0534 58.5263 60.7116Z" fill="#867640" stroke="#231F20" stroke-width="0.30319" stroke-miterlimit="10"/>
<path d="M22.0262 52.7732C22.72 57.506 25.1517 60.649 26.2537 61.9113C22.467 62.3125 18.6803 62.7136 14.8972 63.1185C13.9939 61.4255 12.834 59.5191 11.3489 57.5392C9.52784 55.1175 7.67784 53.1854 6.04102 51.6875C10.0337 47.7128 17.6939 45.6371 22.5537 45.236C22.1093 46.7854 21.5529 49.483 22.0334 52.7732H22.0262Z" fill="#867640" stroke="#231F20" stroke-width="0.909571" stroke-miterlimit="10"/>
<path d="M62.0309 37.4301C61.9116 40.459 48.463 42.1519 36.5464 43.6535C24.6514 45.1513 12.3554 46.6971 11.5316 43.9258C10.668 41.0221 22.2992 32.9917 35.2709 31.2289C48.5642 29.4218 62.1537 34.3534 62.0309 37.4301Z" fill="#C25E2A" stroke="#231F20" stroke-width="0.606381" stroke-miterlimit="10"/>
<path d="M39.4479 62.9306C39.1627 66.5507 42.5858 69.2575 47.9805 73.5221C52.3244 76.9544 56.3144 79.1051 58.9576 80.3646C60.9183 81.915 63.4026 83.609 66.4249 85.1411C70.9855 87.4538 75.1958 88.5954 78.4023 89.1884C78.3156 89.3946 77.7957 90.713 78.4565 91.9762C78.9764 92.9742 80.2908 94.0422 81.4788 93.5303C82.3635 93.1473 82.9195 92.0019 82.7209 90.7719C83.9414 91.0408 85.1511 90.3631 85.5555 89.2546C85.9021 88.2971 85.588 87.1702 84.7647 86.4889C85.913 85.7192 86.3752 84.3935 85.9852 83.447C85.4291 82.0844 83.3926 82.1728 83.1001 82.1875C82.1143 82.2317 81.3813 82.6626 81.0274 82.9093C79.3086 81.3921 76.7882 79.4144 73.4662 77.6062C68.9381 75.1425 67.0316 74.962 62.7382 72.3399C58.954 70.0309 56.4083 67.6629 55.8234 67.081C49.9304 61.1961 50.1976 56.4674 46.9839 55.9445C43.8857 55.4437 39.7404 59.2074 39.4479 62.9306Z" fill="#F36B21" stroke="#231F20" stroke-width="0.909571" stroke-miterlimit="10"/>
<path d="M76.0743 90.4625C72.9906 89.2693 69.4085 87.5936 65.6279 85.2146C63.0678 83.6016 60.8507 81.9444 58.9586 80.3645C55.9255 79.3039 51.5418 77.3631 47.0246 73.7724C43.9553 71.3308 41.6407 68.775 39.9436 66.5727C39.3984 65.8546 38.9145 65.1843 38.492 64.5583C41.1352 63.1957 44.4464 61.8294 48.3715 60.8977C49.9025 60.5368 51.3613 60.279 52.7262 60.1022C54.5208 62.5696 55.8207 64.3668 56.5646 65.4016C58.24 67.7291 59.2439 68.9628 60.8218 70.6421C61.0132 70.8484 61.8618 71.6475 62.7356 72.3325C66.2635 75.1166 69.4952 75.2823 73.2758 76.7223C75.1174 77.4257 77.71 78.6631 80.5879 80.9979C79.2157 83.8631 77.8508 86.7319 76.4823 89.5934C76.3451 89.8806 76.2079 90.1642 76.0707 90.4551L76.0743 90.4625Z" fill="#AC9955" stroke="#231F20" stroke-width="0.30319" stroke-miterlimit="10"/>
<path d="M55.0605 76.4484C57.2609 74.8438 60.0396 72.4664 62.6881 69.0952C66.2833 64.5207 68.1586 60.0086 69.1559 56.9319C70.7024 55.0035 72.332 52.7475 73.9146 50.1345C76.2452 46.2812 77.8928 42.6304 79.0635 39.4874C78.3264 39.1194 77.5929 38.755 76.8558 38.3907C76.2126 40.9411 75.1576 44.1614 73.369 47.6539C71.4973 51.3048 69.3908 54.1202 67.6383 56.148C67.613 56.1959 67.5697 56.2805 67.5046 56.3983C64.4767 62.1064 62.9591 64.9549 61.7739 66.4307C58.4316 70.5821 54.8184 73.7214 54.8184 73.7214C54.8184 73.7214 54.8545 75.797 55.0641 76.4484H55.0605Z" fill="#8D7F45"/>
<path d="M76.0447 90.4627C72.9429 89.2695 69.3429 87.5938 65.537 85.2148C62.9624 83.6018 60.7345 81.9445 58.8279 80.3647C55.7767 79.304 51.3678 77.3632 46.8253 73.7726C43.738 71.331 41.409 68.7752 39.7046 66.5729C39.1558 65.8548 38.6719 65.1845 38.2458 64.5585C41.7159 61.9916 48.3058 57.7233 51.8228 59.9661C53.1299 60.7984 54.6465 62.9638 56.4267 65.4018C58.4344 68.1528 59.366 69.2208 60.7092 70.6423C60.9042 70.8485 61.7564 71.6477 62.6338 72.3327C66.1833 75.1168 69.4331 75.2825 73.2354 76.7225C75.0878 77.4259 77.6949 78.6633 80.5908 80.9981C79.2115 83.8632 77.8393 86.7321 76.46 89.5935C76.3227 89.8808 76.1855 90.1644 76.0447 90.4553L76.0447 90.4627Z" stroke="#231F20" stroke-width="0.909571" stroke-miterlimit="10"/>
<path d="M57.7923 32.712C57.7092 32.8592 57.6225 33.0028 57.5321 33.1463L16.2178 43.348C16.1094 42.7077 15.9107 41.8833 15.5277 40.9816C15.1736 40.1499 14.7653 39.4837 14.4075 38.9869C13.1465 37.4375 9.65246 32.7304 9.21525 25.6717C8.79973 19.003 11.3507 14.1119 12.3805 12.3491C14.1185 13.225 16.1455 14.4468 18.216 16.1471C22.14 19.3637 24.5573 22.9188 25.9773 25.4545C27.8309 24.6964 31.2816 22.3152 34.8262 22.1055C38.1505 21.9104 43.8522 21.8994 45.7275 22.3888C47.3644 16.3569 51.9894 11.256 57.7562 9.10673C57.8501 9.06993 57.9441 9.03312 58.0416 9C62.1246 16.1765 62.009 25.6165 57.7923 32.712Z" fill="#F36B21" stroke="#231F20" stroke-width="0.909571" stroke-miterlimit="10"/>
<path d="M57.5213 32.7157C57.4491 32.6274 57.3515 32.4985 57.2323 32.344C56.6903 31.6226 56.6469 31.4644 56.6614 31.365C56.6975 31.1111 56.8854 30.9087 57.0444 30.7062C57.2467 30.4486 57.5466 29.8635 58.0922 28.6416C58.403 27.946 59.3496 25.3735 59.4002 21.5129C59.4328 18.9772 59.0678 16.9015 58.674 14.675C58.5945 14.2186 58.2404 12.7391 58.0019 10.7039C57.9405 10.174 57.9007 9.73602 57.8754 9.44528C58.8691 11.3112 60.7733 15.4846 60.6902 21.1154C60.6071 26.761 58.5692 30.8829 57.5213 32.7157Z" fill="#DA4D1F"/>
<path d="M60.015 45.9757C60.2969 44.5294 60.9436 42.6488 62.5046 41.2503C62.6383 41.1288 62.7756 41.0184 62.9129 40.9117C62.1433 40.8381 61.0159 40.632 59.8235 40.0137C57.5183 38.8176 56.7233 36.9701 54.5879 33.6505C52.7162 30.7394 51.419 28.5754 49.4715 26.853C46.9422 24.6228 44.4092 23.4782 42.7796 22.893C41.0814 22.4919 38.3028 22.076 34.9749 22.6833C32.7781 23.0844 31.0076 23.8131 29.7321 24.4608C27.864 25.4619 25.2697 27.1254 22.7512 29.8083C21.1613 31.5012 18.5236 34.3976 17.0494 38.9942C16.5399 40.5804 16.4063 42.2108 16.0558 43.8265C15.6113 45.8764 14.3106 48.0036 12.699 49.3211C13.4759 49.2733 14.2022 48.942 14.9104 48.6145C13.3494 50.4142 12.3449 52.6996 12.0703 55.0844C12.7388 53.8037 13.8589 52.7806 15.1741 52.2248C15.2139 54.5545 14.119 56.8767 12.3124 58.3083C13.2266 57.9661 14.148 57.6201 15.0693 57.2705C17.0314 56.5234 18.9753 55.7726 20.894 55.0108" fill="#F36B21"/>
<path d="M60.015 45.9757C60.2969 44.5294 60.9436 42.6488 62.5046 41.2503C62.6383 41.1288 62.7756 41.0184 62.9129 40.9117C62.1433 40.8381 61.0159 40.632 59.8235 40.0137C57.5183 38.8176 56.7233 36.9701 54.5879 33.6505C52.7162 30.7394 51.419 28.5754 49.4715 26.853C46.9422 24.6228 44.4092 23.4782 42.7796 22.893C41.0814 22.4919 38.3028 22.076 34.9749 22.6833C32.7781 23.0844 31.0076 23.8131 29.7321 24.4608C27.864 25.4619 25.2697 27.1254 22.7512 29.8083C21.1613 31.5012 18.5236 34.3976 17.0494 38.9942C16.5399 40.5804 16.4063 42.2108 16.0558 43.8265C15.6113 45.8764 14.3106 48.0036 12.699 49.3211C13.4759 49.2733 14.2022 48.942 14.9104 48.6145C13.3494 50.4142 12.3449 52.6996 12.0703 55.0844C12.7388 53.8037 13.8589 52.7806 15.1741 52.2248C15.2139 54.5545 14.119 56.8767 12.3124 58.3083C13.2266 57.9661 14.148 57.6201 15.0693 57.2705C17.0314 56.5234 18.9753 55.7726 20.894 55.0108" stroke="#231F20" stroke-width="0.909571" stroke-miterlimit="10"/>
<path d="M15.8392 36.2635C11.4744 35.0932 11.1889 27.2358 11.1564 26.3599C11.0191 22.7311 12.2115 19.8899 12.9703 18.4031C14.3722 19.9783 15.8573 21.4725 17.2737 23.0292C17.2737 23.0329 17.2773 23.0292 17.2773 23.0292C17.7145 23.4893 18.1481 23.9861 18.5781 24.5197C20.8906 27.3867 22.2492 30.3787 23.0694 32.9108C22.8634 33.1537 19.3369 37.202 15.8392 36.2635Z" fill="#F6927F" stroke="#231F20" stroke-width="0.909571" stroke-miterlimit="10"/>
<path d="M49.9196 25.6643C50.5628 22.8231 51.9069 20.1476 53.8039 17.9688C54.1219 17.6008 54.4579 17.2475 54.8048 16.9126C55.9791 15.7791 57.3052 14.8296 58.6168 13.8764C59.0902 15.2418 59.6394 17.2917 59.7297 19.8274C59.7406 20.1255 59.7839 21.5424 59.5491 23.3163C59.0034 27.4529 57.2835 30.9639 55.9863 33.1647L49.916 25.6643" fill="#F6927F"/>
<path d="M49.9196 25.6643C50.5628 22.8231 51.9069 20.1476 53.8039 17.9688C54.1219 17.6008 54.4579 17.2475 54.8048 16.9126C55.9791 15.7791 57.3052 14.8296 58.6168 13.8764C59.0902 15.2418 59.6394 17.2917 59.7297 19.8274C59.7406 20.1255 59.7839 21.5424 59.5491 23.3163C59.0034 27.4529 57.2835 30.9639 55.9863 33.1647L49.916 25.6643" stroke="#231F20" stroke-width="0.606381" stroke-miterlimit="10"/>
<path d="M54.9316 17.3028C55.3074 17.3616 56.0156 17.4205 56.8358 17.1555C57.8186 16.839 58.4293 16.2392 58.693 15.9447C58.7328 16.3385 58.7581 17.1114 58.3967 17.9615C58.1872 18.451 57.9162 18.808 57.703 19.0472C57.9162 19.0067 58.151 18.9552 58.3967 18.8816C58.7508 18.7749 59.058 18.6497 59.3181 18.5209C58.9749 19.1539 58.4943 19.901 57.8258 20.6628C57.3995 21.145 56.9767 21.5461 56.5865 21.8773C56.8105 21.9546 57.367 22.1092 58.0354 21.9362C58.5377 21.8037 58.8809 21.5424 59.058 21.3879C58.964 22.0614 58.7075 23.2096 57.9234 24.3726C57.4862 25.024 57.0056 25.4951 56.6118 25.8226C56.8756 25.8116 57.1574 25.7895 57.4573 25.749C57.8656 25.6938 58.2378 25.6165 58.5666 25.5319C58.2269 26.0949 57.6596 26.8825 56.7599 27.6002C55.3869 28.6969 53.9813 29.0392 53.2442 29.1643C52.3264 28.4945 51.8495 27.7805 51.5857 27.2211C50.2921 24.5124 51.6254 20.5414 54.928 17.3101L54.9316 17.3028Z" fill="#DD7162"/>
<path d="M53.804 17.9688C54.1761 18.1013 54.8049 18.2669 55.5889 18.2081C56.6223 18.1308 57.3667 17.7002 57.7172 17.4683C57.3775 18.3626 56.7416 19.1355 55.9322 19.625C56.1309 19.6912 56.3983 19.7538 56.7199 19.7611C57.2402 19.7795 57.6557 19.647 57.9051 19.544C57.5257 19.9746 57.0704 20.442 56.532 20.9094C55.9033 21.4577 55.2926 21.8994 54.747 22.2453C55.0614 22.4293 55.5853 22.6833 56.2827 22.7826C56.8753 22.8673 57.3739 22.8121 57.7063 22.7458C57.139 24.413 55.8527 25.8115 54.2556 26.4924C54.6242 26.5034 55.018 26.4997 55.4336 26.4813C56.0298 26.4519 56.579 26.3893 57.0776 26.312C56.626 26.7389 56.0551 27.21 55.3468 27.659C54.2954 28.3251 53.3017 28.7079 52.5285 28.9361C51.318 28.7447 50.7471 28.2552 50.4581 27.8835C49.0561 26.0912 50.2521 22.0319 53.8004 17.9725L53.804 17.9688Z" fill="white" stroke="#231F20" stroke-width="0.606381" stroke-miterlimit="10"/>
<path d="M22.4757 29.385C20.6149 27.1806 18.754 24.9761 16.8932 22.7716C16.2608 22.2968 15.6032 21.7669 14.9275 21.167C14.4181 20.7143 13.9447 20.2653 13.5075 19.8274C13.4967 20.3573 13.5364 21.0934 13.7605 21.9325C13.97 22.7237 14.2699 23.3457 14.5265 23.7873C14.288 23.6107 13.9628 23.3236 13.6737 22.8894C13.2474 22.249 13.1245 21.6197 13.0848 21.2737C12.9149 21.7153 12.3874 23.2537 12.9764 25.057C13.4353 26.4629 14.3277 27.291 14.7252 27.6148C14.4506 27.6627 14.1109 27.6995 13.7243 27.6848C13.1173 27.659 12.6223 27.5191 12.2754 27.3903C12.438 27.8393 12.7668 28.5717 13.4389 29.2526C13.8363 29.6574 14.241 29.926 14.559 30.1027C14.447 30.1837 14.2988 30.2757 14.1109 30.3456C13.7099 30.5002 13.3485 30.4781 13.1462 30.4486C13.2257 30.6952 13.3847 31.0927 13.7279 31.4754C13.9375 31.7073 14.1507 31.8692 14.3205 31.976C14.2193 32.0164 14.1037 32.0569 13.9736 32.0827C13.6231 32.1637 13.3124 32.1453 13.0956 32.1084C13.5003 32.5611 14.3819 33.4223 15.7839 33.9265C17.0413 34.3792 18.1325 34.335 18.7215 34.2688L22.4829 29.3814L22.4757 29.385Z" fill="#DD7162"/>
<path d="M23.7051 32.5795C23.1739 31.1773 22.379 29.4513 21.1722 27.6259C19.8461 25.6128 18.4333 24.1038 17.2734 23.0329C17.2734 23.0329 17.2734 23.0329 17.2698 23.0329C16.1533 22.6501 15.1163 22.0355 14.2202 21.2553C14.4659 22.422 14.9429 23.5371 15.6113 24.516C14.7514 24.4424 13.7469 24.2658 13.3711 23.4782C13.3711 25.3846 14.8778 26.9229 16.4063 28.0197C15.4307 28.2736 14.4117 28.3472 13.4145 28.2331C14.2889 29.2783 15.6402 29.8856 16.988 29.8377C16.0919 30.3162 15.1344 30.6731 14.1443 30.894C14.867 31.5564 15.8209 31.9428 16.7929 31.9796C15.951 32.1342 15.1019 32.2961 14.2563 32.4544C15.7378 33.4518 17.5517 33.9155 19.315 33.7903C20.7783 33.3892 22.2453 32.988 23.7087 32.5869L23.7051 32.5795Z" fill="white" stroke="#231F20" stroke-width="0.909571" stroke-miterlimit="10"/>
<path d="M55.9602 101.644C55.9783 106.163 54.5546 110.774 51.5339 114.083C48.1194 117.815 43.6064 119.386 38.8224 120.281C38.4141 119.217 37.6409 117.531 36.1522 115.941C34.6382 114.326 33.0917 113.553 32.6039 113.292C32.781 113.251 32.9472 113.196 33.1026 113.122C34.0998 112.637 34.5298 111.672 34.3744 110.793C34.2191 109.917 33.5723 109.118 32.8063 108.426C32.3365 108.003 31.8018 107.598 31.491 107.098C31.491 107.098 31.1153 106.443 31.0574 105.548C30.9129 103.222 33.0917 91.5633 33.2001 85.9619C33.3591 77.6077 29.0593 74.2844 31.3826 65.5254C31.5994 64.701 31.8235 64.0385 31.9716 63.6226C32.8243 63.4276 33.6771 63.2141 34.5551 63.089C35.5885 62.9418 36.6364 62.9344 37.6806 62.9308C38.5369 62.9271 39.4041 62.9234 40.2352 63.1148C41.9768 63.5122 42.143 63.9355 43.5377 64.2851C44.5422 64.539 45.7346 64.5758 46.8909 64.3293C47.5051 64.1416 47.9134 64.2225 48.1736 64.3366C49.4563 64.896 49.9658 67.4538 49.2576 70.7072C48.3181 70.7403 47.3678 70.49 46.5693 69.9859C47.6533 72.2087 49.1889 74.2035 51.0425 75.8117C50.3126 75.9553 49.5502 75.9001 48.8529 75.6535C49.6514 76.327 50.5584 77.2176 51.4364 78.3585C52.9395 80.3238 53.7633 82.2559 54.2222 83.6544C54.1211 83.4925 53.4634 82.5098 52.2421 82.3442C51.5267 82.2485 50.9667 82.4767 50.7137 82.5982C53.3117 84.6591 55.0388 87.8242 55.3857 91.1585C54.5077 90.1096 53.4887 89.1822 52.365 88.413C54.8726 92.1117 55.9494 97.1463 55.9638 101.64L55.9602 101.644Z" fill="#E6E7E8" stroke="#231F20" stroke-width="0.909571" stroke-miterlimit="10"/>
<path d="M40.9221 41.2908C40.904 41.5705 40.8751 41.9937 40.6908 42.4611C39.8995 44.4779 37.0233 45.3575 34.8806 45.3243C33.7461 45.3059 31.8636 45.2802 30.8482 43.9663C29.2331 41.8796 30.4327 37.11 33.6774 35.855C35.8273 35.0232 38.4108 35.9139 39.7586 37.6326C39.9971 37.938 41.0594 39.3696 40.9257 41.2908H40.9221Z" fill="white" stroke="#231F20" stroke-width="0.909571" stroke-miterlimit="10"/>
<path d="M54.6783 41.7508C53.6738 42.9028 52.1201 42.8475 52.0117 42.8439C50.1473 42.7482 49.1428 41.0737 48.9404 40.7314C47.9215 39.0348 47.8745 36.4328 49.2476 35.2588C49.8221 34.7693 50.4797 34.67 50.7579 34.6295C52.6224 34.3719 54.0026 35.8661 54.1761 36.0648C55.4877 37.5295 56.0261 40.2088 54.6783 41.7545V41.7508Z" fill="white" stroke="#231F20" stroke-width="0.909571" stroke-miterlimit="10"/>
<path d="M55.1045 46.1708C55.0503 46.3327 50.5988 43.6057 45.3378 44.5809C41.739 45.2507 38.9965 47.4221 37.0598 49.4867C37.0598 49.4867 34.9388 48.2722 31.3183 48.114C28.5324 47.9962 25.7502 48.7286 25.7682 48.9273C25.7755 48.9715 25.8947 48.9641 26.2633 49.0635C26.8703 49.2218 27.2967 49.4462 27.5966 49.6045C27.7194 49.6671 29.2587 50.4804 29.1611 50.7785C29.0491 51.1134 27.0437 50.2301 24.3121 50.4068C21.7683 50.5724 19.7991 51.5771 19.8352 51.728C19.8569 51.8237 20.6265 51.5845 21.837 51.7464C22.0068 51.7685 23.6978 52.0004 23.7267 52.4199C23.752 52.8689 21.8298 53.0088 19.7593 54.168C19.0656 54.5582 18.3538 55.0624 17.6962 55.7358C17.6962 55.7358 17.6962 55.7469 17.6817 55.7506C17.5769 55.8573 16.5688 56.8988 15.7847 58.1317C15.6727 58.3084 15.5607 58.4924 15.4631 58.6764C15.2391 58.6469 15.0223 58.5991 14.8091 58.5218C14.6646 58.4703 14.5056 58.393 14.455 58.2458C14.4153 58.1243 14.455 57.9919 14.4912 57.8741C14.6646 57.3404 14.885 56.8914 15.1379 56.3946C15.3656 55.9493 16.2942 54.9151 18.538 53.5902C19.0584 53.2811 19.4956 53.0529 19.763 52.9204C19.0764 52.7291 18.3935 52.5377 17.707 52.3463C18.6284 51.0656 19.6076 50.4951 20.1965 50.2301C20.7747 49.9725 21.3239 49.8474 22.2019 49.6487C23.1233 49.4389 23.9074 49.3285 24.4711 49.2622C24.4169 49.1518 24.3157 48.9862 24.1386 48.8353C23.8496 48.5887 23.5352 48.5335 23.4015 48.5225C23.6906 48.4011 23.9905 48.2833 24.294 48.1729C28.7275 46.5756 33.1574 47.0025 36.8032 48.0073C38.1618 46.6419 41.0091 44.2129 45.1102 43.6498C50.653 42.8917 55.1623 46.0015 55.1045 46.1671V46.1708Z" fill="#DA4D1F"/>
<path d="M38.3469 40.6394C38.253 42.8917 36.2187 44.3785 34.3073 44.419C32.7066 44.4521 31.189 43.4695 30.4158 41.9091C30.3254 41.4601 30.1628 40.3597 30.6795 39.1599C30.7626 38.9648 31.5395 37.2241 33.3823 36.6794C33.6171 36.6094 34.0724 36.5027 34.6397 36.5248C36.7751 36.6168 38.4409 38.4606 38.3505 40.6394H38.3469Z" fill="#3C2415" stroke="#231F20" stroke-width="0.909571" stroke-miterlimit="10"/>
<path d="M53.9221 39.4359C53.9221 39.6751 53.9077 40.4811 53.3476 41.2135C52.3973 42.4611 50.7352 42.3543 50.5581 42.3433C50.1535 42.0894 49.4705 41.5888 48.9358 40.7277C48.177 39.5021 47.5952 37.3418 48.6503 36.1788C49.1706 35.6047 49.8825 35.5017 50.0414 35.4833C51.8987 35.2661 53.9257 37.4154 53.9185 39.4322L53.9221 39.4359Z" fill="#3C2415" stroke="#231F20" stroke-width="0.909571" stroke-miterlimit="10"/>
<path d="M61.0193 35.9065C57.0989 33.9854 50.2337 31.3061 41.4425 31.3466C25.9488 31.4166 15.2896 39.8886 12.0557 42.6782C13.1686 39.2813 14.6645 36.9848 15.8135 35.5311C17.5479 33.334 19.4448 30.9381 21.5405 29.6905C21.8368 29.5175 22.6968 29.0281 23.3508 28.0233C23.47 27.8356 23.5748 27.648 23.6579 27.4639C23.9795 26.7757 24.0735 26.1501 24.1168 25.8152C24.1385 25.6716 24.1566 25.5318 24.171 25.3956C24.1963 25.1932 24.218 25.0018 24.2397 24.8141C24.7022 20.729 24.2433 18.9257 25.4393 17.0524C25.5115 16.9347 26.2703 15.7827 27.4013 15.2049C27.7843 15.0136 28.2034 14.8811 28.6587 14.8774C29.2802 14.8737 29.7174 15.1056 30.1582 15.3227C30.6785 15.5766 35.6866 18.024 37.0054 16.747C37.5908 16.1839 36.8862 15.4368 37.6197 14.4689C38.4218 13.409 40.0984 13.1992 40.7235 13.1182C41.2149 13.0557 41.5798 13.0667 41.663 13.0704C41.9376 13.0777 43.6214 13.1587 44.9041 14.2223C45.6267 14.8185 46.0278 15.5766 46.5156 16.9972C46.7613 17.7149 47.0287 18.5945 47.2708 19.6397C47.3611 20.0151 47.4406 20.4125 47.5201 20.8321C47.5526 21.0014 47.5851 21.1817 47.614 21.3657C47.6393 21.5203 47.6646 21.6749 47.6863 21.8331C47.7622 22.3484 47.8308 22.8857 47.885 23.4524C49.558 24.6448 51.314 26.0176 53.1098 27.6001C56.3365 30.4376 58.9417 33.3009 61.0266 35.9065H61.0193Z" fill="#CB8641" stroke="#231F20" stroke-width="0.30319" stroke-miterlimit="10"/>
<path d="M63.7754 50.9883C63.7754 50.9883 63.3237 50.4289 62.4421 50.1602C61.8242 49.9688 61.0365 50.002 60.9281 50.2853C60.8053 50.6166 61.7267 50.9625 62.4421 52.1365C62.9696 53.0087 62.9624 54.2968 62.9624 54.2968C62.8143 54.168 62.6011 54.0024 62.3156 53.8442C62.3156 53.8442 61.5604 53.4283 60.6969 53.3694C59.7321 53.2995 58.7963 54.3889 57.416 55.6181C55.3709 57.4398 53.2752 58.7389 52.137 59.9829C51.4541 60.73 51.0927 61.2747 51.0927 61.2747C50.9482 61.4918 50.8073 61.7126 50.6592 61.9261C50.3448 62.3456 50.0304 62.6621 49.7558 62.9124C49.5752 63.067 49.4162 63.1884 49.2789 63.2841C48.5671 63.7993 47.7396 64.1306 46.8869 64.3109C45.7342 64.5611 44.5382 64.5207 43.5337 64.2667C42.1354 63.9171 41.9692 63.4939 40.2312 63.0964C39.4001 62.905 38.533 62.9087 37.6766 62.9124C36.636 62.9161 35.5845 62.9197 34.5511 63.0706C32.6144 63.343 30.8114 64.0496 28.8566 64.0643C27.9605 64.0717 26.3526 63.9649 24.5748 63.1332C23.545 62.6548 22.7284 62.0365 22.1864 61.5654C21.6986 61.1385 21.4277 60.822 21.4277 60.822C21.0736 60.4908 20.8278 60.2295 20.4051 60.0307C19.1151 59.7289 18.1359 59.8762 17.5361 60.0344C17.2037 60.1227 16.9436 60.2295 16.6762 60.3362C15.3862 60.8441 14.5154 61.4476 14.2589 61.6464H14.1758C14.1758 61.6464 14.1794 61.6464 14.1794 61.6427C14.7286 61.0796 14.8479 60.3583 14.8876 60.1559C14.9635 59.751 15.1333 59.3204 15.3501 58.8972C15.473 58.6396 15.6247 58.382 15.7837 58.1317C16.5678 56.8951 17.5759 55.8573 17.6807 55.7469C17.6879 55.7432 17.6951 55.7322 17.6951 55.7322C18.3564 55.0587 19.0682 54.5545 19.7619 54.1644C21.8323 53.0051 23.751 52.8652 23.7257 52.4125C23.7004 51.993 22.0058 51.7611 21.836 51.7391C20.6291 51.5771 19.8559 51.8163 19.8342 51.7207C19.8017 51.5661 21.7673 50.565 24.3111 50.3994C27.0427 50.2265 29.0481 51.106 29.1565 50.7711C29.254 50.473 27.7148 49.6634 27.5919 49.5971C27.292 49.4389 26.8693 49.2181 26.2586 49.0561C25.8901 48.9604 25.7708 48.9641 25.7672 48.92C25.7491 48.7212 28.5278 47.9889 31.3172 48.1066C34.9377 48.2612 37.0551 49.4794 37.0551 49.4794C37.6513 48.7433 40.8527 44.9269 46.3521 44.4447C50.7567 44.0583 53.9762 46.0493 54.9554 46.7118C55.407 44.2313 56.8885 42.2513 58.771 41.7692C60.2235 41.3938 61.8242 41.9348 62.0555 42.0158C62.8685 42.2991 63.4755 42.6966 63.8693 42.9984C63.8693 42.9984 62.8468 43.0058 61.4737 43.44C61.0654 43.5652 60.509 43.7455 60.5162 43.9553C60.5234 44.1724 61.1413 44.2607 61.7339 44.4631C63.3779 45.0262 64.386 46.5646 64.4475 46.6603C63.8368 46.3622 62.9696 46.0457 61.9001 45.9831C61.5821 45.9647 61.2822 45.9721 61.0076 45.9905C61.3003 46.1929 61.6038 46.4395 61.9001 46.7412C63.3346 48.2097 63.6742 50.0645 63.7682 50.9846L63.7754 50.9883Z" fill="white"/>
<path d="M63.7754 50.9883C63.7754 50.9883 63.3237 50.4289 62.4421 50.1602C61.8242 49.9688 61.0365 50.002 60.9281 50.2853C60.8053 50.6166 61.7267 50.9625 62.4421 52.1365C62.9696 53.0088 62.9624 54.2968 62.9624 54.2968C62.8143 54.168 62.6011 54.0024 62.3156 53.8442C62.3156 53.8442 61.5604 53.4283 60.6969 53.3694C59.7321 53.2995 58.7963 54.3889 57.416 55.6181C55.3709 57.4398 53.2752 58.7389 52.137 59.9829C51.4541 60.73 51.0927 61.2747 51.0927 61.2747C50.9482 61.4918 50.8073 61.7126 50.6592 61.9261C50.3448 62.3456 50.0304 62.6621 49.7558 62.9124C49.5752 63.067 49.4162 63.1884 49.2789 63.2841C48.5671 63.7993 47.7396 64.1306 46.8869 64.3109C45.7342 64.5611 44.5382 64.5207 43.5337 64.2667C42.1354 63.9171 41.9692 63.4939 40.2312 63.0964C39.4001 62.905 38.533 62.9087 37.6766 62.9124C36.636 62.9161 35.5845 62.9197 34.5511 63.0706C32.6144 63.343 30.8114 64.0496 28.8566 64.0643C27.9605 64.0717 26.3526 63.9649 24.5748 63.1332C23.545 62.6548 22.7284 62.0365 22.1864 61.5654C21.6986 61.1385 21.4277 60.822 21.4277 60.822C21.0736 60.4908 20.8278 60.2295 20.4051 60.0307C19.1151 59.7289 18.1359 59.8762 17.5361 60.0344C17.2037 60.1227 16.9436 60.2295 16.6762 60.3362C15.3862 60.8441 14.5154 61.4476 14.2589 61.6464H14.1758C14.1758 61.6464 14.1794 61.6464 14.1794 61.6427C14.7286 61.0796 14.8479 60.3583 14.8876 60.1559C14.9635 59.751 15.1333 59.3204 15.3501 58.8972C15.473 58.6396 15.6247 58.382 15.7837 58.1317C16.5678 56.8951 17.5759 55.8573 17.6807 55.7469C17.6879 55.7432 17.6951 55.7322 17.6951 55.7322C18.3564 55.0587 19.0682 54.5545 19.7619 54.1644C21.8323 53.0051 23.751 52.8652 23.7257 52.4125C23.7004 51.993 22.0058 51.7611 21.836 51.7391C20.6291 51.5771 19.8559 51.8163 19.8342 51.7207C19.8017 51.5661 21.7673 50.565 24.3111 50.3994C27.0427 50.2265 29.0481 51.106 29.1565 50.7711C29.254 50.473 27.7148 49.6634 27.5919 49.5971C27.292 49.4389 26.8693 49.2181 26.2586 49.0561C25.8901 48.9604 25.7708 48.9641 25.7672 48.92C25.7491 48.7212 28.5278 47.9889 31.3172 48.1066C34.9377 48.2612 37.0551 49.4794 37.0551 49.4794C37.6513 48.7433 40.8527 44.9269 46.3521 44.4447C50.7567 44.0583 53.9761 46.0493 54.9554 46.7118C55.407 44.2313 56.8885 42.2513 58.771 41.7692C60.2235 41.3938 61.8242 41.9348 62.0555 42.0158C62.8685 42.2991 63.4755 42.6966 63.8693 42.9984C63.8693 42.9984 62.8468 43.0058 61.4737 43.44C61.0654 43.5652 60.509 43.7455 60.5162 43.9553C60.5234 44.1724 61.1413 44.2607 61.7339 44.4631C63.3779 45.0262 64.386 46.5646 64.4475 46.6603C63.8368 46.3622 62.9696 46.0457 61.9001 45.9831C61.5821 45.9647 61.2822 45.9721 61.0076 45.9905C61.3003 46.1929 61.6038 46.4395 61.9001 46.7412C63.3346 48.2097 63.6742 50.0645 63.7682 50.9846L63.7754 50.9883Z" stroke="#231F20" stroke-width="0.30319" stroke-miterlimit="10"/>
<path d="M49.7537 62.9087C49.2153 63.3393 48.2469 63.9907 46.8847 64.3072C46.303 64.4397 44.9986 64.6311 43.5316 64.2631C42.1333 63.9134 41.967 63.4902 40.2291 63.0927C39.398 62.9014 38.5308 62.905 37.6745 62.9087C36.6338 62.9124 35.5824 62.9161 34.549 63.067C32.6122 63.3393 30.8092 64.0459 28.8544 64.0606C27.9583 64.068 26.3504 63.9613 24.5727 63.1295C23.5429 62.6511 22.7263 62.0328 22.1843 61.5617C21.6965 61.1348 21.4255 60.8183 21.4255 60.8183C21.0714 60.4871 20.8257 60.2258 20.4029 60.0271C20.3885 60.0123 20.3777 60.0087 20.3632 60.005C20.2656 59.9498 20.1789 59.913 20.1067 59.9019C19.1094 59.7179 18.1988 59.8725 17.9098 59.9314C17.8809 59.9351 17.8447 59.9461 17.8122 59.9535C17.7219 59.9792 17.6315 60.005 17.5376 60.0307C17.2341 60.1227 16.945 60.2221 16.6776 60.3325L15.3516 58.8935C15.4744 58.6359 15.6262 58.3783 15.7852 58.128C16.9631 57.6864 18.6866 57.2374 20.6812 57.495C23.8753 57.9072 24.0235 59.6554 27.1923 60.741C31.409 62.1837 35.3403 60.5202 39.5931 61.3004C40.6048 61.4845 41.5371 61.7237 41.5371 61.7237C42.7078 62.0843 43.257 62.4928 44.9299 62.8094C46.9751 63.1921 48.6227 63.0486 49.7573 62.905L49.7537 62.9087Z" fill="#E6E7E8"/>
<path d="M42.7327 106.708C47.5312 97.5217 49.0054 86.5803 46.8121 76.4153C46.3786 74.4022 45.7932 72.3891 44.7164 70.6447C43.6397 68.9002 42.0101 67.4355 40.0517 66.9239C37.3959 66.232 34.3608 67.5495 33.013 69.9785L29.1143 81.45L42.7364 106.708H42.7327Z" fill="white"/>
<path d="M63.7754 50.9883C63.7754 50.9883 63.3237 50.4289 62.4421 50.1603C61.8242 49.9689 60.9281 50.2854 60.9281 50.2854C61.8025 50.9331 62.2217 51.6066 62.4421 52.1366C62.7962 52.9941 62.9624 54.2969 62.9624 54.2969C62.4638 53.8737 61.6616 53.34 60.6969 53.3658C59.6346 53.3989 59.1757 54.0503 57.416 55.6144C54.0845 58.5807 53.8244 57.8778 52.137 59.9792C50.9843 61.4182 50.717 62.3309 49.2789 63.2804C48.2346 63.9687 47.2699 64.2189 46.8869 64.3072C45.3548 64.6532 44.1046 64.3882 43.5337 64.2631C41.9475 63.9134 41.8897 63.424 40.2312 63.0927C39.411 62.9308 38.7931 62.9051 37.6766 62.9087C36.636 62.9124 35.5845 62.9161 34.5511 63.067C32.6144 63.3393 30.8114 64.0459 28.8566 64.0607C28.0689 64.068 26.3526 64.0533 24.5748 63.1296C22.3057 61.9519 22.3816 60.5497 20.4051 60.0308C18.8261 59.6186 17.3013 60.1264 16.6762 60.3362C15.5777 60.7042 14.7684 61.2452 14.2589 61.6464H14.1758C14.1758 61.6464 14.1794 61.6464 14.1794 61.6427C14.9201 60.0381 15.6608 58.4298 16.4052 56.8252C17.1351 56.0119 18.2299 54.9814 19.7619 54.1681C21.854 53.0566 23.7546 52.8763 23.7257 52.4163C23.7004 51.9967 22.0058 51.7649 21.836 51.7428C20.6291 51.5808 19.8559 51.8201 19.8342 51.7244C19.8017 51.5698 21.7673 50.5688 24.3111 50.4032C27.0427 50.2302 29.0481 51.1098 29.1565 50.7749C29.254 50.4768 27.7148 49.6671 27.5919 49.6009C27.292 49.4426 26.8693 49.2218 26.2586 49.0599C25.8901 48.9642 25.7708 48.9678 25.7672 48.9237C25.7491 48.7249 28.5278 47.9926 31.3172 48.1103C34.9377 48.2649 37.0551 49.4831 37.0551 49.4831C37.6513 48.747 40.8527 44.9306 46.3521 44.4485C50.7567 44.062 53.9761 46.0531 54.9554 46.7155C55.407 44.235 56.8885 42.255 58.771 41.7729C60.2235 41.3975 61.8242 41.9385 62.0555 42.0195C62.8685 42.3029 63.4755 42.7003 63.8693 43.0021C63.8693 43.0021 62.8468 43.0095 61.4737 43.4437C61.0654 43.5689 60.5162 43.959 60.5162 43.959C60.9859 44.0878 61.5532 44.2976 62.153 44.6362C63.2876 45.2802 64.0247 46.1009 64.4475 46.6603C64.4077 46.6456 64.3644 46.6345 64.3246 46.6198C63.3382 46.2996 62.2361 46.0715 61.0112 45.9905C61.3039 46.1929 61.6074 46.4395 61.9037 46.7413C63.3382 48.2097 63.6778 50.0646 63.7718 50.9846L63.7754 50.9883Z" stroke="#231F20" stroke-width="0.909571" stroke-miterlimit="10"/>
<path d="M61.5897 118.801C55.7253 120.921 47.0137 123.324 36.2533 123.652C29.1785 123.869 22.9528 123.133 17.8761 122.121C15.7876 121.705 13.8979 121.245 12.2177 120.785C13.5799 113.24 14.4977 106.844 15.1119 102.052C17.1968 85.7669 16.7235 80.7838 16.4127 78.3254C15.9213 74.439 15.1517 68.3371 12.5501 63.4203C12.1671 62.6989 10.1726 59.0371 7.01094 53.0713C6.93145 52.9204 6.74355 52.5671 6.66406 52.4163C8.10215 52.0777 9.79678 51.7832 11.7082 51.6508C14.1616 51.4815 16.3224 51.6213 18.0821 51.8605C17.8147 52.7475 17.4497 54.3705 17.7532 56.3578C17.97 57.7747 18.4506 58.8751 18.8336 59.5928C20.0296 59.0334 21.6917 58.4188 23.7405 58.128C27.09 57.6533 29.8361 58.2826 31.4223 58.7831C30.9309 59.7437 30.3889 61.0355 30.0167 62.6253C29.5506 64.6311 29.5326 66.3755 29.6157 67.6195C32.5063 70.6115 36.0293 74.8807 39.1186 80.5741C43.5088 88.6559 45.1745 96.1895 45.8646 101.195C47.2413 99.1153 48.9648 95.9687 49.8031 91.8872C52.1229 80.6329 47.2088 64.9991 47.8014 64.0643C48.2313 63.9098 48.6649 63.7515 49.0949 63.5969C50.1139 65.4076 51.5989 68.1384 53.2683 71.5243C57.055 79.2013 59.0242 83.0251 59.7866 87.8978C60.5057 92.5055 59.7866 93.3777 59.83 100.779C59.8553 105.243 60.1949 111.393 61.5824 118.797L61.5897 118.801Z" fill="#AC9955" stroke="#231F20" stroke-width="0.30319" stroke-miterlimit="10"/>
<path d="M24.8048 66.1032C24.1002 67.1042 23.3956 68.109 22.691 69.11C19.5258 72.3818 18.2575 75.5247 17.6902 77.4348C14.8863 86.8673 20.3026 96.6642 20.5375 97.0801C22.0551 99.7557 24.4326 105.46 24.4326 105.46L25.2528 108.106C24.8228 108.235 24.1508 108.504 23.5148 109.081C23.1643 109.402 21.9828 110.473 22.1779 111.831C22.1996 111.982 22.3261 112.857 23.0126 113.218C23.7172 113.586 24.7434 113.303 25.4046 112.427C25.4479 112.504 26.1417 113.726 27.54 113.8C28.5265 113.851 29.4695 113.306 29.9537 112.401C30.0946 112.519 31.2364 113.443 32.6023 113.06C32.8335 112.997 33.6104 112.78 33.9681 112.088C34.6293 110.808 33.2165 109.115 33.0214 108.89C32.2445 107.985 31.2762 107.624 30.7161 107.473C30.7233 106.649 30.7414 105.821 30.7703 104.982C31.0052 98.0811 31.9013 91.648 33.1984 85.7301" fill="#F36B21"/>
<path d="M24.8048 66.1032C24.1002 67.1042 23.3956 68.109 22.691 69.11C19.5258 72.3818 18.2575 75.5247 17.6902 77.4348C14.8863 86.8673 20.3026 96.6642 20.5375 97.0801C22.0551 99.7557 24.4326 105.46 24.4326 105.46L25.2528 108.106C24.8228 108.235 24.1508 108.504 23.5148 109.081C23.1643 109.402 21.9828 110.473 22.1779 111.831C22.1996 111.982 22.3261 112.857 23.0126 113.218C23.7172 113.586 24.7434 113.303 25.4046 112.427C25.4479 112.504 26.1417 113.726 27.54 113.8C28.5265 113.851 29.4695 113.306 29.9537 112.401C30.0946 112.519 31.2364 113.443 32.6023 113.06C32.8335 112.997 33.6104 112.78 33.9681 112.088C34.6293 110.808 33.2165 109.115 33.0214 108.89C32.2445 107.985 31.2762 107.624 30.7161 107.473C30.7233 106.649 30.7414 105.821 30.7703 104.982C31.0052 98.0811 31.9013 91.648 33.1984 85.7301" stroke="#231F20" stroke-width="0.909571" stroke-miterlimit="10"/>
<path d="M35.8896 17.1077C36.298 17.288 36.9339 17.5309 37.7433 17.6781C38.802 17.8732 39.68 18.0314 40.2653 17.5088C40.4027 17.3837 40.7748 17.001 40.8073 16.1067" stroke="#231F20" stroke-width="0.606381" stroke-miterlimit="10"/>
<path d="M47.5173 20.8321L24.1719 25.392C24.2297 23.2574 24.3959 21.4651 24.5657 20.0997C24.7283 18.7712 24.8909 17.9357 25.4401 17.0488C25.5124 16.931 26.2712 15.7791 27.4022 15.2013C27.4419 15.3816 26.918 16.1839 26.7879 17.5677C26.6506 19.084 27.0697 20.4015 27.5286 21.3842C30.0868 20.626 33.2557 19.9084 36.9232 19.5551C40.9339 19.165 44.4497 19.3195 47.2644 19.6397L47.5137 20.8321H47.5173Z" fill="#AA6B34"/>
<path d="M47.6838 21.8332C47.6838 21.8332 47.6764 21.8372 47.6689 21.8372" stroke="#231F20" stroke-width="0.30319" stroke-miterlimit="10"/>
<path d="M61.0193 35.9065C57.0989 33.9854 50.2337 31.3061 41.4425 31.3466C25.9488 31.4166 15.2896 39.8886 12.0557 42.6782C12.1171 42.5052 12.1713 42.3286 12.2363 42.1593C13.3239 39.0458 14.7259 36.9112 15.8135 35.5311C17.5479 33.334 19.4448 30.9381 21.5405 29.6905C21.8368 29.5175 22.6968 29.0281 23.3508 28.0233C23.47 27.8356 23.5748 27.648 23.6579 27.4639C23.8964 26.9487 24.0084 26.4739 24.0735 26.1243C24.0915 26.0065 24.1024 25.9035 24.1168 25.8152C24.1385 25.6716 24.1566 25.5318 24.171 25.3956C24.1963 25.1932 24.218 25.0018 24.2397 24.8141C24.7022 20.729 24.2433 18.9257 25.4393 17.0524C25.5115 16.9347 26.2703 15.7827 27.4013 15.2049C27.7843 15.0136 28.2034 14.8811 28.6587 14.8774C29.2802 14.8737 29.7174 15.1056 30.1582 15.3227C30.6785 15.5766 35.6866 18.024 37.0054 16.747C37.5908 16.1839 36.8862 15.4368 37.6197 14.4689C38.4218 13.409 40.0984 13.1992 40.7235 13.1182C41.2149 13.0557 41.5798 13.0667 41.663 13.0704C41.9376 13.0777 43.6214 13.1587 44.9041 14.2223C45.6267 14.8185 46.0278 15.5766 46.5156 16.9972C46.7613 17.7149 47.0287 18.5945 47.2708 19.6397C47.3611 20.0151 47.4406 20.4125 47.5201 20.8321C47.5526 21.0014 47.5851 21.1817 47.614 21.3657C47.6393 21.5203 47.6646 21.6749 47.6863 21.8331C47.7622 22.3484 47.8308 22.8857 47.885 23.4524C49.558 24.6448 51.314 26.0176 53.1098 27.6001C56.3365 30.4376 58.9417 33.3009 61.0266 35.9065H61.0193Z" stroke="#231F20" stroke-width="0.30319" stroke-miterlimit="10"/>
<path d="M24.0735 26.1243C24.9117 25.7195 25.9524 25.2521 27.1664 24.7957C37.551 20.8946 47.8164 22.4293 47.8778 23.4524C47.9428 24.516 36.8537 23.3567 25.2731 30.2131C19.116 33.8602 14.9318 38.5158 12.2363 42.1556C13.3239 39.0421 14.7259 36.9075 15.8135 35.5274C17.5479 33.3303 19.4448 30.9344 21.5405 29.6868C21.761 29.5543 22.6787 29.0612 23.3508 28.0196C23.4953 27.7951 23.5965 27.5964 23.6579 27.4602" fill="#AA6B34"/>
<path d="M47.8814 23.4525C46.1145 23.3421 44.0874 23.3053 41.8544 23.412C39.6142 23.515 37.1572 23.7727 34.5411 24.2585C30.216 25.0571 26.5558 26.2716 23.6543 27.464C23.8928 26.9487 24.0048 26.474 24.0698 26.1244C24.0879 26.0066 24.0987 25.9035 24.1132 25.8152C24.1349 25.6717 24.1529 25.5318 24.1674 25.3957C24.1927 25.1932 24.2144 25.0019 24.236 24.8142C26.3534 23.239 28.9261 22.4294 31.4879 21.8552C36.7344 20.6665 42.1579 20.3242 47.5128 20.8321H47.5381L47.6068 21.3658L47.6682 21.8368L47.8778 23.4525H47.8814Z" fill="#3F140F"/>
<path d="M14.4442 68.1752C14.4442 68.1752 11.5969 61.4698 9.80831 57.9146C8.80743 55.9236 7.78848 54.0209 6.76953 52.2139C7.99805 52.0004 8.97725 51.7575 9.671 51.5625C10.4298 51.349 10.867 51.1944 11.3656 51.3748C11.7378 51.5109 12.222 51.8679 12.6194 52.9352C13.7323 55.9493 15.6763 71.8813 15.6763 71.8813L14.4478 68.1716L14.4442 68.1752Z" fill="#CCBF80"/>
<path d="M33.1972 85.7301C33.1502 87.504 32.9623 89.8189 32.3481 94.4156C31.9217 97.6248 31.4448 100.812 31.2027 102.98C30.1404 102.715 28.9227 102.578 27.5858 102.718C27.3437 102.744 26.5885 102.832 25.631 103.112C24.9625 103.307 24.0556 103.642 23.0402 104.227C21.9563 102.608 20.4784 100.131 19.2391 96.8887C17.8516 93.2636 14.9429 85.6602 17.6926 77.4348C18.3394 75.5026 19.6907 72.3597 22.6934 69.11C23.398 66.8282 24.1784 66.1989 24.8035 66.1032C27.7484 65.6505 33.4574 75.9222 33.1972 85.7264V85.7301Z" fill="#AC9955" stroke="#231F20" stroke-width="0.909571" stroke-miterlimit="10"/>
<path d="M30.8486 72.7277C30.8486 77.0741 28.3662 80.2023 25.3311 79.7128C22.3248 79.2307 19.9111 75.3775 19.9111 71.1083C19.9111 66.8392 22.3248 63.7036 25.3311 64.1085C28.3373 64.5133 30.8486 68.3813 30.8486 72.7277Z" fill="#AC9955"/>
<path d="M1.85257 73.3202C1.8598 73.9532 1.8345 74.5421 1.79114 75.0794C0.923954 73.703 -0.32263 72.5768 -1.77156 71.8665C-0.56472 73.9238 0.24827 76.2129 0.602371 78.5793C-0.362375 76.8423 -2.04255 75.5358 -3.93953 75.0463C-3.6324 75.3959 -2.91697 76.3086 -2.71463 77.6924C-2.55564 78.7707 -2.78689 79.6393 -2.93865 80.0846C-3.10486 79.1608 -3.4951 77.7476 -4.5032 76.3749C-4.85369 75.8891 -5.21863 75.4916 -5.56551 75.1714C-6.33875 78.0641 -5.97381 81.2512 -4.56824 83.89C-5.87625 82.2559 -7.29266 80.7213 -8.81024 79.2896C-8.35135 80.2686 -7.87079 81.472 -7.49139 82.8853C-7.0578 84.4862 -6.86629 85.9325 -6.7868 87.1102C-7.70096 86.5692 -9.25829 85.4725 -10.4651 83.522C-11.1011 82.4915 -11.4624 81.5088 -11.6756 80.736C-12.0369 82.2081 -12.3766 84.2249 -12.3332 86.6244C-12.2826 89.2632 -11.7804 91.4382 -11.307 92.9656C-11.9719 91.7216 -12.9222 90.6433 -14.0567 89.8226C-14.1073 89.7784 -14.1651 89.7379 -14.2193 89.7011C-14.2627 88.1223 -14.6493 86.4846 -15.7297 85.3621C-17.1353 83.9047 -19.3141 83.6655 -21.1641 82.8816C-24.7159 81.38 -27.0971 77.4716 -26.9959 73.5852C-26.9887 73.1436 -26.9453 72.713 -26.8731 72.2787C-26.8731 73.6551 -26.0456 74.9248 -24.9797 75.7676C-23.9066 76.6141 -22.6238 77.1036 -21.3556 77.582C-22.8587 76.7466 -23.9571 75.1898 -24.2426 73.4711C-23.3826 74.3323 -22.0963 74.6378 -20.8895 74.5531C-19.6826 74.4648 -18.5264 74.0416 -17.3918 73.6183C-17.7893 73.3865 -18.3096 73.1289 -18.9419 72.9228C-19.6465 72.6983 -20.2788 72.6063 -20.7666 72.5731C-15.773 68.9775 -9.22938 67.6968 -3.28552 69.1652C-1.76433 69.5369 -0.268429 70.0889 1.02151 70.9943C1.27444 71.1746 1.52015 71.3623 1.74417 71.5574C1.79837 72.0947 1.83812 72.6799 1.84534 73.3165L1.85257 73.3202Z" fill="white"/>
<path d="M58.3643 48.8832C58.3462 49.5641 58.2089 51.6471 56.6805 53.5608C55.3797 55.1912 53.7863 55.7874 53.2298 55.9861C52.3048 56.3174 50.5307 56.759 45.6383 55.3789C41.4505 54.1975 37.8119 52.4825 37.9203 52.1734C38.0974 51.6692 47.4919 57.0902 54.144 53.3437C56.3842 52.0814 57.6814 50.1345 58.3679 48.8832H58.3643Z" fill="#E6E7E8"/>
<path d="M49.6445 56.3652C50.7502 56.5271 51.7258 56.4535 52.5785 56.1628C52.5785 56.1628 53.9046 55.8205 54.9741 55.136C56.1629 54.3778 57.7275 52.1218 58.3598 48.8795" stroke="#231F20" stroke-width="0.909571" stroke-miterlimit="10"/>
<path d="M49.5509 59.1658C48.98 60.1264 47.9863 60.66 47.13 60.6269C46.7072 60.6122 46.3206 60.5312 45.9737 60.3987C45.9737 60.3987 45.6196 60.2626 45.2836 60.0454C44.915 59.8099 43.7588 58.6653 42.0967 56.9025C40.9766 55.7137 39.6252 54.2453 38.1221 52.5708C40.5321 53.6785 43.1373 54.6722 45.9376 55.4598C46.812 55.7101 47.7081 55.9382 48.6223 56.1443C48.9945 56.229 49.363 56.3099 49.7352 56.3835C49.7894 56.5197 50.3205 57.8557 49.5509 59.1585V59.1658Z" fill="#6A0C0D" stroke="#231F20" stroke-width="0.30319" stroke-miterlimit="10"/>
<path d="M53.2981 45.2323C53.6305 45.0189 54.0244 44.9379 54.4146 44.8864C56.0225 44.6692 56.9945 44.5331 58.0207 45.0741C58.3639 45.2544 59.3323 45.788 59.4624 46.6971C59.5563 47.3706 59.1552 48.022 58.6205 48.8868C58.4181 49.2107 58.2772 49.4462 58.0423 49.7039C57.8834 49.8805 56.6585 51.2937 55.3179 50.9956C53.9087 50.6828 53.5727 49.0414 52.9946 47.9336C52.5429 47.0614 52.3044 45.8764 53.3017 45.2286L53.2981 45.2323Z" fill="#532410" stroke="#231F20" stroke-width="0.606381" stroke-miterlimit="10"/>
<path d="M17.5881 38.5747C17.4508 38.9538 17.2557 39.5316 17.075 40.2529C16.8293 41.2393 16.7896 41.7803 16.6523 42.5568C16.5728 43.0168 16.3271 44.4006 15.7778 45.7182C15.4671 46.4652 14.8998 47.5657 13.8447 48.7397C14.3759 48.4563 15.1997 47.9337 15.9404 47.0467C17.7435 44.8938 17.1979 42.7997 18.6034 40.6173C19.0623 39.9033 19.8356 39.0127 22.3902 37.6988C31.2283 33.1463 41.4502 32.8114 41.4502 32.8114C49.703 32.5391 55.1049 33.9339 55.1338 33.7388C55.1699 33.5033 47.311 30.6953 37.5262 31.5454C28.0233 32.3698 21.0785 36.2672 17.5917 38.5747H17.5881Z" fill="#DA4D1F"/>
<path d="M61.0194 35.9065C57.0484 33.9817 50.1976 31.343 41.4426 31.3466C26.032 31.3466 15.3222 39.5132 11.9365 42.3359C13.1687 39.1783 14.6609 36.9738 15.8172 35.5311C18.3646 32.3513 19.7737 30.8719 21.5443 29.6905C21.9742 29.4034 23.0076 28.7484 23.6616 27.4639C24.1314 26.5439 24.182 25.7379 24.2434 24.8141C24.63 19.1023 24.8179 18.0645 25.443 17.0524C25.5153 16.9347 26.2741 15.7827 27.405 15.2049C27.788 15.0136 28.2072 14.8811 28.6624 14.8774C29.414 14.87 29.9741 15.2123 30.162 15.3227C31.5133 16.1103 35.8167 17.8989 37.0091 16.747C37.5945 16.1802 36.8899 15.4368 37.6234 14.4689C38.4255 13.409 40.1021 13.1992 40.7272 13.1182C41.2186 13.0557 41.5836 13.0667 41.6667 13.0704C43.0108 13.144 44.1924 13.6739 44.9078 14.2223C46.2519 15.2528 46.6024 16.7543 47.2745 19.6397C47.6358 21.1927 47.802 22.514 47.8887 23.4488C49.5617 24.6412 51.3178 26.0139 53.1136 27.5964C56.3402 30.4339 58.9454 33.2972 61.0303 35.9028L61.0194 35.9065Z" stroke="#231F20" stroke-width="0.909571" stroke-miterlimit="10"/>
<path d="M36.4781 53.4357C36.4601 53.351 36.2758 52.4567 36.9081 51.7391C37.5441 51.0178 38.4365 51.1061 38.5197 51.1171" stroke="#231F20" stroke-width="0.606381" stroke-miterlimit="10"/>
<path d="M49.2467 58.9157C48.6758 59.8762 47.6821 60.4098 46.8258 60.3767C46.403 60.362 46.0164 60.281 45.6695 60.1485C45.5069 60.0823 45.2576 59.9682 44.9794 59.7952C44.1411 59.2763 43.7039 58.6544 43.3209 58.1722C42.9271 57.6791 42.3164 56.9946 41.4131 56.2511C41.6299 56.0708 41.8936 55.8978 42.2116 55.7617C43.6605 55.1434 45.1022 55.8021 45.4816 55.9898C45.6334 55.666 45.9369 55.4452 46.2802 55.4231C46.721 55.3936 47.0065 55.6991 47.0426 55.7396C47.8411 55.8721 48.6397 56.0046 49.4346 56.1371C49.4346 56.1371 50.0199 57.6092 49.2503 58.912L49.2467 58.9157Z" fill="#BE1E2D"/>
<path d="M49.5504 59.1658C48.9795 60.1264 47.9859 60.66 47.1295 60.6269C46.7067 60.6122 46.3201 60.5312 45.9733 60.3987C45.8107 60.3325 45.5613 60.2184 45.2831 60.0454C44.4448 59.5265 44.0076 58.9046 43.6246 58.4224C43.2308 57.9293 42.6201 57.2447 41.7168 56.5013C42.0022 56.2548 42.2805 56.1075 42.5153 56.0119C44.116 55.3715 45.7528 56.4976 45.9913 56.6706C45.9733 56.2437 46.2081 55.8499 46.5803 55.6733C46.9272 55.5113 47.3355 55.5629 47.6426 55.8058C48.34 56.0008 49.0409 56.1922 49.7383 56.3872C49.7383 56.3872 50.3237 57.8594 49.554 59.1622L49.5504 59.1658Z" fill="#F48888"/>
<path d="M49.5509 59.1658C48.98 60.1264 47.9863 60.66 47.13 60.6269C46.7072 60.6122 46.3206 60.5312 45.9737 60.3987C45.9737 60.3987 45.6196 60.2626 45.2836 60.0454C44.915 59.8099 43.7588 58.6653 42.0967 56.9025C40.9766 55.7137 39.6252 54.2453 38.1221 52.5708C40.5321 53.6785 43.1373 54.6722 45.9376 55.4598C46.812 55.7101 47.7081 55.9382 48.6223 56.1443C48.9945 56.229 49.363 56.3099 49.7352 56.3835C49.7894 56.5197 50.3205 57.8557 49.5509 59.1585V59.1658Z" stroke="#231F20" stroke-width="0.909571" stroke-miterlimit="10"/>
<path d="M45.9315 55.9972C46.6758 57.495 46.9901 58.2789 46.8781 58.3489C46.8637 58.3562 46.842 58.3562 46.8131 58.3415C46.6577 57.933 46.4915 57.5245 46.2639 57.1565C46.0362 56.7847 45.7399 56.4498 45.375 56.2217C45.5593 56.1481 45.7472 56.0745 45.9315 56.0008V55.9972Z" fill="#BE1E2D"/>
<path d="M36.5399 39.3145C37.2324 39.3145 37.7938 38.7427 37.7938 38.0374C37.7938 37.3321 37.2324 36.7603 36.5399 36.7603C35.8475 36.7603 35.2861 37.3321 35.2861 38.0374C35.2861 38.7427 35.8475 39.3145 36.5399 39.3145Z" fill="white"/>
<path d="M52.7347 37.4375C53.2316 37.4375 53.6344 37.0272 53.6344 36.5211C53.6344 36.015 53.2316 35.6047 52.7347 35.6047C52.2378 35.6047 51.835 36.015 51.835 36.5211C51.835 37.0272 52.2378 37.4375 52.7347 37.4375Z" fill="white"/>
<path opacity="0.6" d="M55.9893 46.9069C56.9471 46.9069 57.7237 46.6762 57.7237 46.3917C57.7237 46.1071 56.9471 45.8764 55.9893 45.8764C55.0314 45.8764 54.2549 46.1071 54.2549 46.3917C54.2549 46.6762 55.0314 46.9069 55.9893 46.9069Z" fill="#C8591A"/>
<path d="M49.4716 17.5456C49.6486 17.2364 50.3966 15.9594 51.6901 14.5241C53.5474 12.4631 55.6178 11.0941 57.2076 10.2292C56.6223 10.7518 55.8093 11.4952 54.8771 12.4337C53.7642 13.5525 53.2077 14.1119 52.7669 14.7338C51.607 16.3679 51.8166 17.0524 50.8338 18.2743C50.3713 18.8521 49.58 19.6249 48.2178 20.2432C48.4815 19.5145 48.8754 18.5761 49.468 17.5456H49.4716Z" fill="#F58220"/>
<path d="M19.0191 18.6239C20.4824 20.5413 21.6387 22.7053 23.2863 24.4645C20.6306 23.2868 18.3361 21.2847 16.786 18.7932C15.8321 17.2585 15.0625 15.5104 13.4004 14.6492C15.5322 14.5094 17.8411 17.0819 19.0191 18.6276V18.6239Z" fill="#F58220"/>
<path opacity="0.65" d="M56.3469 32.8924C54.5403 31.7588 51.4076 30.1248 47.2089 29.4992C41.7059 28.6784 37.3049 30.0254 35.1875 30.8388C38.1612 30.3199 42.3237 29.9371 47.2089 30.5775C50.8872 31.0559 53.973 31.9833 56.3469 32.896V32.8924Z" fill="#D3A043"/>
<path d="M45.7275 101.997C48.2388 97.4076 49.3047 93.3851 49.8106 90.6838C49.8106 90.6838 51.0391 82.8558 49.4781 73.0258C49.3878 72.4554 48.8314 70.0742 48.3472 66.784C48.1557 65.4959 48.0292 64.436 47.9497 63.7625C48.2568 63.7589 48.6977 63.7957 49.1457 64.0312C49.89 64.4213 50.1863 65.1169 50.797 66.4675C51.881 68.8597 51.8954 68.7751 52.0363 69.1578C52.3326 69.9528 54.7499 77.0336 52.7373 86.6428C51.2414 93.7826 48.0003 98.9791 45.7275 101.997Z" fill="#CCBF80"/>
<path d="M14.8204 104.82C9.82318 106.215 3.79259 107.304 -2.20908 106.892C-3.86758 106.778 -5.74288 106.435 -7.82774 105.383C-11.6831 103.432 -14.328 99.211 -14.4401 94.8241C-14.4617 93.8415 -14.3714 92.8588 -14.2991 91.8762C-14.2449 91.2211 -14.2016 90.566 -14.2124 89.9072C-14.2124 89.8373 -14.2124 89.7711 -14.216 89.7012C-14.2233 89.4141 -14.2413 89.1233 -14.2775 88.8326C-14.422 87.5408 -14.8411 86.2785 -15.7264 85.3621C-15.9396 85.1413 -16.1744 84.9426 -16.4238 84.7733C-17.7896 83.8164 -19.589 83.5441 -21.1608 82.8853C-25.1101 81.2108 -27.6105 76.5662 -26.8662 72.2824C-26.8662 73.6551 -26.0423 74.9248 -24.9728 75.7676C-23.9033 76.6141 -22.6169 77.1036 -21.3487 77.5857C-22.8518 76.7503 -23.9502 75.1935 -24.2357 73.4711C-23.3757 74.3323 -22.0894 74.6378 -20.8862 74.5531C-19.6757 74.4685 -18.5231 74.0453 -17.3885 73.622C-17.786 73.3902 -18.3063 73.1289 -18.9386 72.9264C-19.6432 72.6983 -20.2719 72.6099 -20.7633 72.5768C-15.7734 68.9812 -9.22609 67.7005 -3.28223 69.1689C-1.76103 69.5406 -0.265127 70.0926 1.02482 70.998C1.27775 71.1746 1.51984 71.3623 1.74747 71.5611C5.27404 74.5679 5.88469 79.4994 6.08703 80.9863C6.62541 84.9389 5.62815 86.7422 5.76184 89.6055C5.79797 90.4041 5.70764 91.4566 6.26047 92.5718C7.22522 94.5039 9.25227 95.2363 10.0653 95.527C12.0598 96.2484 14.0616 96.068 15.7092 95.6154" stroke="#231F20" stroke-width="0.909571" stroke-miterlimit="10"/>
<path d="M49.0385 89.6312C48.959 91.9534 48.4857 93.9666 47.8136 95.8214C47.7991 95.8693 47.7811 95.9171 47.763 95.965C45.4866 94.5444 43.8643 92.9398 43.2355 91.0555C41.8155 82.8889 41.335 75.4879 42.4551 69.3934C42.0938 68.7788 41.7324 68.1605 41.3711 67.5422C41.8191 67.2698 42.2925 66.9497 42.7803 66.5853C43.0802 66.3608 43.3584 66.1363 43.6186 65.9155C43.6655 65.8787 43.7125 65.8382 43.7595 65.7977C44.0052 66.0995 44.287 66.4197 44.6194 66.7472C44.9482 67.0748 45.2698 67.3582 45.5697 67.6047C45.3096 68.1899 45.0494 68.7751 44.7893 69.3639C44.6592 75.7308 46.3755 82.5614 49.0385 89.6312Z" fill="#D12029"/>
<path d="M47.8136 95.8214C47.7991 95.8693 47.7811 95.9171 47.763 95.965C45.4866 94.5444 43.8643 92.9398 43.2355 91.0555C41.8155 82.8889 41.335 75.4879 42.4551 69.3934C42.0938 68.7788 41.7324 68.1605 41.3711 67.5422C41.8191 67.2698 42.2925 66.9497 42.7803 66.5853C43.0802 66.3608 43.3584 66.1363 43.6186 65.9155C43.0188 66.4565 42.5021 67.0527 42.1696 67.7483C42.2347 67.958 42.3431 68.2046 42.5273 68.4402C43.2247 69.3198 44.5905 69.2719 44.5905 69.2719C44.5038 69.4964 43.3259 69.6326 43.1019 69.5185C43.1019 69.5185 42.1588 79.0578 42.9176 82.4583C43.4921 86.0356 44.8218 90.7684 47.8136 95.8214Z" fill="#950F16"/>
<path d="M49.0385 89.6312C48.959 91.9534 48.4857 93.9666 47.8136 95.8214C47.7991 95.8693 47.7811 95.9171 47.763 95.9649C47.1271 95.6705 45.9238 95.0081 44.8796 93.6832C43.7812 92.2884 43.4234 90.8714 43.2897 90.1685C42.6213 87.2574 42.0323 83.6323 41.8914 79.4479C41.7613 75.5873 42.0432 72.1867 42.4551 69.3934C42.0938 68.7788 41.7324 68.1605 41.3711 67.5422C41.8191 67.2698 42.2925 66.9497 42.7803 66.5853C43.0802 66.3608 43.3584 66.1363 43.6186 65.9155C43.6655 65.8787 43.7125 65.8382 43.7595 65.7977C44.0052 66.0995 44.287 66.4197 44.6194 66.7472C44.9482 67.0748 45.2698 67.3582 45.5697 67.6047C45.3096 68.1899 45.0494 68.7751 44.7893 69.3639C44.6592 75.7308 46.3755 82.5614 49.0385 89.6312Z" stroke="#231F20" stroke-width="0.909571" stroke-miterlimit="10"/>
<path d="M61.5902 118.801C55.7259 120.921 47.0142 123.324 36.2539 123.652C29.179 123.869 22.9534 123.133 17.8767 122.121C15.7882 121.705 13.8985 121.245 12.2183 120.785C13.8406 113.13 14.6609 106.682 15.1125 102.052C16.482 87.9677 17.4612 76.7171 12.8723 64.4728C10.726 58.7463 8.00157 54.514 6.20215 52.0077C7.90762 51.7391 9.89132 51.5367 12.0954 51.5072C14.3393 51.4778 16.3519 51.636 18.0863 51.8679C17.8405 52.6665 17.5262 54.0429 17.6852 55.7543C17.8478 57.5245 18.4404 58.8567 18.8378 59.6001C20.0338 59.0407 21.6959 58.4261 23.7447 58.1354C27.0942 57.6606 29.8403 58.29 31.4265 58.7905C30.9351 59.751 30.3931 61.0428 30.0209 62.6327C29.5548 64.6384 29.5368 66.3829 29.6199 67.6268C32.5105 70.6189 36.0335 74.888 39.1228 80.5814C43.513 88.6633 45.1787 96.1968 45.8688 101.202C47.2455 99.1226 48.969 95.976 49.8073 91.8946C52.127 80.6403 47.213 65.0065 47.8055 64.0717C48.2355 63.9171 48.6691 63.7589 49.0991 63.6043C50.118 65.415 51.6031 68.1457 53.2724 71.5316C57.0592 79.2087 59.0284 83.0325 59.7908 87.9052C60.5099 92.5129 59.7908 93.3851 59.8342 100.786C59.8595 105.25 60.1991 111.4 61.5866 118.805L61.5902 118.801Z" stroke="#231F20" stroke-width="0.909571" stroke-miterlimit="10"/>
<path d="M45.54 67.5605C45.8436 67.7703 46.1904 67.9875 46.5771 68.1972C47.054 68.4549 47.5057 68.6573 47.914 68.8155C48.0368 68.4475 48.1633 68.0758 48.2898 67.7078" stroke="#231F20" stroke-width="0.909571" stroke-miterlimit="10"/>
<path d="M41.3702 67.5422C40.5609 67.9654 39.7551 68.3923 38.9457 68.8155L31.8926 64.885" stroke="#231F20" stroke-width="0.909571" stroke-miterlimit="10"/>
</g>
</svg>
