<svg width="76" height="56" viewBox="0 0 76 56" fill="none" xmlns="http://www.w3.org/2000/svg">
<g id="Group 180">
<g id="Rectangle 190">
<mask id="path-1-inside-1_955_8570" fill="white">
<path d="M0 26.1334C0 25.1962 0.759759 24.4364 1.69697 24.4364H73.9879C74.9251 24.4364 75.6848 25.1962 75.6848 26.1334V52.6061C75.6848 54.4805 74.1653 56 72.2909 56H3.39394C1.51952 56 0 54.4805 0 52.6061V26.1334Z"/>
</mask>
<path d="M0 26.1334C0 25.1962 0.759759 24.4364 1.69697 24.4364H73.9879C74.9251 24.4364 75.6848 25.1962 75.6848 26.1334V52.6061C75.6848 54.4805 74.1653 56 72.2909 56H3.39394C1.51952 56 0 54.4805 0 52.6061V26.1334Z" fill="#FABA15" stroke="black" stroke-width="4.07273" mask="url(#path-1-inside-1_955_8570)"/>
</g>
<g id="Rectangle 191">
<mask id="path-2-inside-2_955_8570" fill="white">
<path d="M0 11.8788C0 5.3183 5.31832 0 11.8788 0H63.8061C70.3665 0 75.6848 5.31832 75.6848 11.8788V24.4364C75.6848 25.3736 74.9251 26.1333 73.9879 26.1333H1.69697C0.75976 26.1333 0 25.3736 0 24.4364V11.8788Z"/>
</mask>
<path d="M0 11.8788C0 5.3183 5.31832 0 11.8788 0H63.8061C70.3665 0 75.6848 5.31832 75.6848 11.8788V24.4364C75.6848 25.3736 74.9251 26.1333 73.9879 26.1333H1.69697C0.75976 26.1333 0 25.3736 0 24.4364V11.8788Z" fill="#FABA15" stroke="black" stroke-width="4.07273" mask="url(#path-2-inside-2_955_8570)"/>
</g>
<path id="Rectangle 197" d="M10.5209 10.1818C10.5209 5.12089 14.6236 1.01818 19.6845 1.01818H56.6784C61.7394 1.01818 65.8421 5.12088 65.8421 10.1818V19.6848H10.5209V10.1818Z" fill="#F36B21" stroke="black" stroke-width="2.03636"/>
<g id="Subtract">
<mask id="path-4-inside-3_955_8570" fill="white">
<path fill-rule="evenodd" clip-rule="evenodd" d="M46.8366 30.5456H28.8485V49.5517H46.8366V30.5456ZM52.9457 49.5517H66.8603V30.5456H52.9457V49.5517ZM9.50269 30.5456H22.7394V49.5517H9.50269V30.5456Z"/>
</mask>
<path fill-rule="evenodd" clip-rule="evenodd" d="M46.8366 30.5456H28.8485V49.5517H46.8366V30.5456ZM52.9457 49.5517H66.8603V30.5456H52.9457V49.5517ZM9.50269 30.5456H22.7394V49.5517H9.50269V30.5456Z" fill="#F36B21"/>
<path d="M46.8366 30.5456H48.873V28.5092H46.8366V30.5456ZM28.8485 30.5456V28.5092H26.8121V30.5456H28.8485ZM28.8485 49.5517H26.8121V51.588H28.8485V49.5517ZM46.8366 49.5517V51.588H48.873V49.5517H46.8366ZM52.9457 49.5517H50.9093V51.588H52.9457V49.5517ZM66.8603 49.5517V51.588H68.8966V49.5517H66.8603ZM66.8603 30.5456H68.8966V28.5092H66.8603V30.5456ZM52.9457 30.5456V28.5092H50.9093V30.5456H52.9457ZM22.7394 30.5456H24.7758V28.5092H22.7394V30.5456ZM9.50269 30.5456V28.5092H7.46632V30.5456H9.50269ZM22.7394 49.5517V51.588H24.7758V49.5517H22.7394ZM9.50269 49.5517H7.46632V51.588H9.50269V49.5517ZM46.8366 28.5092H28.8485V32.582H46.8366V28.5092ZM26.8121 30.5456V49.5517H30.8848V30.5456H26.8121ZM28.8485 51.588H46.8366V47.5153H28.8485V51.588ZM48.873 49.5517V30.5456H44.8003V49.5517H48.873ZM52.9457 51.588H66.8603V47.5153H52.9457V51.588ZM68.8966 49.5517V30.5456H64.8239V49.5517H68.8966ZM66.8603 28.5092H52.9457V32.582H66.8603V28.5092ZM50.9093 30.5456V49.5517H54.9821V30.5456H50.9093ZM22.7394 28.5092H9.50269V32.582H22.7394V28.5092ZM24.7758 49.5517V30.5456H20.703V49.5517H24.7758ZM9.50269 51.588H22.7394V47.5153H9.50269V51.588ZM7.46632 30.5456V49.5517H11.539V30.5456H7.46632Z" fill="black" mask="url(#path-4-inside-3_955_8570)"/>
</g>
<g id="Group 179">
<rect id="Rectangle 194" x="28.0184" y="13.0182" width="19.9636" height="23.9636" rx="6.27879" fill="#FABA15" stroke="black" stroke-width="2.03636"/>
<path id="Vector" d="M40.6685 27.1604C40.025 27.8033 39.204 28.5748 38.202 29.4768C38.2017 29.477 38.2015 29.4772 38.2012 29.4775L38.0002 29.6575L37.7993 29.4775C37.799 29.4772 37.7987 29.477 37.7985 29.4767C36.7965 28.5748 35.9754 27.8033 35.332 27.1604C34.6933 26.5223 34.2042 25.968 33.8527 25.4953C33.5005 25.0216 33.2871 24.6287 33.1758 24.3132C33.058 23.9789 33.0002 23.6417 33.0002 23.297C33.0002 22.6071 33.2209 22.0824 33.652 21.6516C34.0833 21.2207 34.6089 21 35.3002 21C35.6742 21 36.0245 21.0779 36.3616 21.2355C36.7003 21.3939 36.9904 21.6151 37.2386 21.9068L38.0002 22.8021L38.7619 21.9068C39.0101 21.6151 39.3002 21.3939 39.6389 21.2355C39.976 21.0779 40.3263 21 40.7002 21C41.3915 21 41.9172 21.2207 42.3485 21.6516C42.7796 22.0824 43.0002 22.6071 43.0002 23.297C43.0002 23.6417 42.9425 23.9789 42.8246 24.3132C42.7134 24.6287 42.5 25.0216 42.1478 25.4953C41.7963 25.968 41.3072 26.5223 40.6685 27.1604Z" fill="black" stroke="black" stroke-width="2"/>
</g>
</g>
</svg>
