<svg width="238" height="398" viewBox="0 0 238 398" fill="none" xmlns="http://www.w3.org/2000/svg">
<path d="M230.644 294.499C230.644 294.499 230.563 294.499 230.529 294.499C230.506 294.499 230.495 294.499 230.483 294.51C229.772 294.545 229.118 294.613 228.532 294.693" stroke="#231F20" stroke-width="2" stroke-miterlimit="10"/>
<path d="M230.782 298.141C230.759 298.392 230.713 298.631 230.667 298.881C229.462 304.914 223.747 307.19 223.391 307.327C223.666 307.6 223.919 307.885 224.148 308.181C226.822 311.482 227.155 315.613 225.273 318.231C224.894 318.755 224.458 319.176 223.976 319.529C221.945 320.997 219.294 321.009 218.766 321.009C216.081 321.009 213.82 319.836 212.041 318.391V351.707C148.51 328.544 120.819 312.313 110.25 300.748C110.25 300.748 110.246 300.744 110.238 300.737C108.7 299.041 107.507 297.447 106.635 295.945C106.118 295.057 105.717 294.214 105.407 293.395C104.259 290.379 102.985 287.408 101.688 284.448C99.2326 278.825 96.7079 273.237 94.8144 267.42C94.4242 266.225 94.034 265.098 93.6553 264.028C89.9945 253.955 86.4599 249.185 84.4286 245.759C83.5335 244.257 82.6384 242.823 81.7777 241.468C81.5023 241.058 81.2498 240.648 80.9858 240.25C77.566 234.934 74.8462 230.894 74.8232 228.321C74.8232 227.707 74.961 227.183 75.2938 226.739C76.2577 225.441 77.5431 226.534 82.2711 224.406C85.0254 223.165 87.5386 221.469 89.7764 219.955C89.9371 219.841 90.0748 219.727 90.2125 219.648C90.2355 219.625 90.2469 219.625 90.2584 219.614C90.2699 219.602 90.2814 219.591 90.2928 219.579C90.4076 219.5 90.5109 219.42 90.6256 219.352C90.9929 219.101 91.3142 218.874 91.6011 218.646C91.7273 218.566 91.8306 218.487 91.9339 218.418C92.2438 218.202 92.4618 218.054 92.5307 218.009C92.588 217.975 92.6454 217.929 92.7028 217.883C92.7602 217.849 92.829 217.804 92.8864 217.758C95.1931 216.187 97.9703 214.173 101.069 211.669C102.584 210.451 104.167 209.119 105.82 207.651H105.831C105.969 207.525 106.107 207.4 106.256 207.264C106.623 206.945 106.99 206.603 107.369 206.262C107.392 208.015 107.415 209.756 107.449 211.509C107.495 215.129 107.541 218.76 107.599 222.38C109.492 226.318 112.097 231.178 115.62 236.448C117.319 239.021 119.235 241.673 121.393 244.371C122.047 245.19 122.724 246.021 123.424 246.852C123.424 246.852 123.424 246.863 123.435 246.863C124.135 247.694 124.858 248.525 125.604 249.356C125.983 249.777 126.362 250.198 126.763 250.619C127.923 251.883 129.139 253.135 130.401 254.376C132.1 256.049 133.89 257.711 135.784 259.338C137.482 260.807 139.318 262.298 141.269 263.789C141.613 264.062 141.969 264.324 142.325 264.586C142.933 265.052 143.553 265.519 144.184 265.974C144.207 265.997 144.23 266.009 144.253 266.02C145.24 266.737 146.238 267.454 147.26 268.16C147.81 268.547 148.373 268.934 148.946 269.31C150.507 270.368 152.102 271.404 153.709 272.406C153.743 272.428 153.778 272.451 153.812 272.462C155.419 273.476 157.037 274.432 158.667 275.354C158.701 275.376 158.735 275.399 158.77 275.411C159.229 275.672 159.688 275.934 160.147 276.185H160.159C160.25 276.241 160.342 276.287 160.434 276.333C162.121 277.243 163.808 278.12 165.46 278.916C165.701 279.03 165.954 279.155 166.195 279.269C166.654 279.485 167.124 279.702 167.583 279.907C167.779 279.998 167.985 280.089 168.192 280.18C168.261 280.203 168.329 280.237 168.398 280.282C168.467 280.316 168.536 280.339 168.605 280.373C168.662 280.407 168.731 280.43 168.8 280.453C169.752 280.863 170.705 281.261 171.634 281.625C172.346 281.899 173.046 282.16 173.723 282.399C174.079 282.513 174.412 282.627 174.756 282.741C174.94 282.798 175.112 282.855 175.295 282.9H175.307C177.143 283.481 178.887 283.913 180.528 284.186C180.85 284.243 181.171 284.289 181.492 284.323C183.11 284.539 184.602 284.562 185.945 284.391C186.45 284.323 186.92 284.232 187.379 284.118C187.552 284.073 187.712 284.027 187.873 283.97C187.93 283.959 187.988 283.947 188.045 283.925C188.068 283.913 188.091 283.913 188.114 283.891C188.194 283.868 188.275 283.834 188.355 283.799C188.516 283.754 188.676 283.686 188.825 283.617C188.894 283.572 188.975 283.538 189.043 283.504C189.112 283.469 189.193 283.424 189.262 283.39C189.457 283.287 189.64 283.173 189.824 283.06C190.042 282.912 190.248 282.764 190.444 282.593C190.673 282.399 190.891 282.195 191.086 281.967C191.201 281.853 191.304 281.728 191.396 281.591C191.534 281.421 191.66 281.216 191.786 281.022C191.924 280.794 192.05 280.567 192.176 280.328C192.199 280.294 192.211 280.271 192.222 280.237C192.326 280.02 192.417 279.804 192.509 279.577C192.578 279.394 192.647 279.212 192.704 279.03C192.739 278.905 192.785 278.78 192.808 278.655C192.819 278.643 192.819 278.62 192.819 278.609C193.049 277.767 193.209 276.811 193.29 275.729V275.695C193.611 270.903 192.257 263.573 188.08 252.441C187.781 251.655 187.471 250.836 187.15 250.005C185.36 245.44 183.122 240.284 180.379 234.456C179.714 233.034 179.014 231.565 178.291 230.063C177.843 229.164 177.395 228.242 176.913 227.308C174.94 223.29 172.736 218.999 170.303 214.412C168.984 211.93 167.606 209.369 166.149 206.706C166.092 206.592 166.023 206.49 165.977 206.376C164.037 202.859 161.995 199.182 159.814 195.346C160.136 195.13 160.445 194.914 160.767 194.697H160.778C161.65 194.094 162.511 193.502 163.383 192.91C163.475 192.842 163.578 192.785 163.67 192.717C163.991 192.785 164.324 192.865 164.657 192.944C166.631 193.4 168.903 194.049 171.405 194.948C174.366 196.029 177.625 197.475 180.976 199.444C181.309 199.637 181.642 199.854 182.009 200.07H182.02C182.422 200.332 182.858 200.605 183.306 200.901C186.714 203.177 191.327 206.934 197.318 214.127C197.341 214.15 197.352 214.161 197.364 214.184C198.58 215.653 199.865 217.269 201.197 219.044C201.38 219.284 201.575 219.534 201.759 219.784C202.046 220.183 202.356 220.581 202.665 221.014C202.688 221.036 202.711 221.071 202.734 221.093C202.78 221.162 202.838 221.23 202.883 221.31C205.466 224.793 208.679 229.3 212.018 234.969V272.622C212.328 272.383 212.65 272.167 212.982 271.95C214.004 271.29 221.188 266.817 226.294 269.184C226.432 269.731 226.57 270.266 226.708 270.801C226.822 271.279 226.937 271.757 227.052 272.223C227.97 276.173 228.67 279.941 229.198 283.606C227.993 285.814 226.478 287.214 226.157 287.499C228.199 289.024 229.634 291.118 230.357 293.418C230.391 293.782 230.426 294.146 230.46 294.51C230.564 295.728 230.667 296.935 230.759 298.141H230.782Z" fill="#AC9955"/>
<path d="M223.976 319.529C221.945 320.997 219.294 321.009 218.766 321.009C216.081 321.009 213.82 319.836 212.041 318.391V338.333C208.415 337.081 204.307 335.248 199.842 332.915C196.078 330.957 192.062 328.635 187.884 325.994C183.948 323.513 179.874 320.758 175.72 317.753C173.505 316.16 171.267 314.498 169.029 312.779C168.157 312.108 167.297 311.425 166.424 310.73C163.567 308.488 160.698 306.132 157.84 303.696C157.565 303.457 157.278 303.218 157.003 302.979C153.893 300.304 150.806 297.527 147.753 294.67C147.719 294.647 147.684 294.624 147.65 294.579C142.268 289.514 137.012 284.187 132.065 278.677C131.641 278.199 131.205 277.71 130.78 277.232C125.272 271.006 119.889 260.83 114.737 248.673C114.45 248.036 114.174 247.387 113.899 246.727C110.95 239.635 108.069 231.93 105.269 223.973C104.064 220.536 102.871 217.064 101.7 213.57C101.482 212.921 101.275 212.283 101.069 211.669C101 211.452 100.931 211.236 100.862 211.031C100.736 210.644 100.61 210.257 100.495 209.882C99.1638 205.773 98.1195 202.221 97.3162 199.444C97.2359 199.159 97.167 198.898 97.0867 198.636C97.0637 198.556 97.0522 198.488 97.0293 198.42C97.2359 198.237 97.4424 198.055 97.6605 197.873C97.9129 197.645 98.1654 197.429 98.4294 197.224C100.277 195.654 102.159 194.219 104.053 192.899C104.156 192.819 104.271 192.74 104.374 192.683C107.472 190.531 110.617 188.699 113.773 187.185C113.922 187.094 114.083 187.026 114.232 186.957C115.104 186.536 115.976 186.138 116.86 185.762C117.996 185.284 119.132 184.84 120.268 184.442C128.519 181.46 136.61 180.492 143.725 181.346C144.356 181.414 144.964 181.505 145.573 181.608C145.722 181.63 145.871 181.653 146.009 181.687C147.03 181.858 148.017 182.074 148.981 182.347C149.015 182.347 149.05 182.359 149.084 182.37C149.291 182.416 149.486 182.473 149.681 182.53C153.216 183.543 156.394 185.079 159.091 187.094C159.826 187.64 160.526 188.232 161.191 188.847C161.685 189.302 162.144 189.78 162.591 190.27C162.614 190.304 162.649 190.327 162.683 190.361C162.706 190.395 162.741 190.44 162.764 190.475C163.475 191.271 164.106 192.091 164.68 192.945C165.162 193.639 165.598 194.345 166 195.062C166.252 195.517 166.493 195.984 166.711 196.45C166.964 196.951 167.193 197.463 167.4 197.976C169.167 202.198 169.902 206.558 170.177 210.166C170.189 210.235 170.189 210.303 170.189 210.36C170.246 211.043 170.28 211.68 170.292 212.295V212.363C170.326 213.103 170.326 213.786 170.326 214.412C167.274 215.345 163.923 215.368 160.87 214.457C165.449 219.591 170.912 223.95 176.936 227.308C177.327 227.513 177.705 227.729 178.095 227.934C178.118 227.946 178.141 227.957 178.153 227.968C178.968 228.39 179.782 228.799 180.609 229.186C180.104 229.425 179.599 229.642 179.071 229.824C179.048 229.824 179.025 229.824 179.002 229.847C178.773 229.926 178.543 229.995 178.314 230.063C176.672 230.529 174.974 230.712 173.276 230.598C175.445 231.588 177.866 232.84 180.402 234.456C180.746 234.661 181.091 234.889 181.446 235.128C181.55 235.196 181.653 235.265 181.756 235.344C182.537 235.845 183.317 236.403 184.109 236.995C189.858 241.309 193.921 245.987 196.675 249.811C197.088 250.392 197.478 250.961 197.834 251.496C197.696 251.371 197.329 251.052 196.778 250.676C195.482 249.823 193.118 248.662 190.203 249.037C189.457 249.14 188.78 249.322 188.183 249.561C187.976 249.618 187.77 249.709 187.586 249.8C187.437 249.857 187.299 249.925 187.173 250.005C186.358 250.415 185.761 250.881 185.394 251.189C186.312 251.576 187.219 251.985 188.103 252.441C188.298 252.543 188.481 252.634 188.676 252.737C188.998 252.907 189.319 253.078 189.629 253.26C192.452 254.842 195.091 256.778 197.478 258.974C199.108 260.477 200.623 262.105 202.011 263.846C204.571 267.067 206.648 270.653 208.14 274.489C205.798 272.895 203.32 271.495 200.749 270.311C199.751 269.845 198.741 269.412 197.708 269.025C197.088 268.786 196.468 268.558 195.837 268.342C196.434 269.071 197.042 269.845 197.685 270.664C198.454 271.654 199.257 272.713 200.083 273.828C201.702 276.014 203.389 278.427 205.121 281.056C207.394 284.528 209.735 288.398 212.041 292.644C214.486 297.163 216.873 302.114 219.099 307.509C220.981 312.062 222.622 316.057 223.976 319.529Z" fill="#E6E7E8" stroke="#231F20" stroke-width="2" stroke-miterlimit="10"/>
<path d="M188.194 328.055C181.492 283.185 173.436 249.527 167.251 234.798C165.46 230.529 161.846 224.121 155.373 218.168C150.324 213.535 143.714 210.257 136.828 210.337C127.509 210.439 118.684 217.303 116.355 226.261L113.463 266.361C138.377 286.93 163.292 307.486 188.194 328.055Z" fill="white"/>
<path d="M185.98 275.126C187.724 282.627 187.908 289.479 187.311 296.002C187.311 296.172 187.288 296.332 187.265 296.502C178.555 293.941 171.841 290.231 168.146 284.756C156.418 259.874 148.442 236.619 146.858 216.153C145.137 214.503 143.415 212.841 141.694 211.179C142.933 209.916 144.207 208.482 145.492 206.888C146.284 205.909 147.007 204.942 147.661 204.008C147.788 203.849 147.902 203.678 148.017 203.507C149.084 204.259 150.289 205.033 151.666 205.795C153.032 206.558 154.329 207.184 155.534 207.708C155.19 209.802 154.834 211.908 154.49 214.013C159.562 234.491 171.107 254.842 185.968 275.126H185.98Z" fill="#D12029"/>
<path d="M187.311 295.99C187.311 296.161 187.288 296.32 187.265 296.491C178.555 293.93 171.841 290.219 168.146 284.744C156.418 259.862 148.442 236.608 146.858 216.142C145.137 214.492 143.415 212.83 141.694 211.168C142.933 209.904 144.207 208.47 145.492 206.877C146.284 205.898 147.007 204.93 147.661 203.997C146.158 206.251 144.976 208.607 144.483 211.122C144.873 211.737 145.446 212.431 146.261 213.023C149.302 215.22 153.755 213.877 153.755 213.877C153.663 214.674 149.911 216.131 149.073 215.971C149.073 215.971 154.226 247.307 159.654 257.529C164.634 268.467 173.092 282.445 187.288 296.002L187.311 295.99Z" fill="#950F16"/>
<path d="M185.98 275.126C187.724 282.627 187.908 289.479 187.311 296.002C187.311 296.172 187.288 296.332 187.265 296.502C184.912 296.115 180.402 295.057 175.823 291.722C171.015 288.216 168.605 284.004 167.561 281.864C162.844 273.134 157.772 262.059 153.698 248.798C149.934 236.562 147.925 225.441 146.858 216.153C145.137 214.503 143.415 212.841 141.694 211.179C142.933 209.916 144.207 208.482 145.492 206.888C146.284 205.909 147.007 204.942 147.661 204.008C147.788 203.849 147.902 203.678 148.017 203.507C149.084 204.259 150.289 205.033 151.666 205.795C153.032 206.558 154.329 207.184 155.534 207.708C155.19 209.802 154.834 211.908 154.49 214.013C159.562 234.491 171.107 254.842 185.968 275.126H185.98Z" stroke="#231F20" stroke-width="2" stroke-miterlimit="10"/>
<path d="M230.782 298.141C230.759 298.392 230.713 298.631 230.667 298.881C229.462 304.914 223.747 307.19 223.391 307.327C223.667 307.6 223.919 307.885 224.149 308.181C226.823 311.482 227.155 315.613 225.273 318.231C224.895 318.755 224.458 319.176 223.976 319.529C221.945 320.997 219.294 321.009 218.766 321.009C216.081 321.009 213.82 319.836 212.041 318.391V352.629C200.061 348.771 185.796 343.569 170.143 336.614C168.467 335.863 166.826 335.134 165.22 334.429C164.531 334.121 163.854 333.825 163.188 333.518C142.715 324.469 128.875 318.357 119.27 310.992C119.155 310.901 119.052 310.821 118.937 310.73C114.943 307.623 111.684 304.288 109.01 300.395C108.655 299.883 108.322 299.382 108.012 298.893C104.477 293.418 103.135 289.263 101.689 284.448C101.149 282.65 100.598 280.783 99.9098 278.711C99.8984 278.711 99.9098 278.7 99.9098 278.7C99.8869 278.632 99.8639 278.552 99.8295 278.484C98.5212 274.557 96.7195 269.97 93.6554 264.028C92.3127 261.433 90.7405 258.587 88.8585 255.434C86.5174 251.507 83.6828 247.136 81.0319 242.925C81.0319 242.925 81.0319 242.925 81.0204 242.902C81.0204 242.902 81.0204 242.895 81.0204 242.879C80.8024 242.527 80.5958 242.185 80.3777 241.844C80.2745 241.673 80.1597 241.502 80.0564 241.331C80.0335 241.297 80.0105 241.263 79.999 241.229C78.9088 239.522 77.876 237.86 76.9464 236.312C76.9464 236.289 76.935 236.278 76.912 236.255C73.6069 230.848 71.415 226.705 72.2413 226.011H72.2528C72.2528 226.011 72.2757 225.988 72.3101 225.988C72.5397 225.863 72.838 226.056 73.4807 226.307C73.5495 226.341 73.6299 226.363 73.7102 226.386C73.7561 226.409 73.7905 226.42 73.8364 226.432C74.0315 226.5 74.2381 226.557 74.4791 226.602C74.6283 226.637 74.8004 226.671 74.9726 226.694C75.0759 226.716 75.1791 226.728 75.2939 226.739C79.9187 227.308 84.0386 224.36 84.8189 223.745C85.2206 223.427 87.0568 221.958 89.7766 219.955C89.9372 219.841 90.0749 219.727 90.2126 219.648C90.2356 219.625 90.2471 219.625 90.2586 219.614C90.27 219.602 90.2815 219.591 90.293 219.579C90.4077 219.5 90.511 219.42 90.6258 219.352C90.993 219.079 91.3258 218.84 91.6012 218.646C91.7275 218.566 91.8308 218.487 91.934 218.418C92.2439 218.202 92.4619 218.054 92.5308 218.009C92.5882 217.975 92.6456 217.929 92.7029 217.883C92.7603 217.849 92.8292 217.804 92.8866 217.758C94.2981 216.745 96.6851 214.787 100.862 211.031C102.262 209.768 103.869 208.311 105.705 206.615C105.854 206.478 106.004 206.33 106.153 206.194H106.164C106.164 206.364 106.199 206.558 106.21 206.74C106.233 206.911 106.245 207.093 106.256 207.264C106.325 208.026 106.394 208.789 106.463 209.552C106.83 213.831 107.22 218.111 107.599 222.38C109.492 226.318 112.097 231.178 115.62 236.448C117.319 239.021 119.235 241.673 121.393 244.371C122.047 245.19 122.724 246.021 123.424 246.852C123.424 246.852 123.424 246.863 123.436 246.863C124.136 247.694 124.859 248.525 125.605 249.356C125.983 249.777 126.362 250.198 126.764 250.619C127.923 251.883 129.139 253.135 130.401 254.376C132.1 256.049 133.89 257.711 135.784 259.338C137.482 260.807 139.318 262.298 141.269 263.789C141.613 264.062 141.969 264.324 142.325 264.586C142.933 265.052 143.553 265.519 144.184 265.974C144.207 265.997 144.23 266.009 144.253 266.02C145.24 266.737 146.238 267.454 147.26 268.16C147.811 268.547 148.373 268.934 148.947 269.31C150.507 270.368 152.103 271.404 153.709 272.406C153.744 272.428 153.778 272.451 153.812 272.462C155.419 273.476 157.037 274.432 158.667 275.354C158.701 275.376 158.736 275.399 158.77 275.411C159.229 275.672 159.688 275.934 160.147 276.185H160.159C160.25 276.241 160.342 276.287 160.434 276.333C162.121 277.243 163.808 278.12 165.461 278.916C165.702 279.03 165.954 279.155 166.195 279.269C166.654 279.485 167.125 279.702 167.584 279.907C167.779 279.998 167.985 280.089 168.192 280.18C168.261 280.203 168.33 280.237 168.398 280.282C168.467 280.316 168.536 280.339 168.605 280.373C168.662 280.407 168.731 280.43 168.8 280.453C169.753 280.863 170.705 281.261 171.635 281.625C172.346 281.899 173.046 282.16 173.723 282.399C174.079 282.525 174.412 282.638 174.756 282.741C174.94 282.798 175.112 282.855 175.295 282.9H175.307C177.143 283.481 178.887 283.913 180.528 284.186C180.85 284.243 181.171 284.289 181.492 284.323C183.111 284.539 184.602 284.562 185.945 284.391C186.45 284.323 186.921 284.232 187.38 284.118C187.552 284.073 187.712 284.027 187.873 283.97C187.93 283.959 187.988 283.947 188.045 283.925C188.068 283.913 188.091 283.913 188.114 283.891C188.194 283.868 188.275 283.834 188.355 283.799C188.516 283.754 188.676 283.686 188.826 283.617C188.894 283.583 188.975 283.538 189.044 283.504C189.112 283.469 189.193 283.424 189.262 283.39C189.457 283.287 189.64 283.173 189.824 283.06C190.042 282.912 190.249 282.764 190.444 282.593C190.673 282.399 190.891 282.195 191.086 281.967C191.201 281.853 191.304 281.728 191.396 281.591C191.534 281.421 191.66 281.216 191.786 281.022C191.924 280.794 192.05 280.567 192.177 280.328C192.2 280.294 192.211 280.271 192.222 280.237C192.326 280.02 192.418 279.804 192.509 279.577C192.578 279.394 192.647 279.212 192.704 279.03C192.739 278.905 192.785 278.78 192.808 278.655C192.819 278.643 192.819 278.62 192.819 278.609C193.049 277.767 193.209 276.811 193.29 275.729V275.695C193.611 270.903 192.257 263.573 188.08 252.441C187.781 251.655 187.471 250.836 187.15 250.005C185.36 245.44 183.122 240.284 180.379 234.456C179.714 233.034 179.014 231.565 178.291 230.063C177.843 229.164 177.396 228.242 176.914 227.308C174.94 223.29 172.736 218.999 170.303 214.412C168.984 211.93 167.607 209.369 166.149 206.706C166.092 206.592 166.023 206.49 165.977 206.376C164.038 202.859 161.995 199.182 159.814 195.346C160.136 195.13 160.446 194.914 160.767 194.697H160.778C161.651 194.094 162.511 193.502 163.383 192.91C163.475 192.842 163.578 192.785 163.67 192.717C163.992 192.785 164.324 192.865 164.657 192.944C166.631 193.4 168.903 194.049 171.405 194.948C174.366 196.029 177.625 197.475 180.976 199.444C181.309 199.637 181.642 199.854 182.009 200.07H182.02C182.422 200.332 182.858 200.605 183.306 200.901C186.714 203.177 191.327 206.934 197.318 214.127C197.341 214.15 197.352 214.161 197.364 214.184C198.58 215.653 199.865 217.269 201.197 219.044C201.38 219.284 201.575 219.534 201.759 219.784C202.046 220.183 202.356 220.581 202.666 221.014C202.689 221.036 202.712 221.071 202.734 221.093C202.78 221.162 202.838 221.23 202.884 221.31C205.466 224.793 208.679 229.3 212.019 234.969V272.622C212.328 272.383 212.65 272.167 212.982 271.95C214.004 271.29 221.188 266.817 226.295 269.184C226.432 269.731 226.57 270.266 226.708 270.801C226.823 271.279 226.937 271.757 227.052 272.223C227.97 276.173 228.67 279.941 229.198 283.606C227.993 285.814 226.478 287.214 226.157 287.499C228.2 289.024 229.634 291.118 230.357 293.418C230.392 293.782 230.426 294.146 230.46 294.51C230.564 295.728 230.667 296.935 230.759 298.141H230.782Z" fill="#AC9955"/>
<path d="M141.705 211.168C139.421 213.228 137.126 215.3 134.842 217.36C125.616 215.391 116.401 213.422 107.174 211.452" stroke="#231F20" stroke-width="2" stroke-miterlimit="10"/>
<path d="M233.421 209.643C231.757 212.181 227.981 212.477 227.339 212.522C221.52 212.966 217.182 208.231 215.897 206.831C213.556 204.281 212.546 201.664 212.076 200.002H212.041V247.489C210.377 246.032 208.69 244.519 207.015 242.936C206.613 242.561 206.211 242.174 205.821 241.798C199.98 236.209 194.954 230.7 190.639 225.498C190.202 224.986 189.778 224.474 189.365 223.962C189.089 223.802 188.802 223.643 188.527 223.472C183.317 220.342 176.913 216.005 170.177 210.166C169.569 209.643 168.96 209.108 168.352 208.55C168.318 208.527 168.283 208.493 168.249 208.459C167.503 207.787 166.757 207.093 166 206.376C162.821 203.382 159.608 200.036 156.44 196.325C156.417 196.291 156.383 196.257 156.36 196.223C152.963 192.262 150.025 188.312 147.455 184.499C147.351 184.351 147.259 184.203 147.156 184.055C147.122 184.009 147.087 183.952 147.053 183.907C146.548 183.133 146.054 182.37 145.572 181.608C145.366 181.3 145.171 180.982 144.976 180.674C143.702 178.625 142.543 176.633 141.476 174.698C141.464 174.676 141.453 174.664 141.441 174.641C141.349 174.471 141.257 174.3 141.166 174.129C141.166 174.129 141.166 174.118 141.154 174.118C141.154 174.106 141.143 174.084 141.131 174.072C141.12 174.05 141.108 174.027 141.097 174.004C140.351 172.627 139.651 171.284 139.008 169.986C138.733 169.428 138.457 168.871 138.205 168.324C137.298 166.423 136.483 164.625 135.772 162.952C141.648 161.392 148.361 160.004 155.843 159.15C155.843 159.15 155.843 159.161 155.855 159.15C158.506 158.831 161.26 158.592 164.106 158.433H164.118C164.485 158.41 164.841 158.399 165.208 158.376C166.401 158.319 167.618 158.273 168.846 158.251C173.838 158.148 178.531 158.308 182.904 158.66C183.248 160.448 183.764 162.587 184.579 164.909C185.899 168.757 188.022 173.093 191.465 177.157C192.096 177.897 192.727 178.591 193.37 179.229C194.162 180.014 194.954 180.731 195.768 181.391C196.078 181.653 196.388 181.904 196.698 182.143C197.731 182.928 198.786 183.622 199.854 184.26C203.124 186.229 206.556 187.561 210.021 188.756C210.687 188.995 211.364 189.222 212.041 189.45C216.953 191.089 221.922 192.66 226.627 195.54C227.947 196.348 229.301 197.293 230.678 198.419C231.126 198.772 231.562 199.148 232.009 199.546C231.218 200.059 230.621 200.32 230.518 200.366C234.121 203.075 235.131 207.047 233.421 209.643Z" fill="#AC9955" stroke="#231F20" stroke-width="2" stroke-miterlimit="10"/>
<path d="M206.281 235.834C208.186 237.382 210.102 238.93 212.042 240.489V247.489C210.378 246.032 208.691 244.519 207.015 242.936C206.613 242.561 206.212 242.174 205.822 241.798C199.98 236.209 194.954 230.7 190.639 225.498C190.203 224.986 189.778 224.474 189.365 223.962C189.09 223.802 188.803 223.643 188.527 223.472C183.329 220.433 176.914 216.176 170.189 210.36C169.638 209.87 169.076 209.381 168.525 208.869H168.513C168.513 208.869 168.444 208.812 168.41 208.766C167.664 208.106 166.918 207.412 166.172 206.706C162.924 203.633 159.654 200.184 156.441 196.325C156.418 196.291 156.383 196.257 156.36 196.223C153.009 192.182 150.129 188.175 147.661 184.339C147.57 184.191 147.466 184.032 147.375 183.884C147.352 183.839 147.317 183.793 147.294 183.747C146.847 183.053 146.422 182.37 146.009 181.687C145.768 181.289 145.527 180.89 145.309 180.492C144.081 178.432 142.991 176.429 141.992 174.516C141.992 174.516 141.988 174.509 141.981 174.494C141.889 174.311 141.797 174.129 141.717 173.959H141.705C141.705 173.959 141.682 173.902 141.682 173.89L141.659 173.867C140.65 171.864 139.743 169.952 138.951 168.153C141.086 167.926 147.432 169.121 147.432 169.121C147.857 169.849 148.281 170.567 148.706 171.272C148.729 171.306 148.752 171.341 148.775 171.386C148.798 171.42 148.82 171.466 148.843 171.5C148.912 171.625 148.993 171.75 149.061 171.864C149.463 172.524 149.853 173.162 150.255 173.799C150.622 174.402 150.989 174.994 151.368 175.586C151.621 175.996 151.873 176.394 152.137 176.793C152.286 177.043 152.447 177.305 152.619 177.555C152.653 177.612 152.688 177.658 152.722 177.715C152.814 177.874 152.906 178.011 153.009 178.159C155.109 181.414 157.164 184.396 159.091 187.094C160.078 188.483 161.042 189.792 161.96 191.021C161.983 191.044 162.006 191.066 162.006 191.089C162.041 191.123 162.064 191.157 162.087 191.192C162.534 191.784 162.97 192.353 163.406 192.91C164.003 193.707 164.6 194.47 165.162 195.187C165.908 196.132 166.643 197.065 167.4 197.976C174.217 206.387 180.965 213.456 187.804 219.864C193.852 225.533 199.969 230.689 206.281 235.834Z" fill="#8D7F45"/>
<path d="M230.529 294.499C230.506 294.226 230.483 293.953 230.449 293.691L230.38 293.418C229.657 291.118 228.223 289.024 226.18 287.499C226.501 287.214 228.016 285.814 229.221 283.606C229.232 283.583 229.255 283.549 229.267 283.526C228.739 279.895 228.039 276.185 227.075 272.223C226.96 271.757 226.845 271.279 226.731 270.801C226.593 270.266 226.455 269.731 226.318 269.184C221.211 266.817 214.027 271.29 213.005 271.95C212.673 272.167 212.351 272.383 212.041 272.622V234.525C208.438 228.219 203.607 220.957 197.387 214.184C197.375 214.161 197.364 214.15 197.341 214.127C197.169 213.945 197.008 213.763 196.836 213.581C196.698 213.444 196.859 213.604 185.096 202.551C184.442 201.937 183.868 201.39 183.329 200.901C182.56 200.184 181.883 199.569 181.251 199.045H181.24C180.815 198.681 180.402 198.363 180.001 198.078C179.094 197.429 178.199 196.906 177.143 196.439C175.192 195.585 173.241 195.13 171.428 194.948C169.397 194.743 167.538 194.857 166 195.062C165.713 195.096 165.426 195.141 165.162 195.187C165.656 195.585 166.172 196.006 166.711 196.45C168.387 197.828 170.234 199.455 172.208 201.322C174.813 203.781 177.614 206.672 180.471 210.007C180.471 210.007 183.202 213.217 185.555 216.415C186.358 217.508 187.116 218.669 187.804 219.864C188.86 221.651 189.801 223.541 190.639 225.498C193.932 233.159 195.723 241.923 196.675 249.811C196.71 250.096 196.744 250.392 196.778 250.676C197.111 253.602 197.341 256.402 197.478 258.974C197.708 263.049 197.742 266.532 197.708 269.025C197.708 269.628 197.696 270.186 197.685 270.664C197.651 272.235 197.593 273.123 197.593 273.123C197.444 275.581 197.249 277.755 197.031 279.679C195.401 293.873 192.119 295.045 192.555 306.337C192.567 306.656 192.578 306.974 192.613 307.282C192.727 309.592 192.991 311.846 193.37 314.043V314.066C194.564 320.963 196.916 327.281 199.842 332.915C203.434 339.904 207.887 345.857 212.041 350.672V318.391C213.82 319.836 216.081 321.009 218.766 321.009C219.294 321.009 221.945 320.997 223.976 319.529C224.458 319.176 224.894 318.755 225.273 318.231C227.155 315.614 226.822 311.482 224.149 308.181C223.919 307.885 223.667 307.6 223.391 307.327C223.747 307.19 229.462 304.914 230.667 298.881C230.713 298.631 230.759 298.392 230.782 298.141L230.816 297.834L230.529 294.499Z" fill="#8D7F45"/>
<path d="M193.37 314.066C192.383 309.592 191.213 302.774 191.247 294.431C191.282 285.348 192.716 280.089 193.313 275.695C195.149 262.321 187.999 247.649 173.631 218.862C170.487 212.557 165.931 203.747 160.044 193.332C163.51 189.678 166.964 186.035 170.43 182.382C171.497 184.328 172.989 186.957 174.917 189.974C180.551 198.807 185.911 204.851 187.873 206.991C195.872 215.732 198.351 215.505 201.771 219.762C211.41 231.736 203.848 248.514 195.906 297.299C194.701 304.698 193.841 310.662 193.37 314.043V314.066Z" fill="#CCBF80"/>
<path d="M155.419 207.582C156.601 207.992 157.921 208.379 159.378 208.709C161.168 209.119 162.821 209.369 164.301 209.517C164.382 208.231 164.485 206.934 164.577 205.647" stroke="#231F20" stroke-width="2" stroke-miterlimit="10"/>
<path d="M197.49 97.4796C198.787 108.031 151.999 121.633 110.514 133.687C69.1199 145.719 26.326 158.16 21.8274 149.042C17.1108 139.492 53.8339 105.015 98.9115 91.4469C145.102 77.5375 196.17 86.7687 197.49 97.4682V97.4796Z" fill="#C25E2A" stroke="#231F20" stroke-width="2" stroke-miterlimit="10"/>
<path d="M179.748 83.593C179.541 84.1507 179.312 84.6971 179.071 85.2434L38.146 144.33C37.4 142.179 36.218 139.435 34.3474 136.544C32.6145 133.869 30.7899 131.798 29.2291 130.295C23.8699 125.663 8.7675 111.4 3.19018 87.2354C-2.08877 64.4135 4.17711 46.0194 6.83953 39.3379C13.5071 41.364 21.414 44.4259 29.7341 49.1154C45.5021 57.9824 56.1173 68.8868 62.6127 76.8318C68.7638 73.1439 79.666 62.9224 92.1289 60.1451C103.823 57.5499 124.067 54.2262 131.009 54.8408C133.385 33.032 146.904 12.7256 166.16 1.96918C166.47 1.78706 166.78 1.60494 167.113 1.4342C185.704 23.9032 190.684 56.6165 179.748 83.593Z" fill="#F36B21" stroke="#231F20" stroke-width="2" stroke-miterlimit="10"/>
<path d="M178.784 83.7751C178.486 83.5019 178.05 83.1263 177.545 82.6482C175.215 80.4628 174.963 79.9392 174.963 79.5863C174.951 78.6871 175.502 77.879 175.95 77.0822C176.523 76.0692 177.246 73.8723 178.497 69.3421C179.209 66.7583 181.102 57.3108 179.083 43.925C177.751 35.1377 175.272 28.1603 172.599 20.6934C172.048 19.1567 169.959 14.2509 167.951 7.3417C167.423 5.54327 167.033 4.05217 166.78 3.06189C171.371 8.93525 180.517 22.2869 183.432 41.8079C186.358 61.3744 181.47 76.8204 178.796 83.7637L178.784 83.7751Z" fill="#DA4D1F"/>
<path d="M195.206 128.19C195.378 123.022 196.606 116.147 201.357 110.41C201.771 109.921 202.184 109.443 202.62 109.01C199.843 109.192 195.723 109.135 191.132 107.678C182.261 104.867 178.394 98.9365 168.903 88.6809C160.595 79.6888 154.754 72.9503 146.847 68.1242C136.599 61.8638 126.947 59.371 120.831 58.2897C114.576 57.8799 104.454 58.0507 92.99 62.0573C85.4158 64.7094 79.5401 68.2494 75.3858 71.2202C69.315 75.7504 61.0638 83.0011 53.6389 93.7347C48.9567 100.507 41.2448 112.038 38.6283 128.781C37.7217 134.552 38.1808 140.278 37.848 146.071C37.4348 153.425 34.0379 161.529 29.0688 167.015C31.8001 166.401 34.1986 164.83 36.5167 163.293C32.0067 170.407 29.7345 178.899 30.1132 187.31C31.7542 182.507 35.1511 178.307 39.5005 175.632C40.9694 183.668 38.4103 192.33 32.7985 198.328C35.8511 196.621 38.9267 194.891 41.9908 193.149C48.5321 189.439 55.0045 185.717 61.3966 181.983" fill="#F36B21"/>
<path d="M195.206 128.19C195.378 123.022 196.606 116.147 201.357 110.41C201.771 109.921 202.184 109.443 202.62 109.01C199.843 109.192 195.723 109.135 191.132 107.678C182.261 104.867 178.394 98.9365 168.903 88.6809C160.595 79.6888 154.754 72.9503 146.847 68.1242C136.599 61.8638 126.947 59.371 120.831 58.2897C114.576 57.8799 104.454 58.0507 92.99 62.0573C85.4158 64.7094 79.5401 68.2494 75.3858 71.2202C69.315 75.7504 61.0638 83.0011 53.6389 93.7347C48.9567 100.507 41.2448 112.038 38.6283 128.781C37.7217 134.552 38.1808 140.278 37.848 146.071C37.4348 153.425 34.0379 161.529 29.0688 167.015C31.8001 166.401 34.1986 164.83 36.5167 163.293C32.0067 170.407 29.7345 178.899 30.1132 187.31C31.7542 182.507 35.1511 178.307 39.5005 175.632C40.9694 183.668 38.4103 192.33 32.7985 198.328C35.8511 196.621 38.9267 194.891 41.9908 193.149C48.5321 189.439 55.0045 185.717 61.3966 181.983" stroke="#231F20" stroke-width="2" stroke-miterlimit="10"/>
<path d="M32.7523 120.063C16.5827 118.526 11.0857 91.5152 10.4775 88.4989C7.91832 76.035 10.5348 65.5176 12.3825 59.9288C18.2582 64.5615 24.3863 68.8755 30.2964 73.4512C30.2964 73.4626 30.3194 73.4512 30.3194 73.4512C32.1326 74.7944 33.9573 76.2513 35.7934 77.8562C45.6398 86.45 52.1696 95.9999 56.5305 104.298C55.9338 105.265 45.7087 121.292 32.7638 120.063H32.7523Z" fill="#F6927F" stroke="#231F20" stroke-width="2" stroke-miterlimit="10"/>
<path d="M147.753 63.7533C148.419 53.5659 151.666 43.5266 157.163 34.8987C158.081 33.4417 159.08 32.0303 160.124 30.6644C163.647 26.0772 167.813 22.0137 171.944 17.9729C174.4 22.4235 177.533 29.196 179.289 37.915C179.495 38.9394 180.459 43.8111 180.632 50.0829C181.045 64.7094 176.948 77.8448 173.597 86.1995L147.764 63.7533" fill="#F6927F"/>
<path d="M147.753 63.7533C148.419 53.5659 151.666 43.5266 157.163 34.8987C158.081 33.4417 159.08 32.0303 160.124 30.6644C163.647 26.0772 167.813 22.0137 171.944 17.9729C174.4 22.4235 177.533 29.196 179.289 37.915C179.495 38.9394 180.459 43.8111 180.632 50.0829C181.045 64.7094 176.948 77.8448 173.597 86.1995L147.764 63.7533" stroke="#231F20" stroke-width="2" stroke-miterlimit="10"/>
<path d="M160.79 31.9507C162.167 31.9393 164.703 31.7344 167.469 30.3457C170.785 28.6953 172.61 26.2594 173.367 25.087C173.735 26.4302 174.274 29.0823 173.459 32.2352C173 34.0451 172.243 35.4337 171.611 36.3785C172.346 36.1167 173.149 35.798 173.987 35.3996C175.181 34.8304 176.202 34.2158 177.051 33.6239C176.19 36.0028 174.917 38.8712 172.977 41.8876C171.749 43.7998 170.464 45.4389 169.27 46.7934C170.12 46.93 172.174 47.1463 174.446 46.156C176.156 45.4048 177.223 44.3121 177.763 43.6633C177.808 46.0536 177.556 50.1627 175.433 54.6474C174.251 57.1515 172.816 59.0638 171.6 60.4183C172.53 60.2248 173.516 59.9857 174.561 59.6784C175.984 59.2573 177.258 58.7792 178.382 58.2897C177.499 60.4297 175.926 63.4802 173.149 66.4851C168.903 71.0609 164.095 73.0642 161.559 73.9179C157.921 72.1309 155.821 69.934 154.558 68.1584C148.419 59.5304 150.897 45.0292 160.778 31.9507H160.79Z" fill="#DD7162"/>
<path d="M157.163 34.8987C158.563 35.1377 160.893 35.3426 163.636 34.6938C167.262 33.8287 169.661 31.9165 170.774 30.9034C170.085 34.193 168.26 37.2321 165.667 39.3834C166.413 39.4972 167.4 39.5541 168.547 39.4062C170.406 39.1671 171.807 38.4728 172.633 37.972C171.531 39.6793 170.177 41.5574 168.536 43.4925C166.619 45.7576 164.703 47.6243 162.959 49.1496C164.175 49.6049 166.195 50.174 168.72 50.1285C170.877 50.0829 172.61 49.5935 173.746 49.1723C172.679 55.262 168.915 60.8394 163.624 64.1175C164.944 63.9354 166.344 63.7078 167.801 63.3891C169.902 62.9451 171.818 62.4102 173.539 61.8524C172.185 63.5826 170.418 65.5517 168.157 67.5095C164.795 70.4121 161.49 72.3129 158.873 73.5422C154.455 73.5764 152.16 72.2105 150.92 71.095C144.918 65.7111 146.858 50.9821 157.14 34.8873L157.163 34.8987Z" fill="white" stroke="#231F20" stroke-width="2" stroke-miterlimit="10"/>
<path d="M52.4105 92.4371C44.5495 85.8808 36.677 79.3359 28.8159 72.7796C26.3027 71.5047 23.6632 70.0364 20.9205 68.3632C18.8433 67.0883 16.9154 65.8135 15.1136 64.55C15.3776 66.3826 15.9399 68.9095 17.2023 71.6869C18.3958 74.2935 19.8188 76.2854 20.9779 77.6513C20.0368 77.1732 18.7056 76.3651 17.4433 75.0333C15.5612 73.0641 14.7694 70.9584 14.4251 69.786C14.0808 71.4137 13.0709 77.0366 16.1924 82.9328C18.6138 87.5313 22.2632 89.8761 23.8583 90.7753C22.9173 91.1054 21.7353 91.4241 20.3467 91.5948C18.1777 91.8566 16.3301 91.6631 15.0218 91.4127C15.8481 92.8811 17.4433 95.2145 20.2204 97.1836C21.8615 98.3447 23.4452 99.0504 24.6846 99.4829C24.3288 99.8358 23.8583 100.234 23.2386 100.587C21.8959 101.35 20.6106 101.486 19.8762 101.498C20.3008 102.306 21.0926 103.592 22.5271 104.719C23.3993 105.402 24.2485 105.834 24.9141 106.108C24.5813 106.312 24.1911 106.506 23.7436 106.688C22.5386 107.166 21.4369 107.28 20.6336 107.28C22.332 108.612 25.947 111.082 31.2144 112.026C35.931 112.869 39.7984 112.083 41.8412 111.526L52.4105 92.4485V92.4371Z" fill="#DD7162"/>
<path d="M58.6077 102.784C55.9224 98.2422 52.1123 92.7331 46.7875 87.0987C40.9233 80.9067 35.059 76.5016 30.3195 73.4511C30.3195 73.4511 30.3195 73.4511 30.308 73.4511C26.1193 72.7682 22.0912 71.2429 18.4533 69.0575C19.9911 72.9503 22.3207 76.5358 25.2586 79.5294C22.1715 79.7684 18.4992 79.7457 16.709 77.2301C17.7992 83.8206 24.0192 88.2825 30.0785 91.1964C26.7619 92.6306 23.1814 93.4729 19.5665 93.6664C23.2618 96.7739 28.4145 98.0942 33.177 97.1495C30.2736 99.3235 27.0603 101.099 23.6864 102.442C26.6357 104.309 30.2391 105.106 33.7049 104.673C30.8015 105.698 27.8751 106.734 24.9602 107.781C30.79 110.376 37.492 110.934 43.689 109.488C48.6581 107.257 53.6386 105.026 58.6077 102.795V102.784Z" fill="white" stroke="#231F20" stroke-width="2" stroke-miterlimit="10"/>
<path d="M193.037 92.7786C178.015 88.3963 152.102 83.0807 120.899 88.2825C65.9064 97.4454 32.8901 132.902 22.9863 144.41C25.0061 132.025 29.0112 123.215 32.2589 117.524C37.1706 108.93 42.5299 99.5512 49.2663 94.0193C50.2188 93.2453 52.996 91.0598 54.7403 87.2126C55.0616 86.4955 55.3141 85.7897 55.5207 85.1068C56.2666 82.5344 56.2437 80.3261 56.2092 79.131C56.2092 78.6188 56.1863 78.1293 56.1633 77.6513C56.1404 76.9456 56.106 76.2626 56.0715 75.6024C55.383 61.2036 52.732 55.2278 55.9109 48.0682C56.106 47.6129 58.1372 43.1965 61.8325 40.5557C63.0833 39.6679 64.4949 38.9736 66.1015 38.7004C68.3049 38.3248 69.9919 38.8711 71.6788 39.372C73.6642 39.9525 92.852 45.5299 96.8112 40.3509C98.5785 38.063 95.6407 35.8889 97.6834 32.1213C99.9212 27.9895 105.762 26.3049 107.931 25.6674C109.641 25.1666 110.95 24.9959 111.236 24.9617C112.212 24.8365 118.248 24.1308 123.401 27.0789C126.316 28.7293 128.164 31.1083 130.711 35.7523C131.985 38.0857 133.454 40.9769 134.9 44.4486C135.439 45.7006 135.944 47.021 136.461 48.4324C136.679 49.0015 136.885 49.6048 137.103 50.2195C137.287 50.7317 137.459 51.2667 137.631 51.7903C138.194 53.5318 138.744 55.3416 139.249 57.2766C145.871 60.4409 152.894 64.1744 160.17 68.6136C173.253 76.5699 184.143 84.9702 193.026 92.79L193.037 92.7786Z" fill="#CB8641" stroke="#231F20" stroke-miterlimit="10"/>
<path d="M93.0469 42.2518C94.5961 42.6388 96.9946 43.1055 99.9554 43.151C103.823 43.2079 107.036 43.2649 108.826 41.1136C109.251 40.6127 110.353 39.0647 109.951 35.9459" stroke="#231F20" stroke-width="2" stroke-miterlimit="10"/>
<path d="M136.472 48.4324L56.1632 77.6627C55.1534 70.2413 54.7288 63.9582 54.5451 59.132C54.373 54.4424 54.4648 51.4602 55.9108 48.0796C56.1059 47.6243 58.1371 43.2079 61.8324 40.5671C62.0734 41.159 60.6733 44.2437 61.0061 49.104C61.3848 54.4196 63.6226 58.745 65.8145 61.8752C74.4674 57.7775 85.3122 53.4749 98.1423 50.1398C112.166 46.486 124.744 44.9835 134.923 44.4713L136.484 48.4552L136.472 48.4324Z" fill="#AA6B34"/>
<path d="M137.631 51.7903C137.631 51.7903 137.608 51.813 137.585 51.813" stroke="#231F20" stroke-miterlimit="10"/>
<path d="M193.037 92.7787C178.015 88.3964 152.102 83.0808 120.899 88.2826C65.9064 97.4455 32.8901 132.902 22.9863 144.41C23.1011 143.772 23.1929 143.135 23.3306 142.509C25.4192 131.115 29.1833 122.931 32.2589 117.524C37.1706 108.93 42.5299 99.5513 49.2663 94.0194C50.2188 93.2454 52.996 91.0599 54.7403 87.2126C55.0616 86.4955 55.3141 85.7898 55.5207 85.1069C56.083 83.1832 56.2092 81.4759 56.2322 80.2352C56.2322 79.814 56.2092 79.4498 56.2092 79.1425C56.2092 78.6302 56.1863 78.1408 56.1633 77.6627C56.1404 76.957 56.106 76.2741 56.0715 75.6139C55.383 61.215 52.732 55.2392 55.9109 48.0797C56.106 47.6244 58.1372 43.208 61.8325 40.5672C63.0833 39.6794 64.4949 38.985 66.1015 38.7119C68.3049 38.3362 69.9919 38.8826 71.6788 39.3834C73.6642 39.9639 92.852 45.5414 96.8112 40.3623C98.5785 38.0744 95.6407 35.9004 97.6834 32.1328C99.9212 28.0009 105.762 26.3163 107.931 25.6789C109.641 25.1781 110.95 25.0074 111.236 24.9732C112.212 24.848 118.248 24.1423 123.401 27.0904C126.316 28.7408 128.164 31.1198 130.711 35.7638C131.985 38.0972 133.454 40.9884 134.9 44.46C135.439 45.7121 135.944 47.0325 136.461 48.4439C136.679 49.013 136.885 49.6163 137.103 50.2309C137.287 50.7432 137.459 51.2781 137.631 51.8017C138.194 53.5432 138.744 55.3531 139.249 57.2881C145.871 60.4524 152.894 64.1859 160.17 68.625C173.253 76.5814 184.143 84.9817 193.026 92.8014L193.037 92.7787Z" stroke="#231F20" stroke-miterlimit="10"/>
<path d="M56.2207 80.2351C58.9749 78.3456 62.3947 76.1374 66.4572 73.8609C101.115 54.3855 138.446 53.7822 139.261 57.2766C140.098 60.919 100.059 63.298 62.8308 93.6892C43.0348 109.841 30.8358 128.372 23.3306 142.509C25.4192 131.115 29.1833 122.931 32.2589 117.524C37.1706 108.93 42.5299 99.5512 49.2662 94.0193C49.9778 93.4388 52.95 91.1964 54.7403 87.2126C55.1305 86.3475 55.3715 85.6076 55.5206 85.1068L56.2322 80.2351H56.2207Z" fill="#AA6B34"/>
<path d="M139.261 57.2767C132.926 57.9141 125.708 58.9499 117.835 60.6118C109.928 62.2622 101.356 64.5729 92.3471 67.7486C77.4398 73.0073 65.1376 79.3132 55.5093 85.1069C56.0716 83.1832 56.1978 81.4758 56.2208 80.2352C56.2208 79.814 56.1978 79.4498 56.1978 79.1424C56.1978 78.6302 56.1749 78.1408 56.1519 77.6627C56.129 76.957 56.0946 76.2741 56.0601 75.6139C62.6818 68.9437 71.3576 64.6639 80.1252 61.2036C98.0851 54.0782 117.158 49.7529 136.461 48.4325H136.553L137.103 50.2195L137.585 51.8131L139.249 57.2767H139.261Z" fill="#3F140F"/>
<path d="M40.2919 127.04C40.0165 128.429 39.6492 130.546 39.4197 133.141C39.1099 136.704 39.282 138.582 39.2361 141.359C39.2132 142.987 39.1328 147.927 37.9393 152.799C37.2622 155.564 35.8737 159.696 32.7866 164.363C34.508 163.077 37.136 160.8 39.2591 157.306C44.4347 148.815 41.3018 141.894 45.0544 133.528C46.2709 130.796 48.5202 127.268 56.8288 121.246C85.6334 100.416 121.748 93.3592 121.748 93.3592C150.909 87.6566 170.888 89.364 170.877 88.681C170.877 87.8501 141.349 82.6597 107.082 91.2307C73.8017 99.5627 51.3662 117.035 40.2804 127.029L40.2919 127.04Z" fill="#DA4D1F"/>
<path d="M193.037 92.7786C177.843 88.4077 151.999 83.2401 120.899 88.2825C66.1704 97.1609 32.7869 131.581 22.3667 143.294C24.9373 131.673 28.9769 123.181 32.259 117.524C39.5003 105.049 43.6546 99.13 49.2664 94.0193C50.632 92.7786 53.9256 89.9102 55.5208 85.0954C56.6569 81.6465 56.3815 78.8237 56.0831 75.5911C54.201 55.6034 54.2814 51.9155 55.9224 48.0568C56.1175 47.6015 58.1488 43.1851 61.844 40.5444C63.0949 39.6565 64.5064 38.9622 66.1131 38.689C68.787 38.2337 70.9674 39.0988 71.6904 39.3606C76.9349 41.307 93.2422 45.0177 96.8227 40.3395C98.5786 38.0516 95.6522 35.8776 97.6949 32.11C99.9327 27.9781 105.774 26.2935 107.943 25.6561C109.653 25.1553 110.961 24.9845 111.248 24.9504C116.056 24.4268 120.567 25.5878 123.413 27.0675C128.783 29.8562 130.872 34.8417 134.9 44.4372C137.069 49.6048 138.412 54.0782 139.249 57.2652C145.871 60.4296 152.894 64.163 160.17 68.6022C173.253 76.5586 184.143 84.9588 193.026 92.7786H193.037Z" stroke="#231F20" stroke-width="2" stroke-miterlimit="10"/>
<path d="M141.533 35.9345C141.992 34.7735 143.92 29.9131 147.684 24.2105C153.112 16.0037 159.676 10.0849 164.829 6.18066C163.039 8.32057 160.583 11.3711 157.806 15.1501C154.489 19.6575 152.837 21.9113 151.62 24.3243C148.43 30.6416 149.566 32.884 146.777 37.6874C145.458 39.9525 143.105 43.0827 138.606 45.9966C139.123 43.3217 139.995 39.8501 141.51 35.9345H141.533Z" fill="#F58220"/>
<path d="M33.9916 57.2198C40.2805 63.0135 45.6283 69.8316 52.4794 74.9537C42.3806 72.4154 33.0736 66.8038 26.1536 59.0751C21.896 54.3173 18.1663 48.7171 11.7627 46.691C19.245 44.9836 28.9307 52.553 33.9916 57.2084V57.2198Z" fill="#F58220"/>
<path d="M174.721 85.0499C167.652 82.1701 155.602 78.3229 140.328 78.5733C120.302 78.9034 105.452 86.0971 98.3833 90.1265C108.654 86.6207 123.217 82.8986 140.936 82.2953C154.271 81.84 165.759 83.2629 174.721 85.0499Z" fill="#AC9955"/>
<path d="M108.239 131.32C108.205 132.128 108.17 133.346 107.654 134.723C106.151 138.696 101.595 141.325 96.7059 142.679C94.3074 143.351 91.8286 143.715 89.5793 143.784C85.1381 143.92 79.8822 144 76.6 140.414C73.49 137.011 73.9835 132.253 74.0983 131.331C74.936 124.763 80.9724 121.28 82.7397 120.256C90.3597 115.851 100.275 116.989 104.062 120.916C104.452 121.314 104.854 121.838 104.946 121.952C106.265 123.648 108.365 127.006 108.228 131.308L108.239 131.32Z" fill="white" stroke="#231F20" stroke-width="2" stroke-miterlimit="10"/>
<path d="M106.839 131.582C105.29 135.839 101.166 139.5 96.3729 138C91.5803 136.5 89.6251 135.304 88.9135 131.73C87.8922 126.573 90.8186 120.165 96.3729 119.14C100.424 118.389 104.601 121.789 106.839 126C107.172 127.343 107.849 128.804 106.839 131.582Z" fill="#3C2415" stroke="#231F20" stroke-width="2" stroke-miterlimit="10"/>
<path d="M90.467 129.328C92.6642 129.233 94.3731 127.507 94.2839 125.472C94.1947 123.437 92.3411 121.864 90.1439 121.959C87.9467 122.054 86.2379 123.78 86.3271 125.815C86.4163 127.85 88.2698 129.423 90.467 129.328Z" fill="white"/>
<path d="M162.833 111.23C162.81 111.344 162.799 111.423 162.787 111.457C161.353 118.082 154.834 120.723 153.503 121.269C152.711 121.588 151.885 121.85 151.036 122.054C144.781 123.568 137.276 121.963 134.338 117.023C132.938 114.679 132.984 112.266 133.007 111.252C133.202 104.423 139.296 100.325 140.099 99.8131C146.055 95.943 155.844 95.5446 160.503 101.27C163.671 105.151 163.04 110.091 162.833 111.23Z" fill="white" stroke="#231F20" stroke-width="2" stroke-miterlimit="10"/>
<path d="M162.945 110.06C161.557 113.156 159.135 115.011 156.874 116.138C155.245 116.946 153.594 116.659 151.608 116.5C148.051 116.215 146.202 114.101 145.892 113.6C144.067 110.618 143.964 106.531 146.007 103.356C146.454 102.661 148.543 99.5994 152.502 99.0758C157.092 98.4611 160.191 101.773 160.593 102.217C161.878 103.626 162.945 107.5 162.945 110.06Z" fill="#3C2415" stroke="#231F20" stroke-width="2" stroke-miterlimit="10"/>
<path d="M148.117 104.585C148.41 102.804 147.198 101.126 145.409 100.837C143.62 100.547 141.932 101.756 141.639 103.536C141.346 105.317 142.559 106.995 144.348 107.285C146.137 107.574 147.824 106.366 148.117 104.585Z" fill="white"/>
<path d="M201.449 130.569C202.838 131.081 204.307 131.718 205.753 132.56C208.484 134.131 210.527 136.021 212.041 137.91C214.463 140.904 215.576 143.92 216.115 145.81C216.115 145.81 214.669 144.785 212.041 144.171C211.376 144.023 210.63 143.886 209.815 143.818C206.98 143.556 203.17 145.206 203.17 145.206C207.359 146.857 209.551 148.872 210.779 150.545C211.238 151.171 211.663 151.877 212.041 152.594C213.327 154.995 214.13 157.556 214.13 157.556C213.522 157.329 212.822 157.078 212.041 156.851C209.827 156.19 206.946 155.644 203.652 155.826C197.088 156.179 192.199 159.195 189.101 161.381C187.483 162.519 185.991 163.703 184.579 164.909C178.727 169.929 174.492 175.472 170.43 180.788C170.418 180.811 170.395 180.834 170.372 180.856C167.87 184.169 165.415 187.39 162.683 190.361C162.465 190.6 162.236 190.85 162.006 191.089C161.777 191.34 161.536 191.59 161.295 191.829C159.768 193.388 158.139 194.857 156.36 196.223C154.57 197.589 152.63 198.852 150.473 199.968C145.423 202.585 141.166 203.416 134.82 204.225C133.661 204.384 132.421 204.532 131.101 204.691C129.69 204.862 128.313 204.999 126.959 205.101C126.867 205.112 126.764 205.112 126.649 205.112C126.545 205.112 126.419 205.112 126.282 205.101C126.282 205.101 126.27 205.101 126.259 205.09C124.675 204.999 122.001 204.361 118.57 203.439C118.512 203.416 118.455 203.405 118.386 203.394C114.748 202.403 110.284 201.106 105.384 199.808C105.212 199.763 105.04 199.717 104.867 199.672C102.538 199.057 100.128 198.454 97.6605 197.873C93.8963 196.985 90.0175 196.177 86.1616 195.562C85.9779 195.528 85.7828 195.494 85.5878 195.46C84.4975 195.301 83.4188 195.141 82.3401 195.005H82.3286C72.0002 193.707 62.2227 194.049 55.865 198.226C51.9517 200.798 46.4203 206.74 41.8184 205.01C41.4971 204.885 40.2233 204.384 39.4773 203.132C39.3281 202.881 39.2134 202.62 39.1445 202.346C39.1216 202.301 39.0986 202.255 39.0986 202.21C39.0298 201.959 38.9839 201.709 38.9839 201.447C38.8117 199.068 40.5675 196.12 42.4152 192.922C42.484 192.785 42.5529 192.671 42.6217 192.558C42.7135 192.387 42.8168 192.216 42.9086 192.045C43.1267 191.658 43.3103 191.362 43.4021 191.18C46.6383 185.352 50.9648 181.676 52.1238 180.742C58.4471 175.632 63.4162 174.55 63.1063 173.105C62.8194 171.705 57.9651 171.625 57.1274 171.614C53.4321 171.602 51.2517 172.729 51.1369 172.422C50.9533 171.921 56.347 167.653 63.8867 166.014C72.0002 164.238 77.9907 166.799 78.5415 165.217C78.9546 164.056 76.1086 161.802 73.5265 160.698C69.969 159.173 67.0885 159.89 67.0655 159.594C67.0082 158.991 79.2071 154.187 86.896 158.649C87.9518 159.264 89.6388 160.459 91.7274 160.14C94.562 159.708 96.2374 156.737 96.6965 155.986C99.336 151.683 106.692 144.341 117.066 139.481C118.639 138.73 120.291 138.047 122.001 137.444C125.318 136.26 128.864 135.372 132.616 134.905C134.475 134.678 136.392 134.552 138.343 134.552C138.951 134.552 139.559 134.564 140.179 134.587C144.482 134.746 151.517 135.269 160.067 139.72C161.662 135.52 165.747 126.755 174.905 121.223C174.905 121.223 183.547 116.022 197.846 116.056C199.693 116.067 201.633 116.17 203.675 116.363C203.905 116.386 204.112 116.409 204.112 116.409C207.485 116.818 210.159 117.649 212.041 118.378C212.248 118.458 212.443 118.526 212.627 118.606C212.627 118.606 212.42 118.64 212.041 118.708C210.641 118.97 206.854 119.778 202.241 121.61C200.497 122.293 198.259 123.967 198.259 123.967C200.405 124.115 203.01 124.456 205.833 125.241C208.243 125.902 210.309 126.733 212.041 127.598C214.164 128.656 215.794 129.76 216.976 130.671C216.792 130.648 216.62 130.637 216.414 130.614C215.002 130.466 213.545 130.364 212.041 130.307C208.736 130.159 205.202 130.227 201.449 130.569Z" fill="white"/>
<path d="M169.328 149.111C167.216 154.096 162.752 162.462 153.789 168.586C149.211 171.716 144.896 173.025 136.461 175.529C123.539 179.365 113.692 182.279 101.471 180.629C90.511 179.149 81.2728 174.482 81.5368 173.503C81.7778 172.638 89.2027 175.097 99.3704 175.655C121.863 176.884 139.949 167.823 147.719 163.828C153.388 160.903 161.123 156.282 169.328 149.133V149.111Z" fill="#E6E7E8"/>
<path d="M79.8843 177.851C79.8154 177.59 79.1383 174.846 81.0893 172.559C83.0287 170.259 85.8862 170.453 86.1502 170.476" stroke="#231F20" stroke-width="2" stroke-miterlimit="10"/>
<path d="M138.01 203.246C136.931 203.598 135.864 203.929 134.82 204.225C133.66 204.384 132.421 204.532 131.101 204.691C129.69 204.862 128.313 204.999 126.959 205.101C122.001 205.477 82.3974 190.975 55.8649 198.226C47.9006 200.4 41.2101 204.52 40.4757 203.303C39.7871 202.153 45.1464 197.486 49.6335 194.561C54.5681 191.351 59.1815 189.712 61.2931 189.211C74.7429 186.035 85.6565 192.888 99.2785 197.52C107.759 200.389 120.624 203.53 138.01 203.246Z" fill="#E6E7E8"/>
<path d="M201.449 130.568C202.838 131.081 204.307 131.718 205.753 132.56C208.484 134.131 210.527 136.021 212.041 137.91C214.463 140.904 215.576 143.92 216.115 145.81C216.115 145.81 214.669 144.785 212.041 144.171C211.376 144.023 210.63 143.886 209.815 143.818C206.981 143.556 203.17 145.206 203.17 145.206C207.359 146.857 209.551 148.872 210.779 150.545C211.238 151.171 211.663 151.877 212.041 152.594C213.327 154.995 214.13 157.556 214.13 157.556C213.522 157.329 212.822 157.078 212.041 156.851C209.827 156.19 206.946 155.644 203.652 155.826C197.088 156.179 192.199 159.195 189.101 161.381C187.483 162.519 185.991 163.703 184.579 164.909C178.727 169.929 174.492 175.472 170.43 180.788C170.418 180.811 170.395 180.834 170.372 180.856C167.87 184.169 165.415 187.39 162.683 190.361C162.465 190.6 162.236 190.85 162.006 191.089C161.777 191.34 161.536 191.59 161.295 191.829C159.768 193.388 158.139 194.857 156.36 196.223C154.57 197.589 152.63 198.852 150.473 199.967C145.423 202.585 141.166 203.416 134.82 204.225C133.661 204.384 132.421 204.532 131.101 204.691C129.69 204.862 128.313 204.999 126.959 205.101C126.867 205.112 126.764 205.112 126.649 205.112C126.545 205.112 126.419 205.112 126.282 205.101C123.16 204.976 115.173 203.12 105.556 201.106C105.384 201.072 105.2 201.037 105.028 200.992C102.549 200.48 99.9557 199.945 97.3162 199.444C90.2241 198.067 82.7647 196.826 76.0168 196.234C67.4099 195.483 59.962 195.79 55.865 198.226C52.8124 200.047 49.7598 200.969 43.6661 202.813C43.4251 202.881 43.207 202.95 42.989 203.018C42.0709 203.28 41.3365 203.462 40.7627 203.485C40.2003 203.519 39.7872 203.416 39.4774 203.132C39.2823 202.95 39.156 202.722 39.0757 202.449C39.0527 202.403 39.0413 202.358 39.0413 202.301C38.9839 202.05 38.9609 201.755 38.9839 201.447C39.0987 199.08 41.1184 195.221 42.4152 192.922C42.4841 192.785 42.5529 192.671 42.6218 192.558C42.7136 192.387 42.8169 192.216 42.9087 192.045C43.1267 191.658 43.3103 191.362 43.4021 191.18C46.6384 185.352 50.9648 181.676 52.1239 180.742C58.4471 175.632 63.4162 174.55 63.1064 173.105C62.8195 171.705 57.9651 171.625 57.1274 171.614C53.4321 171.602 51.2517 172.729 51.1369 172.422C50.9533 171.921 56.347 167.653 63.8867 166.014C72.0002 164.238 77.9907 166.799 78.5415 165.217C78.9547 164.056 76.1086 161.802 73.5265 160.698C69.969 159.173 67.0885 159.89 67.0656 159.594C67.0082 158.991 79.2071 154.187 86.896 158.649C87.9518 159.264 89.6388 160.459 91.7274 160.14C94.562 159.708 96.2375 156.737 96.6965 155.986C99.336 151.683 106.692 144.341 117.066 139.481C118.639 138.73 120.291 138.047 122.001 137.444C125.318 136.26 128.864 135.372 132.616 134.905C134.475 134.678 136.392 134.552 138.343 134.552C138.951 134.552 139.559 134.564 140.179 134.587C144.482 134.746 151.517 135.269 160.067 139.72C161.662 135.52 165.747 126.755 174.905 121.223C174.905 121.223 183.547 116.022 197.846 116.056C199.693 116.067 201.633 116.17 203.675 116.363C203.905 116.386 204.112 116.409 204.112 116.409C207.485 116.818 210.159 117.649 212.041 118.378C212.248 118.458 212.443 118.526 212.627 118.606C212.627 118.606 212.42 118.64 212.041 118.708C210.641 118.97 206.854 119.778 202.241 121.61C200.497 122.293 198.259 123.967 198.259 123.967C200.405 124.115 203.01 124.456 205.833 125.241C208.243 125.902 210.309 126.733 212.041 127.598C214.164 128.656 215.794 129.76 216.976 130.671C216.792 130.648 216.62 130.637 216.414 130.614C215.002 130.466 213.545 130.364 212.041 130.307C208.736 130.159 205.202 130.227 201.449 130.568Z" stroke="#231F20" stroke-width="2" stroke-miterlimit="10"/>
<path d="M118.099 135.042C118.925 134.12 120.061 133.539 121.209 133.05C125.937 131.012 128.795 129.772 132.375 130.5C133.58 130.751 137 131.502 138.159 134.086C139.02 136.009 138.354 138.286 137.459 141.325C137.126 142.463 136.885 143.283 136.38 144.25C136.047 144.91 133.511 150.169 129.162 150.442C124.594 150.727 122.161 146.14 119.465 143.34C117.342 141.143 115.597 137.819 118.099 135.03V135.042Z" fill="#532410" stroke="#231F20" stroke-width="2" stroke-miterlimit="10"/>
<path opacity="0.6" d="M127.751 137.716C130.677 136.891 132.853 135.536 132.61 134.689C132.367 133.843 129.799 133.825 126.872 134.65C123.946 135.475 121.77 136.831 122.013 137.677C122.256 138.524 124.825 138.541 127.751 137.716Z" fill="#C8591A"/>
<path d="M81.5366 173.492C84.3712 175.507 88.9386 178.307 95.0438 180.128C107.449 183.827 117.87 180.936 138.216 175.017C152.871 170.749 156.83 167.88 159.527 165.353C165.46 159.787 168.1 153.22 169.316 149.111" stroke="#231F20" stroke-width="2" stroke-miterlimit="10"/>
<path d="M230.782 298.141C230.759 298.392 230.713 298.631 230.667 298.881C229.462 304.914 223.747 307.191 223.391 307.327C223.667 307.6 223.919 307.885 224.149 308.181C226.822 311.482 227.155 315.614 225.273 318.232C224.894 318.755 224.458 319.176 223.976 319.529C221.945 320.998 219.294 321.009 218.766 321.009C216.081 321.009 213.82 319.837 212.041 318.391V352.629C200.06 348.771 185.796 343.569 170.143 336.614C168.467 335.863 166.826 335.135 165.219 334.429C164.531 334.122 163.854 333.826 163.188 333.518C142.428 324.253 128.393 317.685 119.27 310.992C119.155 310.901 119.052 310.822 118.937 310.731C114.519 307.441 111.282 304.106 109.01 300.395C108.746 299.963 108.494 299.542 108.253 299.109C107.645 298.028 107.105 296.98 106.635 295.945C104.546 291.426 103.594 287.157 103.123 283.026C103.077 282.616 103.031 282.206 102.997 281.796C101.826 269.093 104.753 257.665 93.2881 244.758C91.7503 243.028 89.8912 241.195 87.9174 239.374C85.7369 237.37 83.4188 235.39 81.2613 233.591C78.7596 231.497 76.4758 229.664 74.8233 228.321C73.2396 227.012 72.2412 226.17 72.2412 226.011H72.2527C72.2527 226.011 72.2756 225.988 72.3101 225.988C72.4248 225.988 72.7462 226.079 73.4806 226.307C73.5495 226.341 73.6298 226.364 73.7101 226.386C73.756 226.409 73.7905 226.42 73.8364 226.432C74.0315 226.5 74.238 226.557 74.479 226.603C74.6282 226.637 74.8004 226.671 74.9725 226.694C75.0758 226.716 75.1791 226.728 75.2938 226.739C79.9186 227.308 84.0385 224.36 84.8189 223.746C85.2205 223.427 87.0567 221.959 89.7765 219.955C89.9371 219.841 90.0749 219.728 90.2126 219.648C90.2355 219.625 90.247 219.625 90.2585 219.614C90.2699 219.602 90.2814 219.591 90.2929 219.58C90.4077 219.5 90.5109 219.42 90.6257 219.352C90.9929 219.079 91.3257 218.84 91.6012 218.646C91.7274 218.567 91.8307 218.487 91.934 218.419C92.2438 218.202 92.4619 218.054 92.5307 218.009C92.5881 217.975 92.6455 217.929 92.7028 217.884C94.0914 216.882 96.4325 214.617 100.495 209.882C101.907 208.231 103.525 206.285 105.384 203.986C105.499 204.862 105.602 205.738 105.705 206.615C105.728 206.786 105.74 206.945 105.763 207.116C105.774 207.298 105.797 207.48 105.82 207.651C105.843 207.787 105.866 207.924 105.877 208.061C106.141 210.257 106.405 212.443 106.669 214.64V214.685C106.979 217.246 107.289 219.819 107.599 222.38C109.492 226.318 112.097 231.178 115.62 236.448C117.319 239.021 119.235 241.673 121.393 244.371C122.047 245.19 122.724 246.021 123.424 246.852C123.424 246.852 123.424 246.863 123.435 246.863C124.136 247.694 124.858 248.525 125.604 249.356C125.983 249.777 126.362 250.198 126.764 250.62C127.923 251.883 129.139 253.135 130.401 254.376C132.1 256.049 133.89 257.711 135.784 259.339C137.482 260.807 139.318 262.298 141.269 263.789C141.613 264.051 141.958 264.313 142.302 264.586C142.922 265.041 143.553 265.508 144.184 265.975C144.207 265.997 144.23 266.009 144.253 266.02C145.24 266.749 146.238 267.454 147.26 268.16C147.81 268.547 148.373 268.934 148.947 269.31C150.507 270.368 152.102 271.404 153.709 272.406C153.744 272.428 153.778 272.451 153.812 272.463C155.419 273.476 157.037 274.432 158.667 275.354C158.701 275.377 158.736 275.399 158.77 275.411C159.229 275.672 159.688 275.934 160.147 276.185H160.159C160.25 276.242 160.342 276.287 160.434 276.333C162.121 277.266 163.808 278.142 165.472 278.939C165.724 279.064 165.977 279.178 166.218 279.292C166.952 279.645 167.687 279.975 168.41 280.282C168.479 280.317 168.547 280.339 168.616 280.373C168.674 280.408 168.743 280.43 168.811 280.453C169.764 280.886 170.705 281.273 171.646 281.626C172.346 281.91 173.046 282.161 173.735 282.4C174.09 282.525 174.423 282.639 174.767 282.741C174.951 282.809 175.135 282.878 175.318 282.923H175.33C177.166 283.504 178.899 283.925 180.54 284.187C180.873 284.243 181.194 284.3 181.504 284.323C183.122 284.539 184.614 284.562 185.957 284.391C186.461 284.323 186.932 284.232 187.391 284.118C187.563 284.061 187.724 284.016 187.884 283.97C187.965 283.936 188.045 283.913 188.125 283.891C188.206 283.868 188.286 283.834 188.366 283.8C188.527 283.743 188.688 283.674 188.837 283.606C188.906 283.572 188.986 283.538 189.055 283.504C189.124 283.469 189.204 283.424 189.273 283.39C189.468 283.287 189.652 283.174 189.835 283.06C190.053 282.912 190.26 282.764 190.455 282.593C190.685 282.4 190.903 282.195 191.098 281.967C191.213 281.853 191.316 281.728 191.408 281.591C191.867 281.034 192.245 280.373 192.555 279.599C192.624 279.429 192.693 279.269 192.739 279.099H192.75C192.75 279.099 192.762 279.053 192.762 279.042C193.221 277.699 193.485 276.048 193.485 273.999V273.942C193.485 269.207 192.131 262.423 188.665 252.737C188.332 251.781 187.965 250.813 187.575 249.8C185.945 245.463 183.914 240.592 181.435 235.128C180.666 233.432 179.851 231.668 178.991 229.847C178.692 229.221 178.394 228.583 178.084 227.934C177.453 226.614 176.799 225.259 176.122 223.882C175.031 221.674 173.884 219.375 172.679 217.007C171.91 215.493 171.107 213.945 170.28 212.363C169.672 211.179 169.041 209.984 168.398 208.766C168.341 208.664 168.295 208.561 168.238 208.459C165.942 204.122 163.464 199.546 160.778 194.697C160.537 194.254 160.285 193.798 160.032 193.343C160.445 192.842 160.87 192.33 161.283 191.829C161.513 191.556 161.731 191.294 161.949 191.021C162.167 190.771 162.373 190.52 162.58 190.27C165.174 187.128 167.767 183.987 170.361 180.856C170.384 180.834 170.407 180.811 170.418 180.788C170.453 180.754 170.475 180.731 170.498 180.697C171.508 183.201 172.92 186.388 174.871 189.928C174.882 189.94 174.882 189.962 174.894 189.974H174.905C176.294 192.523 177.981 195.267 179.989 198.078C180.322 198.533 180.643 198.989 180.987 199.444C183.34 202.608 185.612 204.976 187.827 206.968L187.862 207.002C192.693 211.361 197.169 213.945 201.208 219.045C201.392 219.284 201.587 219.534 201.77 219.784C202.057 220.183 202.367 220.581 202.677 221.014C202.7 221.037 202.723 221.071 202.746 221.093C202.792 221.162 202.849 221.23 202.895 221.31C205.477 224.793 208.69 229.3 212.03 234.969V272.622C212.34 272.383 212.661 272.167 212.994 271.95C214.015 271.29 221.199 266.817 226.306 269.184C226.444 269.731 226.581 270.266 226.719 270.801C226.834 271.279 226.949 271.757 227.063 272.224C227.982 276.173 228.682 279.941 229.209 283.606C228.004 285.814 226.49 287.214 226.168 287.499C228.211 289.024 229.646 291.119 230.369 293.418C230.403 293.782 230.437 294.146 230.472 294.51C230.575 295.728 230.678 296.935 230.77 298.141H230.782Z" stroke="#231F20" stroke-width="2" stroke-miterlimit="10"/>
<path d="M102.916 183.429C103.192 185.011 103.582 187.287 103.984 190.053C106.049 204.088 107.576 214.503 106.038 221.378C102.825 235.754 84.7613 240.774 79.8611 241.98C75.8445 235.253 69.1885 225.942 58.7109 217.201C51.263 210.986 43.9873 206.831 38.146 204.042C40.6592 199.034 46.0644 190.019 56.5649 182.427C63.3243 177.544 69.9115 174.892 74.6166 173.424C74.674 176.144 75.0527 179.684 76.3036 183.622C78.2889 189.849 81.571 194.276 83.8892 196.894C86.368 195.494 88.9386 193.912 91.5666 192.136C95.8012 189.279 99.5768 186.32 102.916 183.44V183.429Z" fill="#AC9955"/>
<path d="M81.3645 243.699C78.0479 237.473 72.1837 228.287 62.4062 219.523C53.3975 211.441 44.4233 206.729 38.146 204.031C40.7855 199.41 45.1349 193.036 51.9975 186.912C60.4782 179.331 69.0852 175.415 74.6281 173.412C74.6855 176.087 75.0527 179.638 76.315 183.611C78.3233 189.928 81.6514 194.356 83.9007 196.883C86.7811 194.424 90.0288 191.874 93.6782 189.325C96.8914 187.082 99.99 185.125 102.928 183.429C104.489 196.416 106.049 209.392 107.61 222.38" stroke="#231F20" stroke-width="2" stroke-miterlimit="10"/>
<path d="M212.076 200.002H212.042V175.746C213.086 174.05 214.647 172.183 216.953 170.589C217.952 169.895 225.445 164.887 230.782 167.698C233.662 169.201 234.431 172.217 234.661 173.105C236.015 178.398 231.838 182.541 231.321 183.042C235.074 185.091 237.208 188.79 236.795 192.535C236.393 196.177 233.743 198.442 232.01 199.546C231.218 200.059 230.621 200.32 230.518 200.366C234.121 203.075 235.131 207.047 233.421 209.643C231.757 212.181 227.982 212.477 227.339 212.522C221.521 212.966 217.183 208.231 215.897 206.831C213.556 204.281 212.546 201.663 212.076 200.002Z" fill="url(#paint0_linear_1012_21575)"/>
<path d="M230.38 293.418C229.657 291.118 228.223 289.024 226.18 287.499C226.501 287.214 228.016 285.814 229.221 283.606C229.232 283.583 229.255 283.549 229.267 283.526C230.288 281.637 231.08 279.19 230.724 276.367C230.587 275.331 230.151 271.814 227.396 269.822C227.052 269.571 226.685 269.367 226.318 269.184C221.211 266.817 214.027 271.29 213.005 271.95C212.673 272.167 212.351 272.383 212.042 272.622V318.391C213.82 319.836 216.081 321.009 218.766 321.009C219.294 321.009 221.945 320.997 223.976 319.529C224.458 319.176 224.895 318.755 225.273 318.232C227.155 315.614 226.823 311.482 224.149 308.181C223.919 307.885 223.667 307.6 223.391 307.327C223.747 307.191 229.462 304.914 230.667 298.881C230.713 298.631 230.759 298.392 230.782 298.141L230.816 297.834C230.931 296.719 230.874 295.592 230.644 294.499C230.598 294.226 230.529 293.964 230.449 293.691L230.38 293.418Z" fill="url(#paint1_linear_1012_21575)"/>
<path d="M230.816 297.834C230.804 297.937 230.793 298.039 230.781 298.141C230.759 298.392 230.713 298.631 230.667 298.881C229.462 304.914 223.747 307.191 223.391 307.327C223.666 307.6 223.919 307.885 224.148 308.181C226.822 311.482 227.155 315.614 225.273 318.232C224.894 318.755 224.458 319.176 223.976 319.529C221.945 320.997 219.294 321.009 218.766 321.009C216.081 321.009 213.82 319.836 212.041 318.391C209.861 316.615 208.403 314.43 207.772 313.474C205.695 310.343 204.961 307.259 204.674 305.301C201.254 305.847 197.834 306.405 194.403 306.952C193.852 307.043 193.29 307.134 192.739 307.225C192.693 307.225 192.658 307.259 192.612 307.282C192.463 307.338 192.314 307.395 192.153 307.452C190.329 308.158 188.011 308.955 185.256 309.615C183.753 309.968 182.112 310.287 180.368 310.537C180.035 310.583 179.668 310.639 179.266 310.685H179.254C176.431 311.015 172.231 311.3 167.319 310.822C167.021 310.799 166.723 310.765 166.424 310.73C162.786 310.309 158.793 309.467 154.696 307.93C152.01 306.917 149.555 305.711 147.317 304.368C145.951 303.56 144.666 302.694 143.461 301.807C143.461 301.807 143.449 301.795 143.438 301.795C133.615 294.51 128.749 285.165 127.349 282.263L130.149 280.146L132.065 278.677L135.118 276.367C143.128 275.991 151.483 275.9 160.147 276.185H160.158C161.536 276.23 162.924 276.287 164.324 276.355C164.45 276.355 164.588 276.367 164.726 276.378C166.7 276.469 168.685 276.583 170.693 276.72C173.482 276.913 176.294 277.141 179.14 277.414C181.607 277.653 184.097 277.915 186.611 278.222C188.183 278.416 189.766 278.62 191.35 278.837C191.809 278.894 192.268 278.962 192.727 279.03C192.739 279.03 192.75 279.03 192.762 279.042H192.773C193.416 279.121 194.07 279.224 194.713 279.315C195.493 279.429 196.262 279.554 197.031 279.679C197.662 279.77 198.305 279.873 198.936 279.986C201.024 280.316 203.079 280.681 205.121 281.056C205.225 281.079 205.316 281.09 205.42 281.113C206.349 278.951 208.277 275.365 212.041 272.622C212.351 272.383 212.672 272.167 213.005 271.95C214.027 271.29 221.211 266.817 226.317 269.184C226.685 269.367 227.052 269.571 227.396 269.822C230.15 271.814 230.586 275.331 230.724 276.367C231.08 279.19 230.288 281.637 229.267 283.526C229.255 283.549 229.232 283.583 229.221 283.606C228.016 285.814 226.501 287.214 226.18 287.499C228.222 289.024 229.657 291.118 230.38 293.418C230.403 293.509 230.426 293.6 230.449 293.691C230.529 293.964 230.598 294.226 230.644 294.499C230.873 295.592 230.931 296.719 230.816 297.834Z" fill="#F36B21" stroke="#231F20" stroke-width="2" stroke-miterlimit="10"/>
<path d="M102.618 224.645C104.523 230.45 107.989 238.793 114.461 247.489C120.693 255.878 127.418 261.501 132.329 264.996C138.24 264.427 145.355 264.301 153.296 265.314C171.749 267.671 185.578 275.024 193.703 280.305C192.154 283.413 190.937 287.078 190.535 291.289C190.467 292.052 190.26 294.442 190.57 297.584C190.788 299.769 191.293 302.797 192.544 306.314C189.583 307.498 185.842 308.841 181.424 310.082C177.981 311.049 173.264 312.165 166.184 313.189C159.401 314.157 150.599 315.363 143.358 314.976C124.698 313.986 103.18 298.893 91.5668 279.486C79.6433 259.566 80.6072 239.681 81.422 231.873" fill="#AC9955"/>
<path d="M102.618 224.645C104.523 230.45 107.989 238.793 114.461 247.489C120.693 255.878 127.418 261.501 132.329 264.996C138.24 264.427 145.355 264.301 153.296 265.314C171.749 267.671 185.578 275.024 193.703 280.305C192.154 283.413 190.937 287.078 190.536 291.289C190.467 292.052 190.26 294.442 190.57 297.584C190.788 299.769 191.293 302.797 192.544 306.314C189.583 307.498 185.842 308.841 181.424 310.082C177.981 311.049 173.264 312.165 166.184 313.189C159.401 314.157 150.599 315.363 143.358 314.976C124.698 313.986 103.18 298.893 91.5668 279.486C79.6433 259.566 80.6072 239.681 81.422 231.873" stroke="#231F20" stroke-width="2" stroke-miterlimit="10"/>
<path d="M162.741 302.842C154.099 304.641 133.534 307.407 114.874 294.158C107.943 289.229 102.974 283.31 99.4966 278.108C115.196 296.024 139.502 304.242 162.741 302.842Z" fill="#CCBF80"/>
<path d="M223.735 199.068C224.975 198.772 226.49 198.511 228.234 198.419C229.944 198.328 231.459 198.419 232.71 198.59" stroke="#231F20" stroke-width="2" stroke-miterlimit="10"/>
<path d="M210.022 172.82V206.638L196.87 205.921C191.993 190.304 194.667 177.134 201.793 173.503C203.239 172.763 205.833 171.921 210.022 172.82Z" fill="#867640"/>
<path d="M232.01 199.546C231.218 200.059 230.621 200.32 230.518 200.366C234.121 203.075 235.131 207.047 233.421 209.643C231.757 212.181 227.981 212.477 227.339 212.522C221.52 212.966 217.183 208.231 215.897 206.831C213.556 204.281 212.546 201.663 212.076 200.002H212.041L210.022 200.457L203.652 201.868L200.623 202.54C199.969 202.028 194.288 197.406 194.472 189.7C194.552 186.582 195.562 184.043 196.698 182.142C197.983 179.991 199.429 178.671 199.842 178.307C200.715 178.363 201.598 178.432 202.47 178.489C204.984 178.671 207.508 178.853 210.022 179.024C210.159 179.035 210.308 179.046 210.446 179.058C210.768 178.17 211.261 177.009 212.041 175.746C213.086 174.05 214.646 172.183 216.953 170.589C217.951 169.895 225.445 164.887 230.782 167.698C233.662 169.201 234.431 172.217 234.66 173.105C236.015 178.398 231.837 182.541 231.321 183.042C235.074 185.091 237.208 188.79 236.795 192.535C236.393 196.177 233.742 198.442 232.01 199.546Z" fill="#F36B21" stroke="#231F20" stroke-width="2" stroke-miterlimit="10"/>
<path d="M207.91 173.31C206.2 174.402 202.631 177.032 200.669 181.744C200.405 182.382 199.441 184.795 199.303 188.096C199.154 191.533 199.968 194.094 200.416 195.471C202.218 200.969 205.695 204.623 207.807 206.501C201.61 208.243 198.086 206.592 196.87 205.909C188.286 201.06 190.225 185.273 193.886 178.09C194.781 176.338 195.849 174.949 197.421 173.936C201.564 171.272 206.67 172.889 207.898 173.31H207.91Z" fill="#AC9955" stroke="#231F20" stroke-width="2" stroke-miterlimit="10"/>
<path d="M148.625 182.814C138.354 192.341 119.143 192.33 101.849 181.414C110.227 180.845 118.983 179.661 127.98 177.635C132.628 176.588 135.726 175.723 136.495 175.507C145.01 173.048 151.747 170.111 156.371 167.823C154.765 176.372 150.714 180.868 148.614 182.814H148.625Z" fill="#6A0C0D"/>
<path d="M142.325 182.108C133.661 186.798 129.231 189.131 124.641 188.927C121.095 188.767 118.26 187.526 116.47 186.536C116.917 185.557 117.445 184.726 117.985 184.009C122.69 177.783 131.4 177.43 133.856 177.407C134.338 176.872 135.199 176.053 136.495 175.507C137.138 175.233 137.723 175.085 138.217 175.017C139.812 174.311 142.968 173.173 147.053 173.367C150.565 173.537 153.25 174.63 154.754 175.381C153.135 176.258 148.545 178.762 142.337 182.12L142.325 182.108Z" fill="#BE1E2D"/>
<path d="M148.625 182.814C145.71 184.943 136.851 190.793 125.88 189.154C123.401 188.779 121.22 188.096 119.361 187.287C119.556 185.762 120.073 184.692 120.578 183.941C123.022 180.287 128.852 178.99 135.233 180.503C135.519 179.764 136.679 177.032 139.731 175.359C143.025 173.56 146.192 174.243 146.927 174.414L153.686 176.155C151.999 178.364 150.323 180.583 148.637 182.791L148.625 182.814Z" fill="#F48888"/>
<path d="M148.625 183.543C139.789 191.317 127.062 189.268 119.35 188.016C111.581 186.764 105.59 184.112 101.849 182.143C110.227 181.573 118.983 180.39 127.98 178.364C132.628 177.316 135.726 176.451 136.495 176.235C145.01 173.776 151.747 170.84 156.371 168.552C154.857 177.464 150.473 181.904 148.614 183.543H148.625Z" stroke="#231F20" stroke-width="2" stroke-miterlimit="10"/>
<path d="M217.378 307.042C218.33 307.327 219.409 307.6 220.603 307.805C222.014 308.044 223.311 308.158 224.436 308.192" stroke="#231F20" stroke-width="2" stroke-miterlimit="10"/>
<path d="M218.686 288.501C219.696 288.159 220.947 287.818 222.393 287.601C223.816 287.396 225.09 287.351 226.145 287.385" stroke="#231F20" stroke-width="2" stroke-miterlimit="10"/>
<path d="M223.093 198.59C224.114 198.898 225.285 199.193 226.581 199.41C228.108 199.672 229.508 199.785 230.724 199.831" stroke="#231F20" stroke-width="2" stroke-miterlimit="10"/>
<path d="M223.712 184.556C224.803 184.18 226.157 183.816 227.729 183.588C229.267 183.36 230.644 183.315 231.78 183.36" stroke="#231F20" stroke-width="2" stroke-miterlimit="10"/>
<defs>
<linearGradient id="paint0_linear_1012_21575" x1="224.447" y1="212.545" x2="224.447" y2="166.844" gradientUnits="userSpaceOnUse">
<stop stop-color="#D4B5D6"/>
<stop offset="1" stop-color="#9E6AAD"/>
</linearGradient>
<linearGradient id="paint1_linear_1012_21575" x1="221.463" y1="321.009" x2="221.463" y2="268.49" gradientUnits="userSpaceOnUse">
<stop stop-color="#D4B5D6"/>
<stop offset="1" stop-color="#9E6AAD"/>
</linearGradient>
</defs>
</svg>
