<svg width="39" height="36" viewBox="0 0 39 36" fill="none" xmlns="http://www.w3.org/2000/svg">
<path id="Vector" d="M19.4544 36L16.7258 33.4496C13.558 30.4741 10.9392 27.9074 8.86918 25.7493C6.79918 23.5913 5.15259 21.654 3.92941 19.9373C2.70623 18.2207 1.85157 16.6431 1.36543 15.2044C0.879299 13.7657 0.63623 12.2943 0.63623 10.7902C0.63623 7.71662 1.62418 5.14986 3.60009 3.08992C5.576 1.02997 8.03805 0 10.9862 0C12.6171 0 14.1696 0.359673 15.6437 1.07902C17.1178 1.79837 18.388 2.81199 19.4544 4.11989C20.5208 2.81199 21.791 1.79837 23.2651 1.07902C24.7392 0.359673 26.2917 0 27.9226 0C30.8708 0 33.3328 1.02997 35.3087 3.08992C37.2846 5.14986 38.2726 7.71662 38.2726 10.7902C38.2726 12.2943 38.0295 13.7657 37.5434 15.2044C37.0572 16.6431 36.2026 18.2207 34.9794 19.9373C33.7562 21.654 32.1096 23.5913 30.0396 25.7493C27.9696 27.9074 25.3508 30.4741 22.183 33.4496L19.4544 36Z" fill="white"/>
</svg>
