<svg width="198" height="182" viewBox="0 0 198 182" fill="none" xmlns="http://www.w3.org/2000/svg">
<mask id="path-1-inside-1_990_119793" fill="white">
<path d="M27.999 127.019C27.999 125.323 29.3743 123.947 31.0708 123.947H161.927C163.624 123.947 164.999 125.323 164.999 127.019V174.938C164.999 178.331 162.248 181.082 158.856 181.082H34.1425C30.7496 181.082 27.999 178.331 27.999 174.938V127.019Z"/>
</mask>
<path d="M27.999 127.019C27.999 125.323 29.3743 123.947 31.0708 123.947H161.927C163.624 123.947 164.999 125.323 164.999 127.019V174.938C164.999 178.331 162.248 181.082 158.856 181.082H34.1425C30.7496 181.082 27.999 178.331 27.999 174.938V127.019Z" fill="#FEBD01" stroke="#8D0F3A" stroke-width="7.3722" mask="url(#path-1-inside-1_990_119793)"/>
<path d="M35.6414 122.362L48.783 111.323H143.981L157.123 122.362C158.001 123.1 157.479 124.532 156.332 124.532H36.4316C35.2849 124.532 34.7632 123.1 35.6414 122.362Z" fill="#8D0F3A" stroke="#8D0F3A" stroke-width="3.6861"/>
<path d="M38.8424 72.5161C38.2758 70.6036 39.7088 68.6844 41.7035 68.6844H154.49C156.589 68.6844 158.032 70.7938 157.271 72.7499L143.391 108.442H49.487L38.8424 72.5161Z" fill="#8D0F3A" stroke="#8D0F3A" stroke-width="3.6861"/>
<mask id="path-4-inside-2_990_119793" fill="white">
<path d="M27.999 71.6688C27.999 65.4484 33.0417 60.4058 39.2621 60.4058H153.502C159.722 60.4058 164.765 65.4484 164.765 71.6688C164.765 72.5575 164.045 73.2779 163.156 73.2779H29.608C28.7194 73.2779 27.999 72.5575 27.999 71.6688Z"/>
</mask>
<path d="M27.999 71.6688C27.999 65.4484 33.0417 60.4058 39.2621 60.4058H153.502C159.722 60.4058 164.765 65.4484 164.765 71.6688C164.765 72.5575 164.045 73.2779 163.156 73.2779H29.608C28.7194 73.2779 27.999 72.5575 27.999 71.6688Z" fill="#FEBD01" stroke="#8D0F3A" stroke-width="7.3722" mask="url(#path-4-inside-2_990_119793)"/>
<path d="M47.6948 71.4348C48.572 66.221 53.1074 62.2488 58.5706 62.2488H135.803C141.266 62.2488 145.802 66.221 146.679 71.4348H47.6948Z" fill="#E54E17" stroke="#8D0F3A" stroke-width="3.6861"/>
<mask id="path-6-inside-3_990_119793" fill="white">
<path fill-rule="evenodd" clip-rule="evenodd" d="M112.779 135.005H80.2194V169.408H112.779V135.005ZM123.837 169.408H149.026V135.005H123.837V169.408ZM45.2004 135.005H69.1611V169.408H45.2004V135.005Z"/>
</mask>
<path fill-rule="evenodd" clip-rule="evenodd" d="M112.779 135.005H80.2194V169.408H112.779V135.005ZM123.837 169.408H149.026V135.005H123.837V169.408ZM45.2004 135.005H69.1611V169.408H45.2004V135.005Z" fill="#E54E17"/>
<path d="M112.779 135.005H116.465V131.319H112.779V135.005ZM80.2194 135.005V131.319H76.5333V135.005H80.2194ZM80.2194 169.408H76.5333V173.095H80.2194V169.408ZM112.779 169.408V173.095H116.465V169.408H112.779ZM123.837 169.408H120.151V173.095H123.837V169.408ZM149.026 169.408V173.095H152.712V169.408H149.026ZM149.026 135.005H152.712V131.319H149.026V135.005ZM123.837 135.005V131.319H120.151V135.005H123.837ZM69.1611 135.005H72.8472V131.319H69.1611V135.005ZM45.2004 135.005V131.319H41.5143V135.005H45.2004ZM69.1611 169.408V173.095H72.8472V169.408H69.1611ZM45.2004 169.408H41.5143V173.095H45.2004V169.408ZM112.779 131.319H80.2194V138.691H112.779V131.319ZM76.5333 135.005V169.408H83.9055V135.005H76.5333ZM80.2194 173.095H112.779V165.722H80.2194V173.095ZM116.465 169.408V135.005H109.093V169.408H116.465ZM123.837 173.095H149.026V165.722H123.837V173.095ZM152.712 169.408V135.005H145.339V169.408H152.712ZM149.026 131.319H123.837V138.691H149.026V131.319ZM120.151 135.005V169.408H127.523V135.005H120.151ZM69.1611 131.319H45.2004V138.691H69.1611V131.319ZM72.8472 169.408V135.005H65.475V169.408H72.8472ZM45.2004 173.095H69.1611V165.722H45.2004V173.095ZM41.5143 135.005V169.408H48.8865V135.005H41.5143Z" fill="#8D0F3A" mask="url(#path-6-inside-3_990_119793)"/>
<rect x="87.7674" y="59.0305" width="22.0581" height="22.0581" rx="11.029" fill="#FEBD01" stroke="#8D0F3A" stroke-width="3.6861"/>
<rect x="95.8128" y="60.2561" width="6.1435" height="10.3562" rx="3.07175" fill="#E54E17" stroke="#8D0F3A" stroke-width="3.6861"/>
<path d="M0 53.2758C0 70.5866 34.3954 106.971 44.9164 123H148.103C164.693 102.964 209.043 60.9695 195.447 53.2758C181.851 45.5821 158.219 78.9215 148.103 96.5528C152.149 64.4958 157.814 0.381778 148.103 0.381778C138.391 0.381778 120.586 58.0844 112.898 86.9358C111.684 66.0986 106.828 23.4627 97.1165 19.6158C87.4049 15.7689 80.9304 62.8929 78.9072 86.9358C67.5769 60.4887 42.2457 6.15206 31.5629 0.381778C20.8801 -5.3885 36.014 55.6802 44.9164 86.9358C29.9443 68.5029 0 35.965 0 53.2758Z" fill="url(#paint0_radial_990_119793)"/>
<defs>
<radialGradient id="paint0_radial_990_119793" cx="0" cy="0" r="1" gradientUnits="userSpaceOnUse" gradientTransform="translate(100.711 123) rotate(-90) scale(123 199.833)">
<stop stop-color="#D8638A"/>
<stop offset="0.161458" stop-color="#C64470"/>
<stop offset="0.73" stop-color="#F6A569" stop-opacity="0.25"/>
<stop offset="1" stop-color="#FFFFF3" stop-opacity="0.31"/>
</radialGradient>
</defs>
</svg>
