<svg width="322.66" height="294.53" viewBox="0 0 195 178" fill="none" xmlns="http://www.w3.org/2000/svg">
<mask id="path-1-inside-1_826_109285" fill="white">
<path d="M27.5748 124.91C27.5748 123.213 28.9501 121.838 30.6466 121.838H159.427C161.124 121.838 162.499 123.213 162.499 124.91V171.857C162.499 175.249 159.749 178 156.356 178H33.7183C30.3254 178 27.5748 175.249 27.5748 171.857V124.91Z"/>
</mask>
<path d="M27.5748 124.91C27.5748 123.213 28.9501 121.838 30.6466 121.838H159.427C161.124 121.838 162.499 123.213 162.499 124.91V171.857C162.499 175.249 159.749 178 156.356 178H33.7183C30.3254 178 27.5748 175.249 27.5748 171.857V124.91Z" fill="#FEBD01" stroke="#8D0F3A" stroke-width="7.3722" mask="url(#path-1-inside-1_826_109285)"/>
<path d="M35.2303 120.21L48.0531 109.46H141.79L154.613 120.21C155.492 120.947 154.971 122.38 153.824 122.38H36.0197C34.8724 122.38 34.3511 120.947 35.2303 120.21Z" fill="#8D0F3A" stroke="#8D0F3A" stroke-width="3.6861"/>
<path d="M41.1731 67.5469H152.037C154.137 67.5469 155.58 69.6578 154.818 71.6142L141.2 106.565H48.7574L38.3125 71.3801C37.7447 69.4673 39.1779 67.5469 41.1731 67.5469Z" fill="#8D0F3A" stroke="#8D0F3A" stroke-width="3.6861"/>
<mask id="path-4-inside-2_826_109285" fill="white">
<path d="M27.5748 70.4488C27.5748 64.3343 32.5317 59.3774 38.6462 59.3774H151.197C157.312 59.3774 162.269 64.3343 162.269 70.4488V70.4488C162.269 71.3223 161.56 72.0305 160.687 72.0305H29.1565C28.2829 72.0305 27.5748 71.3223 27.5748 70.4488V70.4488Z"/>
</mask>
<path d="M27.5748 70.4488C27.5748 64.3343 32.5317 59.3774 38.6462 59.3774H151.197C157.312 59.3774 162.269 64.3343 162.269 70.4488V70.4488C162.269 71.3223 161.56 72.0305 160.687 72.0305H29.1565C28.2829 72.0305 27.5748 71.3223 27.5748 70.4488V70.4488Z" fill="#FEBD01" stroke="#8D0F3A" stroke-width="7.3722" mask="url(#path-4-inside-2_826_109285)"/>
<path d="M57.6591 61.2205H133.77C139.111 61.2205 143.548 65.0952 144.423 70.1874H47.0056C47.8804 65.0952 52.3173 61.2205 57.6591 61.2205Z" fill="#E54E17" stroke="#8D0F3A" stroke-width="3.6861"/>
<mask id="path-6-inside-3_826_109285" fill="white">
<path fill-rule="evenodd" clip-rule="evenodd" d="M111.07 132.707H79.004V166.525H111.07V132.707ZM121.961 166.525H146.768V132.707H121.961V166.525ZM44.5156 132.707H68.1133V166.525H44.5156V132.707Z"/>
</mask>
<path fill-rule="evenodd" clip-rule="evenodd" d="M111.07 132.707H79.004V166.525H111.07V132.707ZM121.961 166.525H146.768V132.707H121.961V166.525ZM44.5156 132.707H68.1133V166.525H44.5156V132.707Z" fill="#E54E17"/>
<path d="M111.07 132.707H114.756V129.021H111.07V132.707ZM79.004 132.707V129.021H75.3179V132.707H79.004ZM79.004 166.525H75.3179V170.211H79.004V166.525ZM111.07 166.525V170.211H114.756V166.525H111.07ZM121.961 166.525H118.275V170.211H121.961V166.525ZM146.768 166.525V170.211H150.454V166.525H146.768ZM146.768 132.707H150.454V129.021H146.768V132.707ZM121.961 132.707V129.021H118.275V132.707H121.961ZM68.1133 132.707H71.7994V129.021H68.1133V132.707ZM44.5156 132.707V129.021H40.8295V132.707H44.5156ZM68.1133 166.525V170.211H71.7994V166.525H68.1133ZM44.5156 166.525H40.8295V170.211H44.5156V166.525ZM111.07 129.021H79.004V136.393H111.07V129.021ZM75.3179 132.707V166.525H82.6901V132.707H75.3179ZM79.004 170.211H111.07V162.839H79.004V170.211ZM114.756 166.525V132.707H107.384V166.525H114.756ZM121.961 170.211H146.768V162.839H121.961V170.211ZM150.454 166.525V132.707H143.082V166.525H150.454ZM146.768 129.021H121.961V136.393H146.768V129.021ZM118.275 132.707V166.525H125.647V132.707H118.275ZM68.1133 129.021H44.5156V136.393H68.1133V129.021ZM71.7994 166.525V132.707H64.4272V166.525H71.7994ZM44.5156 170.211H68.1133V162.839H44.5156V170.211ZM40.8295 132.707V166.525H48.2017V132.707H40.8295Z" fill="#8D0F3A" mask="url(#path-6-inside-3_826_109285)"/>
<rect x="86.4656" y="58.0572" width="21.668" height="21.6199" rx="10.81" fill="#FEBD01" stroke="#8D0F3A" stroke-width="3.6861"/>
<rect x="94.3891" y="59.262" width="5.99457" height="10.1172" rx="2.99728" fill="#E54E17" stroke="#8D0F3A" stroke-width="3.6861"/>
<path d="M0 52.3691C0 69.3853 33.8743 105.151 44.2358 120.907H145.859C162.198 101.212 205.876 59.9318 192.486 52.3691C179.095 44.8063 155.822 77.5783 145.859 94.9096C149.844 63.3981 155.423 0.37528 145.859 0.37528C136.294 0.37528 118.759 57.0959 111.187 85.4562C109.992 64.9737 105.21 23.0633 95.6451 19.2819C86.0806 15.5006 79.7042 61.8225 77.7116 85.4562C66.553 59.4592 41.6056 6.04735 31.0846 0.37528C20.5637 -5.29679 35.4684 54.7325 44.2358 85.4562C29.4906 67.337 0 35.3529 0 52.3691Z" fill="url(#paint0_radial_826_109285)"/>
<path d="M92.0455 103.073C56.5222 102.435 12.5134 98.1138 12.5134 98.1138C12.5134 98.1138 14.8864 93.5796 21.646 91.9502C30.0594 89.9665 52.1357 86.4242 54.7244 82.5277C56.5941 79.7647 57.0974 77.2142 57.6008 74.2387C60.9086 56.1022 61.9154 52.8433 64.3603 49.8677C64.648 49.5135 67.5962 46.1129 71.4794 44.696C72.8457 44.2001 74.2119 43.9167 75.722 44.1292C78.2389 44.3418 79.9647 45.6878 80.54 46.1129C84.7108 49.0884 98.3017 56.3856 102.616 53.1267C104.774 51.4972 102.688 48.8759 105.493 46.0421C108.513 42.9249 114.122 42.854 116.207 42.854C117.861 42.854 119.084 42.9957 119.299 43.0665C123.686 43.775 127.425 45.9004 129.582 47.9549C133.681 51.7097 134.257 56.6689 135.479 66.1623C136.126 71.2632 136.198 75.5848 136.126 78.5603C137.708 79.9064 141.304 84.228 148.782 86.2117C157.483 88.4787 170.499 88.5496 176.827 92.2336C178.121 93.0129 182.939 94.7132 179.2 96.2009C162.589 99.6015 119.299 103.569 92.0455 103.073Z" fill="#CB8641" stroke="#241F20" stroke-miterlimit="10"/>
<path d="M136.126 78.9146C130.302 77.9228 123.614 77.0726 116.207 76.5767C108.801 76.0808 100.531 76.0099 91.758 76.6475C77.1603 77.6394 64.648 80.1898 54.6526 82.9528C55.6593 81.3942 56.1627 79.9065 56.5222 78.8438C56.5941 78.4895 56.6661 78.1353 56.8099 77.8519C56.9537 77.4269 57.0256 76.9309 57.1694 76.5059C57.3132 75.8682 57.4571 75.2306 57.6009 74.6639C65.1514 70.4131 73.9244 68.7128 82.6255 67.7918C100.387 65.879 118.436 66.7291 135.911 70.2714H135.982V71.9717V73.5303L136.126 78.9146Z" fill="#3F0015"/>
<path d="M98.8049 53.906C100.099 54.6144 102.113 55.6063 104.702 56.3856C108.153 57.3774 110.958 58.2276 113.115 56.7398C113.618 56.3856 114.985 55.3229 115.416 52.4182" stroke="#8D0F3A" stroke-width="2" stroke-miterlimit="10" stroke-linecap="round"/>
<path d="M71.0855 69.61C67.1749 64.2848 71.0853 51.3752 74.9958 44.9203C72.5515 44.4362 67.6638 46.3726 63.7532 51.6979C60.6248 55.9581 58.865 68.6419 58.3762 74.4512C59.1583 73.2894 67.175 70.901 71.0855 69.61Z" fill="#CB8641"/>
<path d="M138.054 96.2363C95.4287 100.496 78.2547 86.7154 74.9958 79.2923L74.9961 78.8082C68.1526 79.2923 58.8649 81.8742 54.9545 83.1652C53.9768 86.554 28.5582 90.911 22.2035 92.3634C17.1198 93.5252 14.2195 96.3977 13.4048 97.6886C57.8874 101.562 86.2389 102.046 100.904 102.53C115.568 103.014 160.54 98.1727 169.827 97.2045C177.257 96.4299 179.441 95.2681 179.603 94.7839C175.693 91.6856 170.805 90.5883 168.849 90.4269C168.458 93.9125 148.156 95.7522 138.054 96.2363Z" fill="#CB8641"/>
<path d="M92.0455 103.073C56.5222 102.435 12.5134 98.1138 12.5134 98.1138C12.5134 98.1138 14.8864 93.5796 21.646 91.9502C30.0594 89.9665 52.1357 86.4242 54.7244 82.5277C56.5941 79.7647 57.0974 77.2142 57.6008 74.2387C60.9087 56.1022 61.9154 52.8433 64.3603 49.8677C64.648 49.5135 67.5963 46.1129 71.4794 44.696C72.8457 44.2001 74.2119 43.9167 75.722 44.1292C78.2389 44.3418 79.9647 45.6878 80.54 46.1129C84.7108 49.0884 98.3017 56.3856 102.616 53.1267C104.774 51.4972 102.688 48.8759 105.493 46.0421C108.513 42.9248 114.122 42.854 116.207 42.854C117.861 42.854 119.084 42.9957 119.299 43.0665C123.686 43.775 127.425 45.9004 129.582 47.9549C133.681 51.7097 134.257 56.6689 135.479 66.1623C136.126 71.2632 136.198 75.5848 136.126 78.5603C137.708 79.9064 141.304 84.228 148.782 86.2117C157.483 88.4787 170.499 88.5496 176.827 92.2336C178.121 93.0129 182.939 94.7132 179.2 96.2009C162.589 99.6015 119.299 103.569 92.0455 103.073Z" stroke="#8D0F3A" stroke-width="2" stroke-miterlimit="10"/>
<path d="M110.78 44.5993C114.75 43.6028 124.328 43.8021 130.879 52.5714C125.916 49.914 114.949 44.5993 110.78 44.5993Z" fill="#E4AA52"/>
<defs>
<radialGradient id="paint0_radial_826_109285" cx="0" cy="0" r="1" gradientUnits="userSpaceOnUse" gradientTransform="translate(99.1846 120.907) rotate(-90) scale(120.907 196.805)">
<stop stop-color="#D8638A"/>
<stop offset="0.161458" stop-color="#C64470"/>
<stop offset="0.73" stop-color="#F6A569" stop-opacity="0.25"/>
<stop offset="1" stop-color="#FFFFF3" stop-opacity="0.31"/>
</radialGradient>
</defs>
</svg>
