<svg width="435" height="131" viewBox="0 0 435 131" fill="none" xmlns="http://www.w3.org/2000/svg">
<g filter="url(#filter0_d_521_48207)">
<path d="M99.7769 99.606L94.5474 92.4614L66.3086 32.6251C26.7001 44.3607 -0.437012 53.7195 4.60157 63.8829C9.83099 77.2791 15.0649 79.9063 30.7486 89.7822C27.2515 106.393 23.28 116.96 37.0239 122.826C63.0103 121.994 80.6851 112.393 99.7769 99.606Z" fill="#E54E17"/>
<path d="M62.572 26.3616C62.572 21.0961 66.2888 16.5798 71.472 15.6533C95.6198 11.337 164.182 0 218.152 0C272.118 0 340.619 11.3352 364.751 15.6523C369.934 16.5794 373.649 21.0952 373.649 26.3599V98.7951C373.649 105.275 368.127 110.361 361.673 109.79C332.657 107.222 258.272 100.974 221.285 100.974C183.991 100.974 104.602 107.326 74.49 109.853C68.0558 110.393 62.572 105.315 62.572 98.8586V26.3616Z" fill="#E54E17"/>
<path d="M334.866 99.606L340.096 92.4614L368.334 32.6251C407.943 44.3607 435.08 53.7195 430.041 63.8829C424.812 77.2791 419.578 79.9063 403.894 89.7822C407.392 106.393 411.363 116.96 397.619 122.826C371.633 121.994 353.958 112.393 334.866 99.606Z" fill="#E54E17"/>
</g>
<path d="M110.316 90.1451L105.457 84.6513L79.2163 38.6407C42.4104 47.6647 17.1933 54.8611 21.8754 62.6761C26.7348 72.977 31.5984 74.9972 46.1724 82.5911C42.9227 95.3637 39.2322 103.489 52.0037 108C76.1513 107.36 92.5755 99.9774 110.316 90.1451Z" fill="#F36B21"/>
<path d="M326.316 90.1451L331.176 84.6513L357.417 38.6407C394.222 47.6647 419.439 54.8611 414.757 62.6761C409.898 72.977 405.034 74.9972 390.46 82.5911C393.71 95.3637 397.401 103.489 384.629 108C360.482 107.36 344.057 99.9774 326.316 90.1451Z" fill="#F36B21"/>
<path d="M83.4624 23.0028C77.1946 24.2563 72.8164 29.7636 72.8164 36.0954V87.0389C72.8164 94.869 79.4136 101.079 87.2456 100.535C115.614 98.5636 187.754 93.7971 221.745 93.7971C255.433 93.7971 322.981 98.4798 350.309 100.482C358.154 101.056 364.816 94.8469 364.816 86.9869V36.1327C364.816 29.7791 360.406 24.2605 354.116 23.0244C331.298 18.5402 267.771 7 218 7C168.311 7 105.97 18.5016 83.4624 23.0028Z" fill="#F36B21" stroke="#E54E17" stroke-width="5"/>
<defs>
<filter id="filter0_d_521_48207" x="0" y="0" width="434.643" height="130.826" filterUnits="userSpaceOnUse" color-interpolation-filters="sRGB">
<feFlood flood-opacity="0" result="BackgroundImageFix"/>
<feColorMatrix in="SourceAlpha" type="matrix" values="0 0 0 0 0 0 0 0 0 0 0 0 0 0 0 0 0 0 127 0" result="hardAlpha"/>
<feOffset dy="4"/>
<feGaussianBlur stdDeviation="2"/>
<feComposite in2="hardAlpha" operator="out"/>
<feColorMatrix type="matrix" values="0 0 0 0 0 0 0 0 0 0 0 0 0 0 0 0 0 0 0.25 0"/>
<feBlend mode="normal" in2="BackgroundImageFix" result="effect1_dropShadow_521_48207"/>
<feBlend mode="normal" in="SourceGraphic" in2="effect1_dropShadow_521_48207" result="shape"/>
</filter>
</defs>
</svg>
