<svg width="395" height="104" viewBox="0 0 395 104" fill="none" xmlns="http://www.w3.org/2000/svg">
<path d="M89.3164 86.1451L84.457 80.6513L58.2163 34.6407C21.4104 43.6647 -3.80666 50.8611 0.87542 58.6761C5.73481 68.977 10.5984 70.9972 25.1724 78.5911C21.9227 91.3637 18.2322 99.4893 31.0037 104C55.1513 103.36 71.5755 95.9774 89.3164 86.1451Z" fill="#F36B21"/>
<path d="M305.316 86.1451L310.176 80.6513L336.417 34.6407C373.222 43.6647 398.439 50.8611 393.757 58.6761C388.898 68.977 384.034 70.9972 369.46 78.5911C372.71 91.3637 376.401 99.4893 363.629 104C339.482 103.36 323.057 95.9774 305.316 86.1451Z" fill="#F36B21"/>
<path d="M62.4624 19.0028C56.1946 20.2563 51.8164 25.7636 51.8164 32.0954V83.0389C51.8164 90.869 58.4136 97.0787 66.2456 96.5345C94.6141 94.5636 166.754 89.7971 200.745 89.7971C234.433 89.7971 301.981 94.4798 329.309 96.4816C337.154 97.0563 343.816 90.8469 343.816 82.9869V32.1327C343.816 25.7791 339.406 20.2605 333.116 19.0244C310.298 14.5402 246.771 3 197 3C147.311 3 84.9696 14.5016 62.4624 19.0028Z" fill="#F36B21" stroke="#E54E17" stroke-width="5"/>
</svg>
