<svg width="435" height="131" viewBox="0 0 435 131" fill="none" xmlns="http://www.w3.org/2000/svg">
<g filter="url(#filter0_d_962_69311)">
<path d="M99.7773 99.606L94.5479 92.4614L66.3091 32.6251C26.7006 44.3606 -0.436523 53.7195 4.60206 63.8829C9.83147 77.2791 15.0654 79.9063 30.7491 89.7822C27.252 106.393 23.2805 116.96 37.0244 122.826C63.0107 121.994 80.6856 112.393 99.7773 99.606Z" fill="#D72D2D"/>
<path d="M62.5703 26.3616C62.5703 21.0961 66.287 16.5798 71.4703 15.6533C95.6181 11.337 164.181 0 218.151 0C272.116 0 340.617 11.3352 364.749 15.6523C369.932 16.5794 373.647 21.0952 373.647 26.3599V98.7951C373.647 105.275 368.125 110.361 361.671 109.79C332.656 107.222 258.27 100.974 221.283 100.974C183.989 100.974 104.601 107.326 74.4882 109.853C68.0541 110.393 62.5703 105.315 62.5703 98.8586V26.3616Z" fill="#D72D2D"/>
<path d="M334.867 99.606L340.097 92.4614L368.335 32.6251C407.944 44.3606 435.081 53.7195 430.042 63.8829C424.813 77.2791 419.579 79.9063 403.895 89.7822C407.393 106.393 411.364 116.96 397.62 122.826C371.634 121.994 353.959 112.393 334.867 99.606Z" fill="#D72D2D"/>
</g>
<path d="M110.316 90.1451L105.457 84.6513L79.2163 38.6408C42.4104 47.6647 17.1933 54.8611 21.8754 62.6762C26.7348 72.977 31.5984 74.9972 46.1724 82.5912C42.9227 95.3638 39.2322 103.489 52.0037 108C76.1513 107.36 92.5755 99.9775 110.316 90.1451Z" fill="#EB4B4B"/>
<path d="M326.316 90.1451L331.176 84.6513L357.417 38.6408C394.222 47.6647 419.439 54.8611 414.757 62.6762C409.898 72.977 405.034 74.9972 390.46 82.5912C393.71 95.3638 397.401 103.489 384.629 108C360.482 107.36 344.057 99.9775 326.316 90.1451Z" fill="#EB4B4B"/>
<path d="M83.4624 23.0028C77.1946 24.2563 72.8164 29.7636 72.8164 36.0954V87.0389C72.8164 94.869 79.4136 101.079 87.2456 100.535C115.614 98.5636 187.754 93.7971 221.745 93.7971C255.433 93.7971 322.981 98.4798 350.309 100.482C358.154 101.056 364.816 94.8469 364.816 86.9869V36.1327C364.816 29.7791 360.406 24.2605 354.116 23.0244C331.298 18.5402 267.771 7 218 7C168.311 7 105.97 18.5016 83.4624 23.0028Z" fill="#EB4B4B" stroke="#D72D2D" stroke-width="5"/>
<defs>
<filter id="filter0_d_962_69311" x="0" y="0" width="434.645" height="130.826" filterUnits="userSpaceOnUse" color-interpolation-filters="sRGB">
<feFlood flood-opacity="0" result="BackgroundImageFix"/>
<feColorMatrix in="SourceAlpha" type="matrix" values="0 0 0 0 0 0 0 0 0 0 0 0 0 0 0 0 0 0 127 0" result="hardAlpha"/>
<feOffset dy="4"/>
<feGaussianBlur stdDeviation="2"/>
<feComposite in2="hardAlpha" operator="out"/>
<feColorMatrix type="matrix" values="0 0 0 0 0 0 0 0 0 0 0 0 0 0 0 0 0 0 0.25 0"/>
<feBlend mode="normal" in2="BackgroundImageFix" result="effect1_dropShadow_962_69311"/>
<feBlend mode="normal" in="SourceGraphic" in2="effect1_dropShadow_962_69311" result="shape"/>
</filter>
</defs>
</svg>
