<svg width="110" height="110" viewBox="0 0 110 110" fill="none" xmlns="http://www.w3.org/2000/svg">
<circle cx="55" cy="55" r="55" fill="#3F0015"/>
<mask id="mask0_249_68647" style="mask-type:alpha" maskUnits="userSpaceOnUse" x="7" y="7" width="96" height="96">
<circle cx="55" cy="55" r="47.1429" fill="#BBB9B9"/>
<circle cx="55" cy="55" r="47.1429" fill="#E6E6E6"/>
</mask>
<g mask="url(#mask0_249_68647)">
<circle cx="55" cy="55" r="47.1429" fill="#FCFFEB"/>
<rect x="-30.4463" y="-17.6786" width="170.893" height="144.375" fill="#FFD873"/>
<path d="M74.3101 85.2812C74.5166 81.745 65.9272 78.3675 55.1251 77.7375C44.323 77.1075 35.3988 79.4635 35.1923 82.9998C34.9858 86.5361 43.5752 89.9135 54.3773 90.5435C65.1794 91.1735 74.1036 88.8175 74.3101 85.2812Z" fill="#FF6D00" stroke="#8D0F3A" stroke-width="0.308447" stroke-miterlimit="10"/>
<path d="M33.2829 130.261C32.752 130.446 32.1993 130.621 31.6334 130.801C25.0266 132.896 16.2351 134.878 7.50942 134.29C5.49581 134.154 3.21458 133.742 0.687691 132.493C-3.99759 130.169 -7.20447 125.141 -7.34046 119.915C-7.36678 118.744 -7.25711 117.574 -7.16937 116.403C-7.10795 115.623 -7.05531 114.843 -7.06408 114.058C-7.06408 113.975 -7.06408 113.896 -7.06847 113.812C-7.07724 113.47 -7.09918 113.12 -7.14305 112.778C-7.31853 111.239 -7.8318 109.735 -8.90222 108.644C-9.16105 108.381 -9.45059 108.144 -9.74891 107.942C-11.4072 106.802 -13.5963 106.478 -15.5002 105.689C-20.2996 103.698 -23.331 98.1656 -22.4316 93.0582C-22.4316 94.6978 -21.427 96.2103 -20.1329 97.2143C-18.8299 98.2226 -17.2726 98.8057 -15.7327 99.3756C-17.5577 98.3805 -18.8913 96.526 -19.2379 94.4786C-18.1938 95.5045 -16.6321 95.8684 -15.1668 95.7675C-13.7016 95.6623 -12.2977 95.1582 -10.9202 94.654C-11.2273 94.3603 -11.8766 93.8166 -12.8724 93.5273C-13.8112 93.2555 -14.6097 93.3388 -15.022 93.4089C-12.5215 91.6772 -10.2446 90.7039 -8.68287 90.1516C-8.68287 90.1516 -1.53212 87.6176 6.20211 89.3493C7.36027 89.6079 9.33879 90.077 11.4314 91.5282C11.7385 91.743 12.0368 91.9666 12.3088 92.1989C16.5905 95.7807 17.3318 101.66 17.5731 103.427C18.2268 108.139 17.0204 110.283 17.1783 113.694C17.2222 114.641 17.1125 115.899 17.7837 117.223C18.955 119.525 21.4161 120.397 22.3988 120.748C27.6105 122.594 32.8398 119.468 33.8137 118.863C33.6338 122.659 33.454 126.46 33.2697 130.257L33.2829 130.261Z" fill="#FF6D00" stroke="#8D0F3A" stroke-width="0.308447" stroke-miterlimit="10"/>
<path d="M81.2504 79.2792C80.0923 82.1113 77.8023 86.6006 73.2003 91.103C70.9147 86.4208 68.6335 81.743 66.3479 77.0609C67.6596 75.1757 69.059 72.9004 70.362 70.2349C71.9544 66.9644 73.0029 63.9262 73.7092 61.3528C74.7051 61.5325 80.7108 62.7206 82.8868 67.5211C84.5538 71.1994 83.0315 74.9214 81.2504 79.2792Z" fill="#5A5E3C" stroke="#8D0F3A" stroke-width="0.308447" stroke-miterlimit="10"/>
<path d="M36.9328 69.8225C37.7751 75.4604 40.7276 79.2044 42.0656 80.7082C37.4681 81.186 32.8705 81.6639 28.2774 82.1461C27.1806 80.1295 25.7724 77.8585 23.9694 75.4999C21.7583 72.6152 19.5122 70.3135 17.5249 68.5292C22.3725 63.7944 31.6729 61.3218 37.5733 60.8439C37.0338 62.6896 36.3582 65.9032 36.9416 69.8225H36.9328Z" fill="#5A5E3C" stroke="#8D0F3A" stroke-width="0.925341" stroke-miterlimit="10"/>
<path d="M85.5054 51.5453C85.3606 55.1534 69.0323 57.1701 54.5641 58.9588C40.1222 60.7431 25.1933 62.5844 24.1931 59.2832C23.1446 55.8242 37.2663 46.2581 53.0155 44.1582C69.1551 42.0056 85.6545 47.8802 85.5054 51.5453Z" fill="#834612" stroke="#8D0F3A" stroke-width="0.616894" stroke-miterlimit="10"/>
<path d="M73.3843 98.4636C77.6967 98.8099 80.9211 94.6538 86.0012 88.104C90.0898 82.83 92.6518 77.9856 94.1522 74.7765C95.9991 72.3959 98.0171 69.3797 99.8421 65.7102C102.597 60.1731 103.957 55.0613 104.663 51.1683C104.909 51.2735 106.48 51.9048 107.984 51.1025C109.173 50.4712 110.445 48.8754 109.836 47.433C109.379 46.3589 108.015 45.6838 106.55 45.9249C106.87 44.4431 106.063 42.9744 104.742 42.4834C103.602 42.0625 102.259 42.444 101.448 43.4435C100.531 42.0494 98.9515 41.4882 97.8241 41.9617C96.2009 42.6369 96.3062 45.1095 96.3237 45.4646C96.3764 46.6614 96.8896 47.5514 97.1836 47.981C95.3761 50.0679 93.0203 53.1279 90.8663 57.1613C87.9314 62.6589 87.7165 64.9737 84.593 70.1863C81.8423 74.7808 79.0215 77.8716 78.3284 78.5818C71.318 85.7366 65.6851 85.4122 65.0622 89.314C64.4656 93.0756 68.949 98.1085 73.3843 98.4636Z" fill="#FF6D00" stroke="#8D0F3A" stroke-width="0.925341" stroke-miterlimit="10"/>
<path d="M106.181 53.9964C104.76 57.7404 102.764 62.0894 99.9296 66.6795C98.0081 69.7878 96.034 72.4796 94.152 74.7769C92.8885 78.4595 90.5766 83.7818 86.2993 89.2662C83.3908 92.9927 80.3462 95.8029 77.7228 97.8634C76.8673 98.5254 76.0689 99.1128 75.3231 99.6258C73.6999 96.4166 72.0724 92.3965 70.9625 87.631C70.5326 85.7721 70.2255 84.001 70.0149 82.3438C72.9542 80.1649 75.095 78.5866 76.3277 77.6835C79.1003 75.6493 80.5699 74.4305 82.5704 72.5147C82.8161 72.2824 83.768 71.2521 84.584 70.1912C87.9006 65.9079 88.098 61.9842 89.8133 57.3941C90.6512 55.1582 92.1252 52.0104 94.9066 48.5163C98.3196 50.1823 101.737 51.8394 105.146 53.501C105.488 53.6676 105.826 53.8342 106.172 54.0008L106.181 53.9964Z" fill="#CAD678" stroke="#8D0F3A" stroke-width="0.308447" stroke-miterlimit="10"/>
<path d="M77.0422 98.0256C79.7139 96.1141 83.0875 93.282 86.3031 89.2662C90.6681 83.8168 92.945 78.442 94.1558 74.7769C96.0334 72.4796 98.0119 69.7922 99.9334 66.6795C102.763 62.0894 104.763 57.7404 106.185 53.9964C105.29 53.558 104.399 53.124 103.504 52.69C102.724 55.7281 101.443 59.5642 99.271 63.7247C96.9985 68.0736 94.4409 71.4275 92.3133 73.8431C92.2826 73.9001 92.2299 74.0009 92.1509 74.1412C88.4747 80.9409 86.6321 84.3342 85.1932 86.0922C81.1353 91.0374 76.7483 94.777 76.7483 94.777C76.7483 94.777 76.7922 97.2496 77.0466 98.0256H77.0422Z" fill="#8E9751"/>
<path d="M106.181 54.0311C104.76 57.797 102.764 62.1679 99.9301 66.7887C98.0086 69.9146 96.0344 72.6195 94.1524 74.9343C92.889 78.6388 90.5771 83.9918 86.2998 89.5069C83.3912 93.2553 80.3466 96.083 77.7232 98.1523C76.8678 98.8187 76.0693 99.4062 75.3236 99.9235C72.2658 95.7104 67.1814 87.7095 69.853 83.4394C70.8445 81.8524 73.424 80.0111 76.3282 77.8497C79.6052 75.4122 80.8775 74.2811 82.5708 72.6502C82.8165 72.4135 83.7685 71.3788 84.5845 70.3135C87.901 66.004 88.0984 62.0583 89.8137 57.4419C90.6516 55.1929 92.1257 52.0276 94.907 48.5115C98.3201 50.1862 101.738 51.8522 105.146 53.5269C105.488 53.6935 105.826 53.8601 106.173 54.0311H106.181Z" stroke="#8D0F3A" stroke-width="0.925341" stroke-miterlimit="10"/>
<path d="M80.3594 45.9251C80.2585 46.1005 80.1532 46.2715 80.0435 46.4424L29.8829 58.5951C29.7513 57.8322 29.51 56.8502 29.045 55.7761C28.6151 54.7853 28.1193 53.9918 27.685 53.4C26.154 51.5543 21.9118 45.947 21.381 37.5384C20.8765 29.5945 23.9737 23.768 25.224 21.6681C27.3341 22.7115 29.7952 24.167 32.3089 26.1924C37.0732 30.0241 40.008 34.2591 41.7321 37.2797C43.9826 36.3766 48.1722 33.5401 52.4758 33.2902C56.5118 33.0579 63.4344 33.0447 65.7113 33.6278C67.6986 26.4423 73.3139 20.366 80.3155 17.8057C80.4296 17.7619 80.5436 17.718 80.6621 17.6786C85.6193 26.2275 85.479 37.4726 80.3594 45.9251Z" fill="#FF6D00" stroke="#8D0F3A" stroke-width="0.925341" stroke-miterlimit="10"/>
<path d="M80.0301 45.9294C79.9424 45.8242 79.824 45.6708 79.6792 45.4866C79.0211 44.6274 78.9685 44.4388 78.986 44.3205C79.0299 44.018 79.258 43.7769 79.4511 43.5357C79.6967 43.2288 80.0609 42.5318 80.7233 41.0763C81.1006 40.2477 82.2499 37.1832 82.3114 32.5843C82.3508 29.5637 81.9078 27.0911 81.4296 24.4387C81.3331 23.8951 80.9032 22.1327 80.6136 19.7083C80.539 19.077 80.4908 18.5553 80.4601 18.209C81.6665 20.4317 83.9784 25.4032 83.8775 32.1108C83.7766 38.836 81.3024 43.7462 80.0301 45.9294Z" fill="#D54A0E"/>
<path d="M83.0579 61.7253C83.4 60.0024 84.1853 57.7621 86.0805 56.0962C86.2428 55.9515 86.4095 55.82 86.5762 55.6928C85.6418 55.6052 84.2731 55.3597 82.8254 54.6231C80.0265 53.1983 79.0613 50.9975 76.4686 47.0431C74.1962 43.5753 72.6213 40.9975 70.2567 38.9457C67.1858 36.289 64.1105 34.9255 62.132 34.2285C60.0701 33.7506 56.6966 33.2552 52.6562 33.9786C49.9889 34.4564 47.8393 35.3245 46.2907 36.0961C44.0226 37.2885 40.8728 39.2701 37.815 42.4661C35.8848 44.4828 32.6823 47.933 30.8924 53.4087C30.2738 55.2983 30.1115 57.2404 29.686 59.165C29.1464 61.607 27.5671 64.1409 25.6105 65.7104C26.5537 65.6535 27.4355 65.2589 28.2953 64.8687C26.4002 67.0125 25.1806 69.735 24.8472 72.5759C25.6588 71.0502 27.0187 69.8315 28.6156 69.1695C28.6638 71.9446 27.3346 74.7109 25.1411 76.4163C26.251 76.0086 27.3697 75.5965 28.4884 75.18C30.8705 74.2901 33.2307 73.3957 35.5601 72.4882" fill="#FF6D00"/>
<path d="M83.0579 61.7253C83.4 60.0024 84.1853 57.7621 86.0805 56.0962C86.2428 55.9515 86.4095 55.82 86.5762 55.6928C85.6418 55.6052 84.2731 55.3597 82.8254 54.6231C80.0265 53.1983 79.0613 50.9975 76.4686 47.0431C74.1962 43.5753 72.6213 40.9975 70.2567 38.9457C67.1858 36.289 64.1105 34.9255 62.132 34.2285C60.0701 33.7506 56.6966 33.2552 52.6562 33.9786C49.9889 34.4564 47.8393 35.3245 46.2907 36.0961C44.0226 37.2885 40.8728 39.2701 37.815 42.4661C35.8848 44.4828 32.6823 47.933 30.8924 53.4087C30.2738 55.2983 30.1115 57.2404 29.686 59.165C29.1464 61.607 27.5671 64.1409 25.6105 65.7104C26.5537 65.6535 27.4355 65.2589 28.2953 64.8687C26.4002 67.0125 25.1806 69.735 24.8472 72.5759C25.6588 71.0502 27.0187 69.8315 28.6156 69.1695C28.6638 71.9446 27.3346 74.7109 25.1411 76.4163C26.251 76.0086 27.3697 75.5965 28.4884 75.18C30.8705 74.2901 33.2307 73.3957 35.5601 72.4882" stroke="#8D0F3A" stroke-width="0.925341" stroke-miterlimit="10"/>
<path d="M29.4221 50.1556C24.1227 48.7614 23.7761 39.4015 23.7366 38.3581C23.5699 34.0354 25.0176 30.6509 25.9389 28.8797C27.641 30.7561 29.4441 32.536 31.1637 34.3905C31.1637 34.3949 31.1681 34.3905 31.1681 34.3905C31.699 34.9385 32.2254 35.5303 32.7474 36.166C35.5551 39.5812 37.2046 43.1455 38.2004 46.1617C37.9504 46.451 33.6687 51.2735 29.4221 50.1556Z" fill="#F6927F" stroke="#8D0F3A" stroke-width="0.925341" stroke-miterlimit="10"/>
<path d="M70.7998 37.5297C71.5807 34.1452 73.2126 30.958 75.5158 28.3626C75.9018 27.9242 76.3098 27.5033 76.731 27.1044C78.1567 25.7541 79.7668 24.623 81.3592 23.4875C81.9339 25.114 82.6007 27.5559 82.7104 30.5765C82.7236 30.9316 82.7762 32.6195 82.4911 34.7326C81.8286 39.6603 79.7404 43.8427 78.1655 46.4644L70.7954 37.5297" fill="#F6927F"/>
<path d="M70.7998 37.5297C71.5807 34.1452 73.2126 30.958 75.5158 28.3626C75.9018 27.9242 76.3098 27.5033 76.731 27.1044C78.1567 25.7541 79.7668 24.623 81.3592 23.4875C81.9339 25.114 82.6007 27.5559 82.7104 30.5765C82.7236 30.9316 82.7762 32.6195 82.4911 34.7326C81.8286 39.6603 79.7404 43.8427 78.1655 46.4644L70.7954 37.5297" stroke="#8D0F3A" stroke-width="0.616894" stroke-miterlimit="10"/>
<path d="M76.8854 27.5692C77.3416 27.6394 78.2014 27.7095 79.1973 27.3938C80.3905 27.0168 81.1319 26.3022 81.4522 25.9515C81.5004 26.4206 81.5311 27.3412 81.0925 28.354C80.838 28.937 80.509 29.3623 80.2502 29.6473C80.509 29.599 80.7941 29.5377 81.0925 29.45C81.5224 29.3228 81.8953 29.1738 82.2111 29.0203C81.7944 29.7744 81.2109 30.6644 80.3993 31.5719C79.8816 32.1462 79.3684 32.624 78.8946 33.0186C79.1666 33.1107 79.8422 33.2948 80.6538 33.0888C81.2635 32.9309 81.6803 32.6197 81.8953 32.4355C81.7812 33.2378 81.4697 34.6056 80.5178 35.991C79.9869 36.767 79.4035 37.3281 78.9253 37.7183C79.2455 37.7052 79.5877 37.6789 79.9518 37.6306C80.4476 37.5649 80.8994 37.4728 81.2986 37.372C80.8863 38.0427 80.1975 38.9809 79.1052 39.8358C77.4381 41.1423 75.7316 41.55 74.8366 41.6991C73.7223 40.9012 73.1433 40.0506 72.823 39.3843C71.2525 36.1576 72.8713 31.4272 76.881 27.578L76.8854 27.5692Z" fill="#DD7162"/>
<path d="M75.5165 28.3624C75.9683 28.5202 76.7317 28.7175 77.6837 28.6474C78.9383 28.5553 79.842 28.0424 80.2676 27.7662C79.8552 28.8315 79.0831 29.7521 78.1004 30.3352C78.3417 30.4141 78.6663 30.4887 79.0568 30.4974C79.6885 30.5194 80.193 30.3615 80.4957 30.2388C80.0351 30.7517 79.4823 31.3085 78.8287 31.8653C78.0653 32.5185 77.3239 33.0446 76.6615 33.4567C77.0432 33.6759 77.6793 33.9784 78.5259 34.0968C79.2454 34.1976 79.8508 34.1318 80.2544 34.0529C79.5657 36.0389 78.0039 37.7048 76.0649 38.5159C76.5123 38.529 76.9905 38.5247 77.495 38.5027C78.2189 38.4677 78.8857 38.3931 79.4911 38.3011C78.9427 38.8096 78.2496 39.3708 77.3897 39.9056C76.1131 40.6992 74.9067 41.1551 73.9679 41.4269C72.4983 41.1989 71.8051 40.6159 71.4542 40.1731C69.752 38.038 71.2041 33.2024 75.5121 28.3668L75.5165 28.3624Z" fill="#FCFFEB"/>
<path d="M37.4813 41.9618C35.222 39.3358 32.9628 36.7097 30.7035 34.0836C29.9357 33.5181 29.1373 32.8868 28.317 32.1722C27.6984 31.6329 27.1237 31.0981 26.5929 30.5764C26.5797 31.2077 26.628 32.0845 26.9 33.0841C27.1544 34.0266 27.5185 34.7676 27.83 35.2936C27.5405 35.0832 27.1456 34.7412 26.7947 34.2239C26.277 33.4611 26.1279 32.7114 26.0796 32.2993C25.8734 32.8254 25.2329 34.658 25.948 36.8061C26.5051 38.4809 27.5887 39.4673 28.0713 39.8531C27.7379 39.9101 27.3255 39.9539 26.8561 39.9364C26.1191 39.9057 25.5181 39.7391 25.0969 39.5856C25.2943 40.1205 25.6936 40.9929 26.5095 41.804C26.9921 42.2862 27.4834 42.6063 27.8695 42.8167C27.7335 42.9131 27.5536 43.0228 27.3255 43.106C26.8385 43.2902 26.3999 43.2639 26.1542 43.2288C26.2507 43.5225 26.4437 43.996 26.8605 44.452C27.1149 44.7282 27.3738 44.9211 27.5799 45.0482C27.4571 45.0964 27.3167 45.1446 27.1588 45.1753C26.7333 45.2718 26.356 45.2499 26.0928 45.206C26.5841 45.7453 27.6545 46.7711 29.3567 47.3717C30.8833 47.911 32.2082 47.8584 32.9233 47.7795L37.4901 41.9574L37.4813 41.9618Z" fill="#DD7162"/>
<path d="M38.973 45.7672C38.3281 44.0968 37.363 42.0407 35.8977 39.8662C34.2877 37.4681 32.5724 35.6707 31.1642 34.3949C31.1642 34.3949 31.1642 34.3949 31.1598 34.3949C29.8042 33.939 28.5452 33.2068 27.4572 32.2774C27.7555 33.6672 28.3346 34.9955 29.1462 36.1617C28.1021 36.074 26.8825 35.8636 26.4263 34.9254C26.4263 37.1963 28.2556 39.0289 30.1113 40.3353C28.9268 40.6378 27.6897 40.7255 26.4789 40.5896C27.5406 41.8347 29.1813 42.558 30.8176 42.501C29.7297 43.071 28.5671 43.4962 27.3651 43.7593C28.2425 44.5484 29.4006 45.0087 30.5807 45.0526C29.5586 45.2367 28.5276 45.4296 27.5011 45.6181C29.2997 46.8062 31.502 47.3586 33.6428 47.2095C35.4196 46.7317 37.2007 46.2538 38.9774 45.7759L38.973 45.7672Z" fill="#FCFFEB"/>
<path d="M78.135 128.039C78.1569 133.422 76.4285 138.916 72.761 142.857C68.6153 147.302 63.136 149.174 57.3276 150.24C56.8319 148.973 55.8931 146.965 54.0856 145.071C52.2475 143.146 50.3699 142.226 49.7776 141.914C49.9926 141.866 50.1944 141.8 50.383 141.713C51.5938 141.134 52.1159 139.985 51.9272 138.938C51.7386 137.894 50.9533 136.943 50.0233 136.119C49.453 135.615 48.8037 135.132 48.4264 134.536C48.4264 134.536 47.9702 133.756 47.9 132.69C47.7245 129.92 50.3699 116.031 50.5015 109.358C50.6945 99.4065 45.474 95.4477 48.2948 85.0136C48.5581 84.0316 48.83 83.2425 49.0099 82.7471C50.0452 82.5147 51.0806 82.2604 52.1466 82.1114C53.4013 81.936 54.6735 81.9272 55.9413 81.9229C56.981 81.9185 58.0339 81.9141 59.0429 82.1421C61.1574 82.6155 61.3592 83.1197 63.0526 83.5362C64.2722 83.8387 65.7199 83.8825 67.1237 83.5888C67.8695 83.3652 68.3652 83.4617 68.6811 83.5976C70.2384 84.264 70.857 87.3109 69.9972 91.1864C68.8566 91.2259 67.7028 90.9277 66.7333 90.3271C68.0494 92.9751 69.9138 95.3513 72.1643 97.2671C71.2782 97.4381 70.3525 97.3723 69.5058 97.0786C70.4753 97.8809 71.5765 98.9418 72.6425 100.301C74.4675 102.642 75.4677 104.944 76.0249 106.61C75.902 106.417 75.1036 105.246 73.6208 105.049C72.7522 104.935 72.0722 105.207 71.7651 105.351C74.9193 107.806 77.0163 111.577 77.4375 115.549C76.3714 114.299 75.1343 113.194 73.77 112.278C76.8145 116.684 78.1218 122.682 78.1394 128.034L78.135 128.039Z" fill="#E0E5FF" stroke="#8D0F3A" stroke-width="0.925341" stroke-miterlimit="10"/>
<path d="M59.8768 56.1444C59.8549 56.4776 59.8198 56.9818 59.5961 57.5386C58.6353 59.941 55.1433 60.9888 52.5418 60.9494C51.1643 60.9274 48.8787 60.8968 47.646 59.3316C45.685 56.8459 47.1415 51.1641 51.081 49.6692C53.6912 48.6784 56.8279 49.7393 58.4642 51.7867C58.7538 52.1505 60.0435 53.8559 59.8812 56.1444H59.8768Z" fill="#FCFFEB" stroke="#8D0F3A" stroke-width="0.925341" stroke-miterlimit="10"/>
<path d="M76.5779 56.6925C75.3583 58.0648 73.472 57.999 73.3403 57.9946C71.0767 57.8806 69.8571 55.8859 69.6114 55.4782C68.3743 53.4571 68.3173 50.3576 69.9843 48.959C70.6818 48.376 71.4803 48.2576 71.8181 48.2094C74.0817 47.9025 75.7576 49.6824 75.9681 49.9192C77.5606 51.664 78.2143 54.8556 76.5779 56.6969V56.6925Z" fill="#FCFFEB" stroke="#8D0F3A" stroke-width="0.925341" stroke-miterlimit="10"/>
<path d="M77.0962 61.9577C77.0303 62.1506 71.6256 58.902 65.2382 60.0638C60.8688 60.8617 57.539 63.4483 55.1876 65.9077C55.1876 65.9077 52.6125 64.461 48.2167 64.2725C44.8344 64.1322 41.4564 65.0046 41.4784 65.2414C41.4871 65.294 41.6319 65.2852 42.0794 65.4036C42.8164 65.5921 43.334 65.8595 43.6982 66.048C43.8473 66.1226 45.7162 67.0914 45.5977 67.4465C45.4617 67.8455 43.027 66.7933 39.7104 67.0038C36.622 67.201 34.2311 68.3979 34.275 68.5776C34.3013 68.6916 35.2357 68.4067 36.7053 68.5996C36.9115 68.6259 38.9646 68.9021 38.9997 69.4018C39.0304 69.9367 36.6966 70.1033 34.1828 71.4843C33.3405 71.949 32.4763 72.5496 31.6779 73.3519C31.6779 73.3519 31.6779 73.365 31.6603 73.3694C31.5331 73.4966 30.3091 74.7372 29.3572 76.2059C29.2212 76.4163 29.0852 76.6355 28.9667 76.8547C28.6947 76.8197 28.4315 76.7627 28.1727 76.6706C27.9972 76.6092 27.8042 76.5172 27.7428 76.3418C27.6945 76.1971 27.7428 76.0393 27.7866 75.899C27.9972 75.2633 28.2648 74.7285 28.5719 74.1366C28.8483 73.6062 29.9757 72.3742 32.7 70.796C33.3318 70.4277 33.8626 70.1559 34.1872 69.9981C33.3537 69.7701 32.5246 69.5421 31.691 69.3142C32.8097 67.7885 33.9986 67.109 34.7136 66.7933C35.4156 66.4864 36.0824 66.3374 37.1484 66.1006C38.2671 65.8507 39.2191 65.7192 39.9034 65.6403C39.8376 65.5088 39.7148 65.3115 39.4998 65.1318C39.1489 64.838 38.7672 64.7723 38.6049 64.7591C38.9558 64.6144 39.32 64.4741 39.6885 64.3426C45.0713 62.4399 50.4497 62.9485 54.8762 64.1453C56.5257 62.5189 59.9826 59.6254 64.9618 58.9546C71.6914 58.0515 77.1663 61.756 77.0962 61.9533V61.9577Z" fill="#D54A0E"/>
<path d="M56.7489 55.3683C56.6348 58.0513 54.1649 59.8225 51.8442 59.8707C49.9008 59.9101 48.0583 58.7396 47.1195 56.8808C47.0098 56.3459 46.8124 55.0351 47.4397 53.6059C47.5406 53.3735 48.4838 51.2998 50.7212 50.651C51.0063 50.5677 51.5591 50.4406 52.2478 50.4669C54.8405 50.5765 56.8629 52.7729 56.7533 55.3683H56.7489Z" fill="#3F0015" stroke="#8D0F3A" stroke-width="0.925341" stroke-miterlimit="10"/>
<path d="M75.6604 53.9349C75.6604 54.2199 75.6429 55.18 74.9629 56.0524C73.8091 57.5386 71.7911 57.4115 71.5762 57.3983C71.0848 57.0958 70.2557 56.4996 69.6064 55.4737C68.6851 54.0138 67.9788 51.4404 69.2598 50.055C69.8916 49.3711 70.7558 49.2483 70.9488 49.2264C73.2037 48.9678 75.6648 51.5281 75.656 53.9305L75.6604 53.9349Z" fill="#3F0015" stroke="#8D0F3A" stroke-width="0.925341" stroke-miterlimit="10"/>
<path d="M84.2772 49.7305C79.5173 47.442 71.1821 44.2504 60.5086 44.2986C41.6972 44.3819 28.7557 54.474 24.8293 57.7972C26.1805 53.7507 27.9967 51.015 29.3918 49.2833C31.4975 46.666 33.8007 43.812 36.3451 42.3258C36.7049 42.1197 37.749 41.5366 38.543 40.3398C38.6878 40.1162 38.815 39.8926 38.9159 39.6734C39.3063 38.8536 39.4204 38.1083 39.473 37.7094C39.4994 37.5384 39.5213 37.3718 39.5389 37.2096C39.5696 36.9684 39.5959 36.7405 39.6222 36.5169C40.1837 31.6506 39.6266 29.5024 41.0787 27.2709C41.1664 27.1306 42.0877 25.7584 43.4608 25.0701C43.9258 24.8421 44.4347 24.6843 44.9875 24.6799C45.742 24.6755 46.2728 24.9517 46.8081 25.2104C47.4398 25.5129 53.5201 28.4283 55.1214 26.907C55.8321 26.2363 54.9766 25.3463 55.8671 24.1933C56.8411 22.9307 58.8766 22.6808 59.6356 22.5843C60.2322 22.5098 60.6753 22.5229 60.7762 22.5273C61.1096 22.5361 63.1539 22.6325 64.7113 23.8995C65.5887 24.6098 66.0756 25.5129 66.6679 27.2051C66.9662 28.06 67.2908 29.1078 67.5847 30.3529C67.6944 30.8001 67.7909 31.2735 67.8874 31.7733C67.9269 31.975 67.9664 32.1898 68.0015 32.409C68.0322 32.5932 68.0629 32.7773 68.0892 32.9658C68.1814 33.5796 68.2647 34.2196 68.3305 34.8948C70.3617 36.3152 72.4938 37.9505 74.6741 39.8356C78.5916 43.2157 81.7547 46.6265 84.2859 49.7305H84.2772Z" fill="#CB8641" stroke="#8D0F3A" stroke-width="0.308447" stroke-miterlimit="10"/>
<path d="M87.6242 67.6965C87.6242 67.6965 87.0759 67.0302 86.0054 66.7101C85.2553 66.4821 84.2989 66.5216 84.1673 66.8592C84.0181 67.2537 85.1368 67.6658 86.0054 69.0644C86.6459 70.1034 86.6372 71.6378 86.6372 71.6378C86.4573 71.4844 86.1985 71.2871 85.8519 71.0986C85.8519 71.0986 84.935 70.6032 83.8865 70.533C82.7152 70.4497 81.579 71.7474 79.9032 73.2117C77.4201 75.3818 74.8757 76.9294 73.4938 78.4112C72.6647 79.3012 72.226 79.95 72.226 79.95C72.0505 80.2087 71.8794 80.4717 71.6995 80.726C71.3179 81.2258 70.9362 81.6028 70.6028 81.9009C70.3834 82.085 70.1904 82.2297 70.0237 82.3437C69.1595 82.9575 68.1549 83.352 67.1195 83.5669C65.7201 83.865 64.268 83.8167 63.0484 83.5142C61.3507 83.0978 61.1489 82.5936 59.0387 82.1201C58.0297 81.8921 56.9769 81.8965 55.9371 81.9009C54.6737 81.9053 53.3971 81.9097 52.1424 82.0894C49.791 82.4138 47.6019 83.2556 45.2286 83.2731C44.1406 83.2819 42.1884 83.1547 40.03 82.1639C38.7797 81.594 37.7883 80.8575 37.1302 80.2963C36.538 79.7878 36.2089 79.4108 36.2089 79.4108C35.779 79.0162 35.4807 78.7049 34.9674 78.4682C33.4013 78.1087 32.2124 78.284 31.4842 78.4726C31.0806 78.5778 30.7647 78.7049 30.4401 78.8321C28.8739 79.4371 27.8167 80.156 27.5052 80.3928H27.4043C27.4043 80.3928 27.4087 80.3928 27.4087 80.3884C28.0755 79.7176 28.2203 78.8584 28.2685 78.6172C28.3607 78.135 28.5668 77.6221 28.8301 77.1179C28.9792 76.811 29.1635 76.5041 29.3565 76.206C30.3085 74.733 31.5324 73.4967 31.6597 73.3651C31.6684 73.3607 31.6772 73.3476 31.6772 73.3476C32.48 72.5453 33.3443 71.9447 34.1866 71.48C36.7003 70.099 39.0298 69.9324 38.9991 69.3932C38.9684 68.8934 36.9109 68.6172 36.7047 68.5909C35.2394 68.398 34.3006 68.6829 34.2743 68.569C34.2348 68.3848 36.6213 67.1924 39.7097 66.9951C43.0263 66.789 45.4611 67.8368 45.5927 67.4379C45.7111 67.0828 43.8423 66.1183 43.6931 66.0394C43.329 65.8508 42.8157 65.5878 42.0743 65.3949C41.6269 65.2809 41.4821 65.2853 41.4777 65.2327C41.4558 64.9959 44.8293 64.1235 48.2161 64.2638C52.6118 64.4479 55.1826 65.8991 55.1826 65.8991C55.9064 65.0223 59.7933 60.476 66.4703 59.9017C71.818 59.4413 75.7268 61.8131 76.9156 62.6022C77.464 59.6474 79.2627 57.2888 81.5483 56.7144C83.3118 56.2673 85.2553 56.9117 85.536 57.0082C86.5231 57.3457 87.2601 57.8192 87.7383 58.1787C87.7383 58.1787 86.4968 58.1875 84.8297 58.7048C84.334 58.8539 83.6584 59.0687 83.6672 59.3186C83.6759 59.5772 84.4261 59.6825 85.1456 59.9236C87.1417 60.5943 88.3656 62.4269 88.4402 62.5409C87.6988 62.1858 86.6459 61.8087 85.3474 61.7342C84.9613 61.7123 84.5972 61.721 84.2638 61.743C84.6191 61.9841 84.9877 62.2778 85.3474 62.6373C87.089 64.3866 87.5014 66.5961 87.6154 67.6921L87.6242 67.6965Z" fill="#FCFFEB"/>
<path d="M87.6242 67.6965C87.6242 67.6965 87.0759 67.0302 86.0054 66.7101C85.2553 66.4821 84.2989 66.5216 84.1673 66.8592C84.0181 67.2537 85.1368 67.6658 86.0054 69.0644C86.6459 70.1034 86.6372 71.6378 86.6372 71.6378C86.4573 71.4844 86.1985 71.2871 85.8519 71.0986C85.8519 71.0986 84.935 70.6032 83.8865 70.533C82.7152 70.4497 81.579 71.7474 79.9032 73.2117C77.4201 75.3818 74.8757 76.9294 73.4938 78.4112C72.6647 79.3012 72.226 79.95 72.226 79.95C72.0505 80.2087 71.8794 80.4717 71.6995 80.726C71.3179 81.2258 70.9362 81.6028 70.6028 81.9009C70.3834 82.085 70.1904 82.2297 70.0237 82.3437C69.1595 82.9575 68.1549 83.352 67.1195 83.5669C65.7201 83.865 64.268 83.8167 63.0484 83.5142C61.3507 83.0978 61.1489 82.5936 59.0387 82.1201C58.0297 81.8921 56.9769 81.8965 55.9371 81.9009C54.6737 81.9053 53.3971 81.9097 52.1424 82.0894C49.791 82.4138 47.6019 83.2556 45.2286 83.2731C44.1406 83.2819 42.1884 83.1547 40.03 82.1639C38.7797 81.594 37.7883 80.8575 37.1302 80.2963C36.538 79.7878 36.2089 79.4108 36.2089 79.4108C35.779 79.0162 35.4807 78.7049 34.9674 78.4682C33.4013 78.1087 32.2124 78.2841 31.4842 78.4726C31.0806 78.5778 30.7647 78.7049 30.4401 78.8321C28.8739 79.4371 27.8167 80.156 27.5052 80.3928H27.4043C27.4043 80.3928 27.4087 80.3928 27.4087 80.3884C28.0755 79.7176 28.2203 78.8584 28.2685 78.6172C28.3607 78.135 28.5668 77.6221 28.8301 77.1179C28.9792 76.811 29.1635 76.5041 29.3565 76.206C30.3085 74.733 31.5324 73.4967 31.6597 73.3651C31.6684 73.3607 31.6772 73.3476 31.6772 73.3476C32.48 72.5453 33.3443 71.9447 34.1866 71.48C36.7003 70.099 39.0298 69.9324 38.9991 69.3932C38.9684 68.8934 36.9109 68.6172 36.7047 68.5909C35.2394 68.398 34.3006 68.6829 34.2743 68.569C34.2348 68.3848 36.6213 67.1924 39.7097 66.9951C43.0263 66.789 45.4611 67.8368 45.5927 67.4379C45.7111 67.0828 43.8423 66.1183 43.6931 66.0394C43.329 65.8508 42.8157 65.5878 42.0743 65.3949C41.6269 65.2809 41.4821 65.2853 41.4777 65.2327C41.4558 64.9959 44.8293 64.1235 48.2161 64.2638C52.6118 64.4479 55.1826 65.8991 55.1826 65.8991C55.9064 65.0223 59.7933 60.476 66.4703 59.9017C71.818 59.4413 75.7268 61.8131 76.9156 62.6022C77.464 59.6474 79.2627 57.2888 81.5483 56.7144C83.3118 56.2673 85.2553 56.9117 85.536 57.0082C86.5231 57.3457 87.2601 57.8192 87.7383 58.1787C87.7383 58.1787 86.4968 58.1875 84.8297 58.7048C84.334 58.8539 83.6584 59.0687 83.6672 59.3186C83.676 59.5772 84.4261 59.6825 85.1456 59.9236C87.1417 60.5943 88.3656 62.4269 88.4402 62.5409C87.6988 62.1858 86.6459 61.8087 85.3474 61.7342C84.9613 61.7123 84.5972 61.721 84.2638 61.743C84.6191 61.9841 84.9877 62.2778 85.3474 62.6373C87.089 64.3866 87.5014 66.5961 87.6154 67.6921L87.6242 67.6965Z" stroke="#8D0F3A" stroke-width="0.308447" stroke-miterlimit="10"/>
<path d="M70.5984 81.8963C69.9447 82.4092 68.769 83.1852 67.1152 83.5623C66.4089 83.7201 64.8252 83.9481 63.044 83.5097C61.3463 83.0932 61.1445 82.589 59.0344 82.1155C58.0254 81.8875 56.9725 81.8919 55.9328 81.8963C54.6693 81.9007 53.3927 81.9051 52.138 82.0848C49.7866 82.4093 47.5975 83.251 45.2242 83.2685C44.1362 83.2773 42.184 83.1502 40.0256 82.1594C38.7753 81.5894 37.7839 80.8529 37.1258 80.2917C36.5336 79.7832 36.2046 79.4062 36.2046 79.4062C35.7746 79.0116 35.4763 78.7003 34.9631 78.4636C34.9455 78.4461 34.9324 78.4417 34.9148 78.4373C34.7964 78.3715 34.6911 78.3277 34.6033 78.3145C33.3925 78.0953 32.287 78.2795 31.9361 78.3496C31.901 78.354 31.8571 78.3671 31.8176 78.3759C31.7079 78.4066 31.5983 78.4373 31.4842 78.468C31.1157 78.5776 30.7647 78.6959 30.4401 78.8275L28.8301 77.1133C28.9792 76.8064 29.1635 76.4995 29.3565 76.2014C30.7867 75.6753 32.8793 75.1405 35.3009 75.4474C39.1789 75.9384 39.3588 78.0208 43.2062 79.3141C48.3258 81.0327 53.0988 79.0511 58.2622 79.9805C59.4906 80.1997 60.6224 80.4846 60.6224 80.4846C62.0438 80.9143 62.7106 81.4009 64.7418 81.7779C67.2248 82.2339 69.2253 82.0629 70.6028 81.8919L70.5984 81.8963Z" fill="#E0E5FF"/>
<path d="M62.0745 134.071C67.9004 123.128 69.6903 110.095 67.0274 97.9858C66.501 95.5878 65.7903 93.1897 64.483 91.1116C63.1757 89.0336 61.1971 87.2887 58.8194 86.6793C55.595 85.8551 51.9099 87.4246 50.2736 90.3181L45.54 103.983L62.0789 134.071H62.0745Z" fill="#FCFFEB"/>
<path d="M87.6242 67.6964C87.6242 67.6964 87.0759 67.0301 86.0054 66.71C85.2553 66.4821 84.1673 66.8591 84.1673 66.8591C85.2289 67.6307 85.7378 68.433 86.0054 69.0643C86.4354 70.0858 86.6372 71.6377 86.6372 71.6377C86.0318 71.1336 85.0578 70.4979 83.8865 70.5286C82.5968 70.568 82.0396 71.344 79.9032 73.2072C75.8584 76.7408 75.5425 75.9034 73.4938 78.4067C72.0944 80.1209 71.7697 81.2081 70.0237 82.3392C68.7559 83.1591 67.5845 83.4572 67.1195 83.5624C65.2595 83.9745 63.7416 83.6588 63.0484 83.5098C61.1225 83.0933 61.0524 82.5102 59.0387 82.1156C58.0429 81.9227 57.2927 81.8921 55.9371 81.8964C54.6737 81.9008 53.3971 81.9052 52.1424 82.085C49.791 82.4094 47.6019 83.2511 45.2286 83.2687C44.2722 83.2774 42.1884 83.2599 40.03 82.1595C37.275 80.7566 37.3671 79.0863 34.9674 78.4681C33.0503 77.9771 31.199 78.5821 30.4401 78.832C29.1064 79.2704 28.1238 79.9148 27.5052 80.3927H27.4043C27.4043 80.3927 27.4087 80.3927 27.4087 80.3883C28.308 78.4769 29.2073 76.561 30.1111 74.6496C30.9972 73.6807 32.3265 72.4532 34.1866 71.4843C36.7266 70.1603 39.0342 69.9455 38.9991 69.3975C38.9684 68.8977 36.9109 68.6215 36.7047 68.5952C35.2394 68.4023 34.3006 68.6872 34.2743 68.5733C34.2348 68.3891 36.6213 67.1967 39.7097 66.9994C43.0263 66.7933 45.4611 67.8411 45.5927 67.4422C45.7111 67.0871 43.8423 66.1226 43.6931 66.0437C43.329 65.8551 42.8157 65.5921 42.0743 65.3992C41.6269 65.2852 41.4821 65.2896 41.4777 65.237C41.4558 65.0002 44.8293 64.1278 48.2161 64.2681C52.6118 64.4522 55.1826 65.9034 55.1826 65.9034C55.9064 65.0265 59.7933 60.4803 66.4703 59.906C71.818 59.4456 75.7268 61.8174 76.9156 62.6065C77.464 59.6517 79.2627 57.2931 81.5483 56.7187C83.3118 56.2716 85.2553 56.916 85.536 57.0125C86.5231 57.35 87.2601 57.8235 87.7383 58.183C87.7383 58.183 86.4968 58.1918 84.8297 58.7091C84.334 58.8582 83.6672 59.3229 83.6672 59.3229C84.2375 59.4763 84.9262 59.7262 85.6545 60.1295C87.032 60.8968 87.9269 61.8744 88.4402 62.5408C88.3919 62.5232 88.3393 62.5101 88.291 62.4926C87.0934 62.1111 85.7554 61.8393 84.2682 61.7429C84.6235 61.984 84.992 62.2777 85.3518 62.6372C87.0934 64.3865 87.5058 66.596 87.6198 67.6921L87.6242 67.6964Z" stroke="#8D0F3A" stroke-width="0.925341" stroke-miterlimit="10"/>
<path d="M84.9702 148.477C77.8502 151.002 67.2732 153.865 54.2088 154.255C45.6191 154.514 38.0604 153.637 31.8967 152.432C29.361 151.936 27.0666 151.388 25.0267 150.84C26.6806 141.853 27.7949 134.233 28.5407 128.525C31.0719 109.126 30.4973 103.19 30.12 100.261C29.5233 95.6315 28.5889 88.3628 25.4303 82.5056C24.9653 81.6464 22.5437 77.2842 18.7051 70.1777C18.6086 69.9979 18.3804 69.577 18.2839 69.3973C20.0299 68.994 22.0874 68.6432 24.4081 68.4854C27.3869 68.2837 30.0103 68.4503 32.1468 68.7353C31.8221 69.7919 31.379 71.7252 31.7475 74.0926C32.0108 75.7805 32.5942 77.0913 33.0592 77.9462C34.5113 77.2798 36.5293 76.5477 39.0167 76.2014C43.0835 75.6358 46.4176 76.3855 48.3434 76.9817C47.7468 78.126 47.0888 79.6648 46.6369 81.5587C46.071 83.948 46.0491 86.0261 46.15 87.5079C49.6595 91.0721 53.9368 96.1576 57.6877 102.94C63.0179 112.567 65.0402 121.541 65.8782 127.504C67.5496 125.027 69.6422 121.278 70.66 116.416C73.4764 103.01 67.5101 84.3864 68.2296 83.2729C68.7516 83.0887 69.2781 82.9002 69.8001 82.7161C71.0372 84.873 72.8403 88.126 74.8671 92.1594C79.4646 101.305 81.8555 105.86 82.7812 111.664C83.6542 117.153 82.7812 118.192 82.8338 127.008C82.8645 132.326 83.2769 139.652 84.9615 148.473L84.9702 148.477Z" fill="#CAD678" stroke="#8D0F3A" stroke-width="0.308447" stroke-miterlimit="10"/>
<path d="M40.3064 85.7016C39.4509 86.894 38.5954 88.0909 37.74 89.2834C33.897 93.1808 32.3572 96.9248 31.6684 99.2001C28.2641 110.436 34.8402 122.107 35.1253 122.602C36.9679 125.789 39.8545 132.585 39.8545 132.585L40.8503 135.737C40.3283 135.89 39.5123 136.21 38.7402 136.899C38.3147 137.28 36.8801 138.556 37.117 140.174C37.1434 140.353 37.2969 141.397 38.1304 141.826C38.9859 142.265 40.2318 141.927 41.0346 140.884C41.0872 140.976 41.9295 142.431 43.6273 142.519C44.8249 142.58 45.9699 141.932 46.5578 140.853C46.7289 140.993 48.1152 142.094 49.7734 141.638C50.0542 141.563 50.9974 141.305 51.4317 140.48C52.2345 138.955 50.5192 136.938 50.2823 136.671C49.3391 135.592 48.1634 135.163 47.4834 134.983C47.4922 134.001 47.5141 133.014 47.5492 132.015C47.8344 123.795 48.9224 116.131 50.4973 109.082" fill="#FF6D00"/>
<path d="M40.3064 85.7016C39.4509 86.894 38.5954 88.0909 37.74 89.2834C33.897 93.1808 32.3572 96.9248 31.6684 99.2001C28.2641 110.436 34.8402 122.107 35.1253 122.602C36.9679 125.789 39.8545 132.585 39.8545 132.585L40.8503 135.737C40.3283 135.89 39.5123 136.21 38.7402 136.899C38.3147 137.28 36.8801 138.556 37.117 140.174C37.1434 140.353 37.2969 141.397 38.1304 141.826C38.9859 142.265 40.2318 141.927 41.0346 140.884C41.0872 140.976 41.9295 142.431 43.6273 142.519C44.8249 142.58 45.9699 141.932 46.5578 140.853C46.7289 140.993 48.1152 142.094 49.7734 141.638C50.0542 141.563 50.9974 141.305 51.4317 140.48C52.2345 138.955 50.5192 136.938 50.2823 136.671C49.3391 135.592 48.1634 135.163 47.4834 134.983C47.4922 134.001 47.5141 133.014 47.5492 132.015C47.8344 123.795 48.9224 116.131 50.4973 109.082" stroke="#8D0F3A" stroke-width="0.925341" stroke-miterlimit="10"/>
<path d="M53.7656 27.3368C54.2614 27.5516 55.0335 27.8409 56.0161 28.0163C57.3015 28.2486 58.3676 28.4372 59.0782 27.8146C59.2449 27.6656 59.6968 27.2096 59.7363 26.1443" stroke="#8D0F3A" stroke-width="0.616894" stroke-miterlimit="10"/>
<path d="M67.883 31.7734L39.5388 37.2052C39.609 34.6625 39.8108 32.5274 40.017 30.9009C40.2144 29.3183 40.4118 28.3231 41.0786 27.2666C41.1664 27.1263 42.0876 25.754 43.4608 25.0658C43.509 25.2806 42.8729 26.2363 42.715 27.8847C42.5483 29.6909 43.0572 31.2604 43.6143 32.431C46.7203 31.5279 50.5677 30.673 55.0204 30.2521C59.89 29.7874 64.1585 29.9715 67.5759 30.3529L67.8786 31.7734H67.883Z" fill="#9F632F"/>
<path d="M68.0847 32.966C68.0847 32.966 68.076 32.9704 68.0674 32.9704" stroke="#8D0F3A" stroke-width="0.308447" stroke-miterlimit="10"/>
<path d="M84.2772 49.7305C79.5173 47.442 71.1821 44.2504 60.5086 44.2986C41.6972 44.3819 28.7557 54.474 24.8293 57.7972C24.9039 57.5911 24.9697 57.3807 25.0487 57.179C26.3692 53.4701 28.0713 50.9273 29.3918 49.2833C31.4975 46.666 33.8007 43.812 36.3451 42.3258C36.7049 42.1197 37.749 41.5366 38.543 40.3398C38.6878 40.1162 38.815 39.8926 38.9159 39.6734C39.2054 39.0596 39.3414 38.4941 39.4204 38.0776C39.4423 37.9373 39.4555 37.8146 39.473 37.7094C39.4994 37.5384 39.5213 37.3718 39.5389 37.2096C39.5696 36.9684 39.5959 36.7405 39.6222 36.5169C40.1837 31.6506 39.6266 29.5024 41.0787 27.2709C41.1664 27.1306 42.0877 25.7584 43.4608 25.0701C43.9258 24.8421 44.4347 24.6843 44.9875 24.6799C45.742 24.6755 46.2728 24.9517 46.8081 25.2104C47.4398 25.5129 53.5201 28.4283 55.1214 26.907C55.8321 26.2363 54.9766 25.3463 55.8671 24.1933C56.8411 22.9307 58.8766 22.6808 59.6356 22.5843C60.2322 22.5098 60.6753 22.5229 60.7762 22.5273C61.1096 22.5361 63.1539 22.6325 64.7113 23.8995C65.5887 24.6098 66.0756 25.5129 66.6679 27.2051C66.9662 28.06 67.2908 29.1078 67.5847 30.3529C67.6944 30.8001 67.7909 31.2735 67.8874 31.7733C67.9269 31.975 67.9664 32.1898 68.0015 32.409C68.0322 32.5932 68.0629 32.7773 68.0892 32.9658C68.1814 33.5796 68.2647 34.2196 68.3305 34.8948C70.3617 36.3152 72.4938 37.9505 74.6741 39.8356C78.5916 43.2157 81.7546 46.6265 84.2859 49.7305H84.2772Z" stroke="#8D0F3A" stroke-width="0.308447" stroke-miterlimit="10"/>
<path d="M39.42 38.0778C40.4378 37.5955 41.7013 37.0388 43.1753 36.4951C55.7834 31.848 68.2468 33.6762 68.3214 34.895C68.4004 36.162 54.9368 34.781 40.8765 42.9485C33.4011 47.2931 28.321 52.8389 25.0483 57.1748C26.3688 53.4659 28.071 50.9231 29.3914 49.2791C31.4972 46.6618 33.8003 43.8078 36.3448 42.3216C36.6124 42.1637 37.7267 41.5763 38.5427 40.3356C38.7181 40.0682 38.841 39.8314 38.9155 39.6692" fill="#9F632F"/>
<path d="M68.326 34.8946C66.1808 34.7631 63.7197 34.7192 61.0085 34.8464C58.2886 34.9691 55.3055 35.276 52.1293 35.8547C46.8781 36.8061 42.4341 38.2528 38.9114 39.6732C39.2009 39.0595 39.3369 38.4939 39.4159 38.0774C39.4378 37.9371 39.451 37.8144 39.4685 37.7092C39.4948 37.5382 39.5168 37.3716 39.5343 37.2094C39.565 36.9683 39.5914 36.7403 39.6177 36.5167C42.1884 34.6403 45.312 33.6758 48.4223 32.9919C54.7922 31.5759 61.3771 31.1681 67.8785 31.7731H67.9092L67.9926 32.4088L68.0672 32.97L68.3216 34.8946H68.326Z" fill="#3F0015"/>
<path d="M27.7291 88.1701C27.7291 88.1701 24.2721 80.1824 22.1006 75.9474C20.8854 73.5756 19.6483 71.309 18.4111 69.1564C19.9027 68.9022 21.0916 68.6128 21.9339 68.3805C22.8551 68.1262 23.386 67.9421 23.9914 68.1569C24.4432 68.3191 25.0311 68.7443 25.5136 70.0157C26.8648 73.6063 29.225 92.5849 29.225 92.5849L27.7334 88.1658L27.7291 88.1701Z" fill="#E6F29B"/>
<path d="M50.4969 109.082C50.4399 111.195 50.2118 113.953 49.466 119.429C48.9483 123.252 48.3693 127.048 48.0753 129.63C46.7856 129.315 45.3071 129.152 43.684 129.319C43.39 129.35 42.4732 129.455 41.3106 129.788C40.499 130.021 39.3979 130.419 38.1652 131.117C36.8491 129.188 35.0548 126.237 33.5501 122.375C31.8655 118.056 28.334 108.999 31.6724 99.2005C32.4577 96.8989 34.0984 93.1549 37.744 89.2838C38.5995 86.5656 39.5471 85.816 40.306 85.702C43.8814 85.1627 50.8128 97.3987 50.4969 109.078V109.082Z" fill="#CAD678" stroke="#8D0F3A" stroke-width="0.925341" stroke-miterlimit="10"/>
<path d="M47.6461 93.593C47.6461 98.7706 44.6322 102.497 40.9472 101.914C37.2972 101.34 34.3667 96.7495 34.3667 91.664C34.3667 86.5785 37.2972 82.8433 40.9472 83.3255C44.5971 83.8078 47.6461 88.4154 47.6461 93.593Z" fill="#CAD678"/>
<path d="M11.335 96.8197C11.4227 96.7846 11.8307 97.7272 12.8529 99.117C13.2082 99.5992 13.5328 99.9938 13.7917 100.292C13.9452 100.042 14.1251 99.6825 14.2348 99.2222C14.4278 98.4023 14.2918 97.7141 14.1909 97.3546C14.6822 98.1305 15.3403 99.3581 15.7 100.963C16.2352 103.348 15.8185 105.294 15.6868 106.013C15.2657 108.258 15.0814 111.901 16.2747 117.916C14.5813 114.637 14.0023 111.883 13.7829 109.976C13.4714 107.236 13.9364 106.495 13.4319 103.633C12.7607 99.7921 11.177 96.8898 11.335 96.8241V96.8197Z" fill="#D05B04"/>
<path d="M12.4407 94.2989C12.4495 95.053 12.4188 95.7545 12.3661 96.3945C11.3132 94.7549 9.79974 93.4134 8.04057 92.5672C9.50582 95.0179 10.4929 97.7448 10.9228 100.564C9.75149 98.4945 7.71155 96.9382 5.40839 96.3551C5.78128 96.7716 6.6499 97.8588 6.89557 99.5072C7.0886 100.792 6.80783 101.826 6.62358 102.357C6.42178 101.256 5.94799 99.573 4.72402 97.9377C4.29849 97.359 3.8554 96.8855 3.43426 96.5041C2.49544 99.95 2.93853 103.747 4.64506 106.89C3.05698 104.943 1.33728 103.115 -0.505241 101.41C0.0519028 102.576 0.635368 104.01 1.096 105.693C1.62244 107.6 1.85495 109.323 1.95146 110.726C0.841557 110.082 -1.04923 108.775 -2.51447 106.452C-3.28658 105.224 -3.72528 104.053 -3.98411 103.133C-4.42281 104.886 -4.83518 107.289 -4.78254 110.147C-4.72112 113.291 -4.11133 115.882 -3.53664 117.701C-4.34384 116.219 -5.49761 114.935 -6.87512 113.957C-6.93654 113.904 -7.00673 113.856 -7.07253 113.812C-7.12518 111.932 -7.59458 109.981 -8.90629 108.644C-10.6128 106.908 -13.2582 106.623 -15.5043 105.689C-19.8167 103.9 -22.7077 99.2442 -22.5849 94.6146C-22.5761 94.0885 -22.5234 93.5756 -22.4357 93.0583C-22.4357 94.6979 -21.4311 96.2104 -20.1369 97.2143C-18.834 98.2227 -17.2766 98.8058 -15.7368 99.3757C-17.5618 98.3805 -18.8954 96.5261 -19.242 94.4787C-18.1979 95.5046 -16.6361 95.8684 -15.1709 95.7676C-13.7056 95.6624 -12.3018 95.1582 -10.9243 94.6541C-11.4069 94.3779 -12.0386 94.071 -12.8063 93.8255C-13.6618 93.558 -14.4295 93.4484 -15.0217 93.409C-8.95893 89.1257 -1.01413 87.6001 6.20243 89.3493C8.04935 89.7921 9.86555 90.4497 11.4317 91.5282C11.7388 91.743 12.0371 91.9666 12.3091 92.199C12.3749 92.839 12.4232 93.5361 12.4319 94.2946L12.4407 94.2989Z" fill="#FCFFEB"/>
<path d="M81.0524 65.1888C81.0304 65.9998 80.8637 68.4812 79.008 70.7609C77.4287 72.7031 75.4941 73.4133 74.8185 73.65C73.6954 74.0446 71.5414 74.5707 65.6015 72.9267C60.517 71.5194 56.0993 69.4764 56.2309 69.1081C56.4459 68.5075 67.852 74.9653 75.9284 70.5023C78.6483 68.9985 80.2232 66.6794 81.0567 65.1888H81.0524Z" fill="#E0E5FF"/>
<path d="M70.4666 74.1017C71.809 74.2946 72.9934 74.2069 74.0288 73.8605C74.0288 73.8605 75.6388 73.4528 76.9373 72.6374C78.3806 71.7343 80.2802 69.0468 81.0479 65.1845" stroke="#8D0F3A" stroke-width="0.925341" stroke-miterlimit="10"/>
<path d="M70.3528 77.4378C69.6596 78.582 68.4532 79.2177 67.4135 79.1783C66.9002 79.1607 66.4308 79.0643 66.0097 78.9065C66.0097 78.9065 65.5798 78.7443 65.1718 78.4856C64.7243 78.205 63.3205 76.8416 61.3025 74.7416C59.9425 73.3256 58.3018 71.5763 56.4768 69.5816C59.4029 70.9012 62.5659 72.0849 65.9658 73.0231C67.0275 73.3212 68.1154 73.593 69.2253 73.8385C69.6772 73.9393 70.1247 74.0358 70.5765 74.1235C70.6423 74.2857 71.2872 75.8771 70.3528 77.429V77.4378Z" fill="#6A0C0D" stroke="#8D0F3A" stroke-width="0.308447" stroke-miterlimit="10"/>
<path d="M98.9957 46.4644C99.7589 46.4644 100.378 45.8462 100.378 45.0835C100.378 44.3208 99.7589 43.7025 98.9957 43.7025C98.2325 43.7025 97.6138 44.3208 97.6138 45.0835C97.6138 45.8462 98.2325 46.4644 98.9957 46.4644Z" fill="#6A0C0D" stroke="#8D0F3A" stroke-width="0.616894" stroke-miterlimit="10"/>
<path d="M103.457 46.8591C104.221 46.8591 104.839 46.2408 104.839 45.4781C104.839 44.7155 104.221 44.0972 103.457 44.0972C102.694 44.0972 102.075 44.7155 102.075 45.4781C102.075 46.2408 102.694 46.8591 103.457 46.8591Z" fill="#6A0C0D" stroke="#8D0F3A" stroke-width="0.616894" stroke-miterlimit="10"/>
<path d="M74.9022 60.8398C75.3058 60.5855 75.784 60.489 76.2578 60.4276C78.21 60.169 79.39 60.0068 80.6359 60.6512C81.0527 60.8661 82.2284 61.5017 82.3863 62.5846C82.5004 63.3869 82.0135 64.1629 81.3642 65.1931C81.1185 65.5789 80.9474 65.8595 80.6623 66.1664C80.4692 66.3768 78.9821 68.0603 77.3545 67.7052C75.6436 67.3326 75.2356 65.3773 74.5337 64.0577C73.9853 63.0186 73.6958 61.607 74.9066 60.8354L74.9022 60.8398Z" fill="#3F0015" stroke="#8D0F3A" stroke-width="0.616894" stroke-miterlimit="10"/>
<path d="M31.5461 52.909C31.3794 53.3606 31.1425 54.0489 30.9232 54.9081C30.6249 56.0831 30.5766 56.7275 30.4099 57.6526C30.3134 58.2006 30.0151 59.849 29.3482 61.4185C28.971 62.3084 28.2822 63.6193 27.0012 65.0178C27.6461 64.6802 28.6463 64.0577 29.5457 63.0011C31.7348 60.4364 31.0723 57.9419 32.7789 55.3422C33.336 54.4916 34.2748 53.4307 37.3764 51.8656C48.1069 46.4425 60.5177 46.0435 60.5177 46.0435C70.5375 45.7191 77.096 47.3807 77.1311 47.1483C77.175 46.8678 67.6333 43.5227 55.7534 44.5354C44.2157 45.5175 35.7839 50.1602 31.5505 52.909H31.5461Z" fill="#D54A0E"/>
<path d="M84.2771 49.7305C79.4559 47.4376 71.1382 44.2942 60.5086 44.2986C41.7981 44.2986 28.7952 54.0269 24.6846 57.3894C26.1805 53.6279 27.9923 51.0018 29.3962 49.2833C32.489 45.4955 34.1999 43.7331 36.3495 42.3258C36.8716 41.9838 38.1262 41.2035 38.9203 39.6734C39.4906 38.5774 39.552 37.6173 39.6266 36.5169C40.096 29.7128 40.3241 28.4765 41.0831 27.2709C41.1708 27.1306 42.0921 25.7584 43.4652 25.0701C43.9302 24.8421 44.4391 24.6843 44.9918 24.6799C45.9043 24.6711 46.5843 25.0789 46.8124 25.2104C48.4532 26.1486 53.678 28.2792 55.1257 26.907C55.8364 26.2319 54.981 25.3463 55.8715 24.1933C56.8454 22.9307 58.881 22.6808 59.6399 22.5843C60.2366 22.5098 60.6796 22.5229 60.7805 22.5273C62.4125 22.615 63.847 23.2463 64.7157 23.8995C66.3476 25.1271 66.7731 26.9158 67.5891 30.3529C68.0278 32.203 68.2296 33.7768 68.3349 34.8904C70.3661 36.3108 72.4981 37.9461 74.6785 39.8312C78.596 43.2114 81.759 46.6222 84.2903 49.7261L84.2771 49.7305Z" stroke="#8D0F3A" stroke-width="0.925341" stroke-miterlimit="10"/>
<path d="M54.4808 70.6116C54.4589 70.5108 54.2351 69.4455 55.0029 68.5906C55.775 67.7313 56.8586 67.8365 56.9595 67.8497" stroke="#8D0F3A" stroke-width="0.616894" stroke-miterlimit="10"/>
<path d="M69.9846 77.1397C69.2914 78.284 68.085 78.9197 67.0453 78.8802C66.532 78.8627 66.0626 78.7662 65.6415 78.6084C65.4441 78.5295 65.1414 78.3936 64.8036 78.1875C63.7858 77.5694 63.255 76.8285 62.79 76.2541C62.3118 75.6667 61.5704 74.8512 60.4736 73.9657C60.7369 73.7508 61.0571 73.5448 61.4431 73.3826C63.2023 72.6461 64.9527 73.4308 65.4134 73.6544C65.5976 73.2686 65.9661 73.0055 66.3829 72.9792C66.9181 72.9442 67.2647 73.3081 67.3085 73.3563C68.2781 73.5141 69.2476 73.6719 70.2127 73.8298C70.2127 73.8298 70.9234 75.5834 69.989 77.1353L69.9846 77.1397Z" fill="#B73A40"/>
<path d="M70.353 77.4375C69.6599 78.5818 68.4534 79.2174 67.4137 79.178C66.9004 79.1604 66.431 79.064 66.0099 78.9062C65.8125 78.8273 65.5098 78.6914 65.172 78.4853C64.1542 77.8671 63.6234 77.1262 63.1584 76.5519C62.6802 75.9645 61.9388 75.149 60.842 74.2634C61.1886 73.9697 61.5264 73.7944 61.8116 73.6804C63.755 72.9175 65.7423 74.2591 66.0318 74.4651C66.0099 73.9566 66.295 73.4875 66.7469 73.277C67.1681 73.0841 67.6638 73.1455 68.0367 73.4349C68.8834 73.6672 69.7344 73.8952 70.5811 74.1275C70.5811 74.1275 71.2918 75.8812 70.3574 77.4331L70.353 77.4375Z" fill="#F48888"/>
<path d="M70.3528 77.4378C69.6596 78.582 68.4532 79.2177 67.4135 79.1783C66.9002 79.1607 66.4308 79.0643 66.0097 78.9065C66.0097 78.9065 65.5798 78.7443 65.1718 78.4856C64.7243 78.205 63.3205 76.8416 61.3025 74.7416C59.9425 73.3256 58.3018 71.5763 56.4768 69.5816C59.4029 70.9012 62.5659 72.0849 65.9658 73.0231C67.0275 73.3212 68.1154 73.593 69.2253 73.8385C69.6772 73.9393 70.1247 74.0358 70.5765 74.1235C70.6423 74.2857 71.2872 75.8771 70.3528 77.429V77.4378Z" stroke="#8D0F3A" stroke-width="0.925341" stroke-miterlimit="10"/>
<path d="M65.9568 73.6631C66.8606 75.4474 67.2422 76.3812 67.1062 76.4645C67.0887 76.4733 67.0624 76.4733 67.0273 76.4558C66.8386 75.9691 66.6368 75.4825 66.3604 75.0441C66.0841 74.6013 65.7243 74.2024 65.2812 73.9305C65.505 73.8429 65.7331 73.7552 65.9568 73.6675V73.6631Z" fill="#B73A40"/>
<path d="M54.555 53.7903C55.3957 53.7903 56.0773 53.1092 56.0773 52.269C56.0773 51.4288 55.3957 50.7477 54.555 50.7477C53.7143 50.7477 53.0327 51.4288 53.0327 52.269C53.0327 53.1092 53.7143 53.7903 54.555 53.7903Z" fill="#FCFFEB"/>
<path d="M74.2176 51.5542C74.8209 51.5542 75.31 51.0654 75.31 50.4625C75.31 49.8597 74.8209 49.3709 74.2176 49.3709C73.6143 49.3709 73.1252 49.8597 73.1252 50.4625C73.1252 51.0654 73.6143 51.5542 74.2176 51.5542Z" fill="#FCFFEB"/>
<path opacity="0.6" d="M78.1704 62.8345C79.3334 62.8345 80.2762 62.5597 80.2762 62.2207C80.2762 61.8817 79.3334 61.6069 78.1704 61.6069C77.0075 61.6069 76.0647 61.8817 76.0647 62.2207C76.0647 62.5597 77.0075 62.8345 78.1704 62.8345Z" fill="#D54A0E"/>
<path d="M45.6541 123.803C46.9263 121.134 49.5629 114.597 47.9222 106.701C47.3124 103.768 46.2595 101.366 45.2549 99.5551C48.3696 107.043 48.1942 116.201 45.6541 123.808V123.803Z" fill="#E6F29B"/>
<path d="M70.2562 27.8582C70.4711 27.4899 71.3792 25.9687 72.9498 24.2589C75.2047 21.8038 77.7184 20.1729 79.6487 19.1427C78.938 19.7652 77.9509 20.6508 76.8191 21.7687C75.4679 23.1015 74.7923 23.7679 74.2571 24.5088C72.8489 26.4553 73.1033 27.2707 71.91 28.7262C71.3485 29.4145 70.3878 30.3352 68.7339 31.0717C69.0541 30.2037 69.5323 29.0857 70.2518 27.8582H70.2562Z" fill="#D05B04"/>
<path d="M33.2827 29.1429C35.0594 31.427 36.4632 34.0048 38.4637 36.1004C35.2393 34.6975 32.4535 32.3125 30.5715 29.3445C29.4134 27.5164 28.4789 25.4339 26.4609 24.4081C29.0492 24.2415 31.8525 27.3059 33.2827 29.1472V29.1429Z" fill="#D05B04"/>
<path opacity="0.65" d="M78.6049 46.14C76.4114 44.7897 72.6079 42.8432 67.5102 42.0979C60.8289 41.1203 55.4856 42.7248 52.9148 43.6937C56.5253 43.0756 61.5791 42.6196 67.5102 43.3825C71.9762 43.9524 75.7226 45.0572 78.6049 46.1444V46.14Z" fill="#E4AA52"/>
<path d="M71.1864 136.053C82.0836 116.658 75.6655 95.2548 74.538 91.4933V91.4889C76.4814 94.6718 81.7677 103.738 82.7899 111.664C83.0224 113.457 83.1496 115.527 83.1496 115.527C83.3163 118.758 83.1058 121.73 82.8382 127.009C82.5793 132.129 82.7855 139.416 84.9658 148.473C82.1319 149.481 79.0566 150.428 75.7576 151.257C67.3258 153.374 59.6179 154.146 53.1121 154.278C63.7329 147.899 68.9227 140.073 71.1864 136.049V136.053Z" fill="#8E9751"/>
<path d="M65.7114 128.46C68.7604 122.993 70.0545 118.201 70.6687 114.983C70.6687 114.983 72.1603 105.658 70.2651 93.9484C70.1554 93.2688 69.4798 90.4324 68.892 86.513C68.6595 84.9786 68.5059 83.716 68.4094 82.9137C68.7823 82.9093 69.3175 82.9531 69.8615 83.2337C70.7652 83.6984 71.1249 84.527 71.8663 86.136C73.1824 88.9856 73.2 88.8848 73.3711 89.3407C73.7308 90.2877 76.6657 98.7226 74.2221 110.169C72.4059 118.675 68.4708 124.865 65.7114 128.46Z" fill="#E6F29B"/>
<path d="M28.186 131.822C22.1188 133.484 14.7969 134.781 7.51017 134.29C5.49655 134.154 3.21971 133.747 0.688428 132.493C-3.99247 130.169 -7.20373 125.141 -7.33972 119.915C-7.36605 118.744 -7.25637 117.574 -7.16863 116.403C-7.10283 115.623 -7.05018 114.843 -7.06334 114.058C-7.06334 113.975 -7.06335 113.896 -7.06773 113.812C-7.07651 113.47 -7.09844 113.124 -7.14231 112.778C-7.31779 111.239 -7.82668 109.735 -8.90148 108.644C-9.16032 108.38 -9.44547 108.144 -9.74817 107.942C-11.4064 106.802 -13.5912 106.478 -15.4995 105.693C-20.2944 103.698 -23.3302 98.1656 -22.4265 93.0625C-22.4265 94.6978 -21.4263 96.2103 -20.1277 97.2143C-18.8292 98.2226 -17.2674 98.8057 -15.7276 99.38C-17.5526 98.3848 -18.8862 96.5304 -19.2328 94.4786C-18.1887 95.5045 -16.6269 95.8684 -15.1661 95.7675C-13.6964 95.6667 -12.297 95.1625 -10.9195 94.6583C-11.4021 94.3822 -12.0338 94.0709 -12.8015 93.8298C-13.657 93.5579 -14.4203 93.4527 -15.0169 93.4133C-8.95851 89.13 -1.00933 87.6044 6.20724 89.3536C8.05415 89.7964 9.87036 90.454 11.4365 91.5325C11.7436 91.7429 12.0375 91.9665 12.3139 92.2033C16.5956 95.7851 17.337 101.66 17.5826 103.431C18.2363 108.139 17.0255 110.288 17.1878 113.698C17.2317 114.65 17.122 115.904 17.7932 117.232C18.9645 119.534 21.4256 120.406 22.4127 120.752C24.8343 121.612 27.2647 121.397 29.2651 120.858" stroke="#8D0F3A" stroke-width="0.925341" stroke-miterlimit="10"/>
<path d="M69.7305 113.729C69.634 116.496 69.0593 118.894 68.2433 121.103C68.2258 121.16 68.2039 121.217 68.1819 121.274C65.4181 119.582 63.4484 117.671 62.6851 115.426C60.961 105.698 60.3775 96.8813 61.7375 89.6213C61.2988 88.8891 60.8601 88.1526 60.4214 87.4161C60.9654 87.0917 61.5401 86.7103 62.1323 86.2762C62.4964 86.0088 62.8342 85.7414 63.1501 85.4783C63.2071 85.4345 63.2641 85.3863 63.3212 85.338C63.6195 85.6975 63.9617 86.079 64.3653 86.4691C64.7645 86.8593 65.1549 87.1969 65.519 87.4906C65.2032 88.1877 64.8873 88.8848 64.5715 89.5862C64.4135 97.1706 66.4973 105.307 69.7305 113.729Z" fill="#B73A40"/>
<path d="M68.2433 121.103C68.2258 121.16 68.2039 121.217 68.1819 121.274C65.4181 119.582 63.4484 117.67 62.6851 115.426C60.961 105.697 60.3775 96.881 61.7375 89.621C61.2988 88.8889 60.8601 88.1524 60.4214 87.4158C60.9654 87.0914 61.5401 86.71 62.1323 86.276C62.4964 86.0086 62.8342 85.7411 63.1501 85.4781C62.4218 86.1225 61.7945 86.8328 61.3909 87.6614C61.4699 87.9112 61.6015 88.205 61.8252 88.4856C62.6719 89.5334 64.3302 89.4764 64.3302 89.4764C64.2249 89.7438 62.7947 89.906 62.5227 89.7701C62.5227 89.7701 61.3777 101.134 62.299 105.184C62.9965 109.446 64.6109 115.084 68.2433 121.103Z" fill="#6A0C0D"/>
<path d="M69.7305 113.729C69.634 116.496 69.0593 118.894 68.2433 121.103C68.2258 121.16 68.2039 121.217 68.1819 121.274C67.4098 120.924 65.949 120.134 64.6811 118.556C63.3475 116.895 62.9132 115.207 62.7509 114.369C61.9393 110.902 61.2242 106.583 61.0531 101.599C60.8952 96.9997 61.2374 92.9488 61.7375 89.6213C61.2988 88.8891 60.8601 88.1526 60.4214 87.4161C60.9654 87.0917 61.5401 86.7103 62.1323 86.2762C62.4964 86.0088 62.8342 85.7414 63.1501 85.4783C63.2071 85.4345 63.2641 85.3863 63.3212 85.338C63.6195 85.6975 63.9617 86.079 64.3653 86.4691C64.7645 86.8593 65.1549 87.1969 65.519 87.4906C65.2032 88.1877 64.8873 88.8848 64.5715 89.5862C64.4135 97.1706 66.4973 105.307 69.7305 113.729Z" stroke="#8D0F3A" stroke-width="0.925341" stroke-miterlimit="10"/>
<path d="M84.97 148.477C77.85 151.002 67.273 153.865 54.2086 154.255C45.6189 154.514 38.0602 153.637 31.8965 152.432C29.3608 151.936 27.0664 151.388 25.0265 150.84C26.9962 141.721 27.9921 134.04 28.5404 128.525C30.2031 111.747 31.392 98.3453 25.8205 83.7595C23.2147 76.9379 19.9069 71.8962 17.7222 68.9107C19.7928 68.5906 22.2013 68.3495 24.8773 68.3144C27.6016 68.2794 30.0452 68.4679 32.1509 68.7441C31.8526 69.6954 31.4709 71.3351 31.664 73.3737C31.8614 75.4824 32.5808 77.0694 33.0634 77.955C34.5155 77.2886 36.5335 76.5565 39.0209 76.2101C43.0876 75.6446 46.4217 76.3943 48.3476 76.9905C47.751 78.1348 47.0929 79.6736 46.6411 81.5675C46.0751 83.9568 46.0532 86.0348 46.1541 87.5167C49.6637 91.0809 53.941 96.1664 57.6918 102.949C63.022 112.576 65.0444 121.55 65.8823 127.513C67.5537 125.036 69.6463 121.287 70.6641 116.425C73.4805 103.019 67.5143 84.3952 68.2337 83.2816C68.7558 83.0975 69.2822 82.909 69.8043 82.7249C71.0414 84.8818 72.8444 88.1348 74.8712 92.1681C79.4687 101.313 81.8596 105.868 82.7853 111.673C83.6583 117.162 82.7853 118.201 82.8379 127.017C82.8686 132.335 83.281 139.661 84.9656 148.482L84.97 148.477Z" stroke="#8D0F3A" stroke-width="0.925341" stroke-miterlimit="10"/>
<path d="M65.4832 87.4376C65.8517 87.6875 66.2728 87.9461 66.7422 88.196C67.3213 88.5029 67.8697 88.744 68.3654 88.9325C68.5146 88.4941 68.6681 88.0513 68.8216 87.6129" stroke="#8D0F3A" stroke-width="0.925341" stroke-miterlimit="10"/>
<path d="M60.4206 87.4157C59.4379 87.9199 58.4596 88.4284 57.4769 88.9326L48.9136 84.2504" stroke="#8D0F3A" stroke-width="0.925341" stroke-miterlimit="10"/>
</g>
</svg>
