<svg width="95" height="95" viewBox="0 0 95 95" fill="none" xmlns="http://www.w3.org/2000/svg">
<circle cx="47.5" cy="47.5" r="47.5" fill="#BBB9B9"/>
<circle cx="47.5" cy="47.5" r="47.5" fill="#4C4C4C"/>
<mask id="mask0_1683_24290" style="mask-type:alpha" maskUnits="userSpaceOnUse" x="6" y="6" width="83" height="83">
<circle cx="47.5004" cy="47.4994" r="40.7143" fill="#BBB9B9"/>
<circle cx="47.5004" cy="47.4994" r="40.7143" fill="#E6E6E6"/>
</mask>
<g mask="url(#mask0_1683_24290)">
<circle cx="47.5004" cy="47.4994" r="40.7143" fill="#EFEFEF"/>
<rect x="-26.2939" y="-15.2686" width="147.591" height="124.689" fill="#FFD646"/>
<path d="M64.1759 73.6524C64.3542 70.5983 56.9361 67.6814 47.607 67.1373C38.2779 66.5933 30.5706 68.628 30.3923 71.6821C30.2139 74.7361 37.632 77.653 46.9611 78.1971C56.2902 78.7412 63.9975 76.7064 64.1759 73.6524Z" fill="#F36B21" stroke="#231F20" stroke-width="0.261632" stroke-miterlimit="10"/>
<path d="M28.7435 112.499C28.2851 112.658 27.8077 112.809 27.3189 112.964C21.6131 114.774 14.0205 116.485 6.48463 115.978C4.7456 115.861 2.77546 115.505 0.593138 114.426C-3.45324 112.419 -6.22282 108.076 -6.34027 103.563C-6.363 102.552 -6.26828 101.541 -6.19251 100.53C-6.13946 99.8563 -6.094 99.1824 -6.10157 98.5046C-6.10157 98.4327 -6.10158 98.3646 -6.10536 98.2926C-6.11294 97.9973 -6.13189 97.6944 -6.16977 97.3991C-6.32132 96.0701 -6.76461 94.7714 -7.68906 93.8286C-7.9126 93.6015 -8.16265 93.397 -8.42029 93.2228C-9.85243 92.2384 -11.743 91.9582 -13.3873 91.2767C-17.5322 89.5578 -20.1502 84.7795 -19.3736 80.3686C-19.3736 81.7846 -18.5059 83.0909 -17.3882 83.9579C-16.263 84.8288 -14.918 85.3323 -13.5881 85.8245C-15.1643 84.9651 -16.316 83.3635 -16.6153 81.5953C-15.7136 82.4813 -14.3648 82.7955 -13.0994 82.7085C-11.8339 82.6176 -10.6215 82.1822 -9.43188 81.7468C-9.69709 81.4931 -10.2578 81.0236 -11.1179 80.7737C-11.9287 80.5389 -12.6182 80.6109 -12.9744 80.6715C-10.8148 79.1759 -8.84842 78.3353 -7.49962 77.8583C-7.49962 77.8583 -1.32397 75.6698 5.35559 77.1654C6.35582 77.3888 8.06454 77.7939 9.87177 79.0472C10.137 79.2327 10.3946 79.4258 10.6295 79.6265C14.3273 82.7198 14.9676 87.7972 15.176 89.323C15.7405 93.3932 14.6986 95.2447 14.835 98.1904C14.8729 99.0082 14.7782 100.095 15.3579 101.238C16.3695 103.226 18.495 103.98 19.3436 104.282C23.8447 105.876 28.3609 103.177 29.202 102.654C29.0466 105.933 28.8913 109.216 28.7322 112.495L28.7435 112.499Z" fill="#F36B21" stroke="#231F20" stroke-width="0.261632" stroke-miterlimit="10"/>
<path d="M70.1712 68.4683C69.1709 70.9142 67.1932 74.7913 63.2188 78.6797C61.2449 74.636 59.2747 70.5961 57.3008 66.5524C58.4336 64.9243 59.6422 62.9593 60.7675 60.6573C62.1428 57.8327 63.0483 55.2089 63.6583 52.9863C64.5183 53.1416 69.7051 54.1676 71.5844 58.3136C73.0241 61.4902 71.7094 64.7047 70.1712 68.4683Z" fill="#867640" stroke="#231F20" stroke-width="0.261632" stroke-miterlimit="10"/>
<path d="M31.8952 60.3011C32.6226 65.1702 35.1725 68.4036 36.328 69.7023C32.3574 70.115 28.3868 70.5277 24.42 70.9442C23.4728 69.2025 22.2566 67.2413 20.6995 65.2043C18.7899 62.7129 16.8501 60.7252 15.1338 59.1842C19.3204 55.095 27.3525 52.9596 32.4484 52.5469C31.9823 54.1409 31.3989 56.9162 31.9028 60.3011H31.8952Z" fill="#867640" stroke="#231F20" stroke-width="0.784896" stroke-miterlimit="10"/>
<path d="M73.8446 44.5166C73.7196 47.6327 59.6179 49.3744 47.1226 50.9191C34.6501 52.4601 21.757 54.0504 20.8931 51.1993C19.9876 48.212 32.1836 39.9504 45.7852 38.1368C59.724 36.2778 73.9735 41.3513 73.8446 44.5166Z" fill="#C25E2A" stroke="#231F20" stroke-width="0.523264" stroke-miterlimit="10"/>
<path d="M63.3771 85.0362C67.1015 85.3354 69.8862 81.746 74.2736 76.0894C77.8047 71.5345 80.0173 67.3507 81.3131 64.5792C82.9081 62.5233 84.6509 59.9183 86.2271 56.7492C88.6064 51.9672 89.7809 47.5525 90.3909 44.1903C90.6031 44.2812 91.9594 44.8264 93.259 44.1335C94.2857 43.5883 95.3845 42.2101 94.8578 40.9644C94.4638 40.0368 93.2855 39.4537 92.02 39.6619C92.2966 38.3822 91.5995 37.1138 90.4591 36.6897C89.474 36.3263 88.3147 36.6557 87.6137 37.5189C86.8219 36.3149 85.4579 35.8303 84.4842 36.2392C83.0824 36.8223 83.1733 38.9577 83.1885 39.2644C83.2339 40.298 83.6772 41.0666 83.9311 41.4377C82.3701 43.2399 80.3356 45.8827 78.4753 49.3661C75.9406 54.114 75.755 56.1132 73.0574 60.615C70.6818 64.583 68.2457 67.2523 67.647 67.8656C61.5926 74.0448 56.7279 73.7646 56.1899 77.1344C55.6746 80.383 59.5467 84.7296 63.3771 85.0362Z" fill="#F36B21" stroke="#231F20" stroke-width="0.784896" stroke-miterlimit="10"/>
<path d="M91.7012 46.6332C90.4737 49.8666 88.7498 53.6226 86.3022 57.5868C84.6428 60.2712 82.9378 62.596 81.3125 64.58C80.2213 67.7604 78.2246 72.3569 74.5306 77.0935C72.0187 80.3118 69.3893 82.7388 67.1236 84.5183C66.3848 85.09 65.6953 85.5974 65.0512 86.0404C63.6493 83.2688 62.2437 79.7969 61.2852 75.6812C60.9139 74.0759 60.6487 72.5462 60.4668 71.115C63.0053 69.2333 64.8542 67.8702 65.9188 67.0902C68.3133 65.3334 69.5825 64.2809 71.3102 62.6263C71.5224 62.4256 72.3445 61.5358 73.0492 60.6196C75.9135 56.9204 76.084 53.5317 77.5654 49.5675C78.2891 47.6365 79.5621 44.918 81.9641 41.9004C84.9118 43.3392 87.8632 44.7704 90.8071 46.2053C91.1026 46.3492 91.3943 46.4931 91.6936 46.637L91.7012 46.6332Z" fill="#AC9955" stroke="#231F20" stroke-width="0.261632" stroke-miterlimit="10"/>
<path d="M66.5361 84.6584C68.8434 83.0076 71.757 80.5617 74.5341 77.0935C78.3039 72.3872 80.2703 67.7453 81.316 64.58C82.9375 62.596 84.6463 60.275 86.3057 57.5868C88.7495 53.6226 90.4772 49.8666 91.7047 46.6332C90.9318 46.2546 90.1627 45.8797 89.3898 45.5049C88.7154 48.1287 87.6091 51.4417 85.7336 55.0348C83.7711 58.7908 81.5622 61.6873 79.7247 63.7735C79.6982 63.8227 79.6527 63.9098 79.5845 64.031C76.4095 69.9034 74.8183 72.834 73.5756 74.3522C70.071 78.6231 66.2822 81.8528 66.2822 81.8528C66.2822 81.8528 66.3201 83.9882 66.5399 84.6584H66.5361Z" fill="#8D7F45"/>
<path d="M91.7017 46.6634C90.4741 49.9157 88.7502 53.6906 86.3027 57.6813C84.6432 60.3809 82.9383 62.717 81.3129 64.7162C80.2218 67.9155 78.2251 72.5385 74.5311 77.3016C72.0191 80.5388 69.3897 82.981 67.1241 84.7681C66.3853 85.3436 65.6957 85.8509 65.0516 86.2977C62.4109 82.6591 58.0197 75.7493 60.3271 72.0615C61.1833 70.6908 63.4111 69.1006 65.9192 67.234C68.7494 65.1289 69.8482 64.152 71.3106 62.7435C71.5228 62.5391 72.345 61.6455 73.0497 60.7255C75.914 57.0036 76.0845 53.596 77.5659 49.6091C78.2895 47.6667 79.5625 44.933 81.9646 41.8965C84.9122 43.3428 87.8637 44.7816 90.8075 46.2279C91.103 46.3718 91.3948 46.5157 91.6941 46.6634H91.7017Z" stroke="#231F20" stroke-width="0.784896" stroke-miterlimit="10"/>
<path d="M69.4004 39.6623C69.3133 39.8138 69.2224 39.9614 69.1276 40.1091L25.8071 50.6046C25.6935 49.9457 25.4851 49.0976 25.0835 48.17C24.7122 47.3143 24.284 46.629 23.909 46.1179C22.5867 44.5239 18.923 39.6813 18.4645 32.4192C18.0288 25.5586 20.7037 20.5267 21.7835 18.7131C23.6059 19.6142 25.7313 20.8712 27.9023 22.6205C32.0169 25.9296 34.5515 29.5871 36.0405 32.1959C37.9841 31.4159 41.6024 28.9662 45.3192 28.7504C48.8048 28.5497 54.7834 28.5383 56.7498 29.0419C58.4661 22.8363 63.3157 17.5885 69.3625 15.3774C69.461 15.3395 69.5596 15.3017 69.6618 15.2676C73.9431 22.6507 73.8219 32.3624 69.4004 39.6623Z" fill="#F36B21" stroke="#231F20" stroke-width="0.784896" stroke-miterlimit="10"/>
<path d="M69.1169 39.666C69.0411 39.5751 68.9388 39.4426 68.8138 39.2836C68.2455 38.5415 68.2 38.3787 68.2152 38.2764C68.2531 38.0152 68.4501 37.8069 68.6168 37.5987C68.829 37.3337 69.1434 36.7316 69.7155 35.4746C70.0414 34.759 71.034 32.1124 71.087 28.1407C71.1211 25.5319 70.7385 23.3965 70.3255 21.1058C70.2422 20.6363 69.8709 19.1143 69.6208 17.0205C69.5564 16.4753 69.5147 16.0247 69.4882 15.7256C70.5301 17.6452 72.5268 21.9388 72.4396 27.7318C72.3525 33.5398 70.2156 37.7804 69.1169 39.666Z" fill="#DA4D1F"/>
<path d="M71.7309 53.3087C72.0264 51.8207 72.7046 49.8859 74.3413 48.4472C74.4815 48.3222 74.6255 48.2086 74.7694 48.0988C73.9624 48.0231 72.7804 47.8111 71.5301 47.175C69.1129 45.9445 68.2793 44.0438 66.0402 40.6286C64.0776 37.6337 62.7174 35.4074 60.6753 33.6354C58.0232 31.3409 55.3673 30.1634 53.6586 29.5614C51.8778 29.1487 48.9643 28.7209 45.4749 29.3456C43.1713 29.7583 41.3148 30.508 39.9774 31.1743C38.0186 32.2042 35.2983 33.9156 32.6575 36.6757C30.9905 38.4174 28.2247 41.3972 26.6789 46.1262C26.1447 47.7581 26.0045 49.4354 25.637 51.0975C25.171 53.2065 23.807 55.3949 22.1172 56.7504C22.9318 56.7012 23.6934 56.3604 24.436 56.0234C22.7992 57.8749 21.746 60.2262 21.458 62.6796C22.1589 61.362 23.3334 60.3095 24.7125 59.7377C24.7542 62.1344 23.6062 64.5235 21.7119 65.9964C22.6704 65.6443 23.6365 65.2884 24.6027 64.9287C26.66 64.1601 28.6983 63.3877 30.7101 62.6039" fill="#F36B21"/>
<path d="M71.7309 53.3087C72.0264 51.8207 72.7046 49.8859 74.3413 48.4472C74.4815 48.3222 74.6255 48.2086 74.7694 48.0988C73.9624 48.0231 72.7804 47.8111 71.5301 47.175C69.1129 45.9445 68.2793 44.0438 66.0402 40.6286C64.0776 37.6337 62.7174 35.4074 60.6753 33.6354C58.0232 31.3409 55.3673 30.1634 53.6586 29.5614C51.8778 29.1487 48.9643 28.7209 45.4749 29.3456C43.1713 29.7583 41.3148 30.508 39.9774 31.1743C38.0186 32.2042 35.2983 33.9156 32.6575 36.6757C30.9905 38.4174 28.2247 41.3972 26.6789 46.1262C26.1447 47.7581 26.0045 49.4354 25.637 51.0975C25.171 53.2065 23.807 55.3949 22.1172 56.7504C22.9318 56.7012 23.6934 56.3604 24.436 56.0234C22.7992 57.8749 21.746 60.2262 21.458 62.6796C22.1589 61.362 23.3334 60.3095 24.7125 59.7377C24.7542 62.1344 23.6062 64.5235 21.7119 65.9964C22.6704 65.6443 23.6365 65.2884 24.6027 64.9287C26.66 64.1601 28.6983 63.3877 30.7101 62.6039" stroke="#231F20" stroke-width="0.784896" stroke-miterlimit="10"/>
<path d="M25.4089 43.316C20.8321 42.112 20.5328 34.0284 20.4987 33.1273C20.3548 29.394 21.605 26.471 22.4007 24.9414C23.8707 26.5619 25.4279 28.0991 26.9131 29.7007C26.9131 29.7045 26.9169 29.7007 26.9169 29.7007C27.3753 30.174 27.8299 30.6851 28.2808 31.2341C30.7056 34.1836 32.1302 37.2618 32.9902 39.8668C32.7743 40.1167 29.0764 44.2815 25.4089 43.316Z" fill="#F6927F" stroke="#231F20" stroke-width="0.784896" stroke-miterlimit="10"/>
<path d="M61.1454 32.4115C61.8198 29.4885 63.2292 26.7359 65.2183 24.4945C65.5517 24.1159 65.9041 23.7524 66.2678 23.4078C67.4991 22.2417 68.8896 21.2648 70.2649 20.2842C70.7612 21.6889 71.3371 23.7978 71.4318 26.4065C71.4432 26.7132 71.4887 28.1709 71.2424 29.9959C70.6703 34.2516 68.8669 37.8637 67.5067 40.1279L61.1416 32.4115" fill="#F6927F"/>
<path d="M61.1454 32.4115C61.8198 29.4885 63.2292 26.7359 65.2183 24.4945C65.5517 24.1159 65.9041 23.7524 66.2678 23.4078C67.4991 22.2417 68.8896 21.2648 70.2649 20.2842C70.7612 21.6889 71.3371 23.7978 71.4318 26.4065C71.4432 26.7132 71.4887 28.1709 71.2424 29.9959C70.6703 34.2516 68.8669 37.8637 67.5067 40.1279L61.1416 32.4115" stroke="#231F20" stroke-width="0.523264" stroke-miterlimit="10"/>
<path d="M66.401 23.8092C66.795 23.8698 67.5376 23.9304 68.3977 23.6578C69.4282 23.3322 70.0685 22.715 70.3451 22.4121C70.3867 22.8172 70.4133 23.6123 70.0344 24.487C69.8146 24.9905 69.5305 25.3578 69.307 25.6039C69.5305 25.5623 69.7768 25.5093 70.0344 25.4335C70.4057 25.3237 70.7277 25.195 71.0005 25.0625C70.6406 25.7137 70.1367 26.4823 69.4358 27.2661C68.9887 27.7621 68.5454 28.1748 68.1362 28.5155C68.3711 28.595 68.9546 28.7541 69.6555 28.5761C70.1822 28.4398 70.5421 28.171 70.7277 28.012C70.6292 28.7048 70.3602 29.8861 69.5381 31.0826C69.0796 31.7528 68.5757 32.2374 68.1627 32.5744C68.4393 32.563 68.7348 32.5403 69.0493 32.4987C69.4774 32.4419 69.8677 32.3623 70.2125 32.2753C69.8563 32.8546 69.2615 33.6648 68.3181 34.4031C66.8784 35.5314 65.4045 35.8835 64.6316 36.0123C63.6693 35.3232 63.1692 34.5887 62.8926 34.0131C61.5362 31.2265 62.9343 27.1411 66.3972 23.8168L66.401 23.8092Z" fill="#DD7162"/>
<path d="M65.2189 24.4944C65.6091 24.6307 66.2683 24.8011 67.0905 24.7405C68.1741 24.661 68.9546 24.218 69.3221 23.9795C68.9659 24.8995 68.2991 25.6947 67.4504 26.1982C67.6588 26.2664 67.9392 26.3307 68.2764 26.3383C68.822 26.3573 69.2577 26.2209 69.5191 26.1149C69.1213 26.5579 68.6439 27.0388 68.0794 27.5196C67.4201 28.0838 66.7798 28.5381 66.2077 28.894C66.5373 29.0833 67.0867 29.3446 67.8179 29.4468C68.4393 29.5339 68.9621 29.4771 69.3107 29.409C68.7159 31.1241 67.3671 32.5629 65.6924 33.2634C66.0789 33.2747 66.4919 33.2709 66.9276 33.252C67.5527 33.2217 68.1286 33.1573 68.6515 33.0778C68.1779 33.517 67.5792 34.0017 66.8366 34.4636C65.7341 35.1489 64.6922 35.5427 63.8814 35.7774C62.6122 35.5805 62.0136 35.077 61.7105 34.6946C60.2404 32.8507 61.4945 28.6744 65.2151 24.4982L65.2189 24.4944Z" fill="white" stroke="#231F20" stroke-width="0.523264" stroke-miterlimit="10"/>
<path d="M32.3695 36.2391C30.4183 33.9712 28.467 31.7032 26.5158 29.4352C25.8528 28.9468 25.1633 28.4016 24.4548 27.7844C23.9206 27.3187 23.4242 26.8568 22.9658 26.4062C22.9544 26.9515 22.9961 27.7087 23.231 28.572C23.4508 29.386 23.7652 30.0259 24.0342 30.4802C23.7842 30.2985 23.4432 30.0032 23.1401 29.5564C22.693 28.8976 22.5642 28.2501 22.5225 27.8942C22.3444 28.3486 21.7913 29.9312 22.4088 31.7865C22.89 33.2328 23.8258 34.0847 24.2426 34.4179C23.9547 34.4672 23.5985 34.505 23.1931 34.4899C22.5566 34.4634 22.0375 34.3195 21.6738 34.187C21.8443 34.6489 22.1891 35.4024 22.8938 36.1028C23.3106 36.5193 23.7349 36.7957 24.0683 36.9774C23.9509 37.0607 23.7955 37.1554 23.5985 37.2273C23.178 37.3863 22.7991 37.3636 22.5869 37.3333C22.6703 37.587 22.837 37.9959 23.1969 38.3897C23.4166 38.6282 23.6402 38.7948 23.8183 38.9046C23.7122 38.9463 23.5909 38.9879 23.4545 39.0144C23.087 39.0977 22.7612 39.0788 22.5339 39.0409C22.9582 39.5066 23.8827 40.3926 25.3527 40.9113C26.6712 41.377 27.8154 41.3316 28.4329 41.2635L32.377 36.2353L32.3695 36.2391Z" fill="#DD7162"/>
<path d="M33.6581 39.5262C33.1011 38.0837 32.2676 36.3079 31.0022 34.43C29.6117 32.3589 28.1303 30.8065 26.9141 29.7047C26.9141 29.7047 26.9141 29.7047 26.9103 29.7047C25.7396 29.311 24.6522 28.6787 23.7126 27.876C23.9703 29.0762 24.4704 30.2234 25.1713 31.2306C24.2696 31.1549 23.2163 30.9731 22.8223 30.1629C22.8223 32.1241 24.4022 33.7068 26.0048 34.8351C24.9819 35.0963 23.9134 35.1721 22.8677 35.0547C23.7846 36.13 25.2016 36.7547 26.6148 36.7055C25.6752 37.1977 24.6712 37.565 23.6331 37.7921C24.3908 38.4737 25.391 38.8712 26.4102 38.9091C25.5274 39.0681 24.6371 39.2347 23.7505 39.3975C25.3039 40.4236 27.2058 40.9006 29.0548 40.7719C30.5892 40.3592 32.1274 39.9465 33.6619 39.5338L33.6581 39.5262Z" fill="white" stroke="#231F20" stroke-width="0.784896" stroke-miterlimit="10"/>
<path d="M67.4792 110.579C67.4981 115.229 66.0054 119.973 62.838 123.377C59.2576 127.216 54.5255 128.833 49.5092 129.753C49.081 128.659 48.2703 126.925 46.7093 125.289C45.1218 123.627 43.5002 122.832 42.9887 122.563C43.1744 122.521 43.3487 122.464 43.5116 122.389C44.5573 121.889 45.0081 120.897 44.8452 119.992C44.6823 119.091 44.0041 118.269 43.2009 117.558C42.7084 117.122 42.1476 116.706 41.8218 116.191C41.8218 116.191 41.4278 115.517 41.3672 114.597C41.2156 112.204 43.5002 100.209 43.6139 94.4463C43.7806 85.8515 39.272 82.4326 41.7081 73.4213C41.9355 72.5732 42.1704 71.8917 42.3257 71.4638C43.2199 71.2632 44.114 71.0436 45.0347 70.9148C46.1182 70.7634 47.217 70.7558 48.3119 70.752C49.2099 70.7482 50.1192 70.7444 50.9906 70.9413C52.8167 71.3502 52.991 71.7857 54.4535 72.1454C55.5068 72.4066 56.757 72.4445 57.9694 72.1908C58.6135 71.9977 59.0417 72.081 59.3144 72.1984C60.6594 72.7739 61.1937 75.4053 60.4511 78.7523C59.466 78.7864 58.4696 78.529 57.6322 78.0102C58.7689 80.2971 60.3791 82.3493 62.3227 84.0039C61.5574 84.1515 60.758 84.0947 60.0267 83.841C60.864 84.5339 61.815 85.4502 62.7357 86.6239C64.3118 88.6458 65.1756 90.6336 65.6568 92.0723C65.5507 91.9057 64.8612 90.8948 63.5806 90.7244C62.8304 90.626 62.2431 90.8607 61.9779 90.9857C64.702 93.106 66.5131 96.3621 66.8768 99.7925C65.9561 98.7134 64.8877 97.7593 63.7094 96.9679C66.3388 100.773 67.4678 105.953 67.483 110.576L67.4792 110.579Z" fill="#E6E7E8" stroke="#231F20" stroke-width="0.784896" stroke-miterlimit="10"/>
<path d="M51.7116 48.4878C51.6926 48.7756 51.6623 49.211 51.4691 49.6919C50.6393 51.7667 47.6235 52.6716 45.3768 52.6375C44.1871 52.6186 42.2132 52.5921 41.1485 51.2404C39.455 49.0936 40.7128 44.1867 44.1151 42.8956C46.3694 42.0399 49.0784 42.9561 50.4916 44.7243C50.7416 45.0386 51.8555 46.5114 51.7153 48.4878H51.7116Z" fill="white" stroke="#231F20" stroke-width="0.784896" stroke-miterlimit="10"/>
<path d="M66.1348 48.9615C65.0815 50.1466 63.4524 50.0898 63.3387 50.086C61.3837 49.9876 60.3304 48.2648 60.1183 47.9127C59.0498 46.1672 59.0006 43.4904 60.4403 42.2826C61.0427 41.779 61.7323 41.6768 62.024 41.6351C63.979 41.3701 65.4263 42.9073 65.6082 43.1117C66.9835 44.6187 67.548 47.375 66.1348 48.9653V48.9615Z" fill="white" stroke="#231F20" stroke-width="0.784896" stroke-miterlimit="10"/>
<path d="M66.5821 53.5088C66.5253 53.6754 61.8576 50.8698 56.3412 51.8732C52.5676 52.5623 49.6919 54.7962 47.6612 56.9202C47.6612 56.9202 45.4372 55.6708 41.6408 55.508C38.7197 55.3868 35.8024 56.1403 35.8213 56.3447C35.8289 56.3902 35.9539 56.3826 36.3404 56.4848C36.9769 56.6476 37.424 56.8786 37.7384 57.0414C37.8672 57.1058 39.4813 57.9425 39.379 58.2492C39.2615 58.5938 37.1588 57.6851 34.2945 57.8668C31.6272 58.0372 29.5623 59.0708 29.6002 59.2261C29.6229 59.3245 30.4299 59.0784 31.6992 59.245C31.8772 59.2677 33.6504 59.5062 33.6807 59.9379C33.7072 60.3998 31.6916 60.5437 29.5206 61.7363C28.7932 62.1377 28.0468 62.6564 27.3573 63.3493C27.3573 63.3493 27.3573 63.3606 27.3421 63.3644C27.2322 63.4742 26.1752 64.5457 25.353 65.8141C25.2356 65.9959 25.1181 66.1852 25.0158 66.3745C24.7809 66.3442 24.5536 66.295 24.3301 66.2155C24.1785 66.1624 24.0118 66.0829 23.9588 65.9315C23.9171 65.8065 23.9588 65.6702 23.9967 65.5491C24.1785 65.0001 24.4096 64.5382 24.6748 64.027C24.9135 63.5689 25.8872 62.5049 28.24 61.1419C28.7856 60.8239 29.2441 60.5891 29.5244 60.4528C28.8046 60.2559 28.0885 60.059 27.3686 59.8621C28.3348 58.5445 29.3615 57.9577 29.9791 57.6851C30.5853 57.42 31.1612 57.2913 32.0818 57.0868C33.048 56.871 33.8701 56.7574 34.4612 56.6893C34.4043 56.5757 34.2983 56.4053 34.1126 56.2501C33.8095 55.9964 33.4799 55.9396 33.3397 55.9282C33.6428 55.8033 33.9573 55.6821 34.2755 55.5686C38.9243 53.9253 43.5693 54.3645 47.3922 55.3982C48.8167 53.9935 51.8023 51.4946 56.1025 50.9153C61.9144 50.1353 66.6428 53.3347 66.5821 53.5051V53.5088Z" fill="#DA4D1F"/>
<path d="M49.0112 47.8181C48.9127 50.1353 46.7796 51.6649 44.7754 51.7066C43.097 51.7406 41.5057 50.7297 40.6949 49.1243C40.6002 48.6624 40.4297 47.5303 40.9715 46.296C41.0586 46.0953 41.8732 44.3045 43.8055 43.7441C44.0517 43.6722 44.5291 43.5624 45.1239 43.5851C47.3631 43.6797 49.1097 45.5766 49.015 47.8181H49.0112Z" fill="#3C2415" stroke="#231F20" stroke-width="0.784896" stroke-miterlimit="10"/>
<path d="M65.3427 46.5801C65.3427 46.8262 65.3276 47.6554 64.7403 48.4089C63.7439 49.6924 62.001 49.5826 61.8154 49.5712C61.391 49.31 60.675 48.795 60.1142 47.9091C59.3186 46.6483 58.7086 44.4257 59.8149 43.2293C60.3605 42.6386 61.1069 42.5326 61.2736 42.5137C63.221 42.2903 65.3465 44.5015 65.3389 46.5763L65.3427 46.5801Z" fill="#3C2415" stroke="#231F20" stroke-width="0.784896" stroke-miterlimit="10"/>
<path d="M72.7846 42.948C68.6739 40.9716 61.4752 38.2152 52.2572 38.2569C36.0111 38.3288 24.8343 47.0447 21.4434 49.9147C22.6103 46.42 24.1788 44.0574 25.3837 42.5618C27.2023 40.3014 29.1913 37.8366 31.3888 36.5531C31.6995 36.3751 32.6012 35.8715 33.287 34.8379C33.412 34.6448 33.5219 34.4517 33.609 34.2624C33.9462 33.5544 34.0447 32.9107 34.0902 32.5662C34.1129 32.4185 34.1319 32.2746 34.147 32.1345C34.1735 31.9263 34.1963 31.7294 34.219 31.5363C34.704 27.3336 34.2228 25.4783 35.4769 23.5511C35.5526 23.43 36.3483 22.2449 37.5342 21.6504C37.9358 21.4535 38.3753 21.3172 38.8526 21.3134C39.5043 21.3097 39.9627 21.5482 40.425 21.7716C40.9706 22.0328 46.2218 24.5507 47.6047 23.2369C48.2184 22.6576 47.4796 21.889 48.2487 20.8932C49.0898 19.8027 50.8478 19.5869 51.5033 19.5036C52.0185 19.4393 52.4012 19.4506 52.4883 19.4544C52.7763 19.462 54.5418 19.5453 55.8868 20.6395C56.6446 21.2529 57.0651 22.0328 57.5766 23.4943C57.8343 24.2326 58.1146 25.1376 58.3685 26.2128C58.4632 26.599 58.5465 27.008 58.6299 27.4396C58.664 27.6138 58.6981 27.7993 58.7284 27.9886C58.7549 28.1476 58.7814 28.3066 58.8042 28.4694C58.8837 28.9995 58.9557 29.5523 59.0126 30.1354C60.7668 31.3621 62.6081 32.7744 64.4911 34.4025C67.8744 37.3217 70.6061 40.2674 72.7922 42.948H72.7846Z" fill="#CB8641" stroke="#231F20" stroke-width="0.261632" stroke-miterlimit="10"/>
<path d="M75.6741 58.4653C75.6741 58.4653 75.2005 57.8897 74.2761 57.6133C73.6282 57.4165 72.8023 57.4505 72.6886 57.7421C72.5598 58.0828 73.5259 58.4387 74.2761 59.6466C74.8292 60.5439 74.8217 61.8691 74.8217 61.8691C74.6663 61.7366 74.4428 61.5662 74.1435 61.4034C74.1435 61.4034 73.3516 60.9755 72.4461 60.915C71.4345 60.843 70.4532 61.9637 69.0059 63.2283C66.8615 65.1025 64.664 66.4391 63.4706 67.7188C62.7545 68.4874 62.3756 69.0478 62.3756 69.0478C62.2241 69.2712 62.0763 69.4984 61.921 69.718C61.5914 70.1496 61.2617 70.4752 60.9738 70.7327C60.7844 70.8917 60.6177 71.0166 60.4737 71.1151C59.7273 71.6452 58.8597 71.9859 57.9655 72.1714C56.7569 72.4289 55.5028 72.3873 54.4496 72.126C52.9833 71.7663 52.809 71.3309 50.9867 70.922C50.1152 70.7251 49.206 70.7289 48.308 70.7327C47.2169 70.7365 46.1143 70.7402 45.0308 70.8955C43 71.1757 41.1094 71.9026 39.0597 71.9178C38.1201 71.9253 36.4341 71.8155 34.57 70.9598C33.4902 70.4676 32.634 69.8315 32.0657 69.3469C31.5542 68.9077 31.27 68.5821 31.27 68.5821C30.8987 68.2413 30.6411 67.9725 30.1978 67.768C28.8452 67.4576 27.8185 67.609 27.1896 67.7718C26.841 67.8627 26.5682 67.9725 26.2878 68.0823C24.9352 68.6048 24.0222 69.2257 23.7532 69.4302H23.666C23.666 69.4302 23.6698 69.4302 23.6698 69.4264C24.2457 68.8471 24.3707 68.105 24.4124 67.8968C24.492 67.4803 24.67 67.0373 24.8974 66.6019C25.0262 66.3368 25.1853 66.0718 25.352 65.8143C26.1742 64.5422 27.2312 63.4744 27.3411 63.3609C27.3487 63.3571 27.3563 63.3457 27.3563 63.3457C28.0496 62.6528 28.796 62.1341 29.5234 61.7328C31.6944 60.5401 33.7062 60.3962 33.6797 59.9305C33.6532 59.4989 31.8762 59.2604 31.6982 59.2376C30.4327 59.0711 29.6219 59.3172 29.5992 59.2187C29.5651 59.0597 31.6262 58.0298 34.2934 57.8595C37.1577 57.6815 39.2605 58.5864 39.3742 58.2419C39.4765 57.9352 37.8624 57.1022 37.7336 57.0341C37.4192 56.8712 36.9759 56.6441 36.3356 56.4775C35.9491 56.379 35.8241 56.3828 35.8203 56.3374C35.8014 56.1329 38.7149 55.3795 41.6398 55.5006C45.4361 55.6596 47.6564 56.9129 47.6564 56.9129C48.2815 56.1556 51.6383 52.2293 57.4048 51.7333C62.0233 51.3358 65.399 53.3841 66.4258 54.0656C66.8994 51.5137 68.4528 49.4767 70.4267 48.9807C71.9498 48.5945 73.6282 49.1511 73.8707 49.2344C74.7232 49.5259 75.3597 49.9349 75.7726 50.2453C75.7726 50.2453 74.7004 50.2529 73.2607 50.6997C72.8326 50.8284 72.2491 51.0139 72.2567 51.2297C72.2643 51.4531 72.9121 51.544 73.5335 51.7522C75.2574 52.3315 76.3144 53.9142 76.3788 54.0126C75.7385 53.7059 74.8292 53.3803 73.7078 53.316C73.3744 53.297 73.0599 53.3046 72.7719 53.3235C73.0788 53.5318 73.3971 53.7855 73.7078 54.0959C75.2119 55.6066 75.568 57.5149 75.6665 58.4615L75.6741 58.4653Z" fill="white"/>
<path d="M75.6741 58.4653C75.6741 58.4653 75.2005 57.8897 74.2761 57.6133C73.6282 57.4165 72.8023 57.4505 72.6886 57.7421C72.5598 58.0828 73.5259 58.4387 74.2761 59.6466C74.8292 60.5439 74.8217 61.8691 74.8217 61.8691C74.6663 61.7366 74.4428 61.5662 74.1435 61.4034C74.1435 61.4034 73.3516 60.9755 72.4461 60.915C71.4345 60.843 70.4532 61.9637 69.0059 63.2283C66.8615 65.1025 64.664 66.4391 63.4706 67.7188C62.7545 68.4874 62.3756 69.0478 62.3756 69.0478C62.2241 69.2712 62.0763 69.4984 61.921 69.718C61.5914 70.1496 61.2617 70.4752 60.9738 70.7327C60.7844 70.8917 60.6177 71.0166 60.4737 71.1151C59.7273 71.6452 58.8597 71.9859 57.9655 72.1714C56.7569 72.4289 55.5028 72.3873 54.4496 72.126C52.9833 71.7663 52.809 71.3309 50.9867 70.922C50.1152 70.7251 49.206 70.7289 48.308 70.7327C47.2169 70.7365 46.1143 70.7402 45.0308 70.8955C43 71.1757 41.1094 71.9026 39.0597 71.9178C38.1201 71.9253 36.4341 71.8155 34.57 70.9598C33.4902 70.4676 32.634 69.8315 32.0657 69.3469C31.5542 68.9077 31.27 68.5821 31.27 68.5821C30.8987 68.2413 30.6411 67.9725 30.1978 67.768C28.8452 67.4576 27.8185 67.609 27.1896 67.7718C26.841 67.8627 26.5682 67.9725 26.2878 68.0823C24.9352 68.6048 24.0222 69.2257 23.7532 69.4302H23.666C23.666 69.4302 23.6698 69.4302 23.6698 69.4264C24.2457 68.8471 24.3707 68.105 24.4124 67.8968C24.492 67.4803 24.67 67.0373 24.8974 66.6019C25.0262 66.3368 25.1853 66.0718 25.352 65.8143C26.1742 64.5422 27.2312 63.4744 27.3411 63.3609C27.3487 63.3571 27.3563 63.3457 27.3563 63.3457C28.0496 62.6528 28.796 62.1341 29.5234 61.7328C31.6944 60.5401 33.7062 60.3962 33.6797 59.9305C33.6532 59.4989 31.8762 59.2604 31.6982 59.2376C30.4327 59.0711 29.6219 59.3172 29.5992 59.2187C29.5651 59.0597 31.6262 58.0298 34.2934 57.8595C37.1577 57.6815 39.2605 58.5864 39.3742 58.2419C39.4765 57.9352 37.8624 57.1022 37.7336 57.0341C37.4192 56.8712 36.9759 56.6441 36.3356 56.4775C35.9491 56.379 35.8241 56.3828 35.8203 56.3374C35.8014 56.1329 38.7149 55.3795 41.6398 55.5006C45.4361 55.6596 47.6564 56.9129 47.6564 56.9129C48.2815 56.1556 51.6383 52.2293 57.4048 51.7333C62.0233 51.3358 65.399 53.3841 66.4258 54.0656C66.8994 51.5137 68.4528 49.4767 70.4267 48.9807C71.9498 48.5945 73.6282 49.1511 73.8707 49.2344C74.7232 49.5259 75.3597 49.9349 75.7726 50.2453C75.7726 50.2453 74.7004 50.2529 73.2607 50.6997C72.8326 50.8284 72.2491 51.0139 72.2567 51.2297C72.2643 51.4531 72.9121 51.544 73.5335 51.7522C75.2574 52.3315 76.3144 53.9142 76.3788 54.0126C75.7385 53.7059 74.8292 53.3803 73.7078 53.316C73.3744 53.297 73.0599 53.3046 72.7719 53.3235C73.0788 53.5318 73.3971 53.7855 73.7078 54.0959C75.2119 55.6066 75.568 57.5149 75.6666 58.4615L75.6741 58.4653Z" stroke="#231F20" stroke-width="0.261632" stroke-miterlimit="10"/>
<path d="M60.9711 70.7283C60.4066 71.1713 59.3912 71.8414 57.9628 72.1671C57.3528 72.3034 55.9851 72.5003 54.4469 72.1216C52.9806 71.7619 52.8063 71.3265 50.984 70.9176C50.1125 70.7207 49.2032 70.7245 48.3053 70.7283C47.2141 70.7321 46.1116 70.7359 45.028 70.8911C42.9973 71.1713 41.1067 71.8982 39.057 71.9134C38.1174 71.921 36.4314 71.8112 34.5673 70.9555C33.4875 70.4633 32.6313 69.8272 32.063 69.3425C31.5515 68.9033 31.2673 68.5777 31.2673 68.5777C30.896 68.2369 30.6384 67.9681 30.1951 67.7637C30.1799 67.7485 30.1686 67.7447 30.1534 67.7409C30.0511 67.6842 29.9602 67.6463 29.8844 67.6349C28.8387 67.4456 27.884 67.6046 27.5809 67.6652C27.5506 67.669 27.5127 67.6804 27.4786 67.6879C27.3839 67.7144 27.2891 67.741 27.1906 67.7675C26.8724 67.8621 26.5693 67.9643 26.2889 68.0779L24.8984 66.5975C25.0273 66.3325 25.1864 66.0674 25.3531 65.81C26.5882 65.3556 28.3954 64.8937 30.4868 65.1587C33.8361 65.5828 33.9914 67.3813 37.3142 68.4982C41.7356 69.9824 45.8578 68.271 50.3171 69.0737C51.378 69.263 52.3555 69.5091 52.3555 69.5091C53.583 69.8802 54.1589 70.3004 55.9131 70.6261C58.0575 71.0198 59.7852 70.8722 60.9749 70.7245L60.9711 70.7283Z" fill="#E6E7E8"/>
<path d="M53.6099 115.789C58.6413 106.339 60.1871 95.082 57.8874 84.6244C57.4327 82.5534 56.8189 80.4823 55.6899 78.6876C54.5608 76.8929 52.8521 75.386 50.7986 74.8597C48.0139 74.1479 44.8313 75.5034 43.4181 78.0023L39.3301 89.804L53.6137 115.789H53.6099Z" fill="white"/>
<path d="M75.6741 58.4644C75.6741 58.4644 75.2005 57.8889 74.2761 57.6125C73.6282 57.4156 72.6886 57.7412 72.6886 57.7412C73.6055 58.4076 74.045 59.1005 74.2761 59.6457C74.6474 60.5279 74.8217 61.8682 74.8217 61.8682C74.2988 61.4328 73.4577 60.8838 72.4461 60.9103C71.3322 60.9444 70.8511 61.6145 69.0059 63.2237C65.5127 66.2754 65.2399 65.5522 63.4706 67.7142C62.262 69.1946 61.9816 70.1336 60.4737 71.1104C59.3787 71.8185 58.3671 72.0759 57.9655 72.1668C56.3591 72.5227 55.0482 72.2501 54.4496 72.1214C52.7863 71.7617 52.7257 71.2581 50.9867 70.9173C50.1266 70.7507 49.4787 70.7242 48.308 70.728C47.2169 70.7318 46.1143 70.7356 45.0308 70.8908C43 71.171 41.1094 71.898 39.0597 71.9131C38.2337 71.9207 36.4341 71.9055 34.57 70.9552C32.1907 69.7436 32.2703 68.301 30.1978 67.7672C28.5421 67.3431 26.9433 67.8656 26.2878 68.0814C25.1361 68.4601 24.2874 69.0166 23.7532 69.4293H23.666C23.666 69.4293 23.6698 69.4293 23.6698 69.4256C24.4465 67.7748 25.2232 66.1202 26.0037 64.4694C26.769 63.6326 27.917 62.5725 29.5234 61.7357C31.7171 60.5923 33.71 60.4067 33.6797 59.9335C33.6532 59.5018 31.8762 59.2633 31.6982 59.2406C30.4327 59.074 29.6219 59.3201 29.5992 59.2216C29.5651 59.0626 31.6262 58.0328 34.2934 57.8624C37.1577 57.6844 39.2605 58.5893 39.3742 58.2448C39.4765 57.9381 37.8624 57.1051 37.7336 57.037C37.4192 56.8742 36.9759 56.647 36.3356 56.4804C35.9491 56.382 35.8241 56.3857 35.8203 56.3403C35.8014 56.1359 38.7149 55.3824 41.6398 55.5036C45.4361 55.6626 47.6564 56.9158 47.6564 56.9158C48.2815 56.1586 51.6383 52.2322 57.4048 51.7362C62.0233 51.3387 65.399 53.387 66.4258 54.0686C66.8994 51.5166 68.4528 49.4796 70.4267 48.9837C71.9498 48.5975 73.6282 49.154 73.8707 49.2373C74.7232 49.5289 75.3597 49.9378 75.7726 50.2483C75.7726 50.2483 74.7004 50.2558 73.2607 50.7026C72.8326 50.8313 72.2567 51.2327 72.2567 51.2327C72.7492 51.3652 73.344 51.581 73.973 51.9293C75.1626 52.5919 75.9356 53.4363 76.3788 54.0118C76.3372 53.9966 76.2917 53.9853 76.25 53.9701C75.2157 53.6407 74.0601 53.406 72.7757 53.3227C73.0826 53.5309 73.4009 53.7846 73.7116 54.0951C75.2157 55.6058 75.5718 57.514 75.6703 58.4606L75.6741 58.4644Z" stroke="#231F20" stroke-width="0.784896" stroke-miterlimit="10"/>
<path d="M73.3828 128.231C67.2336 130.412 58.099 132.884 46.8161 133.221C39.3977 133.444 32.8697 132.687 27.5465 131.646C25.3566 131.218 23.3751 130.745 21.6133 130.272C23.0417 122.51 24.004 115.929 24.6481 111C26.8342 94.2455 26.3379 89.1189 26.0121 86.5897C25.4968 82.5914 24.6898 76.3138 21.9619 71.2554C21.5603 70.5133 19.4689 66.746 16.1538 60.6085C16.0704 60.4533 15.8734 60.0898 15.79 59.9346C17.298 59.5862 19.0749 59.2833 21.0791 59.147C23.6517 58.9729 25.9174 59.1168 27.7625 59.3629C27.4821 60.2753 27.0994 61.9451 27.4177 63.9896C27.645 65.4473 28.1489 66.5794 28.5505 67.3177C29.8046 66.7422 31.5474 66.1099 33.6957 65.8108C37.2078 65.3224 40.0873 65.9698 41.7505 66.4848C41.2353 67.473 40.6669 68.802 40.2767 70.4376C39.788 72.5011 39.769 74.2958 39.8561 75.5755C42.8871 78.6537 46.5812 83.0458 49.8206 88.9031C54.4239 97.2177 56.1705 104.968 56.8941 110.117C58.3377 107.978 60.1449 104.741 61.0239 100.542C63.4563 88.9637 58.3036 72.8797 58.9249 71.918C59.3758 71.759 59.8304 71.5962 60.2813 71.4372C61.3497 73.3 62.9069 76.1094 64.6573 79.5927C68.6279 87.4908 70.6928 91.4247 71.4922 96.4377C72.2461 101.178 71.4922 102.075 71.5376 109.69C71.5642 114.282 71.9203 120.609 73.3752 128.227L73.3828 128.231Z" fill="#AC9955" stroke="#231F20" stroke-width="0.261632" stroke-miterlimit="10"/>
<path d="M34.8094 74.0146C34.0706 75.0445 33.3318 76.0781 32.593 77.108C29.274 80.474 27.9442 83.7074 27.3494 85.6725C24.4093 95.3766 30.0886 105.456 30.3349 105.883C31.9262 108.636 34.4192 114.505 34.4192 114.505L35.2792 117.227C34.8283 117.36 34.1236 117.636 33.4568 118.23C33.0893 118.56 31.8504 119.662 32.055 121.059C32.0777 121.214 32.2103 122.115 32.9302 122.486C33.669 122.865 34.745 122.573 35.4383 121.672C35.4838 121.752 36.2112 123.009 37.6775 123.084C38.7118 123.137 39.7007 122.577 40.2084 121.646C40.3561 121.767 41.5534 122.717 42.9855 122.323C43.228 122.259 44.0426 122.036 44.4177 121.324C45.111 120.006 43.6296 118.264 43.425 118.033C42.6104 117.102 41.595 116.731 41.0078 116.576C41.0154 115.728 41.0343 114.876 41.0646 114.012C41.3109 106.913 42.2505 100.295 43.6106 94.2067" fill="#F36B21"/>
<path d="M34.8094 74.0146C34.0706 75.0445 33.3318 76.0781 32.593 77.108C29.274 80.474 27.9442 83.7074 27.3494 85.6725C24.4093 95.3766 30.0886 105.456 30.3349 105.883C31.9262 108.636 34.4192 114.505 34.4192 114.505L35.2792 117.227C34.8283 117.36 34.1236 117.636 33.4568 118.23C33.0893 118.56 31.8504 119.662 32.055 121.059C32.0777 121.214 32.2103 122.115 32.9302 122.486C33.669 122.865 34.745 122.573 35.4383 121.672C35.4838 121.752 36.2112 123.009 37.6775 123.084C38.7118 123.137 39.7007 122.577 40.2084 121.646C40.3561 121.767 41.5534 122.717 42.9855 122.323C43.228 122.259 44.0426 122.036 44.4177 121.324C45.111 120.006 43.6296 118.264 43.425 118.033C42.6104 117.102 41.595 116.731 41.0078 116.576C41.0154 115.728 41.0343 114.876 41.0646 114.012C41.3109 106.913 42.2505 100.295 43.6106 94.2067" stroke="#231F20" stroke-width="0.784896" stroke-miterlimit="10"/>
<path d="M46.4346 23.609C46.8627 23.7945 47.5295 24.0444 48.3782 24.1958C49.4883 24.3965 50.409 24.5593 51.0227 24.0217C51.1667 23.8929 51.557 23.4992 51.5911 22.5791" stroke="#231F20" stroke-width="0.523264" stroke-miterlimit="10"/>
<path d="M58.6256 27.4404L34.1465 32.1316C34.2071 29.9355 34.3814 28.0916 34.5595 26.6869C34.7299 25.3201 34.9004 24.4606 35.4763 23.5482C35.5521 23.427 36.3477 22.2419 37.5336 21.6475C37.5753 21.833 37.0259 22.6584 36.8895 24.082C36.7456 25.6419 37.1851 26.9974 37.6662 28.0083C40.3487 27.2284 43.6714 26.4901 47.517 26.1266C51.7225 25.7252 55.4089 25.8843 58.3604 26.2137L58.6218 27.4404H58.6256Z" fill="#AA6B34"/>
<path d="M58.8008 28.4707C58.8008 28.4707 58.793 28.4746 58.7852 28.4746" stroke="#231F20" stroke-width="0.261632" stroke-miterlimit="10"/>
<path d="M72.7847 42.948C68.6739 40.9716 61.4752 38.2152 52.2572 38.2569C36.0111 38.3288 24.8343 47.0447 21.4434 49.9147C21.5078 49.7368 21.5646 49.555 21.6328 49.3808C22.7732 46.1777 24.2432 43.9817 25.3837 42.5618C27.2023 40.3014 29.1913 37.8366 31.3888 36.5531C31.6995 36.3751 32.6012 35.8715 33.287 34.8379C33.412 34.6448 33.5219 34.4517 33.609 34.2624C33.8591 33.7323 33.9765 33.2439 34.0447 32.8842C34.0637 32.763 34.075 32.657 34.0902 32.5662C34.1129 32.4185 34.1319 32.2746 34.147 32.1345C34.1735 31.9263 34.1963 31.7294 34.219 31.5363C34.704 27.3336 34.2228 25.4783 35.4769 23.5511C35.5526 23.43 36.3483 22.2449 37.5342 21.6504C37.9358 21.4535 38.3753 21.3172 38.8526 21.3134C39.5043 21.3097 39.9627 21.5482 40.425 21.7716C40.9706 22.0328 46.2218 24.5507 47.6046 23.2369C48.2184 22.6576 47.4796 21.889 48.2487 20.8932C49.0898 19.8027 50.8478 19.5869 51.5033 19.5036C52.0185 19.4393 52.4012 19.4506 52.4883 19.4544C52.7763 19.462 54.5418 19.5453 55.8868 20.6395C56.6446 21.2529 57.0651 22.0328 57.5766 23.4943C57.8343 24.2326 58.1146 25.1376 58.3685 26.2128C58.4632 26.599 58.5465 27.008 58.6299 27.4396C58.664 27.6138 58.6981 27.7993 58.7284 27.9886C58.7549 28.1476 58.7814 28.3066 58.8042 28.4694C58.8837 28.9995 58.9557 29.5523 59.0126 30.1354C60.7668 31.3621 62.6081 32.7744 64.4911 34.4025C67.8744 37.3217 70.6061 40.2674 72.7922 42.948H72.7847Z" stroke="#231F20" stroke-width="0.261632" stroke-miterlimit="10"/>
<path d="M34.0438 32.885C34.9228 32.4686 36.0139 31.9877 37.2869 31.5182C48.1758 27.5048 58.9396 29.0837 59.004 30.1362C59.0722 31.2305 47.4446 30.0378 35.3016 37.0915C28.8456 40.8437 24.4582 45.6333 21.6318 49.3779C22.7722 46.1747 24.2423 43.9787 25.3827 42.5589C27.2013 40.2985 29.1904 37.8337 31.3879 36.5501C31.619 36.4138 32.5813 35.9065 33.286 34.835C33.4376 34.604 33.5437 34.3995 33.6081 34.2594" fill="#AA6B34"/>
<path d="M59.009 30.1361C57.1563 30.0225 55.0308 29.9846 52.6894 30.0944C50.3404 30.2004 47.764 30.4655 45.021 30.9653C40.4858 31.7869 36.6478 33.0363 33.6055 34.2631C33.8555 33.733 33.973 33.2446 34.0412 32.8849C34.0601 32.7637 34.0715 32.6577 34.0866 32.5668C34.1094 32.4192 34.1283 32.2753 34.1435 32.1352C34.17 31.927 34.1927 31.7301 34.2155 31.537C36.4357 29.9165 39.1333 29.0835 41.8195 28.4928C47.3207 27.2699 53.0076 26.9178 58.6226 27.4403H58.6491L58.7211 27.9893L58.7855 28.4739L59.0052 30.1361H59.009Z" fill="#3F140F"/>
<path d="M23.9477 76.1471C23.9477 76.1471 20.9622 69.2486 19.0867 65.5911C18.0372 63.5427 16.9688 61.5852 15.9004 59.7262C17.1886 59.5066 18.2153 59.2567 18.9428 59.056C19.7384 58.8364 20.1968 58.6774 20.7197 58.8629C21.1099 59.003 21.6176 59.3703 22.0344 60.4683C23.2013 63.5692 25.2396 79.9598 25.2396 79.9598L23.9515 76.1433L23.9477 76.1471Z" fill="#CCBF80"/>
<path d="M43.6109 94.2078C43.5617 96.0328 43.3647 98.4144 42.7206 103.143C42.2735 106.445 41.7734 109.724 41.5196 111.954C40.4057 111.681 39.1289 111.541 37.727 111.685C37.4732 111.712 36.6813 111.803 35.6773 112.09C34.9764 112.291 34.0254 112.635 32.9608 113.237C31.8242 111.572 30.2746 109.023 28.975 105.688C27.5202 101.958 24.4702 94.1359 27.3534 85.6737C28.0316 83.6859 29.4486 80.4524 32.5971 77.1092C33.3359 74.7617 34.1542 74.1143 34.8097 74.0158C37.8975 73.5501 43.8837 84.1175 43.6109 94.2041V94.2078Z" fill="#AC9955" stroke="#231F20" stroke-width="0.784896" stroke-miterlimit="10"/>
<path d="M41.1472 80.8303C41.1472 85.3019 38.5444 88.5202 35.3618 88.0166C32.2096 87.5206 29.6787 83.5564 29.6787 79.1644C29.6787 74.7723 32.2096 71.5465 35.3618 71.963C38.5141 72.3794 41.1472 76.3588 41.1472 80.8303Z" fill="#AC9955"/>
<path d="M9.7888 83.617C9.86457 83.5867 10.2169 84.4008 11.0997 85.601C11.4066 86.0175 11.687 86.3583 11.9105 86.6157C12.0431 86.3999 12.1984 86.0894 12.2932 85.6919C12.4599 84.9839 12.3424 84.3894 12.2553 84.079C12.6796 84.7491 13.2479 85.8093 13.5586 87.195C14.0208 89.2547 13.6609 90.9358 13.5472 91.5568C13.1835 93.4953 13.0244 96.6417 14.0549 101.836C12.5925 99.0043 12.0924 96.6265 11.9029 94.9795C11.6339 92.6131 12.0355 91.9733 11.5998 89.5008C11.0201 86.1841 9.6524 83.6776 9.7888 83.6208V83.617Z" fill="#F58220"/>
<path d="M10.7438 81.4404C10.7514 82.0916 10.7249 82.6974 10.6794 83.2502C9.7701 81.8342 8.46299 80.6756 6.9437 79.9448C8.20914 82.0614 9.06161 84.4164 9.43291 86.8509C8.42131 85.0638 6.65954 83.7197 4.67045 83.2162C4.99249 83.5759 5.74267 84.5148 5.95484 85.9385C6.12154 87.0478 5.87906 87.9414 5.71993 88.3995C5.54565 87.4492 5.13647 85.9953 4.07941 84.583C3.7119 84.0832 3.32924 83.6743 2.96552 83.3449C2.15473 86.3209 2.53739 89.5998 4.01121 92.3145C2.63968 90.6334 1.1545 89.0545 -0.436777 87.5817C0.0443935 88.5888 0.548296 89.8269 0.946115 91.2809C1.40076 92.9279 1.60157 94.4159 1.68492 95.6275C0.726368 95.0709 -0.906582 93.9426 -2.17202 91.9359C-2.83884 90.8757 -3.21772 89.8648 -3.44125 89.0697C-3.82013 90.5842 -4.17627 92.659 -4.1308 95.1277C-4.07776 97.8424 -3.55113 100.08 -3.0548 101.651C-3.75193 100.372 -4.74837 99.2622 -5.93804 98.4179C-5.99108 98.3725 -6.0517 98.3308 -6.10853 98.293C-6.15399 96.6687 -6.55939 94.9838 -7.69223 93.829C-9.16605 92.3296 -11.4507 92.0835 -13.3905 91.2771C-17.1148 89.7323 -19.6116 85.7113 -19.5055 81.713C-19.498 81.2587 -19.4525 80.8157 -19.3767 80.3689C-19.3767 81.785 -18.5091 83.0912 -17.3914 83.9583C-16.2662 84.8291 -14.9212 85.3327 -13.5913 85.8249C-15.1674 84.9654 -16.3192 83.3638 -16.6185 81.5956C-15.7168 82.4816 -14.368 82.7959 -13.1026 82.7088C-11.8371 82.6179 -10.6247 82.1825 -9.43505 81.7471C-9.85181 81.5086 -10.3974 81.2435 -11.0604 81.0315C-11.7992 80.8005 -12.4623 80.7059 -12.9737 80.6718C-7.73769 76.9726 -0.87627 75.655 5.35622 77.1657C6.95128 77.5482 8.51982 78.1161 9.8724 79.0475C10.1376 79.233 10.3952 79.4261 10.6301 79.6268C10.687 80.1796 10.7287 80.7816 10.7362 81.4366L10.7438 81.4404Z" fill="white"/>
<path d="M69.9997 56.2998C69.9808 57.0003 69.8368 59.1433 68.2342 61.1121C66.8702 62.7894 65.1994 63.4028 64.6159 63.6072C63.646 63.948 61.7857 64.4024 56.6558 62.9825C52.2646 61.7671 48.4494 60.0027 48.563 59.6847C48.7487 59.166 58.5994 64.7431 65.5745 60.8887C67.9235 59.59 69.2837 57.5871 70.0035 56.2998H69.9997Z" fill="#E6E7E8"/>
<path d="M60.8574 63.9971C62.0168 64.1637 63.0397 64.088 63.9339 63.7889C63.9339 63.7889 65.3244 63.4367 66.4458 62.7325C67.6923 61.9525 69.3328 59.6316 69.9959 56.2959" stroke="#231F20" stroke-width="0.784896" stroke-miterlimit="10"/>
<path d="M60.7592 66.8787C60.1606 67.8669 59.1187 68.4159 58.2207 68.3818C57.7774 68.3667 57.3721 68.2834 57.0083 68.1471C57.0083 68.1471 56.637 68.007 56.2847 67.7836C55.8982 67.5413 54.6858 66.3638 52.943 64.5502C51.7685 63.3272 50.3515 61.8165 48.7754 60.0938C51.3025 61.2334 54.0342 62.2557 56.9704 63.066C57.8873 63.3234 58.8269 63.5582 59.7855 63.7702C60.1757 63.8573 60.5622 63.9406 60.9524 64.0163C61.0093 64.1564 61.5662 65.5308 60.7592 66.8711V66.8787Z" fill="#6A0C0D" stroke="#231F20" stroke-width="0.261632" stroke-miterlimit="10"/>
<path d="M85.4962 40.1285C86.1553 40.1285 86.6897 39.5945 86.6897 38.9358C86.6897 38.2771 86.1553 37.7432 85.4962 37.7432C84.8371 37.7432 84.3027 38.2771 84.3027 38.9358C84.3027 39.5945 84.8371 40.1285 85.4962 40.1285Z" fill="#6A0C0D" stroke="#231F20" stroke-width="0.523264" stroke-miterlimit="10"/>
<path d="M89.3497 40.4693C90.0088 40.4693 90.5432 39.9353 90.5432 39.2767C90.5432 38.618 90.0088 38.084 89.3497 38.084C88.6906 38.084 88.1562 38.618 88.1562 39.2767C88.1562 39.9353 88.6906 40.4693 89.3497 40.4693Z" fill="#6A0C0D" stroke="#231F20" stroke-width="0.523264" stroke-miterlimit="10"/>
<path d="M64.6882 52.5434C65.0368 52.3238 65.4498 52.2405 65.8589 52.1875C67.5449 51.9641 68.5641 51.824 69.6401 52.3806C70 52.5661 71.0154 53.1151 71.1518 54.0503C71.2503 54.7432 70.8298 55.4134 70.269 56.3031C70.0569 56.6363 69.9091 56.8786 69.6628 57.1437C69.4961 57.3254 68.2118 58.7793 66.8061 58.4726C65.3285 58.1508 64.9762 56.4622 64.37 55.3225C63.8964 54.4252 63.6463 53.206 64.692 52.5396L64.6882 52.5434Z" fill="#532410" stroke="#231F20" stroke-width="0.523264" stroke-miterlimit="10"/>
<path d="M27.2445 45.6939C27.1005 46.0839 26.8959 46.6784 26.7065 47.4205C26.4488 48.4352 26.4072 48.9918 26.2632 49.7907C26.1798 50.2639 25.9222 51.6876 25.3463 53.043C25.0205 53.8116 24.4256 54.9437 23.3193 56.1515C23.8763 55.86 24.7401 55.3224 25.5168 54.4099C27.4074 52.1949 26.8353 50.0406 28.3091 47.7953C28.7903 47.0608 29.6011 46.1445 32.2797 44.7928C41.547 40.1092 52.2654 39.7647 52.2654 39.7647C60.9188 39.4845 66.583 40.9195 66.6133 40.7188C66.6512 40.4765 58.4107 37.5876 48.1508 38.4622C38.1864 39.3103 30.9044 43.32 27.2483 45.6939H27.2445Z" fill="#DA4D1F"/>
<path d="M72.7847 42.948C68.6208 40.9678 61.4374 38.2531 52.2573 38.2569C36.0983 38.2569 24.8684 46.6585 21.3184 49.5626C22.6103 46.314 24.1751 44.046 25.3875 42.5618C28.0585 39.2905 29.5361 37.7684 31.3926 36.5531C31.8435 36.2577 32.9271 35.5838 33.6128 34.2624C34.1054 33.3158 34.1584 32.4866 34.2228 31.5363C34.6282 25.6601 34.8252 24.5923 35.4807 23.5511C35.5565 23.43 36.3521 22.2449 37.538 21.6504C37.9396 21.4535 38.3791 21.3172 38.8565 21.3134C39.6445 21.3059 40.2318 21.658 40.4288 21.7716C41.8458 22.5818 46.3582 24.422 47.6085 23.2369C48.2222 22.6538 47.4834 21.889 48.2526 20.8932C49.0937 19.8027 50.8516 19.5869 51.5071 19.5036C52.0224 19.4393 52.405 19.4506 52.4922 19.4544C53.9016 19.5301 55.1405 20.0753 55.8907 20.6395C57.3001 21.6996 57.6676 23.2444 58.3723 26.2128C58.7512 27.8106 58.9254 29.1699 59.0164 30.1316C60.7706 31.3583 62.6119 32.7706 64.4949 34.3987C67.8783 37.3179 70.6099 40.2636 72.796 42.9442L72.7847 42.948Z" stroke="#231F20" stroke-width="0.784896" stroke-miterlimit="10"/>
<path d="M47.0523 60.9826C47.0333 60.8955 46.8401 59.9754 47.5032 59.2371C48.17 58.495 49.1058 58.5859 49.1929 58.5972" stroke="#231F20" stroke-width="0.523264" stroke-miterlimit="10"/>
<path d="M60.4406 66.6206C59.8419 67.6088 58.8 68.1578 57.9021 68.1237C57.4588 68.1086 57.0534 68.0253 56.6897 67.889C56.5192 67.8208 56.2578 67.7035 55.9661 67.5255C55.0871 66.9916 54.6286 66.3518 54.227 65.8558C53.814 65.3484 53.1737 64.6442 52.2266 63.8793C52.4539 63.6938 52.7305 63.5159 53.0639 63.3758C54.5832 62.7397 56.0949 63.4174 56.4927 63.6105C56.6518 63.2773 56.9701 63.0502 57.33 63.0274C57.7922 62.9972 58.0915 63.3114 58.1294 63.3531C58.9667 63.4894 59.8041 63.6257 60.6376 63.762C60.6376 63.762 61.2514 65.2765 60.4444 66.6168L60.4406 66.6206Z" fill="#BE1E2D"/>
<path d="M60.7589 66.8777C60.1603 67.8659 59.1184 68.4149 58.2205 68.3808C57.7772 68.3657 57.3718 68.2824 57.0081 68.1461C56.8376 68.0779 56.5761 67.9605 56.2844 67.7826C55.4054 67.2487 54.947 66.6089 54.5454 66.1129C54.1324 65.6055 53.4921 64.9013 52.5449 64.1364C52.8442 63.8828 53.136 63.7313 53.3822 63.6329C55.0607 62.9741 56.777 64.1327 57.027 64.3106C57.0081 63.8714 57.2543 63.4663 57.6446 63.2845C58.0083 63.1179 58.4364 63.171 58.7585 63.4208C59.4897 63.6215 60.2247 63.8184 60.9559 64.0191C60.9559 64.0191 61.5697 65.5336 60.7627 66.8739L60.7589 66.8777Z" fill="#F48888"/>
<path d="M60.7592 66.8787C60.1606 67.8669 59.1187 68.4159 58.2207 68.3818C57.7774 68.3667 57.3721 68.2834 57.0083 68.1471C57.0083 68.1471 56.637 68.007 56.2847 67.7836C55.8982 67.5413 54.6858 66.3638 52.943 64.5502C51.7685 63.3272 50.3515 61.8165 48.7754 60.0938C51.3025 61.2334 54.0342 62.2557 56.9704 63.066C57.8873 63.3234 58.8269 63.5582 59.7855 63.7702C60.1757 63.8573 60.5622 63.9406 60.9524 64.0163C61.0093 64.1564 61.5662 65.5308 60.7592 66.8711V66.8787Z" stroke="#231F20" stroke-width="0.784896" stroke-miterlimit="10"/>
<path d="M56.9634 63.6182C57.7438 65.1592 58.0735 65.9656 57.956 66.0376C57.9408 66.0451 57.9181 66.0451 57.8878 66.03C57.7249 65.6097 57.5506 65.1895 57.3119 64.8108C57.0732 64.4284 56.7625 64.0839 56.3799 63.8491C56.5731 63.7734 56.7701 63.6977 56.9634 63.622V63.6182Z" fill="#BE1E2D"/>
<path d="M47.1155 46.4548C47.8416 46.4548 48.4302 45.8666 48.4302 45.141C48.4302 44.4154 47.8416 43.8271 47.1155 43.8271C46.3894 43.8271 45.8008 44.4154 45.8008 45.141C45.8008 45.8666 46.3894 46.4548 47.1155 46.4548Z" fill="white"/>
<path d="M64.0977 44.5242C64.6187 44.5242 65.0411 44.1021 65.0411 43.5814C65.0411 43.0608 64.6187 42.6387 64.0977 42.6387C63.5767 42.6387 63.1543 43.0608 63.1543 43.5814C63.1543 44.1021 63.5767 44.5242 64.0977 44.5242Z" fill="white"/>
<path opacity="0.6" d="M67.512 54.2662C68.5163 54.2662 69.3306 54.0289 69.3306 53.7361C69.3306 53.4434 68.5163 53.2061 67.512 53.2061C66.5076 53.2061 65.6934 53.4434 65.6934 53.7361C65.6934 54.0289 66.5076 54.2662 67.512 54.2662Z" fill="#C8591A"/>
<path d="M39.4288 106.921C40.5275 104.615 42.8045 98.9701 41.3875 92.1511C40.8609 89.6181 39.9516 87.5432 39.084 85.9795C41.774 92.4464 41.6224 100.356 39.4288 106.925V106.921Z" fill="#CCBF80"/>
<path d="M60.675 24.0593C60.8607 23.7412 61.645 22.4274 63.0013 20.9508C64.9488 18.8305 67.1197 17.422 68.7867 16.5322C68.173 17.0699 67.3205 17.8347 66.343 18.8002C65.1761 19.9512 64.5926 20.5267 64.1304 21.1666C62.9142 22.8477 63.1339 23.5519 62.1034 24.8089C61.6184 25.4034 60.7887 26.1985 59.3604 26.8346C59.6369 26.0849 60.0499 25.1194 60.6713 24.0593H60.675Z" fill="#F58220"/>
<path d="M28.7431 25.168C30.2775 27.1406 31.4899 29.367 33.2176 31.1768C30.4328 29.9652 28.027 27.9055 26.4016 25.3422C25.4014 23.7633 24.5944 21.9649 22.8516 21.0789C25.0869 20.935 27.5079 23.5816 28.7431 25.1718V25.168Z" fill="#F58220"/>
<path opacity="0.65" d="M67.8851 39.8477C65.9908 38.6815 62.7059 37.0005 58.3034 36.3568C52.5331 35.5125 47.9184 36.8982 45.6982 37.735C48.8164 37.2011 53.181 36.8074 58.3034 37.4662C62.1603 37.9584 65.3959 38.9125 67.8851 39.8515V39.8477Z" fill="#D3A043"/>
<path d="M61.4797 117.501C70.891 100.75 65.3481 82.266 64.3744 79.0175V79.0137C66.0528 81.7625 70.6182 89.5924 71.501 96.438C71.7018 97.9865 71.8117 99.7736 71.8117 99.7736C71.9556 102.564 71.7738 105.131 71.5427 109.69C71.3191 114.112 71.4972 120.405 73.3802 128.227C70.9327 129.098 68.2768 129.916 65.4276 130.631C58.1457 132.46 51.4888 133.127 45.8701 133.24C55.0427 127.731 59.5248 120.973 61.4797 117.497V117.501Z" fill="#8D7F45"/>
<path d="M56.751 110.943C59.3842 106.221 60.5018 102.083 61.0323 99.304C61.0323 99.304 62.3204 91.2507 60.6837 81.1376C60.589 80.5508 60.0055 78.1011 59.4978 74.7162C59.297 73.391 59.1644 72.3005 59.0811 71.6077C59.4031 71.6039 59.8653 71.6417 60.3351 71.8841C61.1156 72.2854 61.4263 73.001 62.0666 74.3906C63.2032 76.8516 63.2184 76.7645 63.3661 77.1583C63.6768 77.9761 66.2115 85.2608 64.1011 95.1467C62.5326 102.492 59.1341 107.838 56.751 110.943Z" fill="#CCBF80"/>
<path d="M24.3412 113.847C19.1014 115.282 12.7779 116.403 6.48483 115.979C4.7458 115.861 2.77944 115.509 0.593331 114.426C-3.44926 112.42 -6.22262 108.077 -6.34007 103.564C-6.36281 102.553 -6.26809 101.542 -6.19231 100.531C-6.13548 99.8568 -6.09002 99.1828 -6.10138 98.5051C-6.10138 98.4332 -6.10138 98.365 -6.10517 98.2931C-6.11275 97.9978 -6.13169 97.6986 -6.16958 97.3995C-6.32113 96.0706 -6.76062 94.7719 -7.68887 93.8291C-7.9124 93.6019 -8.15867 93.3975 -8.42009 93.2233C-9.85224 92.2389 -11.739 91.9587 -13.3871 91.281C-17.5282 89.5582 -20.1501 84.78 -19.3696 80.3728C-19.3696 81.7851 -18.5057 83.0913 -17.3843 83.9584C-16.2628 84.8292 -14.914 85.3328 -13.5842 85.8288C-15.1603 84.9693 -16.3121 83.3677 -16.6114 81.5958C-15.7096 82.4817 -14.3608 82.796 -13.0992 82.7089C-11.83 82.6218 -10.6214 82.1864 -9.43169 81.751C-9.84845 81.5125 -10.394 81.2436 -11.0571 81.0354C-11.7959 80.8007 -12.4551 80.7098 -12.9704 80.6757C-7.73812 76.9765 -0.872913 75.6589 5.35957 77.1697C6.95464 77.5521 8.52318 78.12 9.87576 79.0514C10.141 79.2332 10.3948 79.4262 10.6335 79.6307C14.3313 82.7241 14.9716 87.7976 15.1838 89.3273C15.7483 93.3937 14.7026 95.2489 14.8428 98.1946C14.8807 99.0163 14.786 100.099 15.3657 101.246C16.3772 103.234 18.5027 103.988 19.3552 104.287C21.4466 105.029 23.5456 104.843 25.2732 104.378" stroke="#231F20" stroke-width="0.784896" stroke-miterlimit="10"/>
<path d="M60.2214 98.2209C60.138 100.61 59.6417 102.681 58.937 104.589C58.9218 104.639 58.9029 104.688 58.8839 104.737C56.497 103.275 54.7959 101.625 54.1366 99.6861C52.6477 91.2845 52.1438 83.6703 53.3183 77.4003C52.9394 76.768 52.5605 76.1319 52.1816 75.4959C52.6514 75.2157 53.1478 74.8863 53.6592 74.5114C53.9737 74.2805 54.2654 74.0495 54.5382 73.8223C54.5875 73.7845 54.6367 73.7428 54.686 73.7012C54.9436 74.0116 55.2392 74.341 55.5877 74.678C55.9325 75.015 56.2697 75.3065 56.5842 75.5602C56.3114 76.1622 56.0386 76.7642 55.7658 77.37C55.6294 83.9202 57.429 90.9475 60.2214 98.2209Z" fill="#D12029"/>
<path d="M58.937 104.589C58.9218 104.638 58.9029 104.688 58.8839 104.737C56.497 103.275 54.7959 101.625 54.1366 99.6861C52.6477 91.2844 52.1438 83.6703 53.3183 77.4003C52.9394 76.768 52.5605 76.1319 52.1816 75.4958C52.6514 75.2156 53.1478 74.8862 53.6592 74.5114C53.9737 74.2804 54.2654 74.0494 54.5382 73.8223C53.9093 74.3788 53.3675 74.9922 53.019 75.7078C53.0871 75.9236 53.2008 76.1773 53.394 76.4196C54.1253 77.3245 55.5574 77.2753 55.5574 77.2753C55.4665 77.5063 54.2313 77.6464 53.9964 77.529C53.9964 77.529 53.0076 87.3429 53.8032 90.8414C54.4056 94.5216 55.7999 99.3907 58.937 104.589Z" fill="#950F16"/>
<path d="M60.2214 98.2209C60.138 100.61 59.6417 102.681 58.937 104.589C58.9218 104.639 58.9029 104.688 58.8839 104.737C58.2171 104.434 56.9555 103.753 55.8605 102.39C54.7087 100.955 54.3336 99.4968 54.1935 98.7737C53.4925 95.7787 52.875 92.0493 52.7272 87.7443C52.5908 83.7726 52.8863 80.2741 53.3183 77.4003C52.9394 76.768 52.5605 76.1319 52.1816 75.4959C52.6514 75.2157 53.1478 74.8863 53.6592 74.5114C53.9737 74.2805 54.2654 74.0495 54.5382 73.8223C54.5875 73.7845 54.6367 73.7428 54.686 73.7012C54.9436 74.0116 55.2392 74.341 55.5877 74.678C55.9325 75.015 56.2697 75.3065 56.5842 75.5602C56.3114 76.1622 56.0386 76.7642 55.7658 77.37C55.6294 83.9202 57.429 90.9475 60.2214 98.2209Z" stroke="#231F20" stroke-width="0.784896" stroke-miterlimit="10"/>
<path d="M73.3833 128.23C67.2342 130.411 58.0995 132.883 46.8167 133.22C39.3983 133.444 32.8703 132.687 27.5471 131.645C25.3572 131.217 23.3757 130.744 21.6139 130.271C23.3151 122.396 24.1751 115.762 24.6487 110.999C26.0846 96.509 27.1114 84.9345 22.2997 72.3377C20.0492 66.4463 17.1925 62.0921 15.3057 59.5137C17.094 59.2373 19.174 59.029 21.4851 58.9987C23.8379 58.9684 25.9482 59.1313 27.7668 59.3698C27.5092 60.1914 27.1796 61.6075 27.3463 63.3681C27.5168 65.1892 28.1381 66.5599 28.5549 67.3247C29.809 66.7492 31.5518 66.1169 33.7 65.8178C37.2122 65.3293 40.0916 65.9768 41.7549 66.4917C41.2396 67.4799 40.6713 68.8089 40.2811 70.4445C39.7923 72.508 39.7734 74.3027 39.8605 75.5825C42.8915 78.6607 46.5855 83.0527 49.8249 88.91C54.4282 97.2246 56.1749 104.975 56.8985 110.124C58.342 107.985 60.1492 104.748 61.0282 100.549C63.4606 88.9706 58.3079 72.8867 58.9293 71.925C59.3801 71.7659 59.8348 71.6031 60.2856 71.4441C61.3541 73.3069 62.9112 76.1163 64.6616 79.5997C68.6322 87.4978 70.6971 91.4317 71.4965 96.4447C72.2505 101.185 71.4965 102.082 71.542 109.696C71.5685 114.289 71.9247 120.616 73.3795 128.234L73.3833 128.23Z" stroke="#231F20" stroke-width="0.784896" stroke-miterlimit="10"/>
<path d="M56.5527 75.5146C56.871 75.7305 57.2347 75.9539 57.6401 76.1697C58.1402 76.4347 58.6138 76.6429 59.0419 76.8058C59.1708 76.4271 59.3034 76.0447 59.436 75.6661" stroke="#231F20" stroke-width="0.784896" stroke-miterlimit="10"/>
<path d="M52.181 75.4954C51.3324 75.9308 50.4875 76.37 49.6388 76.8054L42.2432 72.7617" stroke="#231F20" stroke-width="0.784896" stroke-miterlimit="10"/>
</g>
</svg>
