<svg width="230" height="298" viewBox="0 0 230 298" fill="none" xmlns="http://www.w3.org/2000/svg">
<rect width="230" height="275" fill="#FFD873"/>
<path d="M138.529 270.019C137.744 272.937 136.475 275.657 135.217 278.36C136.912 278.288 138.607 278.216 140.302 278.144C142.625 278.049 143.805 278.067 144.584 278.228C145.045 278.324 150.219 279.46 150.758 282.958C150.836 283.454 150.932 284.715 149.884 286.419C149.866 286.754 149.764 288.333 148.578 289.57C147.267 290.939 145.656 290.838 145.392 290.814C144.374 291.765 142.871 292.907 140.859 293.6C135.163 295.567 130.138 292.351 129.114 291.657C129.114 291.657 126.718 290.999 124.143 289.158C123.694 288.835 123.047 288.249 122.562 287.28C122.185 286.527 122.047 285.576 122.388 284.799C122.58 284.363 122.897 284.016 123.179 283.639C124.616 281.72 124.994 279.119 125.317 276.65C125.628 274.282 125.94 271.849 125.473 269.517C125.143 267.878 124.431 266.192 124.898 264.596C125.335 263.101 126.677 262.186 127.976 261.571C130.252 260.488 132.707 259.92 135.169 259.621C140.607 258.958 139.553 266.252 138.541 270.013L138.529 270.019Z" fill="#FF6D00" stroke="#8D0F3A" stroke-width="1.28069" stroke-miterlimit="10"/>
<path d="M123.653 253.69C125.444 256.452 124.959 259.693 124.174 264.895C122.994 272.763 120.167 278.736 118.107 282.359C119.467 282.055 121.521 281.791 123.922 282.258C125.534 282.569 128.3 283.107 130.253 285.492C130.253 285.492 131.888 287.489 132.038 290.587C132.056 290.963 132.104 291.436 131.846 291.896C131.379 292.721 130.319 292.9 130.001 292.942C129.72 293.415 129.109 294.27 128.013 294.82C125.653 295.998 123.228 294.658 123 294.527C122.94 294.927 122.791 295.483 122.383 295.968C120.694 297.947 116.28 296.595 114.023 295.902C110.992 294.969 108.513 294.204 107.093 291.77C106.003 289.899 105.955 287.908 106.069 287.262C106.345 285.684 107.015 284.207 107.387 282.652C108.04 279.944 107.782 277.068 106.997 274.395C106.117 271.394 105.123 269.804 103.47 266.838C99.3854 259.508 97.3431 255.843 98.1756 253.618C100.29 247.992 118.718 246.103 123.653 253.708V253.69Z" fill="#FF6D00" stroke="#8D0F3A" stroke-width="1.28069" stroke-miterlimit="10"/>
<path d="M144.287 172.193C144.569 167.371 132.843 162.764 118.096 161.905C103.349 161.046 91.1655 164.259 90.8835 169.082C90.6016 173.905 102.328 178.511 117.075 179.37C131.822 180.229 144.005 177.016 144.287 172.193Z" fill="#FF6D00" stroke="#8D0F3A" stroke-width="0.640345" stroke-miterlimit="10"/>
<path d="M88.2761 233.541C87.5514 233.792 86.7968 234.031 86.0242 234.276C77.0047 237.134 65.0027 239.836 53.0905 239.035C50.3415 238.85 47.2272 238.288 43.7776 236.584C37.3813 233.415 33.0033 226.557 32.8176 219.43C32.7817 217.834 32.9314 216.237 33.0512 214.641C33.135 213.577 33.2069 212.512 33.1949 211.442C33.1949 211.329 33.1949 211.221 33.1889 211.107C33.177 210.641 33.147 210.163 33.0871 209.696C32.8476 207.598 32.1468 205.547 30.6855 204.058C30.3322 203.699 29.9369 203.377 29.5296 203.101C27.2658 201.547 24.2772 201.105 21.678 200.028C15.126 197.314 10.9876 189.768 12.2153 182.803C12.2153 185.039 13.5868 187.102 15.3536 188.471C17.1323 189.846 19.2584 190.641 21.3606 191.419C18.8691 190.061 17.0485 187.532 16.5753 184.74C18.0007 186.139 20.1328 186.635 22.1332 186.498C24.1335 186.354 26.05 185.667 27.9306 184.979C27.5113 184.579 26.6249 183.837 25.2654 183.443C23.9838 183.072 22.8938 183.185 22.3308 183.281C25.7446 180.919 28.8529 179.592 30.985 178.839C30.985 178.839 40.7471 175.383 51.3058 177.745C52.8869 178.097 55.5879 178.737 58.4447 180.716C58.8639 181.009 59.2712 181.314 59.6425 181.631C65.4878 186.516 66.5 194.534 66.8294 196.943C67.7217 203.371 66.0747 206.294 66.2903 210.946C66.3502 212.237 66.2005 213.953 67.1168 215.759C68.7159 218.898 72.0758 220.088 73.4173 220.566C80.5323 223.083 87.6712 218.82 89.0008 217.995C88.7552 223.173 88.5097 228.357 88.2581 233.535L88.2761 233.541Z" fill="#FF6D00" stroke="#8D0F3A" stroke-width="0.640345" stroke-miterlimit="10"/>
<path d="M29.5293 203.102C29.9425 203.377 30.3318 203.699 30.6852 204.058C32.1465 205.547 32.8472 207.598 33.0868 209.696" stroke="#8D0F3A" stroke-width="0.640345" stroke-miterlimit="10"/>
<path d="M89.8619 229.451C89.2689 231.06 88.676 232.668 88.0831 234.277C79.0636 237.134 67.0616 239.837 55.1494 239.036C53.4545 238.922 51.6278 238.665 49.6634 238.085C47.9685 237.625 46.6869 237.033 45.8364 236.578C37.8411 232.339 35.5293 223.425 33.481 215.556C32.6007 212.178 32.9301 211.568 33.1936 211.437C33.5349 211.269 34.1039 211.73 34.5112 212.112C34.6729 213.111 35.6072 218.277 40.4283 221.715C44.4769 224.602 48.7232 224.453 49.9509 224.369C49.4119 224.925 48.5555 225.679 47.3277 226.187C45.6388 226.892 44.1715 226.839 43.2671 226.791C41.0392 226.665 39.3323 225.852 38.3561 225.272C40.4643 226.492 46.1539 229.386 53.4006 228.369C56.5149 227.933 59.0123 226.898 60.7671 225.972C59.8927 226.964 58.7248 228.106 57.1976 229.182C54.5265 231.072 51.9213 231.957 50.1426 232.393C55.6824 233.78 64.4324 235.203 74.9012 233.643C80.9382 232.74 85.9869 231.078 89.8619 229.451Z" fill="#D05B04"/>
<path d="M86.2213 232.16C86.1913 232.811 86.1374 233.523 86.0296 234.27C77.0101 237.128 65.0081 239.831 53.0959 239.03C50.3469 238.844 47.2326 238.282 43.7829 236.578C39.3271 234.372 33.8651 227.813 32.823 219.424C32.6014 217.643 32.4637 214.857 33.2003 211.437C33.2003 212.453 33.3201 217.673 37.5304 221.876C41.4472 225.786 46.2145 226.139 47.3344 226.187C45.921 226.635 44.0644 227.066 41.8485 227.179C40.3392 227.257 38.9917 227.173 37.8658 227.03C44.0824 229.391 51.0656 231.753 57.2044 229.176C55.5155 231.119 53.4972 232.764 51.2573 234.031C54.8866 234.94 59.4503 235.717 64.7266 235.807C73.8898 235.956 81.3342 233.941 86.2213 232.154V232.16Z" fill="#D54A0E"/>
<path d="M153.761 164.005C145.939 169.565 143.46 177.541 142.771 180.13C139.651 173.745 136.536 167.365 133.416 160.979C135.207 158.408 137.117 155.305 138.896 151.67C141.07 147.21 142.501 143.066 143.466 139.557C152.21 142.57 160.918 152.394 165.116 159.287C162.451 159.76 158.121 160.908 153.761 164.005Z" fill="#5A5E3C" stroke="#8D0F3A" stroke-width="0.640345" stroke-miterlimit="10"/>
<path d="M93.2592 151.114C94.4091 158.803 98.4397 163.909 100.266 165.96C93.9898 166.612 87.7133 167.263 81.4428 167.921C79.9455 165.171 78.0231 162.074 75.5616 158.857C72.5431 154.923 69.4767 151.784 66.7637 149.35C73.3816 142.893 86.0783 139.521 94.1336 138.869C93.3969 141.386 92.4746 145.769 93.2712 151.114H93.2592Z" fill="#5A5E3C" stroke="#8D0F3A" stroke-width="1.28069" stroke-miterlimit="10"/>
<path d="M159.569 126.187C159.371 131.108 137.08 133.858 117.328 136.298C97.6122 138.731 77.2315 141.242 75.866 136.74C74.4346 132.023 93.7133 118.977 115.214 116.113C137.248 113.177 159.772 121.189 159.569 126.187Z" fill="#834612" stroke="#8D0F3A" stroke-width="1.28069" stroke-miterlimit="10"/>
<path d="M143.022 190.175C148.91 190.647 153.312 184.979 160.247 176.047C165.829 168.854 169.326 162.247 171.374 157.87C173.896 154.624 176.651 150.51 179.142 145.506C182.903 137.954 184.76 130.983 185.724 125.674C186.06 125.817 188.204 126.678 190.258 125.584C191.881 124.723 193.618 122.547 192.785 120.579C192.162 119.115 190.3 118.194 188.299 118.523C188.737 116.502 187.635 114.499 185.832 113.829C184.275 113.255 182.442 113.775 181.334 115.139C180.083 113.237 177.926 112.472 176.387 113.118C174.171 114.038 174.315 117.411 174.339 117.895C174.411 119.527 175.112 120.741 175.513 121.327C173.045 124.173 169.829 128.346 166.889 133.847C162.882 141.344 162.589 144.501 158.324 151.61C154.569 157.876 150.718 162.092 149.772 163.06C140.201 172.818 132.512 172.375 131.661 177.697C130.847 182.827 136.967 189.691 143.022 190.175Z" fill="#FF6D00" stroke="#8D0F3A" stroke-width="1.28069" stroke-miterlimit="10"/>
<path d="M187.795 129.53C185.855 134.636 183.13 140.568 179.261 146.828C176.638 151.067 173.943 154.738 171.374 157.871C169.649 162.893 166.492 170.152 160.653 177.631C156.682 182.714 152.526 186.546 148.945 189.356C147.777 190.259 146.687 191.06 145.669 191.76C143.453 187.383 141.231 181.9 139.716 175.401C139.129 172.866 138.709 170.451 138.422 168.191C142.435 165.219 145.357 163.067 147.04 161.835C150.825 159.061 152.831 157.399 155.562 154.786C155.898 154.469 157.198 153.064 158.311 151.617C162.839 145.775 163.109 140.424 165.45 134.164C166.594 131.115 168.607 126.822 172.404 122.057C177.063 124.329 181.729 126.589 186.382 128.855C186.849 129.082 187.31 129.309 187.784 129.536L187.795 129.53Z" fill="#CAD678" stroke="#8D0F3A" stroke-width="0.640345" stroke-miterlimit="10"/>
<path d="M148.017 189.571C151.664 186.964 156.269 183.102 160.659 177.625C166.618 170.193 169.727 162.863 171.38 157.864C173.943 154.731 176.644 151.066 179.267 146.821C183.13 140.561 185.861 134.63 187.802 129.524C186.58 128.926 185.364 128.334 184.142 127.742C183.076 131.886 181.328 137.117 178.363 142.791C175.261 148.723 171.769 153.296 168.864 156.591C168.822 156.669 168.751 156.806 168.643 156.997C163.624 166.271 161.109 170.899 159.144 173.296C153.604 180.041 147.615 185.141 147.615 185.141C147.615 185.141 147.675 188.513 148.022 189.571H148.017Z" fill="#8E9751"/>
<path d="M187.796 129.572C185.855 134.707 183.13 140.669 179.261 146.97C176.638 151.233 173.943 154.922 171.374 158.079C169.649 163.132 166.493 170.432 160.654 177.954C156.683 183.066 152.526 186.922 148.945 189.744C147.777 190.653 146.687 191.454 145.669 192.16C141.495 186.414 134.553 175.502 138.201 169.679C139.554 167.514 143.076 165.003 147.04 162.055C151.514 158.731 153.251 157.189 155.563 154.964C155.898 154.641 157.198 153.23 158.312 151.778C162.84 145.9 163.109 140.519 165.451 134.223C166.595 131.156 168.607 126.839 172.404 122.044C177.064 124.328 181.729 126.6 186.382 128.884C186.85 129.111 187.311 129.338 187.784 129.572H187.796Z" stroke="#8D0F3A" stroke-width="1.28069" stroke-miterlimit="10"/>
<path d="M152.545 118.523C152.407 118.762 152.263 118.995 152.114 119.228L83.635 135.802C83.4553 134.762 83.126 133.422 82.4911 131.958C81.9042 130.606 81.2274 129.524 80.6345 128.717C78.5443 126.2 72.7529 118.553 72.0283 107.085C71.3395 96.2509 75.5678 88.3048 77.2747 85.4409C80.1554 86.8639 83.5152 88.8489 86.947 91.6112C93.4511 96.8369 97.4577 102.613 99.8114 106.732C102.884 105.5 108.603 101.632 114.479 101.291C119.988 100.974 129.439 100.956 132.547 101.752C135.261 91.952 142.926 83.6651 152.485 80.1734C152.641 80.1136 152.796 80.0538 152.958 80C159.726 91.6591 159.534 106.995 152.545 118.523Z" fill="#FF6D00" stroke="#8D0F3A" stroke-width="1.28069" stroke-miterlimit="10"/>
<path d="M152.095 118.528C151.975 118.384 151.814 118.175 151.616 117.924C150.718 116.752 150.646 116.495 150.67 116.334C150.73 115.921 151.041 115.592 151.304 115.263C151.64 114.845 152.137 113.894 153.041 111.909C153.556 110.779 155.125 106.6 155.209 100.328C155.263 96.2083 154.658 92.8361 154.006 89.2188C153.874 88.4774 153.287 86.0739 152.892 82.7675C152.79 81.9065 152.724 81.195 152.682 80.7227C154.329 83.754 157.485 90.5342 157.347 99.6821C157.21 108.854 153.832 115.55 152.095 118.528Z" fill="#D54A0E"/>
<path d="M156.228 140.07C156.695 137.721 157.768 134.665 160.355 132.393C160.576 132.196 160.804 132.017 161.032 131.843C159.756 131.724 157.887 131.389 155.911 130.384C152.09 128.441 150.772 125.44 147.233 120.047C144.13 115.317 141.98 111.802 138.752 109.004C134.56 105.38 130.362 103.521 127.661 102.57C124.846 101.918 120.24 101.243 114.724 102.229C111.083 102.881 108.148 104.065 106.034 105.117C102.938 106.744 98.6377 109.446 94.4634 113.805C91.8282 116.555 87.4562 121.261 85.0127 128.728C84.1682 131.305 83.9466 133.954 83.3657 136.579C82.629 139.909 80.473 143.365 77.8019 145.505C79.0895 145.428 80.2933 144.89 81.4672 144.357C78.8799 147.281 77.2149 150.994 76.7598 154.868C77.8677 152.788 79.7243 151.126 81.9043 150.223C81.9702 154.008 80.1555 157.78 77.161 160.106C78.6763 159.55 80.2035 158.988 81.7307 158.42C84.9827 157.206 88.2048 155.987 91.385 154.749" fill="#FF6D00"/>
<path d="M156.228 140.07C156.695 137.721 157.768 134.665 160.355 132.393C160.576 132.196 160.804 132.017 161.032 131.843C159.756 131.724 157.887 131.389 155.911 130.384C152.09 128.441 150.772 125.44 147.233 120.047C144.13 115.317 141.98 111.802 138.752 109.004C134.56 105.38 130.362 103.521 127.661 102.57C124.846 101.918 120.24 101.243 114.724 102.229C111.083 102.881 108.148 104.065 106.034 105.117C102.938 106.744 98.6377 109.446 94.4634 113.805C91.8282 116.555 87.4562 121.261 85.0127 128.728C84.1682 131.305 83.9466 133.954 83.3657 136.579C82.629 139.909 80.473 143.365 77.8019 145.505C79.0895 145.428 80.2933 144.89 81.4672 144.357C78.8799 147.281 77.2149 150.994 76.7598 154.868C77.8677 152.788 79.7243 151.126 81.9043 150.223C81.9702 154.008 80.1555 157.78 77.161 160.106C78.6763 159.55 80.2035 158.988 81.7307 158.42C84.9827 157.206 88.2048 155.987 91.385 154.749" stroke="#8D0F3A" stroke-width="1.28069" stroke-miterlimit="10"/>
<path d="M83.9277 123.365C79.4659 121.506 78.7472 114.325 78.3699 109.428C77.9806 104.352 78.8849 99.2578 80.3403 94.3789C82.664 96.9379 85.1255 99.3654 87.4732 101.895C87.4732 101.9 87.4792 101.895 87.4792 101.895C88.1979 102.69 88.9166 103.497 89.6352 104.316C92.9292 108.071 95.9836 111.82 98.8105 115.527C94.3247 121.948 87.9942 125.057 83.9277 123.365Z" fill="#F6927F" stroke="#8D0F3A" stroke-width="1.28069" stroke-miterlimit="10"/>
<path d="M139.002 106.655C140.068 102.039 142.296 97.6921 145.44 94.1526C145.967 93.5547 146.524 92.9807 147.099 92.4366C149.046 90.595 151.244 89.0525 153.418 87.5039C154.202 89.7221 155.113 93.0524 155.262 97.172C155.28 97.6563 155.352 99.9582 154.963 102.84C154.059 109.56 151.208 115.264 149.058 118.84L138.996 106.655" fill="#F6927F"/>
<path d="M139.002 106.655C140.068 102.039 142.296 97.6921 145.44 94.1526C145.967 93.5547 146.524 92.9807 147.099 92.4366C149.046 90.595 151.244 89.0525 153.418 87.5039C154.202 89.7221 155.113 93.0524 155.262 97.172C155.28 97.6563 155.352 99.9582 154.963 102.84C154.059 109.56 151.208 115.264 149.058 118.84L138.996 106.655" stroke="#8D0F3A" stroke-width="1.28069" stroke-miterlimit="10"/>
<path d="M146.986 93.0695C147.609 93.1652 148.782 93.2609 150.142 92.8304C151.771 92.3162 152.783 91.3416 153.22 90.8633C153.286 91.503 153.328 92.7586 152.729 94.1398C152.382 94.935 151.933 95.5149 151.579 95.9036C151.963 95.8139 152.346 95.7242 152.729 95.6345C153.238 95.5149 153.741 95.4013 154.244 95.2937C153.61 96.2922 152.801 97.3983 151.783 98.5284C151.184 99.192 150.591 99.778 150.016 100.292C150.417 100.489 151.22 100.812 152.274 100.782C153.142 100.759 153.813 100.513 154.202 100.334C153.795 101.476 153.112 102.995 151.945 104.555C151.208 105.542 150.447 106.313 149.771 106.911C150.208 106.893 150.675 106.857 151.172 106.791C151.849 106.702 152.466 106.576 153.011 106.439C152.448 107.353 151.507 108.633 150.016 109.799C147.74 111.581 145.411 112.137 144.189 112.34C142.668 111.252 141.877 110.092 141.44 109.183C139.296 104.782 141.506 98.3311 146.98 93.0815L146.986 93.0695Z" fill="#DD7162"/>
<path d="M145.442 94.152C146.059 94.3673 147.101 94.6363 148.4 94.5406C150.113 94.4151 151.347 93.7155 151.928 93.3389C151.365 94.7918 150.311 96.0474 148.969 96.8426C149.299 96.9502 149.742 97.0518 150.275 97.0638C151.137 97.0937 151.826 96.8784 152.239 96.711C151.61 97.4106 150.856 98.1699 149.963 98.9292C148.921 99.8201 147.909 100.538 147.005 101.1C147.526 101.399 148.394 101.811 149.55 101.973C150.532 102.11 151.359 102.02 151.91 101.913C150.97 104.621 148.838 106.893 146.19 107.999C146.801 108.017 147.454 108.011 148.143 107.981C149.131 107.934 150.041 107.832 150.868 107.706C150.119 108.4 149.173 109.165 147.999 109.895C146.256 110.977 144.609 111.599 143.328 111.969C141.321 111.659 140.375 110.863 139.896 110.259C137.572 107.348 139.555 100.753 145.436 94.158L145.442 94.152Z" fill="#FCFFEB"/>
<path d="M96.0965 112.221C93.0122 108.639 89.9278 105.058 86.8434 101.477C85.7954 100.705 84.7054 99.8443 83.5854 98.8697C82.741 98.1343 81.9564 97.4049 81.2317 96.6934C81.2137 97.5543 81.2796 98.7501 81.6509 100.113C81.9983 101.399 82.4954 102.409 82.9206 103.127C82.5253 102.84 81.9863 102.373 81.5072 101.668C80.8005 100.628 80.5969 99.6051 80.531 99.0431C80.2495 99.7606 79.3751 102.26 80.3513 105.19C81.1119 107.473 82.5912 108.819 83.25 109.345C82.7949 109.423 82.2319 109.482 81.5911 109.459C80.5849 109.417 79.7644 109.189 79.1895 108.98C79.459 109.71 80.004 110.899 81.1179 112.006C81.7767 112.663 82.4475 113.1 82.9745 113.387C82.7889 113.518 82.5433 113.668 82.2319 113.781C81.5671 114.032 80.9682 113.997 80.6328 113.949C80.7646 114.349 81.0281 114.995 81.597 115.617C81.9444 115.994 82.2978 116.257 82.5792 116.43C82.4116 116.496 82.2199 116.562 82.0043 116.603C81.4234 116.735 80.9083 116.705 80.549 116.645C81.2197 117.381 82.6811 118.78 85.0048 119.599C87.089 120.334 88.8977 120.263 89.8739 120.155L96.1085 112.215L96.0965 112.221Z" fill="#DD7162"/>
<path d="M96.2778 112.132L87.4799 101.902H87.4739C85.6233 101.28 83.9044 100.281 82.4191 99.0137C82.8264 100.909 83.6169 102.721 84.7249 104.311C83.2995 104.191 81.6346 103.904 81.0117 102.625C81.0117 105.722 83.5091 108.221 86.0425 110.003C84.4255 110.416 82.7366 110.535 81.0836 110.35C82.5329 112.048 84.7728 113.034 87.0067 112.957C85.5215 113.734 83.9344 114.314 82.2934 114.673C83.4912 115.749 85.0723 116.377 86.6833 116.436C85.2879 116.688 83.8805 116.951 82.479 117.208C84.9345 118.828 87.941 119.581 90.8637 119.378L96.2838 112.138L96.2778 112.132Z" fill="#FCFFEB"/>
<path d="M149.508 230.509C149.538 237.851 147.179 245.343 142.172 250.718C136.512 256.781 129.032 259.334 121.102 260.787C120.426 259.059 119.144 256.32 116.677 253.737C114.167 251.113 111.604 249.857 110.795 249.433C111.089 249.367 111.364 249.277 111.622 249.158C113.275 248.368 113.988 246.802 113.73 245.373C113.472 243.95 112.4 242.652 111.131 241.528C110.352 240.841 109.466 240.183 108.951 239.37C108.951 239.37 108.328 238.306 108.232 236.853C107.992 233.074 111.604 214.133 111.784 205.032C112.047 191.46 104.92 186.061 108.771 171.831C109.13 170.492 109.502 169.416 109.747 168.74C111.161 168.423 112.574 168.076 114.029 167.873C115.742 167.634 117.479 167.622 119.21 167.616C120.629 167.61 122.067 167.604 123.444 167.915C126.331 168.561 126.606 169.248 128.918 169.816C130.583 170.229 132.56 170.289 134.476 169.888C135.494 169.583 136.171 169.715 136.602 169.9C138.728 170.809 139.573 174.964 138.399 180.25C136.842 180.303 135.267 179.897 133.943 179.078C135.74 182.689 138.285 185.93 141.357 188.542C140.148 188.776 138.884 188.686 137.728 188.285C139.052 189.379 140.555 190.826 142.01 192.68C144.502 195.873 145.867 199.012 146.628 201.284C146.46 201.021 145.37 199.424 143.346 199.155C142.16 199 141.232 199.37 140.812 199.568C145.119 202.916 147.981 208.058 148.556 213.475C147.101 211.771 145.412 210.264 143.549 209.015C147.706 215.023 149.491 223.203 149.514 230.503L149.508 230.509Z" fill="#E0E5FF" stroke="#8D0F3A" stroke-width="1.28069" stroke-miterlimit="10"/>
<path d="M124.581 132.459C124.551 132.914 124.503 133.601 124.198 134.361C122.886 137.637 118.119 139.066 114.567 139.012C112.687 138.982 109.566 138.94 107.883 136.806C105.206 133.416 107.195 125.667 112.573 123.628C116.136 122.277 120.418 123.724 122.652 126.516C123.048 127.012 124.808 129.338 124.587 132.459H124.581Z" fill="#FCFFEB" stroke="#8D0F3A" stroke-width="1.28069" stroke-miterlimit="10"/>
<path d="M147.382 133.201C145.717 135.072 143.142 134.982 142.962 134.976C139.872 134.821 138.207 132.101 137.871 131.545C136.183 128.788 136.105 124.561 138.38 122.654C139.333 121.859 140.423 121.697 140.884 121.631C143.974 121.213 146.262 123.64 146.55 123.963C148.724 126.343 149.616 130.696 147.382 133.207V133.201Z" fill="#FCFFEB" stroke="#8D0F3A" stroke-width="1.28069" stroke-miterlimit="10"/>
<path d="M148.088 140.382C147.998 140.646 140.619 136.215 131.899 137.8C125.934 138.888 121.389 142.415 118.178 145.77C118.178 145.77 114.663 143.796 108.662 143.539C104.044 143.348 99.4328 144.538 99.4627 144.861C99.4747 144.933 99.6723 144.921 100.283 145.082C101.289 145.339 101.996 145.704 102.493 145.961C102.697 146.063 105.248 147.384 105.086 147.868C104.901 148.412 101.577 146.977 97.0491 147.264C92.8328 147.533 89.5688 149.166 89.6287 149.411C89.6646 149.566 90.9403 149.178 92.9466 149.441C93.2281 149.477 96.031 149.853 96.0789 150.535C96.1208 151.264 92.9347 151.491 89.5029 153.375C88.353 154.009 87.1732 154.828 86.0832 155.922C86.0832 155.922 86.0832 155.94 86.0592 155.946C85.8856 156.119 84.2146 157.811 82.915 159.814C82.7293 160.101 82.5437 160.4 82.382 160.699C82.0107 160.651 81.6513 160.574 81.298 160.448C81.0584 160.364 80.7949 160.239 80.711 160C80.6452 159.802 80.711 159.587 80.7709 159.396C81.0584 158.529 81.4237 157.799 81.843 156.992C82.2203 156.269 83.7595 154.589 87.4786 152.436C88.3411 151.934 89.0657 151.563 89.5089 151.348C88.371 151.037 87.2391 150.726 86.1012 150.415C87.6284 148.335 89.2514 147.408 90.2276 146.977C91.1859 146.559 92.0962 146.356 93.5515 146.033C95.0787 145.692 96.3784 145.512 97.3126 145.405C97.2228 145.225 97.0551 144.956 96.7617 144.711C96.2825 144.311 95.7615 144.221 95.5399 144.203C96.019 144.006 96.5161 143.814 97.0192 143.635C104.368 141.04 111.71 141.734 117.753 143.366C120.005 141.148 124.724 137.202 131.522 136.287C140.709 135.055 148.184 140.107 148.088 140.377V140.382Z" fill="#D54A0E"/>
<path d="M120.311 131.401C120.156 135.06 116.784 137.476 113.616 137.542C110.962 137.595 108.447 135.999 107.165 133.464C107.016 132.735 106.746 130.947 107.603 128.998C107.74 128.681 109.028 125.853 112.082 124.968C112.472 124.854 113.226 124.681 114.167 124.717C117.706 124.866 120.467 127.862 120.317 131.401H120.311Z" fill="#3F0015" stroke="#8D0F3A" stroke-width="1.28069" stroke-miterlimit="10"/>
<path d="M146.129 129.446C146.129 129.835 146.105 131.144 145.177 132.334C143.602 134.361 140.847 134.187 140.553 134.17C139.883 133.757 138.751 132.944 137.864 131.545C136.607 129.554 135.642 126.044 137.391 124.155C138.254 123.222 139.433 123.055 139.697 123.025C142.775 122.672 146.135 126.164 146.123 129.44L146.129 129.446Z" fill="#3F0015" stroke="#8D0F3A" stroke-width="1.28069" stroke-miterlimit="10"/>
<path d="M157.892 123.706C151.394 120.585 140.015 116.233 125.443 116.298C99.7622 116.412 82.0946 130.176 76.7344 134.708C78.579 129.189 81.0585 125.458 82.963 123.097C85.8377 119.527 88.982 115.635 92.4556 113.608C92.9467 113.327 94.3721 112.532 95.4561 110.899C95.6537 110.594 95.8274 110.289 95.9652 109.991C96.4982 108.872 96.6539 107.856 96.7258 107.312C96.7617 107.079 96.7917 106.852 96.8156 106.63C96.8575 106.301 96.8935 105.991 96.9294 105.686C97.696 99.049 96.9354 96.1193 98.9178 93.0759C99.0376 92.8846 100.295 91.0132 102.17 90.0745C102.805 89.7636 103.499 89.5483 104.254 89.5424C105.284 89.5364 106.009 89.9131 106.739 90.2658C107.602 90.6784 115.903 94.6544 118.089 92.5797C119.059 91.6649 117.891 90.4512 119.107 88.8787C120.436 87.1567 123.215 86.8159 124.251 86.6844C125.066 86.5828 125.671 86.6007 125.809 86.6067C126.264 86.6186 129.055 86.7502 131.181 88.4781C132.379 89.4467 133.043 90.6784 133.852 92.9863C134.259 94.1522 134.702 95.5811 135.104 97.2792C135.253 97.889 135.385 98.5348 135.517 99.2164C135.571 99.4914 135.625 99.7844 135.673 100.083C135.714 100.334 135.756 100.586 135.792 100.843C135.918 101.68 136.032 102.553 136.122 103.473C138.895 105.411 141.805 107.641 144.782 110.212C150.13 114.822 154.448 119.473 157.904 123.706H157.892Z" fill="#CB8641" stroke="#8D0F3A" stroke-width="0.640345" stroke-miterlimit="10"/>
<path d="M162.462 148.208C162.462 148.208 161.713 147.299 160.252 146.863C159.227 146.552 157.922 146.606 157.742 147.066C157.539 147.604 159.066 148.166 160.252 150.074C161.126 151.491 161.114 153.583 161.114 153.583C161.114 153.583 160.713 153.219 160.042 152.848C159.419 152.501 157.982 152.118 157.359 152.077C155.76 151.963 154.209 153.733 151.921 155.73C148.531 158.689 145.057 160.8 143.171 162.821C142.039 164.035 141.44 164.919 141.44 164.919C141.2 165.272 140.967 165.631 140.721 165.978C140.2 166.659 139.679 167.174 139.224 167.58C138.925 167.831 138.661 168.029 138.434 168.184C137.254 169.021 135.882 169.559 134.469 169.852C132.558 170.259 130.576 170.193 128.911 169.78C126.593 169.212 126.318 168.525 123.437 167.879C122.059 167.568 120.622 167.574 119.203 167.58C117.478 167.586 115.735 167.592 114.022 167.837C110.812 168.28 107.824 169.428 104.583 169.452C103.098 169.464 100.433 169.29 97.4865 167.939C95.7796 167.162 94.4261 166.157 93.5277 165.392C92.7192 164.698 92.27 164.184 92.27 164.184C91.6831 163.646 91.2758 163.221 90.5751 162.899C88.437 162.408 86.814 162.647 85.8198 162.905C85.2688 163.048 84.8376 163.221 84.3944 163.395C82.2563 164.22 80.813 165.2 80.3877 165.523H80.25C80.25 165.523 80.256 165.523 80.256 165.517C81.1663 164.603 81.364 163.431 81.4298 163.102C81.5556 162.444 81.8371 161.745 82.1964 161.057C82.4001 160.639 82.6516 160.22 82.9151 159.813C84.2147 157.804 85.8857 156.118 86.0594 155.939C86.0713 155.933 86.0833 155.915 86.0833 155.915C87.1793 154.821 88.3592 154.002 89.5091 153.368C92.9408 151.485 96.121 151.257 96.079 150.522C96.0371 149.84 93.2282 149.464 92.9468 149.428C90.9464 149.165 89.6648 149.553 89.6288 149.398C89.5749 149.147 92.833 147.521 97.0493 147.252C101.577 146.971 104.901 148.4 105.081 147.855C105.242 147.371 102.691 146.056 102.487 145.948C101.99 145.691 101.289 145.332 100.277 145.069C99.6665 144.914 99.4688 144.92 99.4628 144.848C99.4329 144.525 104.038 143.335 108.662 143.527C114.663 143.778 118.173 145.757 118.173 145.757C119.161 144.561 124.467 138.361 133.582 137.578C140.883 136.95 146.219 140.184 147.842 141.261C148.591 137.231 151.046 134.014 154.167 133.231C156.574 132.621 159.227 133.5 159.611 133.631C160.958 134.092 161.964 134.737 162.617 135.228C162.617 135.228 160.922 135.24 158.647 135.945C157.97 136.149 157.047 136.442 157.059 136.782C157.071 137.135 158.096 137.279 159.078 137.607C161.803 138.522 163.474 141.021 163.575 141.177C163.498 141.153 162.156 140.681 159.353 140.077C157.551 139.688 157.431 139.838 157.407 139.885C157.299 140.125 158.587 140.752 159.353 141.308C160.653 142.253 162.03 144.131 162.45 148.202L162.462 148.208Z" fill="#FCFFEB"/>
<path d="M162.462 148.208C162.462 148.208 161.713 147.299 160.252 146.863C159.227 146.552 157.922 146.606 157.742 147.066C157.539 147.604 159.066 148.166 160.252 150.074C161.126 151.491 161.114 153.583 161.114 153.583C161.114 153.583 160.713 153.219 160.042 152.848C159.419 152.501 157.982 152.118 157.359 152.077C155.76 151.963 154.209 153.733 151.921 155.73C148.531 158.689 145.057 160.8 143.171 162.821C142.039 164.035 141.44 164.919 141.44 164.919C141.2 165.272 140.967 165.631 140.721 165.978C140.2 166.659 139.679 167.174 139.224 167.58C138.925 167.831 138.661 168.029 138.434 168.184C137.254 169.021 135.882 169.559 134.469 169.852C132.558 170.259 130.576 170.193 128.911 169.78C126.593 169.212 126.318 168.525 123.437 167.879C122.059 167.568 120.622 167.574 119.203 167.58C117.478 167.586 115.735 167.592 114.022 167.837C110.812 168.28 107.824 169.428 104.583 169.452C103.098 169.464 100.433 169.29 97.4865 167.939C95.7796 167.162 94.4261 166.157 93.5277 165.392C92.7192 164.698 92.27 164.184 92.27 164.184C91.6831 163.646 91.2758 163.221 90.5751 162.899C88.437 162.408 86.814 162.647 85.8198 162.905C85.2688 163.048 84.8376 163.221 84.3944 163.395C82.2563 164.22 80.813 165.2 80.3877 165.523H80.25C80.25 165.523 80.256 165.523 80.256 165.517C81.1663 164.603 81.364 163.431 81.4298 163.102C81.5556 162.444 81.8371 161.745 82.1964 161.057C82.4001 160.639 82.6516 160.22 82.9151 159.813C84.2147 157.804 85.8857 156.118 86.0594 155.939C86.0713 155.933 86.0833 155.915 86.0833 155.915C87.1793 154.821 88.3592 154.002 89.5091 153.368C92.9408 151.485 96.121 151.257 96.079 150.522C96.0371 149.84 93.2282 149.464 92.9468 149.428C90.9464 149.165 89.6648 149.553 89.6288 149.398C89.5749 149.147 92.833 147.521 97.0493 147.252C101.577 146.971 104.901 148.4 105.081 147.855C105.242 147.371 102.691 146.056 102.487 145.948C101.99 145.691 101.289 145.332 100.277 145.069C99.6665 144.914 99.4688 144.92 99.4628 144.848C99.4329 144.525 104.038 143.335 108.662 143.527C114.663 143.778 118.173 145.757 118.173 145.757C119.161 144.561 124.467 138.361 133.582 137.578C140.883 136.95 146.219 140.184 147.842 141.261C148.591 137.231 151.046 134.014 154.167 133.231C156.574 132.621 159.227 133.5 159.611 133.631C160.958 134.092 161.964 134.737 162.617 135.228C162.617 135.228 160.922 135.24 158.647 135.945C157.97 136.149 157.047 136.442 157.059 136.782C157.071 137.135 158.096 137.279 159.078 137.607C161.803 138.522 163.474 141.021 163.575 141.177C163.498 141.153 162.156 140.681 159.353 140.077C157.551 139.688 157.431 139.838 157.407 139.885C157.299 140.125 158.587 140.752 159.353 141.308C160.653 142.253 162.03 144.131 162.45 148.202L162.462 148.208Z" stroke="#8D0F3A" stroke-width="0.640345" stroke-miterlimit="10"/>
<path d="M139.219 167.581C138.327 168.28 136.721 169.339 134.464 169.853C133.499 170.068 131.337 170.379 128.906 169.781C126.588 169.213 126.313 168.526 123.432 167.88C122.054 167.569 120.617 167.575 119.198 167.581C117.473 167.587 115.73 167.593 114.017 167.838C110.807 168.28 107.818 169.428 104.578 169.452C103.093 169.464 100.428 169.291 97.4813 167.94C95.7744 167.162 94.4209 166.158 93.5225 165.393C92.714 164.699 92.2648 164.185 92.2648 164.185C91.6779 163.647 91.2707 163.222 90.5699 162.899C90.546 162.875 90.528 162.869 90.5041 162.863C90.3424 162.774 90.1986 162.714 90.0788 162.696C88.4259 162.397 86.9166 162.648 86.4375 162.744C86.3896 162.75 86.3297 162.768 86.2758 162.78C86.1261 162.822 85.9764 162.863 85.8206 162.905C85.3176 163.055 84.8384 163.216 84.3952 163.396L82.1973 161.058C82.4009 160.639 82.6524 160.221 82.916 159.814C84.8684 159.097 87.7251 158.367 91.0311 158.786C96.3254 159.455 96.571 162.295 101.823 164.059C108.813 166.403 115.329 163.7 122.378 164.968C124.055 165.267 125.6 165.656 125.6 165.656C127.54 166.242 128.451 166.905 131.224 167.419C134.613 168.041 137.344 167.808 139.225 167.575L139.219 167.581Z" fill="#E0E5FF"/>
<path d="M127.582 238.737C135.536 223.813 137.979 206.038 134.344 189.524C133.625 186.253 132.655 182.983 130.87 180.149C129.086 177.315 126.385 174.935 123.139 174.104C118.737 172.98 113.706 175.12 111.472 179.066L105.01 197.703L127.588 238.737H127.582Z" fill="#FCFFEB"/>
<path d="M162.462 148.208C162.462 148.208 161.713 147.299 160.252 146.863C159.227 146.552 157.742 147.066 157.742 147.066C157.742 147.066 159.066 148.166 160.252 150.074C161.126 151.491 161.114 153.583 161.114 153.583C161.114 153.583 160.713 153.219 160.042 152.848C159.419 152.501 157.982 152.118 157.359 152.077C155.76 151.963 154.209 153.733 151.921 155.73C148.531 158.689 145.057 160.8 143.171 162.821C142.039 164.035 141.44 164.919 141.44 164.919C141.2 165.272 140.967 165.631 140.721 165.978C140.2 166.659 139.679 167.174 139.224 167.58C138.925 167.831 138.661 168.029 138.434 168.184C137.254 169.021 135.882 169.559 134.469 169.852C132.558 170.259 130.576 170.193 128.911 169.78C126.593 169.212 126.318 168.525 123.437 167.879C122.059 167.568 120.622 167.574 119.203 167.58C117.478 167.586 115.735 167.592 114.022 167.837C110.812 168.28 107.824 169.428 104.583 169.452C103.098 169.464 100.433 169.29 97.4865 167.939C95.7796 167.162 94.4261 166.157 93.5277 165.392C92.7192 164.698 92.27 164.184 92.27 164.184C91.6831 163.646 91.2758 163.221 90.5751 162.899C88.437 162.408 86.814 162.647 85.8198 162.905C85.2688 163.048 84.8376 163.221 84.3944 163.395C82.2563 164.22 80.813 165.2 80.3877 165.523H80.25C80.25 165.523 80.256 165.523 80.256 165.517C81.1663 164.603 81.364 163.431 81.4298 163.102C81.5556 162.444 81.8371 161.745 82.1964 161.057C82.4001 160.639 82.6516 160.22 82.9151 159.813C84.2147 157.804 85.8857 156.118 86.0594 155.939C86.0713 155.933 86.0833 155.915 86.0833 155.915C87.1793 154.821 88.3592 154.002 89.5091 153.368C92.9408 151.485 96.121 151.257 96.079 150.522C96.0371 149.84 93.2282 149.464 92.9468 149.428C90.9464 149.165 89.6648 149.553 89.6288 149.398C89.5749 149.147 92.833 147.521 97.0493 147.252C101.577 146.971 104.901 148.4 105.081 147.855C105.242 147.371 102.691 146.056 102.487 145.948C101.99 145.691 101.289 145.332 100.277 145.069C99.6665 144.914 99.4688 144.92 99.4628 144.848C99.4329 144.525 104.038 143.335 108.662 143.527C114.663 143.778 118.173 145.757 118.173 145.757C119.161 144.561 124.467 138.361 133.582 137.578C140.883 136.95 146.219 140.184 147.842 141.261C148.591 137.231 151.046 134.014 154.167 133.231C156.574 132.621 159.227 133.5 159.611 133.631C160.958 134.092 161.964 134.737 162.617 135.228C162.617 135.228 160.922 135.24 158.647 135.945C157.97 136.149 157.059 136.782 157.059 136.782C157.059 136.782 158.096 137.279 159.078 137.607C161.803 138.522 163.474 141.021 163.575 141.177C163.498 141.153 162.156 140.681 159.353 140.077C157.551 139.688 157.407 139.885 157.407 139.885C157.407 139.885 158.587 140.752 159.353 141.308C160.653 142.253 162.03 144.131 162.45 148.202L162.462 148.208Z" stroke="#8D0F3A" stroke-width="1.28069" stroke-miterlimit="10"/>
<path d="M158.838 258.383C149.118 261.827 134.678 265.731 116.843 266.263C105.117 266.616 94.7974 265.42 86.3828 263.776C82.9211 263.1 79.7889 262.353 77.004 261.606C79.2618 249.349 80.7831 238.957 81.8012 231.173C84.5199 204.025 84.0575 196.909 83.5424 192.915C82.7279 186.601 81.8671 176.399 77.555 168.411C76.9201 167.239 73.6142 161.29 68.3738 151.598C68.242 151.353 67.9306 150.779 67.7988 150.534C70.1825 149.984 72.9913 149.505 76.1595 149.29C80.2261 149.015 83.8075 149.242 86.7242 149.631C86.281 151.072 85.6761 153.709 86.1792 156.937C86.5385 159.239 87.3351 161.027 87.9699 162.193C89.9523 161.284 92.7072 160.285 96.103 159.813C101.655 159.042 106.207 160.064 108.836 160.877C108.021 162.438 107.123 164.537 106.506 167.119C105.733 170.378 105.703 173.212 105.841 175.233C110.632 180.094 116.472 187.03 121.592 196.279C128.869 209.409 131.63 221.648 132.774 229.779C135.056 226.401 137.912 221.289 139.302 214.659C143.147 196.375 135.002 170.976 135.984 169.457C136.697 169.206 137.415 168.949 138.128 168.698C139.817 171.64 142.279 176.076 145.045 181.577C151.322 194.049 154.586 200.261 155.85 208.177C157.041 215.663 155.85 217.08 155.922 229.104C155.963 236.356 156.526 246.347 158.826 258.377L158.838 258.383Z" fill="#CAD678" stroke="#8D0F3A" stroke-width="0.640345" stroke-miterlimit="10"/>
<path d="M141.099 263.369C137.715 264.081 134.091 264.709 130.252 265.199C126.042 265.743 121.556 266.12 116.843 266.263C105.11 266.616 94.7973 265.42 86.3827 263.77C82.9211 263.1 79.7888 262.347 77.0039 261.599C79.7708 248.846 81.1004 238.293 81.8011 231.172C82.7474 221.468 83.6338 212.44 83.8673 204.159C87.9638 204.919 92.4556 208.028 94.8932 210.132C97.1271 212.063 98.9118 213.714 100.523 215.31C104.212 218.963 106.716 221.917 107.278 222.569C112.196 228.284 126.497 244.918 136.2 242.305C142.464 240.619 144.153 231.615 145.662 232.093C146.824 232.458 146.866 238.108 141.099 263.369Z" fill="#8E9751"/>
<path d="M97.8645 172.77C96.6966 174.396 95.5287 176.028 94.3609 177.654C89.1145 182.97 87.0123 188.076 86.072 191.179C81.4245 206.503 90.4021 222.419 90.7914 223.095C93.3068 227.442 97.2476 236.709 97.2476 236.709L98.6071 241.008C97.8944 241.217 96.7804 241.654 95.7264 242.592C95.1454 243.112 93.187 244.852 93.5104 247.059C93.5464 247.304 93.756 248.727 94.8939 249.313C96.0618 249.911 97.7626 249.45 98.8586 248.027C98.9305 248.153 100.08 250.138 102.398 250.257C104.033 250.341 105.596 249.456 106.399 247.985C106.632 248.177 108.525 249.677 110.789 249.056C111.172 248.954 112.46 248.601 113.053 247.477C114.149 245.396 111.807 242.646 111.484 242.281C110.196 240.811 108.591 240.225 107.663 239.979C107.675 238.64 107.704 237.295 107.752 235.932C108.142 224.721 109.627 214.27 111.777 204.656" fill="#FF6D00"/>
<path d="M97.8645 172.77C96.6966 174.396 95.5287 176.028 94.3609 177.654C89.1145 182.97 87.0123 188.076 86.072 191.179C81.4245 206.503 90.4021 222.419 90.7914 223.095C93.3068 227.442 97.2476 236.709 97.2476 236.709L98.6071 241.008C97.8944 241.217 96.7804 241.654 95.7264 242.592C95.1454 243.112 93.187 244.852 93.5104 247.059C93.5464 247.304 93.756 248.727 94.8939 249.313C96.0618 249.911 97.7626 249.45 98.8586 248.027C98.9305 248.153 100.08 250.138 102.398 250.257C104.033 250.341 105.596 249.456 106.399 247.985C106.632 248.177 108.525 249.677 110.789 249.056C111.172 248.954 112.46 248.601 113.053 247.477C114.149 245.396 111.807 242.646 111.484 242.281C110.196 240.811 108.591 240.225 107.663 239.979C107.675 238.64 107.704 237.295 107.752 235.932C108.142 224.721 109.627 214.27 111.777 204.656" stroke="#8D0F3A" stroke-width="1.28069" stroke-miterlimit="10"/>
<path d="M116.238 93.1712C116.915 93.4642 117.969 93.8588 119.311 94.098C121.065 94.4148 122.521 94.6719 123.491 93.8229C123.719 93.6196 124.335 92.9978 124.389 91.5449" stroke="#8D0F3A" stroke-width="1.28069" stroke-miterlimit="10"/>
<path d="M135.512 99.2221L96.8164 106.63C96.9122 103.162 97.1877 100.25 97.4692 98.0323C97.7387 95.8738 98.0082 94.5166 98.9186 93.0757C99.0383 92.8843 100.296 91.0129 102.171 90.0742C102.236 90.3672 101.368 91.6706 101.152 93.9187C100.925 96.3821 101.62 98.5225 102.38 100.119C106.62 98.8873 111.873 97.7214 117.952 97.1474C124.6 96.5136 130.427 96.7647 135.092 97.2849L135.506 99.2221H135.512Z" fill="#9F632F"/>
<path d="M135.787 100.843C135.787 100.843 135.775 100.849 135.764 100.849" stroke="#8D0F3A" stroke-width="0.640345" stroke-miterlimit="10"/>
<path d="M157.892 123.706C151.394 120.585 140.015 116.233 125.443 116.298C99.7622 116.412 82.0946 130.176 76.7344 134.708C76.8362 134.427 76.926 134.14 77.0338 133.865C78.8365 128.806 81.1603 125.339 82.963 123.097C85.8377 119.527 88.982 115.635 92.4556 113.608C92.9467 113.327 94.3721 112.532 95.4561 110.899C95.6537 110.594 95.8274 110.289 95.9652 109.991C96.3605 109.153 96.5461 108.382 96.6539 107.814C96.6839 107.623 96.7018 107.455 96.7258 107.312C96.7617 107.079 96.7917 106.852 96.8156 106.63C96.8575 106.301 96.8935 105.991 96.9294 105.686C97.696 99.049 96.9354 96.1193 98.9178 93.0759C99.0376 92.8846 100.295 91.0132 102.17 90.0745C102.805 89.7636 103.499 89.5483 104.254 89.5424C105.284 89.5364 106.009 89.9131 106.739 90.2658C107.602 90.6784 115.903 94.6544 118.089 92.5797C119.059 91.6649 117.891 90.4512 119.107 88.8787C120.436 87.1567 123.215 86.8159 124.251 86.6844C125.066 86.5828 125.671 86.6007 125.809 86.6067C126.264 86.6186 129.055 86.7502 131.181 88.4781C132.379 89.4467 133.043 90.6784 133.852 92.9863C134.259 94.1522 134.702 95.5811 135.104 97.2792C135.253 97.889 135.385 98.5348 135.517 99.2164C135.571 99.4914 135.625 99.7844 135.673 100.083C135.714 100.334 135.756 100.586 135.792 100.843C135.918 101.68 136.032 102.553 136.122 103.473C138.895 105.411 141.805 107.641 144.782 110.212C150.13 114.822 154.448 119.473 157.904 123.706H157.892Z" stroke="#8D0F3A" stroke-width="0.640345" stroke-miterlimit="10"/>
<path d="M96.6552 107.814C98.0447 107.156 99.7695 106.397 101.782 105.656C118.994 99.318 136.009 101.811 136.111 103.473C136.219 105.201 117.838 103.318 98.6436 114.457C88.4383 120.382 81.503 127.945 77.0352 133.859C78.8379 128.8 81.1616 125.333 82.9643 123.09C85.839 119.521 88.9833 115.629 92.4569 113.602C92.8223 113.387 94.3435 112.585 95.4574 110.893C95.697 110.529 95.8647 110.206 95.9665 109.985" fill="#9F632F"/>
<path d="M136.115 103.474C133.187 103.294 129.827 103.234 126.126 103.408C122.413 103.575 118.34 103.994 114.004 104.783C106.835 106.08 100.768 108.053 95.959 109.991C96.3543 109.154 96.5399 108.382 96.6477 107.814C96.6777 107.623 96.6956 107.456 96.7196 107.312C96.7555 107.079 96.7855 106.852 96.8094 106.63C96.8514 106.302 96.8873 105.991 96.9232 105.686C100.433 103.127 104.697 101.811 108.943 100.879C117.639 98.9475 126.629 98.3914 135.505 99.2165H135.547L135.66 100.083L135.762 100.849L136.109 103.474H136.115Z" fill="#3F0015"/>
<path d="M80.6934 176.136C80.6934 176.136 75.974 165.242 73.0094 159.467C71.3505 156.232 69.6616 153.141 67.9727 150.205C70.0089 149.858 71.632 149.464 72.7819 149.147C74.0396 148.8 74.7642 148.549 75.5907 148.842C76.2076 149.063 77.0101 149.643 77.6689 151.377C79.5135 156.274 82.7356 182.157 82.7356 182.157L80.6994 176.13L80.6934 176.136Z" fill="#E6F29B"/>
<path d="M111.777 204.657C111.7 207.538 111.388 211.299 110.37 218.767C109.663 223.981 108.873 229.158 108.471 232.68C106.711 232.25 104.692 232.028 102.476 232.256C102.075 232.297 100.823 232.441 99.2363 232.895C98.1284 233.212 96.6251 233.756 94.9422 234.707C93.1455 232.076 90.696 228.052 88.6417 222.785C86.3419 216.896 81.5208 204.543 86.0784 191.18C87.1505 188.041 89.3904 182.935 94.3672 177.655C95.5351 173.948 96.8287 172.926 97.8648 172.771C102.746 172.035 112.209 188.723 111.777 204.651V204.657Z" fill="#CAD678" stroke="#8D0F3A" stroke-width="1.28069" stroke-miterlimit="10"/>
<path d="M107.885 183.533C107.885 190.594 103.77 195.676 98.7394 194.881C93.7565 194.098 89.7559 187.838 89.7559 180.902C89.7559 173.966 93.7565 168.872 98.7394 169.53C103.722 170.188 107.885 176.471 107.885 183.533Z" fill="#CAD678"/>
<path d="M58.3119 187.927C58.4317 187.879 58.9887 189.165 60.3841 191.06C60.8692 191.718 61.3124 192.256 61.6658 192.662C61.8754 192.322 62.1209 191.831 62.2706 191.204C62.5342 190.085 62.3485 189.147 62.2108 188.657C62.8815 189.715 63.7799 191.389 64.271 193.577C65.0016 196.83 64.4327 199.484 64.253 200.465C63.6781 203.526 63.4265 208.495 65.0556 216.698C62.7438 212.226 61.9532 208.471 61.6538 205.87C61.2286 202.133 61.8634 201.123 61.1747 197.218C60.2583 191.981 58.0963 188.023 58.3119 187.933V187.927Z" fill="#D05B04"/>
<path d="M59.8216 184.488C59.8336 185.517 59.7917 186.473 59.7198 187.346C58.2824 185.11 56.2162 183.281 53.8146 182.127C55.815 185.469 57.1625 189.188 57.7494 193.032C56.1503 190.21 53.3654 188.088 50.2212 187.293C50.7303 187.861 51.9161 189.343 52.2515 191.591C52.515 193.343 52.1317 194.754 51.8802 195.478C51.6047 193.977 50.9579 191.681 49.2869 189.451C48.706 188.662 48.1011 188.016 47.5261 187.496C46.2445 192.195 46.8494 197.373 49.1791 201.66C47.0111 199.005 44.6634 196.512 42.148 194.186C42.9086 195.777 43.7051 197.732 44.334 200.028C45.0527 202.629 45.3701 204.978 45.5018 206.892C43.9866 206.013 41.4053 204.231 39.405 201.062C38.3509 199.388 37.752 197.792 37.3987 196.536C36.7998 198.928 36.2368 202.204 36.3087 206.103C36.3925 210.389 37.225 213.923 38.0096 216.404C36.9076 214.383 35.3325 212.632 33.4519 211.298C33.368 211.227 33.2722 211.161 33.1824 211.101C33.1105 208.536 32.4697 205.875 30.679 204.052C28.3492 201.684 24.7378 201.295 21.6715 200.022C15.7842 197.582 11.8375 191.233 12.0051 184.919C12.0171 184.201 12.089 183.502 12.2088 182.796C12.2088 185.033 13.5803 187.095 15.347 188.464C17.1258 189.84 19.2519 190.635 21.354 191.412C18.8626 190.055 17.0419 187.526 16.5688 184.734C17.9942 186.133 20.1263 186.629 22.1266 186.491C24.127 186.348 26.0435 185.66 27.924 184.973C27.2652 184.596 26.4028 184.178 25.3547 183.843C24.1869 183.478 23.1388 183.328 22.3302 183.275C30.6071 177.433 41.4533 175.353 51.3052 177.738C53.8266 178.342 56.3061 179.239 58.4442 180.71C58.8634 181.003 59.2706 181.308 59.642 181.624C59.7318 182.497 59.7977 183.448 59.8097 184.482L59.8216 184.488Z" fill="#FCFFEB"/>
<path d="M35.8953 207.377C36.6739 210.259 36.7996 212.758 36.7697 214.498C35.5779 213.368 34.3801 212.238 33.1882 211.108C33.1164 208.543 32.4755 205.882 30.6848 204.059C28.3551 201.691 24.7437 201.302 21.6773 200.029C15.7901 197.589 11.8433 191.24 12.011 184.926C14.4246 187.646 14.772 188.065 14.772 188.065C15.4607 189.56 16.6226 191.598 18.6049 193.458C24.2286 198.731 30.583 197.069 33.9429 202.355C34.967 203.969 35.482 205.858 35.8893 207.383L35.8953 207.377Z" fill="#E0E5FF"/>
<path d="M153.491 144.795C153.462 145.901 153.234 149.285 150.701 152.394C148.545 155.043 145.903 156.012 144.981 156.334C143.448 156.873 140.507 157.59 132.398 155.348C125.457 153.429 119.426 150.642 119.605 150.14C119.899 149.321 135.47 158.128 146.496 152.041C150.209 149.991 152.36 146.828 153.497 144.795H153.491Z" fill="#E0E5FF"/>
<path d="M139.039 156.949C140.872 157.212 142.489 157.093 143.902 156.621C143.902 156.621 146.1 156.064 147.873 154.952C149.843 153.721 152.437 150.056 153.485 144.788" stroke="#8D0F3A" stroke-width="1.92103" stroke-miterlimit="10"/>
<path d="M138.883 161.5C137.937 163.06 136.29 163.927 134.87 163.873C134.169 163.849 133.529 163.718 132.954 163.502C132.954 163.502 132.367 163.281 131.81 162.929C131.199 162.546 129.282 160.686 126.527 157.822C124.671 155.891 122.431 153.506 119.939 150.785C123.934 152.585 128.252 154.199 132.894 155.479C134.343 155.885 135.828 156.256 137.344 156.591C137.96 156.728 138.571 156.86 139.188 156.979C139.278 157.201 140.158 159.371 138.883 161.488V161.5Z" fill="#6A0C0D" stroke="#8D0F3A" stroke-width="0.640345" stroke-miterlimit="10"/>
<path d="M177.986 119.252C179.028 119.252 179.873 118.409 179.873 117.369C179.873 116.329 179.028 115.485 177.986 115.485C176.944 115.485 176.1 116.329 176.1 117.369C176.1 118.409 176.944 119.252 177.986 119.252Z" fill="#3F0015" stroke="#8D0F3A" stroke-width="1.28069" stroke-miterlimit="10"/>
<path d="M184.076 119.79C185.118 119.79 185.963 118.947 185.963 117.907C185.963 116.867 185.118 116.023 184.076 116.023C183.034 116.023 182.189 116.867 182.189 117.907C182.189 118.947 183.034 119.79 184.076 119.79Z" fill="#3F0015" stroke="#8D0F3A" stroke-width="1.28069" stroke-miterlimit="10"/>
<path d="M188.99 124.232C190.019 123.805 190.529 122.68 190.129 121.72C189.729 120.759 188.571 120.327 187.541 120.754C186.512 121.181 186.002 122.306 186.402 123.266C186.802 124.227 187.96 124.659 188.99 124.232Z" fill="#3F0015" stroke="#8D0F3A" stroke-width="1.28069" stroke-miterlimit="10"/>
<path d="M146.944 138.295C149.609 137.943 151.22 137.721 152.921 138.6C153.49 138.893 155.095 139.76 155.31 141.237C155.466 142.331 154.801 143.389 153.915 144.794C153.579 145.321 153.346 145.703 152.957 146.122C152.693 146.409 150.663 148.705 148.441 148.22C146.105 147.712 145.548 145.046 144.59 143.246C143.841 141.829 143.446 139.904 145.099 138.851C145.743 138.586 146.248 138.385 146.944 138.295Z" fill="#3F0015" stroke="#8D0F3A" stroke-width="1.28069" stroke-miterlimit="10"/>
<path d="M85.9039 128.048C85.6763 128.663 85.3529 129.602 85.0534 130.774C84.6462 132.376 84.5803 133.255 84.3527 134.517C84.2209 135.264 83.8137 137.512 82.9034 139.653C82.3883 140.867 81.448 142.654 79.6992 144.562C80.5796 144.101 81.9451 143.252 83.1729 141.811C86.1614 138.314 85.257 134.912 87.5868 131.366C88.3474 130.206 89.629 128.759 93.8633 126.625C108.512 119.229 125.455 118.685 125.455 118.685C139.134 118.242 148.088 120.508 148.136 120.191C148.196 119.809 135.17 115.247 118.951 116.628C103.2 117.967 91.6893 124.299 85.9099 128.048H85.9039Z" fill="#D54A0E"/>
<path d="M157.892 123.706C151.31 120.579 139.955 116.292 125.444 116.298C99.9003 116.298 82.1488 129.566 76.5371 134.152C78.5794 129.022 81.0528 125.44 82.9693 123.097C87.1916 117.931 89.5273 115.527 92.462 113.608C93.1747 113.141 94.8875 112.077 95.9715 109.991C96.7501 108.496 96.834 107.186 96.9358 105.686C97.5766 96.4062 97.888 94.7202 98.9241 93.0759C99.0439 92.8846 100.302 91.0132 102.176 90.0745C102.811 89.7636 103.506 89.5483 104.26 89.5424C105.506 89.5304 106.434 90.0864 106.746 90.2658C108.986 91.5453 116.119 94.4511 118.095 92.5797C119.065 91.6589 117.897 90.4512 119.113 88.8787C120.443 87.1567 123.222 86.8159 124.258 86.6844C125.072 86.5828 125.677 86.6007 125.815 86.6067C128.043 86.7262 130.001 87.5872 131.187 88.4781C133.415 90.1522 133.996 92.5916 135.11 97.2792C135.709 99.8023 135.984 101.949 136.128 103.467C138.901 105.405 141.812 107.635 144.788 110.206C150.136 114.816 154.454 119.467 157.91 123.7L157.892 123.706Z" stroke="#8D0F3A" stroke-width="1.28069" stroke-miterlimit="10"/>
<path d="M117.215 152.191C117.185 152.053 116.879 150.6 117.927 149.434C118.981 148.263 120.461 148.406 120.598 148.424" stroke="#8D0F3A" stroke-width="1.28069" stroke-miterlimit="10"/>
<path d="M138.381 161.093C137.434 162.654 135.787 163.521 134.368 163.467C133.667 163.443 133.027 163.312 132.452 163.096C132.182 162.989 131.769 162.803 131.308 162.522C129.918 161.679 129.194 160.669 128.559 159.886C127.906 159.084 126.894 157.972 125.396 156.765C125.756 156.472 126.193 156.191 126.72 155.969C129.122 154.965 131.511 156.035 132.14 156.34C132.392 155.814 132.895 155.455 133.464 155.419C134.194 155.371 134.668 155.868 134.727 155.933C136.051 156.149 137.375 156.364 138.692 156.579C138.692 156.579 139.662 158.971 138.387 161.087L138.381 161.093Z" fill="#B73A40"/>
<path d="M138.885 161.5C137.938 163.06 136.291 163.927 134.872 163.873C134.171 163.849 133.53 163.718 132.955 163.503C132.686 163.395 132.273 163.21 131.812 162.929C130.422 162.086 129.697 161.075 129.063 160.292C128.41 159.491 127.398 158.379 125.9 157.171C126.374 156.77 126.835 156.531 127.224 156.376C129.877 155.335 132.59 157.165 132.985 157.446C132.955 156.752 133.345 156.113 133.962 155.826C134.537 155.562 135.213 155.646 135.722 156.041C136.878 156.358 138.04 156.669 139.196 156.985C139.196 156.985 140.166 159.377 138.891 161.494L138.885 161.5Z" fill="#F48888"/>
<path d="M138.883 161.5C137.937 163.06 136.29 163.927 134.87 163.873C134.169 163.849 133.529 163.718 132.954 163.502C132.954 163.502 132.367 163.281 131.81 162.929C131.199 162.546 129.282 160.686 126.527 157.822C124.671 155.891 122.431 153.506 119.939 150.785C123.934 152.585 128.252 154.199 132.894 155.479C134.343 155.885 135.828 156.256 137.344 156.591C137.96 156.728 138.571 156.86 139.188 156.979C139.278 157.201 140.158 159.371 138.883 161.488V161.5Z" stroke="#8D0F3A" stroke-width="1.92103" stroke-miterlimit="10"/>
<path d="M132.881 156.346C134.115 158.779 134.636 160.053 134.45 160.166C134.426 160.178 134.391 160.178 134.343 160.154C134.085 159.491 133.81 158.827 133.432 158.229C133.055 157.625 132.564 157.081 131.959 156.71C132.264 156.591 132.576 156.471 132.881 156.352V156.346Z" fill="#B73A40"/>
<path d="M117.316 129.249C118.464 129.249 119.395 128.32 119.395 127.174C119.395 126.028 118.464 125.1 117.316 125.1C116.169 125.1 115.238 126.028 115.238 127.174C115.238 128.32 116.169 129.249 117.316 129.249Z" fill="#FCFFEB"/>
<path d="M144.159 126.199C144.983 126.199 145.651 125.533 145.651 124.71C145.651 123.888 144.983 123.222 144.159 123.222C143.336 123.222 142.668 123.888 142.668 124.71C142.668 125.533 143.336 126.199 144.159 126.199Z" fill="#FCFFEB"/>
<path d="M39.9137 211.754C41.8122 214.366 44.5252 215.215 45.6751 215.413C47.6814 215.76 49.7297 215.413 51.766 215.437C50.7718 215.018 49.1128 214.157 47.6455 212.459C46.819 211.502 46.292 210.558 45.9506 209.804C45.0582 209.673 43.537 209.32 41.9559 208.286C39.8119 206.881 38.7937 205.009 38.3925 204.154C38.2487 204.854 37.572 208.531 39.9137 211.754Z" fill="#D05B04"/>
<path opacity="0.6" d="M149.556 141.577C151.144 141.577 152.431 141.203 152.431 140.74C152.431 140.278 151.144 139.903 149.556 139.903C147.969 139.903 146.682 140.278 146.682 140.74C146.682 141.203 147.969 141.577 149.556 141.577Z" fill="#D54A0E"/>
<path d="M123.84 286.312C124.702 286.664 126.098 287.364 127.427 288.709C129.002 290.306 129.691 292.015 129.991 292.936" stroke="#8D0F3A" stroke-width="1.28069" stroke-miterlimit="10"/>
<path d="M118.994 288.577C119.97 289.325 120.923 290.126 121.683 291.094C122.444 292.063 123.001 293.217 123.103 294.443" stroke="#8D0F3A" stroke-width="1.28069" stroke-miterlimit="10"/>
<path d="M142.209 284.144C143.862 283.451 145.586 283.965 147.233 284.665C148.257 285.095 149.293 285.717 149.814 286.752C149.814 286.752 149.923 286.416 149.899 286.326" stroke="#8D0F3A" stroke-width="1.28069" stroke-miterlimit="10"/>
<path d="M139.01 288.577C141.214 288.045 143.669 288.948 145.101 290.819" stroke="#8D0F3A" stroke-width="1.28069" stroke-miterlimit="10"/>
<path d="M105.164 224.733C106.901 221.092 110.5 212.177 108.26 201.409C107.428 197.409 105.991 194.132 104.619 191.663C108.871 201.875 108.632 214.365 105.164 224.739V224.733Z" fill="#E6F29B"/>
<path d="M138.752 93.8833C139.045 93.3811 140.285 91.3064 142.429 88.9746C145.508 85.6263 148.939 83.4021 151.575 81.9971C150.604 82.8461 149.257 84.0538 147.712 85.5785C145.867 87.3961 144.945 88.3049 144.214 89.3154C142.292 91.97 142.639 93.0821 141.01 95.0672C140.243 96.0059 138.932 97.2615 136.674 98.2659C137.111 97.0821 137.764 95.5574 138.746 93.8833H138.752Z" fill="#D05B04"/>
<path d="M88.2758 95.6352C90.7014 98.7502 92.6179 102.266 95.3489 105.124C90.947 103.211 87.1439 99.958 84.5746 95.9102C82.9935 93.4169 81.7178 90.5769 78.9629 89.1778C82.4964 88.9506 86.3234 93.13 88.2758 95.6411V95.6352Z" fill="#D05B04"/>
<path opacity="0.65" d="M150.148 118.816C147.153 116.974 141.961 114.32 135.002 113.303C125.88 111.97 118.586 114.158 115.076 115.479C120.005 114.636 126.905 114.015 135.002 115.055C141.099 115.832 146.213 117.339 150.148 118.822V118.816Z" fill="#E4AA52"/>
<path d="M140.021 241.439C154.897 214.988 146.135 185.798 144.596 180.668V180.662C147.249 185.003 154.466 197.367 155.862 208.177C156.179 210.623 156.353 213.445 156.353 213.445C156.58 217.851 156.293 221.905 155.927 229.104C155.574 236.087 155.856 246.025 158.832 258.377C154.963 259.752 150.765 261.044 146.261 262.174C134.75 265.062 124.227 266.114 115.346 266.293C129.845 257.594 136.93 246.921 140.021 241.433V241.439Z" fill="#8E9751"/>
<path d="M132.547 231.083C136.709 223.627 138.476 217.092 139.314 212.704C139.314 212.704 141.351 199.986 138.763 184.016C138.614 183.09 137.691 179.221 136.889 173.876C136.572 171.783 136.362 170.061 136.23 168.967C136.739 168.961 137.47 169.021 138.213 169.404C139.446 170.037 139.937 171.167 140.949 173.362C142.746 177.248 142.77 177.111 143.004 177.732C143.495 179.024 147.502 190.527 144.166 206.139C141.686 217.738 136.314 226.18 132.547 231.083Z" fill="#E6F29B"/>
<path d="M81.3164 235.669C73.0336 237.935 63.0379 239.705 53.0901 239.036C50.3411 238.85 47.2328 238.294 43.7771 236.584C37.3868 233.415 33.0029 226.557 32.8172 219.43C32.7813 217.834 32.931 216.238 33.0508 214.641C33.1406 213.577 33.2125 212.513 33.1945 211.442C33.1945 211.329 33.1945 211.221 33.1885 211.108C33.1765 210.641 33.1466 210.169 33.0867 209.697C32.8471 207.598 32.1524 205.547 30.6851 204.058C30.3317 203.7 29.9425 203.377 29.5292 203.102C27.2654 201.547 24.2828 201.105 21.6776 200.035C15.1316 197.314 10.9871 189.769 12.2209 182.809C12.2209 185.039 13.5864 187.102 15.3591 188.471C17.1319 189.846 19.264 190.642 21.3662 191.425C18.8747 190.068 17.054 187.538 16.5809 184.74C18.0063 186.139 20.1384 186.636 22.1327 186.498C24.1391 186.361 26.0496 185.673 27.9301 184.985C27.2713 184.609 26.4089 184.184 25.3608 183.855C24.193 183.485 23.1509 183.341 22.3364 183.287C30.6072 177.446 41.4594 175.365 51.3113 177.751C53.8327 178.355 56.3122 179.252 58.4503 180.722C58.8695 181.009 59.2708 181.314 59.6481 181.637C65.4934 186.522 66.5055 194.534 66.8409 196.949C67.7333 203.371 66.0803 206.301 66.3019 210.952C66.3618 212.25 66.2121 213.96 67.1284 215.771C68.7275 218.91 72.0873 220.1 73.4349 220.572C76.7408 221.744 80.0587 221.451 82.7897 220.716" stroke="#8D0F3A" stroke-width="1.28069" stroke-miterlimit="10"/>
<path d="M99.6239 244.374C99.4502 244.858 99.2885 245.414 99.1508 246.036C98.989 246.766 98.9052 247.435 98.8633 248.027" stroke="#8D0F3A" stroke-width="1.28069" stroke-miterlimit="10"/>
<path d="M106.16 244.356C106.316 244.889 106.466 245.546 106.549 246.312C106.627 247.059 106.621 247.723 106.579 248.267" stroke="#8D0F3A" stroke-width="1.28069" stroke-miterlimit="10"/>
<path d="M138.033 210.993C137.901 214.766 137.117 218.037 136.003 221.05C135.979 221.128 135.949 221.206 135.919 221.283C132.146 218.975 129.457 216.369 128.415 213.307C126.061 200.04 125.264 188.016 127.121 178.115C126.522 177.116 125.923 176.112 125.324 175.107C126.067 174.665 126.851 174.145 127.66 173.553C128.157 173.188 128.618 172.824 129.049 172.465C129.127 172.405 129.205 172.339 129.283 172.273C129.69 172.764 130.157 173.284 130.708 173.816C131.253 174.348 131.786 174.809 132.283 175.209C131.852 176.16 131.421 177.11 130.99 178.067C130.774 188.411 133.619 199.508 138.033 210.993Z" fill="#B73A40"/>
<path d="M136.003 221.05C135.979 221.128 135.949 221.206 135.919 221.283C132.146 218.975 129.457 216.369 128.415 213.307C126.061 200.04 125.264 188.016 127.121 178.115C126.522 177.117 125.923 176.112 125.324 175.108C126.067 174.665 126.851 174.145 127.66 173.553C128.157 173.188 128.618 172.824 129.049 172.465C128.055 173.344 127.199 174.312 126.648 175.442C126.756 175.783 126.935 176.184 127.241 176.566C128.397 177.995 130.66 177.918 130.66 177.918C130.517 178.282 128.564 178.504 128.193 178.318C128.193 178.318 126.63 193.816 127.888 199.34C128.84 205.152 131.044 212.841 136.003 221.05Z" fill="#6A0C0D"/>
<path d="M138.033 210.993C137.901 214.766 137.117 218.037 136.003 221.05C135.979 221.128 135.949 221.206 135.919 221.283C134.865 220.805 132.87 219.729 131.14 217.576C129.319 215.31 128.726 213.008 128.504 211.866C127.396 207.137 126.42 201.248 126.187 194.45C125.971 188.178 126.438 182.653 127.121 178.115C126.522 177.116 125.923 176.112 125.324 175.107C126.067 174.665 126.851 174.145 127.66 173.553C128.157 173.188 128.618 172.824 129.049 172.465C129.127 172.405 129.205 172.339 129.283 172.273C129.69 172.764 130.157 173.284 130.708 173.816C131.253 174.348 131.786 174.809 132.283 175.209C131.852 176.16 131.421 177.11 130.99 178.067C130.774 188.411 133.619 199.508 138.033 210.993Z" stroke="#8D0F3A" stroke-width="1.28069" stroke-miterlimit="10"/>
<path d="M158.839 258.384C149.119 261.827 134.679 265.732 116.844 266.264C105.118 266.617 94.7984 265.421 86.3838 263.777C82.9221 263.101 79.7899 262.354 77.005 261.606C79.694 249.17 81.0535 238.695 81.8022 231.173C84.072 208.291 85.695 190.014 78.089 170.121C74.5315 160.818 70.0157 153.942 67.0332 149.871C69.86 149.434 73.148 149.105 76.8013 149.057C80.5205 149.01 83.8564 149.267 86.7312 149.643C86.3239 150.941 85.8029 153.177 86.0664 155.957C86.3359 158.833 87.3181 160.998 87.9769 162.205C89.9592 161.296 92.7142 160.298 96.11 159.826C101.662 159.054 106.213 160.077 108.843 160.89C108.028 162.45 107.13 164.549 106.513 167.132C105.74 170.391 105.71 173.225 105.848 175.246C110.639 180.106 116.479 187.042 121.599 196.292C128.876 209.421 131.637 221.66 132.781 229.792C135.063 226.414 137.919 221.302 139.309 214.671C143.154 196.387 135.009 170.988 135.991 169.47C136.704 169.219 137.422 168.962 138.135 168.71C139.824 171.652 142.285 176.089 145.052 181.589C151.329 194.061 154.593 200.274 155.857 208.19C157.048 215.676 155.857 217.093 155.929 229.116C155.97 236.369 156.533 246.36 158.833 258.389L158.839 258.384Z" stroke="#8D0F3A" stroke-width="1.28069" stroke-miterlimit="10"/>
<path d="M132.234 175.138C132.737 175.478 133.312 175.831 133.953 176.172C134.744 176.591 135.492 176.919 136.169 177.177C136.373 176.579 136.582 175.975 136.792 175.377" stroke="#8D0F3A" stroke-width="1.28069" stroke-miterlimit="10"/>
<path d="M125.324 175.108C123.983 175.796 122.647 176.489 121.306 177.177L108.762 171.669" stroke="#8D0F3A" stroke-width="1.28069" stroke-miterlimit="10"/>
</svg>
