<svg width="1366" height="768" viewBox="0 0 1366 768" fill="none" xmlns="http://www.w3.org/2000/svg">
<path fill-rule="evenodd" clip-rule="evenodd" d="M68.744 276.463L68.7975 276.409C68.8551 276.351 68.9116 276.292 68.9667 276.232L69.018 276.176L69.0969 276.093L69.2536 275.893C70.0451 274.887 70.513 273.63 70.513 272.244C70.513 268.977 67.8644 266.328 64.5973 266.328C62.6536 266.328 60.9285 267.258 59.8381 268.729L53.8697 276.78L47.9013 268.729C46.8109 267.258 45.0858 266.328 43.1421 266.328C39.875 266.328 37.2265 268.977 37.2265 272.244C37.2265 273.63 37.6943 274.887 38.4858 275.893L38.6284 276.075L38.6782 276.127L38.7457 276.202C38.8184 276.283 38.8933 276.361 38.9703 276.438L39.0418 276.509L53.8712 292.084L68.744 276.463ZM53.8712 302.858L33.7306 281.705C33.5583 281.534 33.3907 281.358 33.2279 281.177L32.5695 280.486H32.6454C32.6345 280.472 32.6237 280.458 32.6129 280.444C32.5984 280.426 32.5839 280.407 32.5695 280.388C30.9856 278.335 29.9864 275.808 29.8212 273.056C29.8051 272.787 29.7969 272.516 29.7969 272.244C29.7969 264.873 35.7717 258.898 43.1421 258.898C44.8423 258.898 46.4681 259.216 47.9636 259.796C50.3351 260.715 52.3785 262.293 53.8697 264.304C55.3609 262.293 57.4043 260.715 59.7759 259.796C61.2713 259.216 62.8972 258.898 64.5973 258.898C71.9677 258.898 77.9425 264.873 77.9425 272.244C77.9425 272.516 77.9343 272.787 77.9182 273.056C77.7531 275.806 76.755 278.332 75.1729 280.384C75.1579 280.404 75.1428 280.423 75.1277 280.443C75.1165 280.457 75.1053 280.471 75.094 280.486H75.1729L74.4511 281.244C74.3276 281.379 74.2013 281.512 74.0723 281.642L53.8712 302.858Z" fill="#F87793"/>
<path fill-rule="evenodd" clip-rule="evenodd" d="M12.6646 313.128L14.7569 328.099L32.2515 313.128H104.262C109.484 313.128 113.718 308.894 113.718 303.672V256.943C113.718 251.721 109.484 247.487 104.262 247.487H3.29558C-1.92675 247.487 -6.16026 251.721 -6.16026 256.943V303.672C-6.16026 308.894 -1.92674 313.128 3.29558 313.128H12.6646ZM9.27702 342.567L6.20116 320.557H3.29558C-6.02998 320.557 -13.5898 312.997 -13.5898 303.672V256.943C-13.5898 247.617 -6.02998 240.058 3.29558 240.058H104.262C113.587 240.058 121.147 247.617 121.147 256.943V303.672C121.147 312.997 113.587 320.557 104.262 320.557H34.9965L9.27702 342.567Z" fill="#F87793"/>
<path fill-rule="evenodd" clip-rule="evenodd" d="M-1.86749 403.031L-1.79986 402.963C-1.59796 402.762 -1.40126 402.555 -1.20998 402.344L-1.1459 402.273L-0.906982 402.022L-0.473763 401.471C1.7319 398.667 3.04324 395.142 3.04324 391.291C3.04324 382.185 -4.33844 374.804 -13.4442 374.804C-18.8711 374.804 -23.6859 377.418 -26.7024 381.488L-32.6716 389.541L-38.6407 381.488C-41.6572 377.418 -46.472 374.804 -51.899 374.804C-61.0047 374.804 -68.3864 382.185 -68.3864 391.291C-68.3864 395.142 -67.0751 398.667 -64.8694 401.471L-64.4163 402.047L-64.1223 402.356L-64.0716 402.412C-63.9203 402.577 -63.7658 402.739 -63.6079 402.899L-63.5551 402.952L-32.6737 435.386L-1.86749 403.031ZM-32.6737 446.161L-68.8844 408.13C-69.1126 407.899 -69.3363 407.665 -69.5551 407.425L-70.8508 406.064H-70.7096C-70.7298 406.039 -70.7499 406.013 -70.7699 405.987C-70.797 405.953 -70.8239 405.918 -70.8508 405.883C-72.5124 403.728 -73.8147 401.282 -74.668 398.634C-75.4136 396.321 -75.8164 393.853 -75.8164 391.291C-75.8164 378.082 -65.1082 367.374 -51.899 367.374C-46.72 367.374 -41.9255 369.02 -38.0101 371.817C-35.9681 373.276 -34.1652 375.048 -32.6716 377.063C-31.1779 375.048 -29.375 373.276 -27.333 371.817C-23.4176 369.02 -18.6231 367.374 -13.4442 367.374C-0.234962 367.374 10.4732 378.082 10.4732 391.291C10.4732 393.853 10.0705 396.321 9.32481 398.634C8.47081 401.284 7.16705 403.732 5.50344 405.888C5.47738 405.922 5.45122 405.956 5.42498 405.99C5.40553 406.015 5.38602 406.039 5.36647 406.064H5.50344L4.30101 407.327C4.02427 407.633 3.73972 407.932 3.44769 408.223L-32.6737 446.161Z" fill="#F87793"/>
<path fill-rule="evenodd" clip-rule="evenodd" d="M67.8778 -21.7872L65.9794 -9.55975C65.9623 -9.44961 65.9327 -9.34177 65.8911 -9.23835L58.362 9.48252C55.431 8.06631 51.9503 7.79772 48.6558 9.01541C42.2248 11.3924 38.9383 18.5328 41.3153 24.9638L52.3536 54.8284C54.7306 61.2595 61.8709 64.5459 68.302 62.1689C71.846 60.859 74.4351 58.1025 75.6476 54.8153C79.259 56.31 83.4211 56.5009 87.3763 55.039L113.326 45.4478C120.717 42.7158 125.043 35.0328 123.545 27.2963L118.768 2.62652C116.881 -7.12013 106.704 -12.8493 97.3921 -9.4075L93.0344 -7.79683L93.5519 -15.3985C93.8992 -20.5007 91.5581 -25.4141 87.3767 -28.3585L85.862 -29.4252C82.4355 -31.8381 77.9677 -32.1958 74.2009 -30.359C70.8172 -28.709 68.4554 -25.5072 67.8778 -21.7872ZM57.1428 17.7393C57.2425 19.2578 57.5599 20.7819 58.1087 22.2667L66.7051 45.5247C67.2827 47.0874 68.0773 48.5069 69.0422 49.7616C69.399 52.1048 68.0765 54.4547 65.7663 55.3086C63.1241 56.2852 60.1905 54.9349 59.2139 52.2927L48.1756 22.4282C47.1991 19.786 48.5493 16.8523 51.1915 15.8758C53.4159 15.0536 55.8469 15.8806 57.1428 17.7393ZM75.6339 46.1971C77.9829 48.5104 81.5436 49.3973 84.8406 48.1787L110.79 38.5874C114.822 37.0973 117.181 32.9065 116.364 28.6866L111.587 4.01686C110.558 -1.29949 105.007 -4.42449 99.9278 -2.54715L84.9698 2.98148L86.2548 -15.8952C86.4285 -18.4476 85.2574 -20.9055 83.1657 -22.3785L81.6509 -23.4451C80.4038 -24.3234 78.7776 -24.4536 77.4066 -23.785C76.175 -23.1845 75.3154 -22.0191 75.1052 -20.6651L73.2068 -8.43767C73.1042 -7.77679 72.9264 -7.1298 72.6768 -6.5093L64.7234 13.2667C64.4488 14.113 64.3324 14.936 64.3494 15.7201C64.4396 15.9285 64.5246 16.1404 64.6042 16.356L75.6339 46.1971Z" fill="#F87793"/>
<path d="M59.1557 196.669C58.1759 196.669 57.392 196.277 56.8042 195.494C56.2816 194.711 56.0856 193.765 56.2163 192.656L66.8961 130.703C67.092 129.92 67.4513 129.3 67.9738 128.843C68.4964 128.387 69.1169 128.158 69.8354 128.158C70.8806 128.158 71.6644 128.55 72.187 129.333C72.7748 130.05 72.9708 130.964 72.7748 132.073L62.0951 194.124C62.0297 194.907 61.7031 195.527 61.1153 195.983C60.5927 196.44 59.9395 196.669 59.1557 196.669ZM54.5506 151.452C53.6361 151.452 52.8523 151.158 52.1991 150.571C51.6112 149.918 51.3173 149.135 51.3173 148.222C51.3173 147.374 51.6112 146.689 52.1991 146.167C52.8523 145.645 53.6361 145.384 54.5506 145.384H103.736C104.651 145.384 105.402 145.71 105.99 146.362C106.578 146.95 106.872 147.7 106.872 148.613C106.872 149.462 106.578 150.147 105.99 150.669C105.402 151.191 104.651 151.452 103.736 151.452H54.5506ZM84.5324 196.669C83.4873 196.669 82.6708 196.277 82.0829 195.494C81.5603 194.711 81.397 193.765 81.593 192.656L92.2728 130.703C92.4034 129.92 92.73 129.3 93.2526 128.843C93.7751 128.387 94.4283 128.158 95.2122 128.158C96.2573 128.158 97.0411 128.55 97.5637 129.333C98.1515 130.05 98.3475 130.964 98.1515 132.073L87.4718 194.124C87.3411 194.907 87.0145 195.527 86.492 195.983C85.9694 196.44 85.3162 196.669 84.5324 196.669ZM50.6314 178.954C49.7823 178.954 49.0311 178.66 48.3779 178.073C47.79 177.42 47.4961 176.67 47.4961 175.822C47.4961 174.974 47.79 174.289 48.3779 173.767C49.0311 173.245 49.7823 172.984 50.6314 172.984H99.9152C100.83 172.984 101.581 173.277 102.169 173.864C102.757 174.452 103.051 175.202 103.051 176.115C103.051 176.964 102.757 177.649 102.169 178.171C101.581 178.693 100.83 178.954 99.9152 178.954H50.6314Z" fill="#F87793"/>
<path fill-rule="evenodd" clip-rule="evenodd" d="M-48.7014 225.208C-25.5303 225.208 -6.74643 206.424 -6.74643 183.253C-6.74643 160.082 -25.5303 141.298 -48.7014 141.298C-71.8725 141.298 -90.6564 160.082 -90.6564 183.253C-90.6564 206.424 -71.8725 225.208 -48.7014 225.208ZM-48.7014 232.637C-21.4271 232.637 0.683151 210.527 0.683151 183.253C0.683151 155.978 -21.4271 133.868 -48.7014 133.868C-75.9757 133.868 -98.0859 155.978 -98.0859 183.253C-98.0859 210.527 -75.9757 232.637 -48.7014 232.637Z" fill="#F87793"/>
<path fill-rule="evenodd" clip-rule="evenodd" d="M-99.808 85.901L-97.7158 100.872L-80.2208 85.901H-8.21089C-2.98856 85.901 1.24495 81.6675 1.24495 76.4452V29.7164C1.24495 24.4941 -2.98858 20.2606 -8.21089 20.2606H-109.177C-114.399 20.2606 -118.633 24.4941 -118.633 29.7164V76.4452C-118.633 81.6675 -114.399 85.901 -109.177 85.901H-99.808ZM-103.196 115.34L-106.272 93.3305H-109.177C-118.503 93.3305 -126.062 85.7707 -126.062 76.4452V29.7164C-126.062 20.3909 -118.503 12.8311 -109.177 12.8311H-8.21089C1.11467 12.8311 8.67453 20.3909 8.67453 29.7164V76.4452C8.67453 85.7707 1.11467 93.3305 -8.21089 93.3305H-77.4758L-103.196 115.34Z" fill="#F87793"/>
<path fill-rule="evenodd" clip-rule="evenodd" d="M558.599 276.463L558.653 276.409C558.711 276.351 558.767 276.292 558.822 276.232L558.873 276.176L558.952 276.093L559.109 275.893C559.901 274.887 560.368 273.63 560.368 272.244C560.368 268.977 557.72 266.328 554.453 266.328C552.509 266.328 550.784 267.258 549.694 268.729L543.725 276.78L537.757 268.729C536.666 267.258 534.941 266.328 532.998 266.328C529.73 266.328 527.082 268.977 527.082 272.244C527.082 273.63 527.55 274.887 528.341 275.893L528.484 276.075L528.534 276.127L528.601 276.202C528.674 276.283 528.749 276.361 528.826 276.438L528.897 276.509L543.727 292.084L558.599 276.463ZM543.727 302.858L523.586 281.705C523.414 281.534 523.246 281.358 523.083 281.177L522.425 280.486H522.501C522.49 280.472 522.479 280.458 522.468 280.444C522.454 280.426 522.439 280.407 522.425 280.388C520.841 278.335 519.842 275.808 519.677 273.056C519.661 272.787 519.652 272.516 519.652 272.244C519.652 264.873 525.627 258.898 532.998 258.898C534.698 258.898 536.324 259.216 537.819 259.796C540.191 260.715 542.234 262.293 543.725 264.304C545.216 262.293 547.26 260.715 549.631 259.796C551.127 259.216 552.753 258.898 554.453 258.898C561.823 258.898 567.798 264.873 567.798 272.244C567.798 272.516 567.79 272.787 567.774 273.056C567.609 275.806 566.61 278.332 565.028 280.384C565.013 280.404 564.998 280.423 564.983 280.443C564.972 280.457 564.961 280.471 564.95 280.486H565.028L564.307 281.244C564.183 281.379 564.057 281.512 563.928 281.642L543.727 302.858Z" fill="#F87793"/>
<path fill-rule="evenodd" clip-rule="evenodd" d="M502.52 313.128L504.612 328.099L522.107 313.128H594.117C599.34 313.128 603.573 308.894 603.573 303.672V256.943C603.573 251.721 599.34 247.487 594.117 247.487H493.151C487.929 247.487 483.695 251.721 483.695 256.943V303.672C483.695 308.894 487.929 313.128 493.151 313.128H502.52ZM499.132 342.567L496.057 320.557H493.151C483.825 320.557 476.266 312.997 476.266 303.672V256.943C476.266 247.617 483.825 240.058 493.151 240.058H594.117C603.443 240.058 611.003 247.617 611.003 256.943V303.672C611.003 312.997 603.443 320.557 594.117 320.557H524.852L499.132 342.567Z" fill="#F87793"/>
<path fill-rule="evenodd" clip-rule="evenodd" d="M215.086 139.836L215.153 139.769C215.355 139.568 215.552 139.361 215.743 139.15L215.807 139.079L216.046 138.828L216.479 138.277C218.685 135.472 219.996 131.948 219.996 128.097C219.996 118.991 212.615 111.609 203.509 111.609C198.082 111.609 193.267 114.223 190.251 118.293L184.282 126.347L178.312 118.293C175.296 114.223 170.481 111.609 165.054 111.609C155.948 111.609 148.567 118.991 148.567 128.097C148.567 131.948 149.878 135.472 152.084 138.277L152.537 138.853L152.831 139.162L152.881 139.217C153.033 139.383 153.187 139.545 153.345 139.704L153.398 139.758L184.279 172.192L215.086 139.836ZM184.279 182.967L148.069 144.936C147.841 144.705 147.617 144.47 147.398 144.231L146.102 142.87H146.243C146.223 142.844 146.203 142.819 146.183 142.793C146.156 142.758 146.129 142.724 146.102 142.689C144.441 140.534 143.138 138.088 142.285 135.44C141.539 133.126 141.137 130.658 141.137 128.097C141.137 114.887 151.845 104.179 165.054 104.179C170.233 104.179 175.028 105.825 178.943 108.623C180.985 110.082 182.788 111.854 184.282 113.869C185.775 111.854 187.578 110.082 189.62 108.623C193.535 105.825 198.33 104.179 203.509 104.179C216.718 104.179 227.426 114.887 227.426 128.097C227.426 130.658 227.024 133.126 226.278 135.44C225.424 138.09 224.12 140.538 222.457 142.694C222.431 142.728 222.404 142.762 222.378 142.795C222.359 142.82 222.339 142.845 222.32 142.87H222.457L221.254 144.133C220.977 144.439 220.693 144.738 220.401 145.029L184.279 182.967Z" fill="#F87793"/>
<path fill-rule="evenodd" clip-rule="evenodd" d="M487.984 403.03L488.052 402.963C488.254 402.761 488.45 402.555 488.642 402.343L488.706 402.273L488.945 402.022L489.378 401.471C491.583 398.666 492.895 395.142 492.895 391.291C492.895 382.185 485.513 374.803 476.407 374.803C470.98 374.803 466.166 377.417 463.149 381.487L457.18 389.541L451.211 381.487C448.194 377.417 443.38 374.803 437.953 374.803C428.847 374.803 421.465 382.185 421.465 391.291C421.465 395.142 422.776 398.666 424.982 401.471L425.435 402.047L425.729 402.356L425.78 402.411C425.931 402.577 426.086 402.739 426.244 402.898L426.296 402.951L457.178 435.386L487.984 403.03ZM457.178 446.161L420.967 408.129C420.739 407.899 420.515 407.664 420.296 407.425L419.001 406.064H419.142C419.122 406.038 419.102 406.013 419.082 405.987C419.055 405.952 419.028 405.917 419.001 405.883C417.339 403.728 416.037 401.282 415.184 398.634C414.438 396.32 414.035 393.852 414.035 391.291C414.035 378.081 424.743 367.373 437.953 367.373C443.132 367.373 447.926 369.019 451.841 371.817C453.883 373.276 455.686 375.048 457.18 377.063C458.674 375.048 460.477 373.276 462.519 371.817C466.434 369.019 471.228 367.373 476.407 367.373C489.617 367.373 500.325 378.081 500.325 391.291C500.325 393.852 499.922 396.32 499.176 398.634C498.322 401.284 497.019 403.732 495.355 405.888C495.329 405.922 495.303 405.955 495.277 405.989C495.257 406.014 495.238 406.039 495.218 406.064H495.355L494.153 407.327C493.876 407.633 493.591 407.932 493.299 408.223L457.178 446.161Z" fill="#F87793"/>
<path fill-rule="evenodd" clip-rule="evenodd" d="M557.735 -21.7841L555.837 -9.55663C555.82 -9.44649 555.79 -9.33865 555.749 -9.23523L548.219 9.48677C545.287 8.06744 541.803 7.79739 538.506 9.01609C532.075 11.3931 528.788 18.5334 531.165 24.9645L542.203 54.8291C544.58 61.2601 551.721 64.5466 558.152 62.1696C561.696 60.8596 564.285 58.1028 565.498 54.8153C569.111 56.3129 573.276 56.505 577.234 55.0421L603.183 45.4509C610.575 42.719 614.9 35.0359 613.402 27.2994L608.626 2.62965C606.738 -7.117 596.562 -12.8462 587.25 -9.40437L582.892 -7.79371L583.41 -15.3953C583.757 -20.4975 581.416 -25.411 577.234 -28.3554L575.72 -29.4221C572.293 -31.8349 567.825 -32.1927 564.059 -30.3559C560.675 -28.7059 558.313 -25.5041 557.735 -21.7841ZM547.001 17.7522C547.102 19.2674 547.419 20.7882 547.966 22.2699L556.563 45.5278C557.138 47.0855 557.93 48.5009 558.891 49.7527C559.252 52.099 557.929 54.4542 555.616 55.3093C552.974 56.2859 550.04 54.9356 549.064 52.2934L538.025 22.4288C537.049 19.7866 538.399 16.853 541.041 15.8764C543.271 15.0525 545.707 15.8849 547.001 17.7522ZM565.481 46.1895C567.83 48.5108 571.396 49.4023 574.698 48.1818L600.648 38.5906C604.679 37.1004 607.039 32.9097 606.222 28.6898L601.445 4.01998C600.416 -1.29636 594.865 -4.42137 589.785 -2.54403L574.827 2.98461L576.112 -15.8921C576.286 -18.4445 575.115 -20.9024 573.023 -22.3754L571.509 -23.442C570.261 -24.3202 568.635 -24.4505 567.264 -23.7819C566.033 -23.1813 565.173 -22.016 564.963 -20.662L563.064 -8.43454C562.962 -7.77366 562.784 -7.12668 562.534 -6.50618L554.581 13.2698C554.305 14.1221 554.188 14.9507 554.207 15.7398C554.295 15.942 554.377 16.1477 554.454 16.3566L565.481 46.1895Z" fill="#F87793"/>
<path d="M209.316 310.851C208.336 310.851 207.552 310.46 206.964 309.677C206.442 308.894 206.246 307.948 206.376 306.838L217.056 244.885C217.252 244.103 217.611 243.483 218.134 243.026C218.657 242.569 219.277 242.341 219.996 242.341C221.041 242.341 221.825 242.732 222.347 243.515C222.935 244.233 223.131 245.146 222.935 246.256L212.255 308.307C212.19 309.089 211.863 309.709 211.275 310.166C210.753 310.623 210.1 310.851 209.316 310.851ZM204.711 265.634C203.796 265.634 203.012 265.341 202.359 264.753C201.771 264.101 201.477 263.318 201.477 262.405C201.477 261.556 201.771 260.871 202.359 260.349C203.012 259.827 203.796 259.566 204.711 259.566H253.897C254.811 259.566 255.562 259.893 256.15 260.545C256.738 261.132 257.032 261.883 257.032 262.796C257.032 263.644 256.738 264.329 256.15 264.851C255.562 265.373 254.811 265.634 253.897 265.634H204.711ZM234.693 310.851C233.647 310.851 232.831 310.46 232.243 309.677C231.72 308.894 231.557 307.948 231.753 306.838L242.433 244.885C242.564 244.103 242.89 243.483 243.413 243.026C243.935 242.569 244.588 242.341 245.372 242.341C246.417 242.341 247.201 242.732 247.724 243.515C248.312 244.233 248.508 245.146 248.312 246.256L237.632 308.307C237.501 309.089 237.175 309.709 236.652 310.166C236.13 310.623 235.476 310.851 234.693 310.851ZM200.792 293.136C199.942 293.136 199.191 292.843 198.538 292.256C197.95 291.603 197.656 290.853 197.656 290.004C197.656 289.156 197.95 288.471 198.538 287.949C199.191 287.427 199.942 287.166 200.792 287.166H250.075C250.99 287.166 251.741 287.46 252.329 288.047C252.917 288.634 253.211 289.385 253.211 290.298C253.211 291.146 252.917 291.831 252.329 292.353C251.741 292.875 250.99 293.136 250.075 293.136H200.792Z" fill="#F87793"/>
<path d="M549.015 196.669C548.035 196.669 547.251 196.277 546.664 195.494C546.141 194.711 545.945 193.765 546.076 192.656L556.755 130.703C556.951 129.92 557.311 129.3 557.833 128.843C558.356 128.387 558.976 128.158 559.695 128.158C560.74 128.158 561.524 128.55 562.046 129.333C562.634 130.05 562.83 130.964 562.634 132.073L551.954 194.124C551.889 194.907 551.563 195.527 550.975 195.983C550.452 196.44 549.799 196.669 549.015 196.669ZM544.41 151.452C543.496 151.452 542.712 151.158 542.058 150.571C541.471 149.918 541.177 149.135 541.177 148.222C541.177 147.374 541.471 146.689 542.058 146.167C542.712 145.645 543.496 145.384 544.41 145.384H593.596C594.51 145.384 595.261 145.71 595.849 146.362C596.437 146.95 596.731 147.7 596.731 148.613C596.731 149.462 596.437 150.147 595.849 150.669C595.261 151.191 594.51 151.452 593.596 151.452H544.41ZM574.392 196.669C573.347 196.669 572.53 196.277 571.942 195.494C571.42 194.711 571.256 193.765 571.452 192.656L582.132 130.703C582.263 129.92 582.589 129.3 583.112 128.843C583.634 128.387 584.288 128.158 585.072 128.158C586.117 128.158 586.9 128.55 587.423 129.333C588.011 130.05 588.207 130.964 588.011 132.073L577.331 194.124C577.201 194.907 576.874 195.527 576.351 195.983C575.829 196.44 575.176 196.669 574.392 196.669ZM540.491 178.954C539.642 178.954 538.89 178.66 538.237 178.073C537.649 177.42 537.355 176.67 537.355 175.822C537.355 174.974 537.649 174.289 538.237 173.767C538.89 173.245 539.642 172.984 540.491 172.984H589.775C590.689 172.984 591.44 173.277 592.028 173.864C592.616 174.452 592.91 175.202 592.91 176.115C592.91 176.964 592.616 177.649 592.028 178.171C591.44 178.693 590.689 178.954 589.775 178.954H540.491Z" fill="#F87793"/>
<path fill-rule="evenodd" clip-rule="evenodd" d="M441.15 225.207C464.321 225.207 483.105 206.423 483.105 183.252C483.105 160.081 464.321 141.297 441.15 141.297C417.979 141.297 399.195 160.081 399.195 183.252C399.195 206.423 417.979 225.207 441.15 225.207ZM441.15 232.637C468.424 232.637 490.535 210.527 490.535 183.252C490.535 155.978 468.424 133.868 441.15 133.868C413.876 133.868 391.766 155.978 391.766 183.252C391.766 210.527 413.876 232.637 441.15 232.637Z" fill="#F87793"/>
<path fill-rule="evenodd" clip-rule="evenodd" d="M465.708 192.282C467.184 193.707 467.226 196.059 465.801 197.535C456.453 207.223 446.222 209.434 437.244 207.959C428.508 206.524 421.232 201.663 417.124 197.595C415.667 196.151 415.655 193.799 417.099 192.342C418.542 190.884 420.894 190.872 422.352 192.316C425.641 195.573 431.578 199.5 438.448 200.628C445.076 201.717 452.842 200.266 460.455 192.376C461.88 190.9 464.231 190.858 465.708 192.282Z" fill="#F87793"/>
<path d="M431.154 171.549C431.154 174.071 429.109 176.116 426.587 176.116C424.064 176.116 422.02 174.071 422.02 171.549C422.02 169.026 424.064 166.981 426.587 166.981C429.109 166.981 431.154 169.026 431.154 171.549Z" fill="#F87793"/>
<path d="M460.85 171.549C460.85 174.071 458.805 176.116 456.282 176.116C453.76 176.116 451.715 174.071 451.715 171.549C451.715 169.026 453.76 166.981 456.282 166.981C458.805 166.981 460.85 169.026 460.85 171.549Z" fill="#F87793"/>
<path fill-rule="evenodd" clip-rule="evenodd" d="M286.023 -33.4054H207.085C201.862 -33.4054 197.629 -29.1719 197.629 -23.9496V16.6091C197.629 21.8314 201.862 26.0649 207.085 26.0649H286.023C291.245 26.0649 295.478 21.8314 295.478 16.6091V-23.9495C295.478 -29.1719 291.245 -33.4054 286.023 -33.4054ZM207.085 -40.835C197.759 -40.835 190.199 -33.2751 190.199 -23.9496V16.6091C190.199 21.7755 192.52 26.4001 196.175 29.4974C191.611 31.0149 187.816 34.4457 185.906 39.0459L183.387 45.1118C178.769 56.2316 186.94 68.4732 198.981 68.4732H298.272C311.817 68.4732 319.849 53.3253 312.248 42.1132L308.136 36.0473C305.634 32.3565 301.805 29.8444 297.521 28.9742C300.835 25.8913 302.908 21.4923 302.908 16.6091V-23.9495C302.908 -33.2751 295.348 -40.835 286.023 -40.835H207.085ZM294.16 36.0661H201.5C197.679 36.0661 194.233 38.3662 192.767 41.8954L190.248 47.9612C187.662 54.1883 192.238 61.0436 198.981 61.0436H298.272C305.857 61.0436 310.355 52.5608 306.099 46.282L301.987 40.2161C300.227 37.6206 297.295 36.0661 294.16 36.0661ZM223.353 51.9563C222.112 51.9563 220.995 52.7122 220.534 53.8649C219.736 55.8594 221.205 58.0289 223.353 58.0289H279.968C282.117 58.0289 283.585 55.8594 282.788 53.8649C282.327 52.7122 281.21 51.9563 279.968 51.9563H223.353Z" fill="#F87793"/>
<path fill-rule="evenodd" clip-rule="evenodd" d="M390.047 85.9005L392.14 100.872L409.635 85.9005H481.645C486.867 85.9005 491.1 81.667 491.1 76.4447V29.716C491.1 24.4936 486.867 20.2601 481.645 20.2601H380.678C375.456 20.2601 371.223 24.4936 371.223 29.7159V76.4447C371.223 81.667 375.456 85.9005 380.678 85.9005H390.047ZM386.66 115.34L383.584 93.3301H380.678C371.353 93.3301 363.793 85.7702 363.793 76.4447V29.7159C363.793 20.3904 371.353 12.8306 380.678 12.8306H481.645C490.97 12.8306 498.53 20.3904 498.53 29.716V76.4447C498.53 85.7702 490.97 93.3301 481.645 93.3301H412.38L386.66 115.34Z" fill="#F87793"/>
<path fill-rule="evenodd" clip-rule="evenodd" d="M344.518 241.402L347.898 239.925C352.684 237.834 358.258 240.018 360.349 244.803L396.433 327.382C398.524 332.168 396.34 337.742 391.555 339.833L360.245 353.515C355.459 355.606 349.885 353.422 347.794 348.636L311.71 266.057C309.619 261.272 311.803 255.697 316.588 253.606L320.49 251.901C320.495 251.921 320.5 251.941 320.506 251.961C321.054 253.98 323.267 255.04 325.184 254.203L343.019 246.41C344.935 245.572 345.66 243.227 344.551 241.454C344.54 241.436 344.529 241.419 344.518 241.402ZM304.902 269.032C301.168 260.486 305.068 250.532 313.613 246.798L344.923 233.117C353.469 229.383 363.423 233.283 367.157 241.828L403.241 324.408C406.975 332.953 403.075 342.907 394.529 346.641L363.22 360.323C354.674 364.057 344.72 360.156 340.986 351.611L304.902 269.032Z" fill="#F87793"/>
<path fill-rule="evenodd" clip-rule="evenodd" d="M205.956 352.187L208.686 354.665C212.553 358.175 212.842 364.156 209.331 368.022L148.758 434.747C145.248 438.614 139.267 438.903 135.401 435.393L110.102 412.426C106.235 408.916 105.946 402.936 109.457 399.069L170.03 332.344C173.54 328.477 179.521 328.188 183.387 331.699L186.542 334.562C186.526 334.575 186.51 334.587 186.494 334.6C184.877 335.926 184.815 338.38 186.363 339.786L200.774 352.868C202.323 354.274 204.759 353.976 205.923 352.238C205.934 352.221 205.945 352.204 205.956 352.187ZM164.529 327.35C170.798 320.446 181.476 319.93 188.381 326.198L213.68 349.164C220.585 355.433 221.101 366.111 214.832 373.016L154.259 439.741C147.991 446.646 137.312 447.162 130.407 440.894L105.108 417.927C98.2034 411.659 97.6874 400.98 103.956 394.075L164.529 327.35Z" fill="#F87793"/>
<path fill-rule="evenodd" clip-rule="evenodd" d="M68.7517 766.311L68.8053 766.257C68.8629 766.199 68.9193 766.139 68.9746 766.079L69.0259 766.023L69.1048 765.94L69.2614 765.741C70.053 764.734 70.5208 763.477 70.5208 762.091C70.5208 758.824 67.8722 756.175 64.6051 756.175C62.6614 756.175 60.9364 757.105 59.8459 758.576L53.8775 766.627L47.9091 758.576C46.8187 757.105 45.0937 756.175 43.1499 756.175C39.8828 756.175 37.2343 758.824 37.2343 762.091C37.2343 763.477 37.7021 764.734 38.4936 765.741L38.6362 765.922L38.6859 765.974L38.7535 766.049C38.8262 766.13 38.9011 766.208 38.9781 766.285L39.0496 766.356L53.879 781.931L68.7517 766.311ZM53.879 792.706L33.7385 771.552C33.5661 771.381 33.3984 771.205 33.2356 771.024L32.5773 770.333H32.6532C32.6423 770.319 32.6315 770.305 32.6208 770.291C32.6062 770.273 32.5917 770.254 32.5773 770.235C30.9934 768.182 29.9942 765.655 29.829 762.903C29.8129 762.634 29.8047 762.364 29.8047 762.091C29.8047 754.72 35.7796 748.746 43.1499 748.746C44.8501 748.746 46.4759 749.064 47.9714 749.643C50.3429 750.562 52.3864 752.14 53.8775 754.151C55.3687 752.14 57.4121 750.562 59.7837 749.643C61.2791 749.064 62.905 748.746 64.6051 748.746C71.9755 748.746 77.9503 754.72 77.9503 762.091C77.9503 762.364 77.9422 762.634 77.926 762.903C77.7609 765.653 76.7628 768.179 75.1807 770.231C75.1657 770.251 75.1507 770.27 75.1355 770.29C75.1243 770.304 75.1131 770.318 75.1019 770.333H75.1807L74.459 771.091C74.3354 771.226 74.2091 771.359 74.0801 771.489L53.879 792.706Z" fill="#F87793"/>
<path fill-rule="evenodd" clip-rule="evenodd" d="M558.599 766.31L558.653 766.257C558.711 766.198 558.767 766.139 558.822 766.079L558.873 766.023L558.952 765.94L559.109 765.741C559.901 764.734 560.368 763.477 560.368 762.091C560.368 758.824 557.72 756.175 554.453 756.175C552.509 756.175 550.784 757.105 549.694 758.576L543.725 766.627L537.757 758.576C536.666 757.105 534.941 756.175 532.998 756.175C529.73 756.175 527.082 758.824 527.082 762.091C527.082 763.477 527.55 764.734 528.341 765.741L528.484 765.922L528.534 765.974L528.601 766.049C528.674 766.13 528.749 766.208 528.826 766.285L528.897 766.356L543.727 781.931L558.599 766.31ZM543.727 792.706L523.586 771.552C523.414 771.381 523.246 771.205 523.083 771.024L522.425 770.333H522.501C522.49 770.319 522.479 770.305 522.468 770.291C522.454 770.273 522.439 770.254 522.425 770.235C520.841 768.182 519.842 765.655 519.677 762.903C519.661 762.634 519.652 762.364 519.652 762.091C519.652 754.72 525.627 748.746 532.998 748.746C534.698 748.746 536.324 749.064 537.819 749.643C540.191 750.562 542.234 752.14 543.725 754.151C545.216 752.14 547.26 750.562 549.631 749.643C551.127 749.064 552.753 748.746 554.453 748.746C561.823 748.746 567.798 754.72 567.798 762.091C567.798 762.364 567.79 762.634 567.774 762.903C567.609 765.653 566.61 768.179 565.028 770.231C565.013 770.251 564.998 770.27 564.983 770.29C564.972 770.304 564.961 770.318 564.95 770.333H565.028L564.307 771.091C564.183 771.226 564.057 771.359 563.928 771.489L543.727 792.706Z" fill="#F87793"/>
<path fill-rule="evenodd" clip-rule="evenodd" d="M12.6705 802.976L14.7627 817.947L32.2573 802.976H104.266C109.488 802.976 113.722 798.742 113.722 793.52V746.791C113.722 741.569 109.488 737.335 104.266 737.335H3.29948C-1.92284 737.335 -6.15635 741.569 -6.15635 746.791V793.52C-6.15635 798.742 -1.92283 802.976 3.29949 802.976H12.6705ZM9.28283 832.415L6.20697 810.405H3.29949C-6.02607 810.405 -13.5859 802.846 -13.5859 793.52V746.791C-13.5859 737.466 -6.02608 729.906 3.29948 729.906H104.266C113.591 729.906 121.151 737.466 121.151 746.791V793.52C121.151 802.846 113.591 810.405 104.266 810.405H35.0023L9.28283 832.415Z" fill="#F87793"/>
<path fill-rule="evenodd" clip-rule="evenodd" d="M502.52 802.976L504.612 817.947L522.108 802.976H594.117C599.34 802.976 603.573 798.742 603.573 793.52V746.791C603.573 741.569 599.34 737.335 594.117 737.335H493.151C487.929 737.335 483.695 741.569 483.695 746.791V793.52C483.695 798.742 487.929 802.976 493.151 802.976H502.52ZM499.132 832.415L496.057 810.405H493.151C483.825 810.405 476.266 802.845 476.266 793.52V746.791C476.266 737.466 483.825 729.906 493.151 729.906H594.117C603.443 729.906 611.003 737.466 611.003 746.791V793.52C611.003 802.845 603.443 810.405 594.117 810.405H524.853L499.132 832.415Z" fill="#F87793"/>
<path fill-rule="evenodd" clip-rule="evenodd" d="M215.086 629.684L215.153 629.616C215.355 629.415 215.552 629.208 215.743 628.997L215.807 628.926L216.046 628.675L216.479 628.124C218.685 625.32 219.996 621.795 219.996 617.944C219.996 608.838 212.615 601.456 203.509 601.456C198.082 601.456 193.267 604.071 190.251 608.14L184.282 616.194L178.312 608.14C175.296 604.071 170.481 601.456 165.054 601.456C155.948 601.456 148.567 608.838 148.567 617.944C148.567 621.795 149.878 625.319 152.084 628.124L152.537 628.7L152.831 629.009L152.881 629.064C153.033 629.23 153.187 629.392 153.345 629.552L153.398 629.605L184.279 662.039L215.086 629.684ZM184.279 672.814L148.069 634.783C147.841 634.552 147.617 634.317 147.398 634.078L146.102 632.717H146.243C146.223 632.692 146.203 632.666 146.183 632.64C146.156 632.605 146.129 632.571 146.102 632.536C144.441 630.381 143.138 627.935 142.285 625.287C141.539 622.973 141.137 620.506 141.137 617.944C141.137 604.735 151.845 594.026 165.054 594.026C170.233 594.026 175.028 595.672 178.943 598.47C180.985 599.929 182.788 601.701 184.282 603.716C185.775 601.701 187.578 599.929 189.62 598.47C193.535 595.672 198.33 594.026 203.509 594.026C216.718 594.026 227.426 604.735 227.426 617.944C227.426 620.506 227.024 622.973 226.278 625.287C225.424 627.937 224.12 630.385 222.457 632.541C222.431 632.575 222.404 632.609 222.378 632.642C222.359 632.667 222.339 632.692 222.32 632.717H222.457L221.254 633.98C220.977 634.286 220.693 634.585 220.401 634.876L184.279 672.814Z" fill="#F87793"/>
<path fill-rule="evenodd" clip-rule="evenodd" d="M293.656 638.351L280.821 667.489C278.058 673.763 270.731 676.61 264.456 673.846C258.181 671.082 255.335 663.755 258.099 657.481L270.933 628.343C273.697 622.068 281.024 619.222 287.299 621.986C293.573 624.749 296.419 632.076 293.656 638.351ZM284.35 628.679C281.773 627.544 278.762 628.713 277.627 631.291L264.793 660.429C263.657 663.007 264.826 666.017 267.404 667.152C269.982 668.288 272.992 667.119 274.128 664.541L286.962 635.403C288.098 632.825 286.928 629.815 284.35 628.679Z" fill="#F87793"/>
<path fill-rule="evenodd" clip-rule="evenodd" d="M292.683 629.641L312.379 620.858C312.481 620.812 312.577 620.755 312.666 620.688L322.533 613.221L326.947 619.053L317.08 626.52C316.547 626.924 315.969 627.265 315.358 627.537L295.891 636.219C294.802 636.797 293.963 637.554 293.355 638.414C292.627 639.152 292.019 640.032 291.576 641.037L281.581 663.729C279.627 668.166 281.639 673.346 286.075 675.299L311.394 686.451C315.327 688.184 319.937 686.813 322.284 683.212L336.006 662.161C338.963 657.625 337.147 651.519 332.191 649.336L317.593 642.906L331.643 630.234C333.542 628.52 334.41 625.94 333.931 623.427L333.584 621.607L340.769 620.237L341.116 622.057C342.073 627.081 340.339 632.24 336.541 635.665L330.883 640.768L335.139 642.643C344.225 646.645 347.554 657.839 342.133 666.155L328.411 687.206C324.108 693.807 315.657 696.321 308.445 693.145L283.127 681.993C274.995 678.411 271.306 668.914 274.888 660.781L284.883 638.089C285.608 636.443 286.584 634.967 287.749 633.697C288.989 632.097 290.58 630.758 292.461 629.759L292.683 629.641ZM333.584 621.607C333.299 620.108 332.22 618.884 330.77 618.411C329.468 617.986 328.039 618.226 326.947 619.053L322.533 613.221C325.535 610.949 329.459 610.29 333.038 611.458C337.022 612.757 339.984 616.121 340.769 620.237L333.584 621.607Z" fill="#F87793"/>
<path fill-rule="evenodd" clip-rule="evenodd" d="M66.7397 468.065L64.8413 480.293C64.8242 480.403 64.7946 480.511 64.753 480.614L57.2242 499.334C54.2923 497.916 50.8099 497.647 47.5138 498.865C41.0827 501.242 37.7963 508.382 40.1732 514.813L51.2115 544.678C53.5885 551.109 60.7289 554.396 67.1599 552.019C70.7036 550.709 73.2925 547.953 74.5051 544.666C78.1175 546.162 82.2814 546.354 86.2381 544.892L112.188 535.3C119.579 532.568 123.904 524.885 122.406 517.149L117.63 492.479C115.743 482.732 105.566 477.003 96.254 480.445L91.8963 482.056L92.4137 474.454C92.761 469.352 90.4199 464.438 86.2386 461.494L84.7239 460.427C81.2974 458.015 76.8296 457.657 73.0628 459.494C69.679 461.144 67.3172 464.345 66.7397 468.065ZM56.0048 507.595C56.1048 509.112 56.4221 510.635 56.9705 512.119L65.5669 535.377C66.1437 536.938 66.9368 538.355 67.8997 539.609C68.258 541.953 66.9353 544.304 64.6243 545.158C61.9821 546.135 59.0485 544.785 58.0719 542.142L47.0336 512.278C46.057 509.636 47.4073 506.702 50.0495 505.725C52.2762 504.902 54.71 505.732 56.0048 507.595ZM74.4913 536.045C76.8403 538.362 80.4034 539.251 83.7025 538.031L109.652 528.44C113.684 526.95 116.043 522.759 115.226 518.539L110.449 493.869C109.42 488.553 103.869 485.428 98.7897 487.305L83.8317 492.834L85.1167 473.957C85.2904 471.405 84.1193 468.947 82.0275 467.474L80.5128 466.407C79.2657 465.529 77.6395 465.399 76.2685 466.068C75.0369 466.668 74.1772 467.833 73.967 469.187L72.0687 481.415C71.9661 482.076 71.7883 482.723 71.5387 483.343L63.5853 503.119C63.3099 503.968 63.1936 504.793 63.2114 505.579C63.3001 505.784 63.3837 505.993 63.4622 506.206L74.4913 536.045Z" fill="#F87793"/>
<path fill-rule="evenodd" clip-rule="evenodd" d="M557.734 468.064L555.835 480.292C555.818 480.402 555.788 480.51 555.747 480.613L548.218 499.334C545.286 497.915 541.802 497.645 538.506 498.864C532.075 501.241 528.788 508.381 531.165 514.812L542.203 544.677C544.58 551.108 551.721 554.394 558.152 552.017C561.696 550.708 564.285 547.951 565.497 544.664C569.11 546.161 573.275 546.353 577.232 544.89L603.181 535.299C610.573 532.567 614.898 524.884 613.4 517.148L608.624 492.478C606.736 482.731 596.56 477.002 587.248 480.444L582.89 482.055L583.408 474.453C583.755 469.351 581.414 464.437 577.232 461.493L575.718 460.426C572.291 458.013 567.823 457.656 564.057 459.492C560.673 461.142 558.311 464.344 557.734 468.064ZM546.999 507.597C547.099 509.113 547.416 510.635 547.964 512.118L556.561 535.376C557.137 536.935 557.929 538.352 558.891 539.604C559.251 541.949 557.928 544.303 555.616 545.157C552.974 546.134 550.04 544.783 549.064 542.141L538.026 512.277C537.049 509.635 538.399 506.701 541.041 505.724C543.269 504.901 545.705 505.732 546.999 507.597ZM565.482 536.041C567.831 538.36 571.396 539.25 574.696 538.03L600.646 528.439C604.678 526.949 607.037 522.758 606.22 518.538L601.443 493.868C600.414 488.552 594.863 485.427 589.784 487.304L574.826 492.833L576.111 473.956C576.284 471.404 575.113 468.946 573.021 467.473L571.507 466.406C570.26 465.528 568.633 465.398 567.262 466.066C566.031 466.667 565.171 467.832 564.961 469.186L563.063 481.414C562.96 482.075 562.782 482.722 562.533 483.342L554.579 503.118C554.303 503.968 554.187 504.795 554.205 505.583C554.293 505.787 554.376 505.994 554.454 506.205L565.482 536.041Z" fill="#F87793"/>
<path d="M209.316 800.7C208.336 800.7 207.552 800.308 206.964 799.525C206.442 798.742 206.246 797.796 206.376 796.687L217.056 734.734C217.252 733.951 217.611 733.331 218.134 732.875C218.657 732.418 219.277 732.189 219.996 732.189C221.041 732.189 221.825 732.581 222.347 733.364C222.935 734.082 223.131 734.995 222.935 736.104L212.255 798.155C212.19 798.938 211.863 799.558 211.275 800.015C210.753 800.471 210.1 800.7 209.316 800.7ZM204.711 755.483C203.796 755.483 203.012 755.189 202.359 754.602C201.771 753.95 201.477 753.167 201.477 752.253C201.477 751.405 201.771 750.72 202.359 750.198C203.012 749.676 203.796 749.415 204.711 749.415H253.897C254.811 749.415 255.562 749.741 256.15 750.394C256.738 750.981 257.032 751.731 257.032 752.645C257.032 753.493 256.738 754.178 256.15 754.7C255.562 755.222 254.811 755.483 253.897 755.483H204.711ZM234.693 800.7C233.647 800.7 232.831 800.308 232.243 799.525C231.72 798.742 231.557 797.796 231.753 796.687L242.433 734.734C242.564 733.951 242.89 733.331 243.413 732.875C243.935 732.418 244.588 732.189 245.372 732.189C246.417 732.189 247.201 732.581 247.724 733.364C248.312 734.082 248.508 734.995 248.312 736.104L237.632 798.155C237.501 798.938 237.175 799.558 236.652 800.015C236.13 800.471 235.476 800.7 234.693 800.7ZM200.792 782.985C199.942 782.985 199.191 782.691 198.538 782.104C197.95 781.452 197.656 780.701 197.656 779.853C197.656 779.005 197.95 778.32 198.538 777.798C199.191 777.276 199.942 777.015 200.792 777.015H250.075C250.99 777.015 251.741 777.308 252.329 777.896C252.917 778.483 253.211 779.233 253.211 780.147C253.211 780.995 252.917 781.68 252.329 782.202C251.741 782.724 250.99 782.985 250.075 782.985H200.792Z" fill="#F87793"/>
<path d="M549.015 686.516C548.035 686.516 547.251 686.124 546.664 685.341C546.141 684.558 545.945 683.612 546.076 682.503L556.755 620.55C556.951 619.767 557.311 619.147 557.833 618.69C558.356 618.234 558.976 618.005 559.695 618.005C560.74 618.005 561.524 618.397 562.046 619.18C562.634 619.898 562.83 620.811 562.634 621.92L551.954 683.971C551.889 684.754 551.563 685.374 550.975 685.831C550.452 686.287 549.799 686.516 549.015 686.516ZM544.41 641.299C543.496 641.299 542.712 641.005 542.058 640.418C541.471 639.766 541.177 638.983 541.177 638.069C541.177 637.221 541.471 636.536 542.058 636.014C542.712 635.492 543.496 635.231 544.41 635.231H593.596C594.51 635.231 595.261 635.557 595.849 636.21C596.437 636.797 596.731 637.547 596.731 638.461C596.731 639.309 596.437 639.994 595.849 640.516C595.261 641.038 594.51 641.299 593.596 641.299H544.41ZM574.392 686.516C573.347 686.516 572.53 686.124 571.942 685.341C571.42 684.558 571.256 683.612 571.452 682.503L582.132 620.55C582.263 619.767 582.589 619.147 583.112 618.69C583.634 618.234 584.288 618.005 585.072 618.005C586.117 618.005 586.9 618.397 587.423 619.18C588.011 619.898 588.207 620.811 588.011 621.92L577.331 683.971C577.201 684.754 576.874 685.374 576.351 685.831C575.829 686.287 575.176 686.516 574.392 686.516ZM540.491 668.801C539.642 668.801 538.89 668.507 538.237 667.92C537.649 667.268 537.355 666.517 537.355 665.669C537.355 664.821 537.649 664.136 538.237 663.614C538.89 663.092 539.642 662.831 540.491 662.831H589.775C590.689 662.831 591.44 663.124 592.028 663.712C592.616 664.299 592.91 665.049 592.91 665.963C592.91 666.811 592.616 667.496 592.028 668.018C591.44 668.54 590.689 668.801 589.775 668.801H540.491Z" fill="#F87793"/>
<path d="M59.7299 686.516C58.7501 686.516 57.9663 686.124 57.3784 685.341C56.8558 684.558 56.6599 683.612 56.7905 682.503L67.4703 620.55C67.6662 619.767 68.0255 619.147 68.548 618.69C69.0706 618.234 69.6911 618.005 70.4097 618.005C71.4548 618.005 72.2386 618.397 72.7612 619.18C73.349 619.898 73.545 620.811 73.349 621.92L62.6693 683.971C62.604 684.754 62.2774 685.374 61.6895 685.831C61.1669 686.287 60.5137 686.516 59.7299 686.516ZM55.1248 641.299C54.2104 641.299 53.4265 641.005 52.7733 640.418C52.1855 639.766 51.8915 638.983 51.8915 638.069C51.8915 637.221 52.1855 636.536 52.7733 636.014C53.4265 635.492 54.2104 635.231 55.1248 635.231H104.311C105.225 635.231 105.976 635.557 106.564 636.21C107.152 636.797 107.446 637.547 107.446 638.461C107.446 639.309 107.152 639.994 106.564 640.516C105.976 641.038 105.225 641.299 104.311 641.299H55.1248ZM85.1066 686.516C84.0615 686.516 83.245 686.124 82.6571 685.341C82.1346 684.558 81.9713 683.612 82.1672 682.503L92.847 620.55C92.9776 619.767 93.3042 619.147 93.8268 618.69C94.3493 618.234 95.0025 618.005 95.7864 618.005C96.8315 618.005 97.6153 618.397 98.1379 619.18C98.7258 619.898 98.9217 620.811 98.7258 621.92L88.046 683.971C87.9153 684.754 87.5887 685.374 87.0662 685.831C86.5436 686.287 85.8904 686.516 85.1066 686.516ZM51.2057 668.801C50.3565 668.801 49.6053 668.507 48.9521 667.92C48.3643 667.268 48.0703 666.517 48.0703 665.669C48.0703 664.821 48.3643 664.136 48.9521 663.614C49.6053 663.092 50.3565 662.831 51.2057 662.831H100.489C101.404 662.831 102.155 663.124 102.743 663.712C103.331 664.299 103.625 665.049 103.625 665.963C103.625 666.811 103.331 667.496 102.743 668.018C102.155 668.54 101.404 668.801 100.489 668.801H51.2057Z" fill="#F87793"/>
<path d="M356.046 477.56C355.066 477.56 354.283 477.169 353.695 476.386C353.172 475.603 352.976 474.657 353.107 473.547L363.787 411.594C363.983 410.812 364.342 410.192 364.864 409.735C365.387 409.278 366.008 409.05 366.726 409.05C367.771 409.05 368.555 409.441 369.078 410.224C369.665 410.942 369.861 411.855 369.665 412.965L358.986 475.015C358.92 475.798 358.594 476.418 358.006 476.875C357.483 477.332 356.83 477.56 356.046 477.56ZM351.441 432.343C350.527 432.343 349.743 432.05 349.09 431.462C348.502 430.81 348.208 430.027 348.208 429.114C348.208 428.265 348.502 427.58 349.09 427.058C349.743 426.536 350.527 426.275 351.441 426.275H400.627C401.541 426.275 402.293 426.602 402.881 427.254C403.468 427.841 403.762 428.592 403.762 429.505C403.762 430.353 403.468 431.038 402.881 431.56C402.293 432.082 401.541 432.343 400.627 432.343H351.441ZM381.423 477.56C380.378 477.56 379.561 477.169 378.974 476.386C378.451 475.603 378.288 474.657 378.484 473.547L389.163 411.594C389.294 410.812 389.621 410.192 390.143 409.735C390.666 409.278 391.319 409.05 392.103 409.05C393.148 409.05 393.932 409.441 394.454 410.224C395.042 410.942 395.238 411.855 395.042 412.965L384.362 475.015C384.232 475.798 383.905 476.418 383.383 476.875C382.86 477.332 382.207 477.56 381.423 477.56ZM347.522 459.845C346.673 459.845 345.922 459.552 345.269 458.964C344.681 458.312 344.387 457.562 344.387 456.713C344.387 455.865 344.681 455.18 345.269 454.658C345.922 454.136 346.673 453.875 347.522 453.875H396.806C397.72 453.875 398.471 454.169 399.059 454.756C399.647 455.343 399.941 456.094 399.941 457.007C399.941 457.855 399.647 458.54 399.059 459.062C398.471 459.584 397.72 459.845 396.806 459.845H347.522Z" fill="#F87793"/>
<path fill-rule="evenodd" clip-rule="evenodd" d="M441.15 715.053C464.321 715.053 483.105 696.269 483.105 673.098C483.105 649.927 464.321 631.143 441.15 631.143C417.979 631.143 399.195 649.927 399.195 673.098C399.195 696.269 417.979 715.053 441.15 715.053ZM441.15 722.483C468.424 722.483 490.535 700.373 490.535 673.098C490.535 645.824 468.424 623.714 441.15 623.714C413.876 623.714 391.766 645.824 391.766 673.098C391.766 700.373 413.876 722.483 441.15 722.483Z" fill="#F87793"/>
<path fill-rule="evenodd" clip-rule="evenodd" d="M465.708 682.129C467.184 683.553 467.226 685.905 465.801 687.381C456.453 697.069 446.222 699.28 437.244 697.806C428.508 696.371 421.232 691.509 417.124 687.441C415.667 685.998 415.655 683.646 417.099 682.188C418.542 680.73 420.894 680.719 422.352 682.162C425.641 685.419 431.578 689.346 438.448 690.474C445.076 691.563 452.842 690.112 460.455 682.222C461.88 680.746 464.231 680.704 465.708 682.129Z" fill="#F87793"/>
<path d="M431.154 661.395C431.154 663.917 429.109 665.962 426.587 665.962C424.064 665.962 422.02 663.917 422.02 661.395C422.02 658.873 424.064 656.828 426.587 656.828C429.109 656.828 431.154 658.873 431.154 661.395Z" fill="#F87793"/>
<path d="M460.85 661.395C460.85 663.917 458.805 665.962 456.282 665.962C453.76 665.962 451.715 663.917 451.715 661.395C451.715 658.873 453.76 656.828 456.282 656.828C458.805 656.828 460.85 658.873 460.85 661.395Z" fill="#F87793"/>
<path fill-rule="evenodd" clip-rule="evenodd" d="M207.085 456.445H286.023C291.245 456.445 295.478 460.678 295.478 465.901V506.459C295.478 511.682 291.245 515.915 286.023 515.915H207.085C201.862 515.915 197.629 511.682 197.629 506.459V465.901C197.629 460.678 201.862 456.445 207.085 456.445ZM190.199 465.901C190.199 456.575 197.759 449.015 207.085 449.015H286.023C295.348 449.015 302.908 456.575 302.908 465.901V506.459C302.908 511.342 300.836 515.74 297.523 518.823C301.806 519.693 305.635 522.205 308.136 525.896L312.248 531.962C319.849 543.174 311.817 558.322 298.272 558.322H198.981C186.94 558.322 178.769 546.08 183.387 534.96L185.906 528.894C187.816 524.295 191.61 520.864 196.173 519.346C192.519 516.249 190.199 511.625 190.199 506.459V465.901ZM201.5 525.914H294.16C297.295 525.914 300.227 527.469 301.987 530.065L306.099 536.13C310.355 542.409 305.857 550.892 298.272 550.892H198.981C192.238 550.892 187.662 544.037 190.248 537.81L192.767 531.744C194.233 528.215 197.679 525.914 201.5 525.914Z" fill="#F87793"/>
<path d="M220.533 543.713C220.994 542.56 222.11 541.804 223.352 541.804H279.967C281.209 541.804 282.325 542.56 282.786 543.713C283.584 545.707 282.115 547.877 279.967 547.877H223.352C221.204 547.877 219.735 545.707 220.533 543.713Z" fill="#F87793"/>
<path fill-rule="evenodd" clip-rule="evenodd" d="M390.051 575.75L392.144 590.722L409.64 575.75H481.648C486.871 575.75 491.104 571.516 491.104 566.294V519.565C491.104 514.343 486.871 510.109 481.648 510.109H380.682C375.46 510.109 371.226 514.343 371.226 519.565V566.294C371.226 571.516 375.46 575.75 380.682 575.75H390.051ZM386.664 605.19L383.588 583.179H380.682C371.357 583.179 363.797 575.619 363.797 566.294V519.565C363.797 510.24 371.357 502.68 380.682 502.68H481.648C490.974 502.68 498.534 510.24 498.534 519.565V566.294C498.534 575.619 490.974 583.179 481.648 583.179H412.385L386.664 605.19Z" fill="#F87793"/>
<path d="M320.506 741.809C320.061 740.171 320.884 738.454 322.44 737.774L340.275 729.98C341.831 729.301 343.65 729.863 344.551 731.303C345.66 733.076 344.935 735.421 343.019 736.258L325.184 744.051C323.267 744.889 321.054 743.828 320.506 741.809Z" fill="#F87793"/>
<path fill-rule="evenodd" clip-rule="evenodd" d="M347.898 729.773L316.588 743.455C311.803 745.546 309.619 751.12 311.71 755.906L347.794 838.485C349.885 843.27 355.459 845.454 360.245 843.363L391.555 829.682C396.34 827.591 398.524 822.016 396.433 817.231L360.349 734.652C358.258 729.867 352.684 727.682 347.898 729.773ZM313.613 736.647C305.068 740.381 301.168 750.335 304.902 758.88L340.986 841.46C344.72 850.005 354.674 853.905 363.22 850.171L394.529 836.49C403.075 832.756 406.975 822.802 403.241 814.256L367.157 731.677C363.423 723.132 353.469 719.231 344.923 722.965L313.613 736.647Z" fill="#F87793"/>
<path fill-rule="evenodd" clip-rule="evenodd" d="M-49.2639 715.054C-26.0928 715.054 -7.30893 696.27 -7.30893 673.099C-7.30893 649.928 -26.0928 631.144 -49.2639 631.144C-72.435 631.144 -91.2189 649.928 -91.2189 673.099C-91.2189 696.27 -72.435 715.054 -49.2639 715.054ZM-49.2639 722.483C-21.9896 722.483 0.120651 700.373 0.120651 673.099C0.120651 645.825 -21.9896 623.714 -49.2639 623.714C-76.5382 623.714 -98.6484 645.825 -98.6484 673.099C-98.6484 700.373 -76.5382 722.483 -49.2639 722.483Z" fill="#F87793"/>
<path fill-rule="evenodd" clip-rule="evenodd" d="M-100.361 575.751L-98.2686 590.723L-80.7722 575.751H-8.76558C-3.54325 575.751 0.690262 571.517 0.690262 566.295V519.566C0.690262 514.344 -3.54327 510.11 -8.76558 510.11H-109.732C-114.954 510.11 -119.188 514.344 -119.188 519.566V566.295C-119.188 571.517 -114.954 575.751 -109.732 575.751H-100.361ZM-103.748 605.191L-106.824 583.18H-109.732C-119.057 583.18 -126.617 575.62 -126.617 566.295V519.566C-126.617 510.241 -119.057 502.681 -109.732 502.681H-8.76558C0.559982 502.681 8.11984 510.241 8.11984 519.566V566.295C8.11984 575.62 0.559982 583.18 -8.76558 583.18H-78.0272L-103.748 605.191Z" fill="#F87793"/>
<path fill-rule="evenodd" clip-rule="evenodd" d="M1048.64 276.494L1048.7 276.429C1048.77 276.358 1048.84 276.286 1048.91 276.212L1048.97 276.143L1049.03 276.081L1049.18 275.893C1049.97 274.887 1050.44 273.63 1050.44 272.244C1050.44 268.977 1047.79 266.328 1044.52 266.328C1042.58 266.328 1040.85 267.258 1039.76 268.729L1033.8 276.78L1027.83 268.729C1026.74 267.258 1025.01 266.328 1023.07 266.328C1019.8 266.328 1017.15 268.977 1017.15 272.244C1017.15 273.63 1017.62 274.887 1018.41 275.893L1018.56 276.086L1018.63 276.157L1018.69 276.22C1018.75 276.288 1018.81 276.355 1018.88 276.42L1018.94 276.481L1033.8 292.084L1048.64 276.494ZM1033.8 302.858L1013.62 281.666C1013.47 281.52 1013.33 281.371 1013.19 281.218L1012.49 280.486H1012.57C1012.56 280.471 1012.55 280.457 1012.54 280.443C1012.52 280.424 1012.51 280.405 1012.49 280.386C1010.91 278.333 1009.91 275.807 1009.75 273.056C1009.73 272.787 1009.72 272.516 1009.72 272.244C1009.72 264.873 1015.7 258.898 1023.07 258.898C1024.77 258.898 1026.39 259.216 1027.89 259.796C1030.26 260.715 1032.3 262.293 1033.8 264.304C1035.29 262.293 1037.33 260.715 1039.7 259.796C1041.2 259.216 1042.82 258.898 1044.52 258.898C1051.89 258.898 1057.87 264.873 1057.87 272.244C1057.87 272.516 1057.86 272.787 1057.84 273.056C1057.68 275.807 1056.68 278.334 1055.1 280.387C1055.08 280.406 1055.07 280.425 1055.05 280.444C1055.04 280.458 1055.03 280.472 1055.02 280.486H1055.1L1054.42 281.199C1054.27 281.365 1054.11 281.526 1053.96 281.684L1033.8 302.858Z" fill="#F87793"/>
<path fill-rule="evenodd" clip-rule="evenodd" d="M992.594 313.128L994.687 328.099L1012.18 313.128H1084.19C1089.41 313.128 1093.65 308.894 1093.65 303.672V256.943C1093.65 251.721 1089.41 247.487 1084.19 247.487H983.225C978.003 247.487 973.769 251.721 973.769 256.943V303.672C973.769 308.894 978.003 313.128 983.225 313.128H992.594ZM989.207 342.567L986.131 320.557H983.225C973.9 320.557 966.34 312.997 966.34 303.672V256.943C966.34 247.617 973.9 240.058 983.225 240.058H1084.19C1093.52 240.058 1101.08 247.617 1101.08 256.943V303.672C1101.08 312.997 1093.52 320.557 1084.19 320.557H1014.93L989.207 342.567Z" fill="#F87793"/>
<path fill-rule="evenodd" clip-rule="evenodd" d="M705.16 139.836L705.228 139.769C705.429 139.568 705.626 139.361 705.817 139.15L705.881 139.079L706.12 138.828L706.554 138.277C708.759 135.472 710.071 131.948 710.071 128.097C710.071 118.991 702.689 111.609 693.583 111.609C688.156 111.609 683.341 114.223 680.325 118.293L674.356 126.347L668.387 118.293C665.37 114.223 660.555 111.609 655.128 111.609C646.023 111.609 638.641 118.991 638.641 128.097C638.641 131.948 639.952 135.472 642.158 138.277L642.611 138.853L642.905 139.162L642.956 139.217C643.107 139.383 643.262 139.545 643.42 139.704L643.472 139.758L674.354 172.192L705.16 139.836ZM674.354 182.967L638.143 144.936C637.915 144.705 637.691 144.47 637.472 144.231L636.177 142.87H636.318C636.298 142.844 636.277 142.819 636.257 142.793C636.23 142.758 636.203 142.724 636.177 142.689C634.515 140.534 633.213 138.088 632.359 135.44C631.614 133.126 631.211 130.658 631.211 128.097C631.211 114.887 641.919 104.179 655.128 104.179C660.307 104.179 665.102 105.825 669.017 108.623C671.059 110.082 672.862 111.854 674.356 113.869C675.849 111.854 677.652 110.082 679.694 108.623C683.61 105.825 688.404 104.179 693.583 104.179C706.792 104.179 717.501 114.887 717.501 128.097C717.501 130.658 717.098 133.126 716.352 135.44C715.498 138.09 714.194 140.538 712.531 142.694C712.505 142.728 712.479 142.762 712.452 142.795C712.433 142.82 712.413 142.845 712.394 142.87H712.531L711.328 144.133C711.052 144.439 710.767 144.738 710.475 145.029L674.354 182.967Z" fill="#F87793"/>
<path fill-rule="evenodd" clip-rule="evenodd" d="M978.033 403.057L978.106 402.985C978.323 402.769 978.534 402.548 978.739 402.32L978.807 402.244L979.029 402.012L979.454 401.471C981.66 398.666 982.971 395.142 982.971 391.291C982.971 382.185 975.589 374.803 966.483 374.803C961.056 374.803 956.241 377.418 953.225 381.488L947.255 389.543L941.286 381.488C938.269 377.418 933.454 374.803 928.027 374.803C918.921 374.803 911.539 382.185 911.539 391.291C911.539 395.142 912.851 398.666 915.056 401.471L915.511 402.048L915.808 402.361L915.858 402.415C916.007 402.578 916.159 402.738 916.314 402.894L916.366 402.947L947.252 435.386L978.033 403.057ZM947.252 446.161L911.036 408.124C910.811 407.897 910.591 407.666 910.376 407.431L909.075 406.064H909.216C909.196 406.038 909.176 406.013 909.156 405.987C909.129 405.952 909.102 405.917 909.075 405.883C907.413 403.728 906.111 401.282 905.258 398.634C904.512 396.32 904.109 393.852 904.109 391.291C904.109 378.081 914.818 367.373 928.027 367.373C933.206 367.373 938.001 369.019 941.917 371.817C943.959 373.277 945.762 375.049 947.255 377.064C948.749 375.049 950.551 373.277 952.593 371.817C956.509 369.019 961.304 367.373 966.483 367.373C979.693 367.373 990.401 378.081 990.401 391.291C990.401 393.852 989.998 396.32 989.252 398.634C988.398 401.285 987.094 403.734 985.429 405.89C985.403 405.924 985.378 405.957 985.352 405.99C985.333 406.015 985.313 406.04 985.294 406.064H985.429L984.259 407.293C983.963 407.622 983.657 407.943 983.343 408.255L947.252 446.161Z" fill="#F87793"/>
<path fill-rule="evenodd" clip-rule="evenodd" d="M1047.81 -21.7873L1045.91 -9.55987C1045.89 -9.44973 1045.86 -9.34189 1045.82 -9.23847L1038.29 9.483C1035.36 8.06605 1031.88 7.79713 1028.58 9.01505C1022.15 11.392 1018.86 18.5324 1021.24 24.9635L1032.28 54.828C1034.66 61.2591 1041.8 64.5456 1048.23 62.1686C1051.77 60.8586 1054.36 58.1019 1055.57 54.8144C1059.19 56.3099 1063.35 56.501 1067.3 55.0389L1093.25 45.4477C1100.64 42.7157 1104.97 35.0327 1103.47 27.2962L1098.7 2.62641C1096.81 -7.12024 1086.63 -12.8494 1077.32 -9.40761L1072.96 -7.79695L1073.48 -15.3986C1073.83 -20.5008 1071.49 -25.4142 1067.3 -28.3586L1065.79 -29.4253C1062.36 -31.8382 1057.9 -32.196 1054.13 -30.3591C1050.74 -28.7091 1048.38 -25.5073 1047.81 -21.7873ZM1037.07 17.742C1037.17 19.2595 1037.49 20.7827 1038.04 22.2666L1046.63 45.5246C1047.21 47.086 1048 48.5045 1048.97 49.7584C1049.33 52.1025 1048 54.454 1045.69 55.3082C1043.05 56.2848 1040.12 54.9346 1039.14 52.2924L1028.1 22.4278C1027.12 19.7856 1028.47 16.852 1031.12 15.8754C1033.34 15.0528 1035.78 15.8812 1037.07 17.742ZM1055.56 46.1941C1057.91 48.5095 1061.47 49.3977 1064.77 48.1785L1090.72 38.5873C1094.75 37.0972 1097.11 32.9064 1096.29 28.6865L1091.51 4.01674C1090.49 -1.2996 1084.93 -4.42461 1079.86 -2.54727L1064.9 2.98137L1066.18 -15.8953C1066.36 -18.4477 1065.18 -20.9056 1063.09 -22.3786L1061.58 -23.4453C1060.33 -24.3235 1058.71 -24.4537 1057.33 -23.7851C1056.1 -23.1846 1055.24 -22.0192 1055.03 -20.6652L1053.13 -8.43779C1053.03 -7.7769 1052.85 -7.12992 1052.6 -6.50942L1044.65 13.2666C1044.38 14.1145 1044.26 14.939 1044.28 15.7245C1044.37 15.9313 1044.45 16.1417 1044.53 16.3556L1055.56 46.1941Z" fill="#F87793"/>
<path d="M699.39 310.852C698.41 310.852 697.626 310.46 697.039 309.677C696.516 308.894 696.32 307.948 696.451 306.839L707.13 244.886C707.326 244.103 707.686 243.483 708.208 243.026C708.731 242.57 709.351 242.341 710.07 242.341C711.115 242.341 711.899 242.733 712.421 243.516C713.009 244.234 713.205 245.147 713.009 246.256L702.329 308.307C702.264 309.09 701.938 309.71 701.35 310.167C700.827 310.623 700.174 310.852 699.39 310.852ZM694.785 265.635C693.871 265.635 693.087 265.341 692.433 264.754C691.846 264.102 691.552 263.319 691.552 262.405C691.552 261.557 691.846 260.872 692.433 260.35C693.087 259.828 693.871 259.567 694.785 259.567H743.971C744.885 259.567 745.636 259.893 746.224 260.545C746.812 261.133 747.106 261.883 747.106 262.797C747.106 263.645 746.812 264.33 746.224 264.852C745.636 265.374 744.885 265.635 743.971 265.635H694.785ZM724.767 310.852C723.722 310.852 722.905 310.46 722.317 309.677C721.795 308.894 721.631 307.948 721.827 306.839L732.507 244.886C732.638 244.103 732.964 243.483 733.487 243.026C734.009 242.57 734.663 242.341 735.447 242.341C736.492 242.341 737.275 242.733 737.798 243.516C738.386 244.234 738.582 245.147 738.386 246.256L727.706 308.307C727.576 309.09 727.249 309.71 726.726 310.167C726.204 310.623 725.551 310.852 724.767 310.852ZM690.866 293.137C690.017 293.137 689.265 292.843 688.612 292.256C688.024 291.604 687.73 290.853 687.73 290.005C687.73 289.157 688.024 288.472 688.612 287.95C689.265 287.428 690.017 287.167 690.866 287.167H740.15C741.064 287.167 741.815 287.46 742.403 288.048C742.991 288.635 743.285 289.385 743.285 290.299C743.285 291.147 742.991 291.832 742.403 292.354C741.815 292.876 741.064 293.137 740.15 293.137H690.866Z" fill="#F87793"/>
<path d="M1039.08 196.669C1038.1 196.669 1037.32 196.277 1036.73 195.494C1036.21 194.711 1036.01 193.765 1036.14 192.656L1046.82 130.703C1047.02 129.92 1047.38 129.3 1047.9 128.843C1048.42 128.387 1049.04 128.158 1049.76 128.158C1050.81 128.158 1051.59 128.55 1052.11 129.333C1052.7 130.05 1052.9 130.964 1052.7 132.073L1042.02 194.124C1041.96 194.907 1041.63 195.527 1041.04 195.983C1040.52 196.44 1039.87 196.669 1039.08 196.669ZM1034.48 151.452C1033.56 151.452 1032.78 151.158 1032.12 150.571C1031.54 149.918 1031.24 149.135 1031.24 148.222C1031.24 147.374 1031.54 146.689 1032.12 146.167C1032.78 145.645 1033.56 145.384 1034.48 145.384H1083.66C1084.58 145.384 1085.33 145.71 1085.92 146.362C1086.5 146.95 1086.8 147.7 1086.8 148.613C1086.8 149.462 1086.5 150.147 1085.92 150.669C1085.33 151.191 1084.58 151.452 1083.66 151.452H1034.48ZM1064.46 196.669C1063.41 196.669 1062.6 196.277 1062.01 195.494C1061.49 194.711 1061.32 193.765 1061.52 192.656L1072.2 130.703C1072.33 129.92 1072.66 129.3 1073.18 128.843C1073.7 128.387 1074.35 128.158 1075.14 128.158C1076.18 128.158 1076.97 128.55 1077.49 129.333C1078.08 130.05 1078.27 130.964 1078.08 132.073L1067.4 194.124C1067.27 194.907 1066.94 195.527 1066.42 195.983C1065.9 196.44 1065.24 196.669 1064.46 196.669ZM1030.56 178.954C1029.71 178.954 1028.96 178.66 1028.3 178.073C1027.72 177.42 1027.42 176.67 1027.42 175.822C1027.42 174.974 1027.72 174.289 1028.3 173.767C1028.96 173.245 1029.71 172.984 1030.56 172.984H1079.84C1080.76 172.984 1081.51 173.277 1082.09 173.864C1082.68 174.452 1082.98 175.202 1082.98 176.115C1082.98 176.964 1082.68 177.649 1082.09 178.171C1081.51 178.693 1080.76 178.954 1079.84 178.954H1030.56Z" fill="#F87793"/>
<path fill-rule="evenodd" clip-rule="evenodd" d="M931.224 225.208C954.395 225.208 973.179 206.424 973.179 183.253C973.179 160.082 954.395 141.298 931.224 141.298C908.053 141.298 889.269 160.082 889.269 183.253C889.269 206.424 908.053 225.208 931.224 225.208ZM931.224 232.637C958.499 232.637 980.609 210.527 980.609 183.253C980.609 155.978 958.499 133.868 931.224 133.868C903.95 133.868 881.84 155.978 881.84 183.253C881.84 210.527 903.95 232.637 931.224 232.637Z" fill="#F87793"/>
<path fill-rule="evenodd" clip-rule="evenodd" d="M955.782 192.283C957.258 193.707 957.3 196.059 955.876 197.535C946.527 207.223 936.296 209.435 927.318 207.96C918.583 206.525 911.306 201.663 907.199 197.596C905.741 196.152 905.729 193.8 907.173 192.342C908.617 190.884 910.969 190.873 912.426 192.316C915.715 195.573 921.652 199.5 928.522 200.629C935.15 201.717 942.916 200.267 950.529 192.377C951.954 190.9 954.305 190.858 955.782 192.283Z" fill="#F87793"/>
<path d="M921.232 171.549C921.232 174.072 919.187 176.117 916.665 176.117C914.143 176.117 912.098 174.072 912.098 171.549C912.098 169.027 914.143 166.982 916.665 166.982C919.187 166.982 921.232 169.027 921.232 171.549Z" fill="#F87793"/>
<path d="M950.924 171.549C950.924 174.072 948.879 176.117 946.356 176.117C943.834 176.117 941.789 174.072 941.789 171.549C941.789 169.027 943.834 166.982 946.356 166.982C948.879 166.982 950.924 169.027 950.924 171.549Z" fill="#F87793"/>
<path fill-rule="evenodd" clip-rule="evenodd" d="M697.149 -33.4049H776.087C781.309 -33.4049 785.543 -29.1714 785.543 -23.9491V16.6096C785.543 21.8319 781.309 26.0654 776.087 26.0654H697.149C691.927 26.0654 687.693 21.8319 687.693 16.6096V-23.9491C687.693 -29.1714 691.927 -33.4049 697.149 -33.4049ZM680.264 -23.9491C680.264 -33.2746 687.824 -40.8345 697.149 -40.8345H776.087C785.413 -40.8345 792.972 -33.2746 792.972 -23.9491V16.6096C792.972 21.4933 790.899 25.8927 787.585 28.9757C791.867 29.8468 795.694 32.3583 798.195 36.0478L802.307 42.1137C809.907 53.3258 801.876 68.4737 788.33 68.4737H689.04C676.999 68.4737 668.828 56.2321 673.445 45.1123L675.964 39.0464C677.875 34.4447 681.672 31.0132 686.238 29.4965C682.583 26.3991 680.264 21.7753 680.264 16.6096V-23.9491ZM691.559 36.0665H784.218C787.354 36.0665 790.286 37.621 792.045 40.2166L796.157 46.2825C800.413 52.5613 795.916 61.0441 788.33 61.0441H689.04C682.297 61.0441 677.721 54.1888 680.307 47.9617L682.826 41.8958C684.291 38.3667 687.737 36.0665 691.559 36.0665Z" fill="#F87793"/>
<path d="M710.591 53.8652C711.052 52.7124 712.169 51.9565 713.41 51.9565H770.026C771.267 51.9565 772.384 52.7124 772.845 53.8652C773.643 55.8597 772.174 58.0292 770.026 58.0292H713.41C711.262 58.0292 709.793 55.8597 710.591 53.8652Z" fill="#F87793"/>
<path fill-rule="evenodd" clip-rule="evenodd" d="M880.122 85.901L882.214 100.872L899.709 85.901H971.719C976.941 85.901 981.175 81.6675 981.175 76.4452V29.7164C981.175 24.4941 976.941 20.2606 971.719 20.2606H870.753C865.53 20.2606 861.297 24.4941 861.297 29.7164V76.4452C861.297 81.6675 865.53 85.901 870.753 85.901H880.122ZM876.734 115.34L873.658 93.3305H870.753C861.427 93.3305 853.867 85.7707 853.867 76.4452V29.7164C853.867 20.3909 861.427 12.8311 870.753 12.8311H971.719C981.044 12.8311 988.604 20.3909 988.604 29.7164V76.4452C988.604 85.7707 981.044 93.3305 971.719 93.3305H902.454L876.734 115.34Z" fill="#F87793"/>
<path fill-rule="evenodd" clip-rule="evenodd" d="M834.594 241.403L837.976 239.925C842.762 237.834 848.336 240.018 850.427 244.803L886.511 327.382C888.602 332.168 886.418 337.742 881.633 339.833L850.323 353.515C845.537 355.606 839.963 353.422 837.872 348.636L801.788 266.057C799.697 261.272 801.881 255.697 806.666 253.606L810.567 251.902C810.572 251.922 810.577 251.941 810.582 251.961C811.13 253.98 813.343 255.041 815.26 254.203L833.095 246.41C835.011 245.573 835.737 243.228 834.627 241.454C834.616 241.437 834.605 241.42 834.594 241.403ZM794.98 269.032C791.246 260.486 795.146 250.532 803.691 246.798L835.001 233.117C843.547 229.383 853.501 233.283 857.235 241.828L893.319 324.408C897.053 332.953 893.153 342.907 884.608 346.641L853.298 360.323C844.752 364.057 834.798 360.156 831.064 351.611L794.98 269.032Z" fill="#F87793"/>
<path fill-rule="evenodd" clip-rule="evenodd" d="M696.031 352.187L698.76 354.665C702.627 358.175 702.916 364.156 699.406 368.022L638.832 434.747C635.322 438.614 629.342 438.903 625.475 435.393L600.176 412.426C596.31 408.916 596.021 402.936 599.531 399.069L660.104 332.344C663.615 328.477 669.595 328.188 673.461 331.699L676.616 334.562C676.6 334.575 676.584 334.587 676.569 334.6C674.951 335.926 674.889 338.38 676.438 339.786L690.849 352.868C692.397 354.274 694.834 353.976 695.997 352.238C696.009 352.221 696.02 352.204 696.031 352.187ZM654.604 327.35C660.872 320.446 671.551 319.93 678.455 326.198L703.754 349.164C710.659 355.433 711.175 366.111 704.907 373.016L644.333 439.741C638.065 446.646 627.386 447.162 620.481 440.894L595.182 417.927C588.278 411.659 587.762 400.98 594.03 394.075L654.604 327.35Z" fill="#F87793"/>
<path fill-rule="evenodd" clip-rule="evenodd" d="M1195.01 139.837L1195.08 139.769C1195.28 139.568 1195.48 139.361 1195.67 139.15L1195.73 139.079L1195.97 138.828L1196.41 138.277C1198.61 135.472 1199.92 131.948 1199.92 128.097C1199.92 118.991 1192.54 111.609 1183.43 111.609C1178.01 111.609 1173.19 114.223 1170.18 118.293L1164.21 126.347L1158.24 118.293C1155.22 114.223 1150.41 111.609 1144.98 111.609C1135.87 111.609 1128.49 118.991 1128.49 128.097C1128.49 131.948 1129.8 135.472 1132.01 138.277L1132.46 138.853L1132.76 139.162L1132.81 139.217C1132.96 139.383 1133.11 139.545 1133.27 139.704L1133.32 139.758L1164.21 172.192L1195.01 139.837ZM1164.21 182.967L1127.99 144.935C1127.77 144.705 1127.54 144.47 1127.32 144.231L1126.03 142.87H1126.17C1126.15 142.844 1126.13 142.819 1126.11 142.793C1126.08 142.758 1126.05 142.724 1126.03 142.689C1124.37 140.534 1123.06 138.088 1122.21 135.44C1121.47 133.126 1121.06 130.658 1121.06 128.097C1121.06 114.887 1131.77 104.179 1144.98 104.179C1150.16 104.179 1154.95 105.825 1158.87 108.623C1160.91 110.082 1162.71 111.854 1164.21 113.869C1165.7 111.854 1167.5 110.082 1169.55 108.623C1173.46 105.825 1178.26 104.179 1183.43 104.179C1196.64 104.179 1207.35 114.887 1207.35 128.097C1207.35 130.658 1206.95 133.126 1206.2 135.44C1205.35 138.09 1204.05 140.538 1202.38 142.694C1202.36 142.728 1202.33 142.762 1202.3 142.795C1202.28 142.82 1202.26 142.845 1202.25 142.87H1202.38L1201.18 144.133C1200.9 144.439 1200.62 144.738 1200.33 145.029L1164.21 182.967Z" fill="#F87793"/>
<path d="M1189.24 310.852C1188.26 310.852 1187.48 310.46 1186.89 309.677C1186.37 308.894 1186.17 307.948 1186.3 306.839L1196.98 244.886C1197.18 244.103 1197.54 243.483 1198.06 243.026C1198.58 242.57 1199.2 242.341 1199.92 242.341C1200.97 242.341 1201.75 242.733 1202.27 243.516C1202.86 244.234 1203.06 245.147 1202.86 246.256L1192.18 308.307C1192.12 309.09 1191.79 309.71 1191.2 310.167C1190.68 310.623 1190.03 310.852 1189.24 310.852ZM1184.64 265.635C1183.72 265.635 1182.94 265.341 1182.29 264.754C1181.7 264.102 1181.4 263.319 1181.4 262.405C1181.4 261.557 1181.7 260.872 1182.29 260.35C1182.94 259.828 1183.72 259.567 1184.64 259.567H1233.82C1234.74 259.567 1235.49 259.893 1236.08 260.545C1236.66 261.133 1236.96 261.883 1236.96 262.797C1236.96 263.645 1236.66 264.33 1236.08 264.852C1235.49 265.374 1234.74 265.635 1233.82 265.635H1184.64ZM1214.62 310.852C1213.57 310.852 1212.76 310.46 1212.17 309.677C1211.65 308.894 1211.48 307.948 1211.68 306.839L1222.36 244.886C1222.49 244.103 1222.82 243.483 1223.34 243.026C1223.86 242.57 1224.51 242.341 1225.3 242.341C1226.34 242.341 1227.13 242.733 1227.65 243.516C1228.24 244.234 1228.43 245.147 1228.24 246.256L1217.56 308.307C1217.43 309.09 1217.1 309.71 1216.58 310.167C1216.06 310.623 1215.4 310.852 1214.62 310.852ZM1180.72 293.137C1179.87 293.137 1179.12 292.843 1178.46 292.256C1177.88 291.604 1177.58 290.853 1177.58 290.005C1177.58 289.157 1177.88 288.472 1178.46 287.95C1179.12 287.428 1179.87 287.167 1180.72 287.167H1230C1230.92 287.167 1231.67 287.46 1232.25 288.048C1232.84 288.635 1233.14 289.385 1233.14 290.299C1233.14 291.147 1232.84 291.832 1232.25 292.354C1231.67 292.876 1230.92 293.137 1230 293.137H1180.72Z" fill="#F87793"/>
<path fill-rule="evenodd" clip-rule="evenodd" d="M1265.95 -33.4054H1187.01C1181.79 -33.4054 1177.56 -29.1719 1177.56 -23.9496V16.6091C1177.56 21.8314 1181.79 26.0649 1187.01 26.0649H1265.95C1271.17 26.0649 1275.41 21.8314 1275.41 16.6091V-23.9495C1275.41 -29.1719 1271.17 -33.4054 1265.95 -33.4054ZM1187.01 -40.835C1177.69 -40.835 1170.13 -33.2751 1170.13 -23.9496V16.6091C1170.13 21.7754 1172.45 26.3998 1176.1 29.4971C1171.54 31.0143 1167.74 34.4454 1165.83 39.0462L1163.31 45.1121C1158.69 56.2318 1166.87 68.4734 1178.91 68.4734H1278.2C1291.74 68.4734 1299.77 53.3256 1292.17 42.1134L1288.06 36.0476C1285.56 32.3571 1281.73 29.8452 1277.45 28.9748C1280.76 25.8918 1282.84 21.4925 1282.84 16.6091V-23.9495C1282.84 -33.2751 1275.28 -40.835 1265.95 -40.835H1187.01ZM1274.09 36.0663H1181.43C1177.6 36.0663 1174.16 38.3664 1172.69 41.8956L1170.17 47.9615C1167.59 54.1886 1172.16 61.0438 1178.91 61.0438H1278.2C1285.78 61.0438 1290.28 52.561 1286.02 46.2822L1281.91 40.2164C1280.15 37.6208 1277.22 36.0663 1274.09 36.0663ZM1203.28 51.9565C1202.04 51.9565 1200.92 52.7124 1200.46 53.8652C1199.66 55.8596 1201.13 58.0292 1203.28 58.0292H1259.89C1262.04 58.0292 1263.51 55.8596 1262.71 53.8652C1262.25 52.7124 1261.14 51.9565 1259.89 51.9565H1203.28Z" fill="#F87793"/>
<path fill-rule="evenodd" clip-rule="evenodd" d="M1369.98 85.901L1372.07 100.873L1389.56 85.901H1461.57C1466.79 85.901 1471.03 81.6675 1471.03 76.4452V29.7164C1471.03 24.4941 1466.79 20.2606 1461.57 20.2606H1360.6C1355.38 20.2606 1351.15 24.4941 1351.15 29.7164V76.4452C1351.15 81.6675 1355.38 85.901 1360.6 85.901H1369.98ZM1366.59 115.341L1363.51 93.3305H1360.6C1351.28 93.3305 1343.72 85.7707 1343.72 76.4452V29.7164C1343.72 20.3909 1351.28 12.8311 1360.6 12.8311H1461.57C1470.9 12.8311 1478.46 20.3909 1478.46 29.7164V76.4452C1478.46 85.7707 1470.9 93.3305 1461.57 93.3305H1392.31L1366.59 115.341Z" fill="#F87793"/>
<path fill-rule="evenodd" clip-rule="evenodd" d="M1324.44 241.402L1327.82 239.925C1332.61 237.834 1338.18 240.018 1340.27 244.803L1376.36 327.382C1378.45 332.168 1376.26 337.742 1371.48 339.833L1340.17 353.515C1335.38 355.606 1329.81 353.422 1327.72 348.636L1291.63 266.057C1289.54 261.272 1291.72 255.697 1296.51 253.606L1300.41 251.901C1300.42 251.921 1300.42 251.941 1300.43 251.961C1300.98 253.98 1303.19 255.04 1305.11 254.203L1322.94 246.41C1324.86 245.572 1325.58 243.227 1324.47 241.454C1324.46 241.436 1324.45 241.419 1324.44 241.402ZM1284.82 269.032C1281.09 260.486 1284.99 250.532 1293.54 246.798L1324.85 233.117C1333.39 229.383 1343.34 233.283 1347.08 241.828L1383.16 324.408C1386.9 332.953 1383 342.907 1374.45 346.641L1343.14 360.323C1334.6 364.057 1324.64 360.156 1320.91 351.611L1284.82 269.032Z" fill="#F87793"/>
<path fill-rule="evenodd" clip-rule="evenodd" d="M1185.88 352.187L1188.61 354.665C1192.48 358.175 1192.77 364.156 1189.26 368.022L1128.68 434.747C1125.17 438.614 1119.19 438.903 1115.33 435.393L1090.03 412.426C1086.16 408.916 1085.87 402.936 1089.38 399.069L1149.96 332.344C1153.47 328.477 1159.45 328.188 1163.31 331.699L1166.47 334.562C1166.45 334.575 1166.44 334.587 1166.42 334.6C1164.8 335.926 1164.74 338.38 1166.29 339.786L1180.7 352.868C1182.25 354.274 1184.69 353.976 1185.85 352.238C1185.86 352.221 1185.87 352.204 1185.88 352.187ZM1144.46 327.35C1150.72 320.446 1161.4 319.93 1168.31 326.198L1193.61 349.164C1200.51 355.433 1201.03 366.111 1194.76 373.016L1134.18 439.741C1127.92 446.646 1117.24 447.162 1110.33 440.894L1085.03 417.927C1078.13 411.659 1077.61 400.98 1083.88 394.075L1144.46 327.35Z" fill="#F87793"/>
<path fill-rule="evenodd" clip-rule="evenodd" d="M1048.68 766.306L1048.73 766.254C1048.79 766.198 1048.84 766.14 1048.9 766.082L1048.95 766.027L1049.03 765.941L1049.19 765.741C1049.98 764.734 1050.45 763.477 1050.45 762.091C1050.45 758.824 1047.8 756.175 1044.53 756.175C1042.59 756.175 1040.86 757.105 1039.77 758.576L1033.8 766.627L1027.83 758.576C1026.74 757.105 1025.02 756.175 1023.08 756.175C1019.81 756.175 1017.16 758.824 1017.16 762.091C1017.16 763.477 1017.63 764.734 1018.42 765.741L1018.56 765.923L1018.61 765.978L1018.68 766.051C1018.75 766.13 1018.83 766.208 1018.9 766.283L1018.97 766.353L1033.8 781.931L1048.68 766.306ZM1033.8 792.706L1013.66 771.548C1013.49 771.379 1013.33 771.206 1013.17 771.029L1012.5 770.333H1012.58C1012.57 770.319 1012.56 770.305 1012.55 770.291C1012.53 770.273 1012.52 770.254 1012.5 770.235C1010.92 768.182 1009.92 765.655 1009.75 762.903C1009.74 762.635 1009.73 762.364 1009.73 762.091C1009.73 754.72 1015.71 748.746 1023.08 748.746C1024.78 748.746 1026.4 749.064 1027.9 749.643C1030.27 750.562 1032.31 752.14 1033.8 754.151C1035.29 752.14 1037.34 750.562 1039.71 749.643C1041.2 749.064 1042.83 748.746 1044.53 748.746C1051.9 748.746 1057.88 754.72 1057.88 762.091C1057.88 762.364 1057.87 762.635 1057.85 762.903C1057.69 765.654 1056.69 768.179 1055.11 770.231C1055.09 770.251 1055.08 770.27 1055.06 770.29C1055.05 770.304 1055.04 770.319 1055.03 770.333H1055.11L1054.38 771.097C1054.26 771.228 1054.14 771.357 1054.01 771.483L1033.8 792.706Z" fill="#F87793"/>
<path fill-rule="evenodd" clip-rule="evenodd" d="M992.594 802.976L994.687 817.947L1012.18 802.976H1084.19C1089.41 802.976 1093.65 798.742 1093.65 793.52V746.791C1093.65 741.569 1089.41 737.335 1084.19 737.335H983.225C978.003 737.335 973.769 741.569 973.769 746.791V793.52C973.769 798.742 978.003 802.976 983.225 802.976H992.594ZM989.207 832.415L986.131 810.405H983.225C973.9 810.405 966.34 802.845 966.34 793.52V746.791C966.34 737.466 973.9 729.906 983.225 729.906H1084.19C1093.52 729.906 1101.08 737.466 1101.08 746.791V793.52C1101.08 802.845 1093.52 810.405 1084.19 810.405H1014.93L989.207 832.415Z" fill="#F87793"/>
<path fill-rule="evenodd" clip-rule="evenodd" d="M1195.01 629.684L1195.08 629.616C1195.28 629.415 1195.48 629.208 1195.67 628.997L1195.73 628.926L1195.97 628.675L1196.41 628.124C1198.61 625.32 1199.92 621.795 1199.92 617.944C1199.92 608.838 1192.54 601.456 1183.43 601.456C1178.01 601.456 1173.19 604.071 1170.18 608.14L1164.21 616.194L1158.24 608.14C1155.22 604.071 1150.41 601.456 1144.98 601.456C1135.87 601.456 1128.49 608.838 1128.49 617.944C1128.49 621.795 1129.8 625.319 1132.01 628.124L1132.46 628.7L1132.76 629.009L1132.81 629.064C1132.96 629.23 1133.11 629.392 1133.27 629.551L1133.32 629.605L1164.21 662.039L1195.01 629.684ZM1164.21 672.814L1127.99 634.783C1127.77 634.552 1127.54 634.317 1127.32 634.078L1126.03 632.717H1126.17C1126.15 632.692 1126.13 632.666 1126.11 632.64C1126.08 632.605 1126.05 632.571 1126.03 632.536C1124.37 630.381 1123.06 627.935 1122.21 625.287C1121.47 622.973 1121.06 620.506 1121.06 617.944C1121.06 604.735 1131.77 594.026 1144.98 594.026C1150.16 594.026 1154.95 595.672 1158.87 598.47C1160.91 599.929 1162.71 601.701 1164.21 603.716C1165.7 601.701 1167.5 599.929 1169.55 598.47C1173.46 595.672 1178.26 594.026 1183.43 594.026C1196.64 594.026 1207.35 604.735 1207.35 617.944C1207.35 620.506 1206.95 622.973 1206.2 625.287C1205.35 627.937 1204.05 630.385 1202.38 632.541C1202.36 632.575 1202.33 632.609 1202.3 632.642C1202.28 632.667 1202.26 632.692 1202.25 632.717H1202.38L1201.18 633.98C1200.9 634.286 1200.62 634.585 1200.33 634.876L1164.21 672.814Z" fill="#F87793"/>
<path fill-rule="evenodd" clip-rule="evenodd" d="M1267.26 634.171C1267.63 631.929 1266.46 629.637 1264.28 628.679C1261.7 627.543 1258.69 628.712 1257.56 631.29L1244.72 660.428C1243.59 663.006 1244.76 666.016 1247.34 667.152C1249.59 668.146 1252.18 667.374 1253.55 665.436C1253.73 663.869 1254.15 662.301 1254.82 660.781L1264.81 638.089C1265.45 636.643 1266.28 635.33 1267.26 634.171ZM1254.78 673.668C1251.62 675.188 1247.85 675.368 1244.39 673.845C1238.11 671.082 1235.27 663.755 1238.03 657.48L1250.86 628.342C1253.63 622.067 1260.96 619.221 1267.23 621.985C1270.45 623.402 1272.76 626.017 1273.88 629.075L1292.31 620.858C1292.41 620.812 1292.51 620.755 1292.6 620.688L1302.46 613.221C1305.46 610.949 1309.39 610.29 1312.97 611.458C1316.95 612.757 1319.91 616.121 1320.7 620.237L1321.04 622.057C1322 627.081 1320.27 632.24 1316.47 635.665L1310.81 640.768L1315.07 642.643C1324.15 646.645 1327.48 657.839 1322.06 666.155L1308.34 687.206C1304.04 693.807 1295.59 696.321 1288.37 693.145L1263.06 681.993C1259.19 680.292 1256.34 677.257 1254.78 673.668ZM1260.77 667.458C1260.84 670.76 1262.78 673.88 1266 675.299L1291.32 686.451C1295.26 688.184 1299.87 686.813 1302.21 683.212L1315.94 662.161C1318.89 657.625 1317.08 651.519 1312.12 649.336L1297.52 642.906L1311.57 630.234C1313.47 628.52 1314.34 625.94 1313.86 623.427L1313.51 621.607C1313.23 620.108 1312.15 618.884 1310.7 618.411C1309.4 617.986 1307.97 618.226 1306.88 619.053L1297.01 626.52C1296.48 626.924 1295.9 627.265 1295.29 627.537L1275.82 636.219C1275.03 636.637 1274.38 637.148 1273.84 637.725C1273.76 637.934 1273.68 638.143 1273.59 638.35L1260.77 667.458Z" fill="#F87793"/>
<path fill-rule="evenodd" clip-rule="evenodd" d="M1046.66 468.065L1044.77 480.292C1044.75 480.402 1044.72 480.51 1044.68 480.614L1037.15 499.334C1034.22 497.916 1030.73 497.646 1027.44 498.865C1021.01 501.242 1017.72 508.382 1020.1 514.813L1031.14 544.678C1033.51 551.109 1040.65 554.395 1047.08 552.018C1050.63 550.708 1053.22 547.952 1054.43 544.666C1058.04 546.162 1062.21 546.354 1066.16 544.891L1092.11 535.3C1099.5 532.568 1103.83 524.885 1102.33 517.148L1097.55 492.479C1095.67 482.732 1085.49 477.003 1076.18 480.445L1071.82 482.055L1072.34 474.454C1072.69 469.351 1070.34 464.438 1066.16 461.494L1064.65 460.427C1061.22 458.014 1056.75 457.656 1052.99 459.493C1049.6 461.143 1047.24 464.345 1046.66 468.065ZM1035.93 507.594C1036.03 509.112 1036.35 510.635 1036.89 512.119L1045.49 535.377C1046.07 536.937 1046.86 538.355 1047.82 539.608C1048.18 541.952 1046.86 544.304 1044.55 545.158C1041.91 546.134 1038.97 544.784 1038 542.142L1026.96 512.277C1025.98 509.635 1027.33 506.701 1029.97 505.725C1032.2 504.902 1034.63 505.732 1035.93 507.594ZM1054.42 536.045C1056.76 538.361 1060.33 539.25 1063.63 538.031L1089.58 528.44C1093.61 526.949 1095.97 522.759 1095.15 518.539L1090.37 493.869C1089.34 488.553 1083.79 485.428 1078.71 487.305L1063.76 492.834L1065.04 473.957C1065.21 471.404 1064.04 468.947 1061.95 467.474L1060.44 466.407C1059.19 465.529 1057.56 465.398 1056.19 466.067C1054.96 466.668 1054.1 467.833 1053.89 469.187L1051.99 481.414C1051.89 482.075 1051.71 482.722 1051.46 483.343L1043.51 503.119C1043.23 503.967 1043.12 504.793 1043.14 505.579C1043.22 505.784 1043.31 505.993 1043.39 506.205L1054.42 536.045Z" fill="#F87793"/>
<path d="M1189.24 800.7C1188.26 800.7 1187.48 800.308 1186.89 799.525C1186.37 798.742 1186.17 797.796 1186.3 796.687L1196.98 734.734C1197.18 733.951 1197.54 733.331 1198.06 732.875C1198.58 732.418 1199.2 732.189 1199.92 732.189C1200.97 732.189 1201.75 732.581 1202.27 733.364C1202.86 734.082 1203.06 734.995 1202.86 736.104L1192.18 798.155C1192.12 798.938 1191.79 799.558 1191.2 800.015C1190.68 800.471 1190.03 800.7 1189.24 800.7ZM1184.64 755.483C1183.72 755.483 1182.94 755.189 1182.29 754.602C1181.7 753.95 1181.4 753.167 1181.4 752.253C1181.4 751.405 1181.7 750.72 1182.29 750.198C1182.94 749.676 1183.72 749.415 1184.64 749.415H1233.82C1234.74 749.415 1235.49 749.741 1236.08 750.394C1236.66 750.981 1236.96 751.731 1236.96 752.645C1236.96 753.493 1236.66 754.178 1236.08 754.7C1235.49 755.222 1234.74 755.483 1233.82 755.483H1184.64ZM1214.62 800.7C1213.57 800.7 1212.76 800.308 1212.17 799.525C1211.65 798.742 1211.48 797.796 1211.68 796.687L1222.36 734.734C1222.49 733.951 1222.82 733.331 1223.34 732.875C1223.86 732.418 1224.51 732.189 1225.3 732.189C1226.34 732.189 1227.13 732.581 1227.65 733.364C1228.24 734.082 1228.43 734.995 1228.24 736.104L1217.56 798.155C1217.43 798.938 1217.1 799.558 1216.58 800.015C1216.06 800.471 1215.4 800.7 1214.62 800.7ZM1180.72 782.985C1179.87 782.985 1179.12 782.691 1178.46 782.104C1177.88 781.452 1177.58 780.701 1177.58 779.853C1177.58 779.005 1177.88 778.32 1178.46 777.798C1179.12 777.276 1179.87 777.015 1180.72 777.015H1230C1230.92 777.015 1231.67 777.308 1232.25 777.896C1232.84 778.483 1233.14 779.233 1233.14 780.147C1233.14 780.995 1232.84 781.68 1232.25 782.202C1231.67 782.724 1230.92 782.985 1230 782.985H1180.72Z" fill="#F87793"/>
<path d="M1039.66 686.515C1038.68 686.515 1037.89 686.124 1037.3 685.341C1036.78 684.558 1036.59 683.612 1036.72 682.502L1047.4 620.55C1047.59 619.767 1047.95 619.147 1048.47 618.69C1049 618.233 1049.62 618.005 1050.34 618.005C1051.38 618.005 1052.16 618.396 1052.69 619.179C1053.27 619.897 1053.47 620.811 1053.27 621.92L1042.6 683.971C1042.53 684.754 1042.2 685.373 1041.62 685.83C1041.09 686.287 1040.44 686.515 1039.66 686.515ZM1035.05 641.298C1034.14 641.298 1033.35 641.005 1032.7 640.418C1032.11 639.765 1031.82 638.982 1031.82 638.069C1031.82 637.22 1032.11 636.535 1032.7 636.013C1033.35 635.491 1034.14 635.23 1035.05 635.23H1084.24C1085.15 635.23 1085.9 635.557 1086.49 636.209C1087.08 636.796 1087.37 637.547 1087.37 638.46C1087.37 639.308 1087.08 639.993 1086.49 640.515C1085.9 641.037 1085.15 641.298 1084.24 641.298H1035.05ZM1065.03 686.515C1063.99 686.515 1063.17 686.124 1062.58 685.341C1062.06 684.558 1061.9 683.612 1062.09 682.502L1072.77 620.55C1072.9 619.767 1073.23 619.147 1073.75 618.69C1074.28 618.233 1074.93 618.005 1075.71 618.005C1076.76 618.005 1077.54 618.396 1078.06 619.179C1078.65 619.897 1078.85 620.811 1078.65 621.92L1067.97 683.971C1067.84 684.754 1067.51 685.373 1066.99 685.83C1066.47 686.287 1065.82 686.515 1065.03 686.515ZM1031.13 668.8C1030.28 668.8 1029.53 668.507 1028.88 667.92C1028.29 667.267 1028 666.517 1028 665.669C1028 664.82 1028.29 664.135 1028.88 663.613C1029.53 663.091 1030.28 662.83 1031.13 662.83H1080.42C1081.33 662.83 1082.08 663.124 1082.67 663.711C1083.26 664.298 1083.55 665.049 1083.55 665.962C1083.55 666.81 1083.26 667.495 1082.67 668.017C1082.08 668.539 1081.33 668.8 1080.42 668.8H1031.13Z" fill="#F87793"/>
<path d="M1335.97 477.56C1334.99 477.56 1334.2 477.169 1333.62 476.386C1333.09 475.603 1332.9 474.657 1333.03 473.547L1343.71 411.594C1343.9 410.812 1344.26 410.192 1344.79 409.735C1345.31 409.278 1345.93 409.05 1346.65 409.05C1347.69 409.05 1348.48 409.441 1349 410.224C1349.59 410.942 1349.78 411.855 1349.59 412.965L1338.91 475.015C1338.84 475.798 1338.52 476.418 1337.93 476.875C1337.41 477.332 1336.75 477.56 1335.97 477.56ZM1331.36 432.343C1330.45 432.343 1329.66 432.05 1329.01 431.462C1328.42 430.81 1328.13 430.027 1328.13 429.114C1328.13 428.265 1328.42 427.58 1329.01 427.058C1329.66 426.536 1330.45 426.275 1331.36 426.275H1380.55C1381.46 426.275 1382.21 426.602 1382.8 427.254C1383.39 427.841 1383.68 428.592 1383.68 429.505C1383.68 430.353 1383.39 431.038 1382.8 431.56C1382.21 432.082 1381.46 432.343 1380.55 432.343H1331.36ZM1361.34 477.56C1360.3 477.56 1359.48 477.169 1358.9 476.386C1358.37 475.603 1358.21 474.657 1358.41 473.547L1369.09 411.594C1369.22 410.812 1369.54 410.192 1370.07 409.735C1370.59 409.278 1371.24 409.05 1372.02 409.05C1373.07 409.05 1373.85 409.441 1374.38 410.224C1374.96 410.942 1375.16 411.855 1374.96 412.965L1364.28 475.015C1364.15 475.798 1363.83 476.418 1363.3 476.875C1362.78 477.332 1362.13 477.56 1361.34 477.56ZM1327.44 459.845C1326.59 459.845 1325.84 459.552 1325.19 458.964C1324.6 458.312 1324.31 457.562 1324.31 456.713C1324.31 455.865 1324.6 455.18 1325.19 454.658C1325.84 454.136 1326.59 453.875 1327.44 453.875H1376.73C1377.64 453.875 1378.39 454.169 1378.98 454.756C1379.57 455.343 1379.86 456.094 1379.86 457.007C1379.86 457.855 1379.57 458.54 1378.98 459.062C1378.39 459.584 1377.64 459.845 1376.73 459.845H1327.44Z" fill="#F87793"/>
<path fill-rule="evenodd" clip-rule="evenodd" d="M1265.95 456.444H1187.01C1181.79 456.444 1177.56 460.678 1177.56 465.9V506.459C1177.56 511.681 1181.79 515.915 1187.01 515.915H1265.95C1271.17 515.915 1275.41 511.681 1275.41 506.459V465.9C1275.41 460.678 1271.17 456.444 1265.95 456.444ZM1187.01 449.015C1177.69 449.015 1170.13 456.574 1170.13 465.9V506.459C1170.13 511.624 1172.45 516.248 1176.1 519.345C1171.54 520.863 1167.74 524.294 1165.83 528.894L1163.31 534.96C1158.69 546.079 1166.87 558.321 1178.91 558.321H1278.2C1291.74 558.321 1299.77 543.173 1292.17 531.961L1288.06 525.895C1285.56 522.205 1281.73 519.694 1277.45 518.823C1280.76 515.74 1282.84 511.341 1282.84 506.459V465.9C1282.84 456.575 1275.28 449.015 1265.95 449.015H1187.01ZM1274.09 525.914H1181.43C1177.6 525.914 1174.16 528.214 1172.69 531.743L1170.17 537.809C1167.59 544.036 1172.16 550.892 1178.91 550.892H1278.2C1285.78 550.892 1290.28 542.409 1286.02 536.13L1281.91 530.064C1280.15 527.468 1277.22 525.914 1274.09 525.914ZM1203.28 541.803C1202.04 541.803 1200.92 542.559 1200.46 543.712C1199.66 545.707 1201.13 547.876 1203.28 547.876H1259.89C1262.04 547.876 1263.51 545.707 1262.71 543.712C1262.25 542.559 1261.14 541.803 1259.89 541.803H1203.28Z" fill="#F87793"/>
<path fill-rule="evenodd" clip-rule="evenodd" d="M1369.97 575.75L1372.07 590.723L1389.56 575.75H1461.57C1466.79 575.75 1471.03 571.517 1471.03 566.294V519.566C1471.03 514.343 1466.79 510.11 1461.57 510.11H1360.6C1355.38 510.11 1351.15 514.343 1351.15 519.566V566.294C1351.15 571.517 1355.38 575.75 1360.6 575.75H1369.97ZM1366.59 605.191L1363.51 583.18H1360.6C1351.28 583.18 1343.72 575.62 1343.72 566.294V519.566C1343.72 510.24 1351.28 502.68 1360.6 502.68H1461.57C1470.9 502.68 1478.46 510.24 1478.46 519.566V566.294C1478.46 575.62 1470.9 583.18 1461.57 583.18H1392.31L1366.59 605.191Z" fill="#F87793"/>
<path fill-rule="evenodd" clip-rule="evenodd" d="M1324.44 731.25L1327.82 729.773C1332.61 727.682 1338.18 729.867 1340.27 734.652L1376.36 817.231C1378.45 822.016 1376.26 827.591 1371.48 829.682L1340.17 843.363C1335.38 845.454 1329.81 843.27 1327.72 838.485L1291.63 755.906C1289.54 751.12 1291.72 745.546 1296.51 743.455L1300.41 741.75C1300.42 741.77 1300.42 741.789 1300.43 741.809C1300.98 743.828 1303.19 744.889 1305.11 744.051L1322.94 736.258C1324.86 735.421 1325.58 733.076 1324.47 731.303C1324.46 731.285 1324.45 731.268 1324.44 731.25ZM1284.82 758.88C1281.09 750.335 1284.99 740.381 1293.54 736.647L1324.85 722.965C1333.39 719.231 1343.34 723.132 1347.08 731.677L1383.16 814.256C1386.9 822.802 1383 832.756 1374.45 836.49L1343.14 850.171C1334.6 853.905 1324.64 850.005 1320.91 841.46L1284.82 758.88Z" fill="#F87793"/>
<path fill-rule="evenodd" clip-rule="evenodd" d="M704.59 629.685L704.657 629.618C704.859 629.416 705.056 629.21 705.247 628.998L705.311 628.927L705.55 628.676L705.983 628.125C708.189 625.321 709.5 621.797 709.5 617.945C709.5 608.84 702.119 601.458 693.013 601.458C687.586 601.458 682.771 604.072 679.755 608.142L673.786 616.196L667.816 608.142C664.8 604.072 659.985 601.458 654.558 601.458C645.452 601.458 638.071 608.839 638.071 617.945C638.071 621.797 639.382 625.321 641.588 628.125L642.04 628.701L642.331 629.007L642.383 629.063C642.536 629.23 642.692 629.395 642.852 629.556L642.905 629.61L673.784 662.04L704.59 629.685ZM673.784 672.815L637.577 634.788C637.346 634.555 637.119 634.317 636.898 634.075L635.606 632.719H635.747C635.727 632.693 635.707 632.667 635.687 632.642C635.66 632.607 635.633 632.572 635.606 632.538C633.945 630.383 632.642 627.936 631.789 625.289C631.043 622.975 630.641 620.507 630.641 617.945C630.641 604.736 641.349 594.028 654.558 594.028C659.737 594.028 664.532 595.674 668.447 598.471C670.489 599.93 672.292 601.703 673.786 603.718C675.279 601.703 677.082 599.93 679.124 598.471C683.04 595.674 687.834 594.028 693.013 594.028C706.222 594.028 716.931 604.736 716.931 617.945C716.931 620.507 716.528 622.975 715.782 625.289C714.928 627.939 713.624 630.387 711.961 632.543C711.935 632.577 711.908 632.61 711.882 632.644C711.863 632.669 711.843 632.694 711.824 632.719H711.961L710.758 633.982C710.482 634.288 710.197 634.586 709.905 634.878L673.784 672.815Z" fill="#F87793"/>
<path fill-rule="evenodd" clip-rule="evenodd" d="M802.18 620.686C802.091 620.753 801.995 620.81 801.893 620.856L783.467 629.073C782.346 626.016 780.03 623.401 776.815 621.984C770.54 619.22 763.213 622.067 760.449 628.341L747.615 657.479C744.851 663.754 747.697 671.081 753.972 673.844C757.43 675.368 761.208 675.187 764.365 673.667C765.92 677.256 768.78 680.29 772.641 681.991L797.959 693.143C805.171 696.319 813.622 693.805 817.925 687.204L831.647 666.153C837.068 657.837 833.739 646.643 824.653 642.641L820.397 640.766L826.055 635.663C829.853 632.238 831.587 627.079 830.63 622.055L830.283 620.236C829.498 616.119 826.536 612.755 822.552 611.456C818.973 610.288 815.049 610.947 812.047 613.219L802.18 620.686ZM776.845 634.169C775.863 635.328 775.034 636.642 774.397 638.087L764.402 660.779C763.732 662.3 763.317 663.867 763.137 665.435C761.765 667.373 759.177 668.145 756.92 667.151C754.342 666.016 753.173 663.005 754.308 660.427L767.143 631.289C768.278 628.711 771.288 627.542 773.866 628.678C776.041 629.636 777.213 631.928 776.845 634.169ZM770.351 667.457C770.425 670.758 772.368 673.879 775.589 675.298L800.908 686.449C804.841 688.182 809.451 686.811 811.798 683.21L825.52 662.159C828.477 657.623 826.661 651.517 821.705 649.334L807.107 642.904L821.157 630.232C823.056 628.519 823.924 625.938 823.445 623.425L823.098 621.605C822.813 620.106 821.734 618.882 820.284 618.409C818.982 617.984 817.553 618.224 816.461 619.051L806.594 626.518C806.061 626.922 805.483 627.263 804.872 627.536L785.405 636.217C784.618 636.635 783.961 637.146 783.428 637.722C783.349 637.932 783.263 638.142 783.172 638.35L770.351 667.457Z" fill="#F87793"/>
<path d="M698.824 800.7C697.844 800.7 697.06 800.308 696.472 799.525C695.95 798.742 695.754 797.796 695.884 796.687L706.564 734.734C706.76 733.951 707.119 733.331 707.642 732.875C708.164 732.418 708.785 732.189 709.503 732.189C710.549 732.189 711.332 732.581 711.855 733.364C712.443 734.082 712.639 734.995 712.443 736.104L701.763 798.155C701.698 798.938 701.371 799.558 700.783 800.015C700.261 800.471 699.607 800.7 698.824 800.7ZM694.219 755.483C693.304 755.483 692.52 755.189 691.867 754.602C691.279 753.95 690.985 753.167 690.985 752.253C690.985 751.405 691.279 750.72 691.867 750.198C692.52 749.676 693.304 749.415 694.219 749.415H743.404C744.319 749.415 745.07 749.741 745.658 750.394C746.246 750.981 746.54 751.731 746.54 752.645C746.54 753.493 746.246 754.178 745.658 754.7C745.07 755.222 744.319 755.483 743.404 755.483H694.219ZM724.2 800.7C723.155 800.7 722.339 800.308 721.751 799.525C721.228 798.742 721.065 797.796 721.261 796.687L731.941 734.734C732.071 733.951 732.398 733.331 732.921 732.875C733.443 732.418 734.096 732.189 734.88 732.189C735.925 732.189 736.709 732.581 737.232 733.364C737.82 734.082 738.015 734.995 737.82 736.104L727.14 798.155C727.009 798.938 726.682 799.558 726.16 800.015C725.637 800.471 724.984 800.7 724.2 800.7ZM690.299 782.985C689.45 782.985 688.699 782.691 688.046 782.104C687.458 781.452 687.164 780.701 687.164 779.853C687.164 779.005 687.458 778.32 688.046 777.798C688.699 777.276 689.45 777.015 690.299 777.015H739.583C740.498 777.015 741.249 777.308 741.837 777.896C742.425 778.483 742.718 779.233 742.718 780.147C742.718 780.995 742.425 781.68 741.837 782.202C741.249 782.724 740.498 782.985 739.583 782.985H690.299Z" fill="#F87793"/>
<path d="M845.546 477.56C844.566 477.56 843.783 477.169 843.195 476.386C842.672 475.603 842.476 474.657 842.607 473.547L853.287 411.594C853.483 410.812 853.842 410.192 854.364 409.735C854.887 409.278 855.508 409.05 856.226 409.05C857.271 409.05 858.055 409.441 858.578 410.224C859.165 410.942 859.361 411.855 859.165 412.965L848.486 475.015C848.42 475.798 848.094 476.418 847.506 476.875C846.983 477.332 846.33 477.56 845.546 477.56ZM840.941 432.343C840.027 432.343 839.243 432.05 838.59 431.462C838.002 430.81 837.708 430.027 837.708 429.114C837.708 428.265 838.002 427.58 838.59 427.058C839.243 426.536 840.027 426.275 840.941 426.275H890.127C891.041 426.275 891.793 426.602 892.381 427.254C892.968 427.841 893.262 428.592 893.262 429.505C893.262 430.353 892.968 431.038 892.381 431.56C891.793 432.082 891.041 432.343 890.127 432.343H840.941ZM870.923 477.56C869.878 477.56 869.061 477.169 868.474 476.386C867.951 475.603 867.788 474.657 867.984 473.547L878.663 411.594C878.794 410.812 879.121 410.192 879.643 409.735C880.166 409.278 880.819 409.05 881.603 409.05C882.648 409.05 883.432 409.441 883.954 410.224C884.542 410.942 884.738 411.855 884.542 412.965L873.862 475.015C873.732 475.798 873.405 476.418 872.883 476.875C872.36 477.332 871.707 477.56 870.923 477.56ZM837.022 459.845C836.173 459.845 835.422 459.552 834.769 458.964C834.181 458.312 833.887 457.562 833.887 456.713C833.887 455.865 834.181 455.18 834.769 454.658C835.422 454.136 836.173 453.875 837.022 453.875H886.306C887.22 453.875 887.971 454.169 888.559 454.756C889.147 455.343 889.441 456.094 889.441 457.007C889.441 457.855 889.147 458.54 888.559 459.062C887.971 459.584 887.22 459.845 886.306 459.845H837.022Z" fill="#F87793"/>
<path fill-rule="evenodd" clip-rule="evenodd" d="M930.658 715.054C953.829 715.054 972.613 696.27 972.613 673.099C972.613 649.928 953.829 631.144 930.658 631.144C907.487 631.144 888.703 649.928 888.703 673.099C888.703 696.27 907.487 715.054 930.658 715.054ZM930.658 722.483C957.932 722.483 980.043 700.373 980.043 673.099C980.043 645.825 957.932 623.714 930.658 623.714C903.384 623.714 881.273 645.825 881.273 673.099C881.273 700.373 903.384 722.483 930.658 722.483Z" fill="#F87793"/>
<path fill-rule="evenodd" clip-rule="evenodd" d="M955.215 682.13C956.692 683.555 956.734 685.906 955.309 687.383C945.961 697.071 935.729 699.282 926.752 697.807C918.016 696.372 910.74 691.51 906.632 687.443C905.174 685.999 905.163 683.647 906.606 682.189C908.05 680.731 910.402 680.72 911.86 682.164C915.149 685.42 921.086 689.347 927.956 690.476C934.584 691.564 942.349 690.114 949.963 682.224C951.387 680.747 953.739 680.705 955.215 682.13Z" fill="#F87793"/>
<path d="M920.666 661.395C920.666 663.918 918.621 665.963 916.099 665.963C913.576 665.963 911.531 663.918 911.531 661.395C911.531 658.873 913.576 656.828 916.099 656.828C918.621 656.828 920.666 658.873 920.666 661.395Z" fill="#F87793"/>
<path d="M950.357 661.395C950.357 663.918 948.312 665.963 945.79 665.963C943.268 665.963 941.223 663.918 941.223 661.395C941.223 658.873 943.268 656.828 945.79 656.828C948.312 656.828 950.357 658.873 950.357 661.395Z" fill="#F87793"/>
<path fill-rule="evenodd" clip-rule="evenodd" d="M775.526 456.442H696.589C691.366 456.442 687.133 460.676 687.133 465.898V506.457C687.133 511.679 691.366 515.913 696.589 515.913H775.526C780.749 515.913 784.982 511.679 784.982 506.457V465.898C784.982 460.676 780.749 456.442 775.526 456.442ZM696.589 449.013C687.263 449.013 679.703 456.573 679.703 465.898V506.457C679.703 511.622 682.023 516.246 685.677 519.343C681.11 520.86 677.313 524.292 675.402 528.894L672.883 534.96C668.265 546.079 676.437 558.321 688.477 558.321H787.768C801.313 558.321 809.345 543.173 801.744 531.961L797.632 525.895C795.132 522.206 791.305 519.695 787.024 518.823C790.338 515.74 792.412 511.341 792.412 506.457V465.898C792.412 456.573 784.852 449.013 775.526 449.013H696.589ZM783.656 525.914H690.996C687.175 525.914 683.729 528.214 682.263 531.743L679.744 537.809C677.158 544.036 681.734 550.892 688.477 550.892H787.768C795.353 550.892 799.851 542.409 795.595 536.13L791.483 530.064C789.723 527.468 786.791 525.914 783.656 525.914ZM712.847 541.803C711.606 541.803 710.489 542.559 710.028 543.712C709.23 545.707 710.699 547.876 712.847 547.876H769.463C771.611 547.876 773.08 545.707 772.282 543.712C771.821 542.559 770.704 541.803 769.463 541.803H712.847Z" fill="#F87793"/>
<path fill-rule="evenodd" clip-rule="evenodd" d="M879.561 575.751L881.653 590.723L899.15 575.751H971.156C976.379 575.751 980.612 571.517 980.612 566.295V519.566C980.612 514.344 976.379 510.11 971.156 510.11H870.19C864.968 510.11 860.734 514.344 860.734 519.566V566.295C860.734 571.517 864.968 575.751 870.19 575.751H879.561ZM876.173 605.191L873.097 583.18H870.19C860.865 583.18 853.305 575.621 853.305 566.295V519.566C853.305 510.241 860.865 502.681 870.19 502.681H971.156C980.482 502.681 988.042 510.241 988.042 519.566V566.295C988.042 575.621 980.482 583.18 971.156 583.18H901.895L876.173 605.191Z" fill="#F87793"/>
<path fill-rule="evenodd" clip-rule="evenodd" d="M834.02 731.252L837.402 729.774C842.188 727.683 847.762 729.868 849.853 734.653L885.937 817.232C888.028 822.017 885.844 827.592 881.059 829.683L849.749 843.364C844.963 845.455 839.389 843.271 837.298 838.486L801.214 755.907C799.123 751.121 801.307 745.547 806.092 743.456L809.992 741.751C809.997 741.771 810.002 741.791 810.008 741.811C810.555 743.83 812.769 744.891 814.685 744.053L832.521 736.26C834.437 735.422 835.162 733.077 834.053 731.304C834.042 731.287 834.031 731.269 834.02 731.252ZM794.406 758.881C790.672 750.336 794.572 740.382 803.117 736.648L834.427 722.966C842.973 719.232 852.927 723.133 856.661 731.678L892.745 814.257C896.479 822.803 892.579 832.757 884.033 836.491L852.723 850.172C844.178 853.906 834.224 850.006 830.49 841.461L794.406 758.881Z" fill="#F87793"/>
<path fill-rule="evenodd" clip-rule="evenodd" d="M1273.58 148.35L1260.75 177.488C1257.98 183.763 1250.66 186.609 1244.38 183.845C1238.11 181.082 1235.26 173.755 1238.02 167.48L1250.86 138.342C1253.62 132.068 1260.95 129.221 1267.22 131.985C1273.5 134.749 1276.35 142.076 1273.58 148.35ZM1264.28 138.679C1261.7 137.543 1258.69 138.712 1257.55 141.29L1244.72 170.428C1243.58 173.006 1244.75 176.016 1247.33 177.152C1249.91 178.287 1252.92 177.118 1254.05 174.54L1266.89 145.402C1268.02 142.824 1266.85 139.814 1264.28 138.679Z" fill="#F87793"/>
<path fill-rule="evenodd" clip-rule="evenodd" d="M1272.61 139.641L1292.31 130.858C1292.41 130.812 1292.5 130.755 1292.59 130.688L1302.46 123.221L1306.87 129.053L1297.01 136.52C1296.47 136.924 1295.89 137.265 1295.28 137.537L1275.82 146.219C1274.73 146.797 1273.89 147.554 1273.28 148.414C1272.55 149.152 1271.94 150.032 1271.5 151.037L1261.51 173.729C1259.55 178.166 1261.57 183.346 1266 185.299L1291.32 196.451C1295.25 198.184 1299.86 196.813 1302.21 193.212L1315.93 172.161C1318.89 167.625 1317.07 161.519 1312.12 159.336L1297.52 152.906L1311.57 140.234C1313.47 138.52 1314.34 135.94 1313.86 133.427L1313.51 131.607L1320.69 130.237L1321.04 132.057C1322 137.081 1320.26 142.24 1316.47 145.665L1310.81 150.768L1315.07 152.643C1324.15 156.645 1327.48 167.839 1322.06 176.155L1308.34 197.206C1304.03 203.807 1295.58 206.321 1288.37 203.145L1263.05 191.993C1254.92 188.411 1251.23 178.914 1254.81 170.781L1264.81 148.089C1265.53 146.443 1266.51 144.967 1267.67 143.697C1268.91 142.097 1270.51 140.758 1272.39 139.759L1272.61 139.641ZM1313.51 131.607C1313.22 130.108 1312.15 128.884 1310.7 128.411C1309.39 127.986 1307.97 128.226 1306.87 129.053L1302.46 123.221C1305.46 120.949 1309.38 120.29 1312.96 121.458C1316.95 122.757 1319.91 126.121 1320.69 130.237L1313.51 131.607Z" fill="#F87793"/>
<path fill-rule="evenodd" clip-rule="evenodd" d="M777.256 144.171C777.625 141.929 776.453 139.637 774.278 138.679C771.7 137.543 768.69 138.712 767.554 141.29L754.72 170.428C753.584 173.006 754.754 176.016 757.332 177.152C759.588 178.146 762.177 177.374 763.548 175.436C763.728 173.869 764.144 172.301 764.813 170.781L774.808 148.089C775.445 146.643 776.275 145.33 777.256 144.171ZM764.776 183.668C761.619 185.188 757.841 185.368 754.383 183.845C748.109 181.082 745.263 173.755 748.026 167.48L760.861 138.342C763.624 132.067 770.951 129.221 777.226 131.985C780.442 133.402 782.757 136.017 783.878 139.075L802.305 130.858C802.407 130.812 802.503 130.755 802.592 130.688L812.459 123.221C815.46 120.949 819.384 120.29 822.963 121.458C826.948 122.757 829.91 126.121 830.694 130.237L831.041 132.057C831.998 137.081 830.264 142.24 826.467 145.665L820.809 150.768L825.065 152.643C834.15 156.645 837.48 167.839 832.058 176.155L818.336 197.206C814.033 203.807 805.582 206.321 798.371 203.145L773.053 191.993C769.191 190.292 766.331 187.257 764.776 183.668ZM770.762 177.458C770.836 180.76 772.779 183.88 776.001 185.299L801.319 196.451C805.253 198.184 809.862 196.813 812.209 193.212L825.931 172.161C828.888 167.625 827.072 161.519 822.116 159.336L807.518 152.906L821.568 140.234C823.468 138.52 824.335 135.94 823.856 133.427L823.51 131.607C823.224 130.108 822.146 128.884 820.696 128.411C819.393 127.986 817.965 128.226 816.872 129.053L807.005 136.52C806.472 136.924 805.894 137.265 805.284 137.537L785.816 146.219C785.029 146.637 784.372 147.148 783.839 147.725C783.76 147.934 783.674 148.143 783.583 148.35L770.762 177.458Z" fill="#F87793"/>
<path fill-rule="evenodd" clip-rule="evenodd" d="M287.259 144.171C287.628 141.93 286.455 139.637 284.28 138.679C281.702 137.543 278.692 138.713 277.557 141.291L264.722 170.429C263.587 173.006 264.756 176.017 267.334 177.152C269.591 178.146 272.179 177.374 273.551 175.436C273.731 173.869 274.146 172.301 274.816 170.782L284.811 148.09C285.448 146.644 286.277 145.33 287.259 144.171ZM274.779 183.669C271.621 185.188 267.844 185.369 264.386 183.846C258.111 181.082 255.265 173.755 258.029 167.48L270.863 138.342C273.627 132.068 280.954 129.222 287.229 131.985C290.445 133.402 292.76 136.017 293.881 139.075L312.307 130.858C312.409 130.812 312.505 130.756 312.594 130.688L322.461 123.221C325.463 120.949 329.387 120.291 332.966 121.458C336.95 122.757 339.912 126.121 340.697 130.238L341.044 132.058C342.001 137.081 340.267 142.24 336.469 145.665L330.811 150.769L335.067 152.643C344.153 156.645 347.482 167.839 342.061 176.156L328.339 197.206C324.036 203.808 315.585 206.321 308.373 203.145L283.055 191.993C279.193 190.292 276.334 187.258 274.779 183.669ZM280.765 177.459C280.839 180.76 282.782 183.881 286.003 185.3L311.322 196.451C315.255 198.184 319.865 196.813 322.212 193.212L335.934 172.162C338.891 167.625 337.075 161.519 332.119 159.337L317.521 152.907L331.571 140.234C333.47 138.521 334.338 135.94 333.859 133.427L333.512 131.607C333.227 130.109 332.148 128.884 330.698 128.411C329.396 127.987 327.967 128.226 326.875 129.053L317.008 136.52C316.475 136.924 315.897 137.265 315.286 137.538L295.819 146.219C295.032 146.637 294.375 147.149 293.841 147.725C293.762 147.935 293.677 148.143 293.586 148.351L280.765 177.459Z" fill="#F87793"/>
</svg>
