<svg width="1366" height="768" viewBox="0 0 1366 768" fill="none" xmlns="http://www.w3.org/2000/svg">
<path fill-rule="evenodd" clip-rule="evenodd" d="M68.7479 276.463L68.8014 276.409C68.859 276.351 68.9155 276.292 68.9707 276.232L69.0219 276.175L69.1008 276.093L69.2575 275.893C70.049 274.887 70.5169 273.63 70.5169 272.244C70.5169 268.976 67.8683 266.328 64.6012 266.328C62.6575 266.328 60.9325 267.258 59.842 268.729L53.8736 276.779L47.9052 268.729C46.8148 267.258 45.0898 266.328 43.146 266.328C39.8789 266.328 37.2304 268.976 37.2304 272.244C37.2304 273.63 37.6982 274.887 38.4897 275.893L38.6324 276.075L38.6821 276.127L38.7496 276.202C38.8223 276.282 38.8972 276.361 38.9742 276.438L39.0457 276.509L53.8751 292.084L68.7479 276.463ZM53.8751 302.858L33.7345 281.705C33.5622 281.534 33.3946 281.358 33.2318 281.177L32.5734 280.485H32.6493C32.6384 280.472 32.6276 280.458 32.6168 280.444C32.6023 280.425 32.5878 280.407 32.5734 280.388C30.9895 278.335 29.9903 275.808 29.8251 273.056C29.809 272.787 29.8008 272.516 29.8008 272.244C29.8008 264.873 35.7757 258.898 43.146 258.898C44.8462 258.898 46.472 259.216 47.9675 259.796C50.339 260.715 52.3825 262.293 53.8736 264.304C55.3648 262.293 57.4082 260.715 59.7798 259.796C61.2752 259.216 62.9011 258.898 64.6012 258.898C71.9716 258.898 77.9464 264.873 77.9464 272.244C77.9464 272.516 77.9383 272.787 77.9221 273.056C77.757 275.806 76.7589 278.332 75.1768 280.384C75.1618 280.404 75.1467 280.423 75.1316 280.442C75.1204 280.457 75.1092 280.471 75.0979 280.485H75.1768L74.455 281.244C74.3315 281.379 74.2052 281.511 74.0762 281.641L53.8751 302.858Z" fill="#FFD873"/>
<path fill-rule="evenodd" clip-rule="evenodd" d="M12.6646 313.128L14.7569 328.099L32.2515 313.128H104.262C109.484 313.128 113.718 308.894 113.718 303.672V256.943C113.718 251.721 109.484 247.487 104.262 247.487H3.29558C-1.92675 247.487 -6.16026 251.721 -6.16026 256.943V303.672C-6.16026 308.894 -1.92674 313.128 3.29558 313.128H12.6646ZM9.27702 342.567L6.20116 320.557H3.29558C-6.02998 320.557 -13.5898 312.997 -13.5898 303.672V256.943C-13.5898 247.617 -6.02998 240.057 3.29558 240.057H104.262C113.587 240.057 121.147 247.617 121.147 256.943V303.672C121.147 312.997 113.587 320.557 104.262 320.557H34.9965L9.27702 342.567Z" fill="#FFD873"/>
<path fill-rule="evenodd" clip-rule="evenodd" d="M-1.86456 403.031L-1.79693 402.963C-1.59503 402.762 -1.39833 402.555 -1.20705 402.344L-1.14297 402.273L-0.904053 402.022L-0.470833 401.471C1.73483 398.667 3.04617 395.142 3.04617 391.291C3.04617 382.185 -4.33551 374.804 -13.4413 374.804C-18.8682 374.804 -23.683 377.418 -26.6995 381.488L-32.6686 389.541L-38.6378 381.488C-41.6543 377.418 -46.4691 374.804 -51.896 374.804C-61.0018 374.804 -68.3835 382.185 -68.3835 391.291C-68.3835 395.142 -67.0721 398.667 -64.8665 401.471L-64.4134 402.047L-64.1193 402.356L-64.0687 402.412C-63.9174 402.577 -63.7628 402.739 -63.605 402.899L-63.5522 402.952L-32.6708 435.386L-1.86456 403.031ZM-32.6708 446.161L-68.8814 408.13C-69.1097 407.899 -69.3333 407.665 -69.5522 407.425L-70.8479 406.064H-70.7067C-70.7269 406.039 -70.747 406.013 -70.767 405.987C-70.7941 405.953 -70.821 405.918 -70.8479 405.883C-72.5095 403.728 -73.8118 401.282 -74.665 398.634C-75.4107 396.321 -75.8135 393.853 -75.8135 391.291C-75.8135 378.082 -65.1053 367.374 -51.896 367.374C-46.7171 367.374 -41.9226 369.02 -38.0072 371.817C-35.9652 373.276 -34.1623 375.048 -32.6686 377.063C-31.175 375.048 -29.3721 373.276 -27.3301 371.817C-23.4147 369.02 -18.6202 367.374 -13.4413 367.374C-0.232033 367.374 10.4762 378.082 10.4762 391.291C10.4762 393.853 10.0734 396.321 9.32774 398.634C8.47374 401.284 7.16998 403.732 5.50637 405.888C5.48031 405.922 5.45415 405.956 5.42791 405.99C5.40845 406.015 5.38895 406.039 5.3694 406.064H5.50637L4.30394 407.327C4.0272 407.633 3.74265 407.932 3.45061 408.223L-32.6708 446.161Z" fill="#FFD873"/>
<path fill-rule="evenodd" clip-rule="evenodd" d="M67.8798 -21.7871L65.9814 -9.55969C65.9643 -9.44955 65.9347 -9.34171 65.8931 -9.23829L58.364 9.48259C55.4329 8.06637 51.9523 7.79779 48.6578 9.01547C42.2267 11.3925 38.9403 18.5328 41.3172 24.9639L52.3555 54.8285C54.7325 61.2595 61.8729 64.546 68.3039 62.169C71.848 60.8591 74.4371 58.1025 75.6496 54.8153C79.2609 56.3101 83.4231 56.5009 87.3782 55.0391L113.328 45.4479C120.719 42.7159 125.044 35.0328 123.547 27.2964L118.77 2.62658C116.883 -7.12006 106.706 -12.8492 97.3941 -9.40744L93.0364 -7.79677L93.5538 -15.3984C93.9011 -20.5006 91.56 -25.414 87.3787 -28.3585L85.8639 -29.4251C82.4375 -31.838 77.9697 -32.1958 74.2029 -30.359C70.8191 -28.7089 68.4573 -25.5072 67.8798 -21.7871ZM57.1447 17.7394C57.2445 19.2578 57.5618 20.782 58.1106 22.2668L66.707 45.5247C67.2846 47.0875 68.0792 48.507 69.0441 49.7617C69.401 52.1048 68.0784 54.4548 65.7683 55.3087C63.1261 56.2852 60.1925 54.935 59.2159 52.2928L48.1776 22.4282C47.201 19.786 48.5513 16.8524 51.1935 15.8758C53.4179 15.0536 55.8489 15.8807 57.1447 17.7394ZM75.6358 46.1972C77.9849 48.5105 81.5456 49.3973 84.8426 48.1787L110.792 38.5875C114.824 37.0973 117.183 32.9066 116.366 28.6867L111.589 4.01692C110.56 -1.29942 105.009 -4.42443 99.9298 -2.54709L84.9718 2.98155L86.2567 -15.8951C86.4305 -18.4475 85.2593 -20.9055 83.1676 -22.3784L81.6529 -23.4451C80.4057 -24.3233 78.7796 -24.4535 77.4086 -23.785C76.177 -23.1844 75.3173 -22.019 75.1071 -20.6651L73.2088 -8.43761C73.1062 -7.77672 72.9283 -7.12974 72.6788 -6.50924L64.7254 13.2668C64.4508 14.1131 64.3343 14.9361 64.3514 15.7202C64.4415 15.9285 64.5265 16.1405 64.6062 16.356L75.6358 46.1972Z" fill="#FFD873"/>
<path d="M59.1596 196.668C58.1798 196.668 57.3959 196.277 56.8081 195.494C56.2855 194.711 56.0895 193.765 56.2202 192.656L66.9 130.703C67.0959 129.92 67.4552 129.3 67.9777 128.843C68.5003 128.387 69.1208 128.158 69.8393 128.158C70.8845 128.158 71.6683 128.55 72.1909 129.333C72.7787 130.05 72.9747 130.964 72.7787 132.073L62.099 194.124C62.0336 194.907 61.707 195.527 61.1192 195.983C60.5966 196.44 59.9434 196.668 59.1596 196.668ZM54.5545 151.452C53.6401 151.452 52.8562 151.158 52.203 150.571C51.6151 149.918 51.3212 149.135 51.3212 148.222C51.3212 147.374 51.6151 146.689 52.203 146.167C52.8562 145.645 53.6401 145.384 54.5545 145.384H103.74C104.655 145.384 105.406 145.71 105.994 146.362C106.582 146.95 106.876 147.7 106.876 148.613C106.876 149.462 106.582 150.147 105.994 150.669C105.406 151.191 104.655 151.452 103.74 151.452H54.5545ZM84.5363 196.668C83.4912 196.668 82.6747 196.277 82.0868 195.494C81.5642 194.711 81.4009 193.765 81.5969 192.656L92.2767 130.703C92.4073 129.92 92.7339 129.3 93.2565 128.843C93.779 128.387 94.4322 128.158 95.2161 128.158C96.2612 128.158 97.045 128.55 97.5676 129.333C98.1554 130.05 98.3514 130.964 98.1554 132.073L87.4757 194.124C87.345 194.907 87.0184 195.527 86.4959 195.983C85.9733 196.44 85.3201 196.668 84.5363 196.668ZM50.6353 178.954C49.7862 178.954 49.035 178.66 48.3818 178.073C47.7939 177.42 47.5 176.67 47.5 175.822C47.5 174.974 47.7939 174.288 48.3818 173.766C49.035 173.244 49.7862 172.983 50.6353 172.983H99.9191C100.834 172.983 101.585 173.277 102.173 173.864C102.76 174.452 103.054 175.202 103.054 176.115C103.054 176.964 102.76 177.649 102.173 178.171C101.585 178.693 100.834 178.954 99.9191 178.954H50.6353Z" fill="#FFD873"/>
<path fill-rule="evenodd" clip-rule="evenodd" d="M-48.6975 225.208C-25.5264 225.208 -6.74252 206.424 -6.74252 183.253C-6.74252 160.082 -25.5264 141.298 -48.6975 141.298C-71.8686 141.298 -90.6524 160.082 -90.6524 183.253C-90.6524 206.424 -71.8686 225.208 -48.6975 225.208ZM-48.6975 232.637C-21.4232 232.637 0.687057 210.527 0.687057 183.253C0.687057 155.978 -21.4232 133.868 -48.6975 133.868C-75.9718 133.868 -98.082 155.978 -98.082 183.253C-98.082 210.527 -75.9718 232.637 -48.6975 232.637Z" fill="#FFD873"/>
<path fill-rule="evenodd" clip-rule="evenodd" d="M-99.8061 85.9008L-97.7138 100.872L-80.2189 85.9008H-8.20894C-2.98661 85.9008 1.2469 81.6673 1.2469 76.445V29.7163C1.2469 24.494 -2.98663 20.2605 -8.20894 20.2605H-109.175C-114.397 20.2605 -118.631 24.494 -118.631 29.7163V76.445C-118.631 81.6673 -114.397 85.9008 -109.175 85.9008H-99.8061ZM-103.194 115.34L-106.27 93.3304H-109.175C-118.501 93.3304 -126.061 85.7705 -126.061 76.445V29.7163C-126.061 20.3907 -118.501 12.8309 -109.175 12.8309H-8.20894C1.11662 12.8309 8.67648 20.3907 8.67648 29.7163V76.445C8.67648 85.7706 1.11662 93.3304 -8.20894 93.3304H-77.4739L-103.194 115.34Z" fill="#FFD873"/>
<path fill-rule="evenodd" clip-rule="evenodd" d="M558.6 276.464L558.653 276.41C558.711 276.351 558.768 276.292 558.823 276.232L558.874 276.176L558.953 276.093L559.11 275.894C559.901 274.887 560.369 273.63 560.369 272.244C560.369 268.977 557.72 266.328 554.453 266.328C552.51 266.328 550.785 267.258 549.694 268.729L543.726 276.78L537.757 268.729C536.667 267.258 534.942 266.328 532.998 266.328C529.731 266.328 527.082 268.977 527.082 272.244C527.082 273.63 527.55 274.887 528.342 275.894L528.484 276.075L528.534 276.127L528.602 276.202C528.674 276.283 528.749 276.361 528.826 276.438L528.898 276.509L543.727 292.084L558.6 276.464ZM543.727 302.859L523.587 281.705C523.414 281.534 523.247 281.358 523.084 281.177L522.425 280.486H522.501C522.49 280.472 522.48 280.458 522.469 280.444C522.454 280.426 522.44 280.407 522.425 280.388C520.842 278.335 519.842 275.808 519.677 273.056C519.661 272.787 519.653 272.517 519.653 272.244C519.653 264.873 525.628 258.899 532.998 258.899C534.698 258.899 536.324 259.216 537.82 259.796C540.191 260.715 542.235 262.293 543.726 264.304C545.217 262.293 547.26 260.715 549.632 259.796C551.127 259.216 552.753 258.899 554.453 258.899C561.824 258.899 567.798 264.873 567.798 272.244C567.798 272.517 567.79 272.787 567.774 273.056C567.609 275.806 566.611 278.332 565.029 280.384C565.014 280.404 564.999 280.423 564.984 280.443C564.972 280.457 564.961 280.471 564.95 280.486H565.029L564.307 281.244C564.184 281.379 564.057 281.512 563.928 281.642L543.727 302.859Z" fill="#FFD873"/>
<path fill-rule="evenodd" clip-rule="evenodd" d="M502.517 313.128L504.609 328.099L522.104 313.128H594.114C599.337 313.128 603.57 308.894 603.57 303.672V256.943C603.57 251.721 599.337 247.487 594.114 247.487H493.148C487.926 247.487 483.692 251.721 483.692 256.943V303.672C483.692 308.894 487.926 313.128 493.148 313.128H502.517ZM499.13 342.567L496.054 320.557H493.148C483.823 320.557 476.263 312.997 476.263 303.672V256.943C476.263 247.618 483.823 240.058 493.148 240.058H594.114C603.44 240.058 611 247.618 611 256.943V303.672C611 312.997 603.44 320.557 594.114 320.557H524.849L499.13 342.567Z" fill="#FFD873"/>
<path fill-rule="evenodd" clip-rule="evenodd" d="M215.085 139.836L215.152 139.769C215.354 139.568 215.551 139.361 215.742 139.15L215.806 139.079L216.045 138.828L216.478 138.277C218.684 135.472 219.995 131.948 219.995 128.097C219.995 118.991 212.614 111.609 203.508 111.609C198.081 111.609 193.266 114.223 190.25 118.293L184.281 126.347L178.311 118.293C175.295 114.223 170.48 111.609 165.053 111.609C155.947 111.609 148.566 118.991 148.566 128.097C148.566 131.948 149.877 135.472 152.083 138.277L152.536 138.853L152.83 139.162L152.88 139.217C153.032 139.383 153.186 139.545 153.344 139.704L153.397 139.758L184.278 172.192L215.085 139.836ZM184.278 182.967L148.068 144.936C147.84 144.705 147.616 144.47 147.397 144.231L146.101 142.87H146.243C146.222 142.844 146.202 142.819 146.182 142.793C146.155 142.758 146.128 142.724 146.101 142.689C144.44 140.534 143.137 138.088 142.284 135.44C141.539 133.126 141.136 130.658 141.136 128.097C141.136 114.887 151.844 104.179 165.053 104.179C170.232 104.179 175.027 105.825 178.942 108.623C180.984 110.082 182.787 111.854 184.281 113.869C185.774 111.854 187.577 110.082 189.619 108.623C193.535 105.825 198.329 104.179 203.508 104.179C216.717 104.179 227.425 114.887 227.425 128.097C227.425 130.658 227.023 133.126 226.277 135.44C225.423 138.09 224.119 140.538 222.456 142.694C222.43 142.728 222.403 142.762 222.377 142.795C222.358 142.82 222.338 142.845 222.319 142.87H222.456L221.253 144.133C220.976 144.439 220.692 144.738 220.4 145.029L184.278 182.967Z" fill="#FFD873"/>
<path fill-rule="evenodd" clip-rule="evenodd" d="M487.982 403.031L488.05 402.963C488.252 402.762 488.448 402.555 488.64 402.344L488.704 402.273L488.943 402.022L489.376 401.471C491.582 398.666 492.893 395.142 492.893 391.291C492.893 382.185 485.511 374.803 476.405 374.803C470.978 374.803 466.164 377.418 463.147 381.487L457.178 389.541L451.209 381.487C448.192 377.418 443.378 374.803 437.951 374.803C428.845 374.803 421.463 382.185 421.463 391.291C421.463 395.142 422.775 398.666 424.98 401.471L425.433 402.047L425.727 402.356L425.778 402.411C425.929 402.577 426.084 402.739 426.242 402.898L426.295 402.952L457.176 435.386L487.982 403.031ZM457.176 446.161L420.965 408.129C420.737 407.899 420.513 407.664 420.295 407.425L418.999 406.064H419.14C419.12 406.038 419.1 406.013 419.08 405.987C419.053 405.952 419.026 405.918 418.999 405.883C417.337 403.728 416.035 401.282 415.182 398.634C414.436 396.32 414.033 393.853 414.033 391.291C414.033 378.082 424.741 367.373 437.951 367.373C443.13 367.373 447.924 369.019 451.839 371.817C453.881 373.276 455.684 375.048 457.178 377.063C458.672 375.048 460.475 373.276 462.517 371.817C466.432 369.019 471.226 367.373 476.405 367.373C489.615 367.373 500.323 378.081 500.323 391.291C500.323 393.853 499.92 396.32 499.174 398.634C498.32 401.284 497.017 403.732 495.353 405.888C495.327 405.922 495.301 405.956 495.275 405.989C495.255 406.014 495.236 406.039 495.216 406.064H495.353L494.151 407.327C493.874 407.633 493.589 407.932 493.297 408.223L457.176 446.161Z" fill="#FFD873"/>
<path fill-rule="evenodd" clip-rule="evenodd" d="M557.735 -21.7842L555.837 -9.55678C555.82 -9.44664 555.79 -9.3388 555.749 -9.23538L548.219 9.48662C545.287 8.06729 541.803 7.79724 538.506 9.01594C532.075 11.3929 528.788 18.5333 531.165 24.9643L542.203 54.8289C544.58 61.26 551.721 64.5465 558.152 62.1695C561.696 60.8594 564.285 58.1026 565.498 54.8151C569.111 56.3127 573.276 56.5049 577.234 55.042L603.183 45.4508C610.575 42.7188 614.9 35.0358 613.402 27.2993L608.626 2.62949C606.738 -7.11715 596.562 -12.8463 587.25 -9.40452L582.892 -7.79386L583.41 -15.3955C583.757 -20.4977 581.416 -25.4111 577.234 -28.3556L575.72 -29.4222C572.293 -31.8351 567.825 -32.1929 564.059 -30.3561C560.675 -28.706 558.313 -25.5043 557.735 -21.7842ZM547.001 17.752C547.102 19.2672 547.419 20.7881 547.966 22.2697L556.563 45.5277C557.138 47.0854 557.93 48.5008 558.891 49.7525C559.252 52.0989 557.929 54.4541 555.616 55.3091C552.974 56.2857 550.04 54.9355 549.064 52.2933L538.025 22.4287C537.049 19.7865 538.399 16.8529 541.041 15.8763C543.271 15.0523 545.707 15.8848 547.001 17.752ZM565.481 46.1893C567.83 48.5106 571.396 49.4021 574.698 48.1816L600.648 38.5904C604.679 37.1003 607.039 32.9095 606.222 28.6896L601.445 4.01983C600.416 -1.29651 594.865 -4.42152 589.785 -2.54418L574.827 2.98445L576.112 -15.8922C576.286 -18.4446 575.115 -20.9026 573.023 -22.3755L571.509 -23.4422C570.261 -24.3204 568.635 -24.4506 567.264 -23.7821C566.033 -23.1815 565.173 -22.0161 564.963 -20.6621L563.064 -8.4347C562.962 -7.77382 562.784 -7.12683 562.534 -6.50633L554.581 13.2697C554.305 14.1219 554.188 14.9505 554.207 15.7396C554.295 15.9419 554.377 16.1475 554.454 16.3565L565.481 46.1893Z" fill="#FFD873"/>
<path d="M209.315 310.851C208.335 310.851 207.551 310.46 206.963 309.677C206.441 308.894 206.245 307.948 206.375 306.839L217.055 244.886C217.251 244.103 217.61 243.483 218.133 243.026C218.656 242.569 219.276 242.341 219.995 242.341C221.04 242.341 221.824 242.732 222.346 243.515C222.934 244.233 223.13 245.147 222.934 246.256L212.254 308.307C212.189 309.09 211.862 309.71 211.274 310.166C210.752 310.623 210.099 310.851 209.315 310.851ZM204.71 265.635C203.795 265.635 203.011 265.341 202.358 264.754C201.77 264.101 201.476 263.318 201.476 262.405C201.476 261.557 201.77 260.871 202.358 260.349C203.011 259.827 203.795 259.566 204.71 259.566H253.896C254.81 259.566 255.561 259.893 256.149 260.545C256.737 261.132 257.031 261.883 257.031 262.796C257.031 263.644 256.737 264.33 256.149 264.852C255.561 265.374 254.81 265.635 253.896 265.635H204.71ZM234.692 310.851C233.646 310.851 232.83 310.46 232.242 309.677C231.72 308.894 231.556 307.948 231.752 306.839L242.432 244.886C242.563 244.103 242.889 243.483 243.412 243.026C243.934 242.569 244.587 242.341 245.371 242.341C246.416 242.341 247.2 242.732 247.723 243.515C248.311 244.233 248.507 245.147 248.311 246.256L237.631 308.307C237.5 309.09 237.174 309.71 236.651 310.166C236.129 310.623 235.475 310.851 234.692 310.851ZM200.791 293.137C199.941 293.137 199.19 292.843 198.537 292.256C197.949 291.603 197.655 290.853 197.655 290.005C197.655 289.156 197.949 288.471 198.537 287.949C199.19 287.427 199.941 287.166 200.791 287.166H250.074C250.989 287.166 251.74 287.46 252.328 288.047C252.916 288.634 253.21 289.385 253.21 290.298C253.21 291.146 252.916 291.832 252.328 292.354C251.74 292.876 250.989 293.137 250.074 293.137H200.791Z" fill="#FFD873"/>
<path d="M549.013 196.668C548.033 196.668 547.249 196.277 546.661 195.494C546.139 194.711 545.943 193.765 546.073 192.656L556.753 130.703C556.949 129.92 557.308 129.3 557.831 128.843C558.353 128.387 558.974 128.158 559.692 128.158C560.737 128.158 561.521 128.55 562.044 129.333C562.632 130.05 562.828 130.964 562.632 132.073L551.952 194.124C551.887 194.907 551.56 195.527 550.972 195.983C550.45 196.44 549.796 196.668 549.013 196.668ZM544.408 151.452C543.493 151.452 542.709 151.158 542.056 150.571C541.468 149.918 541.174 149.135 541.174 148.222C541.174 147.374 541.468 146.689 542.056 146.167C542.709 145.645 543.493 145.384 544.408 145.384H593.593C594.508 145.384 595.259 145.71 595.847 146.362C596.435 146.95 596.729 147.7 596.729 148.613C596.729 149.462 596.435 150.147 595.847 150.669C595.259 151.191 594.508 151.452 593.593 151.452H544.408ZM574.389 196.668C573.344 196.668 572.528 196.277 571.94 195.494C571.417 194.711 571.254 193.765 571.45 192.656L582.13 130.703C582.26 129.92 582.587 129.3 583.109 128.843C583.632 128.387 584.285 128.158 585.069 128.158C586.114 128.158 586.898 128.55 587.421 129.333C588.008 130.05 588.204 130.964 588.008 132.073L577.329 194.124C577.198 194.907 576.871 195.527 576.349 195.983C575.826 196.44 575.173 196.668 574.389 196.668ZM540.488 178.954C539.639 178.954 538.888 178.66 538.235 178.073C537.647 177.42 537.353 176.67 537.353 175.822C537.353 174.974 537.647 174.288 538.235 173.766C538.888 173.244 539.639 172.983 540.488 172.983H589.772C590.687 172.983 591.438 173.277 592.026 173.864C592.614 174.452 592.907 175.202 592.907 176.115C592.907 176.964 592.614 177.649 592.026 178.171C591.438 178.693 590.687 178.954 589.772 178.954H540.488Z" fill="#FFD873"/>
<path fill-rule="evenodd" clip-rule="evenodd" d="M441.149 225.207C464.32 225.207 483.104 206.423 483.104 183.252C483.104 160.081 464.32 141.297 441.149 141.297C417.978 141.297 399.194 160.081 399.194 183.252C399.194 206.423 417.978 225.207 441.149 225.207ZM441.149 232.637C468.423 232.637 490.533 210.527 490.533 183.252C490.533 155.978 468.423 133.868 441.149 133.868C413.874 133.868 391.764 155.978 391.764 183.252C391.764 210.527 413.874 232.637 441.149 232.637Z" fill="#FFD873"/>
<path fill-rule="evenodd" clip-rule="evenodd" d="M465.707 192.283C467.183 193.707 467.225 196.059 465.801 197.535C456.453 207.223 446.221 209.434 437.243 207.96C428.508 206.525 421.231 201.663 417.124 197.595C415.666 196.152 415.655 193.8 417.098 192.342C418.542 190.884 420.894 190.873 422.352 192.316C425.64 195.573 431.578 199.5 438.448 200.628C445.076 201.717 452.841 200.266 460.454 192.376C461.879 190.9 464.231 190.858 465.707 192.283Z" fill="#FFD873"/>
<path d="M431.155 171.549C431.155 174.071 429.11 176.116 426.587 176.116C424.065 176.116 422.02 174.071 422.02 171.549C422.02 169.026 424.065 166.981 426.587 166.981C429.11 166.981 431.155 169.026 431.155 171.549Z" fill="#FFD873"/>
<path d="M460.848 171.549C460.848 174.071 458.803 176.116 456.28 176.116C453.758 176.116 451.713 174.071 451.713 171.549C451.713 169.026 453.758 166.981 456.28 166.981C458.803 166.981 460.848 169.026 460.848 171.549Z" fill="#FFD873"/>
<path fill-rule="evenodd" clip-rule="evenodd" d="M286.022 -33.4054H207.084C201.862 -33.4054 197.628 -29.1719 197.628 -23.9496V16.609C197.628 21.8313 201.862 26.0649 207.084 26.0649H286.022C291.244 26.0649 295.478 21.8314 295.478 16.6091V-23.9496C295.478 -29.1719 291.244 -33.4054 286.022 -33.4054ZM207.084 -40.835C197.759 -40.835 190.199 -33.2752 190.199 -23.9496V16.609C190.199 21.7755 192.519 26.4 196.174 29.4973C191.61 31.0148 187.816 34.4456 185.905 39.0459L183.386 45.1118C178.769 56.2315 186.94 68.4731 198.981 68.4731H298.271C311.817 68.4731 319.848 53.3252 312.248 42.1131L308.136 36.0472C305.634 32.3564 301.805 29.8444 297.521 28.9742C300.835 25.8912 302.907 21.4922 302.907 16.6091V-23.9496C302.907 -33.2752 295.348 -40.835 286.022 -40.835H207.084ZM294.159 36.066H201.5C197.678 36.066 194.232 38.3661 192.767 41.8953L190.248 47.9612C187.662 54.1883 192.238 61.0435 198.981 61.0435H298.271C305.857 61.0435 310.354 52.5607 306.098 46.2819L301.986 40.2161C300.227 37.6205 297.295 36.066 294.159 36.066ZM223.353 51.9562C222.111 51.9562 220.995 52.7121 220.534 53.8649C219.736 55.8593 221.205 58.0289 223.353 58.0289H279.968C282.116 58.0289 283.585 55.8593 282.787 53.8649C282.326 52.7121 281.21 51.9562 279.968 51.9562H223.353Z" fill="#FFD873"/>
<path fill-rule="evenodd" clip-rule="evenodd" d="M390.048 85.9006L392.141 100.872L409.636 85.9006H481.646C486.868 85.9006 491.101 81.6671 491.101 76.4448V29.7161C491.101 24.4938 486.868 20.2603 481.646 20.2603H380.679C375.457 20.2603 371.224 24.4938 371.224 29.7161V76.4448C371.224 81.6671 375.457 85.9006 380.679 85.9006H390.048ZM386.661 115.34L383.585 93.3302H380.679C371.354 93.3302 363.794 85.7703 363.794 76.4448V29.7161C363.794 20.3905 371.354 12.8307 380.679 12.8307H481.646C490.971 12.8307 498.531 20.3905 498.531 29.7161V76.4448C498.531 85.7704 490.971 93.3302 481.646 93.3302H412.381L386.661 115.34Z" fill="#FFD873"/>
<path fill-rule="evenodd" clip-rule="evenodd" d="M344.515 241.402L347.895 239.925C352.681 237.834 358.255 240.018 360.346 244.803L396.43 327.383C398.521 332.168 396.337 337.742 391.552 339.833L360.242 353.515C355.456 355.606 349.882 353.422 347.791 348.636L311.707 266.057C309.616 261.272 311.8 255.697 316.585 253.606L320.487 251.901C320.492 251.921 320.498 251.941 320.503 251.961C321.051 253.98 323.264 255.041 325.181 254.203L343.016 246.41C344.932 245.572 345.657 243.227 344.548 241.454C344.537 241.437 344.526 241.419 344.515 241.402ZM304.899 269.032C301.165 260.487 305.065 250.532 313.61 246.798L344.92 233.117C353.466 229.383 363.42 233.283 367.154 241.829L403.238 324.408C406.972 332.953 403.072 342.907 394.527 346.641L363.217 360.323C354.671 364.057 344.717 360.156 340.983 351.611L304.899 269.032Z" fill="#FFD873"/>
<path fill-rule="evenodd" clip-rule="evenodd" d="M205.954 352.187L208.684 354.665C212.55 358.176 212.839 364.156 209.329 368.022L148.755 434.747C145.245 438.614 139.265 438.903 135.398 435.393L110.1 412.426C106.233 408.916 105.944 402.936 109.454 399.069L170.028 332.344C173.538 328.478 179.518 328.189 183.385 331.699L186.539 334.562C186.523 334.575 186.508 334.587 186.492 334.6C184.874 335.926 184.812 338.38 186.361 339.786L200.772 352.868C202.321 354.274 204.757 353.976 205.921 352.238C205.932 352.221 205.943 352.204 205.954 352.187ZM164.527 327.35C170.795 320.446 181.474 319.93 188.379 326.198L213.677 349.165C220.582 355.433 221.098 366.112 214.83 373.016L154.256 439.741C147.988 446.646 137.309 447.162 130.405 440.894L105.106 417.927C98.201 411.659 97.685 400.98 103.953 394.075L164.527 327.35Z" fill="#FFD873"/>
<path fill-rule="evenodd" clip-rule="evenodd" d="M68.7498 766.31L68.8033 766.256C68.8609 766.198 68.9174 766.139 68.9726 766.079L69.0239 766.023L69.1028 765.94L69.2595 765.74C70.051 764.734 70.5188 763.477 70.5188 762.091C70.5188 758.824 67.8703 756.175 64.6031 756.175C62.6594 756.175 60.9344 757.105 59.844 758.576L53.8756 766.627L47.9072 758.576C46.8167 757.105 45.0917 756.175 43.148 756.175C39.8808 756.175 37.2323 758.824 37.2323 762.091C37.2323 763.477 37.7001 764.734 38.4916 765.74L38.6343 765.922L38.684 765.974L38.7516 766.049C38.8243 766.13 38.8992 766.208 38.9762 766.285L39.0477 766.356L53.877 781.931L68.7498 766.31ZM53.877 792.706L33.7365 771.552C33.5642 771.381 33.3965 771.205 33.2337 771.024L32.5753 770.333H32.6512C32.6404 770.319 32.6296 770.305 32.6188 770.291C32.6043 770.273 32.5898 770.254 32.5753 770.235C30.9915 768.182 29.9923 765.655 29.8271 762.903C29.8109 762.634 29.8027 762.363 29.8027 762.091C29.8027 754.72 35.7776 748.745 43.148 748.745C44.8481 748.745 46.474 749.063 47.9694 749.643C50.341 750.562 52.3844 752.14 53.8756 754.151C55.3667 752.14 57.4102 750.562 59.7817 749.643C61.2771 749.063 62.903 748.745 64.6031 748.745C71.9735 748.745 77.9484 754.72 77.9484 762.091C77.9484 762.363 77.9402 762.634 77.9241 762.903C77.7589 765.653 76.7609 768.179 75.1788 770.231C75.1638 770.251 75.1487 770.27 75.1336 770.29C75.1224 770.304 75.1112 770.318 75.0999 770.333H75.1788L74.4571 771.091C74.3335 771.226 74.2071 771.359 74.0781 771.489L53.877 792.706Z" fill="#FFD873"/>
<path fill-rule="evenodd" clip-rule="evenodd" d="M558.6 766.311L558.654 766.257C558.712 766.199 558.768 766.139 558.823 766.079L558.874 766.023L558.953 765.94L559.11 765.741C559.902 764.734 560.369 763.477 560.369 762.091C560.369 758.824 557.721 756.175 554.454 756.175C552.51 756.175 550.785 757.105 549.695 758.576L543.726 766.627L537.758 758.576C536.667 757.105 534.942 756.175 532.999 756.175C529.731 756.175 527.083 758.824 527.083 762.091C527.083 763.477 527.551 764.734 528.342 765.741L528.485 765.922L528.535 765.974L528.602 766.049C528.675 766.13 528.75 766.209 528.827 766.285L528.898 766.356L543.728 781.931L558.6 766.311ZM543.728 792.706L523.587 771.552C523.415 771.381 523.247 771.205 523.084 771.024L522.426 770.333H522.502C522.491 770.319 522.48 770.305 522.469 770.291C522.455 770.273 522.44 770.254 522.426 770.235C520.842 768.182 519.843 765.655 519.678 762.903C519.662 762.635 519.653 762.364 519.653 762.091C519.653 754.721 525.628 748.746 532.999 748.746C534.699 748.746 536.325 749.064 537.82 749.643C540.192 750.562 542.235 752.14 543.726 754.151C545.217 752.14 547.261 750.562 549.632 749.643C551.128 749.064 552.754 748.746 554.454 748.746C561.824 748.746 567.799 754.721 567.799 762.091C567.799 762.364 567.791 762.635 567.775 762.903C567.61 765.654 566.611 768.179 565.029 770.232C565.014 770.251 564.999 770.27 564.984 770.29C564.973 770.304 564.962 770.319 564.95 770.333H565.029L564.308 771.091C564.184 771.226 564.058 771.359 563.929 771.489L543.728 792.706Z" fill="#FFD873"/>
<path fill-rule="evenodd" clip-rule="evenodd" d="M12.6695 802.976L14.7617 817.947L32.2564 802.976H104.265C109.487 802.976 113.721 798.742 113.721 793.52V746.791C113.721 741.569 109.487 737.335 104.265 737.335H3.29851C-1.92382 737.335 -6.15733 741.569 -6.15733 746.791V793.52C-6.15733 798.742 -1.92381 802.976 3.29851 802.976H12.6695ZM9.28185 832.415L6.20599 810.406H3.29851C-6.02705 810.406 -13.5869 802.846 -13.5869 793.52V746.791C-13.5869 737.466 -6.02705 729.906 3.29851 729.906H104.265C113.59 729.906 121.15 737.466 121.15 746.791V793.52C121.15 802.846 113.59 810.406 104.265 810.406H35.0014L9.28185 832.415Z" fill="#FFD873"/>
<path fill-rule="evenodd" clip-rule="evenodd" d="M502.518 802.976L504.61 817.947L522.105 802.976H594.115C599.337 802.976 603.571 798.742 603.571 793.52V746.791C603.571 741.569 599.337 737.335 594.115 737.335H493.149C487.926 737.335 483.693 741.569 483.693 746.791V793.52C483.693 798.742 487.926 802.976 493.149 802.976H502.518ZM499.13 832.415L496.054 810.405H493.149C483.823 810.405 476.263 802.846 476.263 793.52V746.791C476.263 737.466 483.823 729.906 493.149 729.906H594.115C603.44 729.906 611 737.466 611 746.791V793.52C611 802.846 603.44 810.405 594.115 810.405H524.85L499.13 832.415Z" fill="#FFD873"/>
<path fill-rule="evenodd" clip-rule="evenodd" d="M215.085 629.684L215.152 629.616C215.354 629.415 215.551 629.208 215.742 628.997L215.806 628.926L216.045 628.675L216.478 628.124C218.684 625.32 219.995 621.795 219.995 617.944C219.995 608.838 212.614 601.457 203.508 601.457C198.081 601.457 193.266 604.071 190.25 608.141L184.281 616.194L178.311 608.141C175.295 604.071 170.48 601.457 165.053 601.457C155.947 601.457 148.566 608.838 148.566 617.944C148.566 621.795 149.877 625.32 152.083 628.124L152.536 628.7L152.83 629.009L152.88 629.064C153.032 629.23 153.186 629.393 153.344 629.552L153.397 629.605L184.278 662.039L215.085 629.684ZM184.278 672.814L148.068 634.783C147.84 634.553 147.616 634.317 147.397 634.078L146.101 632.717H146.243C146.222 632.692 146.202 632.666 146.182 632.64C146.155 632.606 146.128 632.571 146.101 632.536C144.44 630.381 143.137 627.935 142.284 625.287C141.539 622.974 141.136 620.506 141.136 617.944C141.136 604.735 151.844 594.027 165.053 594.027C170.232 594.027 175.027 595.673 178.942 598.47C180.984 599.929 182.787 601.701 184.281 603.716C185.774 601.701 187.577 599.929 189.619 598.47C193.535 595.673 198.329 594.027 203.508 594.027C216.717 594.027 227.425 604.735 227.425 617.944C227.425 620.506 227.023 622.974 226.277 625.287C225.423 627.937 224.119 630.385 222.456 632.542C222.43 632.575 222.403 632.609 222.377 632.643C222.358 632.668 222.338 632.693 222.319 632.717H222.456L221.253 633.98C220.976 634.286 220.692 634.585 220.4 634.877L184.278 672.814Z" fill="#FFD873"/>
<path fill-rule="evenodd" clip-rule="evenodd" d="M293.658 638.351L280.823 667.489C278.06 673.763 270.733 676.609 264.458 673.846C258.183 671.082 255.337 663.755 258.101 657.48L270.935 628.342C273.699 622.068 281.026 619.222 287.301 621.985C293.575 624.749 296.421 632.076 293.658 638.351ZM284.352 628.679C281.774 627.543 278.764 628.713 277.629 631.29L264.794 660.428C263.659 663.006 264.828 666.017 267.406 667.152C269.984 668.288 272.994 667.118 274.13 664.54L286.964 635.402C288.1 632.824 286.93 629.814 284.352 628.679Z" fill="#FFD873"/>
<path fill-rule="evenodd" clip-rule="evenodd" d="M292.684 629.641L312.381 620.857C312.483 620.812 312.579 620.755 312.668 620.688L322.535 613.221L326.948 619.053L317.081 626.52C316.548 626.923 315.971 627.265 315.36 627.537L295.892 636.219C294.804 636.797 293.965 637.553 293.356 638.413C292.629 639.152 292.02 640.032 291.578 641.037L281.583 663.729C279.629 668.165 281.641 673.345 286.077 675.299L311.395 686.451C315.329 688.184 319.938 686.812 322.285 683.212L336.007 662.161C338.964 657.625 337.148 651.519 332.193 649.336L317.594 642.906L331.644 630.234C333.544 628.52 334.411 625.939 333.932 623.426L333.586 621.607L340.77 620.237L341.117 622.057C342.075 627.081 340.34 632.24 336.543 635.665L330.885 640.768L335.141 642.643C344.226 646.645 347.556 657.838 342.134 666.155L328.413 687.206C324.109 693.807 315.658 696.321 308.447 693.144L283.129 681.993C274.996 678.41 271.307 668.914 274.889 660.781L284.884 638.089C285.61 636.442 286.585 634.967 287.75 633.697C288.99 632.097 290.581 630.758 292.463 629.759L292.684 629.641ZM333.586 621.607C333.3 620.108 332.222 618.884 330.772 618.411C329.469 617.986 328.041 618.226 326.948 619.053L322.535 613.221C325.536 610.949 329.46 610.29 333.039 611.457C337.024 612.757 339.986 616.12 340.77 620.237L333.586 621.607Z" fill="#FFD873"/>
<path fill-rule="evenodd" clip-rule="evenodd" d="M66.7387 468.065L64.8403 480.293C64.8232 480.403 64.7936 480.511 64.752 480.614L57.2233 499.334C54.2913 497.916 50.8089 497.647 47.5128 498.865C41.0817 501.242 37.7953 508.382 40.1723 514.813L51.2105 544.678C53.5875 551.109 60.7279 554.395 67.159 552.018C70.7026 550.709 73.2915 547.953 74.5042 544.666C78.1165 546.162 82.2804 546.354 86.2372 544.891L112.187 535.3C119.578 532.568 123.903 524.885 122.405 517.149L117.629 492.479C115.742 482.732 105.565 477.003 96.253 480.445L91.8953 482.056L92.4127 474.454C92.7601 469.352 90.4189 464.438 86.2376 461.494L84.7229 460.427C81.2964 458.014 76.8286 457.657 73.0618 459.493C69.6781 461.143 67.3162 464.345 66.7387 468.065ZM56.0039 507.595C56.1038 509.112 56.4211 510.635 56.9696 512.119L65.5659 535.377C66.1427 536.938 66.9358 538.355 67.8987 539.608C68.257 541.952 66.9344 544.304 64.6233 545.158C61.9811 546.135 59.0475 544.784 58.0709 542.142L47.0326 512.278C46.056 509.635 47.4063 506.702 50.0485 505.725C52.2753 504.902 54.709 505.732 56.0039 507.595ZM74.4903 536.045C76.8393 538.362 80.4024 539.25 83.7015 538.031L109.651 528.44C113.683 526.95 116.042 522.759 115.225 518.539L110.448 493.869C109.419 488.553 103.868 485.428 98.7887 487.305L83.8307 492.834L85.1157 473.957C85.2894 471.405 84.1183 468.947 82.0266 467.474L80.5118 466.407C79.2647 465.529 77.6385 465.399 76.2675 466.067C75.0359 466.668 74.1763 467.833 73.9661 469.187L72.0677 481.415C71.9651 482.076 71.7873 482.723 71.5377 483.343L63.5843 503.119C63.3089 503.968 63.1926 504.793 63.2105 505.579C63.2991 505.784 63.3828 505.993 63.4612 506.205L74.4903 536.045Z" fill="#FFD873"/>
<path fill-rule="evenodd" clip-rule="evenodd" d="M557.734 468.064L555.836 480.292C555.819 480.402 555.789 480.51 555.747 480.613L548.218 499.334C545.286 497.915 541.803 497.645 538.506 498.864C532.075 501.241 528.789 508.381 531.166 514.812L542.204 544.677C544.581 551.108 551.721 554.394 558.152 552.017C561.696 550.707 564.285 547.951 565.498 544.664C569.111 546.161 573.275 546.353 577.233 544.89L603.182 535.299C610.573 532.567 614.899 524.884 613.401 517.148L608.624 492.478C606.737 482.731 596.56 477.002 587.248 480.444L582.891 482.054L583.408 474.453C583.755 469.351 581.414 464.437 577.233 461.493L575.718 460.426C572.292 458.013 567.824 457.655 564.057 459.492C560.673 461.142 558.312 464.344 557.734 468.064ZM546.999 507.597C547.1 509.113 547.417 510.635 547.965 512.118L556.561 535.376C557.138 536.935 557.93 538.352 558.892 539.604C559.252 541.949 557.929 544.302 555.617 545.157C552.975 546.134 550.041 544.783 549.064 542.141L538.026 512.277C537.049 509.634 538.4 506.701 541.042 505.724C543.27 504.901 545.705 505.732 546.999 507.597ZM565.483 536.041C567.832 538.36 571.396 539.25 574.697 538.03L600.646 528.439C604.678 526.949 607.037 522.758 606.22 518.538L601.444 493.868C600.414 488.552 594.863 485.427 589.784 487.304L574.826 492.833L576.111 473.956C576.285 471.404 575.114 468.946 573.022 467.473L571.507 466.406C570.26 465.528 568.634 465.398 567.263 466.066C566.031 466.667 565.172 467.832 564.961 469.186L563.063 481.414C562.96 482.075 562.783 482.721 562.533 483.342L554.58 503.118C554.304 503.968 554.188 504.795 554.206 505.583C554.294 505.786 554.377 505.994 554.455 506.204L565.483 536.041Z" fill="#FFD873"/>
<path d="M209.315 800.7C208.336 800.7 207.552 800.309 206.964 799.526C206.441 798.743 206.245 797.797 206.376 796.687L217.056 734.734C217.252 733.951 217.611 733.332 218.133 732.875C218.656 732.418 219.277 732.19 219.995 732.19C221.04 732.19 221.824 732.581 222.347 733.364C222.934 734.082 223.13 734.995 222.934 736.105L212.255 798.155C212.189 798.938 211.863 799.558 211.275 800.015C210.752 800.472 210.099 800.7 209.315 800.7ZM204.71 755.483C203.796 755.483 203.012 755.19 202.359 754.602C201.771 753.95 201.477 753.167 201.477 752.253C201.477 751.405 201.771 750.72 202.359 750.198C203.012 749.676 203.796 749.415 204.71 749.415H253.896C254.811 749.415 255.562 749.741 256.15 750.394C256.737 750.981 257.031 751.731 257.031 752.645C257.031 753.493 256.737 754.178 256.15 754.7C255.562 755.222 254.811 755.483 253.896 755.483H204.71ZM234.692 800.7C233.647 800.7 232.83 800.309 232.243 799.526C231.72 798.743 231.557 797.797 231.753 796.687L242.432 734.734C242.563 733.951 242.89 733.332 243.412 732.875C243.935 732.418 244.588 732.19 245.372 732.19C246.417 732.19 247.201 732.581 247.723 733.364C248.311 734.082 248.507 734.995 248.311 736.105L237.631 798.155C237.501 798.938 237.174 799.558 236.652 800.015C236.129 800.472 235.476 800.7 234.692 800.7ZM200.791 782.985C199.942 782.985 199.191 782.692 198.538 782.104C197.95 781.452 197.656 780.702 197.656 779.853C197.656 779.005 197.95 778.32 198.538 777.798C199.191 777.276 199.942 777.015 200.791 777.015H250.075C250.989 777.015 251.74 777.309 252.328 777.896C252.916 778.483 253.21 779.233 253.21 780.147C253.21 780.995 252.916 781.68 252.328 782.202C251.74 782.724 250.989 782.985 250.075 782.985H200.791Z" fill="#FFD873"/>
<path d="M549.013 686.516C548.033 686.516 547.249 686.124 546.661 685.341C546.139 684.558 545.943 683.612 546.073 682.503L556.753 620.55C556.949 619.767 557.308 619.147 557.831 618.69C558.353 618.234 558.974 618.005 559.692 618.005C560.737 618.005 561.521 618.397 562.044 619.18C562.632 619.898 562.828 620.811 562.632 621.92L551.952 683.971C551.887 684.754 551.56 685.374 550.972 685.831C550.45 686.287 549.796 686.516 549.013 686.516ZM544.408 641.299C543.493 641.299 542.709 641.005 542.056 640.418C541.468 639.766 541.174 638.983 541.174 638.069C541.174 637.221 541.468 636.536 542.056 636.014C542.709 635.492 543.493 635.231 544.408 635.231H593.593C594.508 635.231 595.259 635.557 595.847 636.21C596.435 636.797 596.729 637.547 596.729 638.461C596.729 639.309 596.435 639.994 595.847 640.516C595.259 641.038 594.508 641.299 593.593 641.299H544.408ZM574.389 686.516C573.344 686.516 572.528 686.124 571.94 685.341C571.417 684.558 571.254 683.612 571.45 682.503L582.13 620.55C582.26 619.767 582.587 619.147 583.109 618.69C583.632 618.234 584.285 618.005 585.069 618.005C586.114 618.005 586.898 618.397 587.421 619.18C588.008 619.898 588.204 620.811 588.008 621.92L577.329 683.971C577.198 684.754 576.871 685.374 576.349 685.831C575.826 686.287 575.173 686.516 574.389 686.516ZM540.488 668.801C539.639 668.801 538.888 668.507 538.235 667.92C537.647 667.268 537.353 666.517 537.353 665.669C537.353 664.821 537.647 664.136 538.235 663.614C538.888 663.092 539.639 662.831 540.488 662.831H589.772C590.687 662.831 591.438 663.124 592.026 663.712C592.614 664.299 592.907 665.049 592.907 665.963C592.907 666.811 592.614 667.496 592.026 668.018C591.438 668.54 590.687 668.801 589.772 668.801H540.488Z" fill="#FFD873"/>
<path d="M59.7309 686.516C58.7511 686.516 57.9672 686.124 57.3793 685.341C56.8568 684.558 56.6608 683.612 56.7915 682.503L67.4712 620.55C67.6672 619.767 68.0265 619.147 68.549 618.69C69.0716 618.234 69.6921 618.005 70.4106 618.005C71.4558 618.005 72.2396 618.397 72.7621 619.18C73.35 619.898 73.546 620.811 73.35 621.92L62.6702 683.971C62.6049 684.754 62.2783 685.374 61.6905 685.831C61.1679 686.287 60.5147 686.516 59.7309 686.516ZM55.1258 641.299C54.2113 641.299 53.4275 641.005 52.7743 640.418C52.1864 639.766 51.8925 638.983 51.8925 638.069C51.8925 637.221 52.1864 636.536 52.7743 636.014C53.4275 635.492 54.2113 635.231 55.1258 635.231H104.312C105.226 635.231 105.977 635.557 106.565 636.21C107.153 636.797 107.447 637.547 107.447 638.461C107.447 639.309 107.153 639.994 106.565 640.516C105.977 641.038 105.226 641.299 104.312 641.299H55.1258ZM85.1076 686.516C84.0625 686.516 83.246 686.124 82.6581 685.341C82.1355 684.558 81.9722 683.612 82.1682 682.503L92.848 620.55C92.9786 619.767 93.3052 619.147 93.8278 618.69C94.3503 618.234 95.0035 618.005 95.7873 618.005C96.8325 618.005 97.6163 618.397 98.1389 619.18C98.7267 619.898 98.9227 620.811 98.7267 621.92L88.047 683.971C87.9163 684.754 87.5897 685.374 87.0672 685.831C86.5446 686.287 85.8914 686.516 85.1076 686.516ZM51.2066 668.801C50.3575 668.801 49.6063 668.507 48.9531 667.92C48.3652 667.268 48.0713 666.517 48.0713 665.669C48.0713 664.821 48.3652 664.136 48.9531 663.614C49.6063 663.092 50.3575 662.831 51.2066 662.831H100.49C101.405 662.831 102.156 663.124 102.744 663.712C103.332 664.299 103.626 665.049 103.626 665.963C103.626 666.811 103.332 667.496 102.744 668.018C102.156 668.54 101.405 668.801 100.49 668.801H51.2066Z" fill="#FFD873"/>
<path d="M356.045 477.56C355.065 477.56 354.281 477.169 353.693 476.386C353.171 475.603 352.975 474.657 353.105 473.547L363.785 411.594C363.981 410.812 364.34 410.192 364.863 409.735C365.386 409.278 366.006 409.05 366.725 409.05C367.77 409.05 368.554 409.441 369.076 410.224C369.664 410.942 369.86 411.855 369.664 412.965L358.984 475.015C358.919 475.798 358.592 476.418 358.004 476.875C357.482 477.332 356.829 477.56 356.045 477.56ZM351.44 432.343C350.525 432.343 349.741 432.05 349.088 431.462C348.5 430.81 348.206 430.027 348.206 429.114C348.206 428.265 348.5 427.58 349.088 427.058C349.741 426.536 350.525 426.275 351.44 426.275H400.626C401.54 426.275 402.291 426.602 402.879 427.254C403.467 427.841 403.761 428.592 403.761 429.505C403.761 430.353 403.467 431.038 402.879 431.56C402.291 432.082 401.54 432.343 400.626 432.343H351.44ZM381.422 477.56C380.376 477.56 379.56 477.169 378.972 476.386C378.449 475.603 378.286 474.657 378.482 473.547L389.162 411.594C389.293 410.812 389.619 410.192 390.142 409.735C390.664 409.278 391.317 409.05 392.101 409.05C393.146 409.05 393.93 409.441 394.453 410.224C395.041 410.942 395.237 411.855 395.041 412.965L384.361 475.015C384.23 475.798 383.904 476.418 383.381 476.875C382.859 477.332 382.205 477.56 381.422 477.56ZM347.521 459.845C346.671 459.845 345.92 459.552 345.267 458.964C344.679 458.312 344.385 457.562 344.385 456.713C344.385 455.865 344.679 455.18 345.267 454.658C345.92 454.136 346.671 453.875 347.521 453.875H396.804C397.719 453.875 398.47 454.169 399.058 454.756C399.646 455.343 399.94 456.094 399.94 457.007C399.94 457.855 399.646 458.54 399.058 459.062C398.47 459.584 397.719 459.845 396.804 459.845H347.521Z" fill="#FFD873"/>
<path fill-rule="evenodd" clip-rule="evenodd" d="M441.149 715.053C464.32 715.053 483.104 696.269 483.104 673.098C483.104 649.927 464.32 631.143 441.149 631.143C417.978 631.143 399.194 649.927 399.194 673.098C399.194 696.269 417.978 715.053 441.149 715.053ZM441.149 722.483C468.423 722.483 490.533 700.373 490.533 673.098C490.533 645.824 468.423 623.714 441.149 623.714C413.874 623.714 391.764 645.824 391.764 673.098C391.764 700.373 413.874 722.483 441.149 722.483Z" fill="#FFD873"/>
<path fill-rule="evenodd" clip-rule="evenodd" d="M465.707 682.128C467.183 683.553 467.225 685.905 465.801 687.381C456.453 697.069 446.221 699.28 437.243 697.805C428.508 696.37 421.231 691.509 417.124 687.441C415.666 685.997 415.655 683.645 417.098 682.188C418.542 680.73 420.894 680.718 422.352 682.162C425.64 685.419 431.578 689.346 438.448 690.474C445.076 691.563 452.841 690.112 460.454 682.222C461.879 680.746 464.231 680.704 465.707 682.128Z" fill="#FFD873"/>
<path d="M431.155 661.395C431.155 663.917 429.11 665.962 426.587 665.962C424.065 665.962 422.02 663.917 422.02 661.395C422.02 658.872 424.065 656.827 426.587 656.827C429.11 656.827 431.155 658.872 431.155 661.395Z" fill="#FFD873"/>
<path d="M460.848 661.395C460.848 663.917 458.803 665.962 456.28 665.962C453.758 665.962 451.713 663.917 451.713 661.395C451.713 658.872 453.758 656.827 456.28 656.827C458.803 656.827 460.848 658.872 460.848 661.395Z" fill="#FFD873"/>
<path fill-rule="evenodd" clip-rule="evenodd" d="M207.085 456.445H286.023C291.245 456.445 295.478 460.679 295.478 465.901V506.46C295.478 511.682 291.245 515.915 286.023 515.915H207.085C201.862 515.915 197.629 511.682 197.629 506.46V465.901C197.629 460.679 201.862 456.445 207.085 456.445ZM190.199 465.901C190.199 456.575 197.759 449.016 207.085 449.016H286.023C295.348 449.016 302.908 456.575 302.908 465.901V506.46C302.908 511.342 300.836 515.74 297.523 518.823C301.806 519.694 305.635 522.206 308.136 525.896L312.248 531.962C319.849 543.174 311.817 558.322 298.272 558.322H198.981C186.94 558.322 178.769 546.08 183.387 534.961L185.906 528.895C187.816 524.295 191.61 520.864 196.173 519.347C192.519 516.249 190.199 511.625 190.199 506.46V465.901ZM201.5 525.915H294.16C297.295 525.915 300.227 527.469 301.987 530.065L306.099 536.131C310.355 542.41 305.857 550.892 298.272 550.892H198.981C192.238 550.892 187.662 544.037 190.248 537.81L192.767 531.744C194.233 528.215 197.679 525.915 201.5 525.915Z" fill="#FFD873"/>
<path d="M220.534 543.713C220.995 542.56 222.112 541.805 223.353 541.805H279.969C281.21 541.805 282.327 542.56 282.788 543.713C283.586 545.708 282.117 547.877 279.969 547.877H223.353C221.205 547.877 219.736 545.708 220.534 543.713Z" fill="#FFD873"/>
<path fill-rule="evenodd" clip-rule="evenodd" d="M390.048 575.75L392.141 590.722L409.637 575.75H481.646C486.868 575.75 491.101 571.516 491.101 566.294V519.565C491.101 514.343 486.868 510.109 481.646 510.109H380.679C375.457 510.109 371.224 514.343 371.224 519.565V566.294C371.224 571.516 375.457 575.75 380.679 575.75H390.048ZM386.661 605.19L383.585 583.179H380.679C371.354 583.179 363.794 575.619 363.794 566.294V519.565C363.794 510.24 371.354 502.68 380.679 502.68H481.646C490.971 502.68 498.531 510.24 498.531 519.565V566.294C498.531 575.619 490.971 583.179 481.646 583.179H412.382L386.661 605.19Z" fill="#FFD873"/>
<path d="M320.504 741.809C320.059 740.171 320.882 738.454 322.438 737.774L340.273 729.981C341.829 729.301 343.648 729.863 344.549 731.303C345.658 733.076 344.933 735.421 343.017 736.258L325.182 744.052C323.265 744.889 321.052 743.828 320.504 741.809Z" fill="#FFD873"/>
<path fill-rule="evenodd" clip-rule="evenodd" d="M347.896 729.773L316.586 743.455C311.8 745.546 309.616 751.12 311.707 755.906L347.791 838.485C349.882 843.27 355.457 845.454 360.242 843.363L391.552 829.682C396.338 827.591 398.522 822.016 396.431 817.231L360.347 734.652C358.256 729.867 352.681 727.682 347.896 729.773ZM313.611 736.647C305.066 740.381 301.165 750.335 304.899 758.88L340.983 841.46C344.717 850.005 354.672 853.905 363.217 850.171L394.527 836.49C403.072 832.756 406.973 822.802 403.239 814.256L367.155 731.677C363.421 723.132 353.466 719.231 344.921 722.965L313.611 736.647Z" fill="#FFD873"/>
<path fill-rule="evenodd" clip-rule="evenodd" d="M-49.2639 715.054C-26.0928 715.054 -7.30893 696.27 -7.30893 673.099C-7.30893 649.928 -26.0928 631.144 -49.2639 631.144C-72.435 631.144 -91.2189 649.928 -91.2189 673.099C-91.2189 696.27 -72.435 715.054 -49.2639 715.054ZM-49.2639 722.483C-21.9896 722.483 0.120651 700.373 0.120651 673.099C0.120651 645.825 -21.9896 623.714 -49.2639 623.714C-76.5382 623.714 -98.6484 645.825 -98.6484 673.099C-98.6484 700.373 -76.5382 722.483 -49.2639 722.483Z" fill="#FFD873"/>
<path fill-rule="evenodd" clip-rule="evenodd" d="M-100.363 575.751L-98.2705 590.723L-80.7742 575.751H-8.76753C-3.5452 575.751 0.688309 571.517 0.688309 566.295V519.566C0.688309 514.344 -3.54522 510.11 -8.76753 510.11H-109.734C-114.956 510.11 -119.19 514.344 -119.19 519.566V566.295C-119.19 571.517 -114.956 575.751 -109.734 575.751H-100.363ZM-103.75 605.191L-106.826 583.18H-109.734C-119.059 583.18 -126.619 575.62 -126.619 566.295V519.566C-126.619 510.241 -119.059 502.681 -109.734 502.681H-8.76753C0.558029 502.681 8.11789 510.241 8.11789 519.566V566.295C8.11789 575.62 0.558029 583.18 -8.76753 583.18H-78.0292L-103.75 605.191Z" fill="#FFD873"/>
<path fill-rule="evenodd" clip-rule="evenodd" d="M1048.64 276.494L1048.71 276.428C1048.78 276.358 1048.85 276.286 1048.91 276.212L1048.97 276.143L1049.03 276.081L1049.18 275.893C1049.97 274.887 1050.44 273.63 1050.44 272.244C1050.44 268.976 1047.79 266.328 1044.53 266.328C1042.58 266.328 1040.86 267.258 1039.77 268.729L1033.8 276.779L1027.83 268.729C1026.74 267.258 1025.01 266.328 1023.07 266.328C1019.8 266.328 1017.15 268.976 1017.15 272.244C1017.15 273.63 1017.62 274.887 1018.41 275.893L1018.57 276.086L1018.63 276.157L1018.69 276.22C1018.75 276.288 1018.82 276.355 1018.88 276.42L1018.94 276.481L1033.8 292.084L1048.64 276.494ZM1033.8 302.858L1013.62 281.666C1013.47 281.52 1013.33 281.37 1013.19 281.218L1012.5 280.485H1012.57C1012.56 280.471 1012.55 280.457 1012.54 280.443C1012.52 280.424 1012.51 280.405 1012.5 280.386C1010.91 278.333 1009.91 275.807 1009.75 273.056C1009.73 272.787 1009.72 272.516 1009.72 272.244C1009.72 264.873 1015.7 258.898 1023.07 258.898C1024.77 258.898 1026.4 259.216 1027.89 259.796C1030.26 260.715 1032.31 262.293 1033.8 264.304C1035.29 262.293 1037.33 260.715 1039.7 259.796C1041.2 259.216 1042.82 258.898 1044.53 258.898C1051.9 258.898 1057.87 264.873 1057.87 272.244C1057.87 272.516 1057.86 272.787 1057.85 273.056C1057.68 275.807 1056.68 278.334 1055.1 280.387C1055.08 280.406 1055.07 280.425 1055.05 280.443C1055.04 280.458 1055.03 280.471 1055.02 280.485H1055.1L1054.42 281.199C1054.27 281.364 1054.12 281.526 1053.96 281.684L1033.8 302.858Z" fill="#FFD873"/>
<path fill-rule="evenodd" clip-rule="evenodd" d="M992.593 313.128L994.685 328.099L1012.18 313.128H1084.19C1089.41 313.128 1093.65 308.894 1093.65 303.672V256.943C1093.65 251.721 1089.41 247.487 1084.19 247.487H983.224C978.001 247.487 973.768 251.721 973.768 256.943V303.672C973.768 308.894 978.001 313.128 983.224 313.128H992.593ZM989.205 342.567L986.129 320.557H983.224C973.898 320.557 966.338 312.998 966.338 303.672V256.943C966.338 247.618 973.898 240.058 983.224 240.058H1084.19C1093.52 240.058 1101.08 247.618 1101.08 256.943V303.672C1101.08 312.998 1093.52 320.557 1084.19 320.557H1014.92L989.205 342.567Z" fill="#FFD873"/>
<path fill-rule="evenodd" clip-rule="evenodd" d="M705.16 139.836L705.228 139.769C705.43 139.568 705.627 139.361 705.818 139.15L705.882 139.079L706.121 138.828L706.554 138.277C708.76 135.472 710.071 131.948 710.071 128.097C710.071 118.991 702.689 111.609 693.584 111.609C688.157 111.609 683.342 114.223 680.325 118.293L674.356 126.347L668.387 118.293C665.371 114.223 660.556 111.609 655.129 111.609C646.023 111.609 638.641 118.991 638.641 128.097C638.641 131.948 639.953 135.472 642.158 138.277L642.612 138.853L642.905 139.162L642.956 139.217C643.107 139.383 643.262 139.545 643.42 139.704L643.473 139.758L674.354 172.192L705.16 139.836ZM674.354 182.967L638.144 144.936C637.915 144.705 637.692 144.47 637.473 144.231L636.177 142.87H636.318C636.298 142.844 636.278 142.819 636.258 142.793C636.231 142.758 636.204 142.724 636.177 142.689C634.515 140.534 633.213 138.088 632.36 135.44C631.614 133.126 631.211 130.658 631.211 128.097C631.211 114.887 641.92 104.179 655.129 104.179C660.308 104.179 665.102 105.825 669.018 108.623C671.06 110.082 672.863 111.854 674.356 113.869C675.85 111.854 677.653 110.082 679.695 108.623C683.61 105.825 688.405 104.179 693.584 104.179C706.793 104.179 717.501 114.887 717.501 128.097C717.501 130.658 717.098 133.126 716.353 135.44C715.499 138.09 714.195 140.538 712.531 142.694C712.505 142.728 712.479 142.762 712.453 142.795C712.433 142.82 712.414 142.845 712.394 142.87H712.531L711.329 144.133C711.052 144.439 710.768 144.738 710.476 145.029L674.354 182.967Z" fill="#FFD873"/>
<path fill-rule="evenodd" clip-rule="evenodd" d="M978.034 403.058L978.107 402.985C978.324 402.77 978.535 402.548 978.74 402.32L978.808 402.244L979.03 402.012L979.455 401.471C981.661 398.667 982.972 395.142 982.972 391.291C982.972 382.185 975.59 374.803 966.484 374.803C961.057 374.803 956.242 377.418 953.226 381.488L947.256 389.543L941.287 381.488C938.27 377.418 933.455 374.803 928.028 374.803C918.922 374.803 911.54 382.185 911.54 391.291C911.54 395.142 912.852 398.667 915.057 401.471L915.512 402.049L915.809 402.361L915.859 402.415C916.008 402.578 916.16 402.738 916.315 402.894L916.367 402.947L947.253 435.386L978.034 403.058ZM947.253 446.161L911.037 408.124C910.812 407.897 910.592 407.666 910.377 407.431L909.076 406.064H909.217C909.197 406.039 909.177 406.013 909.157 405.987C909.13 405.952 909.103 405.918 909.076 405.883C907.414 403.728 906.112 401.282 905.259 398.634C904.513 396.32 904.11 393.853 904.11 391.291C904.11 378.082 914.819 367.373 928.028 367.373C933.207 367.373 938.002 369.02 941.918 371.818C943.96 373.277 945.763 375.049 947.256 377.064C948.75 375.049 950.552 373.277 952.594 371.818C956.51 369.02 961.305 367.373 966.484 367.373C979.694 367.373 990.402 378.081 990.402 391.291C990.402 393.853 989.999 396.32 989.253 398.634C988.399 401.285 987.095 403.734 985.43 405.891C985.404 405.924 985.379 405.957 985.353 405.991C985.334 406.015 985.314 406.04 985.295 406.064H985.43L984.26 407.293C983.964 407.622 983.658 407.943 983.344 408.255L947.253 446.161Z" fill="#FFD873"/>
<path fill-rule="evenodd" clip-rule="evenodd" d="M1047.81 -21.7875L1045.91 -9.56005C1045.89 -9.44991 1045.86 -9.34207 1045.82 -9.23866L1038.29 9.48281C1035.36 8.06587 1031.88 7.79694 1028.58 9.01487C1022.15 11.3919 1018.86 18.5322 1021.24 24.9633L1032.28 54.8278C1034.66 61.2589 1041.8 64.5454 1048.23 62.1684C1051.77 60.8584 1054.36 58.1017 1055.57 54.8142C1059.19 56.3097 1063.35 56.5008 1067.3 55.0387L1093.25 45.4475C1100.65 42.7155 1104.97 35.0325 1103.47 27.296L1098.7 2.62622C1096.81 -7.12043 1086.63 -12.8496 1077.32 -9.4078L1072.96 -7.79713L1073.48 -15.3988C1073.83 -20.501 1071.49 -25.4144 1067.31 -28.3588L1065.79 -29.4255C1062.36 -31.8384 1057.9 -32.1961 1054.13 -30.3593C1050.75 -28.7093 1048.38 -25.5075 1047.81 -21.7875ZM1037.07 17.7419C1037.17 19.2593 1037.49 20.7826 1038.04 22.2664L1046.63 45.5244C1047.21 47.0858 1048 48.5043 1048.97 49.7582C1049.33 52.1023 1048 54.4538 1045.69 55.308C1043.05 56.2846 1040.12 54.9344 1039.14 52.2922L1028.1 22.4276C1027.13 19.7854 1028.48 16.8518 1031.12 15.8752C1033.34 15.0526 1035.78 15.881 1037.07 17.7419ZM1055.56 46.1939C1057.91 48.5094 1061.47 49.3975 1064.77 48.1784L1090.72 38.5871C1094.75 37.097 1097.11 32.9062 1096.29 28.6863L1091.52 4.01656C1090.49 -1.29979 1084.94 -4.42479 1079.86 -2.54745L1064.9 2.98119L1066.18 -15.8955C1066.36 -18.4479 1065.19 -20.9058 1063.09 -22.3788L1061.58 -23.4454C1060.33 -24.3237 1058.71 -24.4539 1057.34 -23.7853C1056.1 -23.1848 1055.24 -22.0194 1055.03 -20.6654L1053.14 -8.43797C1053.03 -7.77709 1052.85 -7.1301 1052.61 -6.5096L1044.65 13.2664C1044.38 14.1143 1044.26 14.9388 1044.28 15.7243C1044.37 15.9311 1044.45 16.1415 1044.53 16.3554L1055.56 46.1939Z" fill="#FFD873"/>
<path d="M699.39 310.852C698.41 310.852 697.626 310.46 697.039 309.677C696.516 308.894 696.32 307.948 696.451 306.839L707.13 244.886C707.326 244.103 707.686 243.483 708.208 243.026C708.731 242.57 709.351 242.341 710.07 242.341C711.115 242.341 711.899 242.733 712.421 243.516C713.009 244.233 713.205 245.147 713.009 246.256L702.329 308.307C702.264 309.09 701.938 309.71 701.35 310.166C700.827 310.623 700.174 310.852 699.39 310.852ZM694.785 265.635C693.871 265.635 693.087 265.341 692.433 264.754C691.846 264.101 691.552 263.318 691.552 262.405C691.552 261.557 691.846 260.872 692.433 260.35C693.087 259.828 693.871 259.567 694.785 259.567H743.971C744.885 259.567 745.636 259.893 746.224 260.545C746.812 261.133 747.106 261.883 747.106 262.796C747.106 263.645 746.812 264.33 746.224 264.852C745.636 265.374 744.885 265.635 743.971 265.635H694.785ZM724.767 310.852C723.722 310.852 722.905 310.46 722.317 309.677C721.795 308.894 721.631 307.948 721.827 306.839L732.507 244.886C732.638 244.103 732.964 243.483 733.487 243.026C734.009 242.57 734.663 242.341 735.447 242.341C736.492 242.341 737.275 242.733 737.798 243.516C738.386 244.233 738.582 245.147 738.386 246.256L727.706 308.307C727.576 309.09 727.249 309.71 726.726 310.166C726.204 310.623 725.551 310.852 724.767 310.852ZM690.866 293.137C690.017 293.137 689.265 292.843 688.612 292.256C688.024 291.603 687.73 290.853 687.73 290.005C687.73 289.157 688.024 288.471 688.612 287.95C689.265 287.428 690.017 287.167 690.866 287.167H740.15C741.064 287.167 741.815 287.46 742.403 288.047C742.991 288.635 743.285 289.385 743.285 290.298C743.285 291.147 742.991 291.832 742.403 292.354C741.815 292.876 741.064 293.137 740.15 293.137H690.866Z" fill="#FFD873"/>
<path d="M1039.08 196.668C1038.1 196.668 1037.32 196.277 1036.73 195.494C1036.21 194.711 1036.01 193.765 1036.14 192.656L1046.82 130.703C1047.02 129.92 1047.38 129.3 1047.9 128.843C1048.42 128.387 1049.04 128.158 1049.76 128.158C1050.81 128.158 1051.59 128.55 1052.11 129.333C1052.7 130.05 1052.9 130.964 1052.7 132.073L1042.02 194.124C1041.96 194.907 1041.63 195.527 1041.04 195.983C1040.52 196.44 1039.87 196.668 1039.08 196.668ZM1034.48 151.452C1033.56 151.452 1032.78 151.158 1032.13 150.571C1031.54 149.918 1031.25 149.135 1031.25 148.222C1031.25 147.374 1031.54 146.689 1032.13 146.167C1032.78 145.645 1033.56 145.384 1034.48 145.384H1083.66C1084.58 145.384 1085.33 145.71 1085.92 146.362C1086.51 146.95 1086.8 147.7 1086.8 148.613C1086.8 149.462 1086.51 150.147 1085.92 150.669C1085.33 151.191 1084.58 151.452 1083.66 151.452H1034.48ZM1064.46 196.668C1063.41 196.668 1062.6 196.277 1062.01 195.494C1061.49 194.711 1061.32 193.765 1061.52 192.656L1072.2 130.703C1072.33 129.92 1072.66 129.3 1073.18 128.843C1073.7 128.387 1074.36 128.158 1075.14 128.158C1076.19 128.158 1076.97 128.55 1077.49 129.333C1078.08 130.05 1078.28 130.964 1078.08 132.073L1067.4 194.124C1067.27 194.907 1066.94 195.527 1066.42 195.983C1065.9 196.44 1065.24 196.668 1064.46 196.668ZM1030.56 178.954C1029.71 178.954 1028.96 178.66 1028.31 178.073C1027.72 177.42 1027.42 176.67 1027.42 175.822C1027.42 174.974 1027.72 174.288 1028.31 173.766C1028.96 173.244 1029.71 172.983 1030.56 172.983H1079.84C1080.76 172.983 1081.51 173.277 1082.1 173.864C1082.68 174.452 1082.98 175.202 1082.98 176.115C1082.98 176.964 1082.68 177.649 1082.1 178.171C1081.51 178.693 1080.76 178.954 1079.84 178.954H1030.56Z" fill="#FFD873"/>
<path fill-rule="evenodd" clip-rule="evenodd" d="M931.226 225.208C954.397 225.208 973.181 206.424 973.181 183.253C973.181 160.082 954.397 141.298 931.226 141.298C908.055 141.298 889.271 160.082 889.271 183.253C889.271 206.424 908.055 225.208 931.226 225.208ZM931.226 232.637C958.501 232.637 980.611 210.527 980.611 183.253C980.611 155.978 958.501 133.868 931.226 133.868C903.952 133.868 881.842 155.978 881.842 183.253C881.842 210.527 903.952 232.637 931.226 232.637Z" fill="#FFD873"/>
<path fill-rule="evenodd" clip-rule="evenodd" d="M955.785 192.283C957.261 193.707 957.303 196.059 955.878 197.535C946.53 207.223 936.299 209.435 927.321 207.96C918.586 206.525 911.309 201.663 907.201 197.596C905.744 196.152 905.732 193.8 907.176 192.342C908.619 190.884 910.971 190.873 912.429 192.316C915.718 195.573 921.655 199.5 928.525 200.629C935.153 201.717 942.919 200.266 950.532 192.376C951.957 190.9 954.308 190.858 955.785 192.283Z" fill="#FFD873"/>
<path d="M921.232 171.549C921.232 174.072 919.187 176.117 916.665 176.117C914.143 176.117 912.098 174.072 912.098 171.549C912.098 169.027 914.143 166.982 916.665 166.982C919.187 166.982 921.232 169.027 921.232 171.549Z" fill="#FFD873"/>
<path d="M950.925 171.549C950.925 174.072 948.88 176.117 946.358 176.117C943.835 176.117 941.791 174.072 941.791 171.549C941.791 169.027 943.835 166.982 946.358 166.982C948.88 166.982 950.925 169.027 950.925 171.549Z" fill="#FFD873"/>
<path fill-rule="evenodd" clip-rule="evenodd" d="M697.149 -33.405H776.086C781.309 -33.405 785.542 -29.1715 785.542 -23.9491V16.6095C785.542 21.8318 781.309 26.0653 776.086 26.0653H697.149C691.926 26.0653 687.693 21.8318 687.693 16.6095V-23.9492C687.693 -29.1715 691.926 -33.405 697.149 -33.405ZM680.263 -23.9492C680.263 -33.2747 687.823 -40.8346 697.149 -40.8346H776.086C785.412 -40.8346 792.972 -33.2747 792.972 -23.9491V16.6095C792.972 21.4932 790.899 25.8926 787.584 28.9756C791.866 29.8467 795.693 32.3582 798.194 36.0477L802.306 42.1136C809.907 53.3257 801.875 68.4736 788.33 68.4736H689.039C676.999 68.4736 668.827 56.232 673.445 45.1122L675.964 39.0463C677.875 34.4446 681.671 31.0131 686.237 29.4964C682.583 26.3991 680.263 21.7752 680.263 16.6095V-23.9492ZM691.558 36.0665H784.218C787.353 36.0665 790.285 37.621 792.045 40.2165L796.157 46.2824C800.413 52.5612 795.915 61.044 788.33 61.044H689.039C682.296 61.044 677.72 54.1887 680.306 47.9616L682.825 41.8958C684.291 38.3666 687.737 36.0665 691.558 36.0665Z" fill="#FFD873"/>
<path d="M710.592 53.8653C711.053 52.7126 712.169 51.9567 713.411 51.9567H770.026C771.268 51.9567 772.384 52.7126 772.845 53.8653C773.643 55.8598 772.174 58.0293 770.026 58.0293H713.411C711.263 58.0293 709.794 55.8598 710.592 53.8653Z" fill="#FFD873"/>
<path fill-rule="evenodd" clip-rule="evenodd" d="M880.122 85.9011L882.214 100.872L899.709 85.9011H971.719C976.942 85.9011 981.175 81.6676 981.175 76.4453V29.7165C981.175 24.4942 976.942 20.2607 971.719 20.2607H870.753C865.531 20.2607 861.297 24.4942 861.297 29.7165V76.4453C861.297 81.6676 865.531 85.9011 870.753 85.9011H880.122ZM876.735 115.34L873.659 93.3306H870.753C861.428 93.3306 853.868 85.7708 853.868 76.4453V29.7165C853.868 20.391 861.428 12.8311 870.753 12.8311H971.719C981.045 12.8311 988.605 20.391 988.605 29.7165V76.4453C988.605 85.7708 981.045 93.3306 971.719 93.3306H902.454L876.735 115.34Z" fill="#FFD873"/>
<path fill-rule="evenodd" clip-rule="evenodd" d="M834.592 241.402L837.974 239.925C842.76 237.834 848.334 240.018 850.425 244.803L886.509 327.382C888.6 332.168 886.416 337.742 881.631 339.833L850.321 353.515C845.535 355.606 839.961 353.421 837.87 348.636L801.786 266.057C799.695 261.271 801.879 255.697 806.664 253.606L810.565 251.902C810.57 251.921 810.575 251.941 810.58 251.961C811.128 253.98 813.341 255.041 815.258 254.203L833.093 246.41C835.01 245.572 835.735 243.228 834.625 241.454C834.614 241.437 834.603 241.42 834.592 241.402ZM794.978 269.032C791.244 260.486 795.144 250.532 803.69 246.798L835 233.117C843.545 229.383 853.499 233.283 857.233 241.828L893.317 324.407C897.051 332.953 893.151 342.907 884.606 346.641L853.296 360.323C844.75 364.057 834.796 360.156 831.062 351.611L794.978 269.032Z" fill="#FFD873"/>
<path fill-rule="evenodd" clip-rule="evenodd" d="M696.029 352.187L698.759 354.665C702.625 358.176 702.914 364.156 699.404 368.022L638.831 434.747C635.32 438.614 629.34 438.903 625.474 435.393L600.175 412.426C596.308 408.916 596.019 402.936 599.529 399.069L660.103 332.344C663.613 328.478 669.593 328.189 673.46 331.699L676.614 334.562C676.599 334.575 676.583 334.588 676.567 334.6C674.949 335.926 674.887 338.38 676.436 339.786L690.847 352.868C692.396 354.274 694.832 353.976 695.996 352.238C696.007 352.221 696.018 352.204 696.029 352.187ZM654.602 327.35C660.87 320.446 671.549 319.93 678.454 326.198L703.753 349.164C710.657 355.433 711.173 366.111 704.905 373.016L644.332 439.741C638.063 446.646 627.385 447.162 620.48 440.894L595.181 417.927C588.276 411.659 587.76 400.98 594.028 394.075L654.602 327.35Z" fill="#FFD873"/>
<path fill-rule="evenodd" clip-rule="evenodd" d="M1195.01 139.837L1195.08 139.769C1195.28 139.568 1195.48 139.361 1195.67 139.15L1195.73 139.079L1195.97 138.828L1196.4 138.277C1198.61 135.472 1199.92 131.948 1199.92 128.097C1199.92 118.991 1192.54 111.609 1183.43 111.609C1178.01 111.609 1173.19 114.223 1170.17 118.293L1164.2 126.347L1158.24 118.293C1155.22 114.223 1150.4 111.609 1144.98 111.609C1135.87 111.609 1128.49 118.991 1128.49 128.097C1128.49 131.948 1129.8 135.472 1132.01 138.277L1132.46 138.853L1132.75 139.162L1132.8 139.217C1132.96 139.383 1133.11 139.545 1133.27 139.704L1133.32 139.758L1164.2 172.192L1195.01 139.837ZM1164.2 182.967L1127.99 144.935C1127.76 144.705 1127.54 144.47 1127.32 144.231L1126.03 142.87H1126.17C1126.15 142.844 1126.13 142.819 1126.11 142.793C1126.08 142.758 1126.05 142.724 1126.03 142.689C1124.36 140.534 1123.06 138.088 1122.21 135.44C1121.46 133.126 1121.06 130.658 1121.06 128.097C1121.06 114.887 1131.77 104.179 1144.98 104.179C1150.16 104.179 1154.95 105.825 1158.87 108.623C1160.91 110.082 1162.71 111.854 1164.2 113.869C1165.7 111.854 1167.5 110.082 1169.54 108.623C1173.46 105.825 1178.25 104.179 1183.43 104.179C1196.64 104.179 1207.35 114.887 1207.35 128.097C1207.35 130.658 1206.95 133.126 1206.2 135.44C1205.35 138.09 1204.04 140.538 1202.38 142.694C1202.35 142.728 1202.33 142.762 1202.3 142.795C1202.28 142.82 1202.26 142.845 1202.24 142.87H1202.38L1201.18 144.133C1200.9 144.439 1200.62 144.738 1200.32 145.029L1164.2 182.967Z" fill="#FFD873"/>
<path d="M1189.24 310.852C1188.26 310.852 1187.48 310.46 1186.89 309.677C1186.37 308.894 1186.17 307.948 1186.3 306.839L1196.98 244.886C1197.18 244.103 1197.53 243.483 1198.06 243.026C1198.58 242.57 1199.2 242.341 1199.92 242.341C1200.96 242.341 1201.75 242.733 1202.27 243.516C1202.86 244.233 1203.05 245.147 1202.86 246.256L1192.18 308.307C1192.11 309.09 1191.79 309.71 1191.2 310.166C1190.68 310.623 1190.02 310.852 1189.24 310.852ZM1184.63 265.635C1183.72 265.635 1182.94 265.341 1182.28 264.754C1181.69 264.101 1181.4 263.318 1181.4 262.405C1181.4 261.557 1181.69 260.872 1182.28 260.35C1182.94 259.828 1183.72 259.567 1184.63 259.567H1233.82C1234.73 259.567 1235.49 259.893 1236.07 260.545C1236.66 261.133 1236.96 261.883 1236.96 262.796C1236.96 263.645 1236.66 264.33 1236.07 264.852C1235.49 265.374 1234.73 265.635 1233.82 265.635H1184.63ZM1214.62 310.852C1213.57 310.852 1212.75 310.46 1212.17 309.677C1211.64 308.894 1211.48 307.948 1211.68 306.839L1222.36 244.886C1222.49 244.103 1222.81 243.483 1223.34 243.026C1223.86 242.57 1224.51 242.341 1225.3 242.341C1226.34 242.341 1227.12 242.733 1227.65 243.516C1228.24 244.233 1228.43 245.147 1228.24 246.256L1217.56 308.307C1217.42 309.09 1217.1 309.71 1216.58 310.166C1216.05 310.623 1215.4 310.852 1214.62 310.852ZM1180.71 293.137C1179.87 293.137 1179.11 292.843 1178.46 292.256C1177.87 291.603 1177.58 290.853 1177.58 290.005C1177.58 289.157 1177.87 288.471 1178.46 287.95C1179.11 287.428 1179.87 287.167 1180.71 287.167H1230C1230.91 287.167 1231.66 287.46 1232.25 288.047C1232.84 288.635 1233.13 289.385 1233.13 290.298C1233.13 291.147 1232.84 291.832 1232.25 292.354C1231.66 292.876 1230.91 293.137 1230 293.137H1180.71Z" fill="#FFD873"/>
<path fill-rule="evenodd" clip-rule="evenodd" d="M1265.95 -33.4054H1187.01C1181.79 -33.4054 1177.55 -29.1719 1177.55 -23.9496V16.609C1177.55 21.8313 1181.79 26.0649 1187.01 26.0649H1265.95C1271.17 26.0649 1275.4 21.8314 1275.4 16.6091V-23.9496C1275.4 -29.1719 1271.17 -33.4054 1265.95 -33.4054ZM1187.01 -40.835C1177.68 -40.835 1170.12 -33.2752 1170.12 -23.9496V16.609C1170.12 21.7753 1172.45 26.3997 1176.1 29.497C1171.54 31.0142 1167.74 34.4453 1165.83 39.0461L1163.31 45.112C1158.69 56.2318 1166.86 68.4734 1178.9 68.4734H1278.2C1291.74 68.4734 1299.77 53.3255 1292.17 42.1134L1288.06 36.0475C1285.56 32.357 1281.73 29.8452 1277.45 28.9747C1280.76 25.8917 1282.83 21.4925 1282.83 16.6091V-23.9496C1282.83 -33.2752 1275.27 -40.835 1265.95 -40.835H1187.01ZM1274.08 36.0662H1181.42C1177.6 36.0662 1174.16 38.3664 1172.69 41.8955L1170.17 47.9614C1167.59 54.1885 1172.16 61.0438 1178.9 61.0438H1278.2C1285.78 61.0438 1290.28 52.561 1286.02 46.2822L1281.91 40.2163C1280.15 37.6207 1277.22 36.0662 1274.08 36.0662ZM1203.28 51.9564C1202.04 51.9564 1200.92 52.7123 1200.46 53.8651C1199.66 55.8596 1201.13 58.0291 1203.28 58.0291H1259.89C1262.04 58.0291 1263.51 55.8596 1262.71 53.8651C1262.25 52.7123 1261.13 51.9564 1259.89 51.9564H1203.28Z" fill="#FFD873"/>
<path fill-rule="evenodd" clip-rule="evenodd" d="M1369.97 85.9008L1372.06 100.872L1389.56 85.9008H1461.57C1466.79 85.9008 1471.02 81.6673 1471.02 76.445V29.7163C1471.02 24.494 1466.79 20.2605 1461.57 20.2605H1360.6C1355.38 20.2605 1351.15 24.494 1351.15 29.7163V76.445C1351.15 81.6673 1355.38 85.9008 1360.6 85.9008H1369.97ZM1366.59 115.34L1363.51 93.3304H1360.6C1351.28 93.3304 1343.72 85.7705 1343.72 76.445V29.7163C1343.72 20.3907 1351.28 12.8309 1360.6 12.8309H1461.57C1470.89 12.8309 1478.45 20.3907 1478.45 29.7163V76.445C1478.45 85.7706 1470.89 93.3304 1461.57 93.3304H1392.31L1366.59 115.34Z" fill="#FFD873"/>
<path fill-rule="evenodd" clip-rule="evenodd" d="M1324.44 241.402L1327.82 239.925C1332.6 237.834 1338.18 240.018 1340.27 244.803L1376.35 327.383C1378.44 332.168 1376.26 337.742 1371.47 339.833L1340.16 353.515C1335.38 355.606 1329.8 353.422 1327.71 348.636L1291.63 266.057C1289.54 261.272 1291.72 255.697 1296.51 253.606L1300.41 251.901C1300.42 251.921 1300.42 251.941 1300.43 251.961C1300.97 253.98 1303.19 255.041 1305.1 254.203L1322.94 246.41C1324.86 245.572 1325.58 243.227 1324.47 241.454C1324.46 241.437 1324.45 241.419 1324.44 241.402ZM1284.82 269.032C1281.09 260.487 1284.99 250.532 1293.53 246.798L1324.84 233.117C1333.39 229.383 1343.34 233.283 1347.08 241.829L1383.16 324.408C1386.9 332.953 1382.99 342.907 1374.45 346.641L1343.14 360.323C1334.59 364.057 1324.64 360.156 1320.91 351.611L1284.82 269.032Z" fill="#FFD873"/>
<path fill-rule="evenodd" clip-rule="evenodd" d="M1185.88 352.187L1188.61 354.665C1192.48 358.176 1192.77 364.156 1189.26 368.022L1128.68 434.747C1125.17 438.614 1119.19 438.903 1115.32 435.393L1090.03 412.426C1086.16 408.916 1085.87 402.936 1089.38 399.069L1149.95 332.344C1153.46 328.478 1159.44 328.189 1163.31 331.699L1166.47 334.562C1166.45 334.575 1166.43 334.587 1166.42 334.6C1164.8 335.926 1164.74 338.38 1166.29 339.786L1180.7 352.868C1182.25 354.274 1184.68 353.976 1185.85 352.238C1185.86 352.221 1185.87 352.204 1185.88 352.187ZM1144.45 327.35C1150.72 320.446 1161.4 319.93 1168.3 326.198L1193.6 349.165C1200.51 355.433 1201.02 366.112 1194.76 373.016L1134.18 439.741C1127.91 446.646 1117.24 447.162 1110.33 440.894L1085.03 417.927C1078.13 411.659 1077.61 400.98 1083.88 394.075L1144.45 327.35Z" fill="#FFD873"/>
<path fill-rule="evenodd" clip-rule="evenodd" d="M1048.68 766.306L1048.73 766.254C1048.79 766.198 1048.84 766.14 1048.9 766.082L1048.95 766.027L1049.03 765.941L1049.19 765.741C1049.98 764.734 1050.45 763.477 1050.45 762.091C1050.45 758.824 1047.8 756.175 1044.53 756.175C1042.59 756.175 1040.86 757.105 1039.77 758.576L1033.8 766.627L1027.83 758.576C1026.74 757.105 1025.02 756.175 1023.07 756.175C1019.81 756.175 1017.16 758.824 1017.16 762.091C1017.16 763.477 1017.63 764.734 1018.42 765.741L1018.56 765.923L1018.61 765.978L1018.68 766.051C1018.75 766.13 1018.82 766.208 1018.9 766.283L1018.97 766.353L1033.8 781.931L1048.68 766.306ZM1033.8 792.706L1013.66 771.548C1013.49 771.379 1013.32 771.206 1013.16 771.029L1012.5 770.333H1012.58C1012.57 770.319 1012.56 770.305 1012.55 770.291C1012.53 770.273 1012.52 770.254 1012.5 770.235C1010.92 768.182 1009.92 765.655 1009.75 762.903C1009.74 762.635 1009.73 762.364 1009.73 762.091C1009.73 754.72 1015.7 748.746 1023.07 748.746C1024.77 748.746 1026.4 749.064 1027.9 749.643C1030.27 750.562 1032.31 752.14 1033.8 754.151C1035.29 752.14 1037.34 750.562 1039.71 749.643C1041.2 749.064 1042.83 748.746 1044.53 748.746C1051.9 748.746 1057.87 754.72 1057.87 762.091C1057.87 762.364 1057.87 762.635 1057.85 762.903C1057.69 765.654 1056.69 768.179 1055.11 770.231C1055.09 770.251 1055.07 770.27 1055.06 770.29C1055.05 770.304 1055.04 770.319 1055.03 770.333H1055.11L1054.38 771.097C1054.26 771.228 1054.14 771.357 1054.01 771.483L1033.8 792.706Z" fill="#FFD873"/>
<path fill-rule="evenodd" clip-rule="evenodd" d="M992.593 802.976L994.686 817.947L1012.18 802.976H1084.19C1089.41 802.976 1093.65 798.742 1093.65 793.52V746.791C1093.65 741.569 1089.41 737.335 1084.19 737.335H983.224C978.002 737.335 973.768 741.569 973.768 746.791V793.52C973.768 798.742 978.002 802.976 983.224 802.976H992.593ZM989.206 832.415L986.13 810.405H983.224C973.899 810.405 966.339 802.846 966.339 793.52V746.791C966.339 737.466 973.899 729.906 983.224 729.906H1084.19C1093.52 729.906 1101.08 737.466 1101.08 746.791V793.52C1101.08 802.846 1093.52 810.405 1084.19 810.405H1014.93L989.206 832.415Z" fill="#FFD873"/>
<path fill-rule="evenodd" clip-rule="evenodd" d="M1195.01 629.684L1195.08 629.617C1195.28 629.415 1195.48 629.208 1195.67 628.997L1195.73 628.926L1195.97 628.675L1196.4 628.124C1198.61 625.32 1199.92 621.795 1199.92 617.944C1199.92 608.838 1192.54 601.457 1183.43 601.457C1178.01 601.457 1173.19 604.071 1170.17 608.141L1164.2 616.194L1158.24 608.141C1155.22 604.071 1150.4 601.457 1144.98 601.457C1135.87 601.457 1128.49 608.838 1128.49 617.944C1128.49 621.795 1129.8 625.32 1132.01 628.124L1132.46 628.7L1132.75 629.009L1132.8 629.065C1132.96 629.23 1133.11 629.392 1133.27 629.552L1133.32 629.605L1164.2 662.039L1195.01 629.684ZM1164.2 672.814L1127.99 634.783C1127.76 634.553 1127.54 634.318 1127.32 634.078L1126.03 632.717H1126.17C1126.15 632.692 1126.13 632.666 1126.11 632.64C1126.08 632.606 1126.05 632.571 1126.03 632.536C1124.36 630.381 1123.06 627.935 1122.21 625.287C1121.46 622.974 1121.06 620.506 1121.06 617.944C1121.06 604.735 1131.77 594.027 1144.98 594.027C1150.16 594.027 1154.95 595.673 1158.87 598.47C1160.91 599.929 1162.71 601.701 1164.2 603.716C1165.7 601.701 1167.5 599.929 1169.54 598.47C1173.46 595.673 1178.25 594.027 1183.43 594.027C1196.64 594.027 1207.35 604.735 1207.35 617.944C1207.35 620.506 1206.95 622.974 1206.2 625.287C1205.35 627.937 1204.04 630.385 1202.38 632.542C1202.35 632.575 1202.33 632.609 1202.3 632.643C1202.28 632.668 1202.26 632.693 1202.24 632.717H1202.38L1201.18 633.98C1200.9 634.286 1200.62 634.585 1200.32 634.877L1164.2 672.814Z" fill="#FFD873"/>
<path fill-rule="evenodd" clip-rule="evenodd" d="M1267.26 634.171C1267.63 631.929 1266.46 629.637 1264.28 628.679C1261.7 627.543 1258.69 628.712 1257.56 631.29L1244.72 660.428C1243.59 663.006 1244.76 666.017 1247.33 667.152C1249.59 668.146 1252.18 667.374 1253.55 665.436C1253.73 663.869 1254.15 662.301 1254.82 660.781L1264.81 638.089C1265.45 636.644 1266.28 635.33 1267.26 634.171ZM1254.78 673.669C1251.62 675.188 1247.84 675.369 1244.39 673.845C1238.11 671.082 1235.27 663.755 1238.03 657.48L1250.86 628.342C1253.63 622.068 1260.95 619.221 1267.23 621.985C1270.44 623.402 1272.76 626.017 1273.88 629.075L1292.31 620.858C1292.41 620.812 1292.51 620.755 1292.59 620.688L1302.46 613.221C1305.46 610.949 1309.39 610.29 1312.97 611.458C1316.95 612.757 1319.91 616.121 1320.7 620.237L1321.04 622.057C1322 627.081 1320.27 632.24 1316.47 635.665L1310.81 640.768L1315.07 642.643C1324.15 646.645 1327.48 657.839 1322.06 666.155L1308.34 687.206C1304.04 693.807 1295.59 696.321 1288.37 693.145L1263.06 681.993C1259.19 680.292 1256.33 677.257 1254.78 673.669ZM1260.76 667.458C1260.84 670.76 1262.78 673.881 1266 675.3L1291.32 686.451C1295.26 688.184 1299.87 686.813 1302.21 683.212L1315.93 662.161C1318.89 657.625 1317.08 651.519 1312.12 649.336L1297.52 642.906L1311.57 630.234C1313.47 628.521 1314.34 625.94 1313.86 623.427L1313.51 621.607C1313.23 620.108 1312.15 618.884 1310.7 618.411C1309.4 617.986 1307.97 618.226 1306.88 619.053L1297.01 626.52C1296.48 626.924 1295.9 627.265 1295.29 627.537L1275.82 636.219C1275.03 636.637 1274.38 637.148 1273.84 637.725C1273.76 637.935 1273.68 638.143 1273.59 638.351L1260.76 667.458Z" fill="#FFD873"/>
<path fill-rule="evenodd" clip-rule="evenodd" d="M1046.66 468.065L1044.77 480.292C1044.75 480.403 1044.72 480.51 1044.68 480.614L1037.15 499.334C1034.22 497.916 1030.73 497.646 1027.44 498.865C1021.01 501.242 1017.72 508.382 1020.1 514.813L1031.14 544.678C1033.51 551.109 1040.65 554.395 1047.08 552.018C1050.63 550.708 1053.22 547.952 1054.43 544.666C1058.04 546.162 1062.21 546.354 1066.16 544.891L1092.11 535.3C1099.5 532.568 1103.83 524.885 1102.33 517.148L1097.55 492.479C1095.67 482.732 1085.49 477.003 1076.18 480.445L1071.82 482.055L1072.34 474.454C1072.69 469.351 1070.34 464.438 1066.16 461.494L1064.65 460.427C1061.22 458.014 1056.75 457.656 1052.99 459.493C1049.6 461.143 1047.24 464.345 1046.66 468.065ZM1035.93 507.594C1036.03 509.112 1036.35 510.635 1036.9 512.119L1045.49 535.377C1046.07 536.937 1046.86 538.355 1047.82 539.608C1048.18 541.952 1046.86 544.304 1044.55 545.158C1041.91 546.134 1038.97 544.784 1038 542.142L1026.96 512.277C1025.98 509.635 1027.33 506.702 1029.97 505.725C1032.2 504.902 1034.63 505.732 1035.93 507.594ZM1054.42 536.045C1056.77 538.361 1060.33 539.25 1063.63 538.031L1089.58 528.44C1093.61 526.949 1095.97 522.759 1095.15 518.539L1090.37 493.869C1089.34 488.553 1083.79 485.428 1078.71 487.305L1063.76 492.834L1065.04 473.957C1065.22 471.405 1064.04 468.947 1061.95 467.474L1060.44 466.407C1059.19 465.529 1057.56 465.399 1056.19 466.067C1054.96 466.668 1054.1 467.833 1053.89 469.187L1051.99 481.414C1051.89 482.075 1051.71 482.722 1051.46 483.343L1043.51 503.119C1043.23 503.967 1043.12 504.793 1043.14 505.579C1043.22 505.784 1043.31 505.993 1043.39 506.205L1054.42 536.045Z" fill="#FFD873"/>
<path d="M1189.24 800.7C1188.26 800.7 1187.48 800.308 1186.89 799.525C1186.37 798.742 1186.17 797.796 1186.3 796.687L1196.98 734.734C1197.18 733.951 1197.53 733.331 1198.06 732.875C1198.58 732.418 1199.2 732.189 1199.92 732.189C1200.96 732.189 1201.75 732.581 1202.27 733.364C1202.86 734.082 1203.05 734.995 1202.86 736.104L1192.18 798.155C1192.11 798.938 1191.79 799.558 1191.2 800.015C1190.68 800.471 1190.02 800.7 1189.24 800.7ZM1184.63 755.483C1183.72 755.483 1182.94 755.189 1182.28 754.602C1181.69 753.95 1181.4 753.167 1181.4 752.253C1181.4 751.405 1181.69 750.72 1182.28 750.198C1182.94 749.676 1183.72 749.415 1184.63 749.415H1233.82C1234.73 749.415 1235.49 749.741 1236.07 750.394C1236.66 750.981 1236.96 751.731 1236.96 752.645C1236.96 753.493 1236.66 754.178 1236.07 754.7C1235.49 755.222 1234.73 755.483 1233.82 755.483H1184.63ZM1214.62 800.7C1213.57 800.7 1212.75 800.308 1212.17 799.525C1211.64 798.742 1211.48 797.796 1211.68 796.687L1222.36 734.734C1222.49 733.951 1222.81 733.331 1223.34 732.875C1223.86 732.418 1224.51 732.189 1225.3 732.189C1226.34 732.189 1227.12 732.581 1227.65 733.364C1228.24 734.082 1228.43 734.995 1228.24 736.104L1217.56 798.155C1217.42 798.938 1217.1 799.558 1216.58 800.015C1216.05 800.471 1215.4 800.7 1214.62 800.7ZM1180.71 782.985C1179.87 782.985 1179.11 782.691 1178.46 782.104C1177.87 781.452 1177.58 780.701 1177.58 779.853C1177.58 779.005 1177.87 778.32 1178.46 777.798C1179.11 777.276 1179.87 777.015 1180.71 777.015H1230C1230.91 777.015 1231.66 777.308 1232.25 777.896C1232.84 778.483 1233.13 779.233 1233.13 780.147C1233.13 780.995 1232.84 781.68 1232.25 782.202C1231.66 782.724 1230.91 782.985 1230 782.985H1180.71Z" fill="#FFD873"/>
<path d="M1039.66 686.515C1038.68 686.515 1037.89 686.124 1037.31 685.341C1036.78 684.558 1036.59 683.612 1036.72 682.502L1047.4 620.55C1047.59 619.767 1047.95 619.147 1048.47 618.69C1049 618.233 1049.62 618.005 1050.34 618.005C1051.38 618.005 1052.17 618.396 1052.69 619.179C1053.28 619.897 1053.47 620.811 1053.28 621.92L1042.6 683.971C1042.53 684.754 1042.2 685.373 1041.62 685.83C1041.09 686.287 1040.44 686.515 1039.66 686.515ZM1035.05 641.298C1034.14 641.298 1033.35 641.005 1032.7 640.418C1032.11 639.765 1031.82 638.982 1031.82 638.069C1031.82 637.22 1032.11 636.535 1032.7 636.013C1033.35 635.491 1034.14 635.23 1035.05 635.23H1084.24C1085.15 635.23 1085.9 635.557 1086.49 636.209C1087.08 636.796 1087.37 637.547 1087.37 638.46C1087.37 639.308 1087.08 639.993 1086.49 640.515C1085.9 641.037 1085.15 641.298 1084.24 641.298H1035.05ZM1065.03 686.515C1063.99 686.515 1063.17 686.124 1062.58 685.341C1062.06 684.558 1061.9 683.612 1062.09 682.502L1072.77 620.55C1072.9 619.767 1073.23 619.147 1073.75 618.69C1074.28 618.233 1074.93 618.005 1075.71 618.005C1076.76 618.005 1077.54 618.396 1078.06 619.179C1078.65 619.897 1078.85 620.811 1078.65 621.92L1067.97 683.971C1067.84 684.754 1067.52 685.373 1066.99 685.83C1066.47 686.287 1065.82 686.515 1065.03 686.515ZM1031.13 668.8C1030.28 668.8 1029.53 668.507 1028.88 667.92C1028.29 667.267 1028 666.517 1028 665.669C1028 664.82 1028.29 664.135 1028.88 663.613C1029.53 663.091 1030.28 662.83 1031.13 662.83H1080.42C1081.33 662.83 1082.08 663.124 1082.67 663.711C1083.26 664.298 1083.55 665.049 1083.55 665.962C1083.55 666.81 1083.26 667.495 1082.67 668.017C1082.08 668.539 1081.33 668.8 1080.42 668.8H1031.13Z" fill="#FFD873"/>
<path d="M1335.97 477.56C1334.99 477.56 1334.21 477.169 1333.62 476.386C1333.09 475.603 1332.9 474.657 1333.03 473.547L1343.71 411.595C1343.91 410.812 1344.26 410.192 1344.79 409.735C1345.31 409.278 1345.93 409.05 1346.65 409.05C1347.69 409.05 1348.48 409.441 1349 410.224C1349.59 410.942 1349.78 411.856 1349.59 412.965L1338.91 475.016C1338.84 475.799 1338.52 476.418 1337.93 476.875C1337.41 477.332 1336.75 477.56 1335.97 477.56ZM1331.36 432.343C1330.45 432.343 1329.67 432.05 1329.01 431.463C1328.42 430.81 1328.13 430.027 1328.13 429.114C1328.13 428.265 1328.42 427.58 1329.01 427.058C1329.67 426.536 1330.45 426.275 1331.36 426.275H1380.55C1381.46 426.275 1382.22 426.602 1382.8 427.254C1383.39 427.841 1383.68 428.592 1383.68 429.505C1383.68 430.353 1383.39 431.038 1382.8 431.56C1382.22 432.082 1381.46 432.343 1380.55 432.343H1331.36ZM1361.35 477.56C1360.3 477.56 1359.48 477.169 1358.9 476.386C1358.37 475.603 1358.21 474.657 1358.41 473.547L1369.09 411.595C1369.22 410.812 1369.54 410.192 1370.07 409.735C1370.59 409.278 1371.24 409.05 1372.03 409.05C1373.07 409.05 1373.85 409.441 1374.38 410.224C1374.96 410.942 1375.16 411.856 1374.96 412.965L1364.28 475.016C1364.15 475.799 1363.83 476.418 1363.3 476.875C1362.78 477.332 1362.13 477.56 1361.35 477.56ZM1327.44 459.845C1326.6 459.845 1325.84 459.552 1325.19 458.965C1324.6 458.312 1324.31 457.562 1324.31 456.713C1324.31 455.865 1324.6 455.18 1325.19 454.658C1325.84 454.136 1326.6 453.875 1327.44 453.875H1376.73C1377.64 453.875 1378.39 454.169 1378.98 454.756C1379.57 455.343 1379.86 456.094 1379.86 457.007C1379.86 457.855 1379.57 458.54 1378.98 459.062C1378.39 459.584 1377.64 459.845 1376.73 459.845H1327.44Z" fill="#FFD873"/>
<path fill-rule="evenodd" clip-rule="evenodd" d="M1265.95 456.444H1187.01C1181.79 456.444 1177.55 460.678 1177.55 465.9V506.459C1177.55 511.681 1181.79 515.915 1187.01 515.915H1265.95C1271.17 515.915 1275.4 511.681 1275.4 506.459V465.9C1275.4 460.678 1271.17 456.444 1265.95 456.444ZM1187.01 449.015C1177.68 449.015 1170.12 456.575 1170.12 465.9V506.459C1170.12 511.624 1172.44 516.248 1176.1 519.346C1171.53 520.863 1167.74 524.294 1165.83 528.894L1163.31 534.96C1158.69 546.08 1166.86 558.321 1178.9 558.321H1278.2C1291.74 558.321 1299.77 543.173 1292.17 531.961L1288.06 525.895C1285.56 522.205 1281.73 519.694 1277.45 518.823C1280.76 515.74 1282.83 511.342 1282.83 506.459V465.9C1282.83 456.575 1275.27 449.015 1265.95 449.015H1187.01ZM1274.08 525.914H1181.42C1177.6 525.914 1174.16 528.214 1172.69 531.743L1170.17 537.809C1167.59 544.036 1172.16 550.892 1178.9 550.892H1278.2C1285.78 550.892 1290.28 542.409 1286.02 536.13L1281.91 530.064C1280.15 527.469 1277.22 525.914 1274.08 525.914ZM1203.28 541.804C1202.04 541.804 1200.92 542.56 1200.46 543.712C1199.66 545.707 1201.13 547.876 1203.28 547.876H1259.89C1262.04 547.876 1263.51 545.707 1262.71 543.712C1262.25 542.56 1261.13 541.804 1259.89 541.804H1203.28Z" fill="#FFD873"/>
<path fill-rule="evenodd" clip-rule="evenodd" d="M1369.97 575.75L1372.06 590.723L1389.56 575.75H1461.57C1466.79 575.75 1471.02 571.517 1471.02 566.294V519.565C1471.02 514.343 1466.79 510.11 1461.57 510.11H1360.6C1355.38 510.11 1351.15 514.343 1351.15 519.565V566.294C1351.15 571.517 1355.38 575.75 1360.6 575.75H1369.97ZM1366.59 605.191L1363.51 583.18H1360.6C1351.28 583.18 1343.72 575.62 1343.72 566.294V519.565C1343.72 510.24 1351.28 502.68 1360.6 502.68H1461.57C1470.89 502.68 1478.45 510.24 1478.45 519.565V566.294C1478.45 575.62 1470.89 583.18 1461.57 583.18H1392.31L1366.59 605.191Z" fill="#FFD873"/>
<path fill-rule="evenodd" clip-rule="evenodd" d="M1324.44 731.25L1327.82 729.773C1332.6 727.682 1338.18 729.867 1340.27 734.652L1376.35 817.231C1378.44 822.016 1376.26 827.591 1371.47 829.682L1340.16 843.363C1335.38 845.454 1329.8 843.27 1327.71 838.485L1291.63 755.906C1289.54 751.12 1291.72 745.546 1296.51 743.455L1300.41 741.75C1300.41 741.77 1300.42 741.789 1300.43 741.809C1300.97 743.828 1303.19 744.889 1305.1 744.051L1322.94 736.258C1324.85 735.421 1325.58 733.076 1324.47 731.303C1324.46 731.285 1324.45 731.268 1324.44 731.25ZM1284.82 758.88C1281.09 750.335 1284.99 740.381 1293.53 736.647L1324.84 722.965C1333.39 719.231 1343.34 723.132 1347.08 731.677L1383.16 814.256C1386.89 822.802 1382.99 832.756 1374.45 836.49L1343.14 850.171C1334.59 853.905 1324.64 850.005 1320.91 841.46L1284.82 758.88Z" fill="#FFD873"/>
<path fill-rule="evenodd" clip-rule="evenodd" d="M704.591 629.685L704.658 629.618C704.86 629.416 705.057 629.21 705.248 628.998L705.312 628.927L705.551 628.676L705.984 628.125C708.19 625.321 709.501 621.797 709.501 617.945C709.501 608.84 702.12 601.458 693.014 601.458C687.587 601.458 682.772 604.072 679.756 608.142L673.787 616.196L667.817 608.142C664.801 604.072 659.986 601.458 654.559 601.458C645.453 601.458 638.072 608.839 638.072 617.945C638.072 621.797 639.383 625.321 641.589 628.125L642.041 628.701L642.332 629.007L642.384 629.063C642.537 629.23 642.693 629.395 642.853 629.556L642.906 629.61L673.785 662.04L704.591 629.685ZM673.785 672.815L637.578 634.788C637.347 634.555 637.12 634.317 636.899 634.075L635.607 632.719H635.748C635.728 632.693 635.708 632.667 635.688 632.642C635.661 632.607 635.634 632.572 635.607 632.538C633.946 630.383 632.643 627.936 631.79 625.289C631.044 622.975 630.642 620.507 630.642 617.945C630.642 604.736 641.35 594.028 654.559 594.028C659.738 594.028 664.533 595.674 668.448 598.471C670.49 599.93 672.293 601.703 673.787 603.718C675.28 601.703 677.083 599.93 679.125 598.471C683.041 595.674 687.835 594.028 693.014 594.028C706.223 594.028 716.931 604.736 716.931 617.945C716.931 620.507 716.529 622.975 715.783 625.289C714.929 627.939 713.625 630.387 711.962 632.543C711.936 632.577 711.909 632.61 711.883 632.644C711.864 632.669 711.844 632.694 711.825 632.719H711.962L710.759 633.982C710.482 634.288 710.198 634.586 709.906 634.878L673.785 672.815Z" fill="#FFD873"/>
<path fill-rule="evenodd" clip-rule="evenodd" d="M802.182 620.686C802.093 620.754 801.997 620.81 801.895 620.856L783.468 629.073C782.347 626.016 780.032 623.401 776.816 621.984C770.542 619.221 763.215 622.067 760.451 628.341L747.617 657.479C744.853 663.754 747.699 671.081 753.974 673.845C757.432 675.368 761.21 675.187 764.367 673.668C765.922 677.256 768.782 680.29 772.643 681.991L797.961 693.143C805.173 696.319 813.624 693.806 817.927 687.204L831.649 666.154C837.07 657.837 833.74 646.643 824.655 642.641L820.399 640.767L826.057 635.663C829.855 632.238 831.589 627.079 830.631 622.055L830.285 620.236C829.5 616.119 826.538 612.755 822.554 611.456C818.975 610.289 815.051 610.947 812.049 613.219L802.182 620.686ZM776.847 634.169C775.865 635.328 775.036 636.642 774.399 638.087L764.404 660.779C763.734 662.3 763.319 663.868 763.139 665.436C761.767 667.373 759.179 668.145 756.922 667.151C754.344 666.016 753.175 663.005 754.31 660.427L767.145 631.29C768.28 628.712 771.29 627.542 773.868 628.678C776.043 629.636 777.215 631.928 776.847 634.169ZM770.352 667.458C770.427 670.759 772.37 673.879 775.591 675.298L800.909 686.449C804.843 688.182 809.453 686.811 811.8 683.21L825.522 662.16C828.479 657.623 826.663 651.517 821.707 649.335L807.109 642.905L821.159 630.232C823.058 628.519 823.926 625.938 823.447 623.425L823.1 621.605C822.814 620.107 821.736 618.882 820.286 618.409C818.983 617.985 817.555 618.224 816.463 619.051L806.596 626.518C806.063 626.922 805.485 627.263 804.874 627.536L785.407 636.217C784.62 636.635 783.963 637.146 783.43 637.722C783.35 637.933 783.265 638.142 783.173 638.35L770.352 667.458Z" fill="#FFD873"/>
<path d="M698.824 800.7C697.844 800.7 697.06 800.308 696.473 799.525C695.95 798.742 695.754 797.796 695.885 796.687L706.565 734.734C706.76 733.951 707.12 733.331 707.642 732.875C708.165 732.418 708.785 732.189 709.504 732.189C710.549 732.189 711.333 732.581 711.855 733.364C712.443 734.082 712.639 734.995 712.443 736.104L701.764 798.155C701.698 798.938 701.372 799.558 700.784 800.015C700.261 800.471 699.608 800.7 698.824 800.7ZM694.219 755.483C693.305 755.483 692.521 755.189 691.868 754.602C691.28 753.95 690.986 753.167 690.986 752.253C690.986 751.405 691.28 750.72 691.868 750.198C692.521 749.676 693.305 749.415 694.219 749.415H743.405C744.319 749.415 745.07 749.741 745.658 750.394C746.246 750.981 746.54 751.731 746.54 752.645C746.54 753.493 746.246 754.178 745.658 754.7C745.07 755.222 744.319 755.483 743.405 755.483H694.219ZM724.201 800.7C723.156 800.7 722.339 800.308 721.751 799.525C721.229 798.742 721.065 797.796 721.261 796.687L731.941 734.734C732.072 733.951 732.398 733.331 732.921 732.875C733.444 732.418 734.097 732.189 734.881 732.189C735.926 732.189 736.71 732.581 737.232 733.364C737.82 734.082 738.016 734.995 737.82 736.104L727.14 798.155C727.01 798.938 726.683 799.558 726.16 800.015C725.638 800.471 724.985 800.7 724.201 800.7ZM690.3 782.985C689.451 782.985 688.7 782.691 688.046 782.104C687.458 781.452 687.165 780.701 687.165 779.853C687.165 779.005 687.458 778.32 688.046 777.798C688.7 777.276 689.451 777.015 690.3 777.015H739.584C740.498 777.015 741.249 777.308 741.837 777.896C742.425 778.483 742.719 779.233 742.719 780.147C742.719 780.995 742.425 781.68 741.837 782.202C741.249 782.724 740.498 782.985 739.584 782.985H690.3Z" fill="#FFD873"/>
<path d="M845.548 477.56C844.568 477.56 843.784 477.169 843.196 476.386C842.674 475.603 842.478 474.657 842.608 473.547L853.288 411.595C853.484 410.812 853.843 410.192 854.366 409.735C854.888 409.278 855.509 409.05 856.228 409.05C857.273 409.05 858.056 409.441 858.579 410.224C859.167 410.942 859.363 411.856 859.167 412.965L848.487 475.016C848.422 475.799 848.095 476.418 847.507 476.875C846.985 477.332 846.332 477.56 845.548 477.56ZM840.943 432.343C840.028 432.343 839.244 432.05 838.591 431.463C838.003 430.81 837.709 430.027 837.709 429.114C837.709 428.265 838.003 427.58 838.591 427.058C839.244 426.536 840.028 426.275 840.943 426.275H890.128C891.043 426.275 891.794 426.602 892.382 427.254C892.97 427.841 893.264 428.592 893.264 429.505C893.264 430.353 892.97 431.038 892.382 431.56C891.794 432.082 891.043 432.343 890.128 432.343H840.943ZM870.924 477.56C869.879 477.56 869.063 477.169 868.475 476.386C867.952 475.603 867.789 474.657 867.985 473.547L878.665 411.595C878.795 410.812 879.122 410.192 879.645 409.735C880.167 409.278 880.82 409.05 881.604 409.05C882.649 409.05 883.433 409.441 883.956 410.224C884.544 410.942 884.74 411.856 884.544 412.965L873.864 475.016C873.733 475.799 873.407 476.418 872.884 476.875C872.362 477.332 871.708 477.56 870.924 477.56ZM837.024 459.845C836.174 459.845 835.423 459.552 834.77 458.965C834.182 458.312 833.888 457.562 833.888 456.713C833.888 455.865 834.182 455.18 834.77 454.658C835.423 454.136 836.174 453.875 837.024 453.875H886.307C887.222 453.875 887.973 454.169 888.561 454.756C889.149 455.343 889.443 456.094 889.443 457.007C889.443 457.855 889.149 458.54 888.561 459.062C887.973 459.584 887.222 459.845 886.307 459.845H837.024Z" fill="#FFD873"/>
<path fill-rule="evenodd" clip-rule="evenodd" d="M930.66 715.054C953.832 715.054 972.615 696.27 972.615 673.099C972.615 649.928 953.832 631.144 930.66 631.144C907.489 631.144 888.705 649.928 888.705 673.099C888.705 696.27 907.489 715.054 930.66 715.054ZM930.66 722.483C957.935 722.483 980.045 700.373 980.045 673.099C980.045 645.825 957.935 623.714 930.66 623.714C903.386 623.714 881.276 645.825 881.276 673.099C881.276 700.373 903.386 722.483 930.66 722.483Z" fill="#FFD873"/>
<path fill-rule="evenodd" clip-rule="evenodd" d="M955.218 682.13C956.695 683.555 956.737 685.907 955.312 687.383C945.964 697.071 935.732 699.282 926.755 697.807C918.019 696.372 910.743 691.51 906.635 687.443C905.177 685.999 905.166 683.647 906.609 682.19C908.053 680.732 910.405 680.72 911.863 682.164C915.151 685.42 921.089 689.347 927.959 690.476C934.587 691.565 942.352 690.114 949.966 682.224C951.39 680.748 953.742 680.706 955.218 682.13Z" fill="#FFD873"/>
<path d="M920.668 661.395C920.668 663.918 918.623 665.963 916.101 665.963C913.578 665.963 911.533 663.918 911.533 661.395C911.533 658.873 913.578 656.828 916.101 656.828C918.623 656.828 920.668 658.873 920.668 661.395Z" fill="#FFD873"/>
<path d="M950.359 661.395C950.359 663.918 948.314 665.963 945.791 665.963C943.269 665.963 941.224 663.918 941.224 661.395C941.224 658.873 943.269 656.828 945.791 656.828C948.314 656.828 950.359 658.873 950.359 661.395Z" fill="#FFD873"/>
<path fill-rule="evenodd" clip-rule="evenodd" d="M775.525 456.442H696.588C691.365 456.442 687.132 460.676 687.132 465.898V506.457C687.132 511.679 691.365 515.913 696.588 515.913H775.525C780.748 515.913 784.981 511.679 784.981 506.457V465.898C784.981 460.676 780.748 456.442 775.525 456.442ZM696.588 449.013C687.262 449.013 679.702 456.573 679.702 465.898V506.457C679.702 511.622 682.022 516.246 685.676 519.344C681.109 520.86 677.312 524.292 675.401 528.894L672.882 534.96C668.264 546.08 676.436 558.321 688.476 558.321H787.767C801.312 558.321 809.344 543.173 801.743 531.961L797.632 525.895C795.131 522.206 791.304 519.695 787.023 518.824C790.337 515.741 792.411 511.341 792.411 506.457V465.898C792.411 456.573 784.851 449.013 775.525 449.013H696.588ZM783.655 525.914H690.995C687.174 525.914 683.728 528.214 682.262 531.743L679.743 537.809C677.157 544.036 681.733 550.892 688.476 550.892H787.767C795.352 550.892 799.85 542.409 795.594 536.13L791.482 530.064C789.722 527.469 786.79 525.914 783.655 525.914ZM712.846 541.804C711.605 541.804 710.488 542.56 710.027 543.712C709.229 545.707 710.698 547.876 712.846 547.876H769.462C771.61 547.876 773.079 545.707 772.281 543.712C771.82 542.56 770.703 541.804 769.462 541.804H712.846Z" fill="#FFD873"/>
<path fill-rule="evenodd" clip-rule="evenodd" d="M879.561 575.751L881.654 590.723L899.15 575.751H971.157C976.379 575.751 980.613 571.517 980.613 566.295V519.566C980.613 514.344 976.379 510.11 971.157 510.11H870.191C864.968 510.11 860.735 514.344 860.735 519.566V566.295C860.735 571.517 864.968 575.751 870.191 575.751H879.561ZM876.174 605.191L873.098 583.18H870.191C860.865 583.18 853.305 575.62 853.305 566.295V519.566C853.305 510.24 860.865 502.68 870.191 502.68H971.157C980.482 502.68 988.042 510.24 988.042 519.566V566.295C988.042 575.62 980.482 583.18 971.157 583.18H901.895L876.174 605.191Z" fill="#FFD873"/>
<path fill-rule="evenodd" clip-rule="evenodd" d="M834.021 731.252L837.403 729.774C842.188 727.683 847.763 729.868 849.854 734.653L885.938 817.232C888.029 822.017 885.845 827.592 881.06 829.683L849.75 843.364C844.964 845.455 839.39 843.271 837.299 838.486L801.215 755.907C799.123 751.121 801.308 745.547 806.093 743.456L809.993 741.751C809.998 741.771 810.003 741.791 810.009 741.811C810.556 743.83 812.77 744.891 814.686 744.053L832.521 736.26C834.438 735.422 835.163 733.077 834.054 731.304C834.043 731.287 834.032 731.269 834.021 731.252ZM794.407 758.881C790.673 750.336 794.573 740.382 803.118 736.648L834.428 722.966C842.974 719.232 852.928 723.133 856.662 731.678L892.746 814.257C896.48 822.803 892.58 832.757 884.034 836.491L852.724 850.172C844.179 853.906 834.225 850.006 830.491 841.461L794.407 758.881Z" fill="#FFD873"/>
<path fill-rule="evenodd" clip-rule="evenodd" d="M1273.58 148.351L1260.75 177.488C1257.99 183.763 1250.66 186.609 1244.39 183.845C1238.11 181.082 1235.26 173.755 1238.03 167.48L1250.86 138.342C1253.63 132.068 1260.95 129.221 1267.23 131.985C1273.5 134.749 1276.35 142.076 1273.58 148.351ZM1264.28 138.679C1261.7 137.543 1258.69 138.712 1257.56 141.29L1244.72 170.428C1243.59 173.006 1244.76 176.017 1247.33 177.152C1249.91 178.287 1252.92 177.118 1254.06 174.54L1266.89 145.402C1268.03 142.824 1266.86 139.814 1264.28 138.679Z" fill="#FFD873"/>
<path fill-rule="evenodd" clip-rule="evenodd" d="M1272.61 139.641L1292.31 130.858C1292.41 130.812 1292.51 130.755 1292.59 130.688L1302.46 123.221L1306.88 129.053L1297.01 136.52C1296.47 136.924 1295.9 137.265 1295.29 137.537L1275.82 146.219C1274.73 146.797 1273.89 147.554 1273.28 148.414C1272.56 149.152 1271.95 150.032 1271.5 151.037L1261.51 173.729C1259.56 178.165 1261.57 183.345 1266 185.299L1291.32 196.451C1295.26 198.184 1299.86 196.813 1302.21 193.212L1315.93 172.161C1318.89 167.625 1317.07 161.519 1312.12 159.336L1297.52 152.906L1311.57 140.234C1313.47 138.52 1314.34 135.94 1313.86 133.427L1313.51 131.607L1320.7 130.237L1321.04 132.057C1322 137.081 1320.27 142.24 1316.47 145.665L1310.81 150.768L1315.07 152.643C1324.15 156.645 1327.48 167.839 1322.06 176.155L1308.34 197.206C1304.04 203.807 1295.59 206.321 1288.37 203.145L1263.06 191.993C1254.92 188.411 1251.23 178.914 1254.82 170.781L1264.81 148.089C1265.54 146.443 1266.51 144.967 1267.68 143.697C1268.92 142.097 1270.51 140.758 1272.39 139.759L1272.61 139.641ZM1313.51 131.607C1313.23 130.108 1312.15 128.884 1310.7 128.411C1309.4 127.986 1307.97 128.226 1306.88 129.053L1302.46 123.221C1305.46 120.949 1309.39 120.29 1312.97 121.457C1316.95 122.757 1319.91 126.121 1320.7 130.237L1313.51 131.607Z" fill="#FFD873"/>
<path fill-rule="evenodd" clip-rule="evenodd" d="M777.258 144.171C777.627 141.929 776.455 139.637 774.28 138.679C771.702 137.543 768.692 138.712 767.556 141.29L754.722 170.428C753.586 173.006 754.756 176.016 757.334 177.152C759.59 178.146 762.179 177.374 763.55 175.436C763.73 173.869 764.146 172.301 764.815 170.781L774.81 148.089C775.447 146.643 776.277 145.33 777.258 144.171ZM764.778 183.668C761.621 185.188 757.843 185.368 754.385 183.845C748.111 181.082 745.265 173.755 748.028 167.48L760.863 138.342C763.626 132.067 770.953 129.221 777.228 131.985C780.444 133.402 782.759 136.017 783.88 139.075L802.307 130.858C802.409 130.812 802.505 130.755 802.594 130.688L812.461 123.221C815.462 120.949 819.386 120.29 822.965 121.458C826.95 122.757 829.912 126.121 830.696 130.237L831.043 132.057C832 137.081 830.266 142.24 826.469 145.665L820.811 150.768L825.067 152.643C834.152 156.645 837.482 167.839 832.06 176.155L818.338 197.206C814.035 203.807 805.584 206.321 798.373 203.145L773.055 191.993C769.193 190.292 766.333 187.257 764.778 183.668ZM770.764 177.458C770.838 180.76 772.781 183.88 776.003 185.299L801.321 196.451C805.254 198.184 809.864 196.813 812.211 193.212L825.933 172.161C828.89 167.625 827.074 161.519 822.118 159.336L807.52 152.906L821.57 140.234C823.47 138.52 824.337 135.94 823.858 133.427L823.512 131.607C823.226 130.108 822.148 128.884 820.698 128.411C819.395 127.986 817.967 128.226 816.874 129.053L807.007 136.52C806.474 136.924 805.896 137.265 805.286 137.537L785.818 146.219C785.031 146.637 784.374 147.148 783.841 147.725C783.762 147.934 783.676 148.143 783.585 148.35L770.764 177.458Z" fill="#FFD873"/>
<path fill-rule="evenodd" clip-rule="evenodd" d="M287.261 144.171C287.63 141.93 286.457 139.637 284.282 138.679C281.704 137.543 278.694 138.713 277.559 141.291L264.724 170.429C263.589 173.006 264.758 176.017 267.336 177.152C269.593 178.146 272.181 177.374 273.553 175.436C273.733 173.869 274.148 172.301 274.818 170.782L284.813 148.09C285.45 146.644 286.279 145.33 287.261 144.171ZM274.781 183.669C271.623 185.188 267.846 185.369 264.388 183.846C258.113 181.082 255.267 173.755 258.031 167.48L270.865 138.342C273.629 132.068 280.956 129.222 287.231 131.985C290.447 133.402 292.762 136.017 293.883 139.075L312.309 130.858C312.411 130.812 312.507 130.756 312.596 130.688L322.463 123.221C325.465 120.949 329.389 120.291 332.968 121.458C336.952 122.757 339.914 126.121 340.699 130.238L341.046 132.058C342.003 137.081 340.269 142.24 336.471 145.665L330.813 150.769L335.069 152.643C344.155 156.645 347.484 167.839 342.063 176.156L328.341 197.206C324.038 203.808 315.587 206.321 308.375 203.145L283.057 191.993C279.195 190.292 276.336 187.258 274.781 183.669ZM280.767 177.459C280.841 180.76 282.784 183.881 286.005 185.3L311.323 196.451C315.257 198.184 319.867 196.813 322.214 193.212L335.936 172.162C338.893 167.625 337.077 161.519 332.121 159.337L317.523 152.907L331.573 140.234C333.472 138.521 334.34 135.94 333.861 133.427L333.514 131.607C333.229 130.109 332.15 128.884 330.7 128.411C329.398 127.987 327.969 128.226 326.877 129.053L317.01 136.52C316.477 136.924 315.899 137.265 315.288 137.538L295.821 146.219C295.034 146.637 294.377 147.149 293.843 147.725C293.764 147.935 293.679 148.143 293.588 148.351L280.767 177.459Z" fill="#FFD873"/>
</svg>
