<svg width="1989" height="1337" viewBox="0 0 1989 1337" fill="none" xmlns="http://www.w3.org/2000/svg">
<path d="M605.34 703.879C649.478 777.425 716.887 767.877 745.074 753.91C750.103 748.531 887.131 639.751 964.147 605.917C1029.23 557.893 1014.56 503.507 999.088 482.317C960.224 410.68 878.951 395.162 845.56 409.303C818.847 420.617 788.864 401.648 777.211 390.75C734.946 310.89 650.427 312.501 613.451 323.289C585.87 329.422 533.919 359.813 546.764 432.322C562.034 473.49 595.127 585.436 605.34 703.879Z" fill="#FFD873"/>
<path d="M875.617 840.715C918.301 933.065 989.331 891.616 1019.51 859.347C1066.6 787.44 1037.97 710.25 1008.22 677.381C984.413 651.085 945.794 654.287 929.459 659.175C893.727 681.21 832.934 748.366 875.617 840.715Z" fill="#FFD873"/>
<path d="M906.415 904.808L943.191 913.998L900.436 959.712L906.415 904.808Z" fill="#FFD873"/>
<path d="M605.34 703.879C649.478 777.425 716.887 767.877 745.074 753.91C750.103 748.531 887.131 639.751 964.147 605.917C1029.23 557.893 1014.56 503.507 999.088 482.317C960.224 410.68 878.951 395.162 845.56 409.303C818.847 420.617 788.864 401.648 777.211 390.75C734.946 310.89 650.427 312.501 613.451 323.289C585.87 329.422 533.919 359.813 546.764 432.322C562.034 473.49 595.127 585.436 605.34 703.879Z" stroke="#FFD873"/>
<path d="M875.617 840.715C918.301 933.065 989.331 891.616 1019.51 859.347C1066.6 787.44 1037.97 710.25 1008.22 677.381C984.413 651.085 945.794 654.287 929.459 659.175C893.727 681.21 832.934 748.366 875.617 840.715Z" stroke="#FFD873"/>
<path d="M906.415 904.808L943.191 913.998L900.436 959.712L906.415 904.808Z" stroke="#FFD873"/>
<path d="M335.583 582.655C315.385 679.713 399.964 687.06 443.364 678.782C523.788 648.451 546.159 569.22 541.498 525.13C537.77 489.858 504.124 473.829 488.048 468.149C446.195 464.886 353.726 495.471 335.583 582.655Z" fill="#FFD873"/>
<path d="M351.986 683.698L383.733 698.266L343.667 746.495L351.986 683.698Z" fill="#FFD873"/>
<path d="M335.583 582.655C315.385 679.713 399.964 687.06 443.364 678.782C523.788 648.451 546.159 569.22 541.498 525.13C537.77 489.858 504.124 473.829 488.048 468.149C446.195 464.886 353.726 495.471 335.583 582.655Z" stroke="#FFD873"/>
<path d="M351.986 683.698L383.733 698.266L343.667 746.495L351.986 683.698Z" stroke="#FFD873"/>
<path d="M634.082 1018.11C674.104 1111.65 755.619 1084.37 788.558 1041.6C839.124 975.945 830.523 894.323 787.15 843.675C758.412 810.117 710.34 808.376 684.888 823.65C638.921 851.236 594.521 925.659 634.082 1018.11Z" fill="#FFD873"/>
<path d="M662.191 1079.69L707.034 1096.43L656.908 1155.41L662.191 1079.69Z" fill="#FFD873"/>
<path d="M634.082 1018.11C674.104 1111.65 755.619 1084.37 788.558 1041.6C839.124 975.945 830.523 894.323 787.15 843.675C758.412 810.117 710.34 808.376 684.888 823.65C638.921 851.236 594.521 925.659 634.082 1018.11Z" stroke="#FFD873"/>
<path d="M662.191 1079.69L707.034 1096.43L656.908 1155.41L662.191 1079.69Z" stroke="#FFD873"/>
<path d="M381.974 884.409C376.078 985.975 464.895 995.249 512.649 970.076C585.959 931.431 622.381 854.252 604.031 790.145C591.872 747.669 544.727 732.255 515.226 735.547C461.948 741.492 387.04 797.143 381.974 884.409Z" fill="#FFD873"/>
<path d="M390.268 971.564L437.8 990.813L382.645 1055.18L390.268 971.564Z" fill="#FFD873"/>
<path d="M381.974 884.409C376.078 985.975 464.895 995.249 512.649 970.076C585.959 931.431 622.381 854.252 604.031 790.145C591.872 747.669 544.727 732.255 515.226 735.547C461.948 741.492 387.04 797.143 381.974 884.409Z" stroke="#FFD873"/>
<path d="M390.268 971.564L437.8 990.813L382.645 1055.18L390.268 971.564Z" stroke="#FFD873"/>
<path d="M1150.98 968.128C1138.8 965.614 1133.2 973.739 1131.93 978.115C1132.01 979.18 1130.15 1004.47 1126.2 1016C1124.93 1027.65 1132.17 1031.43 1135.95 1031.86C1147.4 1034.75 1157.04 1027.61 1158.81 1022.66C1160.22 1018.7 1165.19 1017.36 1167.49 1017.19C1180.16 1020.53 1188.28 1011.36 1190.76 1006.35C1192.82 1002.81 1194.68 994.288 1185.68 988.54C1179.79 986.127 1164.61 978.666 1150.98 968.128Z" fill="#FFD873"/>
<path d="M1109.86 983.513C1095.82 978.998 1093.27 990.641 1093.74 997.026C1096.79 1009.11 1107.83 1013.63 1114.26 1013.68C1119.4 1013.73 1122.85 1009.3 1123.93 1007.07C1125.09 1001.1 1123.89 988.027 1109.86 983.513Z" fill="#FFD873"/>
<path d="M1100 980.505L1095.41 983.524L1094.73 974.478L1100 980.505Z" fill="#FFD873"/>
<path d="M1150.98 968.128C1138.8 965.614 1133.2 973.739 1131.93 978.115C1132.01 979.18 1130.15 1004.47 1126.2 1016C1124.93 1027.65 1132.17 1031.43 1135.95 1031.86C1147.4 1034.75 1157.04 1027.61 1158.81 1022.66C1160.22 1018.7 1165.19 1017.36 1167.49 1017.19C1180.16 1020.53 1188.28 1011.36 1190.76 1006.35C1192.82 1002.81 1194.68 994.288 1185.68 988.54C1179.79 986.127 1164.61 978.666 1150.98 968.128Z" stroke="#FFD873"/>
<path d="M1109.86 983.513C1095.82 978.998 1093.27 990.641 1093.74 997.026C1096.79 1009.11 1107.83 1013.63 1114.26 1013.68C1119.4 1013.73 1122.85 1009.3 1123.93 1007.07C1125.09 1001.1 1123.89 988.027 1109.86 983.513Z" stroke="#FFD873"/>
<path d="M1100 980.505L1095.41 983.524L1094.73 974.478L1100 980.505Z" stroke="#FFD873"/>
<path d="M1190.39 951.265C1182.02 939.584 1172.93 947.881 1169.56 953.321C1164.89 964.873 1171.15 975.037 1176.3 978.868C1180.43 981.933 1185.44 979.919 1187.63 978.762C1192.08 974.62 1197.9 961.758 1190.39 951.265Z" fill="#FFD873"/>
<path d="M1178 943.095L1173.33 945.05L1172.12 936.044L1178 943.095Z" fill="#FFD873"/>
<path d="M1190.39 951.265C1182.02 939.584 1172.93 947.881 1169.56 953.321C1164.89 964.873 1171.15 975.037 1176.3 978.868C1180.43 981.933 1185.44 979.919 1187.63 978.762C1192.08 974.62 1197.9 961.758 1190.39 951.265Z" stroke="#FFD873"/>
<path d="M1178 943.095L1173.33 945.05L1172.12 936.044L1178 943.095Z" stroke="#FFD873"/>
<path d="M1114.65 940.345C1100.75 935.43 1095.66 946.799 1096.98 954.51C1099.02 966.347 1108.57 973.442 1118.23 973.79C1124.62 974.02 1129.53 969.065 1130.4 964.852C1131.97 957.243 1128.39 945.203 1114.65 940.345Z" fill="#FFD873"/>
<path d="M1105.33 937.297L1099.14 940.436L1097.77 929.301L1105.33 937.297Z" fill="#FFD873"/>
<path d="M1114.65 940.345C1100.75 935.43 1095.66 946.799 1096.98 954.51C1099.02 966.347 1108.57 973.442 1118.23 973.79C1124.62 974.02 1129.53 969.065 1130.4 964.852C1131.97 957.243 1128.39 945.203 1114.65 940.345Z" stroke="#FFD873"/>
<path d="M1105.33 937.297L1099.14 940.436L1097.77 929.301L1105.33 937.297Z" stroke="#FFD873"/>
<path d="M1153.66 926.59C1143.41 915.991 1133.7 924.55 1131.7 932.113C1128.62 943.723 1133.27 955.183 1141.91 959.52C1147.63 962.393 1153.9 958.88 1156.45 955.411C1161.04 949.147 1162.46 935.697 1153.66 926.59Z" fill="#FFD873"/>
<path d="M1143.55 918.919L1136.83 922.097L1135.38 909.898L1143.55 918.919Z" fill="#FFD873"/>
<path d="M1153.66 926.59C1143.41 915.991 1133.7 924.55 1131.7 932.113C1128.62 943.723 1133.27 955.183 1141.91 959.52C1147.63 962.393 1153.9 958.88 1156.45 955.411C1161.04 949.147 1162.46 935.697 1153.66 926.59Z" stroke="#FFD873"/>
<path d="M1143.55 918.919L1136.83 922.097L1135.38 909.898L1143.55 918.919Z" stroke="#FFD873"/>
<path d="M1841.64 1012.06C1853.9 995.214 1845.37 981.047 1839.58 976.069C1837.9 975.454 1800.58 955.129 1785.72 941.117C1768.81 931.119 1758.04 939.555 1754.77 945.023C1742.44 960.505 1746.67 980.148 1753 986.273C1758.06 991.174 1756.66 999.676 1755.33 1003.31C1741.48 1020.34 1749.86 1039.08 1755.77 1046.33C1759.76 1051.91 1771.48 1060.65 1786.48 1050.9C1794.23 1043.58 1816.13 1025.57 1841.64 1012.06Z" fill="#FFD873"/>
<path d="M1846.61 938.65C1863.21 920.35 1847.21 908.398 1837.13 904.71C1816.59 900.998 1802.05 914.719 1797.52 924.488C1793.9 932.303 1798.27 940.634 1800.91 943.823C1809.23 949.724 1830.01 956.949 1846.61 938.65Z" fill="#FFD873"/>
<path d="M1858.02 925.687L1856.59 916.593L1870.86 921.818L1858.02 925.687Z" fill="#FFD873"/>
<path d="M1841.64 1012.06C1853.9 995.214 1845.37 981.047 1839.58 976.069C1837.9 975.454 1800.58 955.129 1785.72 941.117C1768.81 931.119 1758.04 939.555 1754.77 945.023C1742.44 960.505 1746.67 980.148 1753 986.273C1758.06 991.174 1756.66 999.676 1755.33 1003.31C1741.48 1020.34 1749.86 1039.08 1755.77 1046.33C1759.76 1051.91 1771.48 1060.65 1786.48 1050.9C1794.23 1043.58 1816.13 1025.57 1841.64 1012.06Z" stroke="#FFD873"/>
<path d="M1846.61 938.65C1863.21 920.35 1847.21 908.398 1837.13 904.71C1816.59 900.998 1802.05 914.719 1797.52 924.488C1793.9 932.303 1798.27 940.634 1800.91 943.823C1809.23 949.724 1830.01 956.949 1846.61 938.65Z" stroke="#FFD873"/>
<path d="M1858.02 925.687L1856.59 916.593L1870.86 921.818L1858.02 925.687Z" stroke="#FFD873"/>
<path d="M1840.11 1083.86C1863.73 1079.18 1857.35 1059.57 1851.39 1050.65C1836.98 1035.55 1817.14 1038.06 1807.73 1043.28C1800.19 1047.46 1799.8 1056.5 1800.05 1060.63C1803.29 1070.3 1818.9 1088.07 1840.11 1083.86Z" fill="#FFD873"/>
<path d="M1861.15 1070.62L1861.4 1062.14L1875.98 1066.52L1861.15 1070.62Z" fill="#FFD873"/>
<path d="M1840.11 1083.86C1863.73 1079.18 1857.35 1059.57 1851.39 1050.65C1836.98 1035.55 1817.14 1038.06 1807.73 1043.28C1800.19 1047.46 1799.8 1056.5 1800.05 1060.63C1803.29 1070.3 1818.9 1088.07 1840.11 1083.86Z" stroke="#FFD873"/>
<path d="M1861.15 1070.62L1861.4 1062.14L1875.98 1066.52L1861.15 1070.62Z" stroke="#FFD873"/>
<path d="M1909.18 975.836C1926.29 958.019 1912.47 942.379 1899.78 939.069C1880.31 933.988 1862.87 943.65 1855.66 958.15C1850.88 967.757 1855.05 978.671 1860.88 982.914C1871.4 990.576 1892.25 993.447 1909.18 975.836Z" fill="#FFD873"/>
<path d="M1920.28 963.713L1919.77 952.099L1937.71 957.715L1920.28 963.713Z" fill="#FFD873"/>
<path d="M1909.18 975.836C1926.29 958.019 1912.47 942.379 1899.78 939.069C1880.31 933.988 1862.87 943.65 1855.66 958.15C1850.88 967.757 1855.05 978.671 1860.88 982.914C1871.4 990.576 1892.25 993.447 1909.18 975.836Z" stroke="#FFD873"/>
<path d="M1920.28 963.713L1919.77 952.099L1937.71 957.715L1920.28 963.713Z" stroke="#FFD873"/>
<path d="M1903.18 1044.88C1926.45 1036.57 1920.1 1015.83 1909.95 1007.54C1894.36 994.814 1873.65 993.988 1861.05 1004.17C1852.71 1010.91 1853.73 1022.92 1857.26 1029.2C1863.65 1040.55 1883.19 1052.02 1903.18 1044.88Z" fill="#FFD873"/>
<path d="M1921.88 1034.76L1921.68 1022.31L1941.3 1028.54L1921.88 1034.76Z" fill="#FFD873"/>
<path d="M1903.18 1044.88C1926.45 1036.57 1920.1 1015.83 1909.95 1007.54C1894.36 994.814 1873.65 993.988 1861.05 1004.17C1852.71 1010.91 1853.73 1022.92 1857.26 1029.2C1863.65 1040.55 1883.19 1052.02 1903.18 1044.88Z" stroke="#FFD873"/>
<path d="M1921.88 1034.76L1921.68 1022.31L1941.3 1028.54L1921.88 1034.76Z" stroke="#FFD873"/>
<path d="M1754.24 465.309C1751.36 453.806 1742.06 452.357 1737.77 453.071C1736.89 453.58 1714.39 462.456 1702.84 463.834C1692.3 467.568 1692.06 475.351 1693.25 478.777C1695.51 489.816 1705.63 495.137 1710.62 494.61C1714.61 494.188 1717.81 497.903 1718.91 499.814C1721.29 512.077 1732.54 515.264 1737.86 515.324C1741.76 515.622 1749.85 513.692 1751.07 503.585C1750.7 497.525 1750.83 481.387 1754.24 465.309Z" fill="#FFD873"/>
<path d="M1724 436.338C1722.07 422.405 1711 425.031 1705.71 428.085C1696.59 435.702 1697.28 447.064 1699.89 452.608C1701.98 457.044 1707.22 458.174 1709.57 458.184C1715.19 456.707 1725.93 450.27 1724 436.338Z" fill="#FFD873"/>
<path d="M1722.5 426.621L1718.01 423.926L1725.5 419.599L1722.5 426.621Z" fill="#FFD873"/>
<path d="M1754.24 465.309C1751.36 453.806 1742.06 452.357 1737.77 453.071C1736.89 453.58 1714.39 462.456 1702.84 463.834C1692.3 467.568 1692.06 475.351 1693.25 478.777C1695.51 489.816 1705.63 495.137 1710.62 494.61C1714.61 494.188 1717.81 497.903 1718.91 499.814C1721.29 512.077 1732.54 515.264 1737.86 515.324C1741.76 515.622 1749.85 513.692 1751.07 503.585C1750.7 497.525 1750.83 481.387 1754.24 465.309Z" stroke="#FFD873"/>
<path d="M1724 436.338C1722.07 422.405 1711 425.031 1705.71 428.085C1696.59 435.702 1697.28 447.064 1699.89 452.608C1701.98 457.044 1707.22 458.174 1709.57 458.184C1715.19 456.707 1725.93 450.27 1724 436.338Z" stroke="#FFD873"/>
<path d="M1722.5 426.621L1718.01 423.926L1725.5 419.599L1722.5 426.621Z" stroke="#FFD873"/>
<path d="M1785.05 492.195C1791.62 480.17 1780.73 475.796 1774.66 475.145C1762.8 475.922 1756.65 485.502 1755.5 491.521C1754.57 496.337 1758.38 499.81 1760.28 501.208C1765.68 503.323 1779.14 502.998 1785.05 492.195Z" fill="#FFD873"/>
<path d="M1786.94 478.171L1783.33 474.967L1790.57 470.199L1786.94 478.171Z" fill="#FFD873"/>
<path d="M1785.05 492.195C1791.62 480.17 1780.73 475.796 1774.66 475.145C1762.8 475.922 1756.65 485.502 1755.5 491.521C1754.57 496.337 1758.38 499.81 1760.28 501.208C1765.68 503.323 1779.14 502.998 1785.05 492.195Z" stroke="#FFD873"/>
<path d="M1786.94 478.171L1783.33 474.967L1790.57 470.199L1786.94 478.171Z" stroke="#FFD873"/>
<path d="M1763.08 422.589C1761.55 408.608 1749.67 408.937 1743.59 413.269C1734.26 419.919 1732.12 431.061 1735.82 439.505C1738.27 445.1 1744.56 447.264 1748.54 446.268C1755.73 444.468 1764.6 436.41 1763.08 422.589Z" fill="#FFD873"/>
<path d="M1761.84 413.314L1756.58 409.296L1765.59 403.511L1761.84 413.314Z" fill="#FFD873"/>
<path d="M1763.08 422.589C1761.55 408.608 1749.67 408.937 1743.59 413.269C1734.26 419.919 1732.12 431.061 1735.82 439.505C1738.27 445.1 1744.56 447.264 1748.54 446.268C1755.73 444.468 1764.6 436.41 1763.08 422.589Z" stroke="#FFD873"/>
<path d="M1761.84 413.314L1756.58 409.296L1765.59 403.511L1761.84 413.314Z" stroke="#FFD873"/>
<path d="M1791.05 450.416C1795.92 437.219 1784.54 432.419 1777.21 433.828C1765.96 435.991 1758.04 444.734 1757.89 453.952C1757.79 460.059 1763.4 463.995 1767.44 464.746C1774.72 466.103 1786.87 461.755 1791.05 450.416Z" fill="#FFD873"/>
<path d="M1793.46 438.554L1787.95 434.096L1797.83 427.801L1793.46 438.554Z" fill="#FFD873"/>
<path d="M1791.05 450.416C1795.92 437.219 1784.54 432.419 1777.21 433.828C1765.96 435.991 1758.04 444.734 1757.89 453.952C1757.79 460.059 1763.4 463.995 1767.44 464.746C1774.72 466.103 1786.87 461.755 1791.05 450.416Z" stroke="#FFD873"/>
<path d="M1793.46 438.554L1787.95 434.096L1797.83 427.801L1793.46 438.554Z" stroke="#FFD873"/>
<path d="M1754.24 465.309C1751.36 453.806 1742.06 452.357 1737.77 453.071C1736.89 453.58 1714.39 462.456 1702.84 463.834C1692.3 467.568 1692.06 475.351 1693.25 478.777C1695.51 489.816 1705.63 495.137 1710.62 494.61C1714.61 494.188 1717.81 497.903 1718.91 499.814C1721.29 512.077 1732.54 515.264 1737.86 515.324C1741.76 515.622 1749.85 513.692 1751.07 503.585C1750.7 497.525 1750.83 481.387 1754.24 465.309Z" fill="#FFD873"/>
<path d="M1724 436.338C1722.07 422.405 1711 425.031 1705.71 428.085C1696.59 435.702 1697.28 447.064 1699.89 452.608C1701.98 457.044 1707.22 458.174 1709.57 458.184C1715.19 456.707 1725.93 450.27 1724 436.338Z" fill="#FFD873"/>
<path d="M1722.5 426.621L1718.01 423.926L1725.5 419.599L1722.5 426.621Z" fill="#FFD873"/>
<path d="M1754.24 465.309C1751.36 453.806 1742.06 452.357 1737.77 453.071C1736.89 453.58 1714.39 462.456 1702.84 463.834C1692.3 467.568 1692.06 475.351 1693.25 478.777C1695.51 489.816 1705.63 495.137 1710.62 494.61C1714.61 494.188 1717.81 497.903 1718.91 499.814C1721.29 512.077 1732.54 515.264 1737.86 515.324C1741.76 515.622 1749.85 513.692 1751.07 503.585C1750.7 497.525 1750.83 481.387 1754.24 465.309Z" stroke="#FFD873"/>
<path d="M1724 436.338C1722.07 422.405 1711 425.031 1705.71 428.085C1696.59 435.702 1697.28 447.064 1699.89 452.608C1701.98 457.044 1707.22 458.174 1709.57 458.184C1715.19 456.707 1725.93 450.27 1724 436.338Z" stroke="#FFD873"/>
<path d="M1722.5 426.621L1718.01 423.926L1725.5 419.599L1722.5 426.621Z" stroke="#FFD873"/>
<path d="M1785.05 492.195C1791.62 480.17 1780.73 475.796 1774.66 475.145C1762.8 475.922 1756.65 485.502 1755.5 491.521C1754.57 496.337 1758.38 499.81 1760.28 501.208C1765.68 503.323 1779.14 502.998 1785.05 492.195Z" fill="#FFD873"/>
<path d="M1786.94 478.171L1783.33 474.967L1790.57 470.199L1786.94 478.171Z" fill="#FFD873"/>
<path d="M1785.05 492.195C1791.62 480.17 1780.73 475.796 1774.66 475.145C1762.8 475.922 1756.65 485.502 1755.5 491.521C1754.57 496.337 1758.38 499.81 1760.28 501.208C1765.68 503.323 1779.14 502.998 1785.05 492.195Z" stroke="#FFD873"/>
<path d="M1786.94 478.171L1783.33 474.967L1790.57 470.199L1786.94 478.171Z" stroke="#FFD873"/>
<path d="M1763.08 422.589C1761.55 408.608 1749.67 408.937 1743.59 413.269C1734.26 419.919 1732.12 431.061 1735.82 439.505C1738.27 445.1 1744.56 447.264 1748.54 446.268C1755.73 444.468 1764.6 436.41 1763.08 422.589Z" fill="#FFD873"/>
<path d="M1761.84 413.314L1756.58 409.296L1765.59 403.511L1761.84 413.314Z" fill="#FFD873"/>
<path d="M1763.08 422.589C1761.55 408.608 1749.67 408.937 1743.59 413.269C1734.26 419.919 1732.12 431.061 1735.82 439.505C1738.27 445.1 1744.56 447.264 1748.54 446.268C1755.73 444.468 1764.6 436.41 1763.08 422.589Z" stroke="#FFD873"/>
<path d="M1761.84 413.314L1756.58 409.296L1765.59 403.511L1761.84 413.314Z" stroke="#FFD873"/>
<path d="M1791.05 450.416C1795.92 437.219 1784.54 432.419 1777.21 433.828C1765.96 435.991 1758.04 444.734 1757.89 453.952C1757.79 460.059 1763.4 463.995 1767.44 464.746C1774.72 466.103 1786.87 461.755 1791.05 450.416Z" fill="#FFD873"/>
<path d="M1793.46 438.554L1787.95 434.096L1797.83 427.801L1793.46 438.554Z" fill="#FFD873"/>
<path d="M1791.05 450.416C1795.92 437.219 1784.54 432.419 1777.21 433.828C1765.96 435.991 1758.04 444.734 1757.89 453.952C1757.79 460.059 1763.4 463.995 1767.44 464.746C1774.72 466.103 1786.87 461.755 1791.05 450.416Z" stroke="#FFD873"/>
<path d="M1793.46 438.554L1787.95 434.096L1797.83 427.801L1793.46 438.554Z" stroke="#FFD873"/>
<path d="M1274.84 408.644C1261.21 408.068 1256.58 417.854 1255.97 422.819C1256.24 423.957 1258.69 451.672 1256.44 464.859C1257.12 477.703 1265.63 480.515 1269.8 480.316C1282.71 481.426 1291.88 471.993 1292.93 466.322C1293.76 461.785 1298.91 459.464 1301.37 458.87C1315.67 460.248 1322.86 448.885 1324.66 443.031C1326.26 438.833 1326.77 429.275 1316.02 424.634C1309.22 423.059 1291.46 417.655 1274.84 408.644Z" fill="#FFD873"/>
<path d="M1233.02 432.554C1217.02 430.139 1216.3 443.198 1217.95 450.029C1223.37 462.575 1236.13 465.529 1243.1 464.456C1248.67 463.597 1251.63 458.189 1252.41 455.592C1252.61 448.919 1249.01 434.97 1233.02 432.554Z" fill="#FFD873"/>
<path d="M1221.81 431.034L1217.37 435.113L1215.04 425.435L1221.81 431.034Z" fill="#FFD873"/>
<path d="M1274.84 408.644C1261.21 408.068 1256.58 417.854 1255.97 422.819C1256.24 423.957 1258.69 451.672 1256.44 464.859C1257.12 477.703 1265.63 480.515 1269.8 480.316C1282.71 481.426 1291.88 471.993 1292.93 466.322C1293.76 461.785 1298.91 459.464 1301.37 458.87C1315.67 460.248 1322.86 448.885 1324.66 443.031C1326.26 438.833 1326.77 429.275 1316.02 424.634C1309.22 423.059 1291.46 417.655 1274.84 408.644Z" stroke="#FFD873"/>
<path d="M1233.02 432.554C1217.02 430.139 1216.3 443.198 1217.95 450.029C1223.37 462.575 1236.13 465.529 1243.1 464.456C1248.67 463.597 1251.63 458.189 1252.41 455.592C1252.61 448.919 1249.01 434.97 1233.02 432.554Z" stroke="#FFD873"/>
<path d="M1221.81 431.034L1217.37 435.113L1215.04 425.435L1221.81 431.034Z" stroke="#FFD873"/>
<path d="M1314.55 383.437C1303.43 372.261 1295.05 382.848 1292.35 389.335C1289.34 402.668 1297.9 412.573 1304.16 415.813C1309.17 418.405 1314.24 415.34 1316.4 413.703C1320.5 408.431 1324.53 393.477 1314.55 383.437Z" fill="#FFD873"/>
<path d="M1299.69 376.772L1294.98 379.712L1292.08 370.171L1299.69 376.772Z" fill="#FFD873"/>
<path d="M1314.55 383.437C1303.43 372.261 1295.05 382.848 1292.35 389.335C1289.34 402.668 1297.9 412.573 1304.16 415.813C1309.17 418.405 1314.24 415.34 1316.4 413.703C1320.5 408.431 1324.53 393.477 1314.55 383.437Z" stroke="#FFD873"/>
<path d="M1299.69 376.772L1294.98 379.712L1292.08 370.171L1299.69 376.772Z" stroke="#FFD873"/>
<path d="M1230.6 384.958C1214.68 382.086 1211.17 395.296 1213.96 403.413C1218.25 415.873 1229.84 421.875 1240.37 420.549C1247.34 419.67 1251.78 413.44 1251.97 408.724C1252.34 400.206 1246.34 387.797 1230.6 384.958Z" fill="#FFD873"/>
<path d="M1219.97 383.301L1213.82 387.79L1210.37 375.972L1219.97 383.301Z" fill="#FFD873"/>
<path d="M1230.6 384.958C1214.68 382.086 1211.17 395.296 1213.96 403.413C1218.25 415.873 1229.84 421.875 1240.37 420.549C1247.34 419.67 1251.78 413.44 1251.97 408.724C1252.34 400.206 1246.34 387.797 1230.6 384.958Z" stroke="#FFD873"/>
<path d="M1219.97 383.301L1213.82 387.79L1210.37 375.972L1219.97 383.301Z" stroke="#FFD873"/>
<path d="M1270.42 363.186C1257.45 353.514 1248.44 364.495 1247.61 373.039C1246.32 386.155 1253.38 397.746 1263.5 400.92C1270.2 403.023 1276.38 398.113 1278.52 393.908C1282.4 386.313 1281.56 371.497 1270.42 363.186Z" fill="#FFD873"/>
<path d="M1258.12 356.66L1251.41 361.286L1247.69 348.329L1258.12 356.66Z" fill="#FFD873"/>
<path d="M1270.42 363.186C1257.45 353.514 1248.44 364.495 1247.61 373.039C1246.32 386.155 1253.38 397.746 1263.5 400.92C1270.2 403.023 1276.38 398.113 1278.52 393.908C1282.4 386.313 1281.56 371.497 1270.42 363.186Z" stroke="#FFD873"/>
<path d="M1258.12 356.66L1251.41 361.286L1247.69 348.329L1258.12 356.66Z" stroke="#FFD873"/>
</svg>
