<svg width="1366" height="768" viewBox="0 0 1366 768" fill="none" xmlns="http://www.w3.org/2000/svg">
<path d="M1689 -487H-1380V910H1689V-487Z" fill="#FFF59A"/>
<path d="M-1465.81 368.2C-939.692 367.796 -413.581 367.393 112.542 367C638.028 554.337 1163.51 741.674 1689 929H-1486L-1465.81 368.2Z" fill="#B69172"/>
<path d="M-125.989 367H113.589C658.307 561.174 1689 930.801 1689 930.801L409.124 933C409.124 933 108.93 615.482 -126 367H-125.989Z" fill="#AE8B6C"/>
<path d="M-636.989 377.825C-466.984 374.217 -296.978 370.608 -126.984 367C107.885 615.297 173.132 684.282 408 932.579C15.6538 945.383 -207.06 917.183 -599.406 929.987C-611.934 672.495 -624.461 635.329 -637 377.836L-636.989 377.825Z" fill="#B69172"/>
<path d="M111 346V367H-1522V347.272L111 346Z" fill="#F8F8F9"/>
<path d="M1689 -369.712V929C1365.67 813.518 1042.33 698.026 719 582.544C718.792 582.467 718.584 582.391 718.364 582.325C713 580.4 707.625 578.485 702.261 576.57C701.778 576.395 701.273 576.22 700.944 576.1C695.471 574.141 466.688 492.15 112.665 365.279C158.091 18.8228 137.588 -149.11 108.563 -238.443C97.5055 -272.491 106.347 -395.347 106.347 -481.572C106.347 -481.725 106.501 -481.879 106.819 -482.021C113.773 -485.303 198.042 -487.01 324.39 -487.666H325.235C365.329 -487.885 409.646 -487.984 457.057 -487.995C497.952 -488.016 541.161 -487.973 585.939 -487.863C589.734 -487.852 593.541 -487.852 597.358 -487.841C647.27 -487.71 699.069 -487.524 751.745 -487.294C751.745 -443.388 751.734 -399.548 751.734 -355.729L754.805 -359.767L819.186 -413.366L1689 -369.712Z" fill="#FFDE93"/>
<path d="M589 147L255 63.1652V-208L587.235 -140.766C586.523 -74.0348 587.641 33.8105 589 147Z" fill="#FFE183"/>
<path d="M592.764 510C479.587 473.208 366.816 435.396 254.442 396.574C206.679 380.076 158.983 363.391 111.363 346.52C111.253 282.984 111.066 154.278 111 90.7421C111 90.6214 111 80.9243 111 80.8036L252.461 63L254.453 63.4717L589.771 142.541C589.793 144.142 589.815 145.744 589.826 147.345C591.587 284.542 593.7 429.209 592.775 509.989L592.764 510Z" fill="#FFE183"/>
<path d="M751 -357C750.956 -38.9093 750.923 277.262 750.879 596C738.154 591.799 727.417 588.158 718.055 584.901C717.846 584.824 717.637 584.747 717.418 584.681C711.527 582.62 706.187 580.711 701.209 578.902C700.769 578.748 700.33 578.584 699.879 578.43C664.857 565.675 648.308 558.041 590.736 539.079C589.824 289.864 588.912 40.649 588 -208.566C642.33 -258.04 696.659 -307.515 750.989 -357H751Z" fill="#A87133"/>
<path d="M255 -207.943V63.6029L253.008 63.0995L111.517 82C111.341 -54.8018 111.176 -184.03 111 -237L255 -207.943Z" fill="#FCB756"/>
<path d="M254.989 49C254.867 170.996 254.757 293.004 254.635 415C206.879 398.297 159.121 381.593 111.365 364.901C111.243 283.231 111.122 179.72 111 79.2149C111 75.5419 111 71.8689 111 68.2068C159 61.8118 207 55.4059 255 49.0109L254.989 49Z" fill="#FCB756"/>
<path d="M111 58.711C159.459 49.811 207.918 40.9 256.389 32C366.952 53.2922 477.515 74.5843 588.079 95.8765C588.386 119.588 588.693 143.299 589 167" fill="#B27F53"/>
<path d="M200 -102C211.561 -95.3523 225.56 -90.5475 244.454 -89.4396L245 66.968C227.079 67.3081 211.157 65.0264 200.557 55.7569C200.372 3.16761 200.186 -49.4107 200 -102Z" fill="#27AAE1"/>
<path d="M245 -90.267C268.667 -93.841 292.333 -97.415 316 -101V56.5427C292.518 60.0285 269.025 63.5142 245.543 67C245.358 14.5703 245.185 -37.8483 245 -90.278V-90.267Z" fill="#2390BF"/>
<path d="M261 -86C263.047 -84.7528 266.334 -83.0752 270.667 -82.2364C275.728 -81.2542 279.941 -81.8391 282.423 -82.3799C282.619 -29.9109 282.804 22.5582 283 75.0162C280.681 75.9875 273.312 78.6915 265.801 75.4577C264.004 74.6851 262.524 73.7028 261.316 72.7205C261.218 19.81 261.109 -33.0895 261.011 -86H261Z" fill="#F58220"/>
<path d="M280 -82.2724C304.333 -85.8483 328.667 -89.4241 353 -93V64.5364C328.857 68.0243 304.702 71.5121 280.558 75C280.369 22.5722 280.19 -29.8446 280 -82.2724Z" fill="#C66A17"/>
<mask id="mask0_232_3707" style="mask-type:luminance" maskUnits="userSpaceOnUse" x="795" y="-341" width="738" height="575">
<path d="M817.777 -323.764L1532.73 -340.73L1526.09 233.558L795.736 96.0735C803.083 -43.8759 810.441 -183.814 817.788 -323.764H817.777Z" fill="white"/>
</mask>
<g mask="url(#mask0_232_3707)">
<path d="M1517.38 -329.438C1290.27 -352.921 867.69 -305.373 867.69 -305.373C864.959 -280.948 863.172 -261.1 862.086 -248.23C852.963 -139.804 853.775 -48.4104 854.948 55.8206C855.069 66.8943 855.2 75.854 855.288 81.1444C898.557 93.1711 955.719 108.33 1023.36 124.355C1073.66 136.272 1117.85 145.823 1154.87 153.414C1316.07 186.46 1510.43 216.954 1510.43 216.954C1512.45 191.794 1514.26 166.393 1515.82 140.774C1525.9 -23.3713 1525.51 -180.43 1517.4 -329.438H1517.38ZM1496.86 49.2705C1495.03 98.2205 1492.63 146.393 1489.71 193.744C1389.54 179.012 1293.69 163.009 1202.36 145.56C1214.44 145.067 1226.36 143.786 1238.05 141.771C1355.44 121.529 1446.94 28.7222 1448.84 -97.5904C1450.03 -177.691 1414 -250.673 1356.97 -302.712C1294.04 -303.456 1232.54 -303.04 1172.6 -301.353C1090.13 -299.02 1016.97 -294.442 952.035 -288.429C919.402 -248.876 899.248 -198.842 897.153 -143.55C893.469 -46.4279 947.331 47.7151 1033.29 100.882C1042.74 106.731 1052.6 112.109 1062.84 116.951C991.181 101.211 926.814 85.3176 868.951 69.6106C867.262 -1.16914 867.558 -75.8045 870.694 -153.813C872.591 -200.967 875.387 -246.248 878.885 -289.633C904.796 -292.843 932.1 -295.855 960.873 -298.582C1024.31 -304.607 1095.38 -309.327 1175.06 -312.022C1229.81 -313.862 1285.91 -314.662 1343.26 -314.497C1394.26 -314.366 1446.26 -313.468 1499.17 -311.869C1501.96 -196.279 1501.48 -75.7716 1496.84 49.2486L1496.86 49.2705Z" fill="#76130C"/>
<path d="M1499.15 -59.9326C1497.53 27.3647 1494.28 111.978 1489.72 193.744C1389.55 179.012 1293.7 163.01 1202.37 145.561C1214.46 145.068 1226.38 143.787 1238.06 141.771C1355.45 121.53 1446.95 28.7229 1448.85 -97.5898C1450.05 -177.691 1414.01 -250.672 1356.98 -302.711C1294.05 -303.456 1232.55 -303.04 1172.61 -301.353C1090.14 -299.02 1016.98 -294.441 952.047 -288.428C919.414 -248.876 899.26 -198.841 897.165 -143.55C893.481 -46.4272 947.343 47.7157 1033.3 100.883C1042.75 106.732 1052.61 112.11 1062.85 116.951C991.193 101.211 926.826 85.3182 868.963 69.6113C867.274 -1.16851 867.57 -75.8038 870.706 -153.813C872.603 -200.966 875.399 -246.247 878.897 -289.633C904.808 -292.842 932.112 -295.854 960.885 -298.582C1024.32 -304.606 1095.4 -309.327 1175.07 -312.021C1229.82 -313.861 1285.92 -314.661 1343.28 -314.497C1394.28 -314.365 1446.27 -313.467 1499.18 -311.868C1500.66 -230.595 1500.75 -146.562 1499.14 -59.9545L1499.15 -59.9326Z" fill="#B22A25"/>
<path d="M1033.3 100.883C947.341 47.7159 893.469 -46.438 897.164 -143.549C899.258 -198.841 919.413 -248.887 952.045 -288.428C954.896 -291.878 957.857 -295.263 960.894 -298.56C932.121 -295.843 904.818 -292.831 878.907 -289.611C875.409 -246.225 872.613 -200.955 870.716 -153.791C867.58 -75.7818 867.273 -1.15738 868.972 69.6334C926.836 85.3403 991.202 101.222 1062.86 116.973C1052.62 112.132 1042.76 106.754 1033.31 100.905L1033.3 100.883ZM1499.19 -311.846C1446.28 -313.445 1394.29 -314.332 1343.29 -314.475C1347.97 -310.696 1352.55 -306.774 1356.98 -302.722C1414.01 -250.683 1450.04 -177.702 1448.85 -97.6006C1446.95 28.7121 1355.45 121.53 1238.06 141.76C1226.36 143.776 1214.46 145.057 1202.37 145.55C1293.7 162.999 1389.55 179.001 1489.72 193.733C1495.41 115.33 1499.41 32.9948 1501.13 -52.9881C1502.94 -143.287 1502.06 -229.708 1499.19 -311.868V-311.846Z" fill="#C8591A"/>
<path d="M1033.3 100.881C975.697 88.1099 923.042 75.218 874.894 62.4465C873.172 -5.25542 873.391 -76.6595 876.374 -151.328C878.172 -196.466 880.869 -239.819 884.247 -281.343C895.059 -282.613 906.046 -283.829 917.198 -285.001C1059.42 -299.919 1219.6 -305.757 1400.72 -302.482C1483.65 -194.648 1510.81 -58.4224 1456.88 26.8704C1404.87 109.107 1284.57 132.306 1256.9 137.64C1234.86 141.89 1217.65 142.942 1211.85 143.238C1131.38 147.411 1068.47 120.159 1033.3 100.881Z" fill="#B22A25"/>
<path d="M1490.19 -50.9847C1488.37 31.044 1483.33 108.22 1476.25 179.975C1393.96 168.2 1314.51 155.484 1238.07 141.77C1355.46 121.529 1446.96 28.7219 1448.86 -97.5907C1450.05 -177.692 1414.02 -250.673 1356.99 -302.712C1399.23 -302.208 1442.09 -301.178 1485.54 -299.689C1490.13 -222.731 1492.16 -139.564 1490.19 -50.9847Z" fill="#B22A25"/>
<path d="M1202.37 145.571C1178.5 146.59 1154.06 144.596 1129.52 139.416C1105.55 134.355 1083.59 126.776 1062.85 116.961C1092.29 123.435 1123.05 129.897 1155.18 136.327C1170.78 139.448 1186.52 142.526 1202.37 145.571Z" fill="#76130C"/>
<path d="M1354.8 -106.33L1246.59 -92.2884C1243.66 -91.905 1241.75 -88.8381 1242.33 -85.4316L1262.36 32.929C1262.95 36.445 1265.88 39.1285 1268.9 38.9204L1380.13 31.0998C1383.46 30.8698 1385.61 27.6714 1384.92 23.9692L1361.87 -100.591C1361.2 -104.173 1358.05 -106.736 1354.81 -106.319L1354.8 -106.33Z" fill="#FEF495"/>
<path d="M1338.36 23.6176C1350.32 23.3986 1362.39 23.1905 1374.57 22.9604C1374.25 25.8411 1373.78 33.6727 1378.36 42.6872C1383.16 52.107 1390.58 57.1783 1393.26 58.8432C1380.71 63.104 1372.06 66.1929 1369.42 67.573C1368.82 67.8797 1366.83 68.9969 1363.98 68.8435C1363.07 68.7887 1362.32 68.6354 1361.83 68.504C1357.83 65.4152 1349.5 58.2298 1343.85 46.4661C1339.14 36.6739 1338.42 28.1413 1338.36 23.6067V23.6176Z" fill="#CF559F"/>
<path d="M1034.82 53.2023L968.451 46.7289C951.203 27.5608 936.674 6.3444 925.357 -16.1864C922.441 -21.9697 919.743 -27.8516 917.265 -33.8211C916.52 -35.6065 915.796 -37.3918 915.094 -39.1882C913.888 -42.277 912.736 -45.3768 911.651 -48.4984C910.631 -51.412 909.655 -54.3365 908.745 -57.272C949.58 -56.2314 992.235 -55.1361 1036.85 -53.9969C1037.09 -53.975 1038.21 -53.8546 1039.12 -52.7592C1039.88 -51.8611 1040.04 -50.8424 1040.08 -50.5138C1041.66 -19.4395 1043.23 11.7991 1044.82 43.202C1045 49.2592 1040.47 53.7609 1034.81 53.2023H1034.82Z" fill="#FEDEC5"/>
<path d="M968.449 46.7396L912.011 41.2411C907.055 40.7591 902.932 35.7535 902.822 30.1345C903.425 1.94087 904.028 -26.1761 904.631 -54.2054C904.763 -54.7092 905.026 -55.4431 905.509 -56.177C905.849 -56.6918 906.21 -57.0533 906.495 -57.3052C907.241 -57.2833 907.987 -57.2723 908.732 -57.2395C909.643 -54.304 910.618 -51.3685 911.638 -48.4659C909.818 -48.1373 908.436 -46.33 908.349 -43.9751C908.239 -41.1601 910.015 -38.6299 912.329 -38.3123C913.36 -38.1699 914.336 -38.4985 915.092 -39.1666C915.794 -37.3703 916.518 -35.5849 917.263 -33.7996C917.187 -33.6243 917.099 -33.46 917.022 -33.2847C915.301 -29.8345 913.502 -26.9319 911.825 -24.5441C916.32 -21.7729 920.827 -18.9689 925.367 -16.1648C936.694 6.36595 951.212 27.5824 968.46 46.7505L968.449 46.7396Z" fill="#FEDEC5"/>
<path d="M1238.06 141.771C1226.36 143.786 1214.45 145.067 1202.37 145.571C1186.51 142.526 1170.77 139.448 1155.18 136.327C1123.05 129.897 1092.29 123.435 1062.85 116.961C1052.61 112.12 1042.74 106.742 1033.3 100.893C1071.05 109.261 1111.06 117.63 1153.5 125.921C1181.26 131.354 1209.47 136.633 1238.08 141.771H1238.06Z" fill="#C8591A"/>
<path d="M1044.39 -15.4197C1041.59 -7.61008 1038.88 1.01012 1036.46 10.4299C1031.59 29.3461 1029.04 46.959 1027.76 62.184C1037.07 67.5839 1047.29 73.0495 1058.41 78.318C1071.43 84.5066 1083.93 89.6108 1095.67 93.8607C1099.35 82.8965 1102.97 70.366 1106.1 56.3349C1109.62 40.4965 1111.84 25.6659 1113.26 12.3686C1104.63 7.38492 1095.04 2.43406 1084.56 -2.07867C1069.65 -8.49727 1056.1 -12.6814 1044.4 -15.4307L1044.39 -15.4197Z" fill="#EC8CB6"/>
<path d="M1175.8 120.127L1124.59 -8.5954L1197.54 -32.6268L1202.66 -28.6289L1217.79 -37.4243L1233.81 15.4798L1216.94 28.8209L1234.97 86.4787L1212.25 88.5927L1202.82 87.3769L1194.33 110.422L1175.8 120.116V120.127Z" fill="#ECECEC"/>
<path d="M1168.27 22.1614L1146.55 29.9272L1174.18 99.0311L1196.17 90.871L1168.27 22.1504V22.1614Z" fill="#C8B5AE"/>
<path d="M1143.19 24.7242L1132.49 -1.93591L1200.14 -25.332L1210.64 2.31391L1143.18 24.7242H1143.19Z" fill="#C8B5AE"/>
<path d="M1145.68 9.73993L1143.44 3.33232L1144.74 2.87227L1147.79 11.591L1146.2 12.1497L1140.7 6.90305L1142.93 13.2888L1141.64 13.7379L1138.61 5.04102L1140.19 4.4824L1145.68 9.729V9.73993ZM1156.02 8.73225L1154.6 9.22513L1152.85 6.97973L1150.04 7.96552L1150.16 10.7805L1148.8 11.2515L1148.63 1.50311L1149.75 1.10881L1156.02 8.73225ZM1149.98 6.65115L1152.03 5.92823L1149.83 3.09135L1149.98 6.65115ZM1159.67 -0.271303C1159.37 -0.380836 1159.02 -0.435618 1158.63 -0.424665C1158.26 -0.424665 1157.85 -0.358932 1157.41 -0.205587C1157.01 -0.0631946 1156.68 0.13395 1156.44 0.396828C1156.21 0.648752 1156.04 0.944487 1155.96 1.28404C1155.87 1.62359 1155.85 2.00696 1155.9 2.42318C1155.96 2.82845 1156.05 3.26659 1156.23 3.73758C1156.6 4.811 1157.09 5.54487 1157.67 5.96109C1158.26 6.37731 1158.92 6.44302 1159.65 6.1911C1160.11 6.0268 1160.5 5.80774 1160.81 5.512C1161.14 5.21626 1161.38 4.90959 1161.55 4.6029L1162.36 5.7968C1162.13 6.11444 1161.83 6.43206 1161.45 6.76065C1161.08 7.06734 1160.63 7.31929 1160.08 7.5055C1159.45 7.72456 1158.87 7.79028 1158.34 7.71361C1157.8 7.63694 1157.31 7.43976 1156.86 7.14402C1156.42 6.83733 1156.03 6.44304 1155.7 5.97205C1155.38 5.47916 1155.1 4.94243 1154.88 4.34C1154.66 3.71566 1154.53 3.10228 1154.5 2.4889C1154.47 1.88647 1154.53 1.32786 1154.7 0.813056C1154.87 0.287301 1155.14 -0.183676 1155.52 -0.577992C1155.9 -0.983262 1156.41 -1.28997 1157.03 -1.51999C1157.44 -1.66238 1157.86 -1.76096 1158.31 -1.79382C1158.76 -1.83763 1159.16 -1.82668 1159.52 -1.76096L1159.67 -0.260339V-0.271303ZM1170.26 3.77044L1168.93 4.23046L1167.56 0.363969L1163.94 1.63455L1165.31 5.50104L1163.99 5.96109L1160.89 -2.81246L1162.21 -3.27248L1163.48 0.320181L1167.1 -0.950398L1165.82 -4.54306L1167.14 -5.01407L1170.27 3.78141L1170.26 3.77044ZM1172.81 -1.35566C1172.72 -1.3228 1172.63 -1.28995 1172.55 -1.25709C1172.46 -1.22423 1172.37 -1.20234 1172.26 -1.16948L1173.61 2.6094L1172.28 3.06942L1169.15 -5.73696C1169.27 -5.79172 1169.4 -5.84649 1169.55 -5.91221C1169.71 -5.97793 1169.87 -6.04366 1170.04 -6.09843C1170.19 -6.16415 1170.34 -6.21892 1170.49 -6.27369C1170.63 -6.33941 1170.74 -6.38321 1170.83 -6.40512C1171.81 -6.75562 1172.63 -6.79944 1173.3 -6.54752C1173.97 -6.30655 1174.45 -5.76984 1174.75 -4.93739C1174.94 -4.41164 1174.99 -3.89684 1174.93 -3.40395C1174.85 -2.91105 1174.59 -2.46194 1174.14 -2.07858L1178.37 0.933559L1176.82 1.47026L1172.82 -1.36663L1172.81 -1.35566ZM1171.38 -5.1674C1171.32 -5.14549 1171.25 -5.12358 1171.17 -5.09072C1171.08 -5.05786 1170.99 -5.02499 1170.9 -4.98118L1171.8 -2.45099L1172.51 -2.70292C1172.93 -2.84531 1173.2 -3.07534 1173.34 -3.39298C1173.47 -3.71062 1173.45 -4.094 1173.29 -4.53213C1173.15 -4.92644 1172.94 -5.1893 1172.66 -5.29883C1172.38 -5.40837 1171.95 -5.36456 1171.38 -5.1674ZM1180.63 0.144925L1179.29 0.615906L1176.13 -8.2124L1177.46 -8.68338L1180.62 0.144925H1180.63ZM1185.6 -9.41726C1185.28 -9.52679 1184.92 -9.58154 1184.53 -9.57059C1184.15 -9.57059 1183.73 -9.50488 1183.29 -9.34058C1182.88 -9.18723 1182.54 -8.99008 1182.29 -8.7272C1182.05 -8.47528 1181.89 -8.16858 1181.8 -7.82903C1181.71 -7.48948 1181.69 -7.10613 1181.75 -6.67895C1181.8 -6.26273 1181.91 -5.82461 1182.08 -5.35362C1182.46 -4.26925 1182.95 -3.52441 1183.55 -3.10819C1184.15 -2.69196 1184.83 -2.62626 1185.58 -2.88914C1186.06 -3.05344 1186.45 -3.28343 1186.77 -3.57917C1187.1 -3.8749 1187.35 -4.1816 1187.51 -4.5102L1188.35 -3.30534C1188.12 -2.97674 1187.8 -2.65911 1187.42 -2.33052C1187.03 -2.01287 1186.57 -1.76095 1186.02 -1.57474C1185.39 -1.35568 1184.78 -1.27899 1184.24 -1.35566C1183.69 -1.43234 1183.17 -1.62951 1182.72 -1.92525C1182.27 -2.23194 1181.88 -2.62624 1181.54 -3.10819C1181.2 -3.60108 1180.91 -4.14875 1180.69 -4.76214C1180.46 -5.39742 1180.33 -6.02174 1180.3 -6.62416C1180.27 -7.23755 1180.33 -7.79618 1180.5 -8.32194C1180.67 -8.85864 1180.96 -9.32964 1181.34 -9.73491C1181.74 -10.1402 1182.25 -10.4688 1182.89 -10.6878C1183.3 -10.8412 1183.74 -10.9288 1184.2 -10.9726C1184.66 -11.0274 1185.07 -11.0164 1185.44 -10.9397L1185.61 -9.42822L1185.6 -9.41726ZM1196.44 -5.37551L1195.08 -4.90453L1193.67 -8.80388L1189.96 -7.50044L1191.36 -3.6011L1190.01 -3.13011L1186.82 -11.9913L1188.17 -12.4623L1189.48 -8.83674L1193.18 -10.1402L1191.87 -13.7657L1193.22 -14.2476L1196.43 -5.36455L1196.44 -5.37551ZM1200.86 -15.4306L1198.6 -14.631L1201.34 -7.08421L1199.98 -6.61323L1197.24 -14.16L1194.99 -13.3604L1194.51 -14.7077L1200.38 -16.7778L1200.87 -15.4306H1200.86Z" fill="#E33C25"/>
<path d="M1278.48 -82.1354L1303.86 -85.4214L1323.61 22.7637L1297.67 24.8886" stroke="black"/>
<path d="M1233.99 -75.29L1389.53 -97.9961L1411.46 6.61825L1252.36 22.7195L1233.99 -75.29Z" fill="#4F1C16"/>
<path d="M1431.67 100.937L1269.21 -81.9707" stroke="#282561" stroke-width="1.5" stroke-miterlimit="10"/>
<path d="M1055.48 -3.40381C1071.53 0.25457 1090.51 3.28863 1111.98 4.38396C1127.54 5.17259 1137.49 2.55477 1143.2 0.725581" stroke="#282561" stroke-width="1.5" stroke-miterlimit="10"/>
<path d="M1143.03 5.72088C1145.91 6.1371 1148.32 3.93551 1148.41 0.802891C1148.5 -2.32973 1146.22 -5.19949 1143.35 -5.60476C1140.47 -6.01002 1138.07 -3.80844 1138 -0.686766C1137.91 2.4349 1140.17 5.30466 1143.04 5.72088H1143.03Z" fill="#282561"/>
<path d="M1052.62 1.72257C1055.32 2.12784 1057.58 -0.029961 1057.68 -3.08591C1057.77 -6.14186 1055.66 -8.94587 1052.97 -9.32923C1050.29 -9.7126 1048.04 -7.56578 1047.94 -4.52078C1047.84 -1.47578 1049.93 1.3173 1052.62 1.72257Z" fill="#282561"/>
<path d="M1212.22 6.49805L1171.02 20.803L1195.5 81.0348L1229.46 68.1647L1216.8 29.2698L1220.52 26.2248L1212.22 6.50901V6.49805Z" fill="#C8B5AE"/>
<path d="M1176.82 24.5933L1210.21 12.5557" stroke="#888888"/>
<path d="M1178.97 29.5983L1212.42 17.6265" stroke="#888888"/>
<path d="M1188.41 32.8514L1214.79 23.2563" stroke="#888888"/>
<path d="M1184.31 41.9206L1210.62 32.4351" stroke="#888888"/>
<path d="M1189.19 50.6722C1190.56 48.9087 1193.69 45.3927 1198.42 44.0236C1200 43.5745 1201.88 43.0268 1204.3 43.684C1206.6 44.3084 1206.83 45.327 1208.21 45.2394C1211.19 45.0641 1211.66 40.1242 1214.43 40.2337C1215.31 40.2666 1216.08 40.8033 1216.56 41.2086C1216.41 43.1911 1217.57 44.9875 1220.21 46.5647C1219.64 47.3862 1218.69 48.5473 1217.2 49.5002C1215.68 50.475 1214.24 50.8584 1213.27 51.0117C1212.81 50.8255 1212.15 50.5188 1211.46 49.9492C1210.26 48.9634 1210.03 48.0982 1209.53 48.0106C1208.98 47.901 1208.19 48.7882 1207.16 52.9395C1202.48 54.8016 1196.4 55.6888 1190.03 56.346L1190.45 51.6032L1189.18 50.6503L1189.19 50.6722Z" fill="#231F20" stroke="#231F20" stroke-width="2" stroke-miterlimit="10"/>
</g>
<path d="M295 -44.0807C297.241 -43.6693 300.729 -43.312 304.891 -44.0049C309.737 -44.8169 313.313 -46.7116 315.356 -48C332.907 -2.68968 350.448 42.6315 368 87.9418C366.245 89.5441 360.549 94.3188 352.766 93.9832C350.901 93.9074 349.256 93.5501 347.854 93.0954C330.236 47.3736 312.629 1.64105 295.011 -44.0807H295Z" fill="#009444"/>
<path d="M316 -48.6798C335.775 -59.7865 355.54 -70.8933 375.315 -82L427 57.0985C407.366 68.062 387.722 79.0365 368.088 90C350.732 43.7771 333.366 -2.45688 316.011 -48.6798H316Z" fill="#007A37"/>
<path d="M381 -64C392.305 -57.3916 405.992 -52.6153 424.466 -51.5139L425 103.968C407.477 104.306 391.909 102.038 381.545 92.8234C381.363 40.5453 381.182 -11.7219 381 -64Z" fill="#662D91"/>
<path d="M425 -52.3309C448.667 -55.8836 472.333 -59.4363 496 -63V93.605C472.518 97.07 449.025 100.535 425.543 104C425.358 51.8824 425.185 -0.22426 425 -52.3419V-52.3309Z" fill="#430D61"/>
<path d="M591 527.989C431.077 473.877 271.165 419.755 111.242 365.643C111.165 263.429 111.077 161.214 111 59C270.802 95.0963 430.615 131.182 590.417 167.278C590.615 287.519 590.802 407.759 591 528V527.989Z" fill="#773826"/>
<path d="M419 190.67L240.088 147.317C240.088 147.317 240.022 165.779 240 127C299.506 140.7 359.012 154.388 418.518 168.088C418.682 215.061 419 190.67 419 190.67Z" fill="#FFB49E"/>
<path d="M111 366.621V348L1689 910.845V931L111 366.621Z" fill="#F8F8F9"/>
<path d="M589.833 166.944C643.479 157.629 697.125 148.315 750.771 139L1690 334.747C1689.11 526.494 1688.22 718.253 1687.34 910C1321.23 779.181 955.12 648.372 589 517.552L589.833 166.933V166.944Z" fill="#DBC17F"/>
<path d="M589 166.989C956.333 251.989 1323.67 337 1691 422L1689.95 335.068L750.052 139L589 166.989Z" fill="#735F2A"/>
<path d="M1636 848C1371.75 752.558 1107.5 657.117 843.248 561.686C838.104 559.831 832.959 557.965 827.815 556.11L810.922 550.007C751.611 528.592 692.311 507.165 633 485.75V216C692.311 230.248 751.611 244.495 810.922 258.743C816.549 260.093 822.177 261.443 827.815 262.793C832.959 264.034 838.104 265.263 843.248 266.503L861.085 270.784C1119.18 332.78 1377.28 394.787 1635.39 456.783C1635.58 587.185 1635.79 717.587 1636 848Z" fill="#A59260" stroke="#231F20" stroke-miterlimit="10"/>
<path d="M812 400.677L633 486V216C692.67 230.261 752.33 244.522 812 258.783" fill="#7D6F47"/>
<path d="M843 267.736V562C838.067 560.151 833.133 558.29 828.2 556.441L812 550.357V260C817.396 261.346 822.793 262.692 828.2 264.038C833.133 265.274 838.067 266.5 843 267.736Z" fill="#DBC17F" stroke="#231F20" stroke-miterlimit="10"/>
<path d="M237.648 767.944C242.017 786.898 205.201 803.457 156.095 804.898C107.73 806.328 65.5972 792.507 61.348 774.063C57.0987 755.619 92.2476 739.115 140.504 737.186C189.49 735.224 233.279 748.98 237.648 767.944Z" fill="#A97C50"/>
<path d="M996 302V514.512L1418 649V404.638L996 302Z" fill="#95814D"/>
<path d="M994.953 512L843 560.128L1409 768V641.024L994.953 512Z" fill="#61522C"/>
<path d="M1636 848C1371.75 752.558 1107.5 657.117 843.248 561.686C838.104 559.831 832.959 557.965 827.815 556.11L810.922 550.007C751.611 528.592 692.311 507.165 633 485.75V216C692.311 230.248 751.611 244.495 810.922 258.743C816.549 260.093 822.177 261.443 827.815 262.793C832.959 264.034 838.104 265.263 843.248 266.503L861.085 270.784C1119.18 332.78 1377.28 394.787 1635.39 456.783C1635.58 587.185 1635.79 717.587 1636 848Z" stroke="#231F20" stroke-miterlimit="10"/>
<path d="M142.298 323.376L128 121V336.663L560 491L142.298 323.376Z" fill="#602A1A"/>
<path d="M83.0133 346.341C79.3948 382.848 51.1264 415.215 8.39473 415.215C-37.155 415.215 -67.0684 384.381 -67.0684 346.341C-67.0684 308.3 -47.7255 291.093 8.39473 294.258C68.3419 288.179 83.0133 308.3 83.0133 346.341Z" fill="#FBB042"/>
<path d="M8.54509 319.014C38.7151 318.373 63.0775 313.386 62.9601 307.876C62.8426 302.366 38.2897 298.42 8.11972 299.062C-22.0503 299.704 -46.4126 304.691 -46.2951 310.2C-46.1777 315.71 -21.6249 319.656 8.54509 319.014Z" fill="#321111"/>
<path d="M33.8783 169.863C28.2093 184.748 38.6043 213.15 55.5895 199.623C75.4147 183.839 91.2706 182.733 111.293 180.685C121.864 179.6 143.4 186.095 152.83 199.623C157.545 184.036 63.7587 91.35 33.8674 169.863H33.8783Z" fill="#83A63E"/>
<path d="M47.8491 132.424C19.2516 144.429 -3.5123 124.746 5.87398 95.5774C24.6465 52.586 62.5974 52.6079 71.9837 52.6079C96.1182 52.6079 148.806 93.9673 145.736 114.023C93.4318 104.493 91.6992 114.023 47.8381 132.424H47.8491Z" fill="#A2CD3D"/>
<path d="M81.9412 253.841C53.1245 265.134 43.0474 230.807 51.381 216.14C77.917 181.693 119.497 197.651 123.511 198.571C140.945 202.558 178.874 243.009 175.815 263.053C136.921 249.23 132.908 233.885 81.9412 253.841Z" fill="#A2CD3D"/>
<path d="M72.555 166.325C10.8644 195.493 5.85322 225.757 8.39716 313.131" stroke="#A2CD3D" stroke-width="2" stroke-linecap="round"/>
<path d="M-72.2764 134.089C-9.24796 135.622 -4.57675 172.951 6.26791 261.048" stroke="#A2CD3D" stroke-width="2" stroke-linecap="round"/>
<path d="M-103.121 224.672C-11.9339 178.614 -0.957599 268.112 7.11284 276.382" stroke="#83A63E" stroke-width="2" stroke-linecap="round"/>
<path d="M41.7089 91.0981C-34.73 117.2 16.2585 251.563 8.39637 313.131" stroke="#83A63E" stroke-width="2" stroke-linecap="round"/>
<path d="M91.3258 221.605C73.891 218.538 5.86247 228.199 8.40642 313.141" stroke="#83A63E" stroke-width="2" stroke-linecap="round"/>
<g filter="url(#filter0_d_232_3707)">
<path d="M882.022 559.927L876.916 351.526L925.931 341.4V537.462L882.022 559.927Z" fill="#36696C"/>
<path d="M886.107 561.97L881.001 353.568L922.868 345.485L942.27 344.464H969.841L930.016 539.504L886.107 561.97Z" fill="white"/>
<path d="M927.974 562.991V352.633L976.989 342.421V542.567L927.974 562.991Z" fill="#36696C"/>
<path d="M882.022 559.928L876.916 351.612C896.596 357.256 907.862 357.947 927.974 352.633V562.991C915.72 571.16 887.128 572.181 882.022 559.928Z" fill="#4FB1B7"/>
<path d="M917.995 371.734L888.39 372.391L892.23 507.459L911.632 506.898L917.995 371.734Z" fill="#E5E5E5"/>
<ellipse cx="902.071" cy="528.733" rx="8.16923" ry="11.2327" transform="rotate(-3.37745 902.071 528.733)" fill="#36696C"/>
</g>
<g filter="url(#filter1_d_232_3707)">
<path d="M945.333 572.181L940.228 363.779L989.243 353.654V549.715L945.333 572.181Z" fill="#36696C"/>
<path d="M949.418 574.223L944.312 365.821L986.18 357.738L1005.58 356.717H1033.15L993.328 551.758L949.418 574.223Z" fill="white"/>
<path d="M991.285 575.244V364.886L1040.3 354.675V554.821L991.285 575.244Z" fill="#36696C"/>
<path d="M945.333 572.181L940.228 363.866C959.908 369.509 971.173 370.201 991.285 364.887V575.244C979.031 583.414 950.439 584.435 945.333 572.181Z" fill="#4FB1B7"/>
<path d="M981.306 383.987L951.701 384.644L955.542 519.712L974.944 519.152L981.306 383.987Z" fill="#E5E5E5"/>
<ellipse cx="965.382" cy="540.986" rx="8.16923" ry="11.2327" transform="rotate(-3.37745 965.382 540.986)" fill="#36696C"/>
</g>
<g filter="url(#filter2_d_232_3707)">
<path d="M1014.77 592.604L1009.67 384.203L1058.68 374.078V570.139L1014.77 592.604Z" fill="#36696C"/>
<path d="M1018.86 594.647L1013.75 386.245L1055.62 378.162L1075.02 377.141H1102.59L1062.77 572.181L1018.86 594.647Z" fill="white"/>
<path d="M1060.72 595.668V385.31L1109.74 375.099V575.245L1060.72 595.668Z" fill="#36696C"/>
<path d="M1014.77 592.605L1009.67 384.29C1029.35 389.933 1040.61 390.625 1060.72 385.311V595.668C1048.47 603.838 1019.88 604.859 1014.77 592.605Z" fill="#4FB1B7"/>
<path d="M1050.74 404.411L1021.14 405.068L1024.98 540.136L1044.38 539.575L1050.74 404.411Z" fill="#E5E5E5"/>
<ellipse cx="1034.82" cy="561.41" rx="8.16923" ry="11.2327" transform="rotate(-3.37745 1034.82 561.41)" fill="#36696C"/>
</g>
<path d="M1131.18 644.684L1331.33 706.562L1352.77 683.595L1159.75 627.345L1131.18 644.684Z" fill="#6C3737"/>
<path d="M1134.25 626.025L1324.63 698.804L1345.62 675.317V642.641L1307.84 638.556L1166.34 598.731L1134.25 626.025Z" fill="white"/>
<path d="M1131.18 609.964L1331.33 669.191L1353.79 639.577L1178.15 588.52L1131.18 609.964Z" fill="#6C3737"/>
<path d="M1130.22 646.1L1329.29 706.974C1323.16 695.741 1323.02 685.417 1331.33 669.191L1132.68 608.943C1121.83 616.137 1124.32 633.519 1130.22 646.1Z" fill="#B64E4E"/>
<path d="M1285.37 664.085V681.445L1179.18 647.969L1179.17 635.493L1285.37 664.085Z" fill="#DBDFC2"/>
<path d="M1166.04 635.309C1167.66 631.796 1164.49 627.242 1159 625.139C1153.54 623.035 1147.81 624.117 1146.15 627.569C1144.5 631.02 1147.54 635.636 1153.05 637.801C1158.57 639.966 1164.43 638.863 1166.06 635.33L1166.04 635.309Z" fill="#6C3737"/>
<path d="M1140.53 602.596L1332.39 661.913L1352.95 639.896L1167.92 585.975L1140.53 602.596Z" fill="#6C3737"/>
<path d="M1143.47 584.711L1325.97 654.476L1346.09 631.962V600.638L1309.88 596.723L1174.23 558.547L1143.47 584.711Z" fill="white"/>
<path d="M1140.53 569.314L1332.39 626.089L1353.93 597.701L1185.56 548.757L1140.53 569.314Z" fill="#6C3737"/>
<path d="M1139.61 603.955L1330.43 662.308C1324.56 651.541 1324.43 641.644 1332.39 626.09L1141.96 568.336C1131.57 575.232 1133.95 591.895 1139.61 603.955Z" fill="#B64E4E"/>
<path d="M1288.34 621.195V637.835L1186.54 605.746L1186.54 593.786L1288.34 621.195Z" fill="#DBDFC2"/>
<path d="M1173.95 593.61C1175.49 590.243 1172.46 585.877 1167.19 583.861C1161.97 581.844 1156.47 582.882 1154.88 586.19C1153.29 589.499 1156.21 593.924 1161.5 595.999C1166.78 598.074 1172.4 597.017 1173.97 593.63L1173.95 593.61Z" fill="#6C3737"/>
<path d="M1150.45 563.289L1333.43 619.859L1353.03 598.862L1176.57 547.438L1150.45 563.289Z" fill="#6C3737"/>
<path d="M1153.25 546.232L1327.31 612.767L1346.5 591.295V561.422L1311.96 557.687L1182.59 521.279L1153.25 546.232Z" fill="white"/>
<path d="M1150.45 531.548L1333.43 585.694L1353.97 558.621L1193.39 511.943L1150.45 531.548Z" fill="#6C3737"/>
<path d="M1149.57 564.584L1331.56 620.236C1325.96 609.967 1325.84 600.528 1333.43 585.694L1151.82 530.614C1141.91 537.191 1144.17 553.083 1149.57 564.584Z" fill="#B64E4E"/>
<path d="M1291.42 581.026V596.897L1194.33 566.293L1194.33 554.887L1291.42 581.026Z" fill="#DBDFC2"/>
<path d="M1182.32 554.718C1183.8 551.507 1180.9 547.343 1175.88 545.42C1170.89 543.497 1165.65 544.486 1164.14 547.642C1162.62 550.797 1165.41 555.017 1170.45 556.996C1175.49 558.975 1180.85 557.967 1182.34 554.737L1182.32 554.718Z" fill="#6C3737"/>
<path d="M136.175 457.483H-1093.77L-1322.91 283.896V313.251L-1100.51 481.734H136.175V457.483Z" fill="#A71E22"/>
<path d="M56.7309 728.401C-140.633 727.831 -338.008 727.273 -535.372 726.703C-504.209 644.871 -473.056 563.051 -441.893 481.219C-248.827 481.537 -55.7619 481.865 137.304 482.183C110.439 564.256 83.5848 646.328 56.7309 728.39V728.401Z" fill="#AA1E22"/>
<path d="M-1322.91 283.349L-1093.77 457.483H136.175L-113.11 283.349H-1322.91Z" fill="#BB1F37"/>
<path d="M-1005.77 475.303C-812.706 475.632 -55.7621 475.96 137.304 476.289C136.722 479.52 131.295 492.566 131.295 492.566L-431.29 494.329L-517.312 726.647L-535.383 726.713L-450.051 496.049C-634.125 496.651 -818.189 497.253 -1002.26 497.856" fill="#480F20"/>
<path opacity="0.4" d="M9.10908 508.186H95.2742L32.2787 699.758C2.32158 700.678 -27.6356 701.609 -57.5928 702.529C-35.3552 637.752 -13.1175 572.963 9.10908 508.186Z" fill="#ED1C24"/>
<path d="M234.39 595.593C233.096 610.894 231.352 626.908 229.072 643.601C185.594 685.584 139.145 717.349 82.8716 715.29C80.1522 705.289 77.5315 694.928 75.0643 684.215C67.5531 651.586 62.7285 621.201 59.6801 593.829C59.6582 593.643 59.6362 593.468 59.6143 593.292L232.811 596.173C233.359 595.976 233.896 595.779 234.39 595.593Z" fill="#007E8D" stroke="#231F20" stroke-miterlimit="10"/>
<path d="M133.708 609.175C91.7438 608.069 59.6045 601.749 59.6045 594.136C59.6045 587.575 83.454 581.989 116.898 579.853C118.137 583.73 119.782 587.936 122.03 592.285C125.67 599.339 129.881 604.925 133.708 609.175Z" fill="#004C5E"/>
<path d="M234.39 593.687C234.39 602.088 195.266 608.901 147.008 608.901C142.49 608.901 138.049 608.835 133.718 608.726C129.891 604.476 125.68 598.89 122.04 591.836C119.803 587.488 118.147 583.293 116.908 579.404C126.284 578.802 136.426 578.473 146.997 578.473C195.255 578.473 234.379 585.286 234.379 593.687H234.39Z" fill="#007E8E"/>
<path d="M229.071 643.6C227.668 653.994 226.034 664.652 224.17 675.528C218.687 707.523 211.976 736.965 204.75 763.625C193.785 768.083 175.341 773.976 151.887 774.031C127.686 774.096 108.716 767.941 97.6415 763.384C92.5317 748.455 87.5316 732.408 82.8604 715.288C139.145 717.348 185.594 685.583 229.06 643.6H229.071Z" fill="#00687A" stroke="#231F20" stroke-miterlimit="10"/>
<path opacity="0.7" d="M68.749 605.866C80.9314 609.985 93.1249 611.88 105.329 611.431C105.022 654.816 113.531 706.625 125.878 762.092L102.544 757.218C84.7803 703.471 72.2908 652.396 68.76 605.855L68.749 605.866Z" fill="#008E97"/>
<path d="M232.34 571.002L227.625 588.265L224.061 601.31C213.041 604.881 194.038 607.608 171.187 608.747L130.769 609.076C115.275 608.572 101.206 607.345 89.7584 605.615L89.0566 598.506L100.515 594.935L111.064 599.229L120.9 596.907L166.154 598.342L171.702 595.658L195.31 594.946L206.944 583.073L211.78 578.155L232.34 571.002Z" fill="#F4D8A1"/>
<path d="M206.945 583.072C191.297 580.498 170.2 578.932 146.998 578.932C98.7287 578.932 59.6045 585.745 59.6045 594.146C59.6045 598.736 71.2825 602.854 89.759 605.636C101.207 607.367 115.264 608.594 130.769 609.097C136.032 609.273 141.449 609.36 146.998 609.36C155.386 609.36 163.5 609.152 171.187 608.769C194.039 607.63 213.042 604.902 224.062 601.332C230.652 599.185 234.391 596.753 234.391 594.157C234.391 592.076 231.99 590.094 227.625 588.286" stroke="#231F20" stroke-miterlimit="10"/>
<g filter="url(#filter3_b_232_3707)">
<path d="M0 0H1366V768H0V0Z" fill="black" fill-opacity="0.35"/>
</g>
<path d="M829.478 479.76C790.506 538.605 729.45 656.297 797.001 656.297C836.043 656.297 856.494 645.476 866.824 635.404C878.823 623.707 876.942 610.315 876.728 594.752C875.274 489.098 844.127 486.309 829.478 479.76Z" fill="#CB8641" stroke="#8D0F3A" stroke-width="7"/>
<path d="M518.482 479.76C557.454 538.605 618.51 656.297 550.959 656.297C511.917 656.297 491.466 645.476 481.136 635.404C469.137 623.707 471.018 610.315 471.232 594.752C472.686 489.098 503.833 486.309 518.482 479.76Z" fill="#CB8641" stroke="#8D0F3A" stroke-width="7"/>
<rect x="513.979" y="388.66" width="320.003" height="274.565" rx="41.5" fill="#CB8641" stroke="#8D0F3A" stroke-width="7"/>
<g filter="url(#filter4_i_232_3707)">
<rect x="530.59" y="402.292" width="286.779" height="247.3" rx="45" fill="#FFD873"/>
</g>
<path d="M796.595 352.419H539.578C514.139 352.419 510.431 392.106 510.431 417.903C510.431 430.083 528.979 463.543 687.959 463.543C886.684 463.543 831.041 380.2 828.391 366.31C826.272 355.198 806.311 352.419 796.595 352.419Z" fill="#834612" fill-opacity="0.5"/>
<rect x="582.741" y="556.824" width="78.1968" height="78.1968" rx="25" fill="#FEBD01"/>
<rect x="588.997" y="563.08" width="65.6853" height="65.6853" rx="21" fill="#FEBD01"/>
<rect x="689" y="469" width="78.1968" height="78.1968" rx="25" fill="#FEBD01"/>
<rect x="695.256" y="475.255" width="65.6853" height="65.6853" rx="21" fill="#FEBD01"/>
<rect x="689" y="556.824" width="78.1968" height="78.1968" rx="25" fill="#FEBD01"/>
<rect x="695.256" y="563.08" width="65.6853" height="65.6853" rx="21" fill="#FEBD01"/>
<path d="M721.65 511.436C721.65 510.413 721.985 509.568 722.653 508.899C723.322 508.191 724.168 507.837 725.19 507.837C726.803 507.837 728.258 507.601 729.556 507.129C730.854 506.618 731.877 505.811 732.624 504.71C733.411 503.609 733.804 502.153 733.804 500.344C733.804 499.007 733.47 497.827 732.801 496.804C732.172 495.781 731.287 494.975 730.146 494.385C729.045 493.795 727.786 493.5 726.37 493.5C725.269 493.5 724.227 493.697 723.243 494.09C722.299 494.483 721.434 495.014 720.647 495.683C720.018 496.234 719.251 496.647 718.346 496.922C717.481 497.158 716.596 496.942 715.691 496.273C714.747 495.565 714.236 494.719 714.157 493.736C714.079 492.753 714.452 491.848 715.278 491.022C716.694 489.567 718.346 488.446 720.234 487.659C722.162 486.833 724.207 486.42 726.37 486.42C729.084 486.42 731.523 487.049 733.686 488.308C735.889 489.527 737.639 491.179 738.937 493.264C740.235 495.349 740.884 497.709 740.884 500.344C740.884 502.311 740.589 504.061 739.999 505.595C739.409 507.09 738.564 508.388 737.462 509.489C736.4 510.551 735.142 511.416 733.686 512.085C732.27 512.714 730.717 513.167 729.025 513.442C728.947 513.481 728.868 513.521 728.789 513.56C728.75 513.599 728.73 513.658 728.73 513.737V515.92C728.73 516.943 728.396 517.808 727.727 518.516C727.059 519.185 726.213 519.519 725.19 519.519C724.168 519.519 723.322 519.185 722.653 518.516C721.985 517.808 721.65 516.943 721.65 515.92V511.436ZM724.895 530.08C723.755 530.08 722.87 529.785 722.24 529.195C721.65 528.566 721.355 527.681 721.355 526.54V525.537C721.355 524.396 721.65 523.531 722.24 522.941C722.87 522.312 723.755 521.997 724.895 521.997H725.662C726.803 521.997 727.668 522.312 728.258 522.941C728.888 523.531 729.202 524.396 729.202 525.537V526.54C729.202 527.681 728.888 528.566 728.258 529.195C727.668 529.785 726.803 530.08 725.662 530.08H724.895Z" fill="#FFEEAE"/>
<rect x="582" y="469" width="78.1968" height="78.1968" rx="25" fill="#FEBD01"/>
<rect x="588.256" y="475.255" width="65.6853" height="65.6853" rx="21" fill="#FEBD01"/>
<path d="M614.647 511.436C614.647 510.413 614.982 509.568 615.65 508.899C616.319 508.191 617.165 507.837 618.187 507.837C619.8 507.837 621.255 507.601 622.553 507.129C623.851 506.618 624.874 505.811 625.621 504.71C626.408 503.609 626.801 502.153 626.801 500.344C626.801 499.007 626.467 497.827 625.798 496.804C625.169 495.781 624.284 494.975 623.143 494.385C622.042 493.795 620.783 493.5 619.367 493.5C618.266 493.5 617.224 493.697 616.24 494.09C615.296 494.483 614.431 495.014 613.644 495.683C613.015 496.234 612.248 496.647 611.343 496.922C610.478 497.158 609.593 496.942 608.688 496.273C607.744 495.565 607.233 494.719 607.154 493.736C607.076 492.753 607.449 491.848 608.275 491.022C609.691 489.567 611.343 488.446 613.231 487.659C615.159 486.833 617.204 486.42 619.367 486.42C622.081 486.42 624.52 487.049 626.683 488.308C628.886 489.527 630.636 491.179 631.934 493.264C633.232 495.349 633.881 497.709 633.881 500.344C633.881 502.311 633.586 504.061 632.996 505.595C632.406 507.09 631.561 508.388 630.459 509.489C629.397 510.551 628.139 511.416 626.683 512.085C625.267 512.714 623.714 513.167 622.022 513.442C621.944 513.481 621.865 513.521 621.786 513.56C621.747 513.599 621.727 513.658 621.727 513.737V515.92C621.727 516.943 621.393 517.808 620.724 518.516C620.056 519.185 619.21 519.519 618.187 519.519C617.165 519.519 616.319 519.185 615.65 518.516C614.982 517.808 614.647 516.943 614.647 515.92V511.436ZM617.892 530.08C616.752 530.08 615.867 529.785 615.237 529.195C614.647 528.566 614.352 527.681 614.352 526.54V525.537C614.352 524.396 614.647 523.531 615.237 522.941C615.867 522.312 616.752 521.997 617.892 521.997H618.659C619.8 521.997 620.665 522.312 621.255 522.941C621.885 523.531 622.199 524.396 622.199 525.537V526.54C622.199 527.681 621.885 528.566 621.255 529.195C620.665 529.785 619.8 530.08 618.659 530.08H617.892Z" fill="#FFEEAE"/>
<path d="M804.658 338.977H530.74C503.629 338.977 499.677 378.664 499.677 404.461C499.677 416.641 519.445 450.101 688.878 450.101C900.67 450.101 841.368 366.758 838.545 352.868C836.285 341.755 815.012 338.977 804.658 338.977Z" fill="#CB8641" stroke="#8D0F3A" stroke-width="7"/>
<rect x="713.979" y="396.5" width="31" height="64" rx="15.5" fill="#E4AA52" stroke="#8D0F3A" stroke-width="7"/>
<rect x="607.979" y="396.5" width="32" height="64" rx="16" fill="#E4AA52" stroke="#8D0F3A" stroke-width="7"/>
<path d="M614.647 597.436C614.647 596.413 614.982 595.568 615.65 594.899C616.319 594.191 617.165 593.837 618.187 593.837C619.8 593.837 621.255 593.601 622.553 593.129C623.851 592.618 624.874 591.811 625.621 590.71C626.408 589.609 626.801 588.153 626.801 586.344C626.801 585.007 626.467 583.827 625.798 582.804C625.169 581.781 624.284 580.975 623.143 580.385C622.042 579.795 620.783 579.5 619.367 579.5C618.266 579.5 617.224 579.697 616.24 580.09C615.296 580.483 614.431 581.014 613.644 581.683C613.015 582.234 612.248 582.647 611.343 582.922C610.478 583.158 609.593 582.942 608.688 582.273C607.744 581.565 607.233 580.719 607.154 579.736C607.076 578.753 607.449 577.848 608.275 577.022C609.691 575.567 611.343 574.446 613.231 573.659C615.159 572.833 617.204 572.42 619.367 572.42C622.081 572.42 624.52 573.049 626.683 574.308C628.886 575.527 630.636 577.179 631.934 579.264C633.232 581.349 633.881 583.709 633.881 586.344C633.881 588.311 633.586 590.061 632.996 591.595C632.406 593.09 631.561 594.388 630.459 595.489C629.397 596.551 628.139 597.416 626.683 598.085C625.267 598.714 623.714 599.167 622.022 599.442C621.944 599.481 621.865 599.521 621.786 599.56C621.747 599.599 621.727 599.658 621.727 599.737V601.92C621.727 602.943 621.393 603.808 620.724 604.516C620.056 605.185 619.21 605.519 618.187 605.519C617.165 605.519 616.319 605.185 615.65 604.516C614.982 603.808 614.647 602.943 614.647 601.92V597.436ZM617.892 616.08C616.752 616.08 615.867 615.785 615.237 615.195C614.647 614.566 614.352 613.681 614.352 612.54V611.537C614.352 610.396 614.647 609.531 615.237 608.941C615.867 608.312 616.752 607.997 617.892 607.997H618.659C619.8 607.997 620.665 608.312 621.255 608.941C621.885 609.531 622.199 610.396 622.199 611.537V612.54C622.199 613.681 621.885 614.566 621.255 615.195C620.665 615.785 619.8 616.08 618.659 616.08H617.892Z" fill="#FFEEAE"/>
<path d="M721.65 597.436C721.65 596.413 721.985 595.568 722.653 594.899C723.322 594.191 724.168 593.837 725.19 593.837C726.803 593.837 728.258 593.601 729.556 593.129C730.854 592.618 731.877 591.811 732.624 590.71C733.411 589.609 733.804 588.153 733.804 586.344C733.804 585.007 733.47 583.827 732.801 582.804C732.172 581.781 731.287 580.975 730.146 580.385C729.045 579.795 727.786 579.5 726.37 579.5C725.269 579.5 724.227 579.697 723.243 580.09C722.299 580.483 721.434 581.014 720.647 581.683C720.018 582.234 719.251 582.647 718.346 582.922C717.481 583.158 716.596 582.942 715.691 582.273C714.747 581.565 714.236 580.719 714.157 579.736C714.079 578.753 714.452 577.848 715.278 577.022C716.694 575.567 718.346 574.446 720.234 573.659C722.162 572.833 724.207 572.42 726.37 572.42C729.084 572.42 731.523 573.049 733.686 574.308C735.889 575.527 737.639 577.179 738.937 579.264C740.235 581.349 740.884 583.709 740.884 586.344C740.884 588.311 740.589 590.061 739.999 591.595C739.409 593.09 738.564 594.388 737.462 595.489C736.4 596.551 735.142 597.416 733.686 598.085C732.27 598.714 730.717 599.167 729.025 599.442C728.947 599.481 728.868 599.521 728.789 599.56C728.75 599.599 728.73 599.658 728.73 599.737V601.92C728.73 602.943 728.396 603.808 727.727 604.516C727.059 605.185 726.213 605.519 725.19 605.519C724.168 605.519 723.322 605.185 722.653 604.516C721.985 603.808 721.65 602.943 721.65 601.92V597.436ZM724.895 616.08C723.755 616.08 722.87 615.785 722.24 615.195C721.65 614.566 721.355 613.681 721.355 612.54V611.537C721.355 610.396 721.65 609.531 722.24 608.941C722.87 608.312 723.755 607.997 724.895 607.997H725.662C726.803 607.997 727.668 608.312 728.258 608.941C728.888 609.531 729.202 610.396 729.202 611.537V612.54C729.202 613.681 728.888 614.566 728.258 615.195C727.668 615.785 726.803 616.08 725.662 616.08H724.895Z" fill="#FFEEAE"/>
<path d="M630.086 286C604.607 286 601.27 320.882 602.787 338.323H639.185C642.218 332.257 630.086 313.299 677.552 313.299C720.583 313.299 715.015 332.257 714.257 338.323H746.106C746.106 300.105 727.907 287.517 718.807 286H630.086Z" fill="#CB8641" stroke="#8D0F3A" stroke-width="7"/>
<defs>
<filter id="filter0_d_232_3707" x="874.916" y="340.4" width="104.073" height="231.737" filterUnits="userSpaceOnUse" color-interpolation-filters="sRGB">
<feFlood flood-opacity="0" result="BackgroundImageFix"/>
<feColorMatrix in="SourceAlpha" type="matrix" values="0 0 0 0 0 0 0 0 0 0 0 0 0 0 0 0 0 0 127 0" result="hardAlpha"/>
<feOffset dy="1"/>
<feGaussianBlur stdDeviation="1"/>
<feComposite in2="hardAlpha" operator="out"/>
<feColorMatrix type="matrix" values="0 0 0 0 0 0 0 0 0 0 0 0 0 0 0 0 0 0 0.25 0"/>
<feBlend mode="normal" in2="BackgroundImageFix" result="effect1_dropShadow_232_3707"/>
<feBlend mode="normal" in="SourceGraphic" in2="effect1_dropShadow_232_3707" result="shape"/>
</filter>
<filter id="filter1_d_232_3707" x="938.228" y="352.654" width="104.073" height="231.737" filterUnits="userSpaceOnUse" color-interpolation-filters="sRGB">
<feFlood flood-opacity="0" result="BackgroundImageFix"/>
<feColorMatrix in="SourceAlpha" type="matrix" values="0 0 0 0 0 0 0 0 0 0 0 0 0 0 0 0 0 0 127 0" result="hardAlpha"/>
<feOffset dy="1"/>
<feGaussianBlur stdDeviation="1"/>
<feComposite in2="hardAlpha" operator="out"/>
<feColorMatrix type="matrix" values="0 0 0 0 0 0 0 0 0 0 0 0 0 0 0 0 0 0 0.25 0"/>
<feBlend mode="normal" in2="BackgroundImageFix" result="effect1_dropShadow_232_3707"/>
<feBlend mode="normal" in="SourceGraphic" in2="effect1_dropShadow_232_3707" result="shape"/>
</filter>
<filter id="filter2_d_232_3707" x="1007.67" y="373.078" width="104.073" height="231.737" filterUnits="userSpaceOnUse" color-interpolation-filters="sRGB">
<feFlood flood-opacity="0" result="BackgroundImageFix"/>
<feColorMatrix in="SourceAlpha" type="matrix" values="0 0 0 0 0 0 0 0 0 0 0 0 0 0 0 0 0 0 127 0" result="hardAlpha"/>
<feOffset dy="1"/>
<feGaussianBlur stdDeviation="1"/>
<feComposite in2="hardAlpha" operator="out"/>
<feColorMatrix type="matrix" values="0 0 0 0 0 0 0 0 0 0 0 0 0 0 0 0 0 0 0.25 0"/>
<feBlend mode="normal" in2="BackgroundImageFix" result="effect1_dropShadow_232_3707"/>
<feBlend mode="normal" in="SourceGraphic" in2="effect1_dropShadow_232_3707" result="shape"/>
</filter>
<filter id="filter3_b_232_3707" x="-4" y="-4" width="1374" height="776" filterUnits="userSpaceOnUse" color-interpolation-filters="sRGB">
<feFlood flood-opacity="0" result="BackgroundImageFix"/>
<feGaussianBlur in="BackgroundImageFix" stdDeviation="2"/>
<feComposite in2="SourceAlpha" operator="in" result="effect1_backgroundBlur_232_3707"/>
<feBlend mode="normal" in="SourceGraphic" in2="effect1_backgroundBlur_232_3707" result="shape"/>
</filter>
<filter id="filter4_i_232_3707" x="530.59" y="402.292" width="286.779" height="248.3" filterUnits="userSpaceOnUse" color-interpolation-filters="sRGB">
<feFlood flood-opacity="0" result="BackgroundImageFix"/>
<feBlend mode="normal" in="SourceGraphic" in2="BackgroundImageFix" result="shape"/>
<feColorMatrix in="SourceAlpha" type="matrix" values="0 0 0 0 0 0 0 0 0 0 0 0 0 0 0 0 0 0 127 0" result="hardAlpha"/>
<feMorphology radius="3" operator="erode" in="SourceAlpha" result="effect1_innerShadow_232_3707"/>
<feOffset dy="1"/>
<feGaussianBlur stdDeviation="2.5"/>
<feComposite in2="hardAlpha" operator="arithmetic" k2="-1" k3="1"/>
<feColorMatrix type="matrix" values="0 0 0 0 0.996078 0 0 0 0 0.741176 0 0 0 0 0.00392157 0 0 0 1 0"/>
<feBlend mode="normal" in2="shape" result="effect1_innerShadow_232_3707"/>
</filter>
</defs>
</svg>
