<svg width="83" height="83" viewBox="0 0 83 83" fill="none" xmlns="http://www.w3.org/2000/svg">
<mask id="mask0_408_13828" style="mask-type:alpha" maskUnits="userSpaceOnUse" x="0" y="0" width="83" height="83">
<circle cx="41.5" cy="41.5" r="41.5" fill="#D9D9D9"/>
</mask>
<g mask="url(#mask0_408_13828)">
<path d="M60.2555 74.575C60.4477 71.2832 52.4521 68.1393 42.3969 67.5529C32.3417 66.9664 24.0345 69.1595 23.8422 72.4513C23.65 75.7431 31.6455 78.887 41.7008 79.4735C51.756 80.0599 60.0632 77.8668 60.2555 74.575Z" fill="#F36B21" stroke="#231F20" stroke-width="0.3633" stroke-miterlimit="10"/>
<path d="M22.0639 116.445C21.5698 116.616 21.0552 116.779 20.5285 116.947C14.3785 118.897 6.19483 120.742 -1.92756 120.195C-3.80195 120.069 -5.92545 119.685 -8.27764 118.522C-12.639 116.359 -15.6241 111.678 -15.7507 106.814C-15.7752 105.724 -15.6731 104.635 -15.5915 103.545C-15.5343 102.819 -15.4853 102.092 -15.4935 101.362C-15.4935 101.284 -15.4935 101.211 -15.4975 101.133C-15.5057 100.815 -15.5261 100.488 -15.567 100.17C-15.7303 98.7376 -16.2081 97.3378 -17.2045 96.3216C-17.4454 96.0768 -17.715 95.8564 -17.9927 95.6687C-19.5363 94.6076 -21.574 94.3057 -23.3463 93.5711C-27.8138 91.7183 -30.6356 86.5682 -29.7985 81.8139C-29.7985 83.3401 -28.8633 84.7481 -27.6587 85.6826C-26.4458 86.6212 -24.9961 87.164 -23.5628 87.6945C-25.2616 86.7681 -26.503 85.0419 -26.8256 83.1361C-25.8537 84.091 -24.3999 84.4297 -23.036 84.3359C-21.672 84.2379 -20.3653 83.7686 -19.083 83.2993C-19.3688 83.0259 -19.9732 82.5199 -20.9002 82.2505C-21.7741 81.9975 -22.5173 82.075 -22.9012 82.1403C-20.5735 80.5284 -18.4541 79.6224 -17.0003 79.1082C-17.0003 79.1082 -10.344 76.7494 -3.14448 78.3614C-2.0664 78.6021 -0.224672 79.0388 1.72323 80.3896C2.00909 80.5896 2.28678 80.7977 2.53996 81.014C6.52561 84.3481 7.21575 89.8207 7.44035 91.4653C8.04881 95.8523 6.92581 97.8479 7.07282 101.023C7.11366 101.904 7.01156 103.076 7.63636 104.308C8.7267 106.451 11.0176 107.263 11.9324 107.589C16.7837 109.307 21.6515 106.398 22.558 105.834C22.3906 109.368 22.2232 112.907 22.0517 116.441L22.0639 116.445Z" fill="#F36B21" stroke="#231F20" stroke-width="0.3633" stroke-miterlimit="10"/>
<path d="M66.714 68.9873C65.6359 71.6236 63.5042 75.8025 59.2205 79.9936C57.0929 75.6352 54.9694 71.2808 52.8418 66.9223C54.0628 65.1675 55.3655 63.0495 56.5783 60.5683C58.0607 57.5239 59.0367 54.6958 59.6942 52.3003C60.6212 52.4676 66.2117 53.5736 68.2372 58.0422C69.789 61.4661 68.3719 64.9308 66.714 68.9873Z" fill="#867640" stroke="#231F20" stroke-width="0.3633" stroke-miterlimit="10"/>
<path d="M25.4626 60.1849C26.2466 65.433 28.9949 68.9182 30.2404 70.3179C25.9608 70.7628 21.6811 71.2076 17.4055 71.6565C16.3846 69.7793 15.0738 67.6653 13.3954 65.4698C11.3372 62.7845 9.24638 60.642 7.39648 58.9811C11.9089 54.5736 20.5663 52.272 26.0588 51.8271C25.5565 53.5452 24.9276 56.5366 25.4707 60.1849H25.4626Z" fill="#867640" stroke="#231F20" stroke-width="1.0899" stroke-miterlimit="10"/>
<path d="M70.6751 43.1712C70.5403 46.5298 55.3409 48.407 41.873 50.0721C28.4297 51.733 14.533 53.447 13.6019 50.3741C12.6259 47.1542 25.7712 38.2496 40.4315 36.2948C55.4553 34.291 70.8139 39.7595 70.6751 43.1712Z" fill="#C25E2A" stroke="#231F20" stroke-width="0.7266" stroke-miterlimit="10"/>
<path d="M45.1524 71.448C44.8301 75.4622 48.6988 78.4637 54.7957 83.1926C59.7051 86.9985 64.2146 89.3834 67.2018 90.78C69.4178 92.4992 72.2255 94.3777 75.6412 96.0765C80.7955 98.641 85.5539 99.907 89.1778 100.564C89.0798 100.793 88.4922 102.255 89.239 103.656C89.8266 104.762 91.3121 105.947 92.6547 105.379C93.6546 104.954 94.283 103.684 94.0586 102.32C95.4379 102.619 96.8051 101.867 97.2621 100.638C97.6539 99.5762 97.2989 98.3266 96.3684 97.5711C97.6661 96.7176 98.1885 95.2475 97.7478 94.198C97.1193 92.6871 94.8176 92.7851 94.4871 92.8014C93.373 92.8504 92.5446 93.3282 92.1446 93.6018C90.2021 91.9193 87.3536 89.7264 83.5991 87.7213C78.4816 84.9894 76.3268 84.7893 71.4746 81.8817C67.1978 79.3213 64.3207 76.6955 63.6596 76.0503C56.9995 69.5246 57.3014 64.2812 53.6694 63.7013C50.1679 63.1459 45.483 67.3194 45.1524 71.448Z" fill="#F36B21" stroke="#231F20" stroke-width="1.0899" stroke-miterlimit="10"/>
<path d="M86.5463 101.977C83.0611 100.654 79.0128 98.796 74.7401 96.158C71.8467 94.3693 69.341 92.5317 67.2025 90.7798C63.7746 89.6037 58.8203 87.4516 53.715 83.47C50.2462 80.7626 47.6303 77.9285 45.7123 75.4865C45.096 74.6902 44.5492 73.947 44.0717 73.2527C47.059 71.7418 50.8012 70.2268 55.2372 69.1936C56.9675 68.7934 58.6162 68.5075 60.1588 68.3115C62.1871 71.0476 63.6562 73.0404 64.4969 74.1879C66.3904 76.7688 67.5249 78.1368 69.3083 79.9989C69.5246 80.2276 70.4836 81.1138 71.4712 81.8733C75.4583 84.9606 79.1108 85.1443 83.3835 86.7411C85.4648 87.521 88.3949 88.8931 91.6475 91.4822C90.0967 94.6593 88.5541 97.8404 87.0074 101.013C86.8523 101.332 86.6973 101.646 86.5422 101.969L86.5463 101.977Z" fill="#AC9955" stroke="#231F20" stroke-width="0.3633" stroke-miterlimit="10"/>
<path d="M62.797 86.4375C65.284 84.6582 68.4243 82.0219 71.4176 78.2837C75.4809 73.2111 77.6003 68.2078 78.7274 64.7962C80.4752 62.6578 82.3169 60.1561 84.1056 57.2586C86.7395 52.9859 88.6017 48.9376 89.9248 45.4525C89.0917 45.0444 88.2627 44.6403 87.4297 44.2363C86.7028 47.0644 85.5103 50.6353 83.4889 54.5081C81.3736 58.5564 78.9928 61.6783 77.0122 63.9269C76.9837 63.98 76.9347 64.0738 76.8612 64.2044C73.4391 70.534 71.7239 73.6926 70.3845 75.3291C66.6071 79.9324 62.5234 83.4135 62.5234 83.4135C62.5234 83.4135 62.5643 85.7151 62.8011 86.4375H62.797Z" fill="#8D7F45"/>
<path d="M86.5134 101.977C83.0079 100.654 78.9392 98.7963 74.6379 96.1583C71.7282 94.3696 69.2102 92.532 67.0555 90.7801C63.6071 89.604 58.6242 87.4519 53.4904 83.4703C50.0012 80.7629 47.369 77.9288 45.4427 75.4868C44.8224 74.6905 44.2756 73.9473 43.794 73.253C47.7158 70.4067 55.1636 65.6738 59.1384 68.1607C60.6157 69.0836 62.3297 71.4848 64.3416 74.1882C66.6106 77.2387 67.6635 78.423 69.1816 79.9992C69.402 80.2279 70.3651 81.1141 71.3568 81.8736C75.3684 84.9609 79.0412 85.1446 83.3385 86.7414C85.432 87.5213 88.3784 88.8934 91.6514 91.4825C90.0924 94.6596 88.5417 97.8407 86.9828 101.014C86.8277 101.332 86.6726 101.647 86.5134 101.969L86.5134 101.977Z" stroke="#231F20" stroke-width="1.0899" stroke-miterlimit="10"/>
<path d="M65.8845 37.9396C65.7906 38.1028 65.6926 38.262 65.5905 38.4211L18.898 49.7335C18.7755 49.0234 18.5509 48.1093 18.118 47.1095C17.7178 46.1872 17.2563 45.4485 16.8521 44.8976C15.4269 43.1795 11.478 37.96 10.9839 30.1327C10.5142 22.738 13.3973 17.3144 14.5611 15.3597C16.5254 16.3309 18.8163 17.6858 21.1562 19.5712C25.5911 23.138 28.323 27.0802 29.9279 29.8919C32.0228 29.0513 35.9227 26.4109 39.9288 26.1783C43.6858 25.962 50.1298 25.9497 52.2492 26.4925C54.0991 19.8038 59.3261 14.1476 65.8437 11.7643C65.9498 11.7235 66.056 11.6827 66.1663 11.646C70.7808 19.6039 70.6501 30.0715 65.8845 37.9396Z" fill="#F36B21" stroke="#231F20" stroke-width="1.0899" stroke-miterlimit="10"/>
<path d="M65.5789 37.9435C65.4972 37.8456 65.3869 37.7027 65.2522 37.5313C64.6396 36.7315 64.5906 36.556 64.607 36.4458C64.6478 36.1642 64.8601 35.9398 65.0398 35.7153C65.2685 35.4297 65.6075 34.7808 66.2241 33.4259C66.5753 32.6546 67.6452 29.802 67.7024 25.5211C67.7391 22.7093 67.3267 20.4077 66.8816 17.9387C66.7917 17.4326 66.3915 15.7921 66.122 13.5353C66.0526 12.9477 66.0076 12.462 65.9791 12.1396C67.1021 14.2087 69.2541 18.8365 69.1602 25.0804C69.0663 31.3405 66.7631 35.9112 65.5789 37.9435Z" fill="#DA4D1F"/>
<path d="M68.3969 52.6472C68.7155 51.0434 69.4464 48.958 71.2106 47.4073C71.3617 47.2726 71.5168 47.1502 71.672 47.0318C70.8022 46.9502 69.5281 46.7217 68.1805 46.0361C65.5751 44.7098 64.6767 42.6611 62.2633 38.9801C60.148 35.7521 58.6819 33.3525 56.4808 31.4426C53.6223 28.9695 50.7596 27.7003 48.9179 27.0515C46.9986 26.6067 43.8583 26.1455 40.0972 26.8189C37.6144 27.2637 35.6134 28.0717 34.1718 28.79C32.0606 29.9 29.1285 31.7446 26.2822 34.7196C24.4854 36.5968 21.5043 39.8085 19.8382 44.9056C19.2624 46.6645 19.1113 48.4724 18.7152 50.2639C18.2129 52.537 16.7428 54.8958 14.9215 56.3568C15.7995 56.3037 16.6203 55.9365 17.4207 55.5733C15.6566 57.5688 14.5213 60.1031 14.2109 62.7476C14.9664 61.3274 16.2323 60.1929 17.7188 59.5767C17.7637 62.1599 16.5264 64.735 14.4845 66.3225C15.5177 65.943 16.559 65.5594 17.6004 65.1717C19.8178 64.3432 22.0148 63.5107 24.1832 62.666" fill="#F36B21"/>
<path d="M68.3969 52.6472C68.7155 51.0434 69.4464 48.958 71.2106 47.4073C71.3617 47.2726 71.5168 47.1502 71.672 47.0318C70.8022 46.9502 69.5281 46.7217 68.1805 46.0361C65.5751 44.7098 64.6767 42.6611 62.2633 38.9801C60.148 35.7521 58.6819 33.3525 56.4808 31.4426C53.6223 28.9695 50.7596 27.7003 48.9179 27.0515C46.9986 26.6067 43.8583 26.1455 40.0972 26.8189C37.6144 27.2637 35.6134 28.0717 34.1718 28.79C32.0606 29.9 29.1285 31.7446 26.2822 34.7196C24.4854 36.5968 21.5043 39.8085 19.8382 44.9056C19.2624 46.6645 19.1113 48.4724 18.7152 50.2639C18.2129 52.537 16.7428 54.8958 14.9215 56.3568C15.7995 56.3037 16.6203 55.9365 17.4207 55.5733C15.6566 57.5688 14.5213 60.1031 14.2109 62.7476C14.9664 61.3274 16.2323 60.1929 17.7188 59.5767C17.7637 62.1599 16.5264 64.735 14.4845 66.3225C15.5177 65.943 16.559 65.5594 17.6004 65.1717C19.8178 64.3432 22.0148 63.5107 24.1832 62.666" stroke="#231F20" stroke-width="1.0899" stroke-miterlimit="10"/>
<path d="M18.4707 41.8776C13.5377 40.5799 13.2151 31.867 13.1783 30.8958C13.0231 26.872 14.3708 23.7215 15.2283 22.0728C16.8128 23.8194 18.4912 25.4763 20.0919 27.2025C20.0919 27.2066 20.096 27.2025 20.096 27.2025C20.5902 27.7126 21.0802 28.2636 21.5661 28.8553C24.1797 32.0344 25.7151 35.3522 26.6421 38.1599C26.4094 38.4292 22.4237 42.9183 18.4707 41.8776Z" fill="#F6927F" stroke="#231F20" stroke-width="1.0899" stroke-miterlimit="10"/>
<path d="M56.9875 30.1245C57.7144 26.974 59.2335 24.0072 61.3774 21.5912C61.7368 21.1831 62.1166 20.7914 62.5086 20.42C63.8358 19.1631 65.3345 18.1102 66.8168 17.0532C67.3518 18.5673 67.9725 20.8403 68.0746 23.6521C68.0869 23.9827 68.1359 25.5538 67.8704 27.5209C67.2538 32.1079 65.31 36.0011 63.8439 38.4415L56.9834 30.1245" fill="#F6927F"/>
<path d="M56.9875 30.1245C57.7144 26.974 59.2335 24.0072 61.3774 21.5912C61.7368 21.1831 62.1166 20.7914 62.5086 20.42C63.8358 19.1631 65.3345 18.1102 66.8168 17.0532C67.3518 18.5673 67.9725 20.8403 68.0746 23.6521C68.0869 23.9827 68.1359 25.5538 67.8704 27.5209C67.2538 32.1079 65.31 36.0011 63.8439 38.4415L56.9834 30.1245" stroke="#231F20" stroke-width="0.7266" stroke-miterlimit="10"/>
<path d="M62.6514 20.8526C63.0761 20.9178 63.8765 20.9831 64.8035 20.6893C65.9142 20.3384 66.6044 19.6732 66.9025 19.3467C66.9474 19.7833 66.976 20.6403 66.5676 21.583C66.3308 22.1258 66.0245 22.5217 65.7836 22.7869C66.0245 22.742 66.2899 22.6849 66.5676 22.6033C66.9678 22.4849 67.3149 22.3462 67.609 22.2033C67.221 22.9053 66.6779 23.7337 65.9224 24.5785C65.4405 25.1131 64.9628 25.5579 64.5217 25.9252C64.7749 26.0109 65.4038 26.1823 66.1593 25.9905C66.7269 25.8436 67.1148 25.5538 67.3149 25.3824C67.2088 26.1292 66.9188 27.4025 66.0327 28.6921C65.5385 29.4144 64.9954 29.9368 64.5503 30.3C64.8484 30.2877 65.1669 30.2632 65.5059 30.2183C65.9673 30.1571 66.3879 30.0714 66.7596 29.9776C66.3757 30.6019 65.7346 31.4753 64.7177 32.2711C63.1659 33.4872 61.5774 33.8667 60.7443 34.0055C59.7071 33.2627 59.168 32.471 58.8699 31.8507C57.408 28.8471 58.9149 24.4438 62.6473 20.8607L62.6514 20.8526Z" fill="#DD7162"/>
<path d="M61.3775 21.5911C61.7981 21.7381 62.5087 21.9217 63.3948 21.8564C64.5628 21.7707 65.404 21.2932 65.8001 21.0361C65.4163 22.0278 64.6975 22.8848 63.7828 23.4276C64.0074 23.501 64.3096 23.5704 64.673 23.5786C65.2611 23.599 65.7307 23.4521 66.0125 23.3378C65.5837 23.8153 65.0691 24.3335 64.4607 24.8518C63.7501 25.4599 63.06 25.9496 62.4434 26.3332C62.7986 26.5373 63.3908 26.8188 64.1789 26.929C64.8486 27.0229 65.4122 26.9617 65.7879 26.8882C65.1467 28.7369 63.6929 30.2877 61.888 31.0426C62.3045 31.0549 62.7496 31.0508 63.2192 31.0304C63.8931 30.9977 64.5138 30.9284 65.0773 30.8427C64.5669 31.3161 63.9216 31.8384 63.1212 32.3363C61.9329 33.0749 60.8099 33.4994 59.936 33.7524C58.568 33.5402 57.9227 32.9974 57.5961 32.5852C56.0116 30.5978 57.3633 26.0965 61.3734 21.5952L61.3775 21.5911Z" fill="white" stroke="#231F20" stroke-width="0.7266" stroke-miterlimit="10"/>
<path d="M25.9715 34.2506C23.8684 31.8061 21.7654 29.3616 19.6623 26.9171C18.9476 26.3907 18.2044 25.803 17.4408 25.1378C16.865 24.6359 16.33 24.138 15.8359 23.6523C15.8236 24.24 15.8686 25.0562 16.1217 25.9866C16.3586 26.8641 16.6975 27.5537 16.9875 28.0434C16.718 27.8476 16.3504 27.5292 16.0237 27.0477C15.5419 26.3376 15.403 25.6398 15.3581 25.2562C15.1662 25.7459 14.57 27.4517 15.2356 29.4514C15.7542 31.0103 16.7629 31.9285 17.2121 32.2876C16.9017 32.3407 16.5179 32.3815 16.0809 32.3652C15.3948 32.3366 14.8354 32.1815 14.4434 32.0387C14.6271 32.5366 14.9987 33.3487 15.7583 34.1037C16.2075 34.5526 16.6649 34.8505 17.0242 35.0464C16.8976 35.1361 16.7302 35.2382 16.5179 35.3157C16.0646 35.4871 15.6562 35.4626 15.4275 35.43C15.5174 35.7034 15.697 36.1441 16.085 36.5686C16.3218 36.8257 16.5628 37.0052 16.7547 37.1236C16.6404 37.1685 16.5097 37.2133 16.3627 37.2419C15.9666 37.3317 15.6154 37.3113 15.3703 37.2705C15.8277 37.7724 16.8241 38.7274 18.4086 39.2865C19.8297 39.7884 21.063 39.7395 21.7286 39.666L25.9797 34.2465L25.9715 34.2506Z" fill="#DD7162"/>
<path d="M27.3599 37.7924C26.7596 36.2376 25.8612 34.3236 24.4973 32.2995C22.9986 30.0672 21.4019 28.394 20.091 27.2065C20.091 27.2065 20.091 27.2065 20.0869 27.2065C18.8251 26.782 17.6531 26.1005 16.6403 25.2354C16.918 26.529 17.4571 27.7655 18.2125 28.8511C17.2406 28.7695 16.1054 28.5736 15.6807 27.7002C15.6807 29.8142 17.3835 31.52 19.1109 32.7361C18.0083 33.0177 16.8568 33.0993 15.7297 32.9728C16.7179 34.1318 18.2452 34.8052 19.7684 34.7521C18.7557 35.2827 17.6735 35.6785 16.5546 35.9234C17.3713 36.6579 18.4494 37.0864 19.5479 37.1272C18.5964 37.2986 17.6367 37.4782 16.6812 37.6537C18.3555 38.7596 20.4055 39.2738 22.3983 39.1351C24.0522 38.6903 25.7101 38.2454 27.364 37.8006L27.3599 37.7924Z" fill="white" stroke="#231F20" stroke-width="1.0899" stroke-miterlimit="10"/>
<path d="M63.8149 114.376C63.8354 119.387 62.2264 124.501 58.8125 128.17C54.9534 132.308 49.8529 134.05 44.4462 135.042C43.9847 133.862 43.1108 131.993 41.4283 130.23C39.7173 128.439 37.9695 127.582 37.4182 127.292C37.6183 127.247 37.8061 127.186 37.9817 127.104C39.1088 126.566 39.5948 125.497 39.4192 124.521C39.2436 123.55 38.5126 122.664 37.6469 121.897C37.116 121.428 36.5116 120.979 36.1604 120.424C36.1604 120.424 35.7357 119.697 35.6704 118.706C35.507 116.127 37.9695 103.198 38.092 96.987C38.2717 87.7232 33.4121 84.0381 36.0379 74.3255C36.2829 73.4113 36.5361 72.6767 36.7036 72.2156C37.6673 71.9993 38.631 71.7626 39.6234 71.6239C40.7913 71.4606 41.9756 71.4525 43.1557 71.4484C44.1236 71.4443 45.1036 71.4402 46.0429 71.6524C48.0112 72.0932 48.199 72.5625 49.7753 72.9502C50.9106 73.2318 52.2582 73.2726 53.565 72.9991C54.2592 72.791 54.7206 72.8808 55.0147 73.0073C56.4644 73.6276 57.0401 76.4639 56.2398 80.0714C55.178 80.1082 54.104 79.8307 53.2015 79.2716C54.4266 81.7365 56.1622 83.9483 58.2571 85.7317C57.4322 85.8909 56.5705 85.8297 55.7824 85.5562C56.6849 86.3031 57.7099 87.2906 58.7022 88.5557C60.401 90.735 61.3321 92.8775 61.8507 94.4282C61.7364 94.2487 60.9931 93.1591 59.6129 92.9754C58.8043 92.8693 58.1713 93.1223 57.8855 93.257C60.8216 95.5423 62.7736 99.052 63.1656 102.749C62.1733 101.586 61.0217 100.558 59.7517 99.7049C62.5858 103.806 63.8027 109.389 63.819 114.372L63.8149 114.376Z" fill="#E6E7E8" stroke="#231F20" stroke-width="1.0899" stroke-miterlimit="10"/>
<path d="M46.8186 47.4523C46.7982 47.7624 46.7655 48.2317 46.5573 48.75C45.663 50.9864 42.4124 51.9617 39.9908 51.925C38.7085 51.9046 36.5809 51.876 35.4334 50.4191C33.608 48.1052 34.9638 42.8163 38.6309 41.4247C41.0607 40.5024 43.9805 41.49 45.5037 43.3958C45.7732 43.7345 46.9738 45.322 46.8227 47.4523H46.8186Z" fill="white" stroke="#231F20" stroke-width="1.0899" stroke-miterlimit="10"/>
<path d="M62.3652 47.9624C61.2299 49.2397 59.4739 49.1785 59.3514 49.1744C57.2443 49.0683 56.109 47.2115 55.8803 46.8319C54.7287 44.9506 54.6756 42.0654 56.2274 40.7636C56.8767 40.2208 57.62 40.1106 57.9344 40.0657C60.0416 39.78 61.6015 41.4369 61.7975 41.6573C63.2799 43.2815 63.8884 46.2524 62.3652 47.9664V47.9624Z" fill="white" stroke="#231F20" stroke-width="1.0899" stroke-miterlimit="10"/>
<path d="M62.8475 52.8638C62.7863 53.0433 57.7552 50.0194 51.8094 51.1008C47.7421 51.8435 44.6426 54.2513 42.4537 56.5407C42.4537 56.5407 40.0566 55.194 35.9648 55.0185C32.8163 54.8879 29.6719 55.7001 29.6923 55.9204C29.7005 55.9694 29.8353 55.9612 30.2518 56.0714C30.9378 56.2469 31.4197 56.4958 31.7587 56.6713C31.8975 56.7407 33.6371 57.6426 33.5269 57.9731C33.4003 58.3445 31.1339 57.3651 28.0466 57.561C25.1717 57.7446 22.9461 58.8587 22.987 59.026C23.0115 59.1321 23.8813 58.8669 25.2493 59.0464C25.4412 59.0709 27.3524 59.328 27.3851 59.7932C27.4136 60.2911 25.2411 60.4462 22.9012 61.7317C22.1171 62.1643 21.3127 62.7234 20.5694 63.4702C20.5694 63.4702 20.5694 63.4824 20.5531 63.4865C20.4347 63.6049 19.2953 64.7598 18.4092 66.1269C18.2826 66.3228 18.156 66.5268 18.0457 66.7309C17.7926 66.6982 17.5475 66.6452 17.3066 66.5595C17.1433 66.5023 16.9636 66.4166 16.9064 66.2534C16.8615 66.1187 16.9064 65.9718 16.9472 65.8412C17.1433 65.2495 17.3924 64.7516 17.6782 64.2007C17.9355 63.7069 18.985 62.5601 21.5209 61.091C22.109 60.7482 22.6031 60.4952 22.9053 60.3483C22.1294 60.136 21.3576 59.9238 20.5817 59.7116C21.623 58.2915 22.7297 57.6589 23.3953 57.3651C24.0487 57.0794 24.6694 56.9407 25.6618 56.7203C26.7031 56.4877 27.5892 56.3652 28.2263 56.2918C28.165 56.1694 28.0507 55.9857 27.8506 55.8184C27.5239 55.545 27.1686 55.4838 27.0175 55.4715C27.3442 55.3368 27.6832 55.2063 28.0262 55.0838C33.0368 53.3127 38.0434 53.7861 42.1638 54.9002C43.6993 53.3862 46.9172 50.6927 51.5521 50.0683C57.8165 49.2277 62.9129 52.6761 62.8475 52.8597V52.8638Z" fill="#DA4D1F"/>
<path d="M43.9077 46.7298C43.8015 49.2274 41.5024 50.8761 39.3422 50.921C37.5331 50.9577 35.818 49.8681 34.9441 48.1378C34.842 47.6399 34.6582 46.4197 35.2422 45.0893C35.3361 44.873 36.2141 42.9427 38.2967 42.3387C38.5622 42.2612 39.0767 42.1429 39.7178 42.1673C42.1313 42.2694 44.0139 44.3139 43.9118 46.7298H43.9077Z" fill="#3C2415" stroke="#231F20" stroke-width="1.0899" stroke-miterlimit="10"/>
<path d="M61.5112 45.3954C61.5112 45.6607 61.4949 46.5544 60.8619 47.3665C59.7879 48.7499 57.9095 48.6316 57.7094 48.6194C57.252 48.3378 56.4802 47.7828 55.8758 46.8278C55.0182 45.4689 54.3608 43.0733 55.5532 41.7838C56.1412 41.1471 56.9457 41.0329 57.1254 41.0125C59.2244 40.7717 61.5153 43.155 61.5072 45.3913L61.5112 45.3954Z" fill="#3C2415" stroke="#231F20" stroke-width="1.0899" stroke-miterlimit="10"/>
<path d="M69.5319 41.482C65.1012 39.3518 57.3422 36.3809 47.4067 36.4257C29.896 36.5033 17.8492 45.8976 14.1943 48.991C15.4521 45.2243 17.1427 42.6778 18.4413 41.0658C20.4015 38.6295 22.5454 35.9728 24.9139 34.5893C25.2488 34.3975 26.2207 33.8547 26.9598 32.7406C27.0946 32.5325 27.213 32.3244 27.307 32.1203C27.6704 31.3572 27.7766 30.6634 27.8256 30.2921C27.8501 30.1329 27.8705 29.9778 27.8868 29.8268C27.9154 29.6024 27.9399 29.3902 27.9644 29.1821C28.4871 24.6522 27.9685 22.6525 29.3202 20.5753C29.4019 20.4447 30.2594 19.1674 31.5376 18.5267C31.9705 18.3145 32.4442 18.1676 32.9587 18.1635C33.6611 18.1594 34.1552 18.4165 34.6534 18.6573C35.2415 18.9389 40.9014 21.6527 42.392 20.2366C43.0535 19.6122 42.2572 18.7838 43.0862 17.7105C43.9928 16.5352 45.8876 16.3026 46.594 16.2128C47.1494 16.1434 47.5619 16.1557 47.6558 16.1597C47.9662 16.1679 49.8691 16.2577 51.3188 17.4371C52.1356 18.0982 52.5889 18.9389 53.1401 20.5141C53.4178 21.3099 53.72 22.2852 53.9936 23.4442C54.0957 23.8605 54.1856 24.3012 54.2754 24.7665C54.3122 24.9542 54.3489 25.1542 54.3816 25.3582C54.4102 25.5296 54.4387 25.701 54.4632 25.8765C54.549 26.4478 54.6266 27.0436 54.6879 27.6721C56.5786 28.9943 58.5632 30.5165 60.5928 32.2713C64.2395 35.4178 67.1838 38.5927 69.5401 41.482H69.5319Z" fill="#CB8641" stroke="#231F20" stroke-width="0.3633" stroke-miterlimit="10"/>
<path d="M72.6471 58.2057C72.6471 58.2057 72.1367 57.5854 71.1403 57.2875C70.442 57.0753 69.5517 57.112 69.4292 57.4263C69.2904 57.7935 70.3317 58.1772 71.1403 59.479C71.7365 60.4462 71.7283 61.8745 71.7283 61.8745C71.5609 61.7317 71.32 61.548 70.9973 61.3725C70.9973 61.3725 70.1439 60.9114 69.1679 60.8461C68.0775 60.7686 67.0199 61.9765 65.4599 63.3396C63.1486 65.3596 60.78 66.8002 59.4937 68.1796C58.7219 69.008 58.3135 69.612 58.3135 69.612C58.1502 69.8528 57.9909 70.0976 57.8235 70.3343C57.4682 70.7995 57.1129 71.1505 56.8026 71.428C56.5984 71.5994 56.4187 71.7341 56.2635 71.8402C55.459 72.4115 54.5239 72.7788 53.5601 72.9788C52.2575 73.2563 50.9058 73.2114 49.7705 72.9298C48.1901 72.5421 48.0023 72.0728 46.038 71.6321C45.0988 71.4198 44.1187 71.4239 43.1509 71.428C41.9748 71.4321 40.7865 71.4362 39.6185 71.6035C37.4297 71.9055 35.392 72.689 33.1827 72.7053C32.17 72.7135 30.3527 72.5952 28.3436 71.6729C27.1797 71.1423 26.2568 70.4567 25.6443 69.9344C25.093 69.461 24.7867 69.11 24.7867 69.11C24.3865 68.7427 24.1088 68.453 23.631 68.2326C22.1732 67.898 21.0665 68.0612 20.3886 68.2367C20.0129 68.3346 19.7189 68.453 19.4167 68.5713C17.9588 69.1345 16.9747 69.8038 16.6847 70.0242H16.5908C16.5908 70.0242 16.5949 70.0242 16.5949 70.0201C17.2156 69.3957 17.3504 68.5958 17.3953 68.3714C17.4811 67.9225 17.673 67.445 17.918 66.9757C18.0569 66.69 18.2284 66.4044 18.408 66.1268C19.2942 64.7556 20.4335 63.6048 20.552 63.4824C20.5601 63.4783 20.5683 63.4661 20.5683 63.4661C21.3156 62.7192 22.1201 62.1602 22.9042 61.7276C25.2441 60.4421 27.4125 60.287 27.3839 59.785C27.3553 59.3198 25.4401 59.0627 25.2482 59.0382C23.8842 58.8587 23.0103 59.1239 22.9858 59.0178C22.9491 58.8464 25.1706 57.7364 28.0455 57.5528C31.1327 57.361 33.3991 58.3363 33.5217 57.9649C33.6319 57.6344 31.8923 56.7366 31.7534 56.6631C31.4145 56.4876 30.9367 56.2428 30.2466 56.0632C29.83 55.9571 29.6953 55.9612 29.6912 55.9122C29.6708 55.6919 32.8111 54.8797 35.9637 55.0103C40.0555 55.1817 42.4485 56.5325 42.4485 56.5325C43.1223 55.7163 46.7404 51.4844 52.9558 50.9498C57.9337 50.5213 61.5723 52.7291 62.6789 53.4636C63.1894 50.7131 64.8637 48.5175 66.9913 47.9829C68.6329 47.5667 70.442 48.1666 70.7033 48.2564C71.6221 48.5706 72.3082 49.0113 72.7533 49.346C72.7533 49.346 71.5976 49.3541 70.0459 49.8357C69.5844 49.9744 68.9555 50.1744 68.9637 50.407C68.9719 50.6478 69.6702 50.7457 70.3399 50.9702C72.1979 51.5946 73.3373 53.3004 73.4067 53.4065C72.7166 53.076 71.7365 52.725 70.5277 52.6556C70.1684 52.6352 69.8294 52.6434 69.5191 52.6638C69.8498 52.8882 70.1929 53.1617 70.5277 53.4963C72.1489 55.1246 72.5328 57.1814 72.639 58.2016L72.6471 58.2057Z" fill="white"/>
<path d="M72.6471 58.2057C72.6471 58.2057 72.1367 57.5854 71.1403 57.2875C70.442 57.0753 69.5517 57.112 69.4292 57.4263C69.2904 57.7935 70.3317 58.1772 71.1403 59.479C71.7365 60.4462 71.7283 61.8745 71.7283 61.8745C71.5609 61.7317 71.3199 61.548 70.9973 61.3725C70.9973 61.3725 70.1439 60.9114 69.1679 60.8461C68.0775 60.7686 67.0199 61.9765 65.4599 63.3396C63.1486 65.3596 60.78 66.8002 59.4937 68.1796C58.7219 69.008 58.3135 69.612 58.3135 69.612C58.1502 69.8528 57.9909 70.0976 57.8235 70.3343C57.4682 70.7995 57.1129 71.1505 56.8026 71.428C56.5984 71.5994 56.4187 71.7341 56.2635 71.8402C55.459 72.4115 54.5239 72.7788 53.5601 72.9788C52.2575 73.2563 50.9058 73.2114 49.7705 72.9298C48.1901 72.5421 48.0023 72.0728 46.038 71.6321C45.0988 71.4198 44.1187 71.4239 43.1509 71.428C41.9748 71.4321 40.7865 71.4362 39.6185 71.6035C37.4297 71.9055 35.392 72.689 33.1827 72.7053C32.17 72.7135 30.3527 72.5952 28.3436 71.6729C27.1797 71.1423 26.2568 70.4567 25.6443 69.9344C25.093 69.461 24.7867 69.11 24.7867 69.11C24.3865 68.7427 24.1088 68.453 23.631 68.2326C22.1732 67.898 21.0665 68.0612 20.3886 68.2367C20.0129 68.3346 19.7189 68.453 19.4167 68.5713C17.9588 69.1345 16.9747 69.8038 16.6847 70.0242H16.5908C16.5908 70.0242 16.5949 70.0242 16.5949 70.0201C17.2156 69.3957 17.3504 68.5958 17.3953 68.3714C17.4811 67.9225 17.673 67.445 17.918 66.9757C18.0569 66.69 18.2284 66.4044 18.408 66.1268C19.2942 64.7556 20.4335 63.6048 20.552 63.4824C20.5601 63.4783 20.5683 63.4661 20.5683 63.4661C21.3156 62.7192 22.1201 62.1602 22.9042 61.7276C25.2441 60.4421 27.4125 60.287 27.3839 59.785C27.3553 59.3198 25.4401 59.0627 25.2482 59.0382C23.8842 58.8587 23.0103 59.1239 22.9858 59.0178C22.9491 58.8464 25.1706 57.7364 28.0455 57.5528C31.1327 57.361 33.3991 58.3363 33.5217 57.9649C33.6319 57.6344 31.8923 56.7366 31.7534 56.6631C31.4145 56.4876 30.9367 56.2428 30.2466 56.0632C29.83 55.9571 29.6953 55.9612 29.6912 55.9122C29.6708 55.6919 32.8111 54.8797 35.9637 55.0103C40.0555 55.1817 42.4485 56.5325 42.4485 56.5325C43.1223 55.7163 46.7404 51.4844 52.9558 50.9498C57.9337 50.5213 61.5723 52.7291 62.6789 53.4636C63.1894 50.7131 64.8637 48.5175 66.9913 47.9829C68.6329 47.5667 70.442 48.1666 70.7033 48.2564C71.6221 48.5706 72.3082 49.0113 72.7533 49.346C72.7533 49.346 71.5976 49.3541 70.0459 49.8357C69.5844 49.9744 68.9555 50.1744 68.9637 50.407C68.9718 50.6478 69.6702 50.7457 70.3399 50.9702C72.1979 51.5946 73.3373 53.3004 73.4067 53.4065C72.7166 53.076 71.7365 52.725 70.5277 52.6556C70.1684 52.6352 69.8294 52.6434 69.5191 52.6638C69.8498 52.8882 70.1929 53.1617 70.5277 53.4963C72.1489 55.1246 72.5328 57.1814 72.639 58.2016L72.6471 58.2057Z" stroke="#231F20" stroke-width="0.3633" stroke-miterlimit="10"/>
<path d="M56.8004 71.4237C56.1919 71.9012 55.0975 72.6235 53.558 72.9745C52.9005 73.1214 51.4263 73.3336 49.7683 72.9255C48.188 72.5378 48.0001 72.0685 46.0359 71.6278C45.0966 71.4156 44.1166 71.4196 43.1487 71.4237C41.9726 71.4278 40.7843 71.4319 39.6164 71.5992C37.4275 71.9012 35.3898 72.6847 33.1805 72.7011C32.1678 72.7092 30.3506 72.5909 28.3414 71.6686C27.1776 71.1381 26.2547 70.4525 25.6421 69.9301C25.0908 69.4567 24.7845 69.1057 24.7845 69.1057C24.3843 68.7385 24.1067 68.4487 23.6289 68.2283C23.6125 68.212 23.6003 68.2079 23.584 68.2038C23.4737 68.1426 23.3757 68.1018 23.294 68.0896C22.1669 67.8855 21.1378 68.0569 20.8111 68.1222C20.7785 68.1263 20.7376 68.1386 20.7009 68.1467C20.5988 68.1753 20.4967 68.2039 20.3905 68.2324C20.0475 68.3344 19.7208 68.4446 19.4186 68.5671L17.9199 66.9714C18.0588 66.6857 18.2303 66.4001 18.41 66.1226C19.7412 65.6329 21.6891 65.135 23.9433 65.4206C27.5533 65.8777 27.7207 67.8162 31.3021 69.02C36.0677 70.6198 40.5107 68.7752 45.3172 69.6403C46.4606 69.8444 47.5142 70.1097 47.5142 70.1097C48.8373 70.5096 49.458 70.9626 51.3487 71.3135C53.6601 71.738 55.5222 71.5788 56.8045 71.4196L56.8004 71.4237Z" fill="#E6E7E8"/>
<path d="M48.8649 119.991C54.288 109.805 55.9542 97.6723 53.4754 86.4007C52.9853 84.1684 52.3238 81.9361 51.1069 80.0017C49.8899 78.0674 48.0482 76.4431 45.8349 75.8759C42.8334 75.1087 39.4031 76.5697 37.8799 79.2631L33.4736 91.9834L48.869 119.991H48.8649Z" fill="white"/>
<path d="M72.6471 58.2055C72.6471 58.2055 72.1367 57.5852 71.1403 57.2873C70.442 57.0751 69.4292 57.4261 69.4292 57.4261C70.4175 58.1443 70.8912 58.8911 71.1403 59.4788C71.5405 60.4297 71.7283 61.8743 71.7283 61.8743C71.1648 61.405 70.2582 60.8133 69.1679 60.8418C67.9673 60.8786 67.4486 61.6009 65.4599 63.3353C61.6948 66.6245 61.4008 65.8451 59.4937 68.1753C58.191 69.771 57.8888 70.783 56.2635 71.8359C55.0833 72.5991 53.993 72.8766 53.5601 72.9745C51.8287 73.3581 50.4157 73.0643 49.7705 72.9255C47.9778 72.5378 47.9124 71.9951 46.038 71.6278C45.1111 71.4482 44.4128 71.4197 43.1509 71.4237C41.9748 71.4278 40.7865 71.4319 39.6185 71.5992C37.4297 71.9012 35.392 72.6848 33.1827 72.7011C32.2925 72.7092 30.3527 72.6929 28.3436 71.6686C25.779 70.3627 25.8648 68.8079 23.631 68.2324C21.8465 67.7754 20.1232 68.3385 19.4167 68.5712C18.1753 68.9793 17.2605 69.5792 16.6847 70.024H16.5908C16.5908 70.024 16.5949 70.024 16.5949 70.0199C17.4321 68.2406 18.2692 66.4572 19.1104 64.6779C19.9353 63.776 21.1727 62.6334 22.9042 61.7315C25.2686 60.499 27.4166 60.2991 27.3839 59.789C27.3553 59.3237 25.4401 59.0666 25.2482 59.0421C23.8842 58.8626 23.0103 59.1278 22.9858 59.0217C22.9491 58.8503 25.1706 57.7403 28.0455 57.5567C31.1327 57.3649 33.3991 58.3402 33.5217 57.9688C33.6319 57.6383 31.8923 56.7405 31.7534 56.667C31.4145 56.4915 30.9367 56.2467 30.2466 56.0671C29.83 55.961 29.6953 55.9651 29.6912 55.9161C29.6708 55.6958 32.8111 54.8836 35.9637 55.0142C40.0555 55.1856 42.4485 56.5364 42.4485 56.5364C43.1223 55.7202 46.7404 51.4883 52.9558 50.9537C57.9337 50.5252 61.5723 52.733 62.6789 53.4676C63.1894 50.717 64.8637 48.5214 66.9913 47.9868C68.6329 47.5706 70.442 48.1705 70.7033 48.2603C71.6221 48.5745 72.3082 49.0152 72.7533 49.3499C72.7533 49.3499 71.5976 49.358 70.0459 49.8396C69.5844 49.9783 68.9637 50.4109 68.9637 50.4109C69.4946 50.5538 70.1357 50.7864 70.8136 51.1618C72.0958 51.876 72.9289 52.786 73.4067 53.4063C73.3618 53.39 73.3128 53.3778 73.2679 53.3614C72.153 53.0064 70.9075 52.7534 69.5231 52.6636C69.8539 52.8881 70.1969 53.1615 70.5318 53.4961C72.153 55.1244 72.5369 57.1812 72.6431 58.2015L72.6471 58.2055Z" stroke="#231F20" stroke-width="1.0899" stroke-miterlimit="10"/>
<path d="M70.1762 133.401C63.5484 135.752 53.7028 138.417 41.5416 138.78C33.5458 139.021 26.5097 138.204 20.7722 137.082C18.4118 136.621 16.2761 136.111 14.3772 135.601C15.9167 127.235 16.9539 120.142 17.6482 114.829C20.0044 96.7706 19.4695 91.2449 19.1183 88.5189C18.5629 84.2094 17.6931 77.4432 14.7529 71.991C14.32 71.1911 12.0658 67.1306 8.49262 60.5154C8.40278 60.3481 8.19043 59.9563 8.10059 59.789C9.72588 59.4135 11.6411 59.087 13.8014 58.9401C16.5742 58.7524 19.0162 58.9075 21.0049 59.1727C20.7027 60.1562 20.2903 61.956 20.6333 64.1597C20.8783 65.7308 21.4215 66.951 21.8543 67.7468C23.206 67.1265 25.0845 66.445 27.3999 66.1226C31.1855 65.5962 34.2891 66.294 36.0818 66.849C35.5264 67.9141 34.9139 69.3466 34.4932 71.1095C33.9664 73.3336 33.946 75.268 34.04 76.6474C37.3069 79.9652 41.2884 84.6991 44.78 91.0123C49.7416 99.9741 51.6242 108.328 52.4041 113.878C53.96 111.572 55.9079 108.083 56.8553 103.557C59.477 91.0776 53.9233 73.7417 54.593 72.7052C55.0789 72.5338 55.569 72.3583 56.0549 72.1869C57.2065 74.1947 58.8849 77.2228 60.7716 80.9773C65.0512 89.4901 67.2768 93.7303 68.1385 99.1334C68.9511 104.243 68.1385 105.21 68.1875 113.417C68.2161 118.367 68.5999 125.186 70.168 133.397L70.1762 133.401Z" fill="#AC9955" stroke="#231F20" stroke-width="0.3633" stroke-miterlimit="10"/>
<path d="M28.6021 74.9663C27.8058 76.0763 27.0095 77.1904 26.2132 78.3004C22.6359 81.9284 21.2025 85.4135 20.5614 87.5316C17.3925 97.991 23.5139 108.855 23.7793 109.316C25.4945 112.283 28.1815 118.608 28.1815 118.608L29.1085 121.542C28.6226 121.685 27.863 121.983 27.1443 122.624C26.7481 122.979 25.4128 124.166 25.6333 125.672C25.6578 125.839 25.8007 126.811 26.5766 127.211C27.3729 127.619 28.5327 127.305 29.28 126.333C29.329 126.419 30.1131 127.774 31.6935 127.855C32.8083 127.913 33.8741 127.309 34.4213 126.305C34.5806 126.435 35.871 127.46 37.4147 127.035C37.676 126.966 38.554 126.725 38.9583 125.958C39.7056 124.538 38.1089 122.66 37.8884 122.411C37.0104 121.408 35.916 121.008 35.283 120.84C35.2912 119.926 35.3116 119.008 35.3442 118.077C35.6097 110.426 36.6224 103.292 38.0885 96.73" fill="#F36B21"/>
<path d="M28.6021 74.9663C27.8058 76.0763 27.0095 77.1904 26.2132 78.3004C22.6359 81.9284 21.2025 85.4135 20.5614 87.5316C17.3925 97.991 23.5139 108.855 23.7793 109.316C25.4945 112.283 28.1815 118.608 28.1815 118.608L29.1085 121.542C28.6226 121.685 27.863 121.983 27.1443 122.624C26.7481 122.979 25.4128 124.166 25.6333 125.672C25.6578 125.839 25.8007 126.811 26.5766 127.211C27.3729 127.619 28.5327 127.305 29.28 126.333C29.329 126.419 30.1131 127.774 31.6935 127.855C32.8083 127.913 33.8741 127.309 34.4213 126.305C34.5806 126.435 35.871 127.46 37.4147 127.035C37.676 126.966 38.554 126.725 38.9583 125.958C39.7056 124.538 38.1089 122.66 37.8884 122.411C37.0104 121.408 35.916 121.008 35.283 120.84C35.2912 119.926 35.3116 119.008 35.3442 118.077C35.6097 110.426 36.6224 103.292 38.0885 96.73" stroke="#231F20" stroke-width="1.0899" stroke-miterlimit="10"/>
<path d="M41.1309 20.6364C41.5923 20.8364 42.311 21.1057 43.2258 21.2689C44.4223 21.4852 45.4146 21.6607 46.0762 21.0812C46.2313 20.9425 46.652 20.518 46.6887 19.5264" stroke="#231F20" stroke-width="0.7266" stroke-miterlimit="10"/>
<path d="M54.2722 24.7663L27.8877 29.8226C27.953 27.4557 28.1409 25.4682 28.3328 23.9542C28.5166 22.481 28.7003 21.5546 29.3211 20.5711C29.4027 20.4405 30.2603 19.1632 31.5385 18.5225C31.5834 18.7224 30.9913 19.6121 30.8443 21.1465C30.6891 22.8279 31.1628 24.2888 31.6814 25.3785C34.5726 24.5378 38.154 23.742 42.2989 23.3502C46.8318 22.9176 50.8052 23.089 53.9863 23.4441L54.2681 24.7663H54.2722Z" fill="#AA6B34"/>
<path d="M54.4611 25.8765C54.4611 25.8765 54.4523 25.8809 54.4434 25.8809" stroke="#231F20" stroke-width="0.3633" stroke-miterlimit="10"/>
<path d="M69.5319 41.482C65.1012 39.3518 57.3422 36.3809 47.4067 36.4257C29.896 36.5033 17.8492 45.8976 14.1943 48.991C14.2638 48.7992 14.325 48.6033 14.3985 48.4156C15.6277 44.9631 17.2122 42.5961 18.4413 41.0658C20.4015 38.6295 22.5454 35.9728 24.9139 34.5893C25.2488 34.3975 26.2207 33.8547 26.9598 32.7406C27.0946 32.5325 27.213 32.3244 27.307 32.1203C27.5765 31.549 27.7031 31.0226 27.7766 30.6349C27.797 30.5043 27.8092 30.39 27.8256 30.2921C27.8501 30.1329 27.8705 29.9778 27.8868 29.8268C27.9154 29.6024 27.9399 29.3902 27.9644 29.1821C28.4871 24.6522 27.9685 22.6525 29.3202 20.5753C29.4019 20.4447 30.2594 19.1674 31.5376 18.5267C31.9705 18.3145 32.4442 18.1676 32.9587 18.1635C33.6611 18.1594 34.1552 18.4165 34.6534 18.6573C35.2415 18.9389 40.9014 21.6527 42.392 20.2366C43.0535 19.6122 42.2572 18.7838 43.0862 17.7105C43.9928 16.5352 45.8876 16.3026 46.594 16.2128C47.1494 16.1434 47.5619 16.1557 47.6558 16.1597C47.9662 16.1679 49.8691 16.2577 51.3188 17.4371C52.1356 18.0982 52.5889 18.9389 53.1401 20.5141C53.4178 21.3099 53.72 22.2852 53.9936 23.4442C54.0957 23.8605 54.1856 24.3012 54.2754 24.7665C54.3122 24.9542 54.3489 25.1542 54.3816 25.3582C54.4102 25.5296 54.4387 25.701 54.4633 25.8765C54.549 26.4478 54.6266 27.0436 54.6879 27.6721C56.5786 28.9943 58.5632 30.5165 60.5928 32.2713C64.2395 35.4178 67.1838 38.5927 69.5401 41.482H69.5319Z" stroke="#231F20" stroke-width="0.3633" stroke-miterlimit="10"/>
<path d="M27.7755 30.6345C28.7229 30.1856 29.899 29.6674 31.2711 29.1613C43.0075 24.8355 54.6092 26.5373 54.6786 27.6718C54.7521 28.8512 42.2194 27.5657 29.1313 35.1685C22.1727 39.2127 17.4439 44.3751 14.3975 48.4112C15.6266 44.9587 17.2111 42.5917 18.4403 41.0614C20.4004 38.6251 22.5444 35.9684 24.9129 34.5849C25.162 34.438 26.1992 33.8911 26.9588 32.7362C27.1221 32.4873 27.2365 32.2669 27.3059 32.1159" fill="#AA6B34"/>
<path d="M54.6836 27.6718C52.6867 27.5493 50.3958 27.5085 47.8721 27.6269C45.3402 27.7411 42.5634 28.0268 39.6068 28.5655C34.7187 29.451 30.5819 30.7978 27.3027 32.12C27.5723 31.5487 27.6989 31.0222 27.7724 30.6345C27.7928 30.5039 27.805 30.3897 27.8214 30.2917C27.8459 30.1326 27.8663 29.9775 27.8826 29.8265C27.9112 29.602 27.9357 29.3898 27.9602 29.1817C30.3532 27.4351 33.2608 26.5372 36.1561 25.9006C42.0856 24.5825 48.2151 24.2029 54.2671 24.7661H54.2957L54.3733 25.3578L54.4427 25.8802L54.6796 27.6718H54.6836Z" fill="#3F140F"/>
<path d="M16.8934 77.2635C16.8934 77.2635 13.6755 69.828 11.6541 65.8858C10.5229 63.678 9.37132 61.5681 8.21973 59.5644C9.60817 59.3277 10.7148 59.0583 11.4989 58.8421C12.3565 58.6054 12.8506 58.434 13.4141 58.6339C13.8348 58.7849 14.382 59.1808 14.8312 60.3642C16.0889 63.7065 18.2859 81.373 18.2859 81.373L16.8975 77.2594L16.8934 77.2635Z" fill="#CCBF80"/>
<path d="M38.0877 96.7299C38.0346 98.6969 37.8222 101.264 37.128 106.361C36.6462 109.92 36.1071 113.454 35.8335 115.857C34.6329 115.564 33.2567 115.413 31.7458 115.568C31.4722 115.596 30.6187 115.694 29.5365 116.004C28.781 116.221 27.756 116.592 26.6085 117.241C25.3834 115.445 23.7132 112.699 22.3125 109.103C20.7444 105.084 17.4571 96.6524 20.5647 87.5315C21.2957 85.389 22.823 81.9038 26.2165 78.3003C27.0128 75.7702 27.8949 75.0723 28.6013 74.9662C31.9295 74.4642 38.3817 85.8542 38.0877 96.7258V96.7299Z" fill="#AC9955" stroke="#231F20" stroke-width="1.0899" stroke-miterlimit="10"/>
<path d="M35.4335 82.3119C35.4335 87.1315 32.628 90.6004 29.1977 90.0576C25.8001 89.523 23.0723 85.2502 23.0723 80.5163C23.0723 75.7824 25.8001 72.3054 29.1977 72.7543C32.5953 73.2032 35.4335 77.4923 35.4335 82.3119Z" fill="#AC9955"/>
<path d="M2.66306 82.9689C2.67123 83.6708 2.64265 84.3238 2.59364 84.9196C1.61357 83.3933 0.204704 82.1445 -1.43284 81.3569C-0.0688992 83.6382 0.849922 86.1765 1.25012 88.8006C0.159784 86.8744 -1.73911 85.4256 -3.88303 84.8829C-3.53592 85.2705 -2.72736 86.2826 -2.49867 87.8171C-2.31899 89.0128 -2.58035 89.9759 -2.75186 90.4697C-2.93971 89.4454 -3.38074 87.8783 -4.52008 86.3561C-4.9162 85.8174 -5.32864 85.3766 -5.72067 85.0216C-6.59458 88.2292 -6.18213 91.7633 -4.59359 94.6894C-6.07187 92.8774 -7.67266 91.1757 -9.3878 89.5882C-8.86917 90.6737 -8.32605 92.0082 -7.89726 93.5753C-7.40722 95.3505 -7.19079 96.9543 -7.10095 98.2602C-8.13412 97.6603 -9.89417 96.4442 -11.2581 94.2813C-11.9768 93.1386 -12.3852 92.049 -12.6261 91.192C-13.0345 92.8244 -13.4184 95.0607 -13.3694 97.7215C-13.3122 100.648 -12.7446 103.059 -12.2096 104.753C-12.961 103.374 -14.035 102.178 -15.3173 101.268C-15.3744 101.219 -15.4398 101.174 -15.501 101.133C-15.55 99.3825 -15.987 97.5665 -17.208 96.3218C-18.7965 94.7057 -21.259 94.4404 -23.3498 93.5712C-27.364 91.9062 -30.0552 87.5722 -29.9408 83.2627C-29.9327 82.773 -29.8837 82.2955 -29.802 81.814C-29.802 83.3402 -28.8668 84.7482 -27.6621 85.6827C-26.4493 86.6213 -24.9996 87.1641 -23.5662 87.6946C-25.265 86.7683 -26.5065 85.042 -26.8291 83.1362C-25.8572 84.0911 -24.4034 84.4299 -23.0395 84.336C-21.6755 84.2381 -20.3687 83.7687 -19.0865 83.2994C-19.5357 83.0423 -20.1237 82.7567 -20.8384 82.5281C-21.6347 82.2792 -22.3493 82.1772 -22.9006 82.1405C-17.257 78.1534 -9.8615 76.7332 -3.14389 78.3615C-1.42467 78.7737 0.265961 79.3858 1.72383 80.3897C2.00968 80.5897 2.28737 80.7978 2.54056 81.0141C2.60181 81.6099 2.64673 82.2588 2.6549 82.9648L2.66306 82.9689Z" fill="white"/>
<path d="M66.5308 55.8711C66.5104 56.6261 66.3552 58.9359 64.6279 61.058C63.1577 62.8658 61.3568 63.527 60.728 63.7473C59.6825 64.1146 57.6775 64.6043 52.1482 63.074C47.4153 61.764 43.303 59.8623 43.4255 59.5195C43.6256 58.9604 54.2431 64.9716 61.7611 60.8172C64.293 59.4174 65.759 57.2586 66.5349 55.8711H66.5308Z" fill="#E6E7E8"/>
<path d="M56.6768 64.1678C57.9264 64.3474 59.0289 64.2658 59.9927 63.9434C59.9927 63.9434 61.4914 63.5639 62.7001 62.8048C64.0437 61.9641 65.8119 59.4625 66.5265 55.8672" stroke="#231F20" stroke-width="1.0899" stroke-miterlimit="10"/>
<path d="M56.5709 67.2735C55.9257 68.3386 54.8027 68.9304 53.8348 68.8937C53.3571 68.8773 52.9201 68.7876 52.5281 68.6406C52.5281 68.6406 52.1279 68.4896 51.7481 68.2489C51.3316 67.9877 50.0248 66.7185 48.1463 64.7637C46.8804 63.4456 45.3531 61.8173 43.6543 59.9604C46.3781 61.1888 49.3224 62.2907 52.4872 63.164C53.4755 63.4415 54.4882 63.6945 55.5214 63.9231C55.942 64.0169 56.3585 64.1067 56.7792 64.1883C56.8404 64.3393 57.4407 65.8207 56.5709 67.2654V67.2735Z" fill="#6A0C0D" stroke="#231F20" stroke-width="0.3633" stroke-miterlimit="10"/>
<path d="M60.8054 51.8227C61.1811 51.586 61.6262 51.4962 62.0672 51.4391C63.8845 51.1983 64.983 51.0473 66.1427 51.6472C66.5307 51.8472 67.6251 52.4389 67.7721 53.4469C67.8783 54.1937 67.425 54.9161 66.8206 55.8751C66.5919 56.2342 66.4327 56.4954 66.1672 56.7811C65.9875 56.977 64.6032 58.544 63.0881 58.2135C61.4955 57.8666 61.1157 56.0465 60.4624 54.8181C59.9519 53.8509 59.6824 52.5369 60.8095 51.8186L60.8054 51.8227Z" fill="#532410" stroke="#231F20" stroke-width="0.7266" stroke-miterlimit="10"/>
<path d="M20.4465 44.4405C20.2913 44.8609 20.0708 45.5016 19.8666 46.3015C19.5889 47.3952 19.544 47.9951 19.3888 48.8561C19.299 49.3663 19.0213 50.9007 18.4006 52.3617C18.0494 53.1901 17.4082 54.4103 16.2158 55.7121C16.8161 55.3979 17.7472 54.8184 18.5843 53.8349C20.6221 51.4475 20.0055 49.1255 21.594 46.7055C22.1126 45.9138 22.9865 44.9262 25.8737 43.4693C35.8623 38.4211 47.4149 38.0498 47.4149 38.0498C56.742 37.7478 62.8471 39.2945 62.8797 39.0782C62.9206 38.817 54.0386 35.7032 42.9801 36.6459C32.2401 37.5601 24.3913 41.8818 20.4506 44.4405H20.4465Z" fill="#DA4D1F"/>
<path d="M69.5319 41.482C65.044 39.3477 57.3014 36.4217 47.4067 36.4257C29.9899 36.4257 17.886 45.4814 14.0596 48.6115C15.4521 45.11 17.1386 42.6655 18.4454 41.0658C21.3244 37.5398 22.917 35.8993 24.918 34.5893C25.404 34.271 26.5719 33.5446 27.311 32.1203C27.8419 31.1001 27.8991 30.2064 27.9685 29.1821C28.4054 22.8484 28.6178 21.6976 29.3243 20.5753C29.4059 20.4447 30.2635 19.1674 31.5417 18.5267C31.9746 18.3145 32.4483 18.1676 32.9628 18.1635C33.8122 18.1553 34.4452 18.5348 34.6575 18.6573C36.1848 19.5306 41.0484 21.5139 42.396 20.2366C43.0576 19.6081 42.2613 18.7838 43.0903 17.7105C43.9968 16.5352 45.8917 16.3026 46.5981 16.2128C47.1535 16.1434 47.566 16.1557 47.6599 16.1597C49.179 16.2414 50.5143 16.829 51.3229 17.4371C52.842 18.5797 53.2381 20.2448 53.9977 23.4442C54.4061 25.1664 54.5939 26.6315 54.6919 27.668C56.5827 28.9903 58.5673 30.5124 60.5969 32.2673C64.2436 35.4137 67.1879 38.5887 69.5442 41.478L69.5319 41.482Z" stroke="#231F20" stroke-width="1.0899" stroke-miterlimit="10"/>
<path d="M41.7967 60.9195C41.7762 60.8256 41.568 59.8339 42.2826 59.0381C43.0013 58.2383 44.01 58.3362 44.1039 58.3485" stroke="#231F20" stroke-width="0.7266" stroke-miterlimit="10"/>
<path d="M56.2274 66.9961C55.5822 68.0613 54.4592 68.653 53.4913 68.6163C53.0135 68.5999 52.5766 68.5102 52.1846 68.3632C52.0008 68.2898 51.719 68.1633 51.4046 67.9715C50.4572 67.3961 49.9631 66.7064 49.5302 66.1718C49.0851 65.6249 48.3949 64.8659 47.374 64.0415C47.619 63.8416 47.9171 63.6497 48.2765 63.4988C49.9141 62.8132 51.5434 63.5436 51.9722 63.7518C52.1437 63.3927 52.4868 63.1478 52.8747 63.1233C53.3729 63.0907 53.6955 63.4294 53.7364 63.4743C54.6388 63.6212 55.5413 63.7681 56.4397 63.915C56.4397 63.915 57.1013 65.5474 56.2315 66.992L56.2274 66.9961Z" fill="#BE1E2D"/>
<path d="M56.5702 67.2732C55.9249 68.3384 54.8019 68.9301 53.8341 68.8934C53.3563 68.8771 52.9194 68.7873 52.5273 68.6404C52.3436 68.5669 52.0618 68.4404 51.7474 68.2486C50.8 67.6732 50.3058 66.9835 49.873 66.4489C49.4278 65.902 48.7377 65.143 47.7168 64.3186C48.0394 64.0452 48.3538 63.882 48.6193 63.7759C50.4283 63.0658 52.2782 64.3145 52.5478 64.5064C52.5273 64.033 52.7928 63.5963 53.2134 63.4004C53.6054 63.2209 54.0669 63.278 54.414 63.5473C55.2021 63.7636 55.9944 63.9758 56.7825 64.1921C56.7825 64.1921 57.4441 65.8245 56.5742 67.2692L56.5702 67.2732Z" fill="#F48888"/>
<path d="M56.5709 67.2735C55.9257 68.3386 54.8027 68.9304 53.8348 68.8937C53.3571 68.8773 52.9201 68.7876 52.5281 68.6406C52.5281 68.6406 52.1279 68.4896 51.7481 68.2489C51.3316 67.9877 50.0248 66.7185 48.1463 64.7637C46.8804 63.4456 45.3531 61.8173 43.6543 59.9604C46.3781 61.1888 49.3224 62.2907 52.4872 63.164C53.4755 63.4415 54.4882 63.6945 55.5214 63.9231C55.942 64.0169 56.3585 64.1067 56.7792 64.1883C56.8404 64.3393 57.4407 65.8207 56.5709 67.2654V67.2735Z" stroke="#231F20" stroke-width="1.0899" stroke-miterlimit="10"/>
<path d="M52.4795 63.7598C53.3207 65.4207 53.676 66.29 53.5494 66.3675C53.5331 66.3757 53.5086 66.3757 53.4759 66.3593C53.3003 65.9064 53.1124 65.4534 52.8552 65.0453C52.5979 64.6331 52.263 64.2617 51.8506 64.0087C52.0589 63.9271 52.2712 63.8455 52.4795 63.7639V63.7598Z" fill="#BE1E2D"/>
<path d="M41.8662 45.2609C42.6489 45.2609 43.2833 44.6269 43.2833 43.8448C43.2833 43.0627 42.6489 42.4287 41.8662 42.4287C41.0836 42.4287 40.4492 43.0627 40.4492 43.8448C40.4492 44.6269 41.0836 45.2609 41.8662 45.2609Z" fill="white"/>
<path d="M60.1692 43.1793C60.7308 43.1793 61.186 42.7243 61.186 42.1631C61.186 41.6019 60.7308 41.147 60.1692 41.147C59.6076 41.147 59.1523 41.6019 59.1523 42.1631C59.1523 42.7243 59.6076 43.1793 60.1692 43.1793Z" fill="white"/>
<path opacity="0.6" d="M63.8469 53.6798C64.9294 53.6798 65.807 53.424 65.807 53.1084C65.807 52.7929 64.9294 52.5371 63.8469 52.5371C62.7643 52.5371 61.8867 52.7929 61.8867 53.1084C61.8867 53.424 62.7643 53.6798 63.8469 53.6798Z" fill="#C8591A"/>
<path d="M56.4815 21.1217C56.6816 20.7789 57.5269 19.3628 58.9888 17.7713C61.0878 15.4859 63.4278 13.9678 65.2246 13.0088C64.563 13.5883 63.6442 14.4126 62.5906 15.4533C61.3329 16.6939 60.704 17.3142 60.2058 18.0039C58.8949 19.8158 59.1318 20.5749 58.021 21.9298C57.4983 22.5705 56.604 23.4275 55.0645 24.1131C55.3626 23.305 55.8077 22.2644 56.4774 21.1217H56.4815Z" fill="#F58220"/>
<path d="M22.0649 22.3178C23.7188 24.444 25.0256 26.8436 26.8877 28.7943C23.8862 27.4884 21.2931 25.2683 19.5412 22.5055C18.4631 20.8038 17.5933 18.8653 15.7148 17.9104C18.1242 17.7553 20.7337 20.6079 22.0649 22.3219V22.3178Z" fill="#F58220"/>
<path opacity="0.65" d="M64.2518 38.1394C62.2099 36.8825 58.6694 35.0705 53.9242 34.3768C47.7048 33.4667 42.7309 34.9604 40.3379 35.8622C43.6987 35.2868 48.4031 34.8624 53.9242 35.5725C58.0814 36.103 61.5688 37.1314 64.2518 38.1435V38.1394Z" fill="#D3A043"/>
<path d="M57.3461 121.836C67.4899 103.782 61.5155 83.8586 60.466 80.3571V80.353C62.2751 83.3158 67.1959 91.7552 68.1474 99.1336C68.3638 100.803 68.4823 102.729 68.4823 102.729C68.6374 105.737 68.4414 108.503 68.1923 113.417C67.9514 118.183 68.1433 124.966 70.1729 133.397C67.5349 134.336 64.6722 135.217 61.6013 135.989C53.7525 137.96 46.5775 138.678 40.5215 138.8C50.408 132.863 55.239 125.578 57.3461 121.832V121.836Z" fill="#8D7F45"/>
<path d="M52.25 114.767C55.0881 109.678 56.2928 105.218 56.8645 102.223C56.8645 102.223 58.253 93.5424 56.4888 82.6421C56.3867 82.0096 55.7579 79.3692 55.2106 75.7208C54.9942 74.2925 54.8513 73.1172 54.7614 72.3704C55.1086 72.3663 55.6068 72.4071 56.1131 72.6683C56.9544 73.1009 57.2892 73.8722 57.9794 75.3699C59.2045 78.0225 59.2208 77.9286 59.3801 78.3531C59.7149 79.2345 62.4469 87.0863 60.1723 97.7417C58.4817 105.659 54.8186 111.421 52.25 114.767Z" fill="#CCBF80"/>
<path d="M17.3197 117.898C11.672 119.444 4.85635 120.652 -1.9266 120.195C-3.80099 120.069 -5.92041 119.689 -8.27668 118.522C-12.6339 116.359 -15.6232 111.678 -15.7498 106.814C-15.7743 105.724 -15.6722 104.634 -15.5905 103.545C-15.5293 102.818 -15.4802 102.092 -15.4925 101.362C-15.4925 101.284 -15.4925 101.211 -15.4966 101.133C-15.5047 100.815 -15.5252 100.492 -15.566 100.17C-15.7293 98.7375 -16.2031 97.3377 -17.2035 96.3216C-17.4445 96.0767 -17.7099 95.8564 -17.9917 95.6686C-19.5353 94.6076 -21.569 94.3056 -23.3454 93.5751C-27.8088 91.7183 -30.6347 86.5681 -29.7935 81.8179C-29.7935 83.3401 -28.8624 84.748 -27.6536 85.6825C-26.4449 86.6212 -24.9911 87.1639 -23.5577 87.6985C-25.2565 86.7722 -26.4979 85.0459 -26.8206 83.136C-25.8486 84.091 -24.3949 84.4297 -23.035 84.3358C-21.667 84.242 -20.3643 83.7726 -19.082 83.3033C-19.5312 83.0462 -20.1193 82.7565 -20.8339 82.532C-21.6302 82.279 -22.3408 82.1811 -22.8962 82.1444C-17.2566 78.1573 -9.85706 76.7371 -3.13944 78.3654C-1.42022 78.7776 0.27041 79.3897 1.72827 80.3936C2.01413 80.5895 2.28774 80.7976 2.54501 81.018C6.53065 84.3521 7.22079 89.8206 7.44947 91.4693C8.05794 95.8523 6.93085 97.8519 7.08195 101.027C7.12278 101.912 7.02069 103.08 7.64549 104.316C8.73582 106.459 11.0268 107.271 11.9456 107.593C14.1998 108.393 16.4621 108.193 18.3242 107.691" stroke="#231F20" stroke-width="1.0899" stroke-miterlimit="10"/>
<path d="M55.9917 101.056C55.9018 103.631 55.3669 105.863 54.6073 107.92C54.591 107.973 54.5706 108.026 54.5501 108.079C51.9774 106.504 50.1439 104.724 49.4333 102.635C47.8285 93.5794 47.2853 85.3726 48.5513 78.6145C48.1429 77.933 47.7345 77.2474 47.3262 76.5618C47.8325 76.2598 48.3675 75.9048 48.9188 75.5008C49.2577 75.2518 49.5722 75.0029 49.8662 74.758C49.9193 74.7172 49.9724 74.6723 50.0255 74.6274C50.3032 74.9621 50.6217 75.3171 50.9974 75.6803C51.369 76.0435 51.7324 76.3578 52.0714 76.6312C51.7774 77.2801 51.4833 77.9289 51.1893 78.5819C51.0423 85.6419 52.982 93.2162 55.9917 101.056Z" fill="#D12029"/>
<path d="M54.6073 107.92C54.591 107.973 54.5706 108.026 54.5502 108.079C51.9774 106.504 50.1439 104.724 49.4333 102.635C47.8285 93.5792 47.2853 85.3724 48.5513 78.6143C48.1429 77.9328 47.7345 77.2472 47.3262 76.5616C47.8325 76.2596 48.3675 75.9046 48.9188 75.5005C49.2577 75.2516 49.5722 75.0027 49.8662 74.7578C49.1883 75.3577 48.6044 76.0188 48.2287 76.7901C48.3022 77.0227 48.4247 77.2962 48.6329 77.5573C49.4211 78.5327 50.9647 78.4796 50.9647 78.4796C50.8667 78.7286 49.5354 78.8796 49.2822 78.7531C49.2822 78.7531 48.2164 89.3309 49.074 93.1017C49.7233 97.0684 51.2261 102.316 54.6073 107.92Z" fill="#950F16"/>
<path d="M55.9917 101.056C55.9018 103.631 55.3669 105.863 54.6073 107.92C54.591 107.973 54.5706 108.026 54.5502 108.079C53.8314 107.753 52.4716 107.018 51.2914 105.549C50.05 104.002 49.6457 102.431 49.4946 101.652C48.7391 98.4235 48.0735 94.4037 47.9142 89.7637C47.7672 85.4828 48.0857 81.712 48.5513 78.6145C48.1429 77.933 47.7345 77.2474 47.3262 76.5618C47.8325 76.2598 48.3675 75.9048 48.9188 75.5008C49.2577 75.2518 49.5722 75.0029 49.8662 74.758C49.9193 74.7172 49.9724 74.6723 50.0255 74.6274C50.3032 74.9621 50.6217 75.3171 50.9974 75.6803C51.369 76.0435 51.7324 76.3578 52.0714 76.6312C51.7774 77.2801 51.4833 77.9289 51.1893 78.5819C51.0423 85.6419 52.982 93.2162 55.9917 101.056Z" stroke="#231F20" stroke-width="1.0899" stroke-miterlimit="10"/>
<path d="M70.1774 133.401C63.5497 135.752 53.704 138.417 41.5429 138.78C33.5471 139.021 26.5109 138.205 20.7734 137.082C18.413 136.621 16.2773 136.111 14.3784 135.601C16.2119 127.113 17.1389 119.963 17.6494 114.829C19.1971 99.2112 20.3038 86.7358 15.1175 73.1584C12.6918 66.8085 9.61276 62.1154 7.5791 59.3363C9.50659 59.0383 11.7485 58.8139 14.2395 58.7812C16.7755 58.7486 19.0501 58.9241 21.0102 59.1812C20.7325 60.0667 20.3773 61.593 20.557 63.4907C20.7407 65.4536 21.4104 66.9309 21.8596 67.7553C23.2113 67.135 25.0898 66.4534 27.4052 66.131C31.1908 65.6046 34.2944 66.3024 36.0871 66.8575C35.5317 67.9226 34.9192 69.355 34.4985 71.118C33.9718 73.3421 33.9513 75.2765 34.0453 76.6558C37.3122 79.9736 41.2937 84.7075 44.7853 91.0208C49.7469 99.9825 51.6295 108.336 52.4095 113.886C53.9653 111.581 55.9132 108.091 56.8606 103.566C59.4823 91.0861 53.9286 73.7502 54.5983 72.7136C55.0842 72.5422 55.5743 72.3667 56.0602 72.1953C57.2118 74.2032 58.8902 77.2312 60.7769 80.9857C65.0565 89.4986 67.2821 93.7387 68.1438 99.1419C68.9564 104.251 68.1438 105.218 68.1928 113.425C68.2214 118.375 68.6052 125.195 70.1733 133.406L70.1774 133.401Z" stroke="#231F20" stroke-width="1.0899" stroke-miterlimit="10"/>
<path d="M52.0381 76.582C52.3811 76.8146 52.7731 77.0554 53.2101 77.288C53.7491 77.5737 54.2596 77.7982 54.721 77.9736C54.8599 77.5655 55.0028 77.1534 55.1457 76.7453" stroke="#231F20" stroke-width="1.0899" stroke-miterlimit="10"/>
<path d="M47.3247 76.5617C46.41 77.031 45.4993 77.5044 44.5846 77.9737L36.6133 73.6152" stroke="#231F20" stroke-width="1.0899" stroke-miterlimit="10"/>
</g>
</svg>
