<svg width="71" height="70" viewBox="0 0 71 70" fill="none" xmlns="http://www.w3.org/2000/svg">
<circle cx="35.5772" cy="34.7064" r="34.6336" fill="#FFD646"/>
<mask id="mask0_46_5098" style="mask-type:alpha" maskUnits="userSpaceOnUse" x="0" y="0" width="71" height="70">
<circle cx="35.5775" cy="34.7064" r="34.6336" fill="#D9D9D9"/>
</mask>
<g mask="url(#mask0_46_5098)">
<path d="M52.81 65.7503C52.9801 62.7817 45.9055 59.9464 37.0085 59.4176C28.1114 58.8887 20.761 60.8665 20.5909 63.8351C20.4208 66.8037 27.4954 69.6389 36.3925 70.1678C45.2895 70.6966 52.6399 68.7189 52.81 65.7503Z" fill="#F36B21" stroke="#231F20" stroke-width="0.30319" stroke-miterlimit="10"/>
<path d="M19.0182 103.51C18.581 103.664 18.1257 103.811 17.6596 103.962C12.218 105.721 4.97694 107.385 -2.20989 106.892C-3.86839 106.778 -5.7473 106.432 -7.82855 105.383C-11.6875 103.432 -14.3289 99.211 -14.4409 94.8241C-14.4625 93.8414 -14.3722 92.8588 -14.3 91.8762C-14.2494 91.2211 -14.206 90.566 -14.2132 89.9072C-14.2132 89.8373 -14.2132 89.771 -14.2168 89.7011C-14.2241 89.4141 -14.2421 89.1196 -14.2783 88.8326C-14.4228 87.5408 -14.8456 86.2785 -15.7272 85.3621C-15.9404 85.1413 -16.1789 84.9425 -16.4246 84.7732C-17.7904 83.8164 -19.5934 83.544 -21.1616 82.8816C-25.1145 81.2107 -27.6113 76.5662 -26.8706 72.2787C-26.8706 73.6551 -26.0431 74.9248 -24.9772 75.7676C-23.9041 76.6141 -22.6214 77.1035 -21.3531 77.582C-22.8562 76.7465 -23.9547 75.1898 -24.2401 73.4711C-23.3801 74.3323 -22.0938 74.6377 -20.887 74.5531C-19.6801 74.4648 -18.5239 74.0415 -17.3893 73.6183C-17.6422 73.3717 -18.177 72.9154 -18.9972 72.6725C-19.7705 72.4443 -20.4281 72.5142 -20.7677 72.5731C-18.7082 71.1194 -16.8329 70.3024 -15.5465 69.8387C-15.5465 69.8387 -9.65688 67.7115 -3.28665 69.1652C-2.33274 69.3823 -0.703148 69.7761 1.02039 70.9943C1.27332 71.1746 1.51902 71.3623 1.74305 71.5574C5.26962 74.5641 5.88026 79.4994 6.07899 80.9825C6.61737 84.9388 5.62372 86.7385 5.7538 89.6018C5.78993 90.3967 5.6996 91.4529 6.25243 92.5644C7.21718 94.4965 9.24424 95.2289 10.0536 95.5233C14.3462 97.0727 18.6532 94.4487 19.4554 93.9408C19.3072 97.1279 19.1591 100.319 19.0073 103.506L19.0182 103.51Z" fill="#F36B21" stroke="#231F20" stroke-width="0.30319" stroke-miterlimit="10"/>
<path d="M58.5253 60.7117C57.5714 63.0892 55.6853 66.8578 51.8949 70.6374C50.0124 66.7069 48.1335 62.7801 46.251 58.8495C47.3313 57.267 48.484 55.3569 49.5571 53.1193C50.8688 50.3738 51.7323 47.8234 52.3141 45.6631C53.1343 45.814 58.0809 46.8113 59.8731 50.8412C61.2461 53.929 59.9923 57.0535 58.5253 60.7117Z" fill="#867640" stroke="#231F20" stroke-width="0.30319" stroke-miterlimit="10"/>
<path d="M22.0253 52.7733C22.7191 57.5061 25.1508 60.6491 26.2529 61.9114C22.4662 62.3126 18.6794 62.7137 14.8963 63.1186C13.993 61.4256 12.8331 59.5192 11.3481 57.5393C9.52699 55.1176 7.67698 53.1855 6.04016 51.6876C10.0328 47.7129 17.693 45.6372 22.5529 45.2361C22.1085 46.7855 21.552 49.4831 22.0326 52.7733H22.0253Z" fill="#867640" stroke="#231F20" stroke-width="0.909571" stroke-miterlimit="10"/>
<path d="M62.0305 37.4302C61.9113 40.4591 48.4626 42.152 36.546 43.6535C24.651 45.1514 12.355 46.6971 11.5312 43.9259C10.6676 41.0221 22.2988 32.9918 35.2705 31.2289C48.5638 29.4219 62.1534 34.3535 62.0305 37.4302Z" fill="#C25E2A" stroke="#231F20" stroke-width="0.606381" stroke-miterlimit="10"/>
<path d="M39.4474 62.9305C39.1622 66.5507 42.5853 69.2575 47.98 73.522C52.3239 76.9543 56.3139 79.105 58.9571 80.3645C60.9178 81.9149 63.4021 83.609 66.4245 85.141C70.985 87.4537 75.1953 88.5954 78.4018 89.1883C78.3151 89.3945 77.7952 90.7129 78.456 91.9761C78.9759 92.9741 80.2903 94.0421 81.4783 93.5302C82.363 93.1472 82.919 92.0019 82.7204 90.7719C83.9409 91.0407 85.1506 90.3631 85.555 89.2546C85.9016 88.2971 85.5875 87.1702 84.7642 86.4889C85.9125 85.7192 86.3747 84.3934 85.9847 83.4469C85.4286 82.0843 83.3921 82.1727 83.0996 82.1875C82.1138 82.2316 81.3808 82.6625 81.0269 82.9093C79.3081 81.392 76.7877 79.4144 73.4657 77.6062C68.9376 75.1424 67.0311 74.962 62.7377 72.3399C58.9535 70.0308 56.4078 67.6628 55.8229 67.081C49.9299 61.196 50.1971 56.4674 46.9834 55.9444C43.8852 55.4436 39.7399 59.2073 39.4474 62.9305Z" fill="#F36B21" stroke="#231F20" stroke-width="0.909571" stroke-miterlimit="10"/>
<path d="M76.0741 90.4626C72.9904 89.2694 69.4084 87.5937 65.6278 85.2147C63.0677 83.6017 60.8506 81.9445 58.9585 80.3646C55.9253 79.304 51.5417 77.3632 47.0245 73.7725C43.9552 71.3309 41.6406 68.7751 39.9435 66.5728C39.3982 65.8547 38.9144 65.1844 38.4919 64.5584C41.1351 63.1958 44.4463 61.8295 48.3713 60.8978C49.9024 60.5369 51.3612 60.2791 52.7261 60.1023C54.5207 62.5697 55.8206 64.3669 56.5645 65.4017C58.2399 67.7292 59.2437 68.9629 60.8217 70.6422C61.0131 70.8484 61.8616 71.6476 62.7355 72.3326C66.2633 75.1167 69.4951 75.2824 73.2757 76.7224C75.1173 77.4258 77.7099 78.6632 80.5878 80.998C79.2156 83.8632 77.8507 86.732 76.4822 89.5935C76.345 89.8807 76.2077 90.1643 76.0705 90.4552L76.0741 90.4626Z" fill="#AC9955" stroke="#231F20" stroke-width="0.30319" stroke-miterlimit="10"/>
<path d="M55.06 76.4484C57.2605 74.8438 60.0391 72.4663 62.6876 69.0952C66.2828 64.5206 68.1581 60.0086 69.1554 56.9319C70.7019 55.0034 72.3315 52.7474 73.9141 50.1344C76.2447 46.2811 77.8923 42.6303 79.063 39.4873C78.3259 39.1193 77.5924 38.755 76.8553 38.3906C76.2122 40.9411 75.1571 44.1613 73.3685 47.6539C71.4968 51.3047 69.3903 54.1201 67.6378 56.148C67.6125 56.1958 67.5692 56.2805 67.5041 56.3982C64.4762 62.1063 62.9586 64.9549 61.7735 66.4307C58.4312 70.582 54.8179 73.7213 54.8179 73.7213C54.8179 73.7213 54.854 75.797 55.0636 76.4484H55.06Z" fill="#8D7F45"/>
<path d="M76.0437 90.4627C72.942 89.2695 69.3419 87.5939 65.536 85.2148C62.9614 83.6018 60.7335 81.9446 58.827 80.3647C55.7758 79.3041 51.3668 77.3633 46.8243 73.7726C43.737 71.331 41.408 68.7752 39.7036 66.5729C39.1548 65.8548 38.6709 65.1845 38.2448 64.5585C41.7149 61.9916 48.3048 57.7234 51.8218 59.9661C53.129 60.7984 54.6455 62.9639 56.4257 65.4018C58.4334 68.1528 59.365 69.2208 60.7082 70.6423C60.9032 70.8486 61.7554 71.6477 62.6328 72.3327C66.1824 75.1168 69.4322 75.2825 73.2344 76.7225C75.0868 77.4259 77.6939 78.6633 80.5898 80.9981C79.2105 83.8633 77.8383 86.7321 76.459 89.5936C76.3218 89.8808 76.1845 90.1644 76.0437 90.4553L76.0437 90.4627Z" stroke="#231F20" stroke-width="0.909571" stroke-miterlimit="10"/>
<path d="M57.7919 32.712C57.7088 32.8592 57.6221 33.0028 57.5318 33.1463L16.2174 43.348C16.109 42.7077 15.9103 41.8833 15.5273 40.9816C15.1732 40.1499 14.7649 39.4837 14.4072 38.9869C13.1461 37.4375 9.6521 32.7304 9.21489 25.6717C8.79936 19.003 11.3503 14.1119 12.3801 12.3491C14.1181 13.225 16.1452 14.4468 18.2156 16.1471C22.1396 19.3637 24.5569 22.9188 25.9769 25.4545C27.8306 24.6964 31.2812 22.3152 34.8259 22.1055C38.1501 21.9104 43.8519 21.8994 45.7272 22.3888C47.364 16.3569 51.989 11.256 57.7558 9.10673C57.8497 9.06993 57.9437 9.03312 58.0413 9C62.1243 16.1765 62.0086 25.6165 57.7919 32.712Z" fill="#F36B21" stroke="#231F20" stroke-width="0.909571" stroke-miterlimit="10"/>
<path d="M57.5205 32.7157C57.4482 32.6274 57.3506 32.4986 57.2314 32.344C56.6894 31.6227 56.646 31.4644 56.6605 31.365C56.6966 31.1111 56.8845 30.9087 57.0435 30.7063C57.2459 30.4487 57.5458 29.8635 58.0914 28.6416C58.4021 27.9461 59.3488 25.3736 59.3994 21.5129C59.4319 18.9772 59.067 16.9016 58.6731 14.675C58.5936 14.2186 58.2395 12.7392 58.001 10.704C57.9396 10.174 57.8999 9.73605 57.8746 9.44531C58.8682 11.3112 60.7724 15.4846 60.6893 21.1155C60.6062 26.761 58.5683 30.8829 57.5205 32.7157Z" fill="#DA4D1F"/>
<path d="M60.0144 45.9757C60.2963 44.5293 60.943 42.6487 62.504 41.2502C62.6377 41.1288 62.775 41.0183 62.9123 40.9116C62.1426 40.838 61.0153 40.6319 59.8229 40.0136C57.5176 38.8175 56.7227 36.97 54.5873 33.6504C52.7156 30.7393 51.4184 28.5753 49.4709 26.853C46.9415 24.6227 44.4086 23.4781 42.779 22.893C41.0808 22.4918 38.3022 22.076 34.9743 22.6832C32.7775 23.0843 31.0069 23.813 29.7315 24.4608C27.8634 25.4618 25.269 27.1253 22.7506 29.8082C21.1607 31.5011 18.523 34.3975 17.0488 38.9942C16.5393 40.5804 16.4056 42.2108 16.0552 43.8264C15.6107 45.8763 14.3099 48.0035 12.6984 49.321C13.4753 49.2732 14.2015 48.942 14.9097 48.6144C13.3488 50.4141 12.3443 52.6995 12.0697 55.0844C12.7382 53.8036 13.8583 52.7805 15.1735 52.2248C15.2133 54.5544 14.1184 56.8767 12.3118 58.3083C13.226 57.966 14.1473 57.6201 15.0687 57.2704C17.0307 56.5234 18.9747 55.7726 20.8933 55.0108" fill="#F36B21"/>
<path d="M60.0144 45.9757C60.2963 44.5293 60.943 42.6487 62.504 41.2502C62.6377 41.1288 62.775 41.0183 62.9123 40.9116C62.1426 40.838 61.0153 40.6319 59.8229 40.0136C57.5176 38.8175 56.7227 36.97 54.5873 33.6504C52.7156 30.7393 51.4184 28.5753 49.4709 26.853C46.9415 24.6227 44.4086 23.4781 42.779 22.893C41.0808 22.4918 38.3022 22.076 34.9743 22.6832C32.7775 23.0843 31.0069 23.813 29.7315 24.4608C27.8634 25.4618 25.269 27.1253 22.7506 29.8082C21.1607 31.5011 18.523 34.3975 17.0488 38.9942C16.5393 40.5804 16.4056 42.2108 16.0552 43.8264C15.6107 45.8763 14.3099 48.0035 12.6984 49.321C13.4753 49.2732 14.2015 48.942 14.9097 48.6144C13.3488 50.4141 12.3443 52.6995 12.0697 55.0844C12.7382 53.8036 13.8583 52.7805 15.1735 52.2248C15.2133 54.5544 14.1184 56.8767 12.3118 58.3083C13.226 57.966 14.1473 57.6201 15.0687 57.2704C17.0307 56.5234 18.9747 55.7726 20.8933 55.0108" stroke="#231F20" stroke-width="0.909571" stroke-miterlimit="10"/>
<path d="M15.8385 36.2635C11.4736 35.0931 11.1882 27.2357 11.1557 26.3598C11.0184 22.7311 12.2107 19.8899 12.9695 18.4031C14.3715 19.9782 15.8566 21.4724 17.273 23.0292C17.273 23.0329 17.2766 23.0292 17.2766 23.0292C17.7138 23.4892 18.1474 23.9861 18.5774 24.5197C20.8899 27.3866 22.2485 30.3787 23.0687 32.9107C22.8627 33.1536 19.3361 37.2019 15.8385 36.2635Z" fill="#F6927F" stroke="#231F20" stroke-width="0.909571" stroke-miterlimit="10"/>
<path d="M49.919 25.6644C50.5622 22.8232 51.9063 20.1477 53.8033 17.9689C54.1213 17.6009 54.4573 17.2476 54.8042 16.9127C55.9785 15.7792 57.3046 14.8297 58.6162 13.8765C59.0896 15.2418 59.6388 17.2918 59.7291 19.8275C59.74 20.1256 59.7833 21.5425 59.5484 23.3164C59.0028 27.453 57.2829 30.964 55.9857 33.1648L49.9154 25.6644" fill="#F6927F"/>
<path d="M49.919 25.6644C50.5622 22.8232 51.9063 20.1477 53.8033 17.9689C54.1213 17.6009 54.4573 17.2476 54.8042 16.9127C55.9785 15.7792 57.3046 14.8297 58.6162 13.8765C59.0896 15.2418 59.6388 17.2918 59.7291 19.8275C59.74 20.1256 59.7833 21.5425 59.5484 23.3164C59.0028 27.453 57.2829 30.964 55.9857 33.1648L49.9154 25.6644" stroke="#231F20" stroke-width="0.606381" stroke-miterlimit="10"/>
<path d="M54.9314 17.3028C55.3071 17.3617 56.0153 17.4206 56.8356 17.1556C57.8184 16.8391 58.429 16.2392 58.6928 15.9448C58.7325 16.3386 58.7578 17.1115 58.3965 17.9616C58.1869 18.4511 57.9159 18.8081 57.7028 19.0473C57.9159 19.0068 58.1508 18.9553 58.3965 18.8817C58.7506 18.775 59.0577 18.6498 59.3179 18.521C58.9746 19.154 58.4941 19.9011 57.8256 20.6629C57.3992 21.1451 56.9765 21.5462 56.5862 21.8774C56.8103 21.9547 57.3667 22.1093 58.0352 21.9363C58.5374 21.8038 58.8807 21.5425 59.0577 21.388C58.9638 22.0614 58.7072 23.2097 57.9232 24.3727C57.486 25.0241 57.0054 25.4951 56.6115 25.8227C56.8753 25.8116 57.1571 25.7896 57.457 25.7491C57.8653 25.6939 58.2375 25.6166 58.5663 25.5319C58.2267 26.095 57.6594 26.8826 56.7597 27.6003C55.3866 28.697 53.9811 29.0392 53.244 29.1644C52.3262 28.4946 51.8492 27.7806 51.5855 27.2212C50.2919 24.5125 51.6252 20.5415 54.9277 17.3102L54.9314 17.3028Z" fill="#DD7162"/>
<path d="M53.8035 17.9688C54.1757 18.1013 54.8044 18.2669 55.5885 18.208C56.6219 18.1307 57.3662 17.7001 57.7167 17.4683C57.377 18.3626 56.7411 19.1354 55.9317 19.6249C56.1304 19.6912 56.3978 19.7537 56.7194 19.7611C57.2397 19.7795 57.6553 19.647 57.9046 19.5439C57.5252 19.9745 57.0699 20.4419 56.5315 20.9093C55.9028 21.4577 55.2922 21.8993 54.7466 22.2453C55.0609 22.4293 55.5848 22.6832 56.2822 22.7826C56.8748 22.8672 57.3734 22.812 57.7058 22.7458C57.1386 24.4129 55.8522 25.8115 54.2551 26.4923C54.6237 26.5033 55.0176 26.4997 55.4331 26.4813C56.0293 26.4518 56.5785 26.3893 57.0771 26.312C56.6255 26.7389 56.0546 27.21 55.3464 27.659C54.2949 28.3251 53.3012 28.7078 52.528 28.936C51.3175 28.7446 50.7466 28.2552 50.4576 27.8834C49.0556 26.0912 50.2516 22.0318 53.7999 17.9725L53.8035 17.9688Z" fill="white" stroke="#231F20" stroke-width="0.606381" stroke-miterlimit="10"/>
<path d="M22.4753 29.3851C20.6145 27.1806 18.7537 24.9761 16.8928 22.7716C16.2605 22.2969 15.6029 21.7669 14.9272 21.167C14.4177 20.7143 13.9444 20.2653 13.5072 19.8274C13.4963 20.3574 13.5361 21.0934 13.7601 21.9325C13.9697 22.7238 14.2696 23.3457 14.5261 23.7874C14.2876 23.6107 13.9624 23.3237 13.6734 22.8894C13.247 22.249 13.1241 21.6197 13.0844 21.2737C12.9146 21.7154 12.387 23.2537 12.976 25.0571C13.4349 26.4629 14.3274 27.291 14.7248 27.6149C14.4502 27.6627 14.1106 27.6995 13.724 27.6848C13.1169 27.659 12.6219 27.5192 12.275 27.3904C12.4376 27.8394 12.7664 28.5717 13.4385 29.2526C13.836 29.6574 14.2407 29.9261 14.5586 30.1027C14.4466 30.1837 14.2985 30.2757 14.1106 30.3456C13.7095 30.5002 13.3482 30.4781 13.1458 30.4487C13.2253 30.6953 13.3843 31.0927 13.7276 31.4755C13.9371 31.7073 14.1503 31.8693 14.3201 31.976C14.219 32.0165 14.1033 32.057 13.9733 32.0827C13.6228 32.1637 13.312 32.1453 13.0952 32.1085C13.4999 32.5612 14.3816 33.4223 15.7835 33.9265C17.041 34.3792 18.1322 34.335 18.7211 34.2688L22.4826 29.3814L22.4753 29.3851Z" fill="#DD7162"/>
<path d="M23.7051 32.5796C23.1739 31.1774 22.379 29.4513 21.1722 27.6259C19.8461 25.6128 18.4333 24.1039 17.2734 23.0329C17.2734 23.0329 17.2734 23.0329 17.2698 23.0329C16.1533 22.6502 15.1163 22.0356 14.2202 21.2554C14.4659 22.422 14.9429 23.5371 15.6113 24.5161C14.7514 24.4425 13.7469 24.2658 13.3711 23.4783C13.3711 25.3846 14.8778 26.923 16.4063 28.0197C15.4307 28.2737 14.4117 28.3473 13.4145 28.2332C14.2889 29.2784 15.6402 29.8856 16.988 29.8378C16.0919 30.3162 15.1344 30.6732 14.1443 30.894C14.867 31.5565 15.8209 31.9429 16.7929 31.9797C15.951 32.1343 15.1019 32.2962 14.2563 32.4545C15.7378 33.4518 17.5517 33.9155 19.315 33.7904C20.7783 33.3892 22.2453 32.9881 23.7087 32.5869L23.7051 32.5796Z" fill="white" stroke="#231F20" stroke-width="0.909571" stroke-miterlimit="10"/>
<path d="M55.9602 101.644C55.9783 106.163 54.5546 110.774 51.5339 114.083C48.1194 117.815 43.6064 119.386 38.8224 120.28C38.4141 119.217 37.6409 117.531 36.1522 115.941C34.6382 114.326 33.0917 113.553 32.6039 113.292C32.781 113.251 32.9472 113.196 33.1026 113.122C34.0998 112.637 34.5298 111.672 34.3744 110.793C34.2191 109.917 33.5723 109.118 32.8063 108.426C32.3365 108.003 31.8018 107.598 31.491 107.098C31.491 107.098 31.1153 106.443 31.0574 105.548C30.9129 103.222 33.0917 91.5633 33.2001 85.9619C33.3591 77.6076 29.0593 74.2844 31.3826 65.5253C31.5994 64.7009 31.8235 64.0385 31.9716 63.6226C32.8243 63.4275 33.6771 63.2141 34.5551 63.0889C35.5885 62.9417 36.6364 62.9344 37.6806 62.9307C38.5369 62.927 39.4041 62.9233 40.2352 63.1147C41.9768 63.5122 42.143 63.9354 43.5377 64.285C44.5422 64.539 45.7346 64.5758 46.8909 64.3292C47.5051 64.1415 47.9134 64.2225 48.1736 64.3366C49.4563 64.896 49.9658 67.4538 49.2576 70.7071C48.3181 70.7402 47.3678 70.49 46.5693 69.9858C47.6533 72.2087 49.1889 74.2034 51.0425 75.8117C50.3126 75.9552 49.5502 75.9 48.8529 75.6534C49.6514 76.3269 50.5584 77.2175 51.4364 78.3584C52.9395 80.3237 53.7633 82.2558 54.2222 83.6543C54.1211 83.4924 53.4634 82.5098 52.2421 82.3442C51.5267 82.2485 50.9667 82.4767 50.7137 82.5981C53.3117 84.6591 55.0388 87.8241 55.3857 91.1584C54.5077 90.1096 53.4887 89.1821 52.365 88.4129C54.8726 92.1116 55.9494 97.1462 55.9638 101.64L55.9602 101.644Z" fill="#E6E7E8" stroke="#231F20" stroke-width="0.909571" stroke-miterlimit="10"/>
<path d="M40.9218 41.2908C40.9038 41.5705 40.8748 41.9937 40.6906 42.4611C39.8993 44.4779 37.0231 45.3575 34.8804 45.3243C33.7458 45.3059 31.8633 45.2802 30.848 43.9663C29.2328 41.8796 30.4324 37.11 33.6772 35.855C35.8271 35.0232 38.4106 35.9139 39.7583 37.6326C39.9968 37.938 41.0591 39.3696 40.9254 41.2908H40.9218Z" fill="white" stroke="#231F20" stroke-width="0.909571" stroke-miterlimit="10"/>
<path d="M54.6781 41.7507C53.6736 42.9026 52.1199 42.8474 52.0115 42.8437C50.147 42.7481 49.1425 41.0735 48.9402 40.7313C47.9212 39.0347 47.8743 36.4327 49.2473 35.2587C49.8218 34.7692 50.4794 34.6699 50.7577 34.6294C52.6221 34.3717 54.0024 35.8659 54.1758 36.0647C55.4875 37.5294 56.0258 40.2087 54.6781 41.7544V41.7507Z" fill="white" stroke="#231F20" stroke-width="0.909571" stroke-miterlimit="10"/>
<path d="M55.104 46.1709C55.0499 46.3328 50.5983 43.6057 45.3373 44.581C41.7385 45.2508 38.996 47.4222 37.0593 49.4868C37.0593 49.4868 34.9383 48.2723 31.3178 48.1141C28.5319 47.9963 25.7497 48.7287 25.7678 48.9274C25.775 48.9716 25.8942 48.9642 26.2628 49.0636C26.8698 49.2218 27.2962 49.4463 27.5961 49.6046C27.7189 49.6671 29.2582 50.4805 29.1606 50.7786C29.0486 51.1135 27.0432 50.2302 24.3116 50.4069C21.7678 50.5725 19.7986 51.5772 19.8347 51.7281C19.8564 51.8238 20.626 51.5846 21.8365 51.7465C22.0063 51.7686 23.6973 52.0004 23.7262 52.42C23.7515 52.869 21.8293 53.0088 19.7588 54.1681C19.0651 54.5582 18.3533 55.0624 17.6957 55.7359C17.6957 55.7359 17.6957 55.7469 17.6812 55.7506C17.5764 55.8574 16.5683 56.8989 15.7842 58.1318C15.6722 58.3084 15.5602 58.4924 15.4627 58.6764C15.2386 58.647 15.0218 58.5992 14.8086 58.5219C14.6641 58.4703 14.5051 58.3931 14.4545 58.2458C14.4148 58.1244 14.4545 57.9919 14.4907 57.8741C14.6641 57.3405 14.8845 56.8915 15.1375 56.3947C15.3651 55.9494 16.2937 54.9152 18.5376 53.5903C19.0579 53.2812 19.4951 53.053 19.7625 52.9205C19.0759 52.7291 18.393 52.5377 17.7065 52.3464C18.6279 51.0656 19.6071 50.4952 20.1961 50.2302C20.7742 49.9726 21.3234 49.8475 22.2014 49.6487C23.1228 49.439 23.9069 49.3285 24.4706 49.2623C24.4164 49.1519 24.3152 48.9863 24.1382 48.8354C23.8491 48.5888 23.5347 48.5336 23.401 48.5226C23.6901 48.4011 23.99 48.2833 24.2935 48.1729C28.727 46.5757 33.1569 47.0026 36.8027 48.0073C38.1613 46.6419 41.0086 44.213 45.1097 43.6499C50.6525 42.8917 55.1619 46.0016 55.104 46.1672V46.1709Z" fill="#DA4D1F"/>
<path d="M38.3467 40.6395C38.2527 42.8918 36.2184 44.3786 34.307 44.4191C32.7063 44.4522 31.1888 43.4696 30.4155 41.9092C30.3252 41.4602 30.1626 40.3598 30.6793 39.16C30.7624 38.965 31.5392 37.2242 33.382 36.6795C33.6169 36.6096 34.0722 36.5028 34.6394 36.5249C36.7749 36.6169 38.4406 38.4608 38.3503 40.6395H38.3467Z" fill="#3C2415" stroke="#231F20" stroke-width="0.909571" stroke-miterlimit="10"/>
<path d="M53.9219 39.4358C53.9219 39.675 53.9074 40.481 53.3474 41.2134C52.3971 42.461 50.735 42.3543 50.5579 42.3432C50.1532 42.0893 49.4703 41.5888 48.9355 40.7276C48.1767 39.5021 47.595 37.3418 48.6501 36.1788C49.1704 35.6047 49.8822 35.5016 50.0412 35.4832C51.8984 35.2661 53.9255 37.4154 53.9183 39.4321L53.9219 39.4358Z" fill="#3C2415" stroke="#231F20" stroke-width="0.909571" stroke-miterlimit="10"/>
<path d="M61.0188 35.9064C57.0984 33.9853 50.2332 31.3061 41.4421 31.3465C25.9483 31.4165 15.2891 39.8885 12.0552 42.6781C13.1681 39.2812 14.664 36.9847 15.813 35.531C17.5474 33.3339 19.4444 30.938 21.5401 29.6904C21.8363 29.5174 22.6963 29.028 23.3503 28.0232C23.4696 27.8356 23.5743 27.6479 23.6574 27.4638C23.979 26.7756 24.073 26.15 24.1163 25.8151C24.138 25.6715 24.1561 25.5317 24.1705 25.3955C24.1958 25.1931 24.2175 25.0017 24.2392 24.814C24.7017 20.7289 24.2428 18.9256 25.4388 17.0523C25.5111 16.9346 26.2699 15.7826 27.4008 15.2048C27.7838 15.0135 28.203 14.881 28.6582 14.8773C29.2797 14.8736 29.7169 15.1055 30.1577 15.3226C30.6781 15.5765 35.6861 18.0239 37.0049 16.7469C37.5903 16.1838 36.8857 15.4367 37.6192 14.4688C38.4213 13.4089 40.0979 13.1991 40.723 13.1181C41.2144 13.0556 41.5794 13.0666 41.6625 13.0703C41.9371 13.0776 43.6209 13.1586 44.9036 14.2222C45.6262 14.8184 46.0273 15.5765 46.5151 16.9971C46.7608 17.7148 47.0282 18.5944 47.2703 19.6396C47.3606 20.015 47.4401 20.4124 47.5196 20.832C47.5521 21.0013 47.5846 21.1816 47.6135 21.3656C47.6388 21.5202 47.6641 21.6748 47.6858 21.833C47.7617 22.3483 47.8303 22.8856 47.8845 23.4523C49.5575 24.6448 51.3136 26.0175 53.1094 27.6C56.336 30.4375 58.9412 33.3008 61.0261 35.9064H61.0188Z" fill="#CB8641" stroke="#231F20" stroke-width="0.30319" stroke-miterlimit="10"/>
<path d="M63.7753 50.9883C63.7753 50.9883 63.3236 50.4289 62.442 50.1602C61.8241 49.9688 61.0364 50.002 60.928 50.2853C60.8051 50.6166 61.7265 50.9625 62.442 52.1365C62.9695 53.0088 62.9623 54.2968 62.9623 54.2968C62.8141 54.168 62.6009 54.0024 62.3155 53.8442C62.3155 53.8442 61.5603 53.4283 60.6967 53.3694C59.732 53.2995 58.7962 54.3889 57.4159 55.6181C55.3708 57.4398 53.275 58.7389 52.1369 59.9829C51.454 60.73 51.0926 61.2747 51.0926 61.2747C50.9481 61.4918 50.8072 61.7126 50.659 61.9261C50.3447 62.3456 50.0303 62.6621 49.7557 62.9124C49.575 63.067 49.4161 63.1884 49.2788 63.2841C48.5669 63.7993 47.7395 64.1306 46.8868 64.3109C45.7341 64.5611 44.5381 64.5207 43.5336 64.2667C42.1353 63.9171 41.9691 63.4939 40.2311 63.0964C39.4 62.905 38.5328 62.9087 37.6765 62.9124C36.6359 62.9161 35.5844 62.9197 34.551 63.0706C32.6143 63.343 30.8112 64.0496 28.8565 64.0643C27.9604 64.0717 26.3524 63.9649 24.5747 63.1332C23.5449 62.6548 22.7283 62.0365 22.1863 61.5654C21.6985 61.1385 21.4275 60.822 21.4275 60.822C21.0734 60.4908 20.8277 60.2295 20.405 60.0307C19.115 59.7289 18.1358 59.8762 17.536 60.0344C17.2036 60.1227 16.9434 60.2295 16.6761 60.3362C15.3861 60.8441 14.5153 61.4476 14.2588 61.6464H14.1757C14.1757 61.6464 14.1793 61.6464 14.1793 61.6427C14.7285 61.0796 14.8477 60.3583 14.8875 60.1559C14.9634 59.751 15.1332 59.3204 15.35 58.8972C15.4728 58.6396 15.6246 58.382 15.7836 58.1317C16.5677 56.8951 17.5758 55.8573 17.6806 55.7469C17.6878 55.7432 17.695 55.7322 17.695 55.7322C18.3562 55.0587 19.0681 54.5545 19.7618 54.1644C21.8322 53.0051 23.7509 52.8652 23.7256 52.4125C23.7003 51.993 22.0057 51.7611 21.8358 51.7391C20.629 51.5771 19.8557 51.8163 19.8341 51.7207C19.8016 51.5661 21.7672 50.565 24.3109 50.3994C27.0426 50.2265 29.048 51.106 29.1564 50.7711C29.2539 50.473 27.7147 49.6634 27.5918 49.5971C27.2919 49.4389 26.8691 49.2181 26.2585 49.0561C25.8899 48.9604 25.7707 48.9641 25.7671 48.92C25.749 48.7212 28.5276 47.9889 31.3171 48.1066C34.9376 48.2612 37.055 49.4794 37.055 49.4794C37.6512 48.7433 40.8526 44.9269 46.352 44.4447C50.7566 44.0583 53.976 46.0493 54.9552 46.7118C55.4069 44.2313 56.8883 42.2513 58.7709 41.7692C60.2234 41.3938 61.8241 41.9348 62.0553 42.0158C62.8683 42.2991 63.4754 42.6966 63.8692 42.9984C63.8692 42.9984 62.8467 43.0058 61.4736 43.44C61.0653 43.5652 60.5089 43.7455 60.5161 43.9553C60.5233 44.1724 61.1412 44.2607 61.7338 44.4631C63.3778 45.0262 64.3859 46.5646 64.4473 46.6603C63.8367 46.3622 62.9695 46.0457 61.9 45.9831C61.582 45.9647 61.2821 45.9721 61.0075 45.9905C61.3002 46.1929 61.6037 46.4395 61.9 46.7412C63.3344 48.2097 63.6741 50.0645 63.768 50.9846L63.7753 50.9883Z" fill="white"/>
<path d="M63.7753 50.9883C63.7753 50.9883 63.3236 50.4289 62.442 50.1602C61.8241 49.9688 61.0364 50.002 60.928 50.2853C60.8051 50.6166 61.7265 50.9625 62.442 52.1365C62.9695 53.0088 62.9623 54.2968 62.9623 54.2968C62.8141 54.168 62.6009 54.0024 62.3155 53.8442C62.3155 53.8442 61.5603 53.4283 60.6967 53.3694C59.732 53.2995 58.7962 54.3889 57.4159 55.6181C55.3708 57.4398 53.275 58.7389 52.1369 59.9829C51.454 60.73 51.0926 61.2747 51.0926 61.2747C50.9481 61.4918 50.8072 61.7126 50.659 61.9261C50.3447 62.3456 50.0303 62.6621 49.7557 62.9124C49.575 63.067 49.4161 63.1884 49.2788 63.2841C48.5669 63.7993 47.7395 64.1306 46.8868 64.3109C45.7341 64.5611 44.5381 64.5207 43.5336 64.2667C42.1353 63.9171 41.9691 63.4939 40.2311 63.0964C39.4 62.905 38.5328 62.9087 37.6765 62.9124C36.6359 62.9161 35.5844 62.9197 34.551 63.0706C32.6143 63.343 30.8112 64.0496 28.8565 64.0643C27.9604 64.0717 26.3524 63.9649 24.5747 63.1332C23.5449 62.6548 22.7283 62.0365 22.1863 61.5654C21.6985 61.1385 21.4275 60.822 21.4275 60.822C21.0734 60.4908 20.8277 60.2295 20.405 60.0307C19.115 59.7289 18.1358 59.8762 17.536 60.0344C17.2036 60.1227 16.9434 60.2295 16.6761 60.3362C15.3861 60.8441 14.5153 61.4476 14.2588 61.6464H14.1757C14.1757 61.6464 14.1793 61.6464 14.1793 61.6427C14.7285 61.0796 14.8477 60.3583 14.8875 60.1559C14.9634 59.751 15.1332 59.3204 15.35 58.8972C15.4728 58.6396 15.6246 58.382 15.7836 58.1317C16.5677 56.8951 17.5758 55.8573 17.6806 55.7469C17.6878 55.7432 17.695 55.7322 17.695 55.7322C18.3562 55.0587 19.0681 54.5545 19.7618 54.1644C21.8322 53.0051 23.7509 52.8652 23.7256 52.4125C23.7003 51.993 22.0057 51.7611 21.8358 51.7391C20.629 51.5771 19.8557 51.8163 19.8341 51.7207C19.8016 51.5661 21.7672 50.565 24.3109 50.3994C27.0426 50.2265 29.048 51.106 29.1564 50.7711C29.2539 50.473 27.7147 49.6634 27.5918 49.5971C27.2919 49.4389 26.8691 49.2181 26.2585 49.0561C25.8899 48.9604 25.7707 48.9641 25.7671 48.92C25.749 48.7212 28.5276 47.9889 31.3171 48.1066C34.9376 48.2612 37.055 49.4794 37.055 49.4794C37.6512 48.7433 40.8526 44.9269 46.352 44.4447C50.7566 44.0583 53.976 46.0493 54.9552 46.7118C55.4069 44.2313 56.8883 42.2513 58.7709 41.7692C60.2234 41.3938 61.8241 41.9348 62.0553 42.0158C62.8683 42.2991 63.4754 42.6966 63.8692 42.9984C63.8692 42.9984 62.8467 43.0058 61.4736 43.44C61.0653 43.5652 60.5089 43.7455 60.5161 43.9553C60.5233 44.1724 61.1412 44.2607 61.7338 44.4631C63.3778 45.0262 64.3859 46.5646 64.4473 46.6603C63.8367 46.3622 62.9695 46.0457 61.9 45.9831C61.582 45.9647 61.2821 45.9721 61.0075 45.9905C61.3002 46.1929 61.6037 46.4395 61.9 46.7412C63.3344 48.2097 63.6741 50.0645 63.768 50.9846L63.7753 50.9883Z" stroke="#231F20" stroke-width="0.30319" stroke-miterlimit="10"/>
<path d="M49.7537 62.9086C49.2153 63.3392 48.2469 63.9906 46.8847 64.3071C46.303 64.4396 44.9986 64.631 43.5316 64.263C42.1333 63.9133 41.967 63.4901 40.2291 63.0926C39.398 62.9013 38.5308 62.9049 37.6745 62.9086C36.6338 62.9123 35.5824 62.916 34.549 63.0669C32.6122 63.3392 30.8092 64.0458 28.8544 64.0606C27.9583 64.0679 26.3504 63.9612 24.5727 63.1294C23.5429 62.651 22.7263 62.0327 22.1843 61.5616C21.6965 61.1347 21.4255 60.8182 21.4255 60.8182C21.0714 60.487 20.8257 60.2257 20.4029 60.027C20.3885 60.0123 20.3777 60.0086 20.3632 60.0049C20.2656 59.9497 20.1789 59.9129 20.1067 59.9018C19.1094 59.7178 18.1988 59.8724 17.9098 59.9313C17.8809 59.935 17.8447 59.946 17.8122 59.9534C17.7219 59.9791 17.6315 60.0049 17.5376 60.0307C17.2341 60.1227 16.945 60.222 16.6776 60.3324L15.3516 58.8934C15.4744 58.6358 15.6262 58.3782 15.7852 58.1279C16.9631 57.6863 18.6866 57.2373 20.6812 57.4949C23.8753 57.9071 24.0235 59.6553 27.1923 60.7409C31.409 62.1836 35.3403 60.5201 39.5931 61.3003C40.6048 61.4844 41.5371 61.7236 41.5371 61.7236C42.7078 62.0842 43.257 62.4928 44.9299 62.8093C46.9751 63.192 48.6227 63.0485 49.7573 62.9049L49.7537 62.9086Z" fill="#E6E7E8"/>
<path d="M42.7327 106.708C47.5312 97.5216 49.0054 86.5801 46.8121 76.4152C46.3786 74.4021 45.7932 72.389 44.7164 70.6445C43.6397 68.9001 42.0101 67.4353 40.0517 66.9238C37.3959 66.2319 34.3608 67.5494 33.013 69.9784L29.1143 81.4498L42.7364 106.708H42.7327Z" fill="white"/>
<path d="M63.7753 50.9883C63.7753 50.9883 63.3236 50.4289 62.442 50.1602C61.8241 49.9688 60.928 50.2853 60.928 50.2853C61.8024 50.933 62.2216 51.6065 62.442 52.1365C62.7961 52.994 62.9623 54.2968 62.9623 54.2968C62.4636 53.8736 61.6615 53.34 60.6967 53.3657C59.6344 53.3988 59.1755 54.0502 57.4159 55.6144C54.0844 58.5807 53.8243 57.8777 52.1369 59.9792C50.9842 61.4182 50.7168 62.3309 49.2788 63.2804C48.2345 63.9686 47.2698 64.2189 46.8868 64.3072C45.3547 64.6531 44.1045 64.3881 43.5336 64.263C41.9474 63.9134 41.8896 63.4239 40.2311 63.0927C39.4109 62.9308 38.793 62.905 37.6765 62.9087C36.6359 62.9124 35.5844 62.916 34.551 63.0669C32.6143 63.3393 30.8112 64.0459 28.8565 64.0606C28.0688 64.068 26.3524 64.0532 24.5747 63.1295C22.3056 61.9518 22.3814 60.5496 20.405 60.0307C18.826 59.6185 17.3012 60.1264 16.6761 60.3362C15.5776 60.7042 14.7682 61.2452 14.2588 61.6463H14.1757C14.1757 61.6463 14.1793 61.6463 14.1793 61.6427C14.92 60.0381 15.6607 58.4298 16.4051 56.8252C17.1349 56.0118 18.2298 54.9814 19.7618 54.168C21.8539 53.0566 23.7545 52.8762 23.7256 52.4162C23.7003 51.9967 22.0057 51.7648 21.8358 51.7427C20.629 51.5808 19.8557 51.82 19.8341 51.7243C19.8016 51.5697 21.7672 50.5687 24.3109 50.4031C27.0426 50.2301 29.048 51.1097 29.1564 50.7748C29.2539 50.4767 27.7147 49.667 27.5918 49.6008C27.2919 49.4425 26.8691 49.2217 26.2585 49.0598C25.8899 48.9641 25.7707 48.9678 25.7671 48.9236C25.749 48.7249 28.5276 47.9925 31.3171 48.1103C34.9376 48.2649 37.055 49.483 37.055 49.483C37.6512 48.747 40.8526 44.9305 46.352 44.4484C50.7566 44.062 53.976 46.053 54.9552 46.7155C55.4069 44.2349 56.8883 42.255 58.7709 41.7728C60.2234 41.3975 61.8241 41.9385 62.0553 42.0194C62.8683 42.3028 63.4754 42.7003 63.8692 43.0021C63.8692 43.0021 62.8467 43.0094 61.4736 43.4437C61.0653 43.5688 60.5161 43.9589 60.5161 43.9589C60.9858 44.0877 61.5531 44.2975 62.1529 44.6361C63.2875 45.2801 64.0246 46.1008 64.4473 46.6602C64.4076 46.6455 64.3642 46.6345 64.3245 46.6198C63.3381 46.2996 62.236 46.0714 61.0111 45.9904C61.3038 46.1929 61.6073 46.4394 61.9036 46.7412C63.3381 48.2096 63.6777 50.0645 63.7717 50.9846L63.7753 50.9883Z" stroke="#231F20" stroke-width="0.909571" stroke-miterlimit="10"/>
<path d="M61.5889 118.801C55.7246 120.921 47.0129 123.324 36.2526 123.652C29.1777 123.869 22.952 123.133 17.8754 122.121C15.7869 121.705 13.8971 121.245 12.217 120.785C13.5792 113.24 14.4969 106.844 15.1112 102.052C17.1961 85.7669 16.7227 80.7838 16.412 78.3254C15.9206 74.439 15.1509 68.3371 12.5494 63.4203C12.1664 62.6989 10.1718 59.0371 7.01021 53.0713C6.93071 52.9204 6.74282 52.5671 6.66333 52.4163C8.10142 52.0777 9.79605 51.7832 11.7075 51.6508C14.1609 51.4815 16.3217 51.6213 18.0813 51.8605C17.8139 52.7475 17.449 54.3705 17.7525 56.3578C17.9693 57.7747 18.4499 58.8751 18.8329 59.5928C20.0289 59.0334 21.691 58.4188 23.7397 58.128C27.0893 57.6533 29.8353 58.2826 31.4216 58.7831C30.9302 59.7437 30.3882 61.0355 30.016 62.6253C29.5499 64.6311 29.5318 66.3755 29.6149 67.6195C32.5056 70.6115 36.0285 74.8807 39.1179 80.5741C43.508 88.6559 45.1738 96.1895 45.8639 101.195C47.2406 99.1153 48.9641 95.9687 49.8024 91.8872C52.1221 80.6329 47.208 64.9991 47.8006 64.0643C48.2306 63.9098 48.6642 63.7515 49.0942 63.5969C50.1131 65.4076 51.5982 68.1384 53.2675 71.5243C57.0543 79.2013 59.0235 83.0251 59.7859 87.8978C60.5049 92.5055 59.7859 93.3777 59.8293 100.779C59.8546 105.243 60.1942 111.393 61.5817 118.797L61.5889 118.801Z" fill="#AC9955" stroke="#231F20" stroke-width="0.30319" stroke-miterlimit="10"/>
<path d="M24.8042 66.1033C24.0996 67.1043 23.395 68.109 22.6904 69.1101C19.5252 72.3818 18.2569 75.5248 17.6896 77.4348C14.8857 86.8674 20.302 96.6643 20.5369 97.0802C22.0545 99.7557 24.432 105.46 24.432 105.46L25.2522 108.106C24.8222 108.235 24.1502 108.504 23.5142 109.082C23.1637 109.402 21.9822 110.473 22.1773 111.831C22.199 111.982 22.3255 112.858 23.012 113.218C23.7166 113.586 24.7427 113.303 25.404 112.427C25.4473 112.504 26.1411 113.726 27.5394 113.8C28.5259 113.851 29.4689 113.307 29.9531 112.401C30.094 112.519 31.2358 113.443 32.6016 113.06C32.8329 112.997 33.6097 112.78 33.9675 112.088C34.6287 110.808 33.2159 109.115 33.0208 108.89C32.2439 107.985 31.2756 107.624 30.7155 107.473C30.7227 106.649 30.7408 105.821 30.7697 104.982C31.0046 98.0812 31.9007 91.6481 33.1978 85.7302" fill="#F36B21"/>
<path d="M24.8042 66.1033C24.0996 67.1043 23.395 68.109 22.6904 69.1101C19.5252 72.3818 18.2569 75.5248 17.6896 77.4348C14.8857 86.8674 20.302 96.6643 20.5369 97.0802C22.0545 99.7557 24.432 105.46 24.432 105.46L25.2522 108.106C24.8222 108.235 24.1502 108.504 23.5142 109.082C23.1637 109.402 21.9822 110.473 22.1773 111.831C22.199 111.982 22.3255 112.858 23.012 113.218C23.7166 113.586 24.7427 113.303 25.404 112.427C25.4473 112.504 26.1411 113.726 27.5394 113.8C28.5259 113.851 29.4689 113.307 29.9531 112.401C30.094 112.519 31.2358 113.443 32.6016 113.06C32.8329 112.997 33.6097 112.78 33.9675 112.088C34.6287 110.808 33.2159 109.115 33.0208 108.89C32.2439 107.985 31.2756 107.624 30.7155 107.473C30.7227 106.649 30.7408 105.821 30.7697 104.982C31.0046 98.0812 31.9007 91.6481 33.1978 85.7302" stroke="#231F20" stroke-width="0.909571" stroke-miterlimit="10"/>
<path d="M35.8893 17.1077C36.2976 17.2881 36.9335 17.531 37.7429 17.6782C38.8016 17.8732 39.6796 18.0315 40.265 17.5089C40.4023 17.3837 40.7745 17.001 40.807 16.1067" stroke="#231F20" stroke-width="0.606381" stroke-miterlimit="10"/>
<path d="M47.5168 20.832L24.1714 25.3919C24.2292 23.2573 24.3954 21.465 24.5652 20.0996C24.7278 18.771 24.8904 17.9356 25.4396 17.0487C25.5119 16.9309 26.2707 15.779 27.4017 15.2012C27.4414 15.3815 26.9175 16.1838 26.7874 17.5676C26.6501 19.0839 27.0692 20.4014 27.5281 21.384C30.0863 20.6259 33.2552 19.9082 36.9227 19.5549C40.9334 19.1648 44.4492 19.3194 47.2639 19.6396L47.5132 20.832H47.5168Z" fill="#AA6B34"/>
<path d="M47.6833 21.8333C47.6833 21.8333 47.6759 21.8373 47.6685 21.8373" stroke="#231F20" stroke-width="0.30319" stroke-miterlimit="10"/>
<path d="M61.0188 35.9064C57.0984 33.9853 50.2332 31.3061 41.4421 31.3465C25.9483 31.4165 15.2891 39.8885 12.0552 42.6781C12.1166 42.5051 12.1708 42.3285 12.2358 42.1592C13.3234 39.0457 14.7254 36.9111 15.813 35.531C17.5474 33.3339 19.4444 30.938 21.5401 29.6904C21.8363 29.5174 22.6963 29.028 23.3503 28.0232C23.4696 27.8356 23.5743 27.6479 23.6574 27.4638C23.8959 26.9486 24.0079 26.4739 24.073 26.1242C24.091 26.0065 24.1019 25.9034 24.1163 25.8151C24.138 25.6715 24.1561 25.5317 24.1705 25.3955C24.1958 25.1931 24.2175 25.0017 24.2392 24.814C24.7017 20.7289 24.2428 18.9256 25.4388 17.0523C25.5111 16.9346 26.2699 15.7826 27.4008 15.2048C27.7838 15.0135 28.203 14.881 28.6582 14.8773C29.2797 14.8736 29.7169 15.1055 30.1577 15.3226C30.6781 15.5765 35.6861 18.0239 37.0049 16.7469C37.5903 16.1838 36.8857 15.4367 37.6192 14.4688C38.4213 13.4089 40.0979 13.1991 40.723 13.1181C41.2144 13.0556 41.5794 13.0666 41.6625 13.0703C41.9371 13.0776 43.6209 13.1586 44.9036 14.2222C45.6262 14.8184 46.0273 15.5765 46.5151 16.9971C46.7608 17.7148 47.0282 18.5944 47.2703 19.6396C47.3606 20.015 47.4401 20.4124 47.5196 20.832C47.5521 21.0013 47.5846 21.1816 47.6135 21.3656C47.6388 21.5202 47.6641 21.6748 47.6858 21.833C47.7617 22.3483 47.8303 22.8856 47.8845 23.4523C49.5575 24.6448 51.3136 26.0175 53.1094 27.6C56.336 30.4375 58.9412 33.3008 61.0261 35.9064H61.0188Z" stroke="#231F20" stroke-width="0.30319" stroke-miterlimit="10"/>
<path d="M24.0727 26.1244C24.911 25.7195 25.9516 25.2521 27.1657 24.7958C37.5503 20.8947 47.8156 22.4294 47.8771 23.4525C47.9421 24.5161 36.8529 23.3568 25.2723 30.2131C19.1153 33.8603 14.9311 38.5159 12.2356 42.1556C13.3232 39.0421 14.7252 36.9076 15.8128 35.5275C17.5471 33.3303 19.4441 30.9345 21.5398 29.6869C21.7602 29.5544 22.678 29.0612 23.3501 28.0197C23.4946 27.7952 23.5958 27.5965 23.6572 27.4603" fill="#AA6B34"/>
<path d="M47.881 23.4525C46.1141 23.3421 44.0871 23.3053 41.8541 23.412C39.6138 23.5151 37.1568 23.7727 34.5408 24.2585C30.2157 25.0571 26.5554 26.2716 23.6539 27.464C23.8924 26.9488 24.0044 26.474 24.0695 26.1244C24.0875 26.0066 24.0984 25.9036 24.1128 25.8152C24.1345 25.6717 24.1526 25.5319 24.167 25.3957C24.1923 25.1933 24.214 25.0019 24.2357 24.8142C26.3531 23.239 28.9257 22.4294 31.4875 21.8553C36.734 20.6665 42.1576 20.3243 47.5125 20.8321H47.5378L47.6064 21.3658L47.6678 21.8369L47.8774 23.4525H47.881Z" fill="#3F140F"/>
<path d="M14.4438 68.1753C14.4438 68.1753 11.5965 61.4698 9.80794 57.9146C8.80706 55.9236 7.78811 54.0209 6.76917 52.2139C7.99768 52.0004 8.97689 51.7575 9.67064 51.5625C10.4294 51.349 10.8666 51.1945 11.3653 51.3748C11.7374 51.511 12.2216 51.868 12.6191 52.9352C13.732 55.9494 15.6759 71.8813 15.6759 71.8813L14.4474 68.1716L14.4438 68.1753Z" fill="#CCBF80"/>
<path d="M33.1966 85.7302C33.1496 87.5041 32.9617 89.819 32.3475 94.4157C31.9211 97.6249 31.4441 100.812 31.2021 102.98C30.1398 102.715 28.9221 102.579 27.5852 102.718C27.3431 102.744 26.5879 102.832 25.6304 103.112C24.9619 103.307 24.055 103.642 23.0396 104.227C21.9556 102.608 20.4778 100.131 19.2385 96.8888C17.851 93.2638 14.9423 85.6603 17.692 77.4349C18.3387 75.5027 19.6901 72.3598 22.6928 69.1101C23.3974 66.8283 24.1778 66.199 24.8029 66.1033C27.7478 65.6506 33.4567 75.9223 33.1966 85.7265V85.7302Z" fill="#AC9955" stroke="#231F20" stroke-width="0.909571" stroke-miterlimit="10"/>
<path d="M30.8482 72.7276C30.8482 77.074 28.3659 80.2023 25.3307 79.7128C22.3244 79.2307 19.9108 75.3774 19.9108 71.1083C19.9108 66.8392 22.3244 63.7036 25.3307 64.1084C28.337 64.5133 30.8482 68.3812 30.8482 72.7276Z" fill="#AC9955"/>
<path d="M1.85208 73.3202C1.85931 73.9532 1.83402 74.542 1.79066 75.0794C0.923467 73.7029 -0.323118 72.5768 -1.77205 71.8665C-0.565208 73.9238 0.247781 76.2129 0.601884 78.5793C-0.362864 76.8422 -2.04304 75.5357 -3.94002 75.0462C-3.63289 75.3959 -2.91746 76.3086 -2.71511 77.6924C-2.55613 78.7707 -2.78738 79.6392 -2.93914 80.0845C-3.10535 79.1608 -3.49558 77.7476 -4.50369 76.3748C-4.85418 75.889 -5.21912 75.4916 -5.566 75.1714C-6.33924 78.0641 -5.9743 81.2512 -4.56873 83.89C-5.87674 82.2559 -7.29315 80.7212 -8.81073 79.2896C-8.35184 80.2686 -7.87128 81.472 -7.49188 82.8852C-7.05829 84.4862 -6.86678 85.9325 -6.78729 87.1102C-7.70145 86.5692 -9.25878 85.4725 -10.4656 83.5219C-11.1016 82.4915 -11.4629 81.5088 -11.6761 80.736C-12.0374 82.2081 -12.377 84.2249 -12.3337 86.6244C-12.2831 89.2632 -11.7809 91.4382 -11.3075 92.9655C-11.9724 91.7216 -12.9227 90.6433 -14.0572 89.8226C-14.1078 89.7784 -14.1656 89.7379 -14.2198 89.7011C-14.2632 88.1223 -14.6498 86.4846 -15.7302 85.3621C-17.1357 83.9047 -19.3146 83.6655 -21.1646 82.8816C-24.7164 81.38 -27.0976 77.4716 -26.9964 73.5852C-26.9892 73.1435 -26.9458 72.713 -26.8736 72.2787C-26.8736 73.6551 -26.0461 74.9248 -24.9802 75.7676C-23.907 76.614 -22.6243 77.1035 -21.3561 77.582C-22.8592 76.7465 -23.9576 75.1898 -24.2431 73.4711C-23.3831 74.3323 -22.0968 74.6377 -20.89 74.5531C-19.6831 74.4648 -18.5269 74.0415 -17.3923 73.6183C-17.7898 73.3864 -18.3101 73.1288 -18.9424 72.9227C-19.647 72.6982 -20.2793 72.6062 -20.7671 72.5731C-15.7735 68.9775 -9.22987 67.6967 -3.28601 69.1652C-1.76482 69.5369 -0.268917 70.0889 1.02103 70.9943C1.27396 71.1746 1.51966 71.3623 1.74368 71.5573C1.79788 72.0947 1.83763 72.6798 1.84486 73.3165L1.85208 73.3202Z" fill="white"/>
<path d="M58.3638 48.8833C58.3458 49.5642 58.2085 51.6472 56.68 53.5609C55.3792 55.1913 53.7858 55.7875 53.2293 55.9862C52.3043 56.3175 50.5302 56.7591 45.6378 55.379C41.45 54.1976 37.8114 52.4826 37.9198 52.1735C38.0969 51.6693 47.4914 57.0903 54.1435 53.3438C56.3837 52.0815 57.6809 50.1346 58.3674 48.8833H58.3638Z" fill="#E6E7E8"/>
<path d="M49.6437 56.3651C50.7493 56.527 51.7249 56.4534 52.5777 56.1627C52.5777 56.1627 53.9037 55.8204 54.9733 55.1359C56.162 54.3777 57.7266 52.1217 58.3589 48.8794" stroke="#231F20" stroke-width="0.909571" stroke-miterlimit="10"/>
<path d="M49.5505 59.1659C48.9796 60.1264 47.986 60.6601 47.1296 60.6269C46.7069 60.6122 46.3203 60.5312 45.9734 60.3988C45.9734 60.3988 45.6193 60.2626 45.2832 60.0454C44.9147 59.8099 43.7584 58.6653 42.0963 56.9025C40.9762 55.7138 39.6248 54.2453 38.1217 52.5708C40.5318 53.6786 43.137 54.6722 45.9372 55.4598C46.8117 55.7101 47.7078 55.9383 48.6219 56.1444C48.9941 56.229 49.3626 56.31 49.7348 56.3836C49.789 56.5197 50.3202 57.8557 49.5505 59.1585V59.1659Z" fill="#6A0C0D" stroke="#231F20" stroke-width="0.30319" stroke-miterlimit="10"/>
<path d="M53.2976 45.2323C53.63 45.0188 54.0239 44.9379 54.4141 44.8863C56.022 44.6692 56.994 44.533 58.0202 45.074C58.3634 45.2544 59.3318 45.788 59.4619 46.697C59.5558 47.3705 59.1547 48.0219 58.62 48.8868C58.4176 49.2107 58.2767 49.4462 58.0419 49.7038C57.8829 49.8805 56.658 51.2937 55.3174 50.9956C53.9083 50.6828 53.5722 49.0414 52.9941 47.9336C52.5424 47.0614 52.304 45.8763 53.3012 45.2286L53.2976 45.2323Z" fill="#532410" stroke="#231F20" stroke-width="0.606381" stroke-miterlimit="10"/>
<path d="M17.5872 38.5749C17.4499 38.9539 17.2548 39.5317 17.0742 40.2531C16.8284 41.2394 16.7887 41.7804 16.6514 42.5569C16.5719 43.0169 16.3262 44.4007 15.777 45.7183C15.4662 46.4654 14.899 47.5658 13.8439 48.7398C14.375 48.4564 15.1989 47.9338 15.9396 47.0469C17.7426 44.8939 17.197 42.7998 18.6026 40.6174C19.0615 39.9034 19.8347 39.0128 22.3893 37.6989C31.2274 33.1464 41.4494 32.8115 41.4494 32.8115C49.7021 32.5392 55.104 33.934 55.1329 33.739C55.1691 33.5034 47.3102 30.6954 37.5254 31.5455C28.0224 32.3699 21.0777 36.2673 17.5909 38.5749H17.5872Z" fill="#DA4D1F"/>
<path d="M61.0188 35.9064C57.0478 33.9816 50.197 31.3429 41.442 31.3465C26.0314 31.3465 15.3216 39.5131 11.9359 42.3359C13.168 39.1782 14.6603 36.9737 15.8166 35.531C18.364 32.3513 19.7731 30.8718 21.5436 29.6904C21.9736 29.4034 23.007 28.7483 23.661 27.4638C24.1308 26.5438 24.1813 25.7378 24.2428 24.814C24.6294 19.1023 24.8173 18.0644 25.4424 17.0523C25.5147 16.9346 26.2734 15.7826 27.4044 15.2048C27.7874 15.0135 28.2065 14.881 28.6618 14.8773C29.4134 14.8699 29.9735 15.2122 30.1613 15.3226C31.5127 16.1102 35.8161 17.8988 37.0085 16.7469C37.5939 16.1801 36.8893 15.4367 37.6228 14.4688C38.4249 13.4089 40.1015 13.1991 40.7266 13.1181C41.218 13.0556 41.5829 13.0666 41.6661 13.0703C43.0102 13.1439 44.1917 13.6738 44.9072 14.2222C46.2513 15.2527 46.6018 16.7542 47.2739 19.6396C47.6352 21.1927 47.8014 22.5139 47.8881 23.4487C49.5611 24.6411 51.3171 26.0138 53.113 27.5963C56.3396 30.4338 58.9448 33.2971 61.0297 35.9027L61.0188 35.9064Z" stroke="#231F20" stroke-width="0.909571" stroke-miterlimit="10"/>
<path d="M36.4775 53.4356C36.4595 53.3509 36.2752 52.4566 36.9075 51.739C37.5435 51.0176 38.4359 51.106 38.519 51.117" stroke="#231F20" stroke-width="0.606381" stroke-miterlimit="10"/>
<path d="M49.2464 58.9157C48.6755 59.8763 47.6819 60.4099 46.8255 60.3768C46.4028 60.3621 46.0162 60.2811 45.6693 60.1486C45.5067 60.0824 45.2574 59.9683 44.9792 59.7953C44.1409 59.2764 43.7037 58.6544 43.3207 58.1723C42.9268 57.6791 42.3162 56.9946 41.4128 56.2512C41.6296 56.0709 41.8934 55.8979 42.2114 55.7617C43.6603 55.1434 45.102 55.8022 45.4814 55.9899C45.6332 55.666 45.9367 55.4452 46.2799 55.4231C46.7208 55.3937 47.0062 55.6992 47.0423 55.7396C47.8409 55.8721 48.6394 56.0046 49.4343 56.1371C49.4343 56.1371 50.0197 57.6092 49.2501 58.912L49.2464 58.9157Z" fill="#BE1E2D"/>
<path d="M49.5503 59.1658C48.9794 60.1263 47.9857 60.66 47.1294 60.6269C46.7066 60.6121 46.32 60.5312 45.9731 60.3987C45.8105 60.3324 45.5612 60.2183 45.283 60.0454C44.4447 59.5265 44.0075 58.9045 43.6245 58.4224C43.2306 57.9292 42.62 57.2447 41.7167 56.5013C42.0021 56.2547 42.2804 56.1075 42.5152 56.0118C44.1159 55.3714 45.7527 56.4976 45.9912 56.6706C45.9731 56.2436 46.208 55.8499 46.5802 55.6732C46.927 55.5113 47.3353 55.5628 47.6425 55.8057C48.3398 56.0008 49.0408 56.1921 49.7382 56.3872C49.7382 56.3872 50.3235 57.8593 49.5539 59.1621L49.5503 59.1658Z" fill="#F48888"/>
<path d="M49.5505 59.1659C48.9796 60.1264 47.986 60.6601 47.1296 60.6269C46.7069 60.6122 46.3203 60.5312 45.9734 60.3988C45.9734 60.3988 45.6193 60.2626 45.2832 60.0454C44.9147 59.8099 43.7584 58.6653 42.0963 56.9025C40.9762 55.7138 39.6248 54.2453 38.1217 52.5708C40.5318 53.6786 43.137 54.6722 45.9372 55.4598C46.8117 55.7101 47.7078 55.9383 48.6219 56.1444C48.9941 56.229 49.3626 56.31 49.7348 56.3836C49.789 56.5197 50.3202 57.8557 49.5505 59.1585V59.1659Z" stroke="#231F20" stroke-width="0.909571" stroke-miterlimit="10"/>
<path d="M45.9312 55.9971C46.6755 57.4949 46.9899 58.2788 46.8779 58.3488C46.8634 58.3561 46.8418 58.3561 46.8129 58.3414C46.6575 57.9329 46.4913 57.5244 46.2636 57.1564C46.036 56.7847 45.7397 56.4497 45.3748 56.2216C45.559 56.148 45.7469 56.0744 45.9312 56.0008V55.9971Z" fill="#BE1E2D"/>
<path d="M36.5396 39.3144C37.232 39.3144 37.7934 38.7426 37.7934 38.0373C37.7934 37.332 37.232 36.7603 36.5396 36.7603C35.8471 36.7603 35.2858 37.332 35.2858 38.0373C35.2858 38.7426 35.8471 39.3144 36.5396 39.3144Z" fill="white"/>
<path d="M52.7344 37.4375C53.2313 37.4375 53.6341 37.0272 53.6341 36.5211C53.6341 36.015 53.2313 35.6047 52.7344 35.6047C52.2375 35.6047 51.8347 36.015 51.8347 36.5211C51.8347 37.0272 52.2375 37.4375 52.7344 37.4375Z" fill="white"/>
<path opacity="0.6" d="M55.9891 46.9069C56.947 46.9069 57.7235 46.6763 57.7235 46.3917C57.7235 46.1071 56.947 45.8765 55.9891 45.8765C55.0313 45.8765 54.2548 46.1071 54.2548 46.3917C54.2548 46.6763 55.0313 46.9069 55.9891 46.9069Z" fill="#C8591A"/>
<path d="M49.4707 17.5456C49.6478 17.2365 50.3957 15.9594 51.6893 14.5241C53.5465 12.4632 55.6169 11.0941 57.2068 10.2292C56.6214 10.7518 55.8084 11.4953 54.8762 12.4337C53.7633 13.5525 53.2069 14.1119 52.766 14.7339C51.6062 16.368 51.8158 17.0525 50.8329 18.2743C50.3704 18.8521 49.5791 19.625 48.2169 20.2433C48.4807 19.5146 48.8745 18.5761 49.4671 17.5456H49.4707Z" fill="#F58220"/>
<path d="M19.0187 18.624C20.4821 20.5414 21.6383 22.7054 23.286 24.4646C20.6302 23.2869 18.3358 21.2848 16.7857 18.7933C15.8318 17.2586 15.0621 15.5105 13.4 14.6493C15.5319 14.5094 17.8408 17.0819 19.0187 18.6277V18.624Z" fill="#F58220"/>
<path opacity="0.65" d="M56.3467 32.8923C54.54 31.7588 51.4073 30.1247 47.2087 29.4991C41.7056 28.6784 37.3046 30.0254 35.1873 30.8387C38.161 30.3198 42.3235 29.937 47.2087 30.5774C50.887 31.0558 53.9727 31.9833 56.3467 32.896V32.8923Z" fill="#D3A043"/>
<path d="M45.7273 101.997C48.2385 97.4076 49.3045 93.385 49.8103 90.6837C49.8103 90.6837 51.0388 82.8557 49.4779 73.0257C49.3876 72.4553 48.8311 70.0741 48.3469 66.784C48.1554 65.4959 48.029 64.4359 47.9495 63.7624C48.2566 63.7588 48.6974 63.7956 49.1455 64.0311C49.8898 64.4212 50.1861 65.1168 50.7967 66.4675C51.8807 68.8596 51.8952 68.775 52.0361 69.1577C52.3324 69.9527 54.7497 77.0335 52.7371 86.6427C51.2412 93.7825 48.0001 98.979 45.7273 101.997Z" fill="#CCBF80"/>
<path d="M14.82 104.82C9.82281 106.215 3.79223 107.304 -2.20944 106.892C-3.86794 106.778 -5.74324 106.435 -7.82811 105.383C-11.6835 103.432 -14.3284 99.2109 -14.4404 94.824C-14.4621 93.8414 -14.3718 92.8588 -14.2995 91.8761C-14.2453 91.221 -14.2019 90.566 -14.2128 89.9072C-14.2128 89.8373 -14.2128 89.771 -14.2164 89.7011C-14.2236 89.414 -14.2417 89.1233 -14.2778 88.8325C-14.4224 87.5408 -14.8415 86.2784 -15.7268 85.362C-15.9399 85.1412 -16.1748 84.9425 -16.4241 84.7732C-17.7899 83.8163 -19.5894 83.544 -21.1611 82.8852C-25.1105 81.2107 -27.6109 76.5662 -26.8665 72.2823C-26.8665 73.6551 -26.0427 74.9248 -24.9732 75.7676C-23.9036 76.614 -22.6173 77.1035 -21.349 77.5856C-22.8522 76.7502 -23.9506 75.1934 -24.2361 73.4711C-23.3761 74.3323 -22.0898 74.6377 -20.8865 74.5531C-19.6761 74.4684 -18.5234 74.0452 -17.3889 73.622C-17.7863 73.3901 -18.3066 73.1288 -18.939 72.9264C-19.6436 72.6982 -20.2723 72.6099 -20.7637 72.5768C-15.7737 68.9811 -9.22645 67.7004 -3.28259 69.1688C-1.7614 69.5405 -0.265493 70.0926 1.02445 70.9979C1.27738 71.1746 1.51947 71.3623 1.74711 71.561C5.27368 74.5678 5.88432 79.4994 6.08667 80.9862C6.62505 84.9388 5.62778 86.7421 5.76147 89.6054C5.79761 90.404 5.70727 91.4566 6.26011 92.5717C7.22485 94.5039 9.25191 95.2362 10.0649 95.527C12.0594 96.2483 14.0612 96.068 15.7089 95.6153" stroke="#231F20" stroke-width="0.909571" stroke-miterlimit="10"/>
<path d="M49.0378 89.6313C48.9583 91.9536 48.4849 93.9667 47.8129 95.8215C47.7984 95.8694 47.7803 95.9172 47.7623 95.9651C45.4859 94.5445 43.8635 92.9399 43.2348 91.0556C41.8148 82.8891 41.3342 75.488 42.4543 69.3935C42.093 68.7789 41.7317 68.1606 41.3704 67.5423C41.8184 67.27 42.2917 66.9498 42.7795 66.5854C43.0794 66.3609 43.3577 66.1364 43.6178 65.9156C43.6648 65.8788 43.7118 65.8383 43.7587 65.7979C44.0044 66.0996 44.2863 66.4198 44.6187 66.7474C44.9475 67.0749 45.2691 67.3583 45.569 67.6049C45.3088 68.19 45.0487 68.7752 44.7885 69.364C44.6585 75.7309 46.3748 82.5615 49.0378 89.6313Z" fill="#D12029"/>
<path d="M47.8129 95.8215C47.7984 95.8693 47.7803 95.9172 47.7623 95.965C45.4859 94.5444 43.8635 92.9398 43.2348 91.0555C41.8148 82.889 41.3342 75.4879 42.4543 69.3934C42.093 68.7788 41.7317 68.1605 41.3704 67.5422C41.8184 67.2699 42.2917 66.9497 42.7795 66.5853C43.0794 66.3608 43.3577 66.1363 43.6178 65.9155C43.018 66.4565 42.5013 67.0527 42.1689 67.7483C42.2339 67.9581 42.3423 68.2047 42.5266 68.4402C43.224 69.3198 44.5898 69.2719 44.5898 69.2719C44.5031 69.4964 43.3252 69.6326 43.1011 69.5185C43.1011 69.5185 42.1581 79.0578 42.9169 82.4584C43.4914 86.0356 44.8211 90.7684 47.8129 95.8215Z" fill="#950F16"/>
<path d="M49.0378 89.6313C48.9583 91.9536 48.4849 93.9667 47.8129 95.8215C47.7984 95.8694 47.7803 95.9172 47.7623 95.9651C47.1263 95.6706 45.9231 95.0082 44.8789 93.6833C43.7804 92.2885 43.4227 90.8716 43.289 90.1686C42.6206 87.2575 42.0316 83.6325 41.8907 79.448C41.7606 75.5874 42.0424 72.1868 42.4543 69.3935C42.093 68.7789 41.7317 68.1606 41.3704 67.5423C41.8184 67.27 42.2917 66.9498 42.7795 66.5854C43.0794 66.3609 43.3577 66.1364 43.6178 65.9156C43.6648 65.8788 43.7118 65.8383 43.7587 65.7979C44.0044 66.0996 44.2863 66.4198 44.6187 66.7474C44.9475 67.0749 45.2691 67.3583 45.569 67.6049C45.3088 68.19 45.0487 68.7752 44.7885 69.364C44.6585 75.7309 46.3748 82.5615 49.0378 89.6313Z" stroke="#231F20" stroke-width="0.909571" stroke-miterlimit="10"/>
<path d="M61.59 118.801C55.7256 120.921 47.014 123.324 36.2536 123.652C29.1788 123.869 22.9531 123.133 17.8764 122.121C15.788 121.705 13.8982 121.245 12.218 120.785C13.8404 113.13 14.6606 106.682 15.1123 102.052C16.4817 87.9677 17.4609 76.7171 12.872 64.4728C10.7257 58.7463 8.00132 54.514 6.2019 52.0077C7.90738 51.739 9.89107 51.5366 12.0952 51.5072C14.339 51.4777 16.3516 51.636 18.086 51.8679C17.8403 52.6665 17.5259 54.0429 17.6849 55.7542C17.8475 57.5244 18.4401 58.8567 18.8376 59.6001C20.0336 59.0407 21.6957 58.4261 23.7444 58.1354C27.0939 57.6606 29.84 58.2899 31.4263 58.7905C30.9349 59.751 30.3929 61.0428 30.0207 62.6327C29.5546 64.6384 29.5365 66.3829 29.6196 67.6268C32.5103 70.6189 36.0332 74.888 39.1226 80.5814C43.5127 88.6633 45.1784 96.1968 45.8686 101.202C47.2452 99.1226 48.9688 95.976 49.8071 91.8946C52.1268 80.6403 47.2127 65.0064 47.8053 64.0717C48.2353 63.9171 48.6689 63.7588 49.0989 63.6043C50.1178 65.4149 51.6029 68.1457 53.2722 71.5316C57.0589 79.2086 59.0282 83.0324 59.7906 87.9051C60.5096 92.5128 59.7906 93.3851 59.8339 100.786C59.8592 105.25 60.1989 111.4 61.5864 118.805L61.59 118.801Z" stroke="#231F20" stroke-width="0.909571" stroke-miterlimit="10"/>
<path d="M45.5397 67.5605C45.8432 67.7703 46.1901 67.9875 46.5767 68.1972C47.0536 68.4549 47.5053 68.6573 47.9136 68.8155C48.0365 68.4475 48.1629 68.0758 48.2894 67.7078" stroke="#231F20" stroke-width="0.909571" stroke-miterlimit="10"/>
<path d="M41.3697 67.5422C40.5604 67.9654 39.7546 68.3923 38.9452 68.8155L31.8921 64.885" stroke="#231F20" stroke-width="0.909571" stroke-miterlimit="10"/>
</g>
</svg>
