<svg width="289" height="389" viewBox="0 0 289 389" fill="none" xmlns="http://www.w3.org/2000/svg">
<path d="M62.2687 254.914C61.5166 255.201 57.4685 256.704 53.2655 255.245C48.6312 253.643 47.5141 249.731 47.3593 249.156C49.4165 249.941 52.1595 250.77 55.5661 251.212C57.9662 251.521 60.1562 251.566 62.0143 251.499C62.7775 251.588 63.3747 251.997 63.5738 252.582C63.8282 253.378 63.3084 254.383 62.2687 254.914Z" fill="#FCFFEB" stroke="#8D0F3A" stroke-width="1.28069" stroke-miterlimit="10"/>
<path d="M59.9542 247.355C59.3348 247.609 56.0277 248.935 52.3114 247.377C48.208 245.664 46.8918 241.819 46.7149 241.255C48.5399 242.095 50.9621 242.99 53.9042 243.521C55.9835 243.896 57.8527 244.018 59.4233 244.018C60.0759 244.128 60.6289 244.537 60.8501 245.123C61.1377 245.907 60.7837 246.869 59.9542 247.344V247.355Z" fill="#FCFFEB" stroke="#8D0F3A" stroke-width="1.28069" stroke-miterlimit="10"/>
<path d="M60.111 239.852C59.5912 240.073 56.804 241.178 53.6739 239.874C50.223 238.437 49.117 235.199 48.9621 234.724C50.4995 235.431 52.5346 236.183 55.0122 236.636C56.7597 236.956 58.3303 237.056 59.6575 237.056C60.2106 237.144 60.6751 237.498 60.8631 237.984C61.1065 238.636 60.8078 239.454 60.111 239.852Z" fill="#FCFFEB" stroke="#8D0F3A" stroke-width="1.28069" stroke-miterlimit="10"/>
<path d="M54.4704 258.207C56.3617 261.334 61.1951 261.29 66.7585 261.743C70.9062 262.086 76.6797 262.804 83.692 264.473C100.946 261.257 113.035 254.56 119.915 250.007C130.688 242.868 149.148 230.646 151.127 210.49C152.079 200.809 148.882 192.731 146.482 188.002C143.628 180.41 135.831 176.619 129.537 178.619C124.936 180.078 121.508 184.51 120.7 189.847C121.132 192.654 121.474 197.229 120.147 202.544C119.107 205.561 117.78 208.711 116.099 211.926C107.406 228.513 93.7349 237.918 84.8533 242.791C80.1084 239.542 75.7727 237.896 72.8417 237.023C67.2562 234.79 62.5777 234.359 58.7065 235.486C58.3858 235.453 56.4613 235.277 55.0234 236.636C53.5855 237.995 53.2206 240.316 54.216 242.36C51.8048 243.255 50.1679 245.521 50.0683 248.084C49.9799 250.648 51.4509 253.035 53.7957 254.096C53.6408 255.234 53.6298 256.814 54.4814 258.218L54.4704 258.207Z" fill="#FF6D00" stroke="#8D0F3A" stroke-width="1.28069" stroke-miterlimit="10"/>
<path d="M59.5262 243.289C58.1823 243.289 57.0929 242.2 57.0929 240.858C57.0929 239.515 58.1823 238.427 59.5262 238.427C60.8701 238.427 61.9595 239.515 61.9595 240.858C61.9595 242.2 60.8701 243.289 59.5262 243.289Z" fill="#8D0F3A" stroke="#8D0F3A" stroke-width="1.28069" stroke-miterlimit="10"/>
<path d="M56.2625 250.516C54.9186 250.516 53.8292 249.427 53.8292 248.085C53.8292 246.742 54.9186 245.654 56.2625 245.654C57.6064 245.654 58.6958 246.742 58.6958 248.085C58.6958 249.427 57.6064 250.516 56.2625 250.516Z" fill="#8D0F3A" stroke="#8D0F3A" stroke-width="1.28069" stroke-miterlimit="10"/>
<path d="M170.804 295.338C172.208 295.481 173.668 295.592 175.161 295.702C192.593 297.006 215.311 296.774 236.37 290.265C241.236 288.762 246.59 286.431 252.065 281.889C262.207 273.468 267.162 259.279 264.452 246.372C263.833 243.488 262.893 240.681 261.997 237.863C261.388 235.984 260.813 234.106 260.382 232.172C260.338 231.973 260.293 231.774 260.249 231.564C260.072 230.713 259.928 229.851 259.829 228.978C259.364 225.099 259.752 221.121 261.742 217.817C262.229 217.01 262.793 216.281 263.413 215.607C266.819 211.849 271.995 209.783 276.209 206.744C286.827 199.075 291.053 183.747 285.876 171.746C286.827 175.769 285.246 180.056 282.647 183.272C280.036 186.499 276.552 188.831 273.101 191.129C277.006 187.637 279.196 182.311 278.864 177.084C276.895 180.2 273.278 182.001 269.628 182.609C265.967 183.206 262.24 182.775 258.568 182.344C259.154 181.449 260.426 179.736 262.694 178.454C264.839 177.239 266.841 176.984 267.903 176.918C260.758 174.122 254.619 173.061 250.461 172.608C250.461 172.608 231.448 170.531 213.475 179.272C210.787 180.576 206.197 182.874 201.906 187.648C201.275 188.345 200.678 189.074 200.136 189.803C191.708 201.075 193.312 215.916 193.743 220.392C194.871 232.326 199.085 236.89 200.678 245.355C201.12 247.709 202.127 250.726 201.242 254.373C199.716 260.694 194.174 264.263 191.962 265.7C180.249 273.247 165.605 268.617 162.862 267.689C165.517 276.905 168.16 286.11 170.815 295.327L170.804 295.338Z" fill="#FF6D00" stroke="#8D0F3A" stroke-width="0.640345" stroke-miterlimit="10"/>
<path d="M166.213 288.652C167.96 291.293 169.708 293.934 171.455 296.576C188.886 297.88 211.605 297.647 232.664 291.139C235.661 290.21 238.835 288.973 242.109 287.105C244.952 285.558 247.009 283.945 248.347 282.773C260.901 271.756 261.277 254.738 261.598 239.709C261.741 233.255 260.89 232.305 260.359 232.183C259.673 232.028 258.844 233.1 258.28 233.962C258.412 235.83 258.932 245.521 251.732 253.743C245.682 260.65 237.984 262.197 235.749 262.561C236.955 263.335 238.813 264.318 241.246 264.716C244.587 265.269 247.197 264.551 248.801 264.075C252.749 262.904 255.47 260.716 256.974 259.257C253.701 262.351 244.708 269.976 231.259 271.225C225.474 271.767 220.541 270.96 217.002 270.043C218.993 271.457 221.581 273.015 224.789 274.308C230.385 276.574 235.451 277.06 238.835 277.093C229.467 281.944 214.348 288.221 194.881 289.857C183.644 290.796 173.866 289.956 166.213 288.674V288.652Z" fill="#D05B04"/>
<path d="M173.922 291.978C174.254 293.138 174.652 294.387 175.172 295.702C192.603 297.006 215.321 296.774 236.38 290.265C241.247 288.762 246.6 286.43 252.075 281.9C259.143 276.043 266.166 261.92 264.463 246.383C264.098 243.078 263.158 238.017 260.381 232.182C260.813 234.017 262.815 243.454 257.052 252.792C251.688 261.489 243.26 264.141 241.269 264.716C243.99 264.915 247.529 264.904 251.544 264.174C254.287 263.677 256.676 262.948 258.634 262.207C248.469 269.092 236.922 276.308 224.8 274.286C228.671 277.059 232.996 279.159 237.553 280.496C231.414 283.668 223.55 287.016 214.105 289.414C197.702 293.58 183.467 293.116 173.922 291.978Z" fill="#D54A0E"/>
<path d="M232.411 182.587C232.19 182.487 231.106 184.841 228.429 188.267C227.5 189.46 226.648 190.433 225.985 191.162C225.62 190.521 225.188 189.604 224.945 188.433C224.514 186.355 224.901 184.62 225.177 183.736C223.883 185.648 222.136 188.698 221.118 192.72C219.603 198.699 220.51 203.627 220.809 205.451C221.715 211.142 221.926 220.325 218.497 235.398C222.987 227.254 224.646 220.358 225.332 215.562C226.317 208.678 225.188 206.788 226.648 199.605C228.617 189.969 232.798 182.764 232.411 182.587Z" fill="#D05B04"/>
<path d="M201.043 195.03C201.453 196.886 201.939 198.588 202.437 200.124C204.063 195.494 207.005 191.328 210.821 188.223C208.642 195.085 207.812 202.345 208.399 209.517C210.069 203.76 214.172 198.765 219.481 196.002C218.806 197.24 217.302 200.411 217.656 204.6C217.933 207.86 219.216 210.236 219.979 211.429C219.835 208.611 220.023 204.213 222.069 199.483C222.777 197.815 223.596 196.4 224.403 195.218C228.706 203.13 229.823 212.7 227.467 221.397C230.232 215.706 233.395 210.213 236.923 204.964C236.238 208.147 235.64 212.004 235.486 216.402C235.309 221.386 235.729 225.751 236.315 229.243C238.66 227.022 242.542 222.723 244.787 216.17C245.971 212.711 246.369 209.584 246.469 207.175C248.57 211.219 250.97 216.877 252.496 223.927C254.178 231.674 254.189 238.382 253.824 243.178C254.941 239.078 257.031 235.254 259.841 232.061C259.962 231.895 260.106 231.74 260.239 231.586C259.277 226.933 259.288 221.883 261.732 217.849C264.906 212.6 271.233 210.368 276.199 206.777C285.744 199.881 290.124 186.797 287.138 175.503C286.806 174.221 286.386 172.984 285.866 171.779C286.817 175.802 285.235 180.089 282.636 183.305C280.026 186.532 276.542 188.863 273.091 191.162C276.995 187.67 279.185 182.344 278.853 177.117C276.885 180.233 273.268 182.034 269.618 182.642C265.957 183.239 262.23 182.808 258.558 182.377C259.575 181.415 260.947 180.299 262.694 179.249C264.641 178.089 266.455 177.382 267.893 176.94C250.528 169.945 230.154 170.818 213.464 179.294C209.184 181.448 205.114 184.123 201.895 187.67C201.265 188.366 200.667 189.096 200.125 189.825C200.336 191.438 200.623 193.173 201.032 195.041L201.043 195.03Z" fill="#FCFFEB"/>
<path d="M253.789 226.016C253.623 231.531 254.453 236.084 255.249 239.189C256.919 236.647 258.578 234.105 260.249 231.575C259.286 226.922 259.297 221.872 261.742 217.839C264.916 212.59 271.243 210.357 276.209 206.766C285.754 199.87 290.134 186.786 287.147 175.492C283.962 181.416 283.52 182.311 283.52 182.311C282.922 185.294 281.695 189.461 278.93 193.638C271.077 205.517 258.932 205.23 255.15 216.159C253.988 219.496 253.878 223.11 253.789 226.027V226.016Z" fill="#E0E5FF"/>
<path d="M248.436 235.597C246.147 241.1 241.623 243.785 239.643 244.625C236.192 246.106 232.355 246.349 228.716 247.255C230.319 246.084 232.941 243.819 234.854 240.15C235.927 238.083 236.48 236.149 236.768 234.658C238.316 234.039 240.904 232.757 243.293 230.226C246.545 226.778 247.574 222.988 247.939 221.275C248.492 222.469 251.279 228.801 248.447 235.586L248.436 235.597Z" fill="#D05B04"/>
<path d="M178.158 296.033C194.008 296.586 218.783 295.691 236.38 290.265C241.247 288.762 246.589 286.441 252.075 281.899C262.206 273.49 267.161 259.29 264.463 246.393C264.275 245.476 263.312 242.614 262.007 237.884C260.636 232.923 259.95 230.414 259.839 229.011C259.817 228.701 259.342 221.651 263.423 215.639C267.25 210.003 272.459 209.517 276.231 206.788C286.838 199.107 291.074 183.78 285.887 171.79C286.838 175.801 285.256 180.089 282.657 183.305C280.058 186.532 276.563 188.863 273.123 191.173C277.027 187.67 279.217 182.355 278.874 177.116C276.906 180.244 273.289 182.034 269.65 182.642C265.989 183.25 262.262 182.819 258.59 182.388C259.607 181.426 260.979 180.31 262.726 179.26C264.673 178.1 266.487 177.393 267.914 176.951C250.56 169.956 230.175 170.829 213.485 179.305C209.216 181.459 205.135 184.134 201.927 187.681C201.297 188.377 200.699 189.095 200.168 189.836C191.74 201.108 193.344 215.949 193.765 220.435C194.893 232.359 199.118 236.934 200.699 245.388C201.142 247.742 202.137 250.758 201.263 254.405C199.726 260.726 194.196 264.296 191.973 265.721C185.226 270.042 178.28 270.13 175.227 269.954" stroke="#8D0F3A" stroke-width="1.28069" stroke-miterlimit="10"/>
<path d="M95.0953 338.789C94.0778 344.282 94.0224 349.829 93.9671 355.332C91.3569 349.752 85.893 346.072 79.8209 345.796C70.8619 345.398 65.7631 352.647 65.4755 353.067C67.765 355.288 96.6106 383.202 103.822 382.163C106.499 381.777 107.959 380.296 107.959 380.296C109.839 378.384 109.795 375.599 109.839 373.743C109.839 373.743 109.983 367.168 111.841 360.382C112.858 356.669 114.927 353.045 119.063 345.807C120.733 342.889 121.109 342.259 122.16 340.602C123.167 339.021 133.276 323.142 129.029 317.749C125.5 313.284 112.173 316.124 104.353 322.898C99.619 326.998 96.1571 333.142 95.1174 338.778L95.0953 338.789Z" fill="#FF6D00" stroke="#8D0F3A" stroke-width="1.28069" stroke-miterlimit="10"/>
<path d="M164.224 344.701C171.845 353.431 183.668 353.519 186.124 353.486C184.033 354.271 180.494 355.95 177.109 359.31C174.964 361.443 171.269 365.111 170.739 370.78C171.358 377.201 173.305 381.699 174.886 382.24C176.114 382.649 177.231 382.483 177.231 382.483C177.95 382.351 178.536 382.085 178.802 381.953C179.709 382.384 181.533 383.08 183.779 382.782C188.623 382.174 190.957 377.621 191.167 377.179C191.665 377.731 192.472 378.439 193.589 378.748C194.529 379.013 195.492 378.958 196.454 378.671C200.281 377.521 204.152 372.759 206.342 370.051C210.025 365.509 213.045 361.796 212.713 356.591C212.458 352.591 210.479 349.497 209.638 348.613C207.227 346.104 205.557 344.789 202.869 342.9C198.334 339.728 192.826 335.86 191.012 330.545C189.431 325.915 192.328 325.086 192.572 314.599C192.705 308.653 191.886 304.233 191.322 301.294C189.873 293.691 189.143 289.878 187.064 288.85C181.788 286.254 168.471 296.962 162.675 310.466C161.227 313.847 153.329 332.247 164.224 344.701Z" fill="#FF6D00" stroke="#8D0F3A" stroke-width="1.28069" stroke-miterlimit="10"/>
<path d="M181.411 365.454C180.448 366.88 179.022 369.388 178.38 372.825C177.606 376.892 178.314 380.229 178.8 381.953" stroke="#8D0F3A" stroke-width="1.28069" stroke-miterlimit="10"/>
<path d="M191.187 363.951C190.457 366.106 189.827 368.305 189.661 370.571C189.495 372.836 189.827 375.19 190.944 377.168" stroke="#8D0F3A" stroke-width="1.28069" stroke-miterlimit="10"/>
<path d="M205.688 357.354C207.856 367.951 197.847 377.4 196.453 378.671C199.539 376.814 213.552 368.007 212.712 356.591C212.59 354.9 212.181 353.685 211.827 352.668C207.513 340.137 193.467 340.203 191.011 330.545C190.425 328.246 191.277 328.467 191.896 321.428C192.648 312.93 191.996 305.935 191.321 301.293C180.836 323.406 182.506 332.291 186.034 336.302C189.242 339.949 194.838 340.568 200.733 348.071C202.536 350.37 204.87 353.331 205.688 357.354Z" fill="#D54A0E"/>
<path d="M164.224 344.701C171.845 353.431 183.668 353.519 186.124 353.486C184.033 354.271 180.494 355.95 177.109 359.31C174.964 361.443 171.269 365.111 170.739 370.78C171.358 377.201 173.305 381.699 174.886 382.24C176.114 382.649 177.231 382.483 177.231 382.483C177.95 382.351 178.536 382.085 178.802 381.953C179.709 382.384 181.533 383.08 183.779 382.782C188.623 382.174 190.957 377.621 191.167 377.179C191.665 377.731 192.472 378.439 193.589 378.748C194.529 379.013 195.492 378.958 196.454 378.671C200.281 377.521 204.152 372.759 206.342 370.051C210.025 365.509 213.045 361.796 212.713 356.591C212.458 352.591 210.479 349.497 209.638 348.613C207.227 346.104 205.557 344.789 202.869 342.9C198.334 339.728 192.826 335.86 191.012 330.545C189.431 325.915 192.328 325.086 192.572 314.599C192.705 308.653 191.886 304.233 191.322 301.294C189.873 293.691 189.143 289.878 187.064 288.85C181.788 286.254 168.471 296.962 162.675 310.466C161.227 313.847 153.329 332.247 164.224 344.701Z" stroke="#8D0F3A" stroke-width="1.28069" stroke-miterlimit="10"/>
<path d="M63.6503 232.691C63.5175 242.172 63.6724 308.344 107.903 329.992C129.051 340.336 152.078 334.556 153.472 334.203C157.089 333.285 169.277 330.059 180.083 320.588C213.11 291.635 200.567 233.011 198.963 225.983C194.595 206.777 187.129 188.433 180.47 179.846C175.405 173.315 171.014 166.265 167.386 158.839C160.02 143.766 146.913 133.279 129.493 132.372C115.347 131.632 98.0813 138.273 87.1647 150.297C85.2623 152.385 78.4712 158.828 72.6203 183.548C66.7582 208.313 63.8272 220.69 63.6503 232.691Z" fill="#FF6D00" stroke="#8D0F3A" stroke-width="1.28069" stroke-miterlimit="10"/>
<path d="M36.5528 112.658C37.0395 112.846 37.5482 113.067 38.0349 113.299C43.7863 116.028 47.2372 120.924 49.2502 124.858L171.866 118.194C178.137 118.78 184.486 119.332 190.868 119.841C193.865 120.084 196.851 120.305 199.827 120.537C193.334 117.918 188.191 112.127 186.399 105.364C190.724 105.862 194.872 107.884 197.891 111.011C195.126 104.37 190.27 98.6013 184.198 94.7225C186.554 95.0761 188.976 95.4187 191.299 94.9104C188.766 93.507 185.868 91.5952 182.937 89.0204C176.943 83.7602 173.437 78.0138 171.446 73.9914C174.332 70.6872 178.148 65.3608 179.852 58.1446C183.568 42.3974 173.293 32.4628 177.673 17.5112C179.652 10.7592 183.513 5.41062 187.704 1.23345C182.783 0.791421 163.195 -0.379955 145.199 13.1461C131.451 23.4896 126.065 36.8278 124.229 42.2095C119.484 40.8392 113.213 39.6347 105.846 39.8226C88.1607 40.2867 75.3748 48.5195 69.911 52.553C68.0307 49.4367 55.2449 29.0371 30.6023 25.5119C17.6174 23.6554 7.13209 27.3131 2.00006 29.5454C10.7267 33.0927 15.8255 37.7561 18.8782 41.3476C28.4787 52.6745 26.8528 64.2778 38.8202 78.5222C41.6074 81.8374 44.2508 84.2464 46.0094 85.7383C49.9359 93.4406 49.5267 102.016 44.9145 107.486C42.1936 110.724 38.6764 112.072 36.5528 112.669V112.658Z" fill="#FF6D00" stroke="#8D0F3A" stroke-width="1.28069" stroke-miterlimit="10"/>
<path d="M46.8274 81.1742C50.3999 79.2735 31.8737 25.5228 15.637 26.6279C12.9383 26.8158 10.9143 28.4623 10.0626 29.2359C12.0977 29.7442 15.1725 30.783 18.2031 33.0484C27.4496 39.9661 25.8458 50.5637 33.2342 64.565C37.8242 73.2509 45.2237 82.0251 46.8164 81.1742H46.8274Z" fill="#D54A0E"/>
<path d="M162.277 59.6808C165.606 58.1448 167.497 55.5699 168.006 54.8406C172.541 48.3317 169.433 41.2703 169.388 30.9268C169.366 25.9761 170.041 19.0031 173.249 10.5493C168.979 11.2566 163.471 12.8037 157.996 16.373C140.51 27.7442 138.784 49.4699 138.574 52.741C146.195 60.0123 155.463 62.8192 162.266 59.6808H162.277Z" fill="#F6927F" stroke="#8D0F3A" stroke-width="1.28069" stroke-miterlimit="10"/>
<path d="M61.1822 58.245C58.1627 49.4045 49.8011 44.1554 45.4101 41.3927C43.7068 40.3208 42.3906 39.6246 42.0145 39.4257C34.1727 35.2706 26.9502 33.8782 22.0173 33.3699C24.6939 36.7072 28.3217 41.8568 31.2638 48.7967C32.9561 52.786 33.3321 54.9851 34.405 58.0019C36.2299 63.0963 39.8246 70.1798 47.7106 77.8711C52.7099 75.3847 55.9728 72.4452 57.8973 70.4229C61.1491 66.9972 61.7463 64.9307 61.9343 63.6488C62.1002 62.5438 62.1002 60.9414 61.1822 58.245Z" fill="#F6927F" stroke="#8D0F3A" stroke-width="1.28069" stroke-miterlimit="10"/>
<path d="M41.9714 40.5186C41.0312 40.9496 39.2284 41.6237 36.8836 41.5574C34.0853 41.4801 32.0502 40.3971 31.1432 39.8335C31.3202 40.8723 31.8179 42.8724 33.3885 44.7842C34.2954 45.8782 35.2577 46.5965 35.9877 47.0496C35.4015 47.1049 34.7489 47.1491 34.0521 47.138C33.0567 47.127 32.1497 47.0275 31.3865 46.906C32.747 48.2652 34.5498 49.8344 36.8504 51.282C38.3104 52.2103 39.715 52.9175 40.9759 53.4701C40.3565 53.89 39.0293 54.6525 37.2264 54.6967C36.419 54.7188 35.7333 54.5862 35.2134 54.4425C35.6337 55.7907 36.6955 58.5092 39.2947 60.863C40.9427 62.3549 42.6239 63.1616 43.7853 63.6036C43.0885 63.7694 42.3363 63.9241 41.5179 64.0456C40.4118 64.2114 39.3832 64.2887 38.4541 64.3108C39.7482 65.5043 41.8165 67.0956 44.6922 68.267C49.0832 70.0572 53.0096 69.8915 55.0226 69.6594C56.925 67.2614 57.655 65.0733 57.9426 63.4489C59.3473 55.5366 52.9543 46.3424 41.9603 40.5186H41.9714Z" fill="#DD7162"/>
<path d="M45.4109 41.3921C44.5371 41.9999 43.0108 42.895 40.9204 43.326C38.1663 43.8896 35.899 43.3481 34.815 43.0055C36.3524 45.0499 38.5866 46.5528 41.0531 47.2048C40.5775 47.5142 39.9249 47.8789 39.0954 48.1441C37.746 48.5751 36.5626 48.5419 35.8326 48.4756C37.1488 49.3044 38.6751 50.1553 40.4227 50.962C42.4688 51.9013 44.3823 52.5754 46.0635 53.0617C45.3777 53.7689 44.1832 54.8077 42.4357 55.5812C40.9425 56.2443 39.6042 56.4653 38.6862 56.5426C41.3849 60.3993 45.7648 63.0183 50.4434 63.5819C49.4811 63.8803 48.4525 64.1676 47.3465 64.4218C45.7649 64.7865 44.2828 65.0406 42.9223 65.2064C44.4155 65.9689 46.2515 66.7535 48.4304 67.3723C51.6711 68.3006 54.5468 68.5437 56.7257 68.5548C59.7563 67.1624 60.8844 65.4827 61.3711 64.3223C63.727 58.6865 57.6327 49.1607 45.3888 41.3921H45.4109Z" fill="#FCFFEB"/>
<path d="M125.245 335.308C125.245 335.308 125.301 335.319 125.323 335.319C140.1 337.562 152.454 334.457 153.461 334.203C157.088 333.286 169.266 330.059 180.083 320.588C210.532 293.879 202.237 241.94 199.505 228.514C201.496 238.979 206.119 275.115 180.901 304.985C160.263 329.429 132.623 334.258 125.245 335.308Z" fill="#D54A0E"/>
<path d="M107.892 329.992C113.698 332.832 119.638 334.457 125.245 335.308C125.268 335.308 125.301 335.319 125.323 335.319C140.1 337.562 152.454 334.457 153.461 334.203C157.088 333.285 169.266 330.059 180.083 320.588C210.532 293.879 202.237 241.94 199.505 228.514C199.439 228.193 199.383 227.906 199.328 227.641C199.295 227.464 199.251 227.298 199.218 227.143C199.118 226.646 199.029 226.248 198.963 225.983C194.594 206.777 187.128 188.433 180.47 179.846C175.404 173.315 171.013 166.265 167.386 158.839C160.019 143.766 146.913 133.278 129.482 132.372C115.346 131.643 98.07 138.273 87.1644 150.297C85.2621 152.396 78.4599 158.828 72.6089 183.559C66.7469 208.313 63.8159 220.69 63.6389 232.691C63.5062 242.172 63.6721 308.344 107.892 329.992Z" stroke="#8D0F3A" stroke-width="1.28069" stroke-miterlimit="10"/>
<path d="M140.753 43.3812C144.945 35.8557 149.137 28.3301 153.317 20.8046C154.899 20.0973 156.547 19.3017 158.261 18.4066C160.086 17.4452 161.79 16.4617 163.349 15.5002C163.427 16.528 163.416 17.8872 163.095 19.4454C162.608 21.7992 161.624 23.5562 160.905 24.606C161.679 24.1419 162.907 23.2689 164.013 21.8102C165.097 20.3626 165.595 18.9591 165.827 18.0861C166.247 19.8321 166.833 23.3021 165.805 27.4792C164.865 31.2807 163.028 33.9218 161.911 35.281C162.708 35.3031 163.67 35.2589 164.754 35.06C166.457 34.7395 167.796 34.1428 168.725 33.6455C168.448 34.9606 167.818 37.1155 166.203 39.2814C165.241 40.5633 164.223 41.4694 163.382 42.0993C163.736 42.2761 164.19 42.464 164.743 42.5856C165.937 42.8397 166.944 42.6408 167.497 42.475C167.375 43.1933 167.077 44.3647 166.28 45.5582C165.794 46.2875 165.252 46.818 164.809 47.1827C165.108 47.249 165.451 47.3153 165.838 47.3374C166.866 47.4147 167.718 47.2379 168.326 47.05C167.187 48.6192 165.008 51.172 161.491 53.1942C157.321 55.5812 153.561 55.9127 152.798 55.968C150.785 56.1227 142.467 56.7526 139.968 51.7908C138.286 48.4535 140.189 44.4752 140.764 43.3812H140.753Z" fill="#DD7162"/>
<path d="M138.619 51.9453C138.895 48.1328 139.725 42.6737 142.202 36.5737C144.945 29.7996 148.629 24.9484 151.294 21.9536C152.655 22.0531 154.634 22.0199 156.902 21.39C158.373 20.9812 159.578 20.4176 160.496 19.8982C160.308 20.7491 160.076 21.6332 159.8 22.5504C159.302 24.219 158.727 25.7219 158.14 27.0591C158.716 27.1585 160.087 27.3243 161.636 26.6944C162.952 26.1529 163.759 25.302 164.135 24.86C163.969 26.3297 163.549 28.4514 162.421 30.7832C160.839 34.0321 158.638 36.0543 157.322 37.0931C160.176 37.3915 163.073 37.1705 165.85 36.4522C163.814 39.7011 160.242 41.9444 156.415 42.3643C159.136 43.3147 161.978 43.9004 164.865 44.1103C163.096 46.2431 160.563 47.7129 157.842 48.2101C160.286 48.2875 162.742 48.3869 165.197 48.4753C161.425 51.8458 156.504 53.8792 151.471 54.2659C147.191 53.4924 142.91 52.7299 138.619 51.9563V51.9453Z" fill="#FCFFEB"/>
<path d="M77.7192 274.154C78.958 280.961 82.1213 297.04 97.4621 309.273C100.294 311.527 122.414 329.164 144.679 321.385C164.92 314.312 170.538 291.371 171.655 285.834C174.83 270.187 167.596 267.744 155.485 225.31C147.743 198.191 145.84 182.168 147.234 165.448C147.864 158.011 149.015 151.889 149.944 147.745C122.37 139.523 97.3736 146.231 89.6976 159.657C88.3261 162.055 85.3067 168.52 88.4921 179.095C91.6775 178.786 94.7965 177.626 97.2961 175.78C94.4868 182.875 90.0737 189.483 84.4218 195.086C86.9436 195.196 89.4985 194.699 91.7659 193.66C89.3326 196.014 86.6007 199.053 84.0679 202.843C79.7433 209.352 77.7082 215.463 76.6906 219.828C76.9782 219.298 78.8142 216.093 82.8734 215.066C85.2514 214.469 87.2422 214.9 88.1381 215.154C85.373 217.939 81.7894 222.149 78.8584 227.862C76.2371 232.968 74.9873 237.587 74.3568 241.024C75.7283 239.322 77.498 237.388 79.7211 235.421C81.6567 233.708 83.5591 232.316 85.2624 231.2C81.9111 237.3 74.014 253.688 77.7303 274.154H77.7192Z" fill="#E0E5FF" stroke="#8D0F3A" stroke-width="1.28069" stroke-miterlimit="10"/>
<path d="M64.006 145.401C71.1732 150.904 78.827 153.07 84.5452 155.324C88.4606 156.872 95.8711 159.789 104.609 159.391C116.753 158.828 119.164 152.418 134.715 148.351C145.433 145.545 148.618 148.042 152.91 147.28C152.91 147.28 154.746 146.86 156.615 145.887C163.826 142.141 166.956 127.808 174.179 121.94C177.696 119.078 183.879 116.857 195.559 119.454C195.559 119.454 180.162 110.226 180.594 109.265C180.815 108.779 185.018 110.481 185.184 110.094C185.372 109.663 179.123 104.37 170.695 103.53C163.627 102.822 158.241 104.767 157.643 103.287C157.29 102.403 158.938 100.878 160.707 99.5404C155.321 99.3194 148.629 99.5404 141.097 100.933C129.838 103.01 120.956 106.922 114.873 110.215C110.969 105.453 107.308 102.215 104.719 100.148C99.5431 95.0538 95.3733 92.3022 92.929 90.8877C90.4625 89.4622 88.9472 89.3296 87.5868 89.6721C80.9395 91.3408 83.8152 106.602 74.9005 111.652C72.0912 113.243 68.6514 113.332 64.5148 113.829C59.7588 114.404 57.602 113.553 53.5318 114.426C50.0146 115.177 47.3379 116.581 45.6789 117.608C47.7582 124.614 52.5916 136.649 63.9949 145.401H64.006Z" fill="#D54A0E"/>
<path d="M45.8308 139.6C48.7065 138.307 51.4384 138.616 52.7436 138.86C51.5048 139.887 50.0227 141.368 48.795 143.424C44.0943 151.27 46.4944 161.602 48.5296 161.856C50.5647 162.11 51.1066 152.165 57.6876 149.966C59.601 149.325 61.4592 149.479 64.8326 150.518C74.6211 153.535 79.2554 157.999 85.0179 160.276C88.8669 161.79 96.1557 164.663 104.739 164.265C116.673 163.713 119.051 157.403 134.325 153.413C147.487 149.977 146.901 154.342 155.849 150.993C171.886 144.993 175.603 130.616 188.654 130.052C190.402 129.975 196.85 131.798 196.85 131.798L197.082 131.732C195.976 130.107 194.206 127.798 191.607 125.51C179.109 114.482 161.379 113.078 161.379 113.078C161.379 113.078 164.299 110.459 166.389 109.553C169.807 108.072 172.274 107.84 172.274 107.84C172.274 107.84 165.626 106.105 157.995 107.763C149.909 109.52 144.368 113.432 144.036 112.89C143.616 112.205 152.486 104.702 152.486 104.702C152.486 104.702 141.924 105.354 135.475 107C130.222 108.349 122.955 110.857 114.826 115.929C110.988 111.255 107.393 108.072 104.838 106.039C99.7504 101.022 95.6469 98.3255 93.2468 96.9331C91.7205 96.0491 89.807 95.0766 87.9931 95.7397C86.4889 96.2922 85.7036 97.7398 85.217 98.6681C83.6796 101.619 83.9671 104.414 83.945 105.641C83.8344 111.399 76.435 117.178 70.8937 119.245C62.0564 122.549 57.5549 116.537 46.8594 120.482C45.2114 121.09 42.2804 122.195 39.3936 124.825C33.5537 130.107 32.4809 137.346 32.2154 140.086C32.5251 138.948 33.5648 135.743 36.706 133.202C39.6038 130.848 42.6565 130.384 43.851 130.262C42.5016 131.776 40.4665 134.461 39.2277 138.329C37.4913 143.711 38.2544 148.33 38.7522 150.441C38.7743 150.109 39.5264 142.429 45.8087 139.6H45.8308Z" fill="#FCFFEB"/>
<path d="M91.6769 163.558C95.5702 164.177 101.598 164.707 108.621 163.348C119.35 161.27 120.876 157.016 132.125 154.01C145.143 150.529 146.813 155.248 155.849 150.916C159.853 148.993 164.377 145.38 173.436 138.152C177.307 135.069 179.674 132.992 183.777 131.677C188.832 130.052 193.51 130.549 196.585 131.201C194.218 128.45 191.84 125.698 189.473 122.936C185.646 122.648 180.204 122.803 174.542 125.212C165.472 129.08 166.467 134.218 158.028 139.987C147.388 147.258 139.259 141.401 121.971 151.977C116.253 155.48 114.428 158.198 107.493 160.784C101.255 163.105 95.5702 163.558 91.6658 163.569L91.6769 163.558Z" fill="#E0E5FF"/>
<path d="M45.8308 139.6C48.795 138.262 51.5712 138.627 52.7436 138.859C51.5048 139.887 50.0227 141.368 48.795 143.423C44.0943 151.269 48.5296 161.856 48.5296 161.856C48.5296 161.856 51.1066 152.164 57.6876 149.965C59.601 149.324 61.4592 149.479 64.8326 150.518C74.6211 153.535 79.2554 157.999 85.0179 160.276C88.8669 161.789 96.1557 164.663 104.739 164.265C116.673 163.712 119.051 157.402 134.325 153.413C147.487 149.976 146.901 154.341 155.849 150.993C171.886 144.992 175.603 130.615 188.654 130.052C190.402 129.974 196.85 131.798 196.85 131.798L197.082 131.732C195.976 130.107 194.206 127.797 191.607 125.51C179.109 114.481 161.379 113.078 161.379 113.078C161.379 113.078 164.299 110.459 166.389 109.553C169.807 108.072 172.274 107.84 172.274 107.84C172.274 107.84 165.626 106.105 157.995 107.763C149.909 109.52 144.368 113.432 144.036 112.89C143.616 112.205 152.486 104.701 152.486 104.701C152.486 104.701 141.924 105.353 135.476 107C130.222 108.348 122.955 110.857 114.826 115.929C110.988 111.255 107.393 108.072 104.838 106.039C99.7504 101.022 95.647 98.3252 93.2468 96.9328C90.3822 95.2641 89.0218 95.3305 87.9931 95.7393C85.5377 96.7118 86.2014 99.9939 83.945 105.641C80.3725 114.614 74.0128 118.095 72.2099 118.824C70.3518 119.565 69.8651 119.377 65.3193 119.487C60.5523 119.609 60.4527 120.559 54.5243 120.073C52.821 119.929 51.2504 119.664 48.7618 119.929C48.5627 119.951 46.9148 120.128 45.4548 120.537C39.9246 122.084 36.4405 127.068 36.0424 127.654C33.1224 131.941 32.8459 136.273 32.8238 138.064C33.6422 136.804 35.1133 134.892 37.4802 133.19C39.9688 131.4 42.3689 130.626 43.851 130.262C42.6344 131.533 40.3891 134.229 39.2278 138.329C37.9116 142.948 38.6747 146.838 39.1172 148.551C39.2278 147.943 40.4002 142.042 45.8087 139.6H45.8308Z" stroke="#8D0F3A" stroke-width="1.28069" stroke-miterlimit="10"/>
<path d="M95.1066 225.486C97.2966 216.513 99.4423 213.839 103.435 197.483C107.959 178.974 107.616 172.575 113.013 168.111C116.365 165.337 124.572 161.127 144.912 168.508C145.221 178.034 145.542 187.56 145.852 197.086C146.051 214.358 149.126 227.508 151.869 236.26C157.985 255.809 166.833 267.567 162.608 283.646C161.812 286.663 160.407 291.779 156.149 296.343C144.989 308.3 121.11 309.074 107.351 299.316C82.0332 281.369 94.0006 229.962 95.0956 225.475L95.1066 225.486Z" fill="#FCFFEB"/>
<path d="M88.6241 258.373C88.1707 260.152 89.5975 261.821 90.3385 262.672C91.9312 264.484 95.1055 266.882 107.228 267.877C110.347 268.131 114.528 268.341 119.494 268.164C119.494 268.164 130.079 267.357 155.717 253.699C166.489 246.56 184.949 234.338 186.929 214.181C187.88 204.501 184.684 196.423 182.284 191.693C179.43 184.101 171.633 180.311 165.339 182.311C160.738 183.77 157.309 188.201 156.502 193.539C156.933 196.346 157.276 200.921 155.949 206.236C154.909 209.253 153.582 212.402 151.901 215.618C143.207 232.205 129.537 241.609 120.655 246.483C119.129 245.477 116.861 244.074 113.964 242.703C105.524 238.703 94.088 236.482 92.5727 239.388C92.2298 240.04 92.2409 241.223 94.0216 243.576C91.2676 244.129 89.2325 246.449 89.0555 249.19C88.8896 251.776 90.427 254.229 92.8603 255.246C92.6391 255.29 89.2103 256.008 88.6131 258.373H88.6241Z" fill="#FF6D00" stroke="#8D0F3A" stroke-width="1.28069" stroke-miterlimit="10"/>
<path d="M65.6957 44.8062C65.6957 44.8062 65.7291 44.8062 65.7402 44.8062" stroke="#8D0F3A" stroke-width="0.640345" stroke-miterlimit="10"/>
<path d="M56.5152 131.875C57.9198 134.284 64.5672 145.114 77.4857 148.086C79.7974 148.617 86.2567 150.02 93.3685 147.401C95.835 146.495 98.1355 145.191 104.385 139.732C107.913 136.649 120.489 125.653 119.416 124.261C117.923 122.305 95.0165 146.418 72.6191 141.224C64.9875 139.456 59.5679 134.925 56.5152 131.875Z" fill="#E0E5FF"/>
<path d="M104.375 140.926C102.473 142.639 94.6091 149.313 83.1395 149.015C65.8078 148.551 56.8821 132.583 56.5171 131.886" stroke="#8D0F3A" stroke-width="1.28069" stroke-miterlimit="10"/>
<path d="M58.5861 133.212C62.0922 135.19 65.4656 135.433 67.2353 135.422C67.7773 135.29 73.5951 133.743 75.8403 127.93C77.7869 122.902 75.5859 118.504 75.232 117.83C72.9646 117.034 61.0747 113.078 52.9231 119.344C52.0162 120.04 51.0871 120.924 50.2023 122.029C50.5562 123.366 52.348 129.687 58.5971 133.212H58.5861Z" fill="#3F0015" stroke="#8D0F3A" stroke-width="1.28069" stroke-miterlimit="10"/>
<path opacity="0.6" d="M56.3242 124.157C56.0901 123.335 58.1864 122.019 61.0064 121.217C63.8264 120.414 66.3024 120.43 66.5365 121.252C66.7706 122.074 64.6744 123.39 61.8543 124.193C59.0343 124.995 56.5584 124.979 56.3242 124.157Z" fill="#D54A0E"/>
<path d="M58.717 42.1874C57.9427 41.447 54.6799 38.3749 49.7027 35.3249C42.5356 30.9267 35.3131 28.7055 29.9267 27.5452C32.0835 28.5618 35.0809 30.0316 38.5981 31.9655C42.79 34.264 44.8914 35.4133 46.7054 36.8388C51.4613 40.585 51.406 42.7399 55.3104 45.4473C57.1574 46.7292 60.1106 48.2984 64.6343 48.9394C63.2628 47.0607 61.3272 44.6738 58.728 42.1874H58.717Z" fill="#D05B04"/>
<path d="M139.844 72.4773C135.509 68.6759 131.582 67.7918 129.591 67.5376C120.599 66.3663 109.915 72.4994 106.176 80.478C105.081 82.8208 104.34 85.8376 101.232 88.3682" stroke="#8D0F3A" stroke-width="1.28069" stroke-miterlimit="10"/>
<path d="M75.5625 91.3409C72.6868 90.1916 70.4415 89.2965 69.0811 88.7661C65.033 87.1637 64.1813 86.8322 62.7988 86.6775C61.5711 86.5449 58.5184 86.3792 55.3994 87.9594C50.389 90.5121 48.9179 95.6949 48.6636 96.6342" stroke="#8D0F3A" stroke-width="1.28069" stroke-miterlimit="10"/>
<path d="M76.1368 373.632C83.2929 382.096 86.0469 386.174 91.4112 387.213C92.3293 387.39 93.0814 387.434 93.2362 387.445C99.3526 387.765 104.042 383.732 106.155 381.61C104.905 381.334 103.047 380.814 101.045 379.698C96.4216 377.124 95.1165 373.698 91.4776 368.504C87.5622 362.912 84.2441 359.995 78.0503 354.536C73.6703 350.679 70.9716 348.933 68.6157 349.74C66.4921 350.469 65.5188 352.956 65.4635 353.077C64.6119 355.332 65.4082 357.542 65.9944 358.912C68.6379 365.023 72.2878 369.09 76.1257 373.632H76.1368Z" fill="#8D0F3A" stroke="#8D0F3A" stroke-width="1.28069" stroke-miterlimit="10"/>
<path d="M152.255 201.075C152.244 215.872 159.434 234.957 169.012 235.399C177.661 235.797 187.195 220.956 187.616 207.419C188.18 189.329 172.551 171.482 163.294 173.471C155.385 175.173 152.255 191.34 152.244 201.075H152.255Z" fill="#FF6D00"/>
<path d="M116.176 128.594C116.176 128.914 116.243 129.223 116.375 129.522C116.862 129.632 117.194 129.92 117.316 130.041C117.448 129.82 118.256 128.505 119.926 128.152C121.806 127.743 123.2 128.881 123.366 129.014C123.498 128.704 123.841 127.997 124.604 127.5C125.954 126.627 127.458 127.157 127.646 127.223C126.772 125.853 124.627 124.892 122.127 124.892C118.842 124.892 116.176 126.549 116.176 128.594Z" fill="#B73A40"/>
<path d="M127.989 136.682C126.573 135.19 125.158 133.688 123.731 132.196L120.302 139.147C118.997 137.445 117.681 135.743 116.376 134.041C115.336 135.632 114.296 137.224 113.257 138.804C112.173 137.92 111.089 137.036 110.005 136.152C111.321 134.34 112.648 132.527 113.965 130.715C114.263 130.019 114.938 129.566 115.679 129.566C116.663 129.566 117.194 130.405 117.227 130.461C117.338 130.251 118.079 128.892 119.76 128.472C121.464 128.041 122.78 128.936 122.979 129.068C123.178 128.726 123.665 127.996 124.594 127.499C125.976 126.77 127.326 127.123 127.635 127.223C128.089 127.864 129.405 129.897 129.239 132.715C129.128 134.594 128.398 135.986 127.967 136.682H127.989Z" stroke="#8D0F3A" stroke-width="0.960517" stroke-miterlimit="10"/>
<path d="M76.4481 117.686C77.9412 117.465 81.9894 116.659 85.4181 113.211C85.6504 112.979 89.8533 108.614 89.9307 102.337C89.9639 99.9498 89.3998 96.7341 88.515 96.6457C88.2938 96.6236 87.962 96.7783 87.2762 98.0823C85.9158 100.646 85.772 102.779 85.4955 104.182C85.1084 106.238 84.1351 107.752 82.1995 110.791C80.9939 112.68 79.1579 115.167 76.4481 117.697V117.686Z" fill="#FCFFEB"/>
<path d="M127.512 134.616C127.335 134.605 127.445 133.445 127.058 131.29C126.804 129.831 126.45 128.66 126.184 127.886C126.704 128.35 127.489 129.223 127.876 130.505C128.496 132.572 127.744 134.627 127.512 134.616Z" fill="#E0E5FF"/>
<path d="M120.37 136.98C120.126 136.947 119.872 134.969 120.58 133.179C121.266 131.444 122.593 130.527 123.146 130.195C123.046 130.516 122.892 130.936 122.715 131.433C122.007 133.356 121.664 133.732 120.89 135.743C120.525 136.693 120.469 137.003 120.37 136.991V136.98Z" fill="#E0E5FF"/>
<path d="M123.918 133.721C124.051 133.875 125.124 135.168 124.781 136.925C124.394 138.892 122.591 139.655 122.458 139.71C124.073 139.235 125.212 138.649 125.931 138.218C126.196 138.053 126.362 137.942 126.462 137.743C127.07 136.528 124.427 134.174 123.918 133.721Z" fill="#E0E5FF"/>
<path d="M116.45 135.389C117.169 136.859 117.789 138.638 117.025 139.588C116.506 140.229 115.588 140.196 115.599 140.517C115.61 140.959 117.346 141.334 118.85 141.047C119.591 140.903 119.735 140.705 119.779 140.616C120.012 140.141 119.392 139.434 118.696 138.55C118.12 137.82 117.324 136.759 116.439 135.389H116.45Z" fill="#E0E5FF"/>
<path d="M122.67 140.141C123.621 139.831 127.946 138.383 129.207 134.394C130.456 130.438 128.255 125.333 124.816 124.305C122.117 123.498 119.418 125.377 117.35 126.824C114.496 128.814 113.656 130.615 110.691 134.118C109.254 135.82 106.986 138.295 103.812 141.025C107.783 140.218 111.056 140.096 113.39 140.152C118.091 140.262 119.728 141.124 122.681 140.152L122.67 140.141Z" stroke="#8D0F3A" stroke-width="1.28069" stroke-miterlimit="10"/>
<path d="M156.214 241.322C142.223 254.527 127.402 261.987 127.999 263.025C128.497 263.887 138.882 258.959 147.134 254.24C165.748 243.598 172.086 234.857 174.01 232.028C176.72 228.039 178.125 224.823 178.634 223.519C180.636 218.469 182.394 211.761 181.919 206.291C176.908 216.38 168.956 229.288 156.203 241.322H156.214Z" fill="#D54A0E"/>
<path d="M111.573 245.466C109.361 244.317 106.972 243.565 104.572 242.858C102.338 242.206 100.048 241.587 97.7257 241.742C97.3939 241.93 97.3386 242.084 97.3386 242.195C97.3386 243.3 104.428 242.593 110.932 246.107C114.482 248.03 116.761 250.627 116.971 250.339C117.391 249.754 115.256 248.008 114.903 247.698C113.885 246.825 112.757 246.085 111.562 245.466H111.573Z" fill="#D54A0E"/>
<path d="M99.5626 258.958C98.8105 259.245 94.7624 260.748 90.5595 259.29C85.9251 257.687 84.808 253.775 84.6532 253.201C86.7104 253.985 89.4534 254.814 92.86 255.256C95.2601 255.566 97.4501 255.61 99.3083 255.543C100.071 255.632 100.669 256.041 100.868 256.626C101.122 257.422 100.602 258.428 99.5626 258.958Z" fill="#FCFFEB" stroke="#8D0F3A" stroke-width="1.28069" stroke-miterlimit="10"/>
<path d="M97.2521 251.399C96.6327 251.653 93.3256 252.98 89.6093 251.421C85.5059 249.709 84.1897 245.863 84.0127 245.299C85.8377 246.139 88.2599 247.034 91.202 247.565C93.2814 247.94 95.1506 248.062 96.7212 248.062C97.3737 248.173 97.9267 248.581 98.1479 249.167C98.4355 249.952 98.0816 250.913 97.2521 251.388V251.399Z" fill="#FCFFEB" stroke="#8D0F3A" stroke-width="1.28069" stroke-miterlimit="10"/>
<path d="M97.4069 243.896C96.8871 244.117 94.0999 245.222 90.9698 243.918C87.5189 242.482 86.4129 239.244 86.258 238.769C87.7954 239.476 89.8305 240.227 92.3081 240.681C94.0556 241.001 95.6262 241.101 96.9535 241.101C97.5065 241.189 97.971 241.543 98.159 242.029C98.4024 242.681 98.1037 243.499 97.4069 243.896Z" fill="#FCFFEB" stroke="#8D0F3A" stroke-width="1.28069" stroke-miterlimit="10"/>
<path d="M60.0213 257.754C58.6774 257.754 57.588 256.665 57.588 255.323C57.588 253.98 58.6774 252.892 60.0213 252.892C61.3652 252.892 62.4546 253.98 62.4546 255.323C62.4546 256.665 61.3652 257.754 60.0213 257.754Z" fill="#8D0F3A" stroke="#8D0F3A" stroke-width="1.28069" stroke-miterlimit="10"/>
<path d="M85.0959 47.6574C77.8845 50.7295 72.6861 55.636 72.9847 56.0891C73.2391 56.4869 77.7075 53.459 86.0913 49.7239C91.6215 47.2596 96.3222 45.6241 99.4634 44.6074C95.9019 44.6958 90.7257 45.2705 85.107 47.6574H85.0959Z" fill="#D05B04"/>
<path d="M174.63 68.5661C165.483 65.1404 145.629 58.9962 123.774 62.9192C116.54 64.2232 107.891 65.7703 99.5847 72.2239C91.6876 78.357 92.8379 82.1364 87.2523 84.2802C75.0748 88.9768 63.1075 73.4947 52.3789 78.7549C48.9722 80.4235 47.0588 83.5067 45.997 85.7279C50.6534 91.9936 49.7133 99.928 42.5351 109.73C46.4394 111.432 52.5779 113.576 60.3866 114.139C68.339 114.714 74.8426 113.432 78.9792 112.283C80.4281 110.879 82.3858 108.702 83.9674 105.641C86.7325 100.293 85.903 97.0217 87.6616 95.8503C89.6414 94.5242 94.5633 96.0824 107.161 107.973C129.658 105.929 155.882 98.1047 182.936 89.021L171.444 73.992L174.619 68.5661H174.63Z" fill="#3F0015" stroke="#8D0F3A" stroke-width="1.28069" stroke-miterlimit="10"/>
<path d="M104.465 97.6953C105.239 99.3971 106.555 100.325 107.385 100.889C112.074 104.094 118.832 103.508 123.201 101.607C124.252 101.143 125.258 100.58 126.187 99.9055C130.479 96.8555 133.598 91.8716 135.113 86.9319C135.987 84.0366 136.33 81.1745 136.053 78.7323C135.821 76.6879 135.157 74.9308 134.007 73.7042C130.966 70.4884 125.059 71.5493 123.201 71.8808C114.906 73.3727 110.67 80.4341 107.451 85.7937C105.328 89.3299 102.706 93.8276 104.454 97.6843L104.465 97.6953Z" fill="#FCFFEB" stroke="#8D0F3A" stroke-width="1.28069" stroke-miterlimit="10"/>
<path d="M71.3821 112.294C68.1193 112.404 61.6047 112.658 57.0257 108.106C53.3978 104.492 50.5553 97.74 53.4531 93.8391C56.2735 90.0266 63.1863 90.8112 64.3145 90.9549C66.1063 91.187 67.3561 91.6732 68.4179 92.2699C70.8401 93.6181 72.3333 95.5299 77.1667 96.4581C78.0847 96.635 78.1732 96.5244 78.4276 96.6571C80.9051 97.9389 80.3521 108.912 74.8993 111.653C74.5675 111.819 73.7158 112.205 71.3821 112.294Z" fill="#FCFFEB" stroke="#8D0F3A" stroke-width="1.28069" stroke-miterlimit="10"/>
<path d="M118.267 97.1536C120.601 99.1428 123.421 99.9716 126.197 99.9053C130.489 96.8553 133.608 91.8714 135.123 86.9317C135.997 84.0364 136.34 81.1743 136.063 78.7321C136.008 78.5111 135.964 78.3122 135.919 78.0911C134.835 77.2181 133.442 76.3451 131.716 75.7594C131.097 75.5495 125.357 73.6487 120.037 76.8535C119.351 77.2623 118.09 78.1243 116.907 79.5167C112.416 84.7768 113.024 92.7002 118.278 97.1426L118.267 97.1536Z" fill="#B73A40" stroke="#8D0F3A" stroke-width="1.28069" stroke-miterlimit="10"/>
<path d="M62.1581 104.26C62.3904 105.276 62.9987 106.558 63.0651 106.68C63.6955 107.995 64.4144 109.498 65.974 110.669C67.7547 112.006 69.7456 112.327 71.3936 112.294C73.1522 112.26 74.5458 111.796 74.9108 111.664H74.9661C75.9173 110.581 77.4879 108.58 78.3284 105.652C79.0584 103.088 79.3018 99.5852 78.4391 96.6678C78.0298 96.6125 77.6095 96.5462 77.1782 96.4689C75.0546 96.071 73.5725 95.3859 73.2075 95.2312C71.9466 94.7118 69.7677 94.4576 65.6864 95.618C65.067 96.281 61.2954 100.392 62.1802 104.271L62.1581 104.26Z" fill="#B73A40" stroke="#8D0F3A" stroke-width="1.28069" stroke-miterlimit="10"/>
<path d="M114.682 88.468C112.562 88.468 110.844 86.7512 110.844 84.6334C110.844 82.5156 112.562 80.7988 114.682 80.7988C116.801 80.7988 118.52 82.5156 118.52 84.6334C118.52 86.7512 116.801 88.468 114.682 88.468Z" fill="#FCFFEB"/>
<path d="M60.7202 100.37C60.3038 98.9084 61.1283 97.393 62.5618 96.9853C63.9954 96.5776 65.4951 97.4319 65.9115 98.8935C66.3279 100.355 65.5034 101.871 64.0699 102.278C62.6364 102.686 61.1367 101.832 60.7202 100.37Z" fill="#FCFFEB"/>
<path d="M135.265 36.4189C134.734 41.5465 134.425 46.6851 134.325 51.8347" stroke="#6A0C0D" stroke-width="0.640345" stroke-miterlimit="10"/>
<path d="M131.805 36.0869C131.02 40.9382 130.6 45.8558 130.555 50.7733" stroke="#6A0C0D" stroke-width="0.640345" stroke-miterlimit="10"/>
<path d="M137.625 43.8339C134.329 42.5631 131.077 41.0933 127.903 39.4026" stroke="#6A0C0D" stroke-width="0.640345" stroke-miterlimit="10"/>
<path d="M136.516 47.1493C133.872 45.4807 131.052 44.0883 128.11 43.0164" stroke="#6A0C0D" stroke-width="0.640345" stroke-miterlimit="10"/>
<path d="M181.791 98.0032C178.427 97.9246 175.068 98.0111 171.712 98.2545" stroke="#6A0C0D" stroke-width="0.640345" stroke-miterlimit="10"/>
<path d="M181.823 95.4094C178.625 95.1247 175.403 95.1154 172.202 95.3856" stroke="#6A0C0D" stroke-width="0.640345" stroke-miterlimit="10"/>
<path d="M177.095 100.211C177.744 97.683 178.525 95.1754 179.454 92.7118" stroke="#6A0C0D" stroke-width="0.640345" stroke-miterlimit="10"/>
<path d="M174.88 99.5934C175.823 97.5257 176.576 95.3436 177.115 93.0907" stroke="#6A0C0D" stroke-width="0.640345" stroke-miterlimit="10"/>
</svg>
