<svg width="297" height="374" viewBox="0 0 297 374" fill="none" xmlns="http://www.w3.org/2000/svg">
<path d="M63.8566 245.65C63.0847 245.927 58.9299 247.375 54.6162 245.97C49.8598 244.426 48.7133 240.657 48.5543 240.103C50.6658 240.859 53.481 241.658 56.9774 242.083C59.4408 242.382 61.6884 242.424 63.5956 242.36C64.3788 242.445 64.9918 242.839 65.1962 243.404C65.4573 244.17 64.9237 245.139 63.8566 245.65Z" fill="white" stroke="#231F20" stroke-width="1.28069" stroke-miterlimit="10"/>
<path d="M61.4832 238.368C60.8475 238.613 57.4533 239.891 53.639 238.389C49.4275 236.739 48.0766 233.034 47.895 232.491C49.7681 233.3 52.2541 234.162 55.2737 234.673C57.4079 235.035 59.3263 235.153 60.9383 235.153C61.608 235.259 62.1756 235.653 62.4027 236.217C62.6978 236.973 62.3346 237.9 61.4832 238.358V238.368Z" fill="white" stroke="#231F20" stroke-width="1.28069" stroke-miterlimit="10"/>
<path d="M61.6461 231.139C61.1126 231.352 58.2519 232.416 55.0394 231.16C51.4976 229.776 50.3624 226.656 50.2034 226.198C51.7814 226.88 53.8701 227.604 56.4129 228.04C58.2065 228.349 59.8185 228.445 61.1807 228.445C61.7483 228.53 62.2251 228.871 62.4181 229.339C62.6678 229.967 62.3613 230.755 61.6461 231.139Z" fill="white" stroke="#231F20" stroke-width="1.28069" stroke-miterlimit="10"/>
<path d="M55.8579 248.823C57.799 251.837 62.7598 251.794 68.4698 252.231C72.7267 252.561 78.6524 253.253 85.8495 254.861C103.558 251.762 115.966 245.31 123.027 240.923C134.084 234.045 153.03 222.268 155.062 202.847C156.038 193.52 152.757 185.736 150.294 181.179C147.365 173.864 139.362 170.212 132.903 172.139C128.181 173.545 124.662 177.815 123.833 182.957C124.276 185.662 124.627 190.07 123.265 195.192C122.198 198.098 120.836 201.133 119.11 204.231C110.188 220.213 96.157 229.274 87.0414 233.97C82.1715 230.84 77.7216 229.253 74.7133 228.412C68.9806 226.261 64.1788 225.846 60.2056 226.932C59.8764 226.9 57.9012 226.73 56.4255 228.039C54.9497 229.349 54.5751 231.585 55.5968 233.555C53.1221 234.417 51.442 236.6 51.3398 239.07C51.249 241.54 52.7588 243.84 55.1654 244.863C55.0065 245.959 54.9951 247.482 55.8692 248.834L55.8579 248.823Z" fill="#F36B21" stroke="#231F20" stroke-width="1.28069" stroke-miterlimit="10"/>
<path d="M61.0456 234.45C59.6663 234.45 58.5482 233.401 58.5482 232.108C58.5482 230.814 59.6663 229.765 61.0456 229.765C62.4248 229.765 63.543 230.814 63.543 232.108C63.543 233.401 62.4248 234.45 61.0456 234.45Z" fill="#6A0C0D" stroke="#231F20" stroke-width="1.28069" stroke-miterlimit="10"/>
<path d="M57.694 241.414C56.3147 241.414 55.1966 240.365 55.1966 239.071C55.1966 237.778 56.3147 236.729 57.694 236.729C59.0733 236.729 60.1914 237.778 60.1914 239.071C60.1914 240.365 59.0733 241.414 57.694 241.414Z" fill="#6A0C0D" stroke="#231F20" stroke-width="1.28069" stroke-miterlimit="10"/>
<path d="M175.253 284.601C176.695 284.739 178.194 284.846 179.726 284.952C197.617 286.208 220.933 285.985 242.547 279.713C247.542 278.265 253.036 276.019 258.656 271.643C269.065 263.529 274.151 249.858 271.37 237.421C270.734 234.642 269.769 231.938 268.85 229.223C268.225 227.412 267.635 225.602 267.192 223.739C267.147 223.547 267.101 223.356 267.056 223.153C266.874 222.334 266.727 221.503 266.625 220.662C266.148 216.925 266.545 213.091 268.588 209.908C269.088 209.131 269.667 208.428 270.303 207.778C273.799 204.158 279.112 202.167 283.437 199.239C294.334 191.85 298.671 177.081 293.358 165.518C294.334 169.394 292.711 173.525 290.043 176.624C287.364 179.733 283.789 181.979 280.247 184.194C284.254 180.829 286.502 175.697 286.161 170.661C284.14 173.663 280.428 175.399 276.682 175.985C272.925 176.56 269.099 176.144 265.33 175.729C265.932 174.867 267.238 173.216 269.565 171.981C271.767 170.81 273.822 170.565 274.911 170.501C267.578 167.807 261.278 166.785 257.01 166.349C257.01 166.349 237.496 164.347 219.049 172.769C216.29 174.026 211.579 176.24 207.175 180.84C206.528 181.511 205.915 182.213 205.359 182.916C196.708 193.777 198.354 208.076 198.797 212.389C199.955 223.888 204.28 228.286 205.915 236.442C206.369 238.71 207.402 241.616 206.494 245.13C204.927 251.22 199.24 254.66 196.97 256.044C184.948 263.316 169.918 258.855 167.103 257.96C169.827 266.841 172.54 275.71 175.265 284.59L175.253 284.601Z" fill="#F36B21" stroke="#231F20" stroke-width="0.640345" stroke-miterlimit="10"/>
<path d="M170.538 278.159C172.332 280.704 174.125 283.249 175.919 285.793C193.809 287.05 217.126 286.826 238.74 280.555C241.816 279.66 245.074 278.468 248.435 276.668C251.352 275.178 253.463 273.623 254.837 272.494C267.721 261.879 268.107 245.482 268.437 231.001C268.584 224.783 267.71 223.867 267.165 223.75C266.461 223.601 265.61 224.634 265.031 225.464C265.167 227.264 265.701 236.601 258.311 244.523C252.101 251.178 244.2 252.669 241.907 253.02C243.145 253.765 245.052 254.713 247.549 255.096C250.977 255.629 253.656 254.937 255.302 254.479C259.355 253.35 262.148 251.242 263.692 249.836C260.331 252.818 251.102 260.165 237.298 261.368C231.361 261.889 226.298 261.112 222.666 260.228C224.709 261.591 227.366 263.093 230.658 264.338C236.402 266.521 241.601 266.99 245.074 267.022C235.459 271.696 219.941 277.744 199.962 279.32C188.429 280.225 178.394 279.415 170.538 278.18V278.159Z" fill="#F58220"/>
<path d="M178.453 281.362C178.794 282.48 179.203 283.683 179.736 284.95C197.627 286.207 220.943 285.983 242.557 279.712C247.552 278.264 253.046 276.017 258.666 271.652C265.919 266.008 273.128 252.401 271.38 237.43C271.005 234.247 270.04 229.37 267.191 223.748C267.634 225.516 269.688 234.609 263.774 243.606C258.268 251.985 249.618 254.541 247.575 255.095C250.367 255.286 254 255.276 258.121 254.573C260.936 254.094 263.388 253.391 265.397 252.678C254.965 259.311 243.114 266.264 230.672 264.315C234.645 266.988 239.084 269.011 243.761 270.299C237.46 273.355 229.389 276.581 219.695 278.892C202.86 282.906 188.25 282.459 178.453 281.362Z" fill="#DA5426"/>
<path d="M238.486 175.962C238.259 175.866 237.146 178.134 234.399 181.435C233.446 182.585 232.572 183.522 231.89 184.224C231.516 183.607 231.073 182.723 230.823 181.594C230.381 179.593 230.778 177.921 231.062 177.069C229.734 178.911 227.94 181.85 226.896 185.726C225.34 191.486 226.271 196.235 226.578 197.992C227.509 203.475 227.724 212.323 224.205 226.847C228.814 218.999 230.517 212.355 231.221 207.734C232.231 201.101 231.073 199.28 232.572 192.359C234.592 183.074 238.883 176.132 238.486 175.962Z" fill="#F58220"/>
<path d="M206.295 187.951C206.715 189.74 207.214 191.38 207.725 192.86C209.394 188.399 212.413 184.384 216.33 181.392C214.094 188.005 213.242 195 213.844 201.91C215.558 196.363 219.769 191.55 225.218 188.888C224.526 190.081 222.982 193.137 223.345 197.172C223.629 200.313 224.946 202.602 225.729 203.752C225.582 201.037 225.775 196.8 227.875 192.242C228.601 190.635 229.441 189.272 230.27 188.132C234.686 195.756 235.832 204.977 233.414 213.357C236.252 207.873 239.499 202.581 243.12 197.524C242.416 200.59 241.803 204.306 241.645 208.544C241.463 213.346 241.894 217.552 242.496 220.916C244.903 218.776 248.887 214.634 251.191 208.32C252.406 204.988 252.815 201.974 252.917 199.653C255.074 203.55 257.537 209.002 259.104 215.795C260.829 223.259 260.841 229.722 260.466 234.343C261.612 230.393 263.758 226.709 266.641 223.631C266.766 223.472 266.914 223.323 267.05 223.174C266.062 218.691 266.074 213.825 268.583 209.939C271.84 204.881 278.334 202.73 283.431 199.27C293.227 192.626 297.723 180.019 294.658 169.137C294.317 167.902 293.886 166.709 293.352 165.549C294.329 169.425 292.705 173.556 290.038 176.654C287.358 179.763 283.783 182.01 280.241 184.225C284.248 180.86 286.496 175.728 286.155 170.692C284.135 173.694 280.422 175.43 276.676 176.015C272.919 176.59 269.093 176.175 265.325 175.76C266.369 174.834 267.777 173.758 269.57 172.747C271.568 171.629 273.43 170.947 274.905 170.521C257.083 163.781 236.173 164.622 219.043 172.789C214.65 174.865 210.472 177.442 207.169 180.86C206.522 181.531 205.909 182.234 205.353 182.936C205.568 184.491 205.863 186.163 206.283 187.962L206.295 187.951Z" fill="white"/>
<path d="M260.424 217.807C260.254 223.12 261.106 227.507 261.923 230.499C263.637 228.05 265.34 225.601 267.054 223.163C266.066 218.68 266.078 213.814 268.586 209.928C271.844 204.87 278.338 202.72 283.435 199.259C293.231 192.615 297.727 180.008 294.662 169.126C291.392 174.834 290.938 175.696 290.938 175.696C290.325 178.571 289.065 182.585 286.227 186.61C278.167 198.056 265.703 197.779 261.821 208.31C260.629 211.525 260.515 215.007 260.424 217.818V217.807Z" fill="#E6E7E8"/>
<path d="M254.932 227.039C252.583 232.341 247.94 234.928 245.908 235.738C242.366 237.164 238.427 237.399 234.692 238.272C236.338 237.143 239.028 234.96 240.992 231.425C242.093 229.434 242.661 227.571 242.956 226.133C244.545 225.537 247.202 224.302 249.654 221.864C252.991 218.542 254.047 214.89 254.422 213.239C254.989 214.389 257.85 220.49 254.944 227.028L254.932 227.039Z" fill="#F58220"/>
<path d="M182.801 285.271C199.069 285.803 224.497 284.941 242.558 279.713C247.552 278.265 253.035 276.029 258.666 271.653C269.064 263.55 274.15 249.868 271.38 237.442C271.187 236.558 270.199 233.8 268.86 229.243C267.452 224.463 266.748 222.046 266.635 220.693C266.612 220.395 266.124 213.602 270.313 207.81C274.241 202.379 279.587 201.911 283.458 199.281C294.345 191.881 298.693 177.113 293.369 165.56C294.345 169.425 292.721 173.556 290.054 176.655C287.386 179.764 283.799 182.011 280.269 184.236C284.276 180.861 286.523 175.739 286.171 170.692C284.151 173.705 280.439 175.43 276.704 176.016C272.947 176.602 269.121 176.186 265.352 175.771C266.397 174.845 267.804 173.769 269.598 172.758C271.596 171.64 273.457 170.958 274.922 170.532C257.111 163.793 236.189 164.634 219.059 172.8C214.677 174.877 210.489 177.453 207.197 180.871C206.55 181.542 205.937 182.234 205.392 182.948C196.741 193.808 198.388 208.108 198.819 212.431C199.977 223.919 204.313 228.328 205.937 236.473C206.391 238.741 207.412 241.648 206.515 245.161C204.938 251.252 199.262 254.691 196.98 256.065C190.055 260.228 182.926 260.313 179.793 260.143" stroke="#231F20" stroke-width="1.28069" stroke-miterlimit="10"/>
<path d="M97.5459 326.467C96.5015 331.759 96.4448 337.104 96.388 342.406C93.709 337.029 88.1012 333.483 81.869 333.217C72.674 332.834 67.4408 339.819 67.1456 340.223C69.4955 342.364 99.1011 369.259 106.503 368.258C109.25 367.886 110.748 366.459 110.748 366.459C112.678 364.617 112.633 361.934 112.678 360.145C112.678 360.145 112.826 353.81 114.733 347.272C115.777 343.694 117.9 340.202 122.145 333.228C123.86 330.417 124.245 329.81 125.324 328.213C126.357 326.69 136.733 311.39 132.373 306.194C128.752 301.892 115.073 304.628 107.047 311.155C102.189 315.106 98.6357 321.026 97.5686 326.456L97.5459 326.467Z" fill="#F36B21" stroke="#231F20" stroke-width="1.28069" stroke-miterlimit="10"/>
<path d="M168.501 332.162C176.322 340.574 188.457 340.659 190.977 340.627C188.832 341.383 185.199 343.002 181.726 346.238C179.523 348.293 175.732 351.828 175.187 357.291C175.823 363.477 177.821 367.81 179.444 368.332C180.704 368.726 181.851 368.566 181.851 368.566C182.588 368.439 183.19 368.183 183.463 368.055C184.393 368.471 186.266 369.141 188.571 368.854C193.543 368.268 195.938 363.881 196.154 363.456C196.665 363.988 197.493 364.669 198.64 364.968C199.605 365.223 200.592 365.17 201.58 364.893C205.508 363.786 209.481 359.197 211.729 356.588C215.509 352.212 218.608 348.634 218.267 343.619C218.006 339.765 215.974 336.783 215.112 335.932C212.637 333.515 210.923 332.248 208.164 330.427C203.51 327.371 197.857 323.644 195.995 318.523C194.372 314.061 197.346 313.263 197.596 303.158C197.732 297.43 196.892 293.171 196.313 290.339C194.826 283.013 194.077 279.34 191.942 278.349C186.528 275.847 172.86 286.165 166.912 299.176C165.424 302.434 157.319 320.162 168.501 332.162Z" fill="#F36B21" stroke="#231F20" stroke-width="1.28069" stroke-miterlimit="10"/>
<path d="M186.133 352.158C185.145 353.532 183.681 355.949 183.022 359.26C182.228 363.178 182.954 366.394 183.454 368.055" stroke="#231F20" stroke-width="1.28069" stroke-miterlimit="10"/>
<path d="M196.172 350.71C195.423 352.787 194.776 354.906 194.605 357.088C194.435 359.271 194.776 361.539 195.922 363.445" stroke="#231F20" stroke-width="1.28069" stroke-miterlimit="10"/>
<path d="M211.063 344.354C213.288 354.565 203.014 363.669 201.584 364.893C204.751 363.104 219.134 354.618 218.271 343.619C218.146 341.99 217.726 340.819 217.363 339.84C212.936 327.765 198.519 327.829 195.999 318.523C195.397 316.308 196.271 316.521 196.907 309.739C197.679 301.551 197.009 294.811 196.317 290.339C185.555 311.645 187.269 320.205 190.891 324.07C194.183 327.584 199.927 328.18 205.977 335.41C207.828 337.625 210.223 340.478 211.063 344.354Z" fill="#DA5426"/>
<path d="M168.501 332.162C176.322 340.574 188.457 340.659 190.977 340.627C188.832 341.383 185.199 343.002 181.726 346.238C179.523 348.293 175.732 351.828 175.187 357.291C175.823 363.477 177.821 367.81 179.444 368.332C180.704 368.726 181.851 368.566 181.851 368.566C182.588 368.439 183.19 368.183 183.463 368.055C184.393 368.471 186.266 369.141 188.571 368.854C193.543 368.268 195.938 363.881 196.154 363.456C196.665 363.988 197.493 364.669 198.64 364.968C199.605 365.223 200.592 365.17 201.58 364.893C205.508 363.786 209.481 359.197 211.729 356.588C215.509 352.212 218.608 348.634 218.267 343.619C218.006 339.765 215.974 336.783 215.112 335.932C212.637 333.515 210.923 332.248 208.164 330.427C203.51 327.371 197.857 323.644 195.995 318.523C194.372 314.061 197.346 313.263 197.596 303.158C197.732 297.43 196.892 293.171 196.313 290.339C194.826 283.013 194.077 279.34 191.942 278.349C186.528 275.847 172.86 286.165 166.912 299.176C165.424 302.434 157.319 320.162 168.501 332.162Z" stroke="#231F20" stroke-width="1.28069" stroke-miterlimit="10"/>
<path d="M65.2739 224.239C65.1377 233.375 65.2966 297.132 110.693 317.991C132.397 327.957 156.032 322.389 157.462 322.048C161.174 321.164 173.684 318.055 184.775 308.93C218.672 281.033 205.799 224.548 204.153 217.776C199.669 199.27 192.006 181.595 185.172 173.322C179.973 167.03 175.466 160.236 171.743 153.081C164.183 138.558 150.731 128.453 132.852 127.58C118.333 126.867 100.612 133.266 89.408 144.851C87.4555 146.863 80.4854 153.071 74.4803 176.889C68.4638 200.75 65.4556 212.676 65.2739 224.239Z" fill="#F36B21" stroke="#231F20" stroke-width="1.28069" stroke-miterlimit="10"/>
<path d="M37.4629 108.585C37.9624 108.766 38.4846 108.979 38.984 109.202C44.887 111.832 48.4288 116.549 50.4948 120.339L176.342 113.919C182.778 114.483 189.294 115.016 195.844 115.505C198.92 115.74 201.985 115.953 205.039 116.176C198.376 113.653 193.097 108.073 191.258 101.557C195.696 102.036 199.953 103.985 203.052 106.998C200.215 100.599 195.231 95.0408 188.999 91.3035C191.417 91.6442 193.903 91.9743 196.287 91.4845C193.687 90.1323 190.713 88.2902 187.705 85.8094C181.552 80.7411 177.954 75.2044 175.91 71.3286C178.873 68.145 182.789 63.0129 184.538 56.06C188.352 40.8872 177.806 31.315 182.301 16.9088C184.333 10.4032 188.295 5.24972 192.597 1.22493C187.546 0.79903 167.442 -0.329614 148.972 12.703C134.862 22.6692 129.333 35.5208 127.449 40.7062C122.579 39.3859 116.143 38.2253 108.582 38.4063C90.4307 38.8535 77.3079 46.786 71.7001 50.6723C69.7703 47.6697 56.6475 28.0143 31.3556 24.6177C18.0285 22.8289 7.26695 26.3532 1.99968 28.504C10.9563 31.9219 16.1895 36.4152 19.3226 39.8757C29.176 50.7894 27.5073 61.9694 39.79 75.6942C42.6507 78.8884 45.3638 81.2096 47.1687 82.647C51.1986 90.0684 50.7786 98.3309 46.0449 103.601C43.2523 106.721 39.6424 108.02 37.4629 108.595V108.585Z" fill="#F36B21" stroke="#231F20" stroke-width="1.28069" stroke-miterlimit="10"/>
<path d="M48.0022 78.249C51.6688 76.4176 32.6544 24.6277 15.9899 25.6925C13.2201 25.8735 11.1427 27.46 10.2686 28.2053C12.3573 28.6951 15.5131 29.696 18.6236 31.8787C28.1137 38.5441 26.4677 48.7551 34.0507 62.2456C38.7618 70.6146 46.3561 79.0688 47.9908 78.249H48.0022Z" fill="#DA4D1F"/>
<path d="M166.501 57.5403C169.918 56.0603 171.859 53.5794 172.381 52.8767C177.035 46.6053 173.845 39.8015 173.8 29.8353C173.777 25.0652 174.47 18.3466 177.762 10.2012C173.38 10.8826 167.727 12.3733 162.108 15.8124C144.16 26.7688 142.389 47.702 142.174 50.8537C149.995 57.8598 159.508 60.5643 166.489 57.5403H166.501Z" fill="#F6927F" stroke="#231F20" stroke-width="1.28069" stroke-miterlimit="10"/>
<path d="M62.7432 56.1572C59.6441 47.6391 51.0621 42.5815 46.5555 39.9196C44.8073 38.8868 43.4564 38.216 43.0704 38.0243C35.022 34.0208 27.6092 32.6792 22.5463 32.1895C25.2934 35.405 29.0168 40.3668 32.0364 47.0535C33.7733 50.8973 34.1592 53.0161 35.2603 55.9229C37.1334 60.8315 40.8228 67.6566 48.9166 75.0673C54.0477 72.6716 57.3965 69.8393 59.3717 67.8908C62.7091 64.5901 63.3221 62.599 63.5151 61.3638C63.6854 60.2991 63.6854 58.7552 62.7432 56.1572Z" fill="#F6927F" stroke="#231F20" stroke-width="1.28069" stroke-miterlimit="10"/>
<path d="M43.0279 39.0767C42.063 39.4919 40.2126 40.1414 37.806 40.0775C34.934 40.003 32.8452 38.9595 31.9144 38.4165C32.096 39.4174 32.6069 41.3446 34.2188 43.1866C35.1497 44.2407 36.1373 44.9328 36.8865 45.3694C36.2849 45.4226 35.6151 45.4652 34.8999 45.4546C33.8783 45.4439 32.9474 45.3481 32.1641 45.231C33.5604 46.5406 35.4108 48.0526 37.772 49.4474C39.2704 50.3418 40.7121 51.0232 42.0062 51.5556C41.3705 51.9602 40.0083 52.6949 38.1579 52.7375C37.3292 52.7588 36.6254 52.631 36.0919 52.4926C36.5233 53.7916 37.613 56.4109 40.2807 58.6789C41.9721 60.1163 43.6976 60.8936 44.8896 61.3195C44.1744 61.4792 43.4025 61.6282 42.5624 61.7454C41.4273 61.9051 40.3715 61.9796 39.418 62.0009C40.7461 63.1508 42.8689 64.6841 45.8204 65.8127C50.3271 67.5377 54.357 67.3779 56.423 67.1543C58.3756 64.8438 59.1248 62.7356 59.4199 61.1704C60.8616 53.5467 54.3003 44.6879 43.0165 39.0767H43.0279Z" fill="#DD7162"/>
<path d="M46.5563 39.9185C45.6595 40.5041 44.093 41.3665 41.9475 41.7818C39.1208 42.3248 36.7937 41.8031 35.6812 41.473C37.2591 43.4428 39.5522 44.8909 42.0837 45.5191C41.5956 45.8172 40.9258 46.1686 40.0744 46.4241C38.6895 46.8394 37.4748 46.8074 36.7256 46.7436C38.0765 47.5421 39.643 48.362 41.4366 49.1393C43.5367 50.0443 45.5006 50.6938 47.2261 51.1623C46.5223 51.8438 45.2963 52.8446 43.5027 53.59C41.9702 54.2288 40.5966 54.4418 39.6544 54.5163C42.4242 58.2323 46.9196 60.7558 51.7214 61.2988C50.7338 61.5863 49.6781 61.8631 48.5429 62.108C46.9196 62.4594 45.3984 62.7043 44.0022 62.864C45.5347 63.5987 47.4191 64.3547 49.6554 64.9509C52.9815 65.8453 55.933 66.0796 58.1693 66.0902C61.2797 64.7486 62.4376 63.1302 62.937 62.0122C65.355 56.5819 59.1001 47.4037 46.5336 39.9185H46.5563Z" fill="white" stroke="#231F20" stroke-width="1.28069" stroke-miterlimit="10"/>
<path d="M128.498 323.112C128.498 323.112 128.555 323.122 128.578 323.122C143.744 325.284 156.424 322.292 157.457 322.047C161.18 321.163 173.679 318.054 184.781 308.929C216.032 283.194 207.518 233.15 204.715 220.213C206.758 230.297 211.503 265.114 185.621 293.895C164.438 317.447 136.07 322.1 128.498 323.112Z" fill="#DA5426"/>
<path d="M110.687 317.991C116.647 320.727 122.743 322.292 128.498 323.112C128.521 323.112 128.555 323.123 128.578 323.123C143.744 325.284 156.424 322.292 157.457 322.047C161.18 321.164 173.679 318.055 184.781 308.93C216.032 283.194 207.518 233.151 204.715 220.214C204.646 219.905 204.59 219.628 204.533 219.373C204.499 219.202 204.453 219.043 204.419 218.894C204.317 218.414 204.226 218.031 204.158 217.776C199.674 199.27 192.012 181.595 185.178 173.322C179.979 167.029 175.472 160.236 171.749 153.081C164.188 138.557 150.736 128.453 132.846 127.58C118.338 126.877 100.607 133.266 89.4137 144.85C87.4612 146.873 80.4798 153.07 74.4747 176.899C68.4582 200.75 65.4499 212.675 65.2683 224.239C65.1321 233.374 65.3024 297.132 110.687 317.991Z" stroke="#231F20" stroke-width="1.28069" stroke-miterlimit="10"/>
<path d="M144.412 41.8355C148.715 34.5845 153.017 27.3335 157.308 20.0825C158.931 19.4011 160.623 18.6344 162.382 17.772C164.255 16.8457 166.003 15.898 167.604 14.9717C167.684 15.9619 167.672 17.2716 167.343 18.7729C166.844 21.0408 165.833 22.7338 165.095 23.7453C165.89 23.2981 167.15 22.4569 168.285 21.0515C169.398 19.6566 169.909 18.3044 170.147 17.4632C170.578 19.1455 171.18 22.4889 170.124 26.5137C169.159 30.1764 167.275 32.7212 166.128 34.0309C166.946 34.0522 167.933 34.0096 169.046 33.8179C170.794 33.5091 172.168 32.9342 173.121 32.455C172.837 33.7221 172.19 35.7984 170.533 37.8853C169.545 39.1204 168.501 39.9935 167.638 40.6004C168.001 40.7708 168.467 40.9518 169.034 41.0689C170.26 41.3138 171.293 41.1222 171.861 40.9624C171.736 41.6545 171.43 42.7832 170.612 43.9331C170.113 44.6359 169.557 45.1469 169.103 45.4983C169.409 45.5622 169.761 45.6261 170.158 45.6474C171.214 45.7219 172.088 45.5516 172.712 45.3705C171.543 46.8825 169.307 49.3421 165.697 51.2906C161.417 53.5905 157.558 53.9099 156.774 53.9632C154.708 54.1122 146.172 54.7191 143.606 49.9384C141.881 46.7228 143.833 42.8897 144.424 41.8355H144.412Z" fill="#DD7162"/>
<path d="M142.22 50.086C142.503 46.4126 143.355 41.1527 145.898 35.2752C148.713 28.7482 152.493 24.074 155.229 21.1885C156.625 21.2843 158.657 21.2523 160.984 20.6454C162.494 20.2515 163.731 19.7084 164.674 19.208C164.481 20.0279 164.242 20.8797 163.959 21.7634C163.448 23.3712 162.857 24.8193 162.256 26.1076C162.846 26.2035 164.254 26.3632 165.843 25.7563C167.194 25.2345 168.022 24.4147 168.408 23.9888C168.238 25.4049 167.807 27.4492 166.649 29.6959C165.026 32.8263 162.767 34.7748 161.416 35.7757C164.344 36.0631 167.319 35.8502 170.168 35.1581C168.079 38.2885 164.413 40.4499 160.485 40.8546C163.277 41.7702 166.195 42.3346 169.158 42.5369C167.341 44.5919 164.742 46.008 161.949 46.4871C164.458 46.5617 166.978 46.6575 169.498 46.7427C165.627 49.9902 160.576 51.9493 155.411 52.322C151.017 51.5767 146.624 50.842 142.22 50.0967V50.086Z" fill="white" stroke="#231F20" stroke-width="1.28069" stroke-miterlimit="10"/>
<path d="M79.7165 264.189C80.9879 270.748 84.2345 286.24 99.9795 298.027C102.886 300.199 125.589 317.192 148.441 309.697C169.215 302.882 174.981 280.778 176.128 275.443C179.386 260.366 171.962 258.013 159.531 217.126C151.585 190.997 149.633 175.558 151.063 159.448C151.71 152.283 152.891 146.384 153.844 142.391C125.544 134.469 99.8887 140.932 92.0105 153.869C90.6029 156.18 87.5038 162.408 90.7732 172.598C94.0425 172.3 97.2437 171.182 99.8093 169.404C96.9259 176.24 92.3965 182.607 86.5957 188.005C89.1839 188.112 91.8062 187.633 94.1333 186.632C91.6359 188.9 88.832 191.828 86.2324 195.48C81.7939 201.751 79.7051 207.639 78.6608 211.845C78.9559 211.334 80.8403 208.246 85.0064 207.256C87.4471 206.681 89.4904 207.096 90.4099 207.341C87.572 210.024 83.894 214.081 80.8857 219.586C78.1953 224.505 76.9126 228.956 76.2655 232.267C77.6731 230.628 79.4894 228.764 81.7711 226.869C83.7577 225.219 85.7103 223.877 87.4584 222.802C84.0188 228.679 75.9136 244.469 79.7278 264.189H79.7165Z" fill="#E6E7E8" stroke="#231F20" stroke-width="1.28069" stroke-miterlimit="10"/>
<path d="M65.6411 140.133C72.9971 145.435 80.8526 147.522 86.7215 149.694C90.7401 151.185 98.3458 153.996 107.314 153.613C119.778 153.07 122.253 146.894 138.214 142.976C149.214 140.271 152.483 142.678 156.887 141.943C156.887 141.943 158.772 141.538 160.69 140.601C168.092 136.992 171.304 123.182 178.717 117.528C182.327 114.77 188.673 112.63 200.66 115.132C200.66 115.132 184.858 106.242 185.301 105.315C185.528 104.847 189.842 106.487 190.012 106.114C190.205 105.699 183.791 100.598 175.141 99.7892C167.887 99.1077 162.359 100.982 161.746 99.5549C161.383 98.7031 163.074 97.2338 164.89 95.9454C159.362 95.7325 152.494 95.9454 144.764 97.287C133.207 99.2887 124.092 103.058 117.848 106.231C113.841 101.642 110.084 98.5221 107.427 96.531C102.115 91.6225 97.835 88.9712 95.3262 87.6083C92.7948 86.2348 91.2396 86.107 89.8433 86.4371C83.0208 88.0449 85.9723 102.749 76.8227 107.615C73.9393 109.148 70.4089 109.234 66.1633 109.713C61.282 110.266 59.0684 109.447 54.8909 110.288C51.281 111.012 48.5339 112.364 46.8311 113.354C48.9652 120.105 53.926 131.7 65.6298 140.133H65.6411Z" fill="#DA4D1F"/>
<path d="M46.9898 134.544C49.9413 133.299 52.7452 133.597 54.0847 133.831C52.8133 134.821 51.2922 136.248 50.0321 138.229C45.2076 145.788 47.6709 155.744 49.7597 155.989C51.8484 156.234 52.4047 146.651 59.159 144.532C61.1229 143.914 63.03 144.063 66.4923 145.064C76.5387 147.971 81.2952 152.273 87.2095 154.466C91.1599 155.925 98.6408 158.693 107.45 158.31C119.699 157.778 122.139 151.698 137.816 147.854C151.325 144.543 150.723 148.748 159.907 145.522C176.367 139.74 180.181 125.888 193.576 125.345C195.37 125.27 201.988 127.027 201.988 127.027L202.227 126.963C201.091 125.398 199.275 123.173 196.607 120.969C183.78 110.342 165.583 108.99 165.583 108.99C165.583 108.99 168.58 106.467 170.725 105.594C174.233 104.167 176.764 103.943 176.764 103.943C176.764 103.943 169.942 102.272 162.109 103.869C153.811 105.562 148.124 109.331 147.783 108.809C147.352 108.149 156.456 100.919 156.456 100.919C156.456 100.919 145.615 101.548 138.997 103.134C133.605 104.433 126.146 106.85 117.803 111.737C113.864 107.233 110.174 104.167 107.552 102.208C102.33 97.3737 98.1186 94.7757 95.6553 93.4341C94.0887 92.5823 92.1248 91.6453 90.2631 92.2842C88.7193 92.8166 87.9133 94.2114 87.4138 95.1058C85.8359 97.9487 86.1311 100.643 86.1084 101.824C85.9948 107.372 78.4004 112.94 72.7132 114.932C63.643 118.115 59.0228 112.323 48.0455 116.124C46.3541 116.71 43.3459 117.775 40.383 120.309C34.3893 125.398 33.2881 132.372 33.0157 135.013C33.3335 133.916 34.4006 130.828 37.6245 128.38C40.5987 126.112 43.7318 125.664 44.9578 125.547C43.5729 127.006 41.4842 129.593 40.2128 133.32C38.4305 138.505 39.2138 142.956 39.7247 144.99C39.7473 144.67 40.5193 137.27 46.9671 134.544H46.9898Z" fill="#F8F8F9"/>
<path d="M94.0385 157.628C98.0344 158.224 104.221 158.735 111.43 157.426C122.441 155.424 124.007 151.325 135.552 148.429C148.913 145.075 150.628 149.621 159.902 145.447C164.011 143.595 168.654 140.113 177.951 133.149C181.925 130.179 184.354 128.177 188.565 126.91C193.753 125.345 198.555 125.824 201.711 126.452C199.282 123.801 196.841 121.149 194.412 118.488C190.484 118.211 184.899 118.36 179.087 120.681C169.778 124.408 170.8 129.359 162.138 134.917C151.218 141.923 142.874 136.28 125.131 146.469C119.262 149.845 117.389 152.464 110.272 154.956C103.869 157.192 98.0344 157.628 94.0272 157.639L94.0385 157.628Z" fill="#E6E7E8"/>
<path d="M46.9899 134.543C50.0322 133.255 52.8815 133.606 54.0848 133.83C52.8134 134.82 51.2922 136.247 50.0322 138.228C45.2076 145.787 49.7597 155.988 49.7597 155.988C49.7597 155.988 52.4047 146.65 59.1591 144.531C61.1229 143.913 63.03 144.062 66.4924 145.063C76.5388 147.97 81.2952 152.272 87.2095 154.465C91.16 155.924 98.6408 158.692 107.45 158.309C119.699 157.776 122.139 151.697 137.816 147.853C151.325 144.542 150.723 148.747 159.907 145.521C176.367 139.739 180.181 125.887 193.576 125.344C195.37 125.269 201.988 127.026 201.988 127.026L202.227 126.962C201.091 125.397 199.275 123.172 196.607 120.968C183.78 110.341 165.583 108.989 165.583 108.989C165.583 108.989 168.58 106.466 170.725 105.593C174.233 104.166 176.764 103.942 176.764 103.942C176.764 103.942 169.942 102.271 162.109 103.868C153.811 105.561 148.124 109.33 147.783 108.808C147.352 108.148 156.456 100.918 156.456 100.918C156.456 100.918 145.615 101.547 138.997 103.133C133.605 104.432 126.146 106.849 117.803 111.736C113.864 107.232 110.174 104.166 107.552 102.207C102.33 97.3727 98.1187 94.7747 95.6553 93.4331C92.7152 91.8253 91.3189 91.8892 90.2632 92.2832C87.743 93.2202 88.4242 96.3825 86.1084 101.823C82.4417 110.469 75.9144 113.823 74.0641 114.526C72.1569 115.239 71.6575 115.058 66.9918 115.165C62.0992 115.282 61.997 116.198 55.9124 115.729C54.1642 115.591 52.5523 115.335 49.9981 115.591C49.7938 115.612 48.1024 115.782 46.6039 116.176C40.928 117.667 37.3521 122.469 36.9435 123.033C33.9466 127.165 33.6628 131.339 33.6401 133.063C34.4801 131.85 35.9899 130.008 38.4192 128.368C40.9734 126.643 43.4367 125.898 44.9579 125.546C43.7092 126.771 41.4047 129.369 40.2128 133.319C38.8619 137.77 39.6452 141.518 40.0993 143.168C40.2128 142.582 41.4161 136.897 46.9672 134.543H46.9899Z" stroke="#231F20" stroke-width="1.28069" stroke-miterlimit="10"/>
<path d="M97.5601 217.296C99.8078 208.651 102.01 206.074 106.108 190.315C110.751 172.481 110.399 166.316 115.939 162.014C119.378 159.342 127.801 155.285 148.678 162.398C148.995 171.576 149.325 180.754 149.642 189.932C149.847 206.574 153.003 219.245 155.818 227.678C162.095 246.513 171.177 257.842 166.841 273.335C166.023 276.242 164.582 281.171 160.211 285.569C148.757 297.089 124.248 297.835 110.127 288.433C84.1422 271.141 96.4249 221.609 97.5488 217.286L97.5601 217.296Z" fill="white"/>
<path d="M90.9047 248.983C90.4393 250.698 91.9037 252.306 92.6643 253.125C94.299 254.872 97.5569 257.182 109.999 258.14C113.2 258.385 117.491 258.588 122.588 258.417C122.588 258.417 133.452 257.64 159.765 244.48C170.822 237.601 189.768 225.825 191.8 206.404C192.776 197.076 189.496 189.293 187.032 184.736C184.104 177.421 176.1 173.769 169.641 175.696C164.919 177.102 161.4 181.371 160.571 186.514C161.014 189.219 161.366 193.627 160.004 198.748C158.936 201.655 157.574 204.69 155.849 207.788C146.926 223.77 132.895 232.831 123.78 237.527C122.213 236.558 119.886 235.205 116.912 233.885C108.25 230.031 96.5126 227.891 94.9574 230.691C94.6055 231.319 94.6168 232.458 96.4445 234.726C93.6179 235.259 91.5291 237.495 91.3475 240.135C91.1772 242.627 92.7551 244.991 95.2525 245.97C95.0255 246.013 91.5064 246.705 90.8934 248.983H90.9047Z" fill="#F36B21" stroke="#231F20" stroke-width="1.28069" stroke-miterlimit="10"/>
<path d="M67.3726 43.2075C67.3726 43.2075 67.4066 43.2075 67.418 43.2075" stroke="#231F20" stroke-width="0.640345" stroke-miterlimit="10"/>
<path d="M57.9498 127.101C59.3915 129.422 66.2139 139.856 79.4729 142.721C81.8455 143.232 88.4749 144.584 95.7742 142.06C98.3057 141.187 100.667 139.931 107.081 134.671C110.702 131.7 123.609 121.106 122.508 119.764C120.975 117.88 97.4656 141.113 74.4781 136.108C66.6453 134.405 61.0829 130.039 57.9498 127.101Z" fill="#E6E7E8"/>
<path d="M107.07 135.821C105.118 137.471 97.0466 143.903 85.2747 143.615C67.4864 143.168 58.3254 127.782 57.9508 127.111" stroke="#231F20" stroke-width="1.28069" stroke-miterlimit="10"/>
<path d="M60.0778 128.389C63.6763 130.295 67.1386 130.529 68.9549 130.518C69.5112 130.391 75.4823 128.9 77.7867 123.299C79.7846 118.455 77.5256 114.217 77.1623 113.567C74.8352 112.801 62.6319 108.989 54.2656 115.026C53.3348 115.697 52.3812 116.549 51.4731 117.613C51.8363 118.902 53.6753 124.992 60.0891 128.389H60.0778Z" fill="#532410" stroke="#231F20" stroke-width="1.28069" stroke-miterlimit="10"/>
<path opacity="0.6" d="M57.7554 119.664C57.5151 118.872 59.6666 117.604 62.5609 116.831C65.4553 116.058 67.9964 116.073 68.2368 116.865C68.4771 117.657 66.3255 118.925 63.4312 119.698C60.5368 120.471 57.9957 120.456 57.7554 119.664Z" fill="#C8591A"/>
<path d="M60.2119 40.6857C59.4173 39.9723 56.0685 37.0123 50.9601 34.0735C43.6041 29.8358 36.1914 27.6956 30.663 26.5776C32.8766 27.5572 35.953 28.9733 39.5629 30.8367C43.8652 33.0514 46.0221 34.1587 47.8838 35.5323C52.7651 39.1418 52.7083 41.2181 56.7155 43.8267C58.6113 45.0618 61.6422 46.5738 66.2852 47.1914C64.8775 45.3813 62.891 43.0814 60.2233 40.6857H60.2119Z" fill="#F58220"/>
<path d="M143.477 69.8702C139.027 66.2075 134.997 65.3556 132.953 65.1108C123.724 63.9821 112.758 69.8915 108.921 77.5791C107.798 79.8364 107.037 82.7432 103.847 85.1815" stroke="#231F20" stroke-width="1.28069" stroke-miterlimit="10"/>
<path d="M77.5039 88.0453C74.5524 86.938 72.248 86.0755 70.8517 85.5644C66.6969 84.0205 65.8228 83.7011 64.4039 83.552C63.1438 83.4243 60.0107 83.2645 56.8095 84.7872C51.6671 87.2467 50.1573 92.2405 49.8962 93.1455" stroke="#231F20" stroke-width="1.28069" stroke-miterlimit="10"/>
<path d="M78.0895 360.037C85.4341 368.193 88.2608 372.122 93.7664 373.123C94.7086 373.293 95.4805 373.336 95.6395 373.347C101.917 373.655 106.73 369.769 108.898 367.725C107.616 367.458 105.709 366.958 103.654 365.883C98.9088 363.402 97.5693 360.101 93.8345 355.097C89.816 349.709 86.4104 346.898 80.0534 341.638C75.558 337.922 72.7882 336.24 70.3702 337.017C68.1907 337.72 67.1917 340.115 67.1349 340.233C66.2608 342.405 67.0782 344.534 67.6798 345.855C70.3929 351.743 74.139 355.661 78.0781 360.037H78.0895Z" fill="#6A0C0D" stroke="#231F20" stroke-width="1.28069" stroke-miterlimit="10"/>
<path d="M156.216 193.777C156.205 208.035 163.584 226.423 173.414 226.849C182.292 227.232 192.077 212.932 192.508 199.889C193.087 182.459 177.047 165.263 167.545 167.18C159.429 168.82 156.216 184.397 156.205 193.777H156.216Z" fill="#F36B21"/>
<path d="M119.189 123.939C119.189 124.248 119.257 124.546 119.393 124.834C119.893 124.94 120.233 125.217 120.358 125.334C120.495 125.121 121.323 123.854 123.037 123.514C124.967 123.12 126.397 124.216 126.568 124.344C126.704 124.046 127.056 123.365 127.839 122.885C129.224 122.044 130.768 122.555 130.961 122.619C130.064 121.299 127.862 120.373 125.296 120.373C121.925 120.373 119.189 121.97 119.189 123.939Z" fill="#F1645A"/>
<path d="M131.312 131.733C129.859 130.295 128.406 128.847 126.941 127.41L123.422 134.107C122.083 132.467 120.732 130.827 119.392 129.188C118.325 130.721 117.258 132.254 116.191 133.777C115.079 132.925 113.966 132.073 112.854 131.221C114.205 129.475 115.567 127.729 116.918 125.983C117.224 125.312 117.917 124.875 118.677 124.875C119.688 124.875 120.232 125.685 120.267 125.738C120.38 125.536 121.141 124.226 122.866 123.821C124.614 123.406 125.965 124.269 126.169 124.396C126.374 124.066 126.873 123.364 127.827 122.884C129.246 122.182 130.631 122.522 130.949 122.618C131.414 123.236 132.765 125.195 132.595 127.91C132.481 129.72 131.732 131.062 131.289 131.733H131.312Z" stroke="#231F20" stroke-width="0.960517" stroke-miterlimit="10"/>
<path d="M78.4146 113.43C79.9471 113.217 84.1018 112.44 87.6209 109.118C87.8593 108.894 92.173 104.688 92.2525 98.6406C92.2865 96.3407 91.7076 93.2423 90.7994 93.1571C90.5724 93.1358 90.2318 93.2849 89.528 94.5413C88.1317 97.0115 87.9842 99.0665 87.7004 100.419C87.3031 102.399 86.3041 103.858 84.3175 106.786C83.0802 108.607 81.1958 111.002 78.4146 113.441V113.43Z" fill="white"/>
<path d="M130.821 129.742C130.64 129.731 130.753 128.613 130.356 126.537C130.095 125.131 129.731 124.003 129.459 123.257C129.993 123.705 130.799 124.546 131.196 125.781C131.832 127.772 131.06 129.752 130.821 129.742Z" fill="#A7A9AC"/>
<path d="M123.491 132.02C123.241 131.988 122.98 130.082 123.706 128.357C124.41 126.686 125.772 125.802 126.34 125.482C126.238 125.791 126.079 126.196 125.897 126.675C125.171 128.528 124.819 128.89 124.024 130.828C123.649 131.743 123.593 132.041 123.491 132.031V132.02Z" fill="#A7A9AC"/>
<path d="M127.132 128.879C127.268 129.028 128.37 130.274 128.018 131.967C127.62 133.862 125.77 134.597 125.634 134.65C127.291 134.192 128.46 133.628 129.198 133.212C129.471 133.053 129.641 132.946 129.743 132.755C130.368 131.583 127.654 129.315 127.132 128.879Z" fill="#A7A9AC"/>
<path d="M119.466 130.486C120.204 131.902 120.839 133.617 120.056 134.532C119.522 135.15 118.58 135.118 118.592 135.427C118.603 135.853 120.385 136.215 121.929 135.938C122.69 135.799 122.837 135.608 122.883 135.523C123.121 135.065 122.485 134.383 121.77 133.532C121.18 132.829 120.363 131.807 119.454 130.486H119.466Z" fill="#A7A9AC"/>
<path d="M125.854 135.065C126.83 134.766 131.268 133.372 132.563 129.528C133.845 125.716 131.586 120.797 128.056 119.807C125.286 119.029 122.516 120.839 120.393 122.234C117.465 124.151 116.602 125.886 113.56 129.262C112.084 130.901 109.757 133.286 106.499 135.916C110.574 135.139 113.934 135.022 116.329 135.075C121.154 135.182 122.834 136.012 125.865 135.075L125.854 135.065Z" stroke="#231F20" stroke-width="1.28069" stroke-miterlimit="10"/>
<path d="M160.276 232.555C145.916 245.278 130.704 252.466 131.317 253.466C131.828 254.297 142.488 249.548 150.956 245.002C170.061 234.748 176.566 226.326 178.541 223.6C181.322 219.756 182.764 216.658 183.286 215.401C185.341 210.535 187.146 204.072 186.658 198.802C181.515 208.523 173.353 220.959 160.265 232.555H160.276Z" fill="#DA5426"/>
<path d="M114.463 236.548C112.193 235.441 109.741 234.716 107.277 234.035C104.984 233.407 102.634 232.811 100.25 232.96C99.9098 233.141 99.853 233.29 99.853 233.396C99.853 234.461 107.13 233.78 113.804 237.165C117.448 239.018 119.787 241.52 120.003 241.243C120.434 240.679 118.243 238.997 117.88 238.699C116.835 237.858 115.678 237.144 114.452 236.548H114.463Z" fill="#DA5426"/>
<path d="M102.138 249.547C101.366 249.824 97.2112 251.272 92.8975 249.867C88.141 248.323 86.9945 244.554 86.8356 244C88.947 244.756 91.7623 245.555 95.2587 245.98C97.722 246.279 99.9697 246.321 101.877 246.257C102.66 246.342 103.273 246.736 103.477 247.301C103.739 248.067 103.205 249.036 102.138 249.547Z" fill="white" stroke="#231F20" stroke-width="1.28069" stroke-miterlimit="10"/>
<path d="M99.7644 242.265C99.1287 242.51 95.7345 243.788 91.9203 242.286C87.7087 240.636 86.3579 236.931 86.1762 236.388C88.0493 237.197 90.5354 238.059 93.555 238.57C95.6891 238.932 97.6076 239.05 99.2195 239.05C99.8893 239.156 100.457 239.55 100.684 240.114C100.979 240.87 100.616 241.797 99.7644 242.255V242.265Z" fill="white" stroke="#231F20" stroke-width="1.28069" stroke-miterlimit="10"/>
<path d="M99.9235 235.036C99.3899 235.249 96.5293 236.313 93.3167 235.057C89.7749 233.673 88.6397 230.553 88.4808 230.095C90.0587 230.777 92.1475 231.501 94.6903 231.937C96.4839 232.246 98.0958 232.342 99.4581 232.342C100.026 232.427 100.502 232.768 100.695 233.236C100.945 233.864 100.639 234.652 99.9235 235.036Z" fill="white" stroke="#231F20" stroke-width="1.28069" stroke-miterlimit="10"/>
<path d="M61.5534 248.388C60.1741 248.388 59.056 247.339 59.056 246.045C59.056 244.751 60.1741 243.703 61.5534 243.703C62.9327 243.703 64.0508 244.751 64.0508 246.045C64.0508 247.339 62.9327 248.388 61.5534 248.388Z" fill="#6A0C0D" stroke="#231F20" stroke-width="1.28069" stroke-miterlimit="10"/>
<path d="M87.2891 45.9553C79.8877 48.9154 74.5523 53.6429 74.8588 54.0794C75.1199 54.4628 79.7061 51.5453 88.3108 47.9464C93.9867 45.572 98.8112 43.9962 102.035 43.0166C98.3799 43.1018 93.0672 43.6555 87.3004 45.9553H87.2891Z" fill="#F58220"/>
<path d="M179.178 66.1015C169.79 62.8008 149.413 56.8807 126.982 60.6606C119.558 61.917 110.681 63.4077 102.156 69.6259C94.0503 75.5353 95.2309 79.1768 89.4982 81.2424C76.9998 85.7676 64.7171 70.8504 53.7057 75.9186C50.2094 77.5264 48.2455 80.4971 47.1557 82.6372C51.9349 88.6744 50.97 96.3194 43.6026 105.764C47.6098 107.404 53.9101 109.469 61.9245 110.012C70.0865 110.566 76.7614 109.331 81.007 108.223C82.4941 106.871 84.5034 104.774 86.1267 101.824C88.9646 96.6708 88.1133 93.5191 89.9182 92.3904C91.9502 91.1127 97.0017 92.614 109.932 104.071C133.021 102.101 159.936 94.5625 187.703 85.8102L175.909 71.3295L179.167 66.1015H179.178Z" fill="#231F20" stroke="#231F20" stroke-width="1.28069" stroke-miterlimit="10"/>
<path d="M107.167 94.1677C107.961 95.8074 109.312 96.7018 110.164 97.2448C114.977 100.333 121.913 99.7683 126.397 97.9369C127.475 97.4897 128.508 96.9467 129.462 96.2972C133.866 93.3585 137.067 88.5564 138.623 83.7969C139.519 81.0073 139.871 78.2495 139.588 75.8964C139.349 73.9266 138.668 72.2336 137.487 71.0518C134.366 67.9533 128.304 68.9755 126.397 69.2949C117.883 70.7323 113.535 77.5361 110.232 82.7002C108.052 86.1075 105.362 90.441 107.155 94.157L107.167 94.1677Z" fill="white" stroke="#231F20" stroke-width="1.28069" stroke-miterlimit="10"/>
<path d="M73.2076 108.234C69.8588 108.341 63.1726 108.585 58.4729 104.199C54.7495 100.717 51.832 94.2112 54.8062 90.4526C57.7009 86.7791 64.7959 87.5351 65.9538 87.6735C67.7928 87.8971 69.0755 88.3656 70.1653 88.9406C72.6513 90.2396 74.1838 92.0816 79.1446 92.976C80.0868 93.1464 80.1776 93.0399 80.4387 93.1677C82.9815 94.4028 82.4139 104.976 76.8175 107.616C76.4769 107.776 75.6028 108.149 73.2076 108.234Z" fill="white" stroke="#231F20" stroke-width="1.28069" stroke-miterlimit="10"/>
<path d="M121.33 93.6461C123.725 95.5627 126.62 96.3612 129.469 96.2973C133.874 93.3586 137.075 88.5565 138.63 83.7971C139.527 81.0074 139.879 78.2497 139.595 75.8966C139.539 75.6836 139.493 75.492 139.448 75.279C138.335 74.4378 136.905 73.5967 135.134 73.0324C134.498 72.8301 128.607 70.9987 123.147 74.0865C122.443 74.4804 121.149 75.311 119.934 76.6525C115.325 81.7208 115.949 89.3551 121.342 93.6354L121.33 93.6461Z" fill="#3C2415" stroke="#231F20" stroke-width="1.28069" stroke-miterlimit="10"/>
<path d="M63.742 100.493C63.9804 101.472 64.6047 102.707 64.6728 102.825C65.3199 104.092 66.0578 105.54 67.6584 106.668C69.486 107.957 71.5294 108.265 73.2208 108.233C75.0257 108.202 76.4561 107.754 76.8307 107.627H76.8874C77.8637 106.583 79.4757 104.656 80.3384 101.834C81.0876 99.364 81.3374 95.9888 80.4519 93.1778C80.0319 93.1246 79.6005 93.0607 79.1578 92.9861C76.9783 92.6028 75.4571 91.9427 75.0825 91.7936C73.7884 91.2932 71.552 91.0483 67.3632 92.1663C66.7275 92.8051 62.8565 96.766 63.7647 100.503L63.742 100.493Z" fill="#3C2415" stroke="#231F20" stroke-width="1.28069" stroke-miterlimit="10"/>
<path d="M117.655 85.2776C115.479 85.2776 113.716 83.6234 113.716 81.5829C113.716 79.5424 115.479 77.8882 117.655 77.8882C119.83 77.8882 121.594 79.5424 121.594 81.5829C121.594 83.6234 119.83 85.2776 117.655 85.2776Z" fill="white"/>
<path d="M62.2692 96.7447C61.8417 95.3365 62.688 93.8764 64.1593 93.4835C65.6306 93.0907 67.1698 93.9138 67.5972 95.3221C68.0246 96.7304 67.1784 98.1905 65.7071 98.5834C64.2358 98.9762 62.6966 98.153 62.2692 96.7447Z" fill="white"/>
<path d="M138.773 35.127C138.229 40.0674 137.911 45.0186 137.809 49.9803" stroke="#C8591A" stroke-width="0.640345" stroke-miterlimit="10"/>
<path d="M135.223 34.8071C134.417 39.4814 133.985 44.2196 133.94 48.9578" stroke="#C8591A" stroke-width="0.640345" stroke-miterlimit="10"/>
<path d="M141.191 42.2711C137.809 41.0467 134.471 39.6305 131.213 38.0015" stroke="#C8591A" stroke-width="0.640345" stroke-miterlimit="10"/>
<path d="M140.059 45.4656C137.345 43.8578 134.451 42.5162 131.431 41.4834" stroke="#C8591A" stroke-width="0.640345" stroke-miterlimit="10"/>
<path d="M186.531 94.4639C183.078 94.3882 179.631 94.4715 176.187 94.7061" stroke="#C8591A" stroke-width="0.640345" stroke-miterlimit="10"/>
<path d="M186.562 91.9653C183.28 91.691 179.974 91.6821 176.688 91.9424" stroke="#C8591A" stroke-width="0.640345" stroke-miterlimit="10"/>
<path d="M181.713 96.5918C182.379 94.1558 183.181 91.7398 184.134 89.366" stroke="#C8591A" stroke-width="0.640345" stroke-miterlimit="10"/>
<path d="M179.436 95.9969C180.404 94.0047 181.177 91.9021 181.73 89.7315" stroke="#C8591A" stroke-width="0.640345" stroke-miterlimit="10"/>
</svg>
