<svg width="332" height="397" viewBox="0 0 332 397" fill="none" xmlns="http://www.w3.org/2000/svg">
<path d="M231.561 346.55C230.132 351.856 227.818 356.803 225.526 361.717C228.615 361.587 231.703 361.457 234.792 361.326C239.026 361.152 241.176 361.185 242.594 361.478C243.435 361.652 252.864 363.718 253.846 370.079C253.988 370.981 254.162 373.275 252.253 376.374C252.22 376.983 252.034 379.853 249.874 382.104C247.484 384.594 244.548 384.409 244.068 384.366C242.212 386.094 239.473 388.171 235.806 389.432C225.428 393.01 216.272 387.16 214.406 385.899C214.406 385.899 210.041 384.703 205.348 381.354C204.529 380.767 203.351 379.701 202.467 377.94C201.779 376.57 201.528 374.841 202.15 373.428C202.5 372.634 203.078 372.003 203.591 371.318C206.21 367.828 206.898 363.098 207.487 358.608C208.054 354.302 208.622 349.877 207.771 345.637C207.17 342.657 205.872 339.591 206.723 336.688C207.52 333.97 209.964 332.306 212.332 331.187C216.479 329.219 220.954 328.186 225.439 327.642C235.348 326.435 233.427 339.7 231.583 346.539L231.561 346.55Z" fill="#FF6D00" stroke="#8D0F3A" stroke-width="1.28069" stroke-miterlimit="10"/>
<path d="M204.453 316.856C207.716 321.879 206.832 327.772 205.403 337.232C203.253 351.54 198.102 362.402 194.348 368.991C196.825 368.437 200.568 367.958 204.944 368.806C207.88 369.372 212.922 370.35 216.479 374.689C216.479 374.689 219.459 378.32 219.732 383.952C219.764 384.637 219.852 385.496 219.382 386.333C218.531 387.834 216.599 388.16 216.021 388.236C215.508 389.095 214.395 390.65 212.398 391.65C208.098 393.792 203.678 391.357 203.264 391.118C203.154 391.846 202.882 392.857 202.14 393.738C199.062 397.337 191.019 394.88 186.905 393.618C181.383 391.922 176.865 390.53 174.278 386.105C172.292 382.702 172.205 379.081 172.412 377.907C172.914 375.037 174.136 372.351 174.813 369.524C176.003 364.599 175.533 359.369 174.104 354.509C172.499 349.051 170.688 346.158 167.676 340.765C160.233 327.435 156.512 320.77 158.029 316.726C161.881 306.494 195.461 303.058 204.453 316.889V316.856Z" fill="#FF6D00" stroke="#8D0F3A" stroke-width="1.28069" stroke-miterlimit="10"/>
<path d="M242.052 168.654C242.566 159.884 221.199 151.508 194.327 149.945C167.456 148.383 145.255 154.226 144.742 162.996C144.228 171.766 165.595 180.143 192.467 181.705C219.338 183.267 241.539 177.424 242.052 168.654Z" fill="#FF6D00" stroke="#8D0F3A" stroke-width="0.640345" stroke-miterlimit="10"/>
<path d="M139.989 280.214C138.669 280.671 137.294 281.106 135.886 281.552C119.451 286.749 97.5809 291.663 75.8746 290.206C70.8655 289.869 65.1907 288.847 58.9047 285.749C47.2494 279.986 39.2719 267.515 38.9336 254.554C38.8681 251.651 39.141 248.748 39.3592 245.845C39.512 243.91 39.643 241.974 39.6211 240.028C39.6211 239.822 39.6211 239.626 39.6102 239.419C39.5884 238.571 39.5338 237.701 39.4247 236.853C38.9882 233.037 37.7113 229.308 35.0485 226.6C34.4046 225.948 33.6844 225.361 32.9423 224.861C28.8171 222.034 23.3715 221.229 18.6351 219.272C6.69615 214.336 -0.844842 200.614 1.39235 187.947C1.39235 192.014 3.89147 195.765 7.11085 198.255C10.3521 200.756 14.2262 202.202 18.0567 203.615C13.5169 201.147 10.1993 196.548 9.33713 191.47C11.9345 194.014 15.8195 194.917 19.4645 194.667C23.1095 194.406 26.6017 193.155 30.0285 191.905C29.2646 191.177 27.6494 189.828 25.1721 189.111C22.8367 188.437 20.8505 188.643 19.8247 188.817C26.0452 184.522 31.7091 182.109 35.5942 180.739C35.5942 180.739 53.3826 174.454 72.6225 178.749C75.5036 179.39 80.4254 180.554 85.631 184.153C86.3949 184.686 87.137 185.24 87.8136 185.816C98.4649 194.699 100.309 209.28 100.909 213.662C102.535 225.35 99.5344 230.667 99.9272 239.126C100.036 241.474 99.7635 244.595 101.433 247.878C104.347 253.587 110.469 255.75 112.914 256.62C125.879 261.198 138.887 253.445 141.31 251.945C140.862 261.361 140.415 270.788 139.957 280.203L139.989 280.214Z" fill="#FF6D00" stroke="#8D0F3A" stroke-width="0.640345" stroke-miterlimit="10"/>
<path d="M32.9414 224.861C33.6944 225.361 34.4038 225.948 35.0476 226.6C37.7105 229.308 38.9873 233.037 39.4238 236.854" stroke="#8D0F3A" stroke-width="0.640345" stroke-miterlimit="10"/>
<path d="M142.881 272.778C141.8 275.703 140.72 278.627 139.64 281.552C123.204 286.749 101.334 291.664 79.6282 290.207C76.5398 290 73.2113 289.533 69.6318 288.478C66.5433 287.641 64.2079 286.565 62.6583 285.738C48.0892 278.029 43.8767 261.818 40.1444 247.509C38.5402 241.366 39.1404 240.257 39.6206 240.018C40.2426 239.714 41.2794 240.551 42.0215 241.247C42.3161 243.062 44.0186 252.456 52.8037 258.708C60.181 263.96 67.9184 263.688 70.1556 263.536C69.1734 264.547 67.6128 265.917 65.3756 266.841C62.2981 268.124 59.6244 268.026 57.9765 267.939C53.9168 267.711 50.8066 266.232 49.0277 265.178C52.8692 267.396 63.2367 272.658 76.4416 270.81C82.1164 270.016 86.6672 268.135 89.8647 266.45C88.2714 268.255 86.1434 270.331 83.3605 272.289C78.4932 275.724 73.746 277.334 70.5048 278.127C80.5995 280.65 96.5436 283.237 115.62 280.4C126.62 278.758 135.82 275.735 142.881 272.778Z" fill="#D05B04"/>
<path d="M136.245 277.703C136.191 278.888 136.093 280.182 135.896 281.541C119.461 286.738 97.591 291.653 75.8847 290.196C70.8756 289.859 65.2008 288.837 58.9148 285.738C50.7954 281.726 40.8426 269.798 38.9437 254.544C38.5399 251.304 38.2889 246.237 39.6312 240.018C39.6312 241.866 39.8495 251.358 47.5214 259.002C54.6586 266.112 63.3455 266.754 65.3863 266.841C62.8108 267.656 59.4277 268.439 55.3898 268.646C52.6397 268.787 50.1843 268.635 48.1326 268.374C59.4604 272.669 72.1852 276.964 83.3712 272.277C80.2937 275.811 76.6159 278.801 72.5344 281.106C79.1478 282.759 87.4636 284.172 97.0781 284.335C113.775 284.607 127.34 280.943 136.245 277.692V277.703Z" fill="#D54A0E"/>
<path d="M259.313 153.763C245.061 163.875 240.543 178.379 239.288 183.087C233.602 171.475 227.927 159.874 222.241 148.262C225.504 143.586 228.986 137.943 232.227 131.333C236.188 123.221 238.796 115.687 240.553 109.304C256.487 114.784 272.354 132.648 280.005 145.185C275.148 146.044 267.258 148.131 259.313 153.763Z" fill="#5A5E3C" stroke="#8D0F3A" stroke-width="0.640345" stroke-miterlimit="10"/>
<path d="M149.069 130.321C151.164 144.304 158.509 153.589 161.837 157.319C150.4 158.504 138.963 159.689 127.537 160.885C124.809 155.883 121.306 150.251 116.82 144.402C111.32 137.247 105.733 131.539 100.789 127.114C112.848 115.371 135.984 109.239 150.662 108.054C149.32 112.631 147.639 120.601 149.091 130.321H149.069Z" fill="#5A5E3C" stroke="#8D0F3A" stroke-width="1.28069" stroke-miterlimit="10"/>
<path d="M269.899 84.9925C269.539 93.9408 228.92 98.9424 192.929 103.378C157.003 107.804 119.865 112.37 117.377 104.183C114.769 95.6044 149.898 71.8799 189.076 66.6718C229.226 61.3332 270.27 75.9028 269.899 84.9925Z" fill="#834612" stroke="#8D0F3A" stroke-width="1.28069" stroke-miterlimit="10"/>
<path d="M239.746 201.353C250.473 202.212 258.495 191.905 271.132 175.661C281.303 162.581 287.676 150.566 291.409 142.607C296.003 136.703 301.023 129.223 305.563 120.122C312.417 106.39 315.8 93.7122 317.557 84.0571C318.168 84.3181 322.075 85.8838 325.818 83.894C328.775 82.3284 331.94 78.3706 330.423 74.7935C329.288 72.1296 325.894 70.4552 322.249 71.0532C323.046 67.3782 321.038 63.7358 317.753 62.518C314.916 61.4743 311.576 62.4202 309.557 64.8992C307.276 61.4416 303.348 60.0499 300.543 61.2242C296.505 62.8986 296.767 69.0309 296.811 69.9116C296.942 72.8799 298.219 75.087 298.95 76.1526C294.453 81.3281 288.593 88.9173 283.235 98.9203C275.934 112.555 275.399 118.296 267.629 131.224C260.786 142.618 253.769 150.284 252.045 152.045C234.606 169.789 220.593 168.985 219.044 178.662C217.559 187.991 228.713 200.473 239.746 201.353Z" fill="#FF6D00" stroke="#8D0F3A" stroke-width="1.28069" stroke-miterlimit="10"/>
<path d="M321.332 91.0705C317.796 100.356 312.831 111.142 305.781 122.526C301.001 130.235 296.09 136.91 291.408 142.608C288.265 151.741 282.514 164.941 271.874 178.543C264.638 187.784 257.065 194.754 250.539 199.864C248.411 201.506 246.424 202.963 244.569 204.235C240.531 196.276 236.483 186.306 233.722 174.487C232.652 169.877 231.888 165.484 231.364 161.374C238.676 155.971 244.002 152.056 247.068 149.816C253.965 144.771 257.621 141.749 262.598 136.997C263.209 136.421 265.577 133.866 267.607 131.235C275.857 120.612 276.348 110.881 280.615 99.497C282.7 93.9518 286.367 86.1451 293.286 77.4795C301.776 81.6112 310.277 85.7211 318.757 89.8419C319.608 90.2551 320.448 90.6682 321.31 91.0814L321.332 91.0705Z" fill="#CAD678" stroke="#8D0F3A" stroke-width="0.640345" stroke-miterlimit="10"/>
<path d="M248.847 200.256C255.494 195.515 263.886 188.491 271.885 178.532C282.744 165.017 288.408 151.687 291.42 142.597C296.09 136.9 301.012 130.235 305.792 122.515C312.831 111.131 317.808 100.345 321.343 91.0599C319.117 89.9727 316.902 88.8962 314.676 87.8198C312.733 95.3547 309.546 104.868 304.144 115.187C298.491 125.973 292.129 134.29 286.836 140.281C286.76 140.423 286.629 140.673 286.432 141.021C277.287 157.884 272.704 166.3 269.124 170.66C259.029 182.925 248.116 192.199 248.116 192.199C248.116 192.199 248.225 198.331 248.858 200.256H248.847Z" fill="#8E9751"/>
<path d="M321.333 91.1464C317.797 100.486 312.832 111.326 305.782 122.786C301.002 130.539 296.091 137.247 291.409 142.988C288.266 152.176 282.515 165.451 271.875 179.129C264.639 188.426 257.066 195.439 250.539 200.571C248.411 202.223 246.425 203.68 244.57 204.963C236.963 194.515 224.315 174.672 230.961 164.081C233.428 160.145 239.845 155.579 247.069 150.219C255.221 144.173 258.386 141.368 262.598 137.323C263.21 136.736 265.578 134.17 267.608 131.528C275.858 120.84 276.349 111.055 280.616 99.6055C282.701 94.0277 286.367 86.1775 293.286 77.4575C301.777 81.6109 310.278 85.7426 318.758 89.8961C319.609 90.3092 320.449 90.7224 321.311 91.1464H321.333Z" stroke="#8D0F3A" stroke-width="1.28069" stroke-miterlimit="10"/>
<path d="M257.098 71.0537C256.847 71.4886 256.585 71.9127 256.312 72.3367L131.531 102.476C131.203 100.584 130.603 98.1488 129.446 95.485C128.377 93.0277 127.144 91.0597 126.063 89.5919C122.255 85.0144 111.702 71.1081 110.381 50.254C109.126 30.5524 116.831 16.1024 119.941 10.8943C125.19 13.482 131.312 17.0918 137.566 22.1151C149.417 31.6179 156.718 42.1211 161.007 49.6125C166.606 47.3727 177.028 40.3379 187.734 39.7182C197.774 39.1419 214.995 39.1093 220.658 40.5554C225.602 22.7348 239.571 7.66505 256.988 1.31531C257.272 1.20658 257.556 1.09786 257.851 1C270.182 22.202 269.833 50.0909 257.098 71.0537Z" fill="#FF6D00" stroke="#8D0F3A" stroke-width="1.28069" stroke-miterlimit="10"/>
<path d="M256.279 71.0639C256.06 70.803 255.766 70.4224 255.406 69.9657C253.769 67.8347 253.638 67.3671 253.681 67.0736C253.791 66.3233 254.358 65.7253 254.838 65.1273C255.449 64.3662 256.355 62.6375 258.003 59.0277C258.942 56.9727 261.801 49.3726 261.954 37.967C262.052 30.4756 260.95 24.3433 259.76 17.7652C259.52 16.417 258.45 12.0461 257.73 6.03345C257.545 4.46776 257.425 3.1739 257.348 2.31494C260.349 7.82747 266.101 20.1573 265.85 36.7927C265.599 53.4716 259.444 65.6492 256.279 71.0639Z" fill="#D54A0E"/>
<path d="M263.81 110.239C264.661 105.966 266.614 100.41 271.329 96.2785C271.733 95.9197 272.147 95.5935 272.562 95.2782C270.237 95.0607 266.833 94.4519 263.231 92.6252C256.269 89.0915 253.868 83.6334 247.418 73.8261C241.765 65.2257 237.847 58.8324 231.965 53.7439C224.326 47.155 216.676 43.7735 211.754 42.0448C206.625 40.8596 198.232 39.631 188.181 41.425C181.546 42.6101 176.199 44.763 172.346 46.6766C166.704 49.634 158.869 54.5485 151.262 62.4748C146.46 67.4763 138.494 76.0333 134.041 89.6134C132.503 94.2996 132.099 99.1163 131.04 103.889C129.698 109.946 125.769 116.23 120.902 120.123C123.248 119.981 125.442 119.003 127.581 118.035C122.866 123.352 119.832 130.104 119.003 137.15C121.022 133.366 124.405 130.343 128.377 128.701C128.497 135.584 125.191 142.445 119.734 146.674C122.495 145.663 125.278 144.641 128.061 143.608C133.987 141.401 139.858 139.183 145.653 136.932" fill="#FF6D00"/>
<path d="M263.81 110.239C264.661 105.966 266.614 100.41 271.329 96.2785C271.733 95.9197 272.147 95.5935 272.562 95.2782C270.237 95.0607 266.833 94.4519 263.231 92.6252C256.269 89.0915 253.868 83.6334 247.418 73.8261C241.765 65.2257 237.847 58.8324 231.965 53.7439C224.326 47.155 216.676 43.7735 211.754 42.0448C206.625 40.8596 198.232 39.631 188.181 41.425C181.546 42.6101 176.199 44.763 172.346 46.6766C166.704 49.634 158.869 54.5485 151.262 62.4748C146.46 67.4763 138.494 76.0333 134.041 89.6134C132.503 94.2996 132.099 99.1163 131.04 103.889C129.698 109.946 125.769 116.23 120.902 120.123C123.248 119.981 125.442 119.003 127.581 118.035C122.866 123.352 119.832 130.104 119.003 137.15C121.022 133.366 124.405 130.343 128.377 128.701C128.497 135.584 125.191 142.445 119.734 146.674C122.495 145.663 125.278 144.641 128.061 143.608C133.987 141.401 139.858 139.183 145.653 136.932" stroke="#8D0F3A" stroke-width="1.28069" stroke-miterlimit="10"/>
<path d="M132.066 79.8604C123.936 76.479 122.626 63.4207 121.938 54.5159C121.229 45.2848 122.877 36.0212 125.529 27.1489C129.763 31.8025 134.249 36.2169 138.526 40.8161C138.526 40.827 138.537 40.8161 138.537 40.8161C139.847 42.2622 141.157 43.73 142.466 45.2196C148.468 52.0477 154.034 58.865 159.185 65.6062C151.011 77.2836 139.476 82.9375 132.066 79.8604Z" fill="#F6927F" stroke="#8D0F3A" stroke-width="1.28069" stroke-miterlimit="10"/>
<path d="M232.423 49.4707C234.366 41.0769 238.425 33.1723 244.155 26.7356C245.115 25.6483 246.13 24.6045 247.178 23.6151C250.724 20.2663 254.73 17.4611 258.691 14.645C260.121 18.6788 261.779 24.735 262.052 32.2264C262.085 33.1071 262.216 37.2931 261.507 42.5339C259.859 54.7549 254.664 65.1276 250.746 71.6296L232.412 49.4707" fill="#F6927F"/>
<path d="M232.423 49.4707C234.366 41.0769 238.425 33.1723 244.155 26.7356C245.115 25.6483 246.13 24.6045 247.178 23.6151C250.724 20.2663 254.73 17.4611 258.691 14.645C260.121 18.6788 261.779 24.735 262.052 32.2264C262.085 33.1071 262.216 37.2931 261.507 42.5339C259.859 54.7549 254.664 65.1276 250.746 71.6296L232.412 49.4707" stroke="#8D0F3A" stroke-width="1.28069" stroke-miterlimit="10"/>
<path d="M246.97 24.7674C248.105 24.9414 250.244 25.1154 252.721 24.3325C255.69 23.3975 257.534 21.6252 258.331 20.7554C258.451 21.9188 258.527 24.2021 257.436 26.7137C256.803 28.1598 255.985 29.2144 255.341 29.9212C256.039 29.7581 256.738 29.595 257.436 29.4319C258.364 29.2144 259.28 29.0079 260.197 28.8121C259.04 30.6279 257.567 32.6394 255.712 34.6944C254.62 35.9012 253.54 36.9668 252.492 37.9018C253.223 38.2606 254.686 38.8478 256.607 38.7934C258.189 38.7499 259.411 38.3041 260.121 37.978C259.378 40.0547 258.134 42.8164 256.006 45.6542C254.664 47.4482 253.278 48.8508 252.045 49.9381C252.842 49.9055 253.693 49.8402 254.599 49.7206C255.832 49.5575 256.956 49.3292 257.949 49.0791C256.923 50.7427 255.21 53.0695 252.492 55.1897C248.345 58.4298 244.1 59.4409 241.874 59.8106C239.102 57.8318 237.661 55.7224 236.865 54.0698C232.958 46.0673 236.985 34.3355 246.959 24.7892L246.97 24.7674Z" fill="#DD7162"/>
<path d="M244.155 26.736C245.28 27.1275 247.178 27.6167 249.547 27.4428C252.668 27.2144 254.916 25.9423 255.974 25.2573C254.949 27.8994 253.028 30.1827 250.583 31.6288C251.184 31.8245 251.991 32.0094 252.962 32.0311C254.534 32.0855 255.789 31.694 256.542 31.3896C255.396 32.6617 254.021 34.0426 252.395 35.4234C250.496 37.0435 248.652 38.3482 247.004 39.3703C247.953 39.9139 249.536 40.6641 251.642 40.9577C253.432 41.2078 254.938 41.0447 255.942 40.849C254.228 45.7744 250.343 49.9061 245.52 51.9175C246.633 51.9501 247.822 51.9393 249.077 51.8849C250.878 51.7979 252.537 51.6131 254.043 51.3848C252.679 52.646 250.954 54.0377 248.815 55.3642C245.64 57.3322 242.639 58.463 240.303 59.1371C236.647 58.5717 234.923 57.1256 234.05 56.0275C229.816 50.7324 233.428 38.7396 244.145 26.7469L244.155 26.736Z" fill="#FCFFEB"/>
<path d="M154.241 59.5937C148.621 53.0809 143.001 46.568 137.381 40.0552C135.471 38.6526 133.485 37.0869 131.444 35.3146C129.905 33.9773 128.475 32.6508 127.155 31.3569C127.122 32.9226 127.242 35.0972 127.919 37.5762C128.552 39.9139 129.458 41.7514 130.232 43.0561C129.512 42.5342 128.53 41.6861 127.657 40.4031C126.369 38.5113 125.998 36.652 125.878 35.63C125.365 36.9347 123.772 41.4795 125.551 46.8072C126.937 50.9607 129.632 53.4071 130.833 54.3639C130.003 54.5052 128.977 54.6139 127.81 54.5704C125.976 54.4943 124.481 54.0812 123.434 53.7006C123.925 55.0271 124.918 57.1908 126.948 59.2023C128.148 60.3983 129.37 61.192 130.331 61.7139C129.992 61.9531 129.545 62.2249 128.977 62.4315C127.766 62.8882 126.675 62.8229 126.064 62.736C126.304 63.4644 126.784 64.6387 127.821 65.7695C128.454 66.4545 129.098 66.9329 129.61 67.2482C129.305 67.3678 128.956 67.4874 128.563 67.5635C127.504 67.8027 126.566 67.7483 125.911 67.6396C127.133 68.977 129.796 71.5212 134.03 73.0108C137.828 74.3482 141.124 74.2177 142.903 74.022L154.263 59.5828L154.241 59.5937Z" fill="#DD7162"/>
<path d="M154.57 59.4307L138.538 40.8273H138.527C135.155 39.6965 132.023 37.8807 129.317 35.5757C130.059 39.0224 131.499 42.3168 133.518 45.209C130.921 44.9916 127.887 44.4697 126.752 42.1429C126.752 47.775 131.303 52.3199 135.919 55.56C132.972 56.3102 129.895 56.5277 126.883 56.1906C129.524 59.2785 133.605 61.0725 137.676 60.9312C134.97 62.3446 132.078 63.3993 129.087 64.0517C131.27 66.0088 134.151 67.1504 137.087 67.2591C134.544 67.7158 131.979 68.1942 129.426 68.6617C133.9 71.6083 139.378 72.9783 144.704 72.6086L154.58 59.4416L154.57 59.4307Z" fill="#FCFFEB"/>
<path d="M251.565 274.702C251.62 288.053 247.32 301.677 238.196 311.452C227.884 322.477 214.253 327.119 199.804 329.762C198.571 326.619 196.235 321.64 191.739 316.943C187.167 312.169 182.496 309.886 181.022 309.114C181.557 308.994 182.059 308.831 182.528 308.614C185.54 307.179 186.839 304.33 186.37 301.731C185.901 299.144 183.947 296.784 181.634 294.74C180.215 293.49 178.6 292.294 177.661 290.815C177.661 290.815 176.526 288.88 176.352 286.238C175.915 279.366 182.496 244.921 182.823 228.372C183.303 203.691 170.317 193.873 177.334 167.995C177.989 165.56 178.665 163.603 179.113 162.374C181.688 161.798 184.264 161.167 186.916 160.798C190.037 160.363 193.202 160.341 196.355 160.33C198.942 160.319 201.561 160.308 204.071 160.874C209.331 162.048 209.833 163.298 214.046 164.331C217.079 165.082 220.681 165.19 224.173 164.462C226.028 163.907 227.261 164.147 228.047 164.484C231.921 166.136 233.46 173.693 231.321 183.304C228.484 183.402 225.614 182.663 223.202 181.173C226.476 187.741 231.114 193.634 236.712 198.385C234.508 198.809 232.205 198.646 230.099 197.918C232.511 199.907 235.25 202.539 237.902 205.909C242.442 211.715 244.93 217.423 246.316 221.555C246.01 221.077 244.024 218.174 240.335 217.684C238.175 217.402 236.483 218.076 235.719 218.435C243.566 224.523 248.782 233.874 249.83 243.725C247.178 240.626 244.1 237.886 240.706 235.614C248.28 246.541 251.532 261.415 251.576 274.691L251.565 274.702Z" fill="#E0E5FF" stroke="#8D0F3A" stroke-width="1.28069" stroke-miterlimit="10"/>
<path d="M206.144 96.3981C206.09 97.2244 206.002 98.4748 205.446 99.8556C203.056 105.814 194.369 108.413 187.897 108.315C184.471 108.26 178.785 108.184 175.718 104.303C170.84 98.1377 174.463 84.0465 184.263 80.3389C190.757 77.8816 198.56 80.5129 202.63 85.5905C203.35 86.4929 206.559 90.7224 206.155 96.3981H206.144Z" fill="#FCFFEB" stroke="#8D0F3A" stroke-width="1.28069" stroke-miterlimit="10"/>
<path d="M247.691 97.7465C244.657 101.15 239.964 100.987 239.637 100.976C234.006 100.693 230.972 95.7459 230.361 94.7347C227.283 89.7223 227.141 82.0352 231.288 78.5668C233.024 77.1207 235.01 76.8271 235.85 76.7075C241.481 75.9464 245.65 80.3608 246.174 80.948C250.135 85.2753 251.762 93.1908 247.691 97.7574V97.7465Z" fill="#FCFFEB" stroke="#8D0F3A" stroke-width="1.28069" stroke-miterlimit="10"/>
<path d="M248.978 110.805C248.815 111.283 235.37 103.227 219.48 106.108C208.611 108.087 200.327 114.502 194.478 120.601C194.478 120.601 188.072 117.013 177.137 116.546C168.723 116.198 160.32 118.362 160.374 118.949C160.396 119.079 160.756 119.057 161.869 119.351C163.703 119.819 164.991 120.482 165.896 120.949C166.267 121.134 170.916 123.537 170.622 124.418C170.284 125.407 164.227 122.798 155.976 123.32C148.294 123.809 142.346 126.777 142.455 127.223C142.52 127.506 144.845 126.799 148.501 127.277C149.014 127.343 154.121 128.028 154.208 129.267C154.285 130.594 148.479 131.007 142.226 134.432C140.13 135.584 137.981 137.074 135.994 139.063C135.994 139.063 135.994 139.096 135.951 139.107C135.634 139.422 132.589 142.499 130.221 146.142C129.883 146.664 129.545 147.207 129.25 147.751C128.573 147.664 127.919 147.523 127.275 147.294C126.838 147.142 126.358 146.914 126.205 146.479C126.085 146.12 126.205 145.729 126.314 145.381C126.838 143.804 127.504 142.478 128.268 141.01C128.955 139.694 131.76 136.639 138.537 132.725C140.109 131.811 141.429 131.137 142.237 130.746C140.163 130.18 138.101 129.615 136.027 129.05C138.81 125.266 141.767 123.581 143.546 122.798C145.292 122.037 146.951 121.667 149.603 121.08C152.386 120.46 154.754 120.134 156.457 119.938C156.293 119.612 155.987 119.123 155.453 118.677C154.579 117.948 153.63 117.785 153.226 117.753C154.099 117.394 155.005 117.046 155.922 116.72C169.312 112.001 182.692 113.262 193.703 116.23C197.806 112.197 206.406 105.021 218.792 103.357C235.533 101.117 249.153 110.305 248.978 110.794V110.805Z" fill="#D54A0E"/>
<path d="M198.364 94.4736C198.08 101.128 191.936 105.52 186.163 105.64C181.328 105.738 176.745 102.835 174.409 98.2248C174.137 96.8983 173.645 93.6473 175.206 90.1028C175.457 89.5265 177.803 84.3836 183.369 82.7745C184.078 82.5679 185.454 82.2526 187.167 82.3178C193.617 82.5896 198.648 88.0369 198.375 94.4736H198.364Z" fill="#3F0015" stroke="#8D0F3A" stroke-width="1.28069" stroke-miterlimit="10"/>
<path d="M245.41 90.9186C245.41 91.6253 245.367 94.0065 243.675 96.1702C240.805 99.8561 235.785 99.5408 235.25 99.5082C234.028 98.7579 231.965 97.2792 230.35 94.735C228.058 91.1143 226.301 84.732 229.488 81.2961C231.06 79.6 233.209 79.2955 233.69 79.2412C239.299 78.5997 245.421 84.9494 245.399 90.9077L245.41 90.9186Z" fill="#3F0015" stroke="#8D0F3A" stroke-width="1.28069" stroke-miterlimit="10"/>
<path d="M266.843 80.4801C255.002 74.8045 234.267 66.8891 207.716 67.0087C160.92 67.2153 128.726 92.2445 118.959 100.486C122.32 90.4505 126.838 83.6659 130.309 79.3711C135.547 72.88 141.276 65.8018 147.606 62.1159C148.501 61.6049 151.098 60.1588 153.074 57.1905C153.434 56.636 153.75 56.0815 154.001 55.5378C154.972 53.5046 155.256 51.6562 155.387 50.6668C155.453 50.2428 155.507 49.8296 155.551 49.4273C155.627 48.8293 155.693 48.2639 155.758 47.7094C157.155 35.6405 155.769 30.3129 159.381 24.7786C159.6 24.4306 161.891 21.0274 165.307 19.3204C166.464 18.755 167.73 18.3636 169.105 18.3527C170.982 18.3419 172.302 19.0268 173.634 19.6683C175.205 20.4186 190.331 27.649 194.314 23.8761C196.082 22.2126 193.954 20.0054 196.17 17.1458C198.592 14.0145 203.656 13.3947 205.544 13.1555C207.028 12.9707 208.13 13.0033 208.381 13.0142C209.211 13.0359 214.296 13.2751 218.17 16.4174C220.353 18.1788 221.564 20.4186 223.038 24.6155C223.78 26.7357 224.587 29.3343 225.319 32.4222C225.591 33.5312 225.832 34.7055 226.072 35.945C226.17 36.4451 226.268 36.9779 226.355 37.5215C226.432 37.9782 226.508 38.4349 226.574 38.9024C226.803 40.4246 227.01 42.012 227.174 43.6864C232.227 47.2092 237.53 51.2648 242.954 55.9401C252.7 64.3231 260.568 72.7822 266.865 80.4801H266.843Z" fill="#CB8641" stroke="#8D0F3A" stroke-width="0.640345" stroke-miterlimit="10"/>
<path d="M275.171 125.037C275.171 125.037 273.807 123.384 271.144 122.59C269.278 122.025 266.899 122.123 266.572 122.96C266.2 123.939 268.983 124.961 271.144 128.429C272.737 131.006 272.716 134.811 272.716 134.811C272.716 134.811 271.984 134.148 270.762 133.474C269.627 132.843 267.008 132.148 265.873 132.072C262.959 131.865 260.133 135.083 255.964 138.715C249.787 144.097 243.457 147.935 240.02 151.61C237.957 153.817 236.866 155.426 236.866 155.426C236.429 156.068 236.004 156.72 235.556 157.351C234.607 158.59 233.657 159.525 232.828 160.265C232.282 160.721 231.802 161.08 231.388 161.363C229.238 162.885 226.739 163.864 224.163 164.396C220.682 165.136 217.069 165.016 214.036 164.266C209.812 163.233 209.31 161.983 204.061 160.808C201.551 160.243 198.932 160.254 196.345 160.265C193.202 160.276 190.027 160.287 186.905 160.732C181.056 161.537 175.61 163.624 169.706 163.668C167 163.69 162.144 163.374 156.774 160.917C153.664 159.504 151.198 157.677 149.561 156.285C148.087 155.024 147.269 154.089 147.269 154.089C146.199 153.11 145.457 152.338 144.18 151.751C140.285 150.86 137.327 151.295 135.515 151.762C134.511 152.023 133.726 152.338 132.918 152.654C129.022 154.154 126.392 155.937 125.617 156.525H125.366C125.366 156.525 125.377 156.525 125.377 156.514C127.036 154.85 127.396 152.719 127.516 152.121C127.745 150.925 128.258 149.653 128.913 148.403C129.284 147.641 129.742 146.88 130.223 146.141C132.591 142.488 135.635 139.422 135.952 139.095C135.974 139.084 135.996 139.052 135.996 139.052C137.993 137.062 140.143 135.573 142.238 134.42C148.491 130.995 154.286 130.582 154.21 129.245C154.133 128.005 149.015 127.32 148.502 127.255C144.857 126.776 142.522 127.483 142.456 127.2C142.358 126.744 148.295 123.786 155.978 123.297C164.228 122.786 170.285 125.385 170.612 124.395C170.907 123.515 166.258 121.123 165.887 120.927C164.981 120.459 163.704 119.807 161.86 119.329C160.747 119.046 160.387 119.057 160.376 118.926C160.321 118.339 168.713 116.175 177.138 116.523C188.073 116.98 194.468 120.579 194.468 120.579C196.269 118.404 205.938 107.129 222.548 105.705C235.851 104.563 245.575 110.445 248.532 112.403C249.896 105.074 254.371 99.2247 260.056 97.8003C264.443 96.6913 269.278 98.2896 269.976 98.5288C272.432 99.366 274.265 100.54 275.455 101.432C275.455 101.432 272.366 101.454 268.219 102.737C266.986 103.106 265.306 103.639 265.327 104.259C265.349 104.9 267.215 105.161 269.005 105.759C273.971 107.423 277.015 111.968 277.201 112.25C277.059 112.207 274.615 111.348 269.507 110.25C266.222 109.543 266.004 109.815 265.96 109.902C265.764 110.337 268.11 111.478 269.507 112.49C271.875 114.207 274.385 117.622 275.149 125.026L275.171 125.037Z" fill="#FCFFEB"/>
<path d="M275.171 125.037C275.171 125.037 273.807 123.384 271.144 122.59C269.278 122.025 266.899 122.123 266.572 122.96C266.2 123.939 268.983 124.961 271.144 128.429C272.737 131.006 272.716 134.811 272.716 134.811C272.716 134.811 271.984 134.148 270.762 133.474C269.627 132.843 267.008 132.148 265.873 132.072C262.959 131.865 260.133 135.083 255.964 138.715C249.787 144.097 243.457 147.935 240.02 151.61C237.957 153.817 236.866 155.426 236.866 155.426C236.429 156.068 236.004 156.72 235.556 157.351C234.607 158.59 233.657 159.525 232.828 160.265C232.282 160.721 231.802 161.08 231.388 161.363C229.238 162.885 226.739 163.864 224.163 164.396C220.682 165.136 217.069 165.016 214.036 164.266C209.812 163.233 209.31 161.983 204.061 160.808C201.551 160.243 198.932 160.254 196.345 160.265C193.202 160.276 190.027 160.287 186.905 160.732C181.056 161.537 175.61 163.624 169.706 163.668C167 163.69 162.144 163.374 156.774 160.917C153.664 159.504 151.198 157.677 149.561 156.285C148.087 155.024 147.269 154.089 147.269 154.089C146.199 153.11 145.457 152.338 144.18 151.751C140.284 150.86 137.327 151.295 135.515 151.762C134.511 152.023 133.726 152.338 132.918 152.654C129.022 154.154 126.392 155.937 125.617 156.525H125.366C125.366 156.525 125.377 156.525 125.377 156.514C127.036 154.85 127.396 152.719 127.516 152.121C127.745 150.925 128.258 149.653 128.913 148.403C129.284 147.641 129.742 146.88 130.223 146.141C132.591 142.488 135.635 139.422 135.952 139.095C135.974 139.084 135.996 139.052 135.996 139.052C137.993 137.062 140.143 135.573 142.238 134.42C148.491 130.995 154.286 130.582 154.21 129.245C154.133 128.005 149.015 127.32 148.502 127.255C144.857 126.776 142.522 127.483 142.456 127.2C142.358 126.744 148.295 123.786 155.978 123.297C164.228 122.786 170.285 125.385 170.612 124.395C170.907 123.515 166.258 121.123 165.887 120.927C164.981 120.459 163.704 119.807 161.86 119.329C160.747 119.046 160.387 119.057 160.376 118.926C160.321 118.339 168.713 116.175 177.138 116.523C188.073 116.98 194.468 120.579 194.468 120.579C196.269 118.404 205.938 107.129 222.548 105.705C235.851 104.563 245.575 110.445 248.532 112.403C249.896 105.074 254.371 99.2247 260.056 97.8003C264.443 96.6913 269.278 98.2896 269.976 98.5288C272.432 99.366 274.265 100.54 275.455 101.432C275.455 101.432 272.366 101.454 268.219 102.737C266.986 103.106 265.306 103.639 265.327 104.259C265.349 104.9 267.215 105.161 269.005 105.759C273.971 107.423 277.015 111.968 277.201 112.25C277.059 112.207 274.615 111.348 269.507 110.25C266.222 109.543 266.004 109.815 265.96 109.902C265.764 110.337 268.11 111.478 269.507 112.49C271.875 114.207 274.385 117.622 275.149 125.026L275.171 125.037Z" stroke="#8D0F3A" stroke-width="0.640345" stroke-miterlimit="10"/>
<path d="M232.815 160.265C231.189 161.537 228.265 163.462 224.15 164.397C222.393 164.788 218.454 165.354 214.023 164.267C209.799 163.234 209.297 161.983 204.048 160.809C201.538 160.244 198.919 160.254 196.333 160.265C193.19 160.276 190.014 160.287 186.893 160.733C181.043 161.537 175.598 163.625 169.694 163.669C166.987 163.69 162.131 163.375 156.762 160.918C153.651 159.504 151.185 157.678 149.548 156.286C148.075 155.025 147.256 154.09 147.256 154.09C146.187 153.111 145.445 152.339 144.168 151.752C144.124 151.708 144.091 151.698 144.048 151.687C143.753 151.524 143.491 151.415 143.273 151.382C140.261 150.839 137.511 151.295 136.638 151.469C136.55 151.48 136.441 151.513 136.343 151.534C136.07 151.611 135.797 151.687 135.514 151.763C134.597 152.035 133.724 152.328 132.916 152.654L128.911 148.403C129.282 147.642 129.741 146.881 130.221 146.142C133.778 144.837 138.984 143.51 145.008 144.271C154.655 145.489 155.103 150.654 164.674 153.861C177.409 158.123 189.283 153.209 202.127 155.514C205.183 156.058 207.999 156.764 207.999 156.764C211.535 157.83 213.193 159.037 218.246 159.972C224.423 161.103 229.399 160.679 232.826 160.254L232.815 160.265Z" fill="#E0E5FF"/>
<path d="M211.612 289.663C226.105 262.524 230.557 230.2 223.933 200.169C222.624 194.221 220.856 188.274 217.603 183.12C214.351 177.966 209.43 173.639 203.515 172.128C195.493 170.084 186.326 173.976 182.256 181.152L170.48 215.043L211.623 289.663H211.612Z" fill="#FCFFEB"/>
<path d="M275.171 125.037C275.171 125.037 273.807 123.384 271.144 122.59C269.278 122.025 266.572 122.96 266.572 122.96C266.572 122.96 268.983 124.961 271.144 128.429C272.737 131.006 272.716 134.811 272.716 134.811C272.716 134.811 271.984 134.148 270.762 133.474C269.627 132.843 267.008 132.148 265.873 132.072C262.959 131.865 260.133 135.083 255.964 138.715C249.787 144.097 243.457 147.935 240.02 151.61C237.957 153.817 236.866 155.426 236.866 155.426C236.429 156.068 236.004 156.72 235.556 157.351C234.607 158.59 233.657 159.525 232.828 160.265C232.282 160.721 231.802 161.08 231.388 161.363C229.238 162.885 226.739 163.864 224.163 164.396C220.682 165.136 217.069 165.016 214.036 164.266C209.812 163.233 209.31 161.983 204.061 160.808C201.551 160.243 198.932 160.254 196.345 160.265C193.202 160.276 190.027 160.287 186.905 160.732C181.056 161.537 175.61 163.625 169.706 163.668C167 163.69 162.144 163.374 156.774 160.917C153.664 159.504 151.198 157.677 149.561 156.285C148.087 155.024 147.269 154.089 147.269 154.089C146.199 153.11 145.457 152.338 144.18 151.751C140.285 150.86 137.327 151.295 135.515 151.762C134.511 152.023 133.726 152.338 132.918 152.654C129.022 154.154 126.392 155.937 125.617 156.525H125.366C125.366 156.525 125.377 156.525 125.377 156.514C127.036 154.85 127.396 152.719 127.516 152.121C127.745 150.925 128.258 149.653 128.913 148.403C129.284 147.641 129.742 146.88 130.223 146.141C132.591 142.488 135.635 139.422 135.952 139.095C135.974 139.084 135.996 139.052 135.996 139.052C137.993 137.062 140.143 135.573 142.238 134.42C148.491 130.995 154.286 130.582 154.21 129.245C154.133 128.005 149.015 127.32 148.502 127.255C144.857 126.776 142.522 127.483 142.456 127.2C142.358 126.744 148.295 123.786 155.978 123.297C164.228 122.786 170.285 125.385 170.612 124.395C170.907 123.515 166.258 121.123 165.887 120.927C164.981 120.459 163.704 119.807 161.86 119.329C160.747 119.046 160.387 119.057 160.376 118.926C160.321 118.339 168.713 116.175 177.138 116.523C188.073 116.98 194.468 120.579 194.468 120.579C196.269 118.404 205.938 107.129 222.548 105.705C235.851 104.563 245.575 110.445 248.532 112.403C249.896 105.074 254.371 99.2247 260.056 97.8003C264.443 96.6913 269.278 98.2896 269.976 98.5288C272.432 99.366 274.265 100.54 275.455 101.432C275.455 101.432 272.366 101.454 268.219 102.737C266.986 103.106 265.327 104.259 265.327 104.259C265.327 104.259 267.215 105.161 269.005 105.759C273.971 107.423 277.015 111.968 277.201 112.25C277.059 112.207 274.615 111.348 269.507 110.25C266.222 109.543 265.96 109.902 265.96 109.902C265.96 109.902 268.11 111.478 269.507 112.49C271.875 114.207 274.385 117.622 275.149 125.026L275.171 125.037Z" stroke="#8D0F3A" stroke-width="1.28069" stroke-miterlimit="10"/>
<path d="M268.568 325.391C250.856 331.654 224.544 338.754 192.045 339.721C170.677 340.363 151.873 338.188 136.54 335.198C130.232 333.97 124.525 332.61 119.45 331.251C123.565 308.962 126.336 290.065 128.192 275.909C133.146 226.541 132.303 213.6 131.365 206.337C129.88 194.855 128.312 176.302 120.454 161.776C119.297 159.645 113.273 148.827 103.724 131.202C103.484 130.756 102.917 129.712 102.677 129.267C107.02 128.266 112.138 127.396 117.912 127.005C125.322 126.505 131.848 126.918 137.162 127.625C136.355 130.245 135.253 135.04 136.169 140.911C136.824 145.097 138.275 148.348 139.432 150.469C143.045 148.816 148.065 147 154.252 146.141C164.369 144.739 172.663 146.598 177.454 148.077C175.969 150.914 174.333 154.731 173.208 159.428C171.801 165.354 171.746 170.507 171.997 174.182C180.728 183.022 191.368 195.634 200.699 212.455C213.958 236.331 218.989 258.588 221.074 273.375C225.231 267.232 230.437 257.936 232.969 245.878C239.975 212.629 225.133 166.441 226.923 163.679C228.222 163.222 229.531 162.755 230.83 162.298C233.907 167.648 238.393 175.715 243.435 185.718C254.872 208.399 260.819 219.696 263.122 234.092C265.294 247.704 263.122 250.281 263.253 272.147C263.329 285.335 264.355 303.504 268.546 325.38L268.568 325.391Z" fill="#CAD678" stroke="#8D0F3A" stroke-width="0.640345" stroke-miterlimit="10"/>
<path d="M236.243 334.458C230.077 335.752 223.474 336.894 216.479 337.785C208.807 338.775 200.633 339.46 192.045 339.721C170.666 340.362 151.873 338.188 136.54 335.187C130.232 333.969 124.525 332.599 119.45 331.24C124.492 308.048 126.915 288.858 128.192 275.908C129.916 258.262 131.531 241.844 131.957 226.785C139.421 228.166 147.606 233.819 152.048 237.647C156.118 241.159 159.371 244.159 162.306 247.063C169.029 253.706 173.59 259.077 174.616 260.262C183.576 270.657 209.637 300.905 227.316 296.153C238.731 293.087 241.808 276.713 244.559 277.583C246.676 278.246 246.752 288.521 236.243 334.458Z" fill="#8E9751"/>
<path d="M157.462 169.703C155.334 172.66 153.206 175.628 151.077 178.586C141.518 188.252 137.687 197.537 135.974 203.18C127.505 231.047 143.864 259.991 144.573 261.219C149.157 269.124 156.338 285.977 156.338 285.977L158.815 293.794C157.516 294.175 155.486 294.969 153.566 296.676C152.507 297.622 148.938 300.786 149.528 304.798C149.593 305.243 149.975 307.831 152.049 308.897C154.177 309.984 157.276 309.147 159.273 306.559C159.404 306.787 161.5 310.397 165.723 310.615C168.702 310.767 171.551 309.158 173.013 306.483C173.439 306.831 176.887 309.56 181.012 308.429C181.711 308.244 184.057 307.603 185.137 305.559C187.135 301.775 182.868 296.774 182.278 296.11C179.932 293.436 177.007 292.37 175.316 291.924C175.337 289.489 175.392 287.042 175.479 284.563C176.189 264.177 178.895 245.171 182.813 227.688" fill="#FF6D00"/>
<path d="M157.462 169.703C155.334 172.66 153.206 175.628 151.077 178.586C141.518 188.252 137.687 197.537 135.974 203.18C127.505 231.047 143.864 259.991 144.573 261.219C149.157 269.124 156.338 285.977 156.338 285.977L158.815 293.794C157.516 294.175 155.486 294.969 153.566 296.676C152.507 297.622 148.938 300.786 149.528 304.798C149.593 305.243 149.975 307.831 152.049 308.897C154.177 309.984 157.276 309.147 159.273 306.559C159.404 306.787 161.5 310.397 165.723 310.615C168.702 310.767 171.551 309.158 173.013 306.483C173.439 306.831 176.887 309.56 181.012 308.429C181.711 308.244 184.057 307.603 185.137 305.559C187.135 301.775 182.868 296.774 182.278 296.11C179.932 293.436 177.007 292.37 175.316 291.924C175.337 289.489 175.392 287.042 175.479 284.563C176.189 264.177 178.895 245.171 182.813 227.687" stroke="#8D0F3A" stroke-width="1.28069" stroke-miterlimit="10"/>
<path d="M190.942 24.9525C192.176 25.4853 194.096 26.2029 196.541 26.6378C199.738 27.2141 202.39 27.6816 204.158 26.1377C204.573 25.768 205.697 24.6372 205.795 21.9951" stroke="#8D0F3A" stroke-width="1.28069" stroke-miterlimit="10"/>
<path d="M226.061 35.9562L155.551 49.4277C155.725 43.1214 156.227 37.8264 156.74 33.7926C157.231 29.8675 157.722 27.3993 159.381 24.779C159.6 24.431 161.891 21.0278 165.307 19.3208C165.427 19.8536 163.845 22.2238 163.452 26.312C163.037 30.7916 164.303 34.6841 165.689 37.5872C173.416 35.3474 182.986 33.2272 194.063 32.1834C206.177 31.0308 216.795 31.4875 225.297 32.4334L226.05 35.9562H226.061Z" fill="#9F632F"/>
<path d="M226.562 38.9023C226.562 38.9023 226.541 38.913 226.52 38.913" stroke="#8D0F3A" stroke-width="0.640345" stroke-miterlimit="10"/>
<path d="M266.843 80.4801C255.002 74.8045 234.267 66.8891 207.716 67.0087C160.92 67.2153 128.726 92.2445 118.959 100.486C119.145 99.9751 119.308 99.4532 119.505 98.9531C122.79 89.7547 127.024 83.4484 130.309 79.3711C135.547 72.88 141.276 65.8018 147.606 62.1159C148.501 61.6049 151.098 60.1588 153.074 57.1905C153.434 56.636 153.75 56.0815 154.001 55.5378C154.721 54.0156 155.06 52.613 155.256 51.5801C155.311 51.2322 155.343 50.9278 155.387 50.6668C155.453 50.2428 155.507 49.8296 155.551 49.4273C155.627 48.8293 155.693 48.2639 155.758 47.7094C157.155 35.6405 155.769 30.3129 159.381 24.7786C159.6 24.4306 161.891 21.0274 165.307 19.3204C166.464 18.755 167.73 18.3636 169.105 18.3527C170.982 18.3419 172.302 19.0268 173.634 19.6683C175.205 20.4186 190.331 27.649 194.314 23.8761C196.082 22.2126 193.954 20.0054 196.17 17.1458C198.592 14.0145 203.656 13.3947 205.544 13.1555C207.028 12.9707 208.13 13.0033 208.381 13.0142C209.211 13.0359 214.296 13.2751 218.17 16.4174C220.353 18.1788 221.564 20.4186 223.038 24.6155C223.78 26.7357 224.587 29.3343 225.319 32.4222C225.591 33.5312 225.832 34.7055 226.072 35.945C226.17 36.4451 226.268 36.9779 226.355 37.5215C226.432 37.9782 226.508 38.4349 226.574 38.9024C226.803 40.4246 227.01 42.012 227.174 43.6864C232.227 47.2092 237.53 51.2648 242.954 55.9401C252.7 64.3231 260.568 72.7822 266.865 80.4801H266.843Z" stroke="#8D0F3A" stroke-width="0.640345" stroke-miterlimit="10"/>
<path d="M155.257 51.5803C157.789 50.3842 160.932 49.0034 164.599 47.6552C195.963 36.13 226.968 40.6639 227.153 43.6866C227.35 46.8288 193.857 43.4039 158.881 63.66C140.285 74.435 127.647 88.1891 119.506 98.9423C122.791 89.7439 127.025 83.4377 130.31 79.3604C135.548 72.8693 141.278 65.7911 147.607 62.1052C148.273 61.7137 151.045 60.2568 153.075 57.1798C153.511 56.5165 153.817 55.9294 154.002 55.5271" fill="#9F632F"/>
<path d="M227.163 43.6865C221.826 43.3603 215.704 43.2516 208.96 43.5669C202.194 43.8713 194.773 44.6324 186.872 46.0676C173.809 48.4271 162.753 52.0151 153.99 55.5379C154.711 54.0157 155.049 52.6131 155.245 51.5802C155.3 51.2322 155.333 50.9278 155.376 50.6669C155.442 50.2428 155.496 49.8296 155.54 49.4274C155.616 48.8293 155.682 48.264 155.747 47.7094C162.142 43.0559 169.913 40.6638 177.65 38.9677C193.496 35.4558 209.877 34.4446 226.05 35.945H226.126L226.334 37.5216L226.519 38.9133L227.152 43.6865H227.163Z" fill="#3F0015"/>
<path d="M126.173 175.824C126.173 175.824 117.573 156.014 112.171 145.511C109.148 139.628 106.071 134.007 102.993 128.669C106.704 128.038 109.661 127.32 111.756 126.744C114.048 126.113 115.369 125.657 116.875 126.19C117.999 126.592 119.461 127.647 120.662 130.8C124.023 139.705 129.894 186.773 129.894 186.773L126.184 175.813L126.173 175.824Z" fill="#E6F29B"/>
<path d="M182.812 227.688C182.67 232.928 182.103 239.767 180.247 253.348C178.96 262.829 177.519 272.245 176.788 278.649C173.58 277.866 169.902 277.464 165.864 277.877C165.133 277.953 162.852 278.214 159.96 279.04C157.941 279.616 155.202 280.606 152.135 282.335C148.861 277.551 144.398 270.233 140.655 260.654C136.464 249.944 127.679 227.481 135.984 203.18C137.937 197.472 142.019 188.187 151.087 178.586C153.216 171.845 155.573 169.986 157.461 169.703C166.355 168.365 183.598 198.712 182.812 227.677V227.688Z" fill="#CAD678" stroke="#8D0F3A" stroke-width="1.28069" stroke-miterlimit="10"/>
<path d="M175.719 189.274C175.719 202.115 168.221 211.356 159.054 209.91C149.975 208.486 142.685 197.102 142.685 184.49C142.685 171.877 149.975 162.613 159.054 163.81C168.134 165.006 175.719 176.433 175.719 189.274Z" fill="#CAD678"/>
<path d="M85.3907 197.266C85.6089 197.179 86.6238 199.516 89.1666 202.963C90.0506 204.159 90.8581 205.137 91.502 205.877C91.884 205.257 92.3314 204.365 92.6042 203.224C93.0844 201.191 92.7461 199.484 92.4951 198.592C93.7174 200.517 95.3544 203.561 96.2492 207.54C97.5806 213.455 96.5439 218.283 96.2165 220.066C95.1688 225.633 94.7105 234.668 97.6789 249.586C93.4664 241.453 92.0259 234.625 91.4802 229.895C90.7054 223.099 91.8621 221.262 90.6071 214.162C88.9374 204.637 84.9978 197.439 85.3907 197.276V197.266Z" fill="#D05B04"/>
<path d="M88.141 191.013C88.1628 192.883 88.0864 194.623 87.9555 196.21C85.3363 192.144 81.5713 188.817 77.1951 186.718C80.8401 192.796 83.2955 199.559 84.365 206.55C81.4512 201.419 76.3766 197.559 70.6472 196.113C71.5748 197.146 73.7356 199.842 74.3467 203.93C74.8269 207.116 74.1285 209.682 73.6701 210.998C73.1681 208.268 71.9895 204.093 68.9447 200.038C67.8862 198.602 66.7839 197.428 65.7363 196.482C63.4009 205.028 64.5031 214.444 68.7483 222.24C64.7977 217.412 60.5198 212.879 55.9363 208.649C57.3222 211.541 58.7737 215.097 59.9196 219.272C61.2291 224.001 61.8075 228.274 62.0476 231.754C59.2866 230.155 54.583 226.915 50.938 221.153C49.0173 218.108 47.926 215.205 47.2821 212.922C46.1908 217.271 45.165 223.229 45.2959 230.319C45.4487 238.114 46.9656 244.54 48.3953 249.052C46.3872 245.377 43.5171 242.192 40.0904 239.767C39.9376 239.637 39.763 239.517 39.5993 239.408C39.4683 234.744 38.3006 229.905 35.0376 226.589C30.7924 222.284 24.2117 221.577 18.6242 219.261C7.89655 214.825 0.704783 203.278 1.01035 191.796C1.03218 190.491 1.16314 189.219 1.3814 187.936C1.3814 192.003 3.88051 195.754 7.09989 198.244C10.3411 200.744 14.2153 202.191 18.0458 203.604C13.5059 201.136 10.1883 196.537 9.32617 191.459C11.9235 194.003 15.8086 194.906 19.4536 194.656C23.0986 194.395 26.5908 193.144 30.0175 191.894C28.8171 191.209 27.2456 190.448 25.3358 189.839C23.2077 189.176 21.2979 188.904 19.8246 188.806C34.9066 178.183 54.6703 174.4 72.6225 178.738C77.2169 179.836 81.735 181.467 85.631 184.142C86.3949 184.674 87.137 185.229 87.8136 185.805C87.9773 187.393 88.0973 189.121 88.1192 191.002L88.141 191.013Z" fill="#FCFFEB"/>
<path d="M44.5428 232.635C45.9615 237.875 46.1906 242.42 46.1361 245.584C43.9644 243.529 41.7817 241.474 39.61 239.419C39.479 234.755 38.3113 229.916 35.0483 226.6C30.8031 222.295 24.2225 221.588 18.6349 219.272C7.90729 214.836 0.715525 203.289 1.02109 191.807C5.41909 196.754 6.05206 197.515 6.05206 197.515C7.30707 200.234 9.42422 203.941 13.0365 207.323C23.2839 216.913 34.8628 213.89 40.9851 223.501C42.8512 226.437 43.7897 229.873 44.5318 232.646L44.5428 232.635Z" fill="#E0E5FF"/>
<path d="M258.823 118.829C258.769 120.841 258.354 126.995 253.738 132.648C249.809 137.465 244.996 139.227 243.316 139.814C240.522 140.792 235.163 142.097 220.387 138.02C207.739 134.529 196.749 129.463 197.076 128.549C197.611 127.06 225.985 143.076 246.077 132.007C252.843 128.278 256.761 122.526 258.834 118.829H258.823Z" fill="#E0E5FF"/>
<path d="M232.489 140.933C235.829 141.411 238.775 141.194 241.351 140.335C241.351 140.335 245.356 139.324 248.586 137.301C252.177 135.061 256.902 128.396 258.812 118.817" stroke="#8D0F3A" stroke-width="1.92103" stroke-miterlimit="10"/>
<path d="M232.205 149.207C230.481 152.045 227.479 153.622 224.893 153.524C223.616 153.48 222.448 153.241 221.401 152.85C221.401 152.85 220.331 152.447 219.316 151.806C218.203 151.11 214.711 147.729 209.691 142.52C206.308 139.009 202.226 134.67 197.687 129.723C204.966 132.996 212.834 135.932 221.292 138.258C223.933 138.998 226.639 139.672 229.4 140.281C230.524 140.531 231.637 140.77 232.761 140.987C232.925 141.39 234.529 145.337 232.205 149.186V149.207Z" fill="#6A0C0D" stroke="#8D0F3A" stroke-width="0.640345" stroke-miterlimit="10"/>
<path d="M303.457 72.3797C305.356 72.3797 306.895 70.8463 306.895 68.9547C306.895 67.0632 305.356 65.5298 303.457 65.5298C301.559 65.5298 300.02 67.0632 300.02 68.9547C300.02 70.8463 301.559 72.3797 303.457 72.3797Z" fill="#3F0015" stroke="#8D0F3A" stroke-width="1.28069" stroke-miterlimit="10"/>
<path d="M314.556 73.3587C316.454 73.3587 317.993 71.8253 317.993 69.9337C317.993 68.0422 316.454 66.5088 314.556 66.5088C312.657 66.5088 311.118 68.0422 311.118 69.9337C311.118 71.8253 312.657 73.3587 314.556 73.3587Z" fill="#3F0015" stroke="#8D0F3A" stroke-width="1.28069" stroke-miterlimit="10"/>
<path d="M323.509 81.4365C325.384 80.6598 326.314 78.6142 325.585 76.8675C324.856 75.1209 322.745 74.3345 320.87 75.1112C318.994 75.8879 318.064 77.9335 318.793 79.6802C319.522 81.4269 321.633 82.2132 323.509 81.4365Z" fill="#3F0015" stroke="#8D0F3A" stroke-width="1.28069" stroke-miterlimit="10"/>
<path d="M246.894 107.01C251.75 106.369 254.686 105.967 257.785 107.565C258.822 108.098 261.747 109.674 262.139 112.36C262.423 114.35 261.212 116.274 259.597 118.829C258.986 119.786 258.56 120.482 257.851 121.243C257.37 121.765 253.671 125.94 249.622 125.059C245.366 124.135 244.351 119.286 242.605 116.013C241.241 113.436 240.521 109.935 243.533 108.022C244.705 107.539 245.626 107.174 246.894 107.01Z" fill="#3F0015" stroke="#8D0F3A" stroke-width="1.28069" stroke-miterlimit="10"/>
<path d="M135.667 88.3744C135.253 89.4943 134.663 91.2014 134.118 93.3324C133.376 96.2464 133.256 97.8447 132.841 100.139C132.601 101.498 131.859 105.586 130.2 109.479C129.261 111.686 127.548 114.937 124.361 118.405C125.966 117.568 128.454 116.024 130.691 113.404C136.137 107.043 134.489 100.856 138.734 94.4088C140.12 92.2995 142.455 89.6683 150.171 85.7867C176.865 72.337 207.738 71.3476 207.738 71.3476C232.663 70.543 248.979 74.6638 249.066 74.0875C249.175 73.3916 225.439 65.0957 195.886 67.6073C167.185 70.0428 146.209 81.5572 135.678 88.3744H135.667Z" fill="#D54A0E"/>
<path d="M266.843 80.4801C254.849 74.7936 234.158 66.9978 207.715 67.0087C161.171 67.0087 128.824 91.1355 118.599 99.475C122.32 90.1461 126.827 83.6333 130.319 79.3711C138.013 69.977 142.269 65.6061 147.617 62.1159C148.915 61.2678 152.037 59.3325 154.012 55.5378C155.431 52.8196 155.583 50.4385 155.769 47.7094C156.937 30.8347 157.504 27.7686 159.392 24.7786C159.61 24.4306 161.902 21.0274 165.318 19.3204C166.475 18.755 167.741 18.3636 169.116 18.3527C171.386 18.331 173.077 19.3422 173.645 19.6683C177.726 21.9951 190.724 27.2793 194.325 23.8761C196.093 22.2017 193.965 20.0054 196.18 17.1458C198.603 14.0145 203.667 13.3947 205.555 13.1555C207.039 12.9707 208.141 13.0033 208.392 13.0142C212.452 13.2316 216.02 14.7973 218.181 16.4174C222.241 19.4618 223.299 23.8979 225.329 32.4222C226.421 37.0105 226.923 40.9139 227.185 43.6756C232.237 47.1984 237.541 51.2539 242.965 55.9293C252.71 64.3122 260.579 72.7713 266.876 80.4693L266.843 80.4801Z" stroke="#8D0F3A" stroke-width="1.28069" stroke-miterlimit="10"/>
<path d="M192.722 132.279C192.668 132.029 192.111 129.386 194.021 127.266C195.942 125.135 198.637 125.396 198.888 125.429" stroke="#8D0F3A" stroke-width="1.28069" stroke-miterlimit="10"/>
<path d="M231.289 148.468C229.564 151.306 226.563 152.883 223.977 152.785C222.7 152.741 221.532 152.502 220.485 152.111C219.994 151.915 219.24 151.578 218.4 151.067C215.868 149.534 214.548 147.696 213.391 146.272C212.202 144.815 210.357 142.793 207.629 140.596C208.284 140.064 209.08 139.553 210.041 139.15C214.417 137.324 218.771 139.27 219.917 139.824C220.375 138.868 221.292 138.215 222.329 138.15C223.66 138.063 224.522 138.965 224.632 139.085C227.043 139.476 229.455 139.868 231.856 140.259C231.856 140.259 233.624 144.608 231.3 148.457L231.289 148.468Z" fill="#B73A40"/>
<path d="M232.206 149.208C230.481 152.046 227.48 153.622 224.894 153.524C223.617 153.481 222.449 153.242 221.402 152.85C220.911 152.655 220.157 152.318 219.317 151.807C216.785 150.274 215.465 148.436 214.308 147.012C213.119 145.555 211.274 143.532 208.546 141.336C209.408 140.608 210.248 140.173 210.958 139.89C215.792 137.998 220.736 141.325 221.456 141.836C221.402 140.575 222.111 139.412 223.235 138.89C224.283 138.411 225.516 138.563 226.443 139.281C228.55 139.857 230.667 140.423 232.773 140.999C232.773 140.999 234.541 145.348 232.217 149.197L232.206 149.208Z" fill="#F48888"/>
<path d="M232.205 149.207C230.481 152.045 227.479 153.622 224.893 153.524C223.616 153.48 222.448 153.241 221.401 152.85C221.401 152.85 220.331 152.447 219.316 151.806C218.203 151.11 214.711 147.729 209.691 142.52C206.308 139.009 202.226 134.67 197.687 129.723C204.966 132.996 212.834 135.932 221.292 138.258C223.933 138.998 226.639 139.672 229.4 140.281C230.524 140.531 231.637 140.77 232.761 140.987C232.925 141.39 234.529 145.337 232.205 149.186V149.207Z" stroke="#8D0F3A" stroke-width="1.92103" stroke-miterlimit="10"/>
<path d="M221.27 139.835C223.519 144.26 224.468 146.576 224.13 146.783C224.086 146.804 224.021 146.804 223.933 146.761C223.464 145.554 222.962 144.347 222.274 143.26C221.587 142.162 220.692 141.172 219.59 140.498C220.146 140.281 220.714 140.063 221.27 139.846V139.835Z" fill="#B73A40"/>
<path d="M192.906 90.5594C194.997 90.5594 196.693 88.8703 196.693 86.7865C196.693 84.7028 194.997 83.0137 192.906 83.0137C190.815 83.0137 189.119 84.7028 189.119 86.7865C189.119 88.8703 190.815 90.5594 192.906 90.5594Z" fill="#FCFFEB"/>
<path d="M241.82 85.0143C243.321 85.0143 244.537 83.8022 244.537 82.3069C244.537 80.8117 243.321 79.5996 241.82 79.5996C240.319 79.5996 239.103 80.8117 239.103 82.3069C239.103 83.8022 240.319 85.0143 241.82 85.0143Z" fill="#FCFFEB"/>
<path d="M51.8658 240.594C55.3253 245.345 60.2689 246.889 62.3643 247.248C66.0202 247.879 69.7525 247.248 73.4629 247.291C71.6514 246.53 68.6284 244.965 65.9547 241.877C64.4487 240.137 63.4883 238.419 62.8663 237.049C61.2402 236.81 58.4683 236.169 55.5872 234.288C51.6803 231.732 49.8251 228.329 49.0939 226.774C48.832 228.047 47.5988 234.733 51.8658 240.594Z" fill="#D05B04"/>
<path opacity="0.6" d="M251.652 112.979C254.545 112.979 256.891 112.297 256.891 111.457C256.891 110.616 254.545 109.935 251.652 109.935C248.759 109.935 246.414 110.616 246.414 111.457C246.414 112.297 248.759 112.979 251.652 112.979Z" fill="#D54A0E"/>
<path d="M204.791 376.178C206.363 376.82 208.905 378.092 211.328 380.538C214.198 383.441 215.453 386.551 215.999 388.225" stroke="#8D0F3A" stroke-width="1.28069" stroke-miterlimit="10"/>
<path d="M195.962 380.299C197.741 381.658 199.476 383.115 200.862 384.877C202.248 386.638 203.263 388.737 203.448 390.966" stroke="#8D0F3A" stroke-width="1.28069" stroke-miterlimit="10"/>
<path d="M238.265 372.237C241.277 370.976 244.418 371.912 247.419 373.184C249.285 373.967 251.173 375.098 252.123 376.979C252.123 376.979 252.321 376.369 252.277 376.205" stroke="#8D0F3A" stroke-width="1.28069" stroke-miterlimit="10"/>
<path d="M232.435 380.299C236.451 379.331 240.925 380.973 243.533 384.376" stroke="#8D0F3A" stroke-width="1.28069" stroke-miterlimit="10"/>
<path d="M170.765 264.198C173.929 257.577 180.488 241.365 176.407 221.783C174.89 214.509 172.271 208.551 169.771 204.061C177.52 222.631 177.083 245.345 170.765 264.209V264.198Z" fill="#E6F29B"/>
<path d="M231.966 26.2466C232.5 25.3332 234.759 21.5604 238.666 17.32C244.276 11.2312 250.529 7.18646 255.331 4.63135C253.563 6.17529 251.107 8.3716 248.292 11.1442C244.93 14.4495 243.25 16.1022 241.918 17.9397C238.415 22.7672 239.048 24.7896 236.08 28.3994C234.683 30.1064 232.293 32.3897 228.179 34.2163C228.975 32.0635 230.165 29.2909 231.955 26.2466H231.966Z" fill="#D05B04"/>
<path d="M139.989 29.4322C144.408 35.0969 147.901 41.4902 152.877 46.6874C144.856 43.2081 137.926 37.2932 133.244 29.9323C130.363 25.3984 128.039 20.2338 123.019 17.6895C129.457 17.2763 136.431 24.8765 139.989 29.4431V29.4322Z" fill="#D05B04"/>
<path opacity="0.65" d="M252.734 71.5863C247.277 68.2374 237.815 63.4099 225.134 61.5615C208.513 59.1369 195.221 63.1163 188.826 65.5192C197.808 63.9862 210.38 62.8554 225.134 64.7473C236.244 66.1607 245.564 68.9007 252.734 71.5972V71.5863Z" fill="#E4AA52"/>
<path d="M234.279 294.577C261.387 246.476 245.421 193.394 242.616 184.066V184.055C247.451 191.948 260.601 214.433 263.144 234.091C263.722 238.538 264.039 243.67 264.039 243.67C264.453 251.684 263.93 259.056 263.264 272.146C262.62 284.846 263.133 302.917 268.557 325.38C261.507 327.881 253.857 330.229 245.65 332.284C224.675 337.536 205.501 339.449 189.316 339.775C215.737 323.956 228.647 304.547 234.279 294.566V294.577Z" fill="#8E9751"/>
<path d="M220.659 275.746C228.244 262.187 231.463 250.303 232.991 242.323C232.991 242.323 236.702 219.196 231.987 190.155C231.714 188.469 230.034 181.435 228.571 171.714C227.993 167.909 227.611 164.778 227.371 162.788C228.298 162.777 229.63 162.886 230.983 163.582C233.231 164.734 234.126 166.789 235.97 170.779C239.244 177.847 239.288 177.597 239.714 178.727C240.608 181.076 247.909 201.995 241.831 230.384C237.313 251.478 227.524 266.83 220.659 275.746Z" fill="#E6F29B"/>
<path d="M127.307 284.085C112.214 288.206 94.0003 291.424 75.8736 290.206C70.8645 289.869 65.2005 288.858 58.9036 285.749C47.2593 279.986 39.2709 267.515 38.9326 254.554C38.8671 251.651 39.1399 248.748 39.3582 245.845C39.5219 243.91 39.6528 241.974 39.6201 240.028C39.6201 239.822 39.6201 239.626 39.6092 239.419C39.5873 238.571 39.5328 237.712 39.4237 236.853C38.9871 233.037 37.7212 229.308 35.0475 226.6C34.4036 225.948 33.6942 225.361 32.9412 224.861C28.8161 222.034 23.3813 221.229 18.6341 219.283C6.70601 214.336 -0.845888 200.614 1.40222 187.958C1.40222 192.014 3.89042 195.765 7.12072 198.255C10.351 200.756 14.2361 202.202 18.0666 203.626C13.5267 201.158 10.2091 196.559 9.347 191.47C11.9443 194.014 15.8294 194.917 19.4635 194.667C23.1194 194.417 26.6007 193.166 30.0274 191.916C28.827 191.231 27.2555 190.459 25.3457 189.861C23.2176 189.187 21.3187 188.926 19.8345 188.828C34.9056 178.205 54.6802 174.421 72.6324 178.76C77.2268 179.858 81.7449 181.489 85.6409 184.164C86.4048 184.685 87.136 185.24 87.8235 185.827C98.4747 194.71 100.319 209.28 100.93 213.672C102.556 225.35 99.5442 230.678 99.948 239.137C100.057 241.496 99.7843 244.606 101.454 247.9C104.368 253.608 110.49 255.772 112.946 256.631C118.97 258.762 125.016 258.229 129.992 256.892" stroke="#8D0F3A" stroke-width="1.28069" stroke-miterlimit="10"/>
<path d="M160.669 299.916C160.353 300.796 160.058 301.807 159.807 302.938C159.512 304.265 159.36 305.482 159.283 306.559" stroke="#8D0F3A" stroke-width="1.28069" stroke-miterlimit="10"/>
<path d="M172.576 299.883C172.86 300.851 173.133 302.047 173.286 303.439C173.427 304.798 173.416 306.005 173.34 306.994" stroke="#8D0F3A" stroke-width="1.28069" stroke-miterlimit="10"/>
<path d="M230.656 239.213C230.416 246.074 228.986 252.021 226.956 257.501C226.913 257.642 226.858 257.784 226.803 257.925C219.928 253.728 215.028 248.987 213.129 243.421C208.84 219.294 207.389 197.428 210.772 179.423C209.681 177.607 208.589 175.781 207.498 173.954C208.851 173.149 210.281 172.203 211.754 171.127C212.66 170.464 213.5 169.801 214.286 169.148C214.428 169.04 214.57 168.92 214.712 168.8C215.454 169.692 216.305 170.638 217.309 171.605C218.302 172.573 219.273 173.41 220.179 174.139C219.393 175.868 218.608 177.596 217.822 179.336C217.429 198.146 222.613 218.326 230.656 239.213Z" fill="#B73A40"/>
<path d="M226.956 257.501C226.913 257.642 226.858 257.784 226.803 257.925C219.928 253.728 215.028 248.988 213.129 243.421C208.84 219.294 207.389 197.429 210.772 179.423C209.681 177.608 208.589 175.781 207.498 173.954C208.851 173.15 210.281 172.204 211.754 171.127C212.66 170.464 213.5 169.801 214.286 169.148C212.474 170.747 210.914 172.508 209.91 174.563C210.106 175.183 210.434 175.911 210.99 176.607C213.096 179.206 217.222 179.064 217.222 179.064C216.96 179.728 213.402 180.13 212.725 179.793C212.725 179.793 209.877 207.975 212.169 218.022C213.904 228.59 217.92 242.573 226.956 257.501Z" fill="#6A0C0D"/>
<path d="M230.656 239.213C230.416 246.074 228.986 252.021 226.956 257.501C226.913 257.642 226.858 257.784 226.803 257.925C224.883 257.055 221.249 255.098 218.095 251.184C214.777 247.063 213.697 242.877 213.293 240.8C211.274 232.2 209.495 221.49 209.07 209.128C208.677 197.722 209.528 187.676 210.772 179.423C209.681 177.607 208.589 175.781 207.498 173.954C208.851 173.149 210.281 172.203 211.754 171.127C212.66 170.464 213.5 169.801 214.286 169.148C214.428 169.04 214.57 168.92 214.712 168.8C215.454 169.692 216.305 170.638 217.309 171.605C218.302 172.573 219.273 173.41 220.179 174.139C219.393 175.868 218.608 177.596 217.822 179.336C217.429 198.146 222.613 218.326 230.656 239.213Z" stroke="#8D0F3A" stroke-width="1.28069" stroke-miterlimit="10"/>
<path d="M268.568 325.391C250.856 331.654 224.544 338.754 192.045 339.721C170.677 340.363 151.874 338.188 136.541 335.198C130.233 333.97 124.525 332.611 119.451 331.252C124.351 308.636 126.828 289.587 128.192 275.909C132.328 234.298 135.286 201.06 121.426 164.886C114.944 147.968 106.715 135.464 101.28 128.06C106.431 127.266 112.423 126.668 119.08 126.581C125.857 126.494 131.935 126.962 137.174 127.647C136.432 130.006 135.482 134.073 135.962 139.128C136.453 144.358 138.243 148.294 139.444 150.491C143.056 148.838 148.076 147.022 154.264 146.163C164.38 144.761 172.674 146.62 177.465 148.099C175.981 150.936 174.344 154.753 173.22 159.45C171.812 165.376 171.757 170.529 172.008 174.204C180.739 183.044 191.379 195.656 200.71 212.477C213.97 236.353 219 258.61 221.085 273.397C225.243 267.254 230.448 257.958 232.98 245.9C239.986 212.651 225.145 166.463 226.934 163.701C228.233 163.244 229.543 162.777 230.841 162.32C233.919 167.67 238.404 175.737 243.446 185.74C254.883 208.421 260.831 219.718 263.133 234.114C265.305 247.726 263.133 250.303 263.264 272.169C263.341 285.357 264.366 303.526 268.557 325.402L268.568 325.391Z" stroke="#8D0F3A" stroke-width="1.28069" stroke-miterlimit="10"/>
<path d="M220.091 174.008C221.008 174.628 222.055 175.27 223.223 175.889C224.663 176.65 226.028 177.248 227.261 177.716C227.632 176.629 228.014 175.53 228.396 174.443" stroke="#8D0F3A" stroke-width="1.28069" stroke-miterlimit="10"/>
<path d="M207.499 173.954C205.054 175.204 202.62 176.466 200.176 177.716L177.318 167.7" stroke="#8D0F3A" stroke-width="1.28069" stroke-miterlimit="10"/>
</svg>
