<svg width="299" height="377" viewBox="0 0 299 377" fill="none" xmlns="http://www.w3.org/2000/svg">
<g clip-path="url(#clip0_2260_38763)">
<path d="M208.616 329.391C207.329 334.43 205.245 339.128 203.181 343.795C205.963 343.671 208.744 343.547 211.525 343.423C215.339 343.258 217.275 343.289 218.553 343.568C219.31 343.733 227.801 345.695 228.686 351.735C228.814 352.592 228.971 354.77 227.251 357.713C227.221 358.291 227.054 361.017 225.108 363.154C222.956 365.519 220.312 365.343 219.88 365.302C218.209 366.944 215.742 368.916 212.439 370.113C203.093 373.51 194.847 367.956 193.166 366.758C193.166 366.758 189.235 365.622 185.008 362.442C184.271 361.884 183.21 360.873 182.414 359.2C181.794 357.899 181.568 356.257 182.129 354.915C182.443 354.161 182.964 353.562 183.426 352.912C185.785 349.597 186.404 345.106 186.935 340.842C187.446 336.753 187.957 332.551 187.19 328.524C186.65 325.695 185.48 322.783 186.247 320.026C186.964 317.445 189.166 315.865 191.299 314.802C195.033 312.933 199.063 311.952 203.102 311.436C212.027 310.29 210.297 322.887 208.636 329.381L208.616 329.391Z" fill="#F36B21" stroke="#231F20" stroke-width="1.28069" stroke-miterlimit="10"/>
<path d="M184.205 301.193C187.144 305.963 186.347 311.56 185.06 320.543C183.124 334.13 178.485 344.445 175.104 350.702C177.335 350.176 180.706 349.721 184.647 350.527C187.291 351.063 191.832 351.993 195.036 356.112C195.036 356.112 197.719 359.561 197.965 364.909C197.994 365.56 198.073 366.376 197.65 367.171C196.883 368.595 195.144 368.905 194.623 368.978C194.161 369.793 193.158 371.27 191.36 372.22C187.487 374.254 183.507 371.941 183.134 371.714C183.035 372.405 182.79 373.366 182.121 374.202C179.35 377.62 172.106 375.286 168.401 374.088C163.428 372.478 159.359 371.156 157.029 366.954C155.24 363.722 155.162 360.284 155.349 359.169C155.801 356.443 156.901 353.893 157.511 351.208C158.582 346.531 158.16 341.564 156.872 336.949C155.427 331.766 153.796 329.019 151.083 323.898C144.38 311.24 141.029 304.91 142.395 301.069C145.864 291.353 176.106 288.091 184.205 301.224V301.193Z" fill="#F36B21" stroke="#231F20" stroke-width="1.28069" stroke-miterlimit="10"/>
<path d="M218.066 160.458C218.529 152.129 199.285 144.175 175.084 142.691C150.884 141.207 130.89 146.756 130.428 155.085C129.965 163.413 149.208 171.367 173.409 172.851C197.61 174.335 217.603 168.786 218.066 160.458Z" fill="#F36B21" stroke="#231F20" stroke-width="0.640345" stroke-miterlimit="10"/>
<path d="M126.147 266.398C124.958 266.831 123.719 267.244 122.451 267.668C107.65 272.603 87.9536 277.27 68.4049 275.886C63.8937 275.566 58.7829 274.596 53.1217 271.653C42.625 266.181 35.4404 254.338 35.1357 242.03C35.0768 239.274 35.3225 236.517 35.5191 233.76C35.6567 231.922 35.7746 230.084 35.7549 228.236C35.7549 228.04 35.7549 227.854 35.7451 227.658C35.7255 226.853 35.6763 226.027 35.578 225.221C35.1849 221.597 34.035 218.056 31.6368 215.485C31.057 214.865 30.4083 214.308 29.74 213.833C26.0248 211.148 21.1204 210.384 16.8549 208.526C6.10262 203.838 -0.688813 190.808 1.32601 178.779C1.32601 182.641 3.57672 186.203 6.4761 188.567C9.39514 190.942 12.8842 192.315 16.334 193.657C12.2454 191.314 9.25754 186.946 8.4811 182.124C10.8203 184.54 14.3192 185.397 17.6019 185.16C20.8846 184.912 24.0296 183.725 27.1158 182.537C26.4278 181.845 24.9732 180.565 22.7421 179.884C20.6388 179.244 18.8501 179.44 17.9262 179.605C23.5284 175.527 28.6293 173.234 32.1283 171.933C32.1283 171.933 48.1486 165.965 65.4761 170.044C68.0708 170.653 72.5034 171.758 77.1915 175.175C77.8795 175.681 78.5478 176.208 79.1572 176.755C88.7497 185.191 90.4107 199.037 90.9513 203.198C92.4157 214.297 89.7129 219.346 90.0667 227.379C90.165 229.609 89.9193 232.573 91.4231 235.691C94.0472 241.112 99.561 243.166 101.763 243.992C113.439 248.339 125.154 240.977 127.336 239.552C126.933 248.494 126.53 257.446 126.117 266.387L126.147 266.398Z" fill="#F36B21" stroke="#231F20" stroke-width="0.640345" stroke-miterlimit="10"/>
<path d="M29.7422 213.833C30.4203 214.308 31.0592 214.866 31.6391 215.485C34.0372 218.056 35.1871 221.597 35.5803 225.222" stroke="#231F20" stroke-width="0.640345" stroke-miterlimit="10"/>
<path d="M128.75 259.336C127.777 262.113 126.804 264.891 125.831 267.668C111.029 272.603 91.3331 277.27 71.7844 275.887C69.003 275.691 66.0053 275.247 62.7816 274.245C60.0002 273.45 57.8969 272.428 56.5012 271.643C43.3803 264.323 39.5865 248.928 36.2252 235.34C34.7805 229.506 35.321 228.453 35.7535 228.226C36.3137 227.937 37.2474 228.732 37.9157 229.393C38.1811 231.117 39.7143 240.038 47.6262 245.975C54.2702 250.962 61.2385 250.704 63.2534 250.559C62.3688 251.52 60.9633 252.821 58.9485 253.698C56.1769 254.916 53.7689 254.824 52.2849 254.741C48.6287 254.524 45.8276 253.12 44.2256 252.118C47.6852 254.225 57.0222 259.222 68.9145 257.467C74.0253 256.713 78.1238 254.927 81.0035 253.326C79.5685 255.04 77.652 257.012 75.1457 258.871C70.7623 262.134 66.4869 263.662 63.5679 264.416C72.6592 266.811 87.0185 269.268 104.199 266.574C114.106 265.014 122.391 262.144 128.75 259.336Z" fill="#F58220"/>
<path d="M122.775 264.013C122.726 265.138 122.638 266.367 122.461 267.658C107.659 272.593 87.963 277.26 68.4143 275.876C63.9031 275.556 58.7923 274.586 53.1311 271.643C45.8188 267.833 36.8553 256.506 35.1451 242.02C34.7815 238.944 34.5554 234.132 35.7643 228.226C35.7643 229.981 35.9609 238.995 42.8703 246.254C49.2981 253.006 57.1215 253.615 58.9594 253.698C56.6399 254.472 53.5931 255.216 49.9566 255.412C47.4798 255.546 45.2684 255.402 43.4207 255.154C53.6226 259.232 65.0825 263.311 75.1566 258.861C72.385 262.216 69.0728 265.056 65.397 267.245C71.353 268.814 78.8423 270.156 87.5011 270.311C102.539 270.569 114.755 267.09 122.775 264.003V264.013Z" fill="#DA4D1F"/>
<path d="M233.61 146.317C220.774 155.919 216.705 169.693 215.575 174.164C210.454 163.137 205.343 152.12 200.223 141.092C203.161 136.653 206.297 131.294 209.216 125.016C212.783 117.314 215.132 110.158 216.715 104.098C231.064 109.302 245.355 126.266 252.244 138.17C247.871 138.986 240.765 140.969 233.61 146.317Z" fill="#867640" stroke="#231F20" stroke-width="0.640345" stroke-miterlimit="10"/>
<path d="M134.325 124.056C136.212 137.334 142.826 146.152 145.824 149.693C135.524 150.819 125.224 151.944 114.933 153.08C112.476 148.33 109.321 142.982 105.282 137.427C100.328 130.633 95.296 125.212 90.8438 121.01C101.704 109.859 122.54 104.036 135.76 102.91C134.551 107.257 133.037 114.825 134.344 124.056H134.325Z" fill="#867640" stroke="#231F20" stroke-width="1.28069" stroke-miterlimit="10"/>
<path d="M243.145 81.0104C242.821 89.508 206.239 94.2575 173.825 98.4702C141.47 102.672 108.024 107.009 105.783 99.2342C103.434 91.0877 135.072 68.5584 170.356 63.6126C206.515 58.543 243.479 72.3786 243.145 81.0104Z" fill="#C25E2A" stroke="#231F20" stroke-width="1.28069" stroke-miterlimit="10"/>
<path d="M215.987 191.51C225.649 192.325 232.873 182.537 244.254 167.111C253.414 154.69 259.154 143.281 262.515 135.723C266.653 130.117 271.174 123.013 275.263 114.371C281.435 101.33 284.482 89.2913 286.064 80.1226C286.614 80.3704 290.133 81.8572 293.504 79.9677C296.168 78.4809 299.018 74.7226 297.652 71.3256C296.629 68.796 293.573 67.2059 290.29 67.7738C291.008 64.2839 289.199 60.825 286.241 59.6686C283.685 58.6774 280.678 59.5756 278.86 61.9298C276.806 58.6464 273.267 57.3248 270.741 58.4399C267.105 60.03 267.341 65.8533 267.38 66.6896C267.498 69.5084 268.648 71.6044 269.306 72.6162C265.257 77.531 259.979 84.7379 255.154 94.237C248.578 107.185 248.097 112.636 241.099 124.913C234.937 135.734 228.617 143.013 227.064 144.685C211.358 161.536 198.738 160.772 197.343 169.961C196.006 178.82 206.051 190.673 215.987 191.51Z" fill="#F36B21" stroke="#231F20" stroke-width="1.28069" stroke-miterlimit="10"/>
<path d="M289.467 86.7828C286.282 95.6005 281.811 105.843 275.461 116.653C271.157 123.974 266.734 130.313 262.517 135.724C259.687 144.397 254.507 156.931 244.924 169.848C238.408 178.624 231.587 185.243 225.71 190.096C223.793 191.655 222.005 193.038 220.334 194.246C216.697 186.688 213.051 177.22 210.564 165.997C209.601 161.619 208.913 157.448 208.441 153.545C215.026 148.413 219.823 144.696 222.584 142.569C228.796 137.778 232.089 134.908 236.57 130.396C237.121 129.849 239.253 127.422 241.082 124.924C248.512 114.836 248.954 105.595 252.797 94.7848C254.674 89.519 257.977 82.1056 264.208 73.8765C271.854 77.8 279.511 81.7029 287.147 85.6161C287.914 86.0084 288.671 86.4008 289.447 86.7931L289.467 86.7828Z" fill="#AC9955" stroke="#231F20" stroke-width="0.640345" stroke-miterlimit="10"/>
<path d="M224.186 190.467C230.171 185.965 237.729 179.295 244.934 169.838C254.713 157.003 259.814 144.345 262.526 135.713C266.733 130.303 271.166 123.973 275.471 116.643C281.81 105.832 286.292 95.5898 289.476 86.7722C287.471 85.7397 285.476 84.7175 283.471 83.6953C281.721 90.8506 278.851 99.8851 273.986 109.684C268.895 119.926 263.165 127.825 258.399 133.514C258.33 133.648 258.212 133.886 258.035 134.216C249.799 150.23 245.671 158.222 242.447 162.362C233.356 174.009 223.527 182.816 223.527 182.816C223.527 182.816 223.626 188.64 224.196 190.467H224.186Z" fill="#8D7F45"/>
<path d="M289.466 86.8548C286.281 95.724 281.809 106.018 275.46 116.901C271.155 124.263 266.732 130.633 262.516 136.085C259.685 144.809 254.506 157.416 244.923 170.405C238.407 179.233 231.586 185.893 225.709 190.766C223.792 192.336 222.003 193.719 220.332 194.938C213.482 185.015 202.091 166.172 208.076 156.115C210.298 152.378 216.077 148.041 222.583 142.951C229.925 137.21 232.775 134.546 236.569 130.705C237.119 130.148 239.252 127.711 241.08 125.202C248.511 115.053 248.953 105.76 252.796 94.8877C254.673 89.5909 257.975 82.1362 264.207 73.8555C271.853 77.7997 279.509 81.7232 287.146 85.6674C287.913 86.0597 288.669 86.4521 289.446 86.8548H289.466Z" stroke="#231F20" stroke-width="1.28069" stroke-miterlimit="10"/>
<path d="M231.616 67.7741C231.39 68.1871 231.154 68.5898 230.908 68.9924L118.53 97.6136C118.235 95.817 117.695 93.5042 116.653 90.9746C115.69 88.6411 114.579 86.7722 113.606 85.3784C110.176 81.0315 100.672 67.8257 99.4827 48.0222C98.3524 29.3131 105.291 15.5911 108.092 10.6453C112.82 13.1027 118.334 16.5306 123.965 21.3008C134.639 30.325 141.214 40.299 145.077 47.413C150.119 45.286 159.505 38.6057 169.146 38.0172C178.189 37.4699 193.698 37.439 198.799 38.8122C203.251 21.8894 215.831 7.57879 231.518 1.54894C231.773 1.44569 232.029 1.34244 232.294 1.24951C243.4 21.3834 243.086 47.8673 231.616 67.7741Z" fill="#F36B21" stroke="#231F20" stroke-width="1.28069" stroke-miterlimit="10"/>
<path d="M230.88 67.7841C230.684 67.5363 230.418 67.1749 230.094 66.7412C228.62 64.7175 228.502 64.2735 228.541 63.9948C228.639 63.2823 229.15 62.7144 229.583 62.1466C230.133 61.4238 230.949 59.7821 232.433 56.3542C233.278 54.4028 235.853 47.1855 235.991 36.3545C236.079 29.2405 235.087 23.4172 234.016 17.1705C233.799 15.8902 232.836 11.7395 232.187 6.02972C232.02 4.5429 231.912 3.31422 231.843 2.49854C234.546 7.73336 239.726 19.442 239.5 35.2394C239.274 51.0781 233.73 62.6422 230.88 67.7841Z" fill="#DA4D1F"/>
<path d="M237.659 104.986C238.426 100.928 240.185 95.6518 244.431 91.7283C244.795 91.3875 245.168 91.0778 245.542 90.7783C243.448 90.5718 240.382 89.9936 237.138 88.259C230.868 84.9034 228.706 79.7202 222.897 70.4069C217.806 62.2398 214.278 56.1687 208.98 51.3365C202.1 45.0795 195.21 41.8684 190.778 40.2267C186.158 39.1013 178.6 37.9345 169.548 39.6382C163.573 40.7636 158.757 42.808 155.287 44.6252C150.206 47.4336 143.149 52.1006 136.299 59.6276C131.974 64.3771 124.8 72.5029 120.79 85.399C119.404 89.8491 119.04 94.4231 118.087 98.9558C116.878 104.707 113.34 110.675 108.956 114.371C111.069 114.237 113.045 113.308 114.971 112.389C110.725 117.438 107.993 123.85 107.246 130.54C109.064 126.947 112.111 124.077 115.689 122.518C115.797 129.053 112.819 135.569 107.905 139.585C110.391 138.625 112.897 137.654 115.404 136.673C120.741 134.577 126.028 132.471 131.247 130.334" fill="#F36B21"/>
<path d="M237.659 104.986C238.426 100.928 240.185 95.6518 244.431 91.7283C244.795 91.3875 245.168 91.0778 245.542 90.7783C243.448 90.5718 240.382 89.9936 237.138 88.259C230.868 84.9034 228.706 79.7202 222.897 70.4069C217.806 62.2398 214.278 56.1687 208.98 51.3365C202.1 45.0795 195.21 41.8684 190.778 40.2267C186.158 39.1013 178.6 37.9345 169.548 39.6382C163.573 40.7636 158.757 42.808 155.287 44.6252C150.206 47.4336 143.149 52.1006 136.299 59.6276C131.974 64.3771 124.8 72.5029 120.79 85.399C119.404 89.8491 119.04 94.4231 118.087 98.9558C116.878 104.707 113.34 110.675 108.956 114.371C111.069 114.237 113.045 113.308 114.971 112.389C110.725 117.438 107.993 123.85 107.246 130.54C109.064 126.947 112.111 124.077 115.689 122.518C115.797 129.053 112.819 135.569 107.905 139.585C110.391 138.625 112.897 137.654 115.404 136.673C120.741 134.577 126.028 132.471 131.247 130.334" stroke="#231F20" stroke-width="1.28069" stroke-miterlimit="10"/>
<path d="M119.012 76.1371C111.689 72.926 110.51 60.5256 109.891 52.0693C109.252 43.3033 110.736 34.5063 113.124 26.0811C116.938 30.5002 120.977 34.6922 124.83 39.0597C124.83 39.07 124.84 39.0597 124.84 39.0597C126.019 40.4329 127.199 41.8268 128.378 43.2414C133.784 49.7255 138.796 56.1993 143.435 62.6009C136.074 73.69 125.685 79.0591 119.012 76.1371Z" fill="#F6927F" stroke="#231F20" stroke-width="1.28069" stroke-miterlimit="10"/>
<path d="M209.393 47.2783C211.142 39.3073 214.798 31.801 219.958 25.6885C220.823 24.656 221.737 23.6648 222.681 22.7252C225.875 19.5451 229.482 16.8812 233.05 14.207C234.337 18.0376 235.831 23.7887 236.077 30.9027C236.106 31.739 236.224 35.7142 235.585 40.6909C234.101 52.2963 229.423 62.1464 225.895 68.3208L209.383 47.2783" fill="#F6927F"/>
<path d="M209.393 47.2783C211.142 39.3073 214.798 31.801 219.958 25.6885C220.823 24.656 221.737 23.6648 222.681 22.7252C225.875 19.5451 229.482 16.8812 233.05 14.207C234.337 18.0376 235.831 23.7887 236.077 30.9027C236.106 31.739 236.224 35.7142 235.585 40.6909C234.101 52.2963 229.423 62.1464 225.895 68.3208L209.383 47.2783" stroke="#231F20" stroke-width="1.28069" stroke-miterlimit="10"/>
<path d="M222.495 23.8197C223.517 23.9849 225.444 24.1501 227.675 23.4067C230.348 22.5188 232.009 20.8358 232.726 20.0098C232.835 21.1146 232.903 23.2828 231.92 25.6679C231.35 27.0412 230.613 28.0427 230.033 28.7138C230.662 28.5589 231.291 28.4041 231.92 28.2492C232.756 28.0427 233.581 27.8465 234.407 27.6607C233.365 29.3849 232.038 31.2951 230.368 33.2465C229.385 34.3926 228.412 35.4045 227.468 36.2924C228.127 36.6332 229.444 37.1907 231.174 37.1391C232.599 37.0978 233.699 36.6745 234.338 36.3647C233.67 38.3368 232.55 40.9594 230.633 43.6542C229.424 45.3579 228.176 46.6898 227.065 47.7223C227.783 47.6913 228.549 47.6294 229.365 47.5158C230.476 47.3609 231.488 47.1441 232.382 46.9066C231.459 48.4864 229.915 50.6959 227.468 52.7093C223.733 55.7862 219.91 56.7464 217.905 57.0975C215.409 55.2183 214.111 53.2153 213.394 51.6458C209.875 44.0466 213.502 32.9058 222.485 23.8404L222.495 23.8197Z" fill="#DD7162"/>
<path d="M219.959 25.6889C220.971 26.0606 222.681 26.5252 224.814 26.36C227.625 26.1432 229.65 24.9351 230.603 24.2847C229.679 26.7937 227.949 28.9619 225.748 30.3352C226.288 30.521 227.015 30.6965 227.89 30.7172C229.306 30.7688 230.436 30.3971 231.114 30.108C230.082 31.3161 228.844 32.6273 227.379 33.9386C225.669 35.4771 224.008 36.7161 222.524 37.6866C223.379 38.2029 224.804 38.9153 226.701 39.1941C228.313 39.4316 229.669 39.2767 230.573 39.0908C229.03 43.7681 225.531 47.6917 221.187 49.6018C222.19 49.6328 223.261 49.6224 224.391 49.5708C226.013 49.4882 227.507 49.3127 228.863 49.0959C227.635 50.2936 226.082 51.6152 224.155 52.8748C221.295 54.7437 218.593 55.8175 216.489 56.4576C213.197 55.9207 211.644 54.5475 210.858 53.5047C207.044 48.4764 210.297 37.0878 219.949 25.6992L219.959 25.6889Z" fill="white" stroke="#231F20" stroke-width="1.28069" stroke-miterlimit="10"/>
<path d="M138.984 56.8914C133.922 50.7067 128.861 44.522 123.799 38.3372C122.079 37.0053 120.29 35.5185 118.452 33.8355C117.067 32.5655 115.779 31.3058 114.59 30.0771C114.56 31.564 114.668 33.629 115.278 35.9831C115.848 38.203 116.664 39.9479 117.361 41.1869C116.713 40.6913 115.828 39.886 115.042 38.6676C113.882 36.8711 113.548 35.1055 113.44 34.1349C112.978 35.3739 111.543 39.6898 113.145 44.7491C114.393 48.6933 116.821 51.0164 117.902 51.925C117.155 52.0593 116.231 52.1625 115.179 52.1212C113.528 52.0489 112.182 51.6566 111.238 51.2952C111.681 52.5549 112.575 54.6096 114.403 56.5197C115.484 57.6555 116.585 58.4092 117.45 58.9048C117.145 59.132 116.742 59.3901 116.231 59.5863C115.14 60.0199 114.157 59.958 113.607 59.8754C113.823 60.5671 114.256 61.6823 115.189 62.7561C115.759 63.4065 116.339 63.8609 116.801 64.1603C116.526 64.2739 116.211 64.3874 115.858 64.4597C114.904 64.6869 114.059 64.6352 113.469 64.532C114.57 65.802 116.968 68.218 120.782 69.6326C124.202 70.9026 127.17 70.7787 128.772 70.5928L139.004 56.8811L138.984 56.8914Z" fill="#DD7162"/>
<path d="M139.279 56.7363L124.841 39.07H124.831C121.794 37.9962 118.974 36.2719 116.536 34.083C117.205 37.3561 118.502 40.4846 120.32 43.231C117.981 43.0245 115.249 42.5289 114.227 40.3194C114.227 45.6678 118.325 49.9836 122.482 53.0605C119.829 53.773 117.057 53.9795 114.344 53.6594C116.723 56.5917 120.399 58.2953 124.065 58.1611C121.627 59.5034 119.023 60.5049 116.33 61.1244C118.296 62.9829 120.89 64.0671 123.534 64.1703C121.244 64.604 118.934 65.0583 116.635 65.5023C120.664 68.3004 125.598 69.6013 130.394 69.2503L139.289 56.7466L139.279 56.7363Z" fill="white" stroke="#231F20" stroke-width="1.28069" stroke-miterlimit="10"/>
<path d="M226.633 261.163C226.682 273.842 222.809 286.779 214.593 296.062C205.305 306.531 193.029 310.94 180.017 313.449C178.906 310.465 176.803 305.736 172.753 301.276C168.635 296.743 164.429 294.575 163.102 293.842C163.583 293.728 164.036 293.573 164.458 293.367C167.171 292.004 168.34 289.299 167.918 286.831C167.495 284.374 165.736 282.133 163.652 280.192C162.375 279.005 160.92 277.869 160.075 276.465C160.075 276.465 159.053 274.627 158.895 272.118C158.502 265.592 164.429 232.882 164.724 217.168C165.156 193.73 153.46 184.406 159.78 159.832C160.37 157.52 160.979 155.661 161.382 154.494C163.701 153.947 166.021 153.348 168.409 152.997C171.22 152.584 174.07 152.563 176.911 152.553C179.24 152.543 181.599 152.532 183.859 153.069C188.597 154.184 189.049 155.372 192.843 156.353C195.575 157.065 198.818 157.168 201.963 156.477C203.634 155.95 204.745 156.177 205.453 156.497C208.942 158.067 210.327 165.243 208.401 174.37C205.846 174.463 203.261 173.761 201.089 172.346C204.037 178.583 208.214 184.179 213.256 188.691C211.271 189.094 209.197 188.939 207.3 188.247C209.472 190.136 211.939 192.635 214.328 195.836C218.416 201.35 220.657 206.77 221.905 210.694C221.63 210.239 219.841 207.483 216.519 207.018C214.573 206.75 213.05 207.39 212.362 207.73C219.429 213.512 224.126 222.392 225.07 231.747C222.682 228.804 219.91 226.202 216.853 224.044C223.674 234.421 226.603 248.545 226.643 261.152L226.633 261.163Z" fill="#E6E7E8" stroke="#231F20" stroke-width="1.28069" stroke-miterlimit="10"/>
<path d="M185.728 91.8414C185.679 92.6262 185.6 93.8135 185.099 95.1248C182.946 100.783 175.123 103.251 169.295 103.158C166.209 103.106 161.088 103.034 158.326 99.3478C153.933 93.4935 157.196 80.1121 166.022 76.5913C171.87 74.2578 178.897 76.7565 182.563 81.5783C183.212 82.4353 186.101 86.4518 185.738 91.8414H185.728Z" fill="white" stroke="#231F20" stroke-width="1.28069" stroke-miterlimit="10"/>
<path d="M223.145 93.1221C220.412 96.3539 216.186 96.199 215.891 96.1887C210.82 95.9202 208.088 91.2223 207.537 90.2621C204.766 85.5022 204.638 78.2024 208.373 74.9087C209.935 73.5354 211.724 73.2566 212.481 73.1431C217.552 72.4203 221.307 76.6123 221.779 77.1698C225.346 81.2792 226.811 88.7959 223.145 93.1324V93.1221Z" fill="white" stroke="#231F20" stroke-width="1.28069" stroke-miterlimit="10"/>
<path d="M224.302 105.523C224.155 105.977 212.046 98.3263 197.736 101.062C187.947 102.942 180.487 109.033 175.219 114.826C175.219 114.826 169.45 111.419 159.602 110.975C152.024 110.644 144.456 112.699 144.505 113.256C144.525 113.38 144.849 113.36 145.852 113.638C147.503 114.082 148.663 114.712 149.478 115.156C149.813 115.332 154 117.614 153.734 118.45C153.429 119.389 147.975 116.911 140.544 117.407C133.625 117.872 128.269 120.69 128.367 121.114C128.426 121.382 130.519 120.711 133.812 121.165C134.274 121.227 138.874 121.878 138.952 123.055C139.021 124.315 133.792 124.707 128.161 127.959C126.274 129.054 124.337 130.468 122.549 132.358C122.549 132.358 122.549 132.389 122.509 132.399C122.224 132.699 119.482 135.621 117.349 139.079C117.045 139.575 116.74 140.091 116.475 140.608C115.865 140.525 115.276 140.391 114.696 140.174C114.303 140.029 113.87 139.812 113.733 139.399C113.624 139.059 113.733 138.687 113.831 138.357C114.303 136.86 114.902 135.6 115.59 134.206C116.209 132.957 118.735 130.055 124.839 126.338C126.254 125.471 127.443 124.831 128.17 124.459C126.303 123.922 124.446 123.385 122.578 122.848C125.084 119.255 127.748 117.655 129.35 116.911C130.922 116.189 132.416 115.838 134.805 115.28C137.311 114.692 139.444 114.382 140.977 114.196C140.829 113.886 140.554 113.422 140.073 112.998C139.286 112.306 138.431 112.152 138.068 112.121C138.854 111.78 139.67 111.449 140.495 111.14C152.555 106.659 164.604 107.856 174.521 110.675C178.217 106.844 185.962 100.03 197.117 98.4502C212.194 96.3232 224.459 105.048 224.302 105.513V105.523Z" fill="#DA4D1F"/>
<path d="M178.721 90.0141C178.466 96.3331 172.932 100.504 167.733 100.618C163.379 100.711 159.251 97.9541 157.148 93.5763C156.902 92.3166 156.46 89.2294 157.865 85.8635C158.091 85.3162 160.204 80.4325 165.217 78.9043C165.856 78.7082 167.094 78.4087 168.637 78.4707C174.446 78.7288 178.977 83.9017 178.731 90.0141H178.721Z" fill="#3C2415" stroke="#231F20" stroke-width="1.28069" stroke-miterlimit="10"/>
<path d="M221.089 86.6381C221.089 87.3093 221.05 89.5704 219.526 91.6251C216.941 95.1253 212.42 94.8259 211.939 94.7949C210.838 94.0825 208.98 92.6783 207.526 90.2622C205.462 86.824 203.879 80.7631 206.749 77.5004C208.165 75.8897 210.101 75.6006 210.533 75.549C215.585 74.9398 221.099 80.9696 221.079 86.6278L221.089 86.6381Z" fill="#3C2415" stroke="#231F20" stroke-width="1.28069" stroke-miterlimit="10"/>
<path d="M240.392 76.7259C229.728 71.3362 211.054 63.8195 187.142 63.9331C144.997 64.1293 116.003 87.8976 107.207 95.7241C110.234 86.194 114.303 79.7512 117.429 75.6727C122.146 69.5087 127.306 62.787 133.007 59.2868C133.813 58.8015 136.152 57.4283 137.931 54.6096C138.255 54.083 138.54 53.5564 138.766 53.0401C139.641 51.1093 139.896 49.3541 140.014 48.4145C140.073 48.0118 140.122 47.6195 140.162 47.2374C140.23 46.6696 140.289 46.1327 140.348 45.6061C141.606 34.1452 140.358 29.0859 143.611 23.8305C143.808 23.5001 145.872 20.2683 148.948 18.6473C149.99 18.1104 151.13 17.7387 152.369 17.7283C154.059 17.718 155.248 18.3685 156.447 18.9777C157.863 19.6901 171.485 26.5563 175.072 22.9735C176.664 21.3937 174.748 19.2977 176.743 16.5822C178.925 13.6086 183.485 13.0201 185.186 12.7929C186.522 12.6174 187.515 12.6484 187.741 12.6587C188.488 12.6794 193.068 12.9065 196.557 15.8905C198.523 17.5631 199.614 19.6901 200.941 23.6756C201.609 25.689 202.336 28.1567 202.995 31.089C203.24 32.1422 203.457 33.2573 203.673 34.4343C203.761 34.9093 203.85 35.4152 203.928 35.9315C203.997 36.3651 204.066 36.7988 204.125 37.2428C204.331 38.6883 204.518 40.1957 204.666 41.7858C209.216 45.1311 213.993 48.9824 218.877 53.4222C227.654 61.3828 234.741 69.4157 240.412 76.7259H240.392Z" fill="#CB8641" stroke="#231F20" stroke-width="0.640345" stroke-miterlimit="10"/>
<path d="M247.891 119.038C247.891 119.038 246.663 117.468 244.265 116.715C242.584 116.178 240.441 116.271 240.146 117.066C239.812 117.995 242.318 118.965 244.265 122.259C245.699 124.706 245.68 128.32 245.68 128.32C245.68 128.32 245.021 127.69 243.921 127.05C242.898 126.451 240.54 125.79 239.517 125.718C236.893 125.522 234.348 128.578 230.593 132.027C225.03 137.138 219.33 140.782 216.234 144.272C214.376 146.368 213.393 147.896 213.393 147.896C213 148.506 212.617 149.125 212.214 149.724C211.359 150.901 210.504 151.789 209.757 152.491C209.266 152.925 208.833 153.265 208.46 153.534C206.523 154.979 204.273 155.909 201.953 156.415C198.818 157.117 195.565 157.003 192.832 156.291C189.029 155.31 188.577 154.122 183.849 153.007C181.589 152.47 179.23 152.481 176.901 152.491C174.07 152.501 171.21 152.512 168.399 152.935C163.131 153.699 158.227 155.681 152.909 155.723C150.472 155.743 146.098 155.444 141.263 153.11C138.462 151.768 136.24 150.034 134.766 148.712C133.439 147.514 132.702 146.626 132.702 146.626C131.739 145.697 131.071 144.964 129.921 144.406C126.412 143.56 123.749 143.973 122.117 144.417C121.213 144.665 120.505 144.964 119.778 145.263C116.269 146.688 113.9 148.382 113.203 148.939H112.977C112.977 148.939 112.986 148.939 112.986 148.929C114.48 147.349 114.805 145.325 114.913 144.757C115.119 143.622 115.581 142.414 116.171 141.226C116.505 140.504 116.918 139.781 117.35 139.079C119.483 135.609 122.225 132.698 122.51 132.388C122.53 132.378 122.549 132.347 122.549 132.347C124.348 130.457 126.284 129.043 128.171 127.948C133.803 124.696 139.022 124.304 138.953 123.034C138.884 121.856 134.275 121.206 133.813 121.144C130.53 120.69 128.427 121.361 128.368 121.092C128.279 120.659 133.626 117.85 140.545 117.386C147.976 116.9 153.43 119.368 153.725 118.429C153.991 117.592 149.804 115.321 149.469 115.135C148.654 114.691 147.504 114.071 145.843 113.617C144.84 113.349 144.516 113.359 144.506 113.235C144.457 112.677 152.015 110.623 159.603 110.953C169.451 111.387 175.21 114.804 175.21 114.804C176.832 112.739 185.54 102.032 200.499 100.68C212.479 99.5956 221.237 105.181 223.9 107.04C225.129 100.081 229.158 94.526 234.279 93.1734C238.23 92.1202 242.584 93.638 243.213 93.8652C245.424 94.6602 247.075 95.7753 248.147 96.622C248.147 96.622 245.365 96.6426 241.631 97.861C240.52 98.212 239.006 98.7179 239.026 99.3065C239.046 99.9157 240.726 100.163 242.338 100.731C246.81 102.311 249.552 106.627 249.719 106.895C249.592 106.854 247.39 106.038 242.79 104.996C239.832 104.324 239.635 104.583 239.596 104.665C239.419 105.078 241.532 106.162 242.79 107.123C244.923 108.754 247.184 111.996 247.872 119.027L247.891 119.038Z" fill="white"/>
<path d="M247.891 119.038C247.891 119.038 246.663 117.468 244.265 116.715C242.584 116.178 240.441 116.271 240.146 117.066C239.812 117.995 242.318 118.965 244.265 122.259C245.699 124.706 245.68 128.32 245.68 128.32C245.68 128.32 245.021 127.69 243.921 127.05C242.898 126.451 240.54 125.79 239.517 125.718C236.893 125.522 234.348 128.578 230.593 132.027C225.03 137.138 219.33 140.782 216.234 144.272C214.376 146.368 213.393 147.896 213.393 147.896C213 148.506 212.617 149.125 212.214 149.724C211.359 150.901 210.504 151.789 209.757 152.491C209.266 152.925 208.833 153.265 208.46 153.534C206.523 154.979 204.273 155.909 201.953 156.415C198.818 157.117 195.565 157.003 192.832 156.291C189.029 155.31 188.577 154.122 183.849 153.007C181.589 152.47 179.23 152.481 176.901 152.491C174.07 152.501 171.21 152.512 168.399 152.935C163.131 153.699 158.227 155.681 152.909 155.723C150.472 155.743 146.098 155.444 141.263 153.11C138.462 151.768 136.24 150.034 134.766 148.712C133.439 147.514 132.702 146.626 132.702 146.626C131.739 145.697 131.071 144.964 129.921 144.406C126.412 143.56 123.749 143.973 122.117 144.417C121.213 144.665 120.505 144.964 119.778 145.263C116.269 146.688 113.9 148.382 113.203 148.939H112.977C112.977 148.939 112.986 148.939 112.986 148.929C114.48 147.349 114.805 145.325 114.913 144.758C115.119 143.622 115.581 142.414 116.171 141.226C116.505 140.504 116.918 139.781 117.35 139.079C119.483 135.609 122.225 132.698 122.51 132.388C122.53 132.378 122.549 132.347 122.549 132.347C124.348 130.457 126.284 129.043 128.171 127.948C133.803 124.696 139.022 124.304 138.953 123.034C138.884 121.856 134.275 121.206 133.813 121.144C130.53 120.69 128.427 121.361 128.368 121.092C128.279 120.659 133.626 117.85 140.545 117.386C147.976 116.9 153.43 119.368 153.725 118.429C153.991 117.592 149.804 115.321 149.469 115.135C148.654 114.691 147.504 114.071 145.843 113.617C144.84 113.349 144.516 113.359 144.506 113.235C144.457 112.677 152.015 110.623 159.603 110.953C169.451 111.387 175.21 114.804 175.21 114.804C176.832 112.739 185.54 102.032 200.499 100.68C212.479 99.5956 221.237 105.181 223.9 107.04C225.129 100.081 229.158 94.526 234.279 93.1734C238.23 92.1202 242.584 93.638 243.213 93.8652C245.424 94.6602 247.075 95.7753 248.147 96.622C248.147 96.622 245.365 96.6426 241.631 97.861C240.52 98.212 239.006 98.7179 239.026 99.3065C239.046 99.9157 240.726 100.163 242.338 100.731C246.81 102.311 249.552 106.627 249.719 106.895C249.592 106.854 247.39 106.038 242.79 104.996C239.832 104.324 239.635 104.583 239.596 104.665C239.419 105.078 241.532 106.162 242.79 107.123C244.923 108.754 247.184 111.996 247.872 119.027L247.891 119.038Z" stroke="#231F20" stroke-width="0.640345" stroke-miterlimit="10"/>
<path d="M209.748 152.491C208.284 153.699 205.65 155.527 201.944 156.415C200.362 156.787 196.814 157.323 192.824 156.291C189.02 155.31 188.568 154.123 183.841 153.008C181.58 152.471 179.221 152.481 176.892 152.491C174.061 152.502 171.201 152.512 168.39 152.935C163.122 153.699 158.218 155.682 152.901 155.723C150.463 155.744 146.09 155.444 141.254 153.111C138.453 151.769 136.232 150.034 134.757 148.712C133.431 147.515 132.693 146.627 132.693 146.627C131.73 145.697 131.062 144.964 129.912 144.407C129.873 144.366 129.843 144.355 129.804 144.345C129.539 144.19 129.303 144.087 129.106 144.056C126.393 143.54 123.917 143.973 123.13 144.138C123.052 144.149 122.953 144.18 122.865 144.2C122.619 144.273 122.374 144.345 122.118 144.417C121.292 144.675 120.506 144.954 119.779 145.264L116.172 141.227C116.506 140.504 116.919 139.781 117.351 139.079C120.555 137.84 125.244 136.58 130.669 137.303C139.357 138.46 139.76 143.364 148.38 146.41C159.849 150.457 170.543 145.79 182.111 147.979C184.863 148.496 187.398 149.167 187.398 149.167C190.583 150.179 192.077 151.325 196.627 152.213C202.19 153.286 206.672 152.884 209.758 152.481L209.748 152.491Z" fill="#E6E7E8"/>
<path d="M190.653 275.37C203.705 249.599 207.715 218.902 201.749 190.385C200.57 184.737 198.977 179.089 196.048 174.195C193.12 169.301 188.687 165.191 183.36 163.756C176.136 161.815 167.88 165.511 164.214 172.326L153.609 204.509L190.663 275.37H190.653Z" fill="white"/>
<path d="M247.891 119.038C247.891 119.038 246.663 117.468 244.265 116.715C242.584 116.178 240.146 117.066 240.146 117.066C240.146 117.066 242.319 118.965 244.265 122.259C245.699 124.706 245.68 128.32 245.68 128.32C245.68 128.32 245.021 127.69 243.921 127.05C242.898 126.451 240.54 125.79 239.517 125.718C236.893 125.522 234.348 128.578 230.593 132.027C225.03 137.138 219.33 140.782 216.234 144.272C214.376 146.368 213.393 147.896 213.393 147.896C213 148.506 212.617 149.125 212.214 149.724C211.359 150.901 210.504 151.789 209.757 152.491C209.266 152.925 208.833 153.265 208.46 153.534C206.523 154.979 204.273 155.909 201.953 156.415C198.818 157.117 195.565 157.003 192.832 156.291C189.029 155.31 188.577 154.122 183.849 153.007C181.589 152.47 179.23 152.481 176.901 152.491C174.07 152.501 171.21 152.512 168.399 152.935C163.131 153.699 158.227 155.681 152.909 155.723C150.472 155.743 146.098 155.444 141.263 153.111C138.462 151.768 136.24 150.034 134.766 148.712C133.439 147.514 132.702 146.626 132.702 146.626C131.739 145.697 131.071 144.964 129.921 144.406C126.412 143.56 123.749 143.973 122.117 144.417C121.213 144.665 120.505 144.964 119.778 145.263C116.269 146.688 113.9 148.382 113.203 148.939H112.977C112.977 148.939 112.986 148.939 112.986 148.929C114.48 147.349 114.805 145.325 114.913 144.758C115.119 143.622 115.581 142.414 116.171 141.226C116.505 140.504 116.918 139.781 117.35 139.079C119.483 135.609 122.225 132.698 122.51 132.388C122.53 132.378 122.549 132.347 122.549 132.347C124.348 130.457 126.284 129.043 128.171 127.948C133.803 124.696 139.022 124.304 138.953 123.034C138.884 121.856 134.275 121.206 133.813 121.144C130.53 120.69 128.427 121.361 128.368 121.092C128.279 120.659 133.626 117.85 140.545 117.386C147.976 116.9 153.43 119.368 153.725 118.429C153.991 117.592 149.804 115.321 149.469 115.135C148.654 114.691 147.504 114.071 145.843 113.617C144.84 113.349 144.516 113.359 144.506 113.235C144.457 112.677 152.015 110.623 159.603 110.953C169.451 111.387 175.21 114.804 175.21 114.804C176.832 112.739 185.54 102.032 200.499 100.68C212.479 99.5956 221.237 105.181 223.9 107.04C225.129 100.081 229.158 94.526 234.279 93.1734C238.23 92.1202 242.584 93.638 243.213 93.8652C245.424 94.6602 247.075 95.7753 248.147 96.622C248.147 96.622 245.365 96.6426 241.631 97.861C240.52 98.212 239.026 99.3065 239.026 99.3065C239.026 99.3065 240.726 100.163 242.338 100.731C246.81 102.311 249.552 106.627 249.719 106.895C249.592 106.854 247.39 106.038 242.79 104.996C239.832 104.324 239.596 104.665 239.596 104.665C239.596 104.665 241.532 106.162 242.79 107.123C244.923 108.754 247.184 111.996 247.872 119.027L247.891 119.038Z" stroke="#231F20" stroke-width="1.28069" stroke-miterlimit="10"/>
<path d="M241.945 309.299C225.993 315.246 202.297 321.988 173.028 322.907C153.784 323.516 136.849 321.451 123.041 318.612C117.36 317.445 112.219 316.154 107.649 314.864C111.355 293.697 113.851 275.752 115.522 262.309C119.983 215.429 119.225 203.139 118.379 196.242C117.043 185.339 115.63 167.721 108.553 153.927C107.512 151.903 102.086 141.629 93.4865 124.892C93.2703 124.469 92.7592 123.478 92.543 123.055C96.4547 122.105 101.064 121.279 106.263 120.907C112.937 120.432 118.814 120.824 123.601 121.496C122.873 123.984 121.881 128.537 122.706 134.113C123.296 138.088 124.603 141.175 125.645 143.189C128.898 141.619 133.419 139.895 138.992 139.079C148.103 137.747 155.573 139.513 159.887 140.917C158.551 143.612 157.076 147.236 156.064 151.696C154.796 157.324 154.747 162.218 154.973 165.708C162.836 174.102 172.418 186.079 180.822 202.052C192.763 224.726 197.294 245.861 199.171 259.903C202.916 254.07 207.604 245.242 209.884 233.791C216.194 202.217 202.828 158.356 204.439 155.734C205.609 155.3 206.788 154.856 207.958 154.422C210.73 159.502 214.769 167.163 219.31 176.662C229.61 198.201 234.966 208.928 237.04 222.599C238.996 235.526 237.04 237.973 237.158 258.737C237.227 271.261 238.151 288.514 241.925 309.288L241.945 309.299Z" fill="#AC9955" stroke="#231F20" stroke-width="0.640345" stroke-miterlimit="10"/>
<path d="M212.836 317.91C207.283 319.138 201.337 320.222 195.037 321.069C188.127 322.009 180.766 322.659 173.031 322.907C153.777 323.516 136.853 321.451 123.044 318.601C117.363 317.445 112.223 316.144 107.652 314.853C112.193 292.83 114.375 274.606 115.525 262.309C117.078 245.551 118.532 229.96 118.916 215.66C125.638 216.971 133.01 222.34 137.01 225.975C140.676 229.31 143.605 232.16 146.249 234.916C152.303 241.225 156.411 246.326 157.335 247.451C165.404 257.322 188.874 286.046 204.796 281.534C215.077 278.623 217.849 263.073 220.325 263.899C222.232 264.529 222.301 274.286 212.836 317.91Z" fill="#8D7F45"/>
<path d="M141.881 161.454C139.965 164.262 138.048 167.081 136.132 169.889C127.522 179.068 124.072 187.886 122.529 193.245C114.902 219.708 129.635 247.193 130.274 248.36C134.402 255.866 140.869 271.87 140.869 271.87L143.1 279.294C141.931 279.655 140.103 280.409 138.373 282.03C137.419 282.928 134.205 285.933 134.736 289.743C134.795 290.166 135.139 292.624 137.007 293.635C138.923 294.668 141.714 293.873 143.513 291.416C143.631 291.632 145.518 295.06 149.322 295.267C152.005 295.411 154.57 293.883 155.887 291.343C156.27 291.674 159.376 294.265 163.091 293.191C163.72 293.016 165.833 292.407 166.806 290.466C168.605 286.873 164.762 282.123 164.231 281.493C162.118 278.953 159.484 277.941 157.961 277.518C157.98 275.205 158.03 272.882 158.108 270.528C158.747 251.168 161.184 233.12 164.713 216.517" fill="#F36B21"/>
<path d="M141.881 161.454C139.965 164.262 138.048 167.081 136.132 169.889C127.522 179.068 124.072 187.886 122.529 193.245C114.902 219.708 129.635 247.193 130.274 248.36C134.402 255.866 140.869 271.87 140.869 271.87L143.1 279.294C141.931 279.655 140.103 280.409 138.373 282.03C137.419 282.928 134.205 285.933 134.736 289.743C134.795 290.166 135.139 292.624 137.007 293.635C138.923 294.668 141.714 293.873 143.513 291.416C143.631 291.632 145.518 295.06 149.322 295.267C152.005 295.411 154.57 293.883 155.887 291.343C156.27 291.674 159.376 294.265 163.091 293.191C163.72 293.016 165.833 292.407 166.806 290.466C168.605 286.873 164.762 282.123 164.231 281.493C162.118 278.953 159.484 277.941 157.961 277.518C157.98 275.205 158.03 272.882 158.108 270.528C158.747 251.168 161.184 233.12 164.713 216.517" stroke="#231F20" stroke-width="1.28069" stroke-miterlimit="10"/>
<path d="M172.035 23.9954C173.146 24.5014 174.876 25.1828 177.077 25.5958C179.957 26.1431 182.345 26.587 183.937 25.1209C184.311 24.7698 185.323 23.696 185.412 21.187" stroke="#231F20" stroke-width="1.28069" stroke-miterlimit="10"/>
<path d="M203.665 34.4449L140.164 47.2376C140.321 41.2491 140.773 36.2208 141.235 32.3902C141.678 28.6628 142.12 26.319 143.614 23.8307C143.81 23.5003 145.874 20.2685 148.951 18.6475C149.059 19.1534 147.634 21.4043 147.28 25.2865C146.906 29.5404 148.046 33.2368 149.295 35.9936C156.253 33.8666 164.873 31.8533 174.849 30.862C185.758 29.7676 195.321 30.2012 202.977 31.0995L203.656 34.4449H203.665Z" fill="#AA6B34"/>
<path d="M204.118 37.2427C204.118 37.2427 204.098 37.2518 204.078 37.2518" stroke="#231F20" stroke-width="0.640345" stroke-miterlimit="10"/>
<path d="M240.392 76.7259C229.728 71.3362 211.054 63.8195 187.142 63.9331C144.997 64.1293 116.003 87.8976 107.207 95.7241C107.374 95.2388 107.522 94.7432 107.698 94.2682C110.657 85.5332 114.47 79.5446 117.429 75.6727C122.146 69.5087 127.306 62.787 133.007 59.2868C133.813 58.8015 136.152 57.4283 137.931 54.6096C138.255 54.083 138.54 53.5564 138.766 53.0401C139.415 51.5946 139.719 50.2627 139.896 49.2818C139.945 48.9514 139.975 48.6623 140.014 48.4145C140.073 48.0118 140.122 47.6195 140.162 47.2374C140.23 46.6696 140.289 46.1327 140.348 45.6061C141.606 34.1452 140.358 29.0859 143.611 23.8305C143.808 23.5001 145.872 20.2683 148.948 18.6473C149.99 18.1104 151.13 17.7387 152.369 17.7283C154.059 17.718 155.248 18.3685 156.447 18.9777C157.863 19.6901 171.485 26.5563 175.072 22.9735C176.664 21.3937 174.748 19.2977 176.743 16.5822C178.925 13.6086 183.485 13.0201 185.186 12.7929C186.522 12.6174 187.515 12.6484 187.741 12.6587C188.488 12.6794 193.068 12.9065 196.557 15.8905C198.523 17.5631 199.614 19.6901 200.941 23.6756C201.609 25.689 202.336 28.1567 202.995 31.089C203.24 32.1422 203.457 33.2573 203.673 34.4343C203.761 34.9093 203.85 35.4152 203.928 35.9315C203.997 36.3651 204.066 36.7988 204.125 37.2428C204.331 38.6883 204.518 40.1957 204.666 41.7858C209.216 45.1311 213.993 48.9824 218.877 53.4222C227.654 61.3828 234.741 69.4157 240.412 76.7259H240.392Z" stroke="#231F20" stroke-width="0.640345" stroke-miterlimit="10"/>
<path d="M139.897 49.2815C142.177 48.1458 145.008 46.8345 148.31 45.5542C176.557 34.6096 204.48 38.9152 204.647 41.7855C204.824 44.7695 174.66 41.5171 143.16 60.7527C126.413 70.9849 115.031 84.0461 107.699 94.2576C110.658 85.5226 114.471 79.5341 117.429 75.6621C122.147 69.4981 127.307 62.7764 133.007 59.2762C133.607 58.9045 136.103 57.521 137.931 54.599C138.325 53.9691 138.6 53.4116 138.767 53.0296" fill="#AA6B34"/>
<path d="M204.657 41.7856C199.851 41.4758 194.337 41.3726 188.264 41.672C182.17 41.9611 175.487 42.6838 168.371 44.0468C156.606 46.2873 146.65 49.6946 138.758 53.0399C139.406 51.5944 139.711 50.2625 139.888 49.2816C139.937 48.9512 139.967 48.6621 140.006 48.4143C140.065 48.0116 140.114 47.6192 140.153 47.2372C140.222 46.6693 140.281 46.1324 140.34 45.6058C146.1 41.1867 153.097 38.9152 160.066 37.3045C174.337 33.9695 189.089 33.0092 203.655 34.4341H203.724L203.91 35.9312L204.077 37.2529L204.647 41.7856H204.657Z" fill="#3F140F"/>
<path d="M113.704 167.266C113.704 167.266 105.959 148.454 101.094 138.48C98.3714 132.894 95.5997 127.556 92.8281 122.486C96.1698 121.888 98.8333 121.206 100.72 120.659C102.784 120.06 103.974 119.626 105.33 120.132C106.342 120.514 107.659 121.516 108.74 124.51C111.767 132.966 117.055 177.664 117.055 177.664L113.714 167.256L113.704 167.266Z" fill="#CCBF80"/>
<path d="M164.714 216.517C164.587 221.494 164.075 227.988 162.405 240.885C161.245 249.888 159.948 258.83 159.289 264.911C156.4 264.168 153.087 263.786 149.451 264.178C148.792 264.25 146.738 264.498 144.134 265.283C142.315 265.83 139.848 266.77 137.087 268.411C134.138 263.868 130.118 256.919 126.747 247.823C122.973 237.653 115.061 216.321 122.541 193.245C124.3 187.824 127.976 179.006 136.143 169.889C138.06 163.488 140.183 161.722 141.883 161.454C149.893 160.184 165.422 189.001 164.714 216.507V216.517Z" fill="#AC9955" stroke="#231F20" stroke-width="1.28069" stroke-miterlimit="10"/>
<path d="M158.325 180.038C158.325 192.232 151.573 201.009 143.317 199.635C135.14 198.283 128.574 187.472 128.574 175.495C128.574 163.518 135.14 154.721 143.317 155.857C151.494 156.993 158.325 167.844 158.325 180.038Z" fill="#AC9955"/>
<path d="M76.9778 187.628C77.1743 187.545 78.0884 189.765 80.3784 193.038C81.1745 194.174 81.9018 195.103 82.4817 195.805C82.8257 195.217 83.2286 194.37 83.4744 193.286C83.9068 191.355 83.6021 189.734 83.3761 188.887C84.4769 190.715 85.9511 193.606 86.757 197.385C87.9561 203.002 87.0224 207.586 86.7276 209.279C85.784 214.566 85.3712 223.146 88.0446 237.312C84.2508 229.589 82.9535 223.105 82.462 218.613C81.7642 212.16 82.806 210.415 81.6758 203.673C80.172 194.628 76.624 187.793 76.9778 187.638V187.628Z" fill="#F58220"/>
<path d="M79.4551 181.69C79.4747 183.466 79.4059 185.118 79.288 186.626C76.9292 182.764 73.5384 179.605 69.5972 177.612C72.8798 183.384 75.0912 189.806 76.0544 196.445C73.4302 191.571 68.86 187.906 63.7001 186.533C64.5355 187.514 66.4815 190.074 67.0319 193.956C67.4644 196.982 66.8354 199.418 66.4226 200.668C65.9705 198.076 64.909 194.111 62.1669 190.26C61.2135 188.897 60.2209 187.782 59.2773 186.884C57.174 194.999 58.1667 203.941 61.99 211.344C58.4321 206.76 54.5793 202.454 50.4514 198.438C51.6996 201.184 53.0068 204.56 54.0388 208.525C55.2182 213.017 55.7391 217.074 55.9553 220.378C53.4687 218.861 49.2327 215.784 45.95 210.311C44.2202 207.42 43.2374 204.664 42.6575 202.495C41.6746 206.625 40.7508 212.283 40.8687 219.015C41.0063 226.419 42.3725 232.521 43.66 236.806C41.8515 233.316 39.2667 230.29 36.1806 227.988C36.043 227.864 35.8857 227.75 35.7383 227.647C35.6203 223.218 34.5687 218.623 31.63 215.474C27.8067 211.385 21.8802 210.714 16.8481 208.515C7.18673 204.302 0.709809 193.337 0.985005 182.434C1.00466 181.195 1.1226 179.987 1.31917 178.768C1.31917 182.63 3.56988 186.192 6.46926 188.556C9.3883 190.931 12.8774 192.304 16.3272 193.647C12.2385 191.303 9.2507 186.935 8.47426 182.114C10.8134 184.53 14.3123 185.387 17.595 185.149C20.8777 184.901 24.0228 183.714 27.1089 182.527C26.0278 181.876 24.6125 181.153 22.8925 180.575C20.976 179.945 19.256 179.687 17.9292 179.594C31.5121 169.507 49.3113 165.914 65.4791 170.033C69.6168 171.076 73.6858 172.625 77.1945 175.165C77.8825 175.671 78.5508 176.197 79.1602 176.745C79.3076 178.252 79.4157 179.894 79.4354 181.68L79.4551 181.69Z" fill="white"/>
<path d="M40.1885 221.215C41.4662 226.192 41.6726 230.508 41.6235 233.512C39.6676 231.561 37.7019 229.609 35.7461 227.658C35.6281 223.228 34.5765 218.634 31.6378 215.485C27.8146 211.396 21.888 210.725 16.8559 208.526C7.19455 204.313 0.717622 193.348 0.992818 182.444C4.95367 187.142 5.52372 187.865 5.52372 187.865C6.65398 190.446 8.5607 193.967 11.8139 197.178C21.0428 206.285 31.4707 203.415 36.9845 212.542C38.6651 215.33 39.5104 218.592 40.1787 221.225L40.1885 221.215Z" fill="#E6E7E8"/>
<path d="M233.17 113.143C233.121 115.053 232.748 120.897 228.59 126.266C225.052 130.84 220.718 132.512 219.204 133.07C216.688 133.999 211.862 135.238 198.555 131.366C187.163 128.052 177.266 123.241 177.561 122.373C178.043 120.959 203.597 136.168 221.691 125.657C227.784 122.115 231.313 116.653 233.18 113.143H233.17Z" fill="#E6E7E8"/>
<path d="M209.453 134.133C212.461 134.587 215.114 134.381 217.434 133.565C217.434 133.565 221.041 132.605 223.95 130.684C227.184 128.558 231.439 122.228 233.159 113.132" stroke="#231F20" stroke-width="1.92103" stroke-miterlimit="10"/>
<path d="M209.197 141.991C207.644 144.686 204.941 146.183 202.612 146.09C201.462 146.049 200.41 145.821 199.467 145.45C199.467 145.45 198.503 145.068 197.589 144.459C196.587 143.798 193.442 140.587 188.921 135.641C185.874 132.306 182.198 128.186 178.109 123.488C184.665 126.596 191.751 129.384 199.368 131.593C201.747 132.296 204.184 132.936 206.671 133.514C207.683 133.751 208.686 133.979 209.698 134.185C209.845 134.567 211.29 138.315 209.197 141.97V141.991Z" fill="#6A0C0D" stroke="#231F20" stroke-width="0.640345" stroke-miterlimit="10"/>
<path d="M273.366 69.0336C275.075 69.0336 276.461 67.5775 276.461 65.7812C276.461 63.985 275.075 62.5288 273.366 62.5288C271.656 62.5288 270.27 63.985 270.27 65.7812C270.27 67.5775 271.656 69.0336 273.366 69.0336Z" fill="#6A0C0D" stroke="#231F20" stroke-width="1.28069" stroke-miterlimit="10"/>
<path d="M283.362 69.9628C285.071 69.9628 286.458 68.5067 286.458 66.7104C286.458 64.9142 285.071 63.458 283.362 63.458C281.652 63.458 280.266 64.9142 280.266 66.7104C280.266 68.5067 281.652 69.9628 283.362 69.9628Z" fill="#6A0C0D" stroke="#231F20" stroke-width="1.28069" stroke-miterlimit="10"/>
<path d="M291.427 77.634C293.116 76.8964 293.954 74.9539 293.297 73.2952C292.641 71.6365 290.74 70.8898 289.051 71.6274C287.362 72.365 286.524 74.3075 287.18 75.9662C287.837 77.6249 289.738 78.3716 291.427 77.634Z" fill="#6A0C0D" stroke="#231F20" stroke-width="1.28069" stroke-miterlimit="10"/>
<path d="M222.428 101.92C226.801 101.31 229.445 100.928 232.236 102.446C233.17 102.952 235.804 104.449 236.158 106.999C236.413 108.889 235.322 110.717 233.868 113.143C233.317 114.052 232.934 114.712 232.295 115.435C231.863 115.931 228.531 119.896 224.885 119.059C221.052 118.182 220.138 113.577 218.565 110.469C217.336 108.022 216.688 104.697 219.4 102.88C220.457 102.422 221.285 102.075 222.428 101.92Z" fill="#532410" stroke="#231F20" stroke-width="1.28069" stroke-miterlimit="10"/>
<path d="M122.256 84.2219C121.883 85.2854 121.352 86.9064 120.861 88.9302C120.192 91.6973 120.084 93.2151 119.711 95.3937C119.495 96.6843 118.826 100.567 117.332 104.263C116.487 106.359 114.944 109.446 112.074 112.74C113.519 111.945 115.76 110.479 117.775 107.99C122.679 101.95 121.195 96.0751 125.018 89.9523C126.266 87.9493 128.37 85.4506 135.318 81.7645C159.359 68.9924 187.163 68.0528 187.163 68.0528C209.611 67.2888 224.305 71.202 224.384 70.6548C224.482 69.9939 203.105 62.1159 176.49 64.501C150.641 66.8138 131.751 77.7481 122.266 84.2219H122.256Z" fill="#DA4D1F"/>
<path d="M240.392 76.7259C229.591 71.3259 210.956 63.9228 187.142 63.9331C145.223 63.9331 116.092 86.8445 106.883 94.7638C110.234 85.9049 114.293 79.7202 117.439 75.6727C124.368 66.7519 128.201 62.6012 133.017 59.2868C134.186 58.4815 136.997 56.6436 138.776 53.0401C140.054 50.4589 140.191 48.1977 140.358 45.6061C141.41 29.5815 141.921 26.6699 143.621 23.8305C143.818 23.5001 145.882 20.2683 148.958 18.6473C150 18.1104 151.14 17.7387 152.379 17.7283C154.423 17.7077 155.946 18.6679 156.457 18.9777C160.133 21.1872 171.839 26.2052 175.082 22.9735C176.674 21.3834 174.758 19.2977 176.753 16.5822C178.935 13.6086 183.495 13.0201 185.196 12.7929C186.532 12.6174 187.525 12.6484 187.751 12.6587C191.407 12.8652 194.621 14.352 196.567 15.8905C200.223 18.7815 201.177 22.9941 203.005 31.089C203.988 35.4462 204.44 39.1529 204.676 41.7755C209.226 45.1208 214.003 48.9721 218.887 53.4118C227.664 61.3725 234.75 69.4054 240.421 76.7156L240.392 76.7259Z" stroke="#231F20" stroke-width="1.28069" stroke-miterlimit="10"/>
<path d="M173.64 125.915C173.591 125.677 173.09 123.168 174.81 121.155C176.54 119.131 178.967 119.379 179.193 119.41" stroke="#231F20" stroke-width="1.28069" stroke-miterlimit="10"/>
<path d="M208.37 141.288C206.818 143.983 204.115 145.48 201.785 145.388C200.636 145.346 199.584 145.119 198.64 144.747C198.198 144.562 197.52 144.241 196.763 143.756C194.483 142.3 193.294 140.555 192.252 139.203C191.181 137.819 189.52 135.899 187.062 133.813C187.652 133.307 188.37 132.822 189.235 132.44C193.176 130.705 197.097 132.553 198.129 133.08C198.542 132.171 199.368 131.552 200.301 131.49C201.5 131.407 202.277 132.264 202.375 132.378C204.547 132.75 206.719 133.121 208.882 133.493C208.882 133.493 210.474 137.623 208.38 141.278L208.37 141.288Z" fill="#BE1E2D"/>
<path d="M209.199 141.991C207.646 144.686 204.943 146.183 202.614 146.09C201.464 146.049 200.412 145.822 199.468 145.45C199.026 145.264 198.348 144.944 197.591 144.459C195.311 143.003 194.122 141.258 193.08 139.905C192.009 138.522 190.348 136.601 187.891 134.516C188.667 133.824 189.424 133.411 190.063 133.143C194.417 131.346 198.869 134.505 199.518 134.991C199.468 133.793 200.107 132.688 201.12 132.193C202.063 131.738 203.174 131.883 204.009 132.564C205.906 133.112 207.813 133.648 209.71 134.196C209.71 134.196 211.302 138.326 209.208 141.981L209.199 141.991Z" fill="#F48888"/>
<path d="M209.197 141.991C207.644 144.686 204.941 146.183 202.612 146.09C201.462 146.049 200.41 145.821 199.467 145.45C199.467 145.45 198.503 145.068 197.589 144.459C196.587 143.798 193.442 140.587 188.921 135.641C185.874 132.306 182.198 128.186 178.109 123.488C184.665 126.596 191.751 129.384 199.368 131.593C201.747 132.296 204.184 132.936 206.671 133.514C207.683 133.751 208.686 133.979 209.698 134.185C209.845 134.567 211.29 138.315 209.197 141.97V141.991Z" stroke="#231F20" stroke-width="1.92103" stroke-miterlimit="10"/>
<path d="M199.35 133.09C201.374 137.293 202.229 139.492 201.925 139.688C201.885 139.709 201.826 139.709 201.748 139.667C201.325 138.521 200.873 137.375 200.254 136.343C199.635 135.3 198.829 134.36 197.836 133.72C198.337 133.514 198.848 133.307 199.35 133.101V133.09Z" fill="#BE1E2D"/>
<path d="M173.805 86.2975C175.689 86.2975 177.215 84.6934 177.215 82.7146C177.215 80.7359 175.689 79.1318 173.805 79.1318C171.921 79.1318 170.395 80.7359 170.395 82.7146C170.395 84.6934 171.921 86.2975 173.805 86.2975Z" fill="white"/>
<path d="M217.857 81.0315C219.209 81.0315 220.305 79.8805 220.305 78.4606C220.305 77.0407 219.209 75.8896 217.857 75.8896C216.506 75.8896 215.41 77.0407 215.41 78.4606C215.41 79.8805 216.506 81.0315 217.857 81.0315Z" fill="white"/>
<path d="M46.7834 228.773C49.899 233.285 54.3513 234.751 56.2383 235.092C59.5308 235.691 62.8921 235.092 66.2338 235.133C64.6023 234.411 61.8798 232.924 59.4719 229.991C58.1155 228.339 57.2506 226.708 56.6904 225.407C55.226 225.18 52.7296 224.571 50.1349 222.785C46.6163 220.358 44.9455 217.126 44.287 215.65C44.0511 216.858 42.9405 223.208 46.7834 228.773Z" fill="#F58220"/>
<path opacity="0.6" d="M226.71 107.587C229.315 107.587 231.427 106.94 231.427 106.142C231.427 105.343 229.315 104.696 226.71 104.696C224.104 104.696 221.992 105.343 221.992 106.142C221.992 106.94 224.104 107.587 226.71 107.587Z" fill="#C8591A"/>
<path d="M184.508 357.527C185.923 358.136 188.213 359.344 190.395 361.667C192.98 364.424 194.11 367.377 194.602 368.967" stroke="#231F20" stroke-width="1.28069" stroke-miterlimit="10"/>
<path d="M176.559 361.44C178.161 362.731 179.723 364.115 180.972 365.787C182.22 367.46 183.134 369.453 183.301 371.569" stroke="#231F20" stroke-width="1.28069" stroke-miterlimit="10"/>
<path d="M214.406 353.087C217.119 351.89 220.215 352.499 222.918 353.707C224.598 354.45 226.299 355.524 227.154 357.31C227.114 357.155 227.065 357.011 227.026 356.856" stroke="#231F20" stroke-width="1.28069" stroke-miterlimit="10"/>
<path d="M209.402 361.44C213.019 360.521 217.049 362.08 219.398 365.312" stroke="#231F20" stroke-width="1.28069" stroke-miterlimit="10"/>
<path d="M153.863 251.189C156.713 244.901 162.62 229.506 158.944 210.91C157.578 204.003 155.219 198.345 152.969 194.081C159.947 211.716 159.554 233.285 153.863 251.199V251.189Z" fill="#CCBF80"/>
<path d="M208.981 25.2245C209.462 24.3572 211.497 20.7744 215.015 16.7476C220.067 10.9656 225.699 7.12464 230.023 4.69824C228.431 6.1644 226.22 8.25007 223.684 10.883C220.657 14.0218 219.143 15.5912 217.944 17.3362C214.789 21.9205 215.359 23.841 212.686 27.2689C211.428 28.8899 209.276 31.0582 205.57 32.7928C206.288 30.7484 207.359 28.1155 208.971 25.2245H208.981Z" fill="#F58220"/>
<path d="M126.146 28.2495C130.127 33.6288 133.272 39.7 137.754 44.6354C130.53 41.3314 124.289 35.7145 120.072 28.7244C117.478 24.4189 115.384 19.5144 110.863 17.0984C116.662 16.706 122.942 23.9233 126.146 28.2598V28.2495Z" fill="#F58220"/>
<path opacity="0.65" d="M227.684 68.2795C222.77 65.0994 214.249 60.5151 202.828 58.7598C187.859 56.4573 175.888 60.2363 170.129 62.5181C178.218 61.0623 189.54 59.9885 202.828 61.7851C212.833 63.1273 221.227 65.7292 227.684 68.2899V68.2795Z" fill="#D3A043"/>
<path d="M211.067 280.037C235.481 234.359 221.102 183.952 218.576 175.093V175.083C222.93 182.579 234.773 203.931 237.063 222.599C237.584 226.822 237.869 231.695 237.869 231.695C238.243 239.305 237.771 246.305 237.172 258.736C236.592 270.796 237.054 287.956 241.938 309.288C235.589 311.663 228.699 313.893 221.308 315.844C202.418 320.831 185.15 322.649 170.574 322.958C194.369 307.935 205.996 289.505 211.067 280.027V280.037Z" fill="#8D7F45"/>
<path d="M198.801 262.154C205.632 249.279 208.531 237.994 209.907 230.415C209.907 230.415 213.249 208.453 209.003 180.875C208.757 179.275 207.243 172.594 205.926 163.364C205.405 159.75 205.061 156.776 204.845 154.887C205.681 154.877 206.88 154.98 208.098 155.641C210.123 156.735 210.929 158.687 212.59 162.476C215.539 169.187 215.578 168.95 215.961 170.023C216.767 172.254 223.342 192.119 217.868 219.078C213.799 239.109 204.983 253.688 198.801 262.154Z" fill="#CCBF80"/>
<path d="M114.727 270.073C101.134 273.987 84.7306 277.043 68.4056 275.886C63.8944 275.566 58.7935 274.606 53.1225 271.653C42.6355 266.181 35.4411 254.338 35.1365 242.03C35.0775 239.274 35.3232 236.517 35.5198 233.76C35.6672 231.922 35.7851 230.084 35.7557 228.236C35.7557 228.04 35.7557 227.854 35.7458 227.658C35.7262 226.853 35.677 226.037 35.5787 225.221C35.1856 221.597 34.0455 218.056 31.6376 215.485C31.0577 214.865 30.4188 214.308 29.7407 213.833C26.0255 211.148 21.131 210.384 16.8556 208.536C6.11316 203.838 -0.688099 190.808 1.33655 178.789C1.33655 182.641 3.57743 186.203 6.48664 188.567C9.39585 190.942 12.8948 192.315 16.3445 193.668C12.2559 191.324 9.26808 186.956 8.49164 182.124C10.8308 184.54 14.3297 185.397 17.6026 185.16C20.8951 184.922 24.0304 183.735 27.1165 182.548C26.0354 181.897 24.6201 181.164 22.9001 180.596C20.9836 179.956 19.2734 179.708 17.9367 179.615C31.5098 169.528 49.3189 165.935 65.4866 170.054C69.6244 171.097 73.6933 172.646 77.2021 175.186C77.8901 175.681 78.5486 176.208 79.1678 176.766C88.7603 185.201 90.4213 199.037 90.9717 203.208C92.4361 214.297 89.7235 219.357 90.0871 227.389C90.1854 229.63 89.9397 232.583 91.4434 235.711C94.0676 241.132 99.5814 243.187 101.793 244.003C107.218 246.026 112.663 245.52 117.145 244.25" stroke="#231F20" stroke-width="1.28069" stroke-miterlimit="10"/>
<path d="M144.772 285.106C144.487 285.943 144.221 286.903 143.995 287.977C143.73 289.236 143.592 290.393 143.523 291.415" stroke="#231F20" stroke-width="1.28069" stroke-miterlimit="10"/>
<path d="M155.496 285.076C155.752 285.995 155.997 287.13 156.135 288.452C156.263 289.743 156.253 290.889 156.184 291.828" stroke="#231F20" stroke-width="1.28069" stroke-miterlimit="10"/>
<path d="M207.801 227.462C207.585 233.977 206.297 239.625 204.469 244.829C204.43 244.963 204.381 245.097 204.332 245.231C198.14 241.246 193.727 236.744 192.017 231.458C188.154 208.546 186.847 187.783 189.894 170.684C188.911 168.96 187.928 167.225 186.945 165.491C188.164 164.727 189.452 163.828 190.778 162.806C191.594 162.176 192.351 161.547 193.059 160.927C193.186 160.824 193.314 160.71 193.442 160.597C194.11 161.443 194.877 162.342 195.781 163.261C196.675 164.179 197.55 164.975 198.366 165.666C197.658 167.308 196.951 168.95 196.243 170.602C195.889 188.464 200.558 207.627 207.801 227.462Z" fill="#D12029"/>
<path d="M204.469 244.828C204.43 244.963 204.381 245.097 204.332 245.231C198.14 241.246 193.727 236.744 192.017 231.457C188.154 208.546 186.847 187.782 189.894 170.684C188.911 168.96 187.928 167.225 186.945 165.49C188.164 164.726 189.452 163.828 190.778 162.806C191.594 162.176 192.351 161.546 193.059 160.927C191.427 162.445 190.022 164.117 189.117 166.069C189.294 166.657 189.589 167.349 190.09 168.01C191.987 170.477 195.702 170.343 195.702 170.343C195.467 170.973 192.262 171.355 191.653 171.035C191.653 171.035 189.088 197.798 191.152 207.338C192.715 217.374 196.331 230.652 204.469 244.828Z" fill="#950F16"/>
<path d="M207.801 227.462C207.585 233.977 206.297 239.625 204.469 244.829C204.43 244.963 204.381 245.097 204.332 245.231C202.602 244.405 199.329 242.547 196.489 238.83C193.501 234.917 192.528 230.941 192.164 228.969C190.346 220.802 188.744 210.632 188.361 198.892C188.007 188.061 188.773 178.521 189.894 170.684C188.911 168.96 187.928 167.225 186.945 165.491C188.164 164.727 189.452 163.828 190.778 162.806C191.594 162.176 192.351 161.547 193.059 160.927C193.186 160.824 193.314 160.71 193.442 160.597C194.11 161.443 194.877 162.342 195.781 163.261C196.675 164.179 197.55 164.975 198.366 165.666C197.658 167.308 196.951 168.95 196.243 170.602C195.889 188.464 200.558 207.627 207.801 227.462Z" stroke="#231F20" stroke-width="1.28069" stroke-miterlimit="10"/>
<path d="M241.945 309.298C225.993 315.246 202.297 321.988 173.028 322.907C153.784 323.516 136.85 321.451 123.041 318.612C117.36 317.445 112.22 316.154 107.649 314.864C112.062 293.387 114.293 275.298 115.522 262.309C119.247 222.795 121.91 191.231 109.428 156.879C103.59 140.813 96.1797 128.94 91.2852 121.908C95.9242 121.154 101.32 120.587 107.315 120.504C113.419 120.421 118.893 120.865 123.611 121.516C122.942 123.756 122.087 127.618 122.52 132.419C122.962 137.386 124.574 141.123 125.655 143.209C128.908 141.639 133.429 139.915 139.002 139.1C148.113 137.768 155.583 139.533 159.897 140.937C158.561 143.632 157.086 147.256 156.074 151.717C154.806 157.344 154.757 162.238 154.983 165.728C162.846 174.122 172.429 186.099 180.832 202.072C192.773 224.746 197.304 245.882 199.181 259.924C202.926 254.09 207.614 245.262 209.894 233.812C216.204 202.237 202.838 158.376 204.45 155.754C205.619 155.32 206.799 154.876 207.968 154.443C210.74 159.523 214.779 167.184 219.32 176.683C229.62 198.221 234.977 208.949 237.05 222.619C239.006 235.546 237.05 237.993 237.168 258.757C237.237 271.281 238.161 288.535 241.935 309.309L241.945 309.298Z" stroke="#231F20" stroke-width="1.28069" stroke-miterlimit="10"/>
<path d="M198.289 165.542C199.115 166.131 200.058 166.74 201.11 167.329C202.407 168.051 203.636 168.619 204.746 169.063C205.081 168.031 205.424 166.988 205.768 165.955" stroke="#231F20" stroke-width="1.28069" stroke-miterlimit="10"/>
<path d="M186.946 165.491C184.744 166.678 182.553 167.876 180.351 169.063L159.766 159.552" stroke="#231F20" stroke-width="1.28069" stroke-miterlimit="10"/>
</g>
<defs>
<clipPath id="clip0_2260_38763">
<rect width="299" height="377" fill="white"/>
</clipPath>
</defs>
</svg>
