<svg width="180" height="180" viewBox="0 0 180 180" fill="none" xmlns="http://www.w3.org/2000/svg">
<mask id="mask0_15_19855" style="mask-type:alpha" maskUnits="userSpaceOnUse" x="0" y="0" width="180" height="180">
<ellipse cx="89.98" cy="90" rx="89.98" ry="90" fill="#C73138"/>
</mask>
<g mask="url(#mask0_15_19855)">
<ellipse cx="89.98" cy="90" rx="89.98" ry="90" fill="#C73138"/>
<path d="M119.084 178.573C119.507 178.735 121.785 179.579 124.151 178.76C126.758 177.86 127.387 175.663 127.474 175.341C126.317 175.781 124.773 176.247 122.856 176.495C121.505 176.668 120.273 176.693 119.227 176.656C118.798 176.706 118.462 176.935 118.35 177.264C118.206 177.711 118.499 178.276 119.084 178.573Z" fill="#FCFFEB" stroke="#8D0F3A" stroke-width="1.28069" stroke-miterlimit="10"/>
<path d="M120.386 174.329C120.735 174.472 122.596 175.216 124.687 174.341C126.997 173.38 127.737 171.22 127.837 170.904C126.81 171.375 125.447 171.878 123.791 172.176C122.621 172.387 121.569 172.455 120.685 172.455C120.318 172.517 120.007 172.747 119.882 173.076C119.72 173.516 119.92 174.056 120.386 174.323V174.329Z" fill="#FCFFEB" stroke="#8D0F3A" stroke-width="1.28069" stroke-miterlimit="10"/>
<path d="M120.298 170.116C120.591 170.24 122.159 170.861 123.921 170.128C125.863 169.322 126.485 167.504 126.572 167.237C125.707 167.634 124.562 168.056 123.168 168.31C122.184 168.49 121.3 168.546 120.553 168.546C120.242 168.596 119.981 168.794 119.875 169.067C119.738 169.433 119.906 169.893 120.298 170.116Z" fill="#FCFFEB" stroke="#8D0F3A" stroke-width="1.28069" stroke-miterlimit="10"/>
<path d="M123.472 180.422C122.408 182.178 119.688 182.154 116.557 182.408C114.223 182.6 110.974 183.004 107.028 183.941C97.3182 182.135 90.5151 178.375 86.6437 175.818C80.5813 171.81 70.1931 164.947 69.0789 153.629C68.5437 148.194 70.3425 143.658 71.6931 141.002C73.299 136.739 77.687 134.611 81.2286 135.734C83.8179 136.553 85.7474 139.041 86.2018 142.038C85.959 143.614 85.7661 146.183 86.513 149.168C87.098 150.862 87.8449 152.63 88.791 154.436C93.6833 163.75 101.376 169.03 106.374 171.766C109.045 169.942 111.485 169.018 113.134 168.527C116.277 167.274 118.91 167.032 121.088 167.665C121.269 167.646 122.352 167.547 123.161 168.31C123.97 169.074 124.176 170.377 123.616 171.524C124.972 172.027 125.894 173.299 125.95 174.739C125.999 176.178 125.172 177.519 123.852 178.114C123.939 178.753 123.945 179.641 123.466 180.429L123.472 180.422Z" fill="#FF6D00" stroke="#8D0F3A" stroke-width="1.28069" stroke-miterlimit="10"/>
<path d="M120.627 172.046C121.384 172.046 121.997 171.435 121.997 170.681C121.997 169.927 121.384 169.316 120.627 169.316C119.871 169.316 119.258 169.927 119.258 170.681C119.258 171.435 119.871 172.046 120.627 172.046Z" fill="#8D0F3A" stroke="#8D0F3A" stroke-width="1.28069" stroke-miterlimit="10"/>
<path d="M122.464 176.104C123.22 176.104 123.833 175.493 123.833 174.739C123.833 173.985 123.22 173.374 122.464 173.374C121.708 173.374 121.095 173.985 121.095 174.739C121.095 175.493 121.708 176.104 122.464 176.104Z" fill="#8D0F3A" stroke="#8D0F3A" stroke-width="1.28069" stroke-miterlimit="10"/>
<path d="M58.0064 201.271C57.2159 201.352 56.3943 201.414 55.554 201.476C45.7447 202.208 32.9601 202.078 21.1092 198.423C18.3706 197.579 15.3581 196.27 12.2771 193.72C6.56948 188.992 3.78103 181.024 5.30597 173.777C5.65452 172.157 6.18358 170.581 6.68774 168.999C7.03007 167.944 7.35373 166.889 7.59648 165.804C7.62137 165.692 7.64627 165.58 7.67117 165.462C7.77075 164.984 7.85167 164.5 7.90769 164.01C8.16911 161.832 7.95126 159.598 6.8309 157.743C6.55703 157.29 6.2396 156.881 5.89104 156.502C3.97398 154.392 1.06105 153.232 -1.31037 151.526C-7.28562 147.219 -9.66327 138.613 -6.75033 131.875C-7.28562 134.133 -6.39555 136.541 -4.93286 138.346C-3.46395 140.158 -1.50332 141.467 0.438632 142.758C-1.75851 140.797 -2.99091 137.807 -2.80418 134.872C-1.69627 136.621 0.339045 137.633 2.39303 137.974C4.45325 138.309 6.55081 138.067 8.61725 137.825C8.28736 137.323 7.57158 136.361 6.29562 135.641C5.08812 134.958 3.96154 134.816 3.36401 134.778C7.38485 133.209 10.8393 132.613 13.1796 132.359C13.1796 132.359 23.879 131.192 33.9934 136.1C35.5058 136.832 38.0889 138.123 40.5039 140.804C40.8587 141.194 41.1948 141.604 41.4998 142.014C46.2426 148.343 45.3401 156.676 45.0974 159.189C44.4625 165.89 42.0911 168.453 41.1948 173.206C40.9458 174.528 40.3794 176.222 40.8773 178.269C41.7363 181.819 44.8546 183.823 46.0995 184.629C52.6909 188.868 60.9318 186.268 62.4754 185.746C60.9816 190.921 59.494 196.09 58.0002 201.265L58.0064 201.271Z" fill="#FF6D00" stroke="#8D0F3A" stroke-width="0.640345" stroke-miterlimit="10"/>
<path d="M60.5898 197.518C59.6064 199.001 58.623 200.484 57.6395 201.967C47.8302 202.699 35.0456 202.568 23.1947 198.914C21.508 198.392 19.7216 197.697 17.8793 196.649C16.2796 195.78 15.1219 194.874 14.3688 194.216C7.30433 188.03 7.09271 178.474 6.9122 170.036C6.83129 166.412 7.31055 165.878 7.60932 165.81C7.99522 165.723 8.46203 166.325 8.77947 166.809C8.70478 167.858 8.41224 173.299 12.4642 177.916C15.8688 181.794 20.2009 182.663 21.4582 182.868C20.7798 183.302 19.7341 183.854 18.3648 184.077C16.485 184.388 15.0161 183.984 14.1136 183.718C11.8916 183.06 10.3604 181.831 9.51393 181.012C11.3563 182.75 16.4166 187.031 23.9852 187.732C27.2405 188.036 30.0165 187.583 32.0082 187.068C30.8879 187.863 29.4314 188.737 27.6264 189.463C24.4769 190.735 21.6262 191.008 19.7216 191.027C24.9935 193.751 33.502 197.276 44.4567 198.194C50.7805 198.721 56.2827 198.25 60.5898 197.53V197.518Z" fill="#D05B04"/>
<path d="M56.2513 199.385C56.0646 200.036 55.8405 200.738 55.548 201.476C45.7386 202.208 32.9541 202.078 21.1032 198.423C18.3645 197.579 15.352 196.27 12.271 193.726C8.29373 190.437 4.34136 182.507 5.29989 173.783C5.50529 171.928 6.03435 169.086 7.59662 165.81C7.35388 166.84 6.2273 172.139 9.47011 177.382C12.4889 182.265 17.2317 183.754 18.3521 184.077C16.8209 184.189 14.8292 184.183 12.5698 183.773C11.0262 183.494 9.68174 183.084 8.58005 182.669C14.3001 186.534 20.7982 190.586 27.6199 189.451C25.4414 191.008 23.0078 192.187 20.4434 192.938C23.8978 194.719 28.3233 196.599 33.6387 197.945C42.8692 200.285 50.8798 200.024 56.2513 199.385Z" fill="#D54A0E"/>
<path d="M23.3369 137.961C23.4614 137.906 24.0714 139.227 25.5776 141.151C26.1005 141.821 26.5797 142.367 26.9532 142.777C27.1586 142.417 27.4013 141.902 27.5382 141.244C27.781 140.077 27.5631 139.103 27.4075 138.607C28.1358 139.68 29.1192 141.393 29.6918 143.651C30.5445 147.008 30.0342 149.776 29.8661 150.8C29.3557 153.995 29.2375 159.152 31.167 167.615C28.6399 163.042 27.7063 159.17 27.3204 156.477C26.7664 152.611 27.4013 151.55 26.5797 147.517C25.4718 142.106 23.1191 138.061 23.3369 137.961Z" fill="#D05B04"/>
<path d="M40.9889 144.948C40.7586 145.991 40.4847 146.946 40.2046 147.809C39.2897 145.209 37.634 142.869 35.4867 141.126C36.7129 144.979 37.1797 149.056 36.8498 153.083C35.9099 149.85 33.6007 147.045 30.6131 145.494C30.9928 146.189 31.8393 147.97 31.6401 150.322C31.4845 152.152 30.7625 153.486 30.333 154.156C30.4139 152.574 30.3081 150.105 29.1567 147.449C28.7583 146.512 28.2977 145.718 27.8433 145.054C25.4221 149.496 24.7935 154.87 26.1192 159.753C24.5632 156.558 22.7831 153.474 20.7975 150.526C21.1834 152.314 21.5195 154.479 21.6067 156.949C21.7063 159.747 21.4698 162.198 21.1399 164.159C19.8203 162.912 17.6356 160.498 16.3721 156.818C15.7061 154.876 15.4821 153.12 15.426 151.767C14.2434 154.039 12.8928 157.215 12.0338 161.174C11.0878 165.524 11.0815 169.29 11.2869 171.983C10.6583 169.681 9.48192 167.534 7.90097 165.741C7.8325 165.648 7.75159 165.561 7.6769 165.474C8.2184 162.862 8.21218 160.026 6.83663 157.762C5.05028 154.814 1.49003 153.561 -1.30464 151.544C-6.67614 147.672 -9.14093 140.325 -7.46039 133.984C-7.27366 133.264 -7.03714 132.569 -6.7446 131.893C-7.27989 134.151 -6.38982 136.559 -4.92713 138.365C-3.45822 140.177 -1.49759 141.486 0.444363 142.776C-1.75278 140.816 -2.98518 137.825 -2.79845 134.89C-1.69054 136.64 0.344775 137.651 2.39877 137.992C4.45898 138.327 6.55654 138.085 8.62298 137.843C8.05035 137.304 7.27855 136.677 6.29512 136.087C5.19966 135.436 4.17889 135.039 3.36974 134.791C13.1418 130.863 24.6068 131.353 33.9991 136.112C36.4079 137.322 38.6984 138.824 40.5096 140.816C40.8644 141.207 41.2005 141.616 41.5055 142.026C41.3872 142.932 41.2254 143.906 40.9951 144.954L40.9889 144.948Z" fill="#FCFFEB"/>
<path d="M11.3063 162.347C11.3996 165.444 10.9328 168 10.4847 169.744C9.54483 168.317 8.6112 166.889 7.67134 165.468C8.21285 162.856 8.20662 160.02 6.83107 157.756C5.04473 154.808 1.48448 153.555 -1.3102 151.538C-6.68169 147.666 -9.14648 140.32 -7.46594 133.978C-5.67337 137.304 -5.4244 137.807 -5.4244 137.807C-5.08829 139.482 -4.3974 141.821 -2.84135 144.167C1.57784 150.837 8.41203 150.676 10.5407 156.812C11.1942 158.686 11.2565 160.715 11.3063 162.354V162.347Z" fill="#E0E5FF"/>
<path d="M14.3188 167.727C15.6072 170.817 18.1529 172.325 19.2671 172.796C21.209 173.628 23.3688 173.764 25.4166 174.273C24.5141 173.615 23.0389 172.343 21.9622 170.283C21.3584 169.123 21.0472 168.037 20.8854 167.199C20.014 166.852 18.5575 166.132 17.2131 164.711C15.3832 162.775 14.8043 160.647 14.5989 159.685C14.2877 160.355 12.7192 163.911 14.3126 167.721L14.3188 167.727Z" fill="#D05B04"/>
<path d="M53.8675 201.662C44.9482 201.972 31.0059 201.469 21.1032 198.423C18.3646 197.579 15.3583 196.276 12.2711 193.726C6.56967 189.004 3.78123 181.03 5.29993 173.789C5.40575 173.274 5.94725 171.667 6.68171 169.011C7.45351 166.225 7.83941 164.816 7.90166 164.028C7.9141 163.855 8.18175 159.896 5.88501 156.52C3.73143 153.356 0.799828 153.083 -1.32263 151.55C-7.29165 147.238 -9.67552 138.631 -6.75637 131.899C-7.29165 134.151 -6.40159 136.559 -4.9389 138.365C-3.47621 140.176 -1.50936 141.486 0.426375 142.783C-1.77077 140.816 -3.00317 137.831 -2.81022 134.89C-1.70231 136.646 0.333012 137.651 2.38078 137.992C4.44099 138.334 6.53855 138.092 8.60499 137.85C8.03236 137.31 7.26056 136.683 6.27714 136.094C5.18167 135.442 4.1609 135.045 3.35798 134.797C13.1238 130.869 24.595 131.359 33.9873 136.118C36.3899 137.328 38.6866 138.83 40.4916 140.822C40.8464 141.213 41.1825 141.616 41.4813 142.032C46.2241 148.361 45.3216 156.694 45.0851 159.213C44.4502 165.909 42.0726 168.477 41.1825 173.224C40.9336 174.546 40.3734 176.24 40.8651 178.288C41.7303 181.837 44.8424 183.841 46.0934 184.641C49.8902 187.068 53.799 187.117 55.5169 187.018" stroke="#8D0F3A" stroke-width="1.28069" stroke-miterlimit="10"/>
<path d="M118.307 166.095C118.381 171.419 118.294 208.575 93.4035 220.73C81.5028 226.538 68.544 223.293 67.7597 223.094C65.7244 222.579 58.8653 220.767 52.7843 215.45C34.1988 199.193 41.257 166.275 42.1595 162.329C44.6181 151.544 48.8194 141.244 52.5664 136.423C55.4171 132.756 57.8881 128.797 59.9297 124.627C64.075 116.163 71.4507 110.275 81.2538 109.766C89.2146 109.35 98.9306 113.08 105.074 119.831C106.144 121.003 109.966 124.621 113.259 138.501C116.558 152.407 118.207 159.356 118.307 166.095Z" fill="#FF6D00" stroke="#8D0F3A" stroke-width="1.28069" stroke-miterlimit="10"/>
<path d="M133.556 98.6962C133.282 98.8017 132.995 98.9258 132.721 99.0561C129.485 100.589 127.543 103.338 126.41 105.547L57.4085 101.805C53.8794 102.134 50.3067 102.444 46.7153 102.729C45.0286 102.866 43.348 102.99 41.6737 103.12C45.3273 101.65 48.2216 98.3983 49.2299 94.6009C46.7962 94.8801 44.4622 96.0156 42.7629 97.7716C44.319 94.0424 47.0514 90.8034 50.4685 88.6255C49.1428 88.824 47.7797 89.0164 46.4726 88.7309C47.8979 87.9429 49.5287 86.8694 51.1781 85.4237C54.5516 82.4701 56.5247 79.2435 57.645 76.9849C56.0205 75.1296 53.8732 72.1387 52.9146 68.0869C50.8233 59.2447 56.6056 53.6664 54.1408 45.2711C53.0267 41.4798 50.8544 38.4766 48.4954 36.1311C51.2652 35.8829 62.2883 35.2252 72.4151 42.8201C80.1518 48.628 83.183 56.1174 84.2162 59.1393C86.8864 58.3698 90.4155 57.6935 94.5608 57.799C104.513 58.0596 111.709 62.6823 114.783 64.9471C115.841 63.1973 123.037 51.7429 136.904 49.7635C144.211 48.721 150.112 50.7749 153 52.0283C148.089 54.0201 145.22 56.6386 143.502 58.6553C138.099 65.0154 139.014 71.5307 132.28 79.5289C130.711 81.3904 129.223 82.7431 128.234 83.5808C126.024 87.9057 126.255 92.7208 128.85 95.7922C130.381 97.6103 132.36 98.3673 133.556 98.7024V98.6962Z" fill="#FF6D00" stroke="#8D0F3A" stroke-width="1.28069" stroke-miterlimit="10"/>
<path d="M127.774 81.018C125.763 79.9507 136.189 49.7696 145.326 50.3901C146.845 50.4955 147.984 51.4201 148.463 51.8544C147.318 52.1399 145.587 52.7231 143.882 53.9952C138.678 57.8795 139.581 63.8301 135.423 71.6918C132.84 76.569 128.676 81.4958 127.78 81.018H127.774Z" fill="#D54A0E"/>
<path d="M62.8048 68.9495C60.9313 68.087 59.867 66.6413 59.5806 66.2317C57.0287 62.577 58.7777 58.612 58.8026 52.8041C58.8151 50.0243 58.4354 46.1089 56.6304 41.3621C59.0329 41.7592 62.1326 42.6279 65.2136 44.6321C75.054 51.0171 76.025 63.2161 76.1433 65.0528C71.8548 69.1357 66.6389 70.7117 62.811 68.9495H62.8048Z" fill="#F6927F" stroke="#8D0F3A" stroke-width="1.28069" stroke-miterlimit="10"/>
<path d="M119.695 68.1433C121.394 63.1792 126.1 60.2319 128.571 58.6806C129.53 58.0787 130.27 57.6878 130.482 57.5761C134.895 55.243 138.959 54.4612 141.735 54.1758C140.229 56.0497 138.187 58.9412 136.532 62.838C135.579 65.078 135.368 66.3128 134.764 68.0067C133.737 70.8673 131.714 74.8447 127.276 79.1634C124.463 77.7672 122.627 76.1167 121.544 74.9812C119.714 73.0576 119.378 71.8973 119.272 71.1775C119.179 70.557 119.179 69.6573 119.695 68.1433Z" fill="#F6927F" stroke="#8D0F3A" stroke-width="1.28069" stroke-miterlimit="10"/>
<path d="M130.506 58.1899C131.035 58.4319 132.05 58.8104 133.369 58.7732C134.944 58.7297 136.089 58.1216 136.6 57.8052C136.5 58.3884 136.22 59.5116 135.336 60.585C134.826 61.1993 134.284 61.6026 133.873 61.857C134.203 61.8881 134.57 61.9129 134.963 61.9067C135.523 61.9005 136.033 61.8446 136.463 61.7764C135.697 62.5396 134.683 63.4207 133.388 64.2336C132.566 64.7548 131.776 65.1519 131.066 65.4622C131.415 65.6979 132.162 66.1261 133.176 66.1509C133.631 66.1633 134.017 66.0889 134.309 66.0082C134.073 66.7652 133.475 68.2916 132.012 69.6133C131.085 70.451 130.139 70.9039 129.485 71.1521C129.877 71.2452 130.301 71.3321 130.761 71.4003C131.384 71.4934 131.963 71.5369 132.485 71.5493C131.757 72.2194 130.593 73.1129 128.975 73.7707C126.504 74.7759 124.294 74.6828 123.161 74.5525C122.091 73.206 121.68 71.9774 121.518 71.0653C120.728 66.6225 124.325 61.4599 130.512 58.1899H130.506Z" fill="#DD7162"/>
<path d="M128.571 58.6802C129.062 59.0215 129.921 59.5241 131.098 59.7661C132.647 60.0825 133.923 59.7785 134.533 59.5861C133.668 60.734 132.411 61.5779 131.023 61.944C131.291 62.1178 131.658 62.3225 132.125 62.4714C132.884 62.7134 133.55 62.6948 133.961 62.6576C133.22 63.123 132.361 63.6007 131.378 64.0537C130.226 64.5811 129.149 64.9596 128.203 65.2327C128.589 65.6298 129.261 66.2131 130.245 66.6474C131.085 67.0197 131.838 67.1438 132.355 67.1872C130.836 69.3528 128.371 70.8234 125.739 71.1398C126.28 71.3074 126.859 71.4687 127.481 71.6114C128.371 71.8162 129.205 71.9589 129.971 72.052C129.131 72.4801 128.098 72.9207 126.871 73.2682C125.048 73.7894 123.429 73.9259 122.203 73.9321C120.498 73.1503 119.863 72.2071 119.589 71.5556C118.263 68.391 121.693 63.0423 128.583 58.6802H128.571Z" fill="#FCFFEB"/>
<path d="M83.6441 223.715C83.6441 223.715 83.613 223.721 83.6005 223.721C75.285 224.981 68.3325 223.237 67.7661 223.094C65.7246 222.579 58.8717 220.767 52.7845 215.45C35.6492 200.452 40.3174 171.289 41.8547 163.75C40.7344 169.626 38.1327 189.916 52.3239 206.688C63.9383 220.414 79.4926 223.125 83.6441 223.715Z" fill="#D54A0E"/>
<path d="M93.4099 220.73C90.1422 222.325 86.7998 223.237 83.6441 223.715C83.6317 223.715 83.613 223.721 83.6005 223.721C75.285 224.981 68.3325 223.237 67.7661 223.094C65.7246 222.579 58.8717 220.767 52.7845 215.45C35.6492 200.452 40.3174 171.289 41.8547 163.75C41.8921 163.57 41.9232 163.408 41.9543 163.259C41.973 163.16 41.9979 163.067 42.0166 162.98C42.0726 162.701 42.1224 162.477 42.1597 162.329C44.6183 151.544 48.8196 141.244 52.5666 136.423C55.4173 132.755 57.8883 128.797 59.9299 124.627C64.0752 116.163 71.4509 110.275 81.2602 109.766C89.2148 109.356 98.937 113.079 105.074 119.83C106.145 121.009 109.973 124.621 113.265 138.508C116.564 152.407 118.213 159.356 118.313 166.095C118.388 171.419 118.294 208.574 93.4099 220.73Z" stroke="#8D0F3A" stroke-width="1.28069" stroke-miterlimit="10"/>
<path d="M74.9172 59.7971C72.5582 55.5715 70.1992 51.3459 67.8465 47.1203C66.9564 46.7231 66.029 46.2764 65.0643 45.7738C64.0373 45.2339 63.0787 44.6817 62.2011 44.1418C62.1575 44.7189 62.1638 45.4821 62.3443 46.357C62.6181 47.6787 63.1721 48.6653 63.5767 49.2548C63.141 48.9942 62.4501 48.504 61.8277 47.6849C61.2177 46.872 60.9376 46.084 60.8069 45.5938C60.5704 46.5742 60.2405 48.5226 60.8193 50.8681C61.3484 53.0026 62.3816 54.4856 63.0103 55.2488C62.5621 55.2612 62.0206 55.2364 61.4106 55.1247C60.4521 54.9448 59.699 54.6097 59.1761 54.3305C59.3318 55.0689 59.6865 56.2788 60.5953 57.495C61.1368 58.2148 61.7094 58.7236 62.1824 59.0773C61.9833 59.1766 61.7281 59.2821 61.4169 59.3503C60.7446 59.493 60.1782 59.3813 59.867 59.2883C59.9355 59.6916 60.1036 60.3493 60.5517 61.0195C60.8256 61.429 61.1305 61.7268 61.3795 61.9316C61.2115 61.9688 61.0185 62.0061 60.8007 62.0185C60.2218 62.0619 59.7425 61.9626 59.4002 61.8571C60.0413 62.7383 61.2675 64.1716 63.2468 65.3071C65.5933 66.6474 67.7095 66.8336 68.139 66.8646C69.2718 66.9515 73.9524 67.3051 75.3591 64.5191C76.3052 62.6452 75.2346 60.4114 74.911 59.7971H74.9172Z" fill="#DD7162"/>
<path d="M76.1181 64.6059C75.9625 62.4651 75.4957 59.3998 74.1015 55.9747C72.5579 52.171 70.4852 49.447 68.9852 47.7655C68.2196 47.8213 67.1055 47.8027 65.8295 47.449C65.0017 47.2194 64.3233 46.903 63.8066 46.6113C63.9125 47.0891 64.0432 47.5855 64.1988 48.1005C64.4789 49.0375 64.8025 49.8814 65.1324 50.6322C64.8087 50.688 64.0369 50.7811 63.1656 50.4274C62.4249 50.1234 61.9705 49.6456 61.7589 49.3974C61.8522 50.2226 62.0888 51.414 62.7236 52.7233C63.6137 54.5475 64.8523 55.683 65.593 56.2663C63.9871 56.4339 62.3564 56.3098 60.7941 55.9064C61.9394 57.7307 63.9498 58.9903 66.1034 59.2261C64.5722 59.7597 62.9726 60.0886 61.3481 60.2065C62.344 61.4041 63.7693 62.2293 65.3005 62.5086C63.9249 62.552 62.5431 62.6078 61.1614 62.6575C63.2838 64.55 66.0536 65.6917 68.8856 65.9089C71.2944 65.4746 73.7031 65.0464 76.1181 64.6121V64.6059Z" fill="#FCFFEB"/>
<path d="M110.389 189.377C109.692 193.199 107.912 202.227 99.2789 209.096C97.6855 210.362 85.2371 220.265 72.7077 215.897C61.3174 211.926 58.1555 199.044 57.5269 195.935C55.7405 187.149 59.8112 185.778 66.6267 161.951C70.9836 146.723 72.0542 137.726 71.27 128.338C70.9152 124.162 70.2679 120.724 69.745 118.398C85.262 113.781 99.3287 117.547 103.648 125.087C104.42 126.433 106.119 130.063 104.327 136.001C102.534 135.827 100.779 135.176 99.3723 134.14C100.953 138.123 103.437 141.834 106.617 144.98C105.198 145.042 103.76 144.763 102.484 144.179C103.854 145.501 105.391 147.207 106.816 149.336C109.25 152.99 110.395 156.422 110.968 158.873C110.806 158.575 109.773 156.776 107.489 156.198C106.15 155.863 105.03 156.105 104.526 156.248C106.082 157.812 108.099 160.176 109.748 163.384C111.223 166.251 111.927 168.844 112.281 170.774C111.509 169.818 110.514 168.733 109.263 167.628C108.173 166.666 107.103 165.884 106.144 165.258C108.03 168.683 112.474 177.885 110.383 189.377H110.389Z" fill="#E0E5FF" stroke="#8D0F3A" stroke-width="1.28069" stroke-miterlimit="10"/>
<path d="M118.106 117.081C114.073 120.171 109.766 121.388 106.548 122.653C104.345 123.522 100.174 125.16 95.2573 124.937C88.4231 124.62 87.0663 121.022 78.315 118.738C72.2838 117.162 70.4912 118.564 68.0762 118.136C68.0762 118.136 67.043 117.9 65.9911 117.354C61.9329 115.251 60.1714 107.203 56.107 103.908C54.1277 102.301 50.6484 101.054 44.0756 102.512C44.0756 102.512 52.7397 97.3308 52.497 96.791C52.3725 96.518 50.0073 97.4736 49.9139 97.2564C49.8081 97.0144 53.3248 94.0422 58.0677 93.5706C62.0449 93.1735 65.0761 94.2656 65.4122 93.4341C65.6114 92.9377 64.684 92.0814 63.6881 91.3306C66.7193 91.2065 70.485 91.3306 74.7236 92.1124C81.0599 93.279 86.0579 95.4755 89.4813 97.3246C91.6784 94.6503 93.7386 92.8322 95.1951 91.6719C98.108 88.8114 100.455 87.2663 101.83 86.4721C103.218 85.6716 104.071 85.5972 104.836 85.7895C108.577 86.7265 106.959 95.2956 111.976 98.1313C113.557 99.0248 115.492 99.0744 117.82 99.3537C120.497 99.6763 121.71 99.1985 124.001 99.6887C125.98 100.111 127.486 100.899 128.42 101.476C127.25 105.41 124.53 112.167 118.113 117.081H118.106Z" fill="#D54A0E"/>
<path d="M128.334 113.824C126.716 113.098 125.179 113.272 124.444 113.409C125.141 113.986 125.975 114.817 126.666 115.971C129.311 120.377 127.961 126.179 126.816 126.321C125.67 126.464 125.365 120.879 121.662 119.645C120.585 119.285 119.539 119.372 117.641 119.955C112.133 121.649 109.525 124.156 106.282 125.434C104.116 126.284 100.014 127.897 95.1841 127.674C88.4682 127.364 87.13 123.821 78.5343 121.581C71.1275 119.651 71.4574 122.102 66.422 120.222C57.3969 116.852 55.3056 108.78 47.961 108.463C46.9776 108.42 43.3489 109.444 43.3489 109.444L43.2181 109.406C43.8406 108.494 44.8364 107.197 46.2991 105.913C53.3325 99.7203 63.3099 98.9323 63.3099 98.9323C63.3099 98.9323 61.6667 97.4617 60.4903 96.9529C58.5671 96.1214 57.1791 95.9911 57.1791 95.9911C57.1791 95.9911 60.9198 95.017 65.2145 95.9477C69.7644 96.9343 72.8827 99.1309 73.0695 98.8268C73.306 98.4421 68.3142 94.2289 68.3142 94.2289C68.3142 94.2289 74.2583 94.595 77.887 95.5196C80.8435 96.2766 84.9328 97.6851 89.5076 100.533C91.6674 97.9085 93.6903 96.1214 95.1281 94.9797C97.9912 92.1627 100.3 90.6486 101.651 89.8668C102.51 89.3704 103.587 88.8244 104.608 89.1967C105.454 89.5069 105.896 90.3198 106.17 90.841C107.035 92.4977 106.873 94.0676 106.886 94.7563C106.948 97.9892 111.112 101.234 114.23 102.395C119.203 104.25 121.737 100.874 127.755 103.09C128.683 103.431 130.332 104.051 131.957 105.528C135.243 108.494 135.847 112.559 135.996 114.097C135.822 113.458 135.237 111.659 133.469 110.232C131.839 108.91 130.121 108.649 129.448 108.581C130.208 109.431 131.353 110.939 132.05 113.111C133.027 116.133 132.598 118.726 132.318 119.911C132.305 119.725 131.882 115.413 128.347 113.824H128.334Z" fill="#FCFFEB"/>
<path d="M102.535 127.277C100.344 127.624 96.9515 127.922 92.9992 127.159C86.9617 125.992 86.1027 123.603 79.7727 121.916C72.4468 119.961 71.5069 122.611 66.4218 120.178C64.1686 119.098 61.6229 117.069 56.5253 113.011C54.3468 111.28 53.0148 110.114 50.7056 109.375C47.8612 108.463 45.2283 108.742 43.498 109.108C44.83 107.563 46.1682 106.018 47.5002 104.467C49.6537 104.306 52.716 104.393 55.9028 105.745C61.0067 107.917 60.4465 110.802 65.1956 114.041C71.1833 118.124 75.7581 114.836 85.4865 120.774C88.7044 122.741 89.7314 124.267 93.634 125.719C97.1445 127.022 100.344 127.277 102.541 127.283L102.535 127.277Z" fill="#E0E5FF"/>
<path d="M128.334 113.824C126.666 113.073 125.104 113.278 124.444 113.408C125.141 113.985 125.975 114.817 126.666 115.971C129.311 120.377 126.816 126.321 126.816 126.321C126.816 126.321 125.365 120.879 121.662 119.644C120.585 119.285 119.539 119.371 117.641 119.955C112.133 121.649 109.525 124.155 106.282 125.434C104.116 126.284 100.014 127.897 95.1841 127.674C88.4682 127.363 87.13 123.82 78.5343 121.58C71.1275 119.651 71.4574 122.102 66.422 120.221C57.3969 116.852 55.3056 108.779 47.961 108.463C46.9776 108.42 43.3489 109.443 43.3489 109.443L43.2181 109.406C43.8406 108.494 44.8364 107.197 46.2991 105.913C53.3325 99.7201 63.3099 98.9321 63.3099 98.9321C63.3099 98.9321 61.6667 97.4615 60.4903 96.9527C58.567 96.1212 57.179 95.9909 57.179 95.9909C57.179 95.9909 60.9198 95.0167 65.2145 95.9475C69.7644 96.9341 72.8827 99.1306 73.0695 98.8266C73.306 98.4419 68.3142 94.2287 68.3142 94.2287C68.3142 94.2287 74.2583 94.5948 77.887 95.5193C80.8435 96.2763 84.9328 97.6849 89.5076 100.533C91.6674 97.9083 93.6903 96.1212 95.1281 94.9795C97.9912 92.1624 100.3 90.6484 101.651 89.8666C103.263 88.9296 104.029 88.9668 104.608 89.1964C105.989 89.7425 105.616 91.5854 106.886 94.7561C108.896 99.7946 112.475 101.749 113.49 102.159C114.535 102.574 114.809 102.469 117.367 102.531C120.05 102.599 120.106 103.133 123.442 102.86C124.401 102.779 125.284 102.63 126.685 102.779C126.797 102.792 127.724 102.891 128.546 103.12C131.658 103.989 133.619 106.788 133.843 107.116C135.486 109.524 135.641 111.956 135.654 112.962C135.193 112.254 134.366 111.181 133.034 110.225C131.633 109.22 130.282 108.786 129.448 108.581C130.133 109.294 131.397 110.808 132.05 113.111C132.791 115.704 132.361 117.888 132.112 118.85C132.05 118.509 131.39 115.195 128.347 113.824H128.334Z" stroke="#8D0F3A" stroke-width="1.28069" stroke-miterlimit="10"/>
<path d="M100.604 162.049C99.372 157.011 98.1645 155.509 95.9176 146.326C93.3719 135.932 93.5648 132.34 90.5274 129.833C88.6415 128.276 84.0231 125.911 72.5768 130.056C72.4025 135.405 72.222 140.754 72.0477 146.103C71.9357 155.801 70.2054 163.185 68.6618 168.099C65.2198 179.076 60.2404 185.678 62.6181 194.706C63.0662 196.4 63.8567 199.273 66.253 201.836C72.5332 208.55 85.9713 208.984 93.7142 203.505C107.961 193.428 101.227 164.562 100.611 162.043L100.604 162.049Z" fill="#FCFFEB"/>
<path d="M104.252 180.516C104.508 181.515 103.705 182.452 103.288 182.93C102.391 183.947 100.605 185.294 93.7833 185.852C92.0281 185.995 89.6753 186.113 86.8806 186.013C86.8806 186.013 80.9241 185.56 66.4963 177.891C60.4339 173.883 50.0457 167.02 48.9316 155.702C48.3963 150.266 50.1951 145.731 51.5458 143.075C53.1516 138.812 57.5397 136.684 61.0813 137.807C63.6705 138.626 65.6 141.114 66.0544 144.111C65.8117 145.687 65.6187 148.256 66.3656 151.241C66.9507 152.935 67.6976 154.703 68.6437 156.509C73.5359 165.822 81.229 171.103 86.2271 173.839C87.086 173.275 88.362 172.487 89.9927 171.717C94.7418 169.471 101.178 168.224 102.03 169.856C102.223 170.222 102.217 170.886 101.215 172.207C102.765 172.518 103.91 173.821 104.01 175.359C104.103 176.811 103.238 178.189 101.869 178.76C101.993 178.785 103.923 179.188 104.259 180.516H104.252Z" fill="#FF6D00" stroke="#8D0F3A" stroke-width="1.28069" stroke-miterlimit="10"/>
<path d="M117.156 60.5972C117.156 60.5972 117.137 60.5972 117.13 60.5972" stroke="#8D0F3A" stroke-width="0.640345" stroke-miterlimit="10"/>
<path d="M122.322 109.487C121.531 110.839 117.791 116.92 110.521 118.589C109.22 118.887 105.585 119.675 101.583 118.205C100.195 117.696 98.9 116.964 95.3834 113.898C93.3978 112.167 86.3209 105.993 86.9247 105.211C87.7649 104.113 100.655 117.652 113.259 114.736C117.554 113.743 120.604 111.199 122.322 109.487Z" fill="#E0E5FF"/>
<path d="M95.3885 114.569C96.4591 115.531 100.885 119.278 107.339 119.111C117.092 118.85 122.115 109.884 122.321 109.493" stroke="#8D0F3A" stroke-width="1.28069" stroke-miterlimit="10"/>
<path d="M121.156 110.238C119.183 111.348 117.285 111.485 116.289 111.479C115.984 111.404 112.71 110.535 111.447 107.272C110.351 104.448 111.59 101.979 111.789 101.6C113.065 101.153 119.756 98.932 124.343 102.45C124.854 102.841 125.376 103.338 125.874 103.958C125.675 104.709 124.667 108.258 121.15 110.238H121.156Z" fill="#3F0015" stroke="#8D0F3A" stroke-width="1.28069" stroke-miterlimit="10"/>
<path opacity="0.6" d="M122.429 105.153C122.561 104.691 121.381 103.952 119.794 103.502C118.207 103.051 116.814 103.06 116.682 103.522C116.55 103.983 117.73 104.723 119.317 105.173C120.904 105.623 122.297 105.614 122.429 105.153Z" fill="#D54A0E"/>
<path d="M121.083 59.1269C121.518 58.7112 123.354 56.9862 126.155 55.2736C130.189 52.804 134.253 51.5568 137.284 50.9053C136.071 51.4761 134.384 52.3014 132.404 53.3873C130.046 54.6779 128.863 55.3232 127.842 56.1237C125.166 58.2272 125.197 59.4372 123 60.9574C121.96 61.6772 120.298 62.5583 117.753 62.9182C118.524 61.8633 119.614 60.523 121.076 59.1269H121.083Z" fill="#D05B04"/>
<path d="M75.4285 76.1347C77.8684 74.0002 80.078 73.5038 81.1984 73.361C86.2587 72.7033 92.2713 76.1471 94.375 80.6271C94.9912 81.9426 95.4082 83.6365 97.1572 85.0575" stroke="#8D0F3A" stroke-width="1.28069" stroke-miterlimit="10"/>
<path d="M111.603 86.7266C113.221 86.0813 114.485 85.5787 115.25 85.2809C117.528 84.3811 118.008 84.195 118.786 84.1081C119.477 84.0336 121.195 83.9406 122.95 84.8279C125.769 86.2612 126.597 89.1714 126.74 89.6988" stroke="#8D0F3A" stroke-width="1.28069" stroke-miterlimit="10"/>
<path d="M68.4443 148.343C68.4505 156.651 64.4048 167.367 59.0146 167.616C54.1473 167.839 48.782 159.506 48.5455 151.905C48.228 141.747 57.0229 131.726 62.2325 132.843C66.6828 133.798 68.4443 142.876 68.4505 148.343H68.4443Z" fill="#FF6D00"/>
<path d="M88.7475 107.644C88.7475 107.824 88.7101 107.998 88.6354 108.165C88.3616 108.227 88.1748 108.389 88.1064 108.457C88.0317 108.333 87.5773 107.594 86.6375 107.396C85.5794 107.166 84.7951 107.805 84.7017 107.88C84.627 107.706 84.4341 107.309 84.0046 107.03C83.2453 106.54 82.3988 106.837 82.293 106.875C82.7847 106.105 83.9922 105.565 85.3988 105.565C87.2474 105.565 88.7475 106.496 88.7475 107.644Z" fill="#B73A40"/>
<path d="M82.1 112.186C82.8967 111.348 83.6934 110.504 84.4964 109.667L86.4259 113.57C87.1603 112.614 87.901 111.658 88.6355 110.703C89.2205 111.596 89.8056 112.49 90.3907 113.377C91.0007 112.881 91.6106 112.384 92.2206 111.888C91.4799 110.87 90.733 109.853 89.9923 108.835C89.8243 108.444 89.4446 108.19 89.0276 108.19C88.4736 108.19 88.1749 108.661 88.1562 108.692C88.094 108.575 87.6769 107.811 86.7308 107.576C85.7723 107.334 85.0316 107.836 84.9196 107.911C84.8076 107.718 84.5337 107.309 84.0109 107.03C83.2328 106.62 82.4735 106.819 82.2992 106.874C82.044 107.234 81.3033 108.376 81.3967 109.958C81.4589 111.013 81.8697 111.795 82.1125 112.186H82.1Z" stroke="#8D0F3A" stroke-width="0.960517" stroke-miterlimit="10"/>
<path d="M111.105 101.52C110.264 101.396 107.986 100.943 106.057 99.0067C105.926 98.8764 103.561 96.4254 103.517 92.901C103.499 91.5607 103.816 89.755 104.314 89.7054C104.438 89.693 104.625 89.7799 105.011 90.5121C105.777 91.9516 105.858 93.1492 106.013 93.9372C106.231 95.0914 106.779 95.9414 107.868 97.6478C108.546 98.7089 109.58 100.105 111.105 101.526V101.52Z" fill="#FCFFEB"/>
<path d="M82.3687 111.026C82.4683 111.02 82.4061 110.368 82.6239 109.158C82.7671 108.339 82.9662 107.681 83.1156 107.247C82.8231 107.508 82.3812 107.998 82.1633 108.718C81.8148 109.878 82.238 111.032 82.3687 111.026Z" fill="#E0E5FF"/>
<path d="M86.3876 112.353C86.5245 112.335 86.6677 111.224 86.2693 110.219C85.8834 109.245 85.1365 108.73 84.8253 108.543C84.8813 108.723 84.9685 108.959 85.0681 109.238C85.4664 110.318 85.6594 110.529 86.0951 111.658C86.3005 112.192 86.3316 112.366 86.3876 112.36V112.353Z" fill="#E0E5FF"/>
<path d="M84.3909 110.523C84.3162 110.61 83.7125 111.336 83.9054 112.323C84.1233 113.427 85.1378 113.855 85.2125 113.886C84.3038 113.619 83.6627 113.291 83.2581 113.049C83.1088 112.956 83.0154 112.894 82.9594 112.782C82.617 112.099 84.1046 110.778 84.3909 110.523Z" fill="#E0E5FF"/>
<path d="M88.5935 111.46C88.1889 112.285 87.8403 113.284 88.2698 113.818C88.5623 114.178 89.0789 114.159 89.0727 114.339C89.0665 114.587 88.0893 114.798 87.2428 114.637C86.8258 114.556 86.7449 114.445 86.72 114.395C86.5893 114.128 86.9378 113.731 87.3299 113.235C87.6536 112.825 88.1017 112.229 88.5997 111.46H88.5935Z" fill="#E0E5FF"/>
<path d="M85.0935 114.128C84.5582 113.954 82.1246 113.141 81.415 110.901C80.7117 108.68 81.9503 105.813 83.886 105.236C85.4047 104.783 86.9234 105.838 88.0874 106.651C89.6932 107.768 90.1662 108.779 91.8343 110.746C92.6435 111.702 93.9194 113.092 95.7058 114.624C93.4713 114.171 91.6289 114.103 90.3156 114.134C87.6703 114.196 86.7491 114.68 85.0873 114.134L85.0935 114.128Z" stroke="#8D0F3A" stroke-width="1.28069" stroke-miterlimit="10"/>
<path d="M66.2165 170.941C74.0902 178.356 82.4306 182.545 82.0945 183.128C81.8144 183.612 75.9699 180.845 71.3266 178.195C60.8513 172.22 57.2848 167.311 56.2018 165.723C54.6768 163.483 53.8864 161.677 53.6 160.945C52.4735 158.109 51.4838 154.343 51.7515 151.271C54.571 156.937 59.0462 164.184 66.2228 170.941H66.2165Z" fill="#D54A0E"/>
<path d="M91.338 173.268C92.5828 172.623 93.9272 172.201 95.2779 171.804C96.5352 171.438 97.8236 171.09 99.1307 171.177C99.3174 171.283 99.3485 171.369 99.3485 171.431C99.3485 172.052 95.3588 171.655 91.699 173.628C89.701 174.708 88.4188 176.166 88.3005 176.005C88.064 175.676 89.2653 174.695 89.4645 174.522C90.0371 174.031 90.672 173.616 91.3442 173.268H91.338Z" fill="#D54A0E"/>
<path d="M98.0969 180.844C98.5202 181.005 100.798 181.849 103.163 181.03C105.771 180.131 106.4 177.934 106.487 177.611C105.329 178.052 103.786 178.517 101.869 178.765C100.518 178.939 99.2858 178.964 98.2401 178.927C97.8106 178.976 97.4745 179.206 97.3625 179.535C97.2193 179.982 97.5119 180.546 98.0969 180.844Z" fill="#FCFFEB" stroke="#8D0F3A" stroke-width="1.28069" stroke-miterlimit="10"/>
<path d="M99.3972 176.6C99.7457 176.743 101.607 177.487 103.698 176.612C106.007 175.651 106.748 173.491 106.848 173.175C105.821 173.646 104.457 174.149 102.802 174.447C101.632 174.658 100.58 174.726 99.696 174.726C99.3287 174.788 99.0175 175.018 98.893 175.347C98.7312 175.787 98.9304 176.327 99.3972 176.594V176.6Z" fill="#FCFFEB" stroke="#8D0F3A" stroke-width="1.28069" stroke-miterlimit="10"/>
<path d="M99.31 172.387C99.6026 172.511 101.171 173.132 102.933 172.399C104.874 171.593 105.497 169.775 105.584 169.508C104.719 169.905 103.574 170.327 102.179 170.581C101.196 170.761 100.312 170.817 99.5652 170.817C99.254 170.867 98.9926 171.065 98.8868 171.338C98.7499 171.704 98.9179 172.164 99.31 172.387Z" fill="#FCFFEB" stroke="#8D0F3A" stroke-width="1.28069" stroke-miterlimit="10"/>
<path d="M120.349 180.168C121.105 180.168 121.718 179.557 121.718 178.803C121.718 178.049 121.105 177.438 120.349 177.438C119.592 177.438 118.979 178.049 118.979 178.803C118.979 179.557 119.592 180.168 120.349 180.168Z" fill="#8D0F3A" stroke="#8D0F3A" stroke-width="1.28069" stroke-miterlimit="10"/>
<path d="M106.238 62.1984C110.296 63.9234 113.222 66.6784 113.054 66.9328C112.91 67.1562 110.396 65.4561 105.678 63.3588C102.566 61.975 99.9205 61.0567 98.1528 60.4858C100.157 60.5355 103.07 60.8581 106.232 62.1984H106.238Z" fill="#D05B04"/>
<path d="M55.8531 73.9386C61.0005 72.0151 72.173 68.5651 84.472 70.7678C88.5427 71.5 93.41 72.3687 98.0844 75.9925C102.528 79.4362 101.881 81.5584 105.024 82.7621C111.877 85.3993 118.612 76.706 124.649 79.6596C126.566 80.5966 127.643 82.3278 128.241 83.575C125.62 87.0932 126.149 91.5484 130.189 97.0523C127.992 98.0078 124.537 99.2116 120.143 99.5281C115.668 99.8507 112.008 99.1309 109.68 98.4856C108.865 97.6976 107.763 96.4752 106.873 94.7564C105.317 91.7532 105.784 89.9165 104.794 89.2588C103.68 88.5142 100.91 89.3891 93.8208 96.0657C81.1608 94.9177 66.4031 90.5246 51.1787 85.4241L57.6457 76.9853L55.8593 73.9386H55.8531Z" fill="#3F0015" stroke="#8D0F3A" stroke-width="1.28069" stroke-miterlimit="10"/>
<path d="M95.3383 90.2947C94.9026 91.2503 94.1619 91.7715 93.6951 92.0879C91.056 93.8874 87.2531 93.5585 84.7945 92.4913C84.2032 92.2307 83.6368 91.9142 83.1139 91.5357C80.6989 89.8231 78.9437 87.0247 78.091 84.251C77.5993 82.6253 77.4063 81.0182 77.5619 79.6469C77.6927 78.499 78.0661 77.5124 78.7134 76.8236C80.4251 75.018 83.7488 75.6137 84.7945 75.7998C89.4627 76.6375 91.8465 80.6025 93.6578 83.6119C94.8528 85.5975 96.328 88.1229 95.3445 90.2885L95.3383 90.2947Z" fill="#FCFFEB" stroke="#8D0F3A" stroke-width="1.28069" stroke-miterlimit="10"/>
<path d="M113.955 98.4918C115.792 98.5539 119.458 98.6966 122.034 96.1401C124.076 94.1111 125.676 90.3198 124.045 88.1295C122.458 85.9887 118.568 86.4293 117.933 86.51C116.924 86.6403 116.221 86.9133 115.624 87.2483C114.26 88.0054 113.42 89.0788 110.7 89.6C110.184 89.6993 110.134 89.6373 109.991 89.7117C108.596 90.4315 108.908 96.5931 111.976 98.1319C112.163 98.225 112.642 98.4422 113.955 98.4918Z" fill="#FCFFEB" stroke="#8D0F3A" stroke-width="1.28069" stroke-miterlimit="10"/>
<path d="M87.5711 89.9905C86.2578 91.1074 84.6706 91.5728 83.1083 91.5356C80.6933 89.823 78.9381 87.0245 78.0854 84.2509C77.5937 82.6252 77.4007 81.0181 77.5563 79.6468C77.5875 79.5227 77.6124 79.411 77.6372 79.2869C78.2472 78.7967 79.0315 78.3065 80.0024 77.9776C80.351 77.8597 83.5814 76.7925 86.5752 78.5919C86.9611 78.8215 87.6707 79.3055 88.3367 80.0873C90.8637 83.0409 90.5214 87.4899 87.5649 89.9843L87.5711 89.9905Z" fill="#B73A40" stroke="#8D0F3A" stroke-width="1.28069" stroke-miterlimit="10"/>
<path d="M119.146 93.9804C119.015 94.5513 118.673 95.2711 118.636 95.3393C118.281 96.0777 117.876 96.9216 116.999 97.5793C115.997 98.3301 114.876 98.5101 113.949 98.4915C112.959 98.4729 112.175 98.2122 111.97 98.1378H111.939C111.403 97.5297 110.519 96.4066 110.046 94.7623C109.636 93.3227 109.499 91.3557 109.984 89.7176C110.214 89.6866 110.451 89.6493 110.694 89.6059C111.889 89.3825 112.723 88.9978 112.928 88.9109C113.638 88.6193 114.864 88.4766 117.161 89.1281C117.509 89.5004 119.632 91.8087 119.134 93.9866L119.146 93.9804Z" fill="#B73A40" stroke="#8D0F3A" stroke-width="1.28069" stroke-miterlimit="10"/>
<path d="M89.5889 85.1134C90.7817 85.1134 91.7487 84.1494 91.7487 82.9603C91.7487 81.7711 90.7817 80.8071 89.5889 80.8071C88.3961 80.8071 87.4291 81.7711 87.4291 82.9603C87.4291 84.1494 88.3961 85.1134 89.5889 85.1134Z" fill="#FCFFEB"/>
<path d="M119.955 91.7967C120.19 90.976 119.726 90.1251 118.919 89.8961C118.112 89.6672 117.268 90.1469 117.034 90.9676C116.8 91.7883 117.264 92.6392 118.07 92.8681C118.877 93.0971 119.721 92.6174 119.955 91.7967Z" fill="#FCFFEB"/>
<path d="M78.0055 55.8879C78.3043 58.7671 78.4785 61.6524 78.5345 64.5439" stroke="#6A0C0D" stroke-width="0.640345" stroke-miterlimit="10"/>
<path d="M79.9524 55.7014C80.3943 58.4254 80.6308 61.1866 80.6557 63.9479" stroke="#6A0C0D" stroke-width="0.640345" stroke-miterlimit="10"/>
<path d="M76.6774 60.0514C78.5322 59.3379 80.3621 58.5126 82.1485 57.5632" stroke="#6A0C0D" stroke-width="0.640345" stroke-miterlimit="10"/>
<path d="M77.3018 61.913C78.7894 60.976 80.3766 60.1942 82.0322 59.5923" stroke="#6A0C0D" stroke-width="0.640345" stroke-miterlimit="10"/>
<path d="M51.8232 90.4675C53.7164 90.4234 55.6069 90.472 57.495 90.6087" stroke="#6A0C0D" stroke-width="0.640345" stroke-miterlimit="10"/>
<path d="M51.8054 89.011C53.6052 88.8511 55.4181 88.8459 57.2196 88.9976" stroke="#6A0C0D" stroke-width="0.640345" stroke-miterlimit="10"/>
<path d="M54.4657 91.7073C54.1006 90.2877 53.6613 88.8798 53.1387 87.4964" stroke="#6A0C0D" stroke-width="0.640345" stroke-miterlimit="10"/>
<path d="M55.7125 91.3606C55.1819 90.1996 54.7578 88.9743 54.4547 87.7093" stroke="#6A0C0D" stroke-width="0.640345" stroke-miterlimit="10"/>
</g>
</svg>
