<svg width="10" height="7" viewBox="0 0 10 7" fill="none" xmlns="http://www.w3.org/2000/svg">
<path d="M3.40933 7C3.32297 7 3.242 6.98684 3.16644 6.96054C3.09087 6.93464 3.0207 6.89038 2.95592 6.82774L0.170678 4.13423C0.0519276 4.01939 -0.00485686 3.87051 0.000324994 3.68761C0.00593866 3.50512 0.0681206 3.35645 0.186871 3.24161C0.305622 3.12677 0.45676 3.06935 0.640283 3.06935C0.823807 3.06935 0.974944 3.12677 1.0937 3.24161L3.40933 5.48098L8.89886 0.17226C9.01761 0.0574199 9.17155 0 9.36069 0C9.5494 0 9.70312 0.0574199 9.82187 0.17226C9.94063 0.287099 10 0.435764 10 0.618255C10 0.801163 9.94063 0.950037 9.82187 1.06488L3.86275 6.82774C3.79797 6.89038 3.7278 6.93464 3.65223 6.96054C3.57666 6.98684 3.4957 7 3.40933 7Z" fill="#3C68A9"/>
</svg>
