<svg width="29" height="30" viewBox="0 0 29 30" fill="none" xmlns="http://www.w3.org/2000/svg">
<path d="M1 6C1 3.23857 3.23858 1 6 1H23C25.7614 1 28 3.23858 28 6V16.7161C28 18.7664 26.3379 20.4286 24.2875 20.4286H16.675H9.68686C8.31741 20.4286 7.00964 20.9981 6.0768 22.0007L1 27.4572V21.4286V6Z" fill="#FF7449" stroke="black" stroke-width="2"/>
<path d="M14.9533 13.58C14.5 13.58 14.2533 13.3267 14.2133 12.82L13.6333 5.46C13.6067 5.04667 13.7133 4.7 13.9533 4.42C14.2067 4.14 14.5333 4 14.9333 4C15.3333 4 15.66 4.14 15.9133 4.42C16.1667 4.7 16.2733 5.04667 16.2333 5.46L15.6733 12.82C15.6333 13.3267 15.3933 13.58 14.9533 13.58ZM14.8133 18C14.4267 18 14.1267 17.9 13.9133 17.7C13.7133 17.4867 13.6133 17.1867 13.6133 16.8V16.46C13.6133 16.0733 13.7133 15.78 13.9133 15.58C14.1267 15.3667 14.4267 15.26 14.8133 15.26H15.0733C15.46 15.26 15.7533 15.3667 15.9533 15.58C16.1667 15.78 16.2733 16.0733 16.2733 16.46V16.8C16.2733 17.1867 16.1667 17.4867 15.9533 17.7C15.7533 17.9 15.46 18 15.0733 18H14.8133Z" fill="black"/>
</svg>
