<svg width="320" height="240" viewBox="0 0 138 102" fill="none" xmlns="http://www.w3.org/2000/svg">
<mask id="path-1-inside-1_335_56487" fill="white">
<path d="M0 46.2062C0 45.269 0.759759 44.5093 1.69697 44.5093H136.303C137.24 44.5093 138 45.269 138 46.2062V98.6062C138 100.481 136.48 102 134.606 102H3.39393C1.51951 102 0 100.481 0 98.6062V46.2062Z"/>
</mask>
<path d="M0 46.2062C0 45.269 0.759759 44.5093 1.69697 44.5093H136.303C137.24 44.5093 138 45.269 138 46.2062V98.6062C138 100.481 136.48 102 134.606 102H3.39393C1.51951 102 0 100.481 0 98.6062V46.2062Z" fill="#FEBD01" stroke="#8D0F3A" stroke-width="7.38" mask="url(#path-1-inside-1_335_56487)"/>
<mask id="path-2-inside-2_335_56487" fill="white">
<path d="M0 11.8788C0 5.31831 5.31832 0 11.8788 0H126.121C132.682 0 138 5.31832 138 11.8788V45.903C138 46.8402 137.24 47.6 136.303 47.6H1.69697C0.759764 47.6 0 46.8402 0 45.903V11.8788Z"/>
</mask>
<path d="M0 11.8788C0 5.31831 5.31832 0 11.8788 0H126.121C132.682 0 138 5.31832 138 11.8788V45.903C138 46.8402 137.24 47.6 136.303 47.6H1.69697C0.759764 47.6 0 46.8402 0 45.903V11.8788Z" fill="#FEBD01" stroke="#8D0F3A" stroke-width="7.38" mask="url(#path-2-inside-2_335_56487)"/>
<path d="M19.1716 10.1818C19.1716 5.57752 22.9041 1.845 27.5084 1.845H111.728C116.332 1.845 120.065 5.57752 120.065 10.1818V35.8641H19.1716V10.1818Z" fill="#E54E17" stroke="#8D0F3A" stroke-width="3.69"/>
<mask id="path-4-inside-3_335_56487" fill="white">
<path fill-rule="evenodd" clip-rule="evenodd" d="M85.3994 55.6367H52.6008V90.2549H85.3994V55.6367ZM96.5385 90.2549H121.91V55.6367H96.5385V90.2549ZM17.3266 55.6367H41.4618V90.2549H17.3266V55.6367Z"/>
</mask>
<path fill-rule="evenodd" clip-rule="evenodd" d="M85.3994 55.6367H52.6008V90.2549H85.3994V55.6367ZM96.5385 90.2549H121.91V55.6367H96.5385V90.2549ZM17.3266 55.6367H41.4618V90.2549H17.3266V55.6367Z" fill="#E54E17"/>
<path d="M85.3994 55.6367H89.0894V51.9467H85.3994V55.6367ZM52.6008 55.6367V51.9467H48.9108V55.6367H52.6008ZM52.6008 90.2549H48.9108V93.9449H52.6008V90.2549ZM85.3994 90.2549V93.9449H89.0894V90.2549H85.3994ZM96.5385 90.2549H92.8485V93.9449H96.5385V90.2549ZM121.91 90.2549V93.9449H125.6V90.2549H121.91ZM121.91 55.6367H125.6V51.9467H121.91V55.6367ZM96.5385 55.6367V51.9467H92.8485V55.6367H96.5385ZM41.4618 55.6367H45.1518V51.9467H41.4618V55.6367ZM17.3266 55.6367V51.9467H13.6366V55.6367H17.3266ZM41.4618 90.2549V93.9449H45.1518V90.2549H41.4618ZM17.3266 90.2549H13.6366V93.9449H17.3266V90.2549ZM85.3994 51.9467H52.6008V59.3267H85.3994V51.9467ZM48.9108 55.6367V90.2549H56.2908V55.6367H48.9108ZM52.6008 93.9449H85.3994V86.5649H52.6008V93.9449ZM89.0894 90.2549V55.6367H81.7094V90.2549H89.0894ZM96.5385 93.9449H121.91V86.5649H96.5385V93.9449ZM125.6 90.2549V55.6367H118.22V90.2549H125.6ZM121.91 51.9467H96.5385V59.3267H121.91V51.9467ZM92.8485 55.6367V90.2549H100.228V55.6367H92.8485ZM41.4618 51.9467H17.3266V59.3267H41.4618V51.9467ZM45.1518 90.2549V55.6367H37.7718V90.2549H45.1518ZM17.3266 93.9449H41.4618V86.5649H17.3266V93.9449ZM13.6366 55.6367V90.2549H21.0166V55.6367H13.6366Z" fill="#8D0F3A" mask="url(#path-4-inside-3_335_56487)"/>
<rect x="51.0758" y="23.7019" width="36.4237" height="43.6671" rx="5.45197" fill="#FEBD01" stroke="#8D0F3A" stroke-width="3.69"/>
<path d="M74.7351 50.0511C73.5483 51.2356 72.0397 52.6514 70.2061 54.3002C70.2059 54.3005 70.2056 54.3007 70.2054 54.3009L69.2877 55.122L68.37 54.3009C68.3698 54.3007 68.3695 54.3005 68.3693 54.3002C66.5357 52.6514 65.0271 51.2356 63.8403 50.0511C62.6582 48.8713 61.7368 47.8307 61.0643 46.9272C60.391 46.0226 59.9533 45.2338 59.7145 44.5573C59.4691 43.862 59.3476 43.1555 59.3476 42.4335C59.3476 40.9725 59.8273 39.8036 60.7771 38.8557C61.7269 37.9077 62.8991 37.4282 64.3647 37.4282C65.1669 37.4282 65.9249 37.5965 66.6491 37.9348C67.3748 38.2738 67.9983 38.7495 68.5264 39.3695L69.2877 40.2634L70.049 39.3695C70.5771 38.7495 71.2006 38.2738 71.9263 37.9348C72.6505 37.5965 73.4085 37.4282 74.2107 37.4282C75.6763 37.4282 76.8485 37.9077 77.7983 38.8557C78.7481 39.8036 79.2278 40.9725 79.2278 42.4335C79.2278 43.1555 79.1063 43.862 78.8609 44.5573C78.6221 45.2338 78.1844 46.0226 77.5111 46.9272C76.8386 47.8307 75.9172 48.8713 74.7351 50.0511Z" fill="#8D0F3A" stroke="#8D0F3A" stroke-width="2"/>
</svg>
