<svg width="238" height="398" viewBox="0 0 238 398" fill="none" xmlns="http://www.w3.org/2000/svg">
<path d="M230.644 294.499C230.644 294.499 230.564 294.499 230.529 294.499C230.506 294.499 230.495 294.499 230.483 294.51C229.772 294.545 229.118 294.613 228.532 294.693" stroke="#231F20" stroke-width="2" stroke-miterlimit="10"/>
<path d="M230.782 298.141C230.759 298.392 230.713 298.631 230.667 298.881C229.462 304.914 223.747 307.19 223.391 307.327C223.667 307.6 223.919 307.885 224.149 308.181C226.822 311.482 227.155 315.613 225.273 318.231C224.894 318.755 224.458 319.176 223.976 319.529C221.945 320.997 219.294 321.009 218.766 321.009C216.081 321.009 213.82 319.836 212.041 318.391V351.707C148.51 328.544 120.819 312.313 110.25 300.748C110.25 300.748 110.246 300.744 110.238 300.737C108.7 299.041 107.507 297.447 106.635 295.945C106.118 295.057 105.717 294.214 105.407 293.395C104.259 290.379 102.985 287.408 101.689 284.448C99.2326 278.825 96.7079 273.237 94.8144 267.42C94.4242 266.225 94.034 265.098 93.6553 264.028C89.9945 253.955 86.4599 249.185 84.4287 245.759C83.5335 244.257 82.6384 242.823 81.7777 241.468C81.5023 241.058 81.2498 240.648 80.9859 240.25C77.566 234.934 74.8462 230.894 74.8233 228.321C74.8233 227.707 74.961 227.183 75.2938 226.739C76.2578 225.441 77.5431 226.534 82.2712 224.406C85.0254 223.165 87.5386 221.469 89.7765 219.955C89.9371 219.841 90.0748 219.727 90.2125 219.648C90.2355 219.625 90.247 219.625 90.2584 219.614C90.2699 219.602 90.2814 219.591 90.2929 219.579C90.4076 219.5 90.5109 219.42 90.6257 219.352C90.9929 219.101 91.3142 218.874 91.6011 218.646C91.7274 218.566 91.8307 218.487 91.9339 218.418C92.2438 218.202 92.4618 218.054 92.5307 218.009C92.5881 217.975 92.6454 217.929 92.7028 217.883C92.7602 217.849 92.8291 217.804 92.8864 217.758C95.1931 216.187 97.9703 214.173 101.069 211.669C102.584 210.451 104.167 209.119 105.82 207.651H105.831C105.969 207.525 106.107 207.4 106.256 207.264C106.623 206.945 106.99 206.603 107.369 206.262C107.392 208.015 107.415 209.756 107.449 211.509C107.495 215.129 107.541 218.76 107.599 222.38C109.492 226.318 112.097 231.178 115.62 236.448C117.319 239.021 119.235 241.673 121.393 244.371C122.047 245.19 122.724 246.021 123.424 246.852C123.424 246.852 123.424 246.863 123.435 246.863C124.135 247.694 124.858 248.525 125.604 249.356C125.983 249.777 126.362 250.198 126.763 250.619C127.923 251.883 129.139 253.135 130.401 254.376C132.1 256.049 133.89 257.711 135.784 259.338C137.482 260.807 139.318 262.298 141.269 263.789C141.613 264.062 141.969 264.324 142.325 264.586C142.933 265.052 143.553 265.519 144.184 265.974C144.207 265.997 144.23 266.009 144.253 266.02C145.24 266.737 146.238 267.454 147.26 268.16C147.81 268.547 148.373 268.934 148.947 269.31C150.507 270.368 152.102 271.404 153.709 272.406C153.743 272.428 153.778 272.451 153.812 272.462C155.419 273.476 157.037 274.432 158.667 275.354C158.701 275.376 158.736 275.399 158.77 275.411C159.229 275.672 159.688 275.934 160.147 276.185H160.159C160.25 276.241 160.342 276.287 160.434 276.333C162.121 277.243 163.808 278.12 165.46 278.916C165.701 279.03 165.954 279.155 166.195 279.269C166.654 279.485 167.124 279.702 167.583 279.907C167.779 279.998 167.985 280.089 168.192 280.18C168.261 280.203 168.329 280.237 168.398 280.282C168.467 280.316 168.536 280.339 168.605 280.373C168.662 280.407 168.731 280.43 168.8 280.453C169.752 280.863 170.705 281.261 171.634 281.625C172.346 281.899 173.046 282.16 173.723 282.399C174.079 282.513 174.412 282.627 174.756 282.741C174.94 282.798 175.112 282.855 175.295 282.9H175.307C177.143 283.481 178.887 283.913 180.528 284.186C180.85 284.243 181.171 284.289 181.492 284.323C183.11 284.539 184.602 284.562 185.945 284.391C186.45 284.323 186.92 284.232 187.38 284.118C187.552 284.073 187.712 284.027 187.873 283.97C187.93 283.959 187.988 283.947 188.045 283.925C188.068 283.913 188.091 283.913 188.114 283.891C188.194 283.868 188.275 283.834 188.355 283.799C188.516 283.754 188.676 283.686 188.825 283.617C188.894 283.572 188.975 283.538 189.044 283.504C189.112 283.469 189.193 283.424 189.262 283.39C189.457 283.287 189.64 283.173 189.824 283.06C190.042 282.912 190.249 282.764 190.444 282.593C190.673 282.399 190.891 282.195 191.086 281.967C191.201 281.853 191.304 281.728 191.396 281.591C191.534 281.421 191.66 281.216 191.786 281.022C191.924 280.794 192.05 280.567 192.176 280.328C192.199 280.294 192.211 280.271 192.222 280.237C192.326 280.02 192.417 279.804 192.509 279.577C192.578 279.394 192.647 279.212 192.704 279.03C192.739 278.905 192.785 278.78 192.808 278.655C192.819 278.643 192.819 278.62 192.819 278.609C193.049 277.767 193.209 276.811 193.29 275.729V275.695C193.611 270.903 192.257 263.573 188.08 252.441C187.781 251.655 187.471 250.836 187.15 250.005C185.36 245.44 183.122 240.284 180.379 234.456C179.714 233.034 179.014 231.565 178.291 230.063C177.843 229.164 177.395 228.242 176.913 227.308C174.94 223.29 172.736 218.999 170.303 214.412C168.984 211.93 167.606 209.369 166.149 206.706C166.092 206.592 166.023 206.49 165.977 206.376C164.037 202.859 161.995 199.182 159.814 195.346C160.136 195.13 160.445 194.914 160.767 194.697H160.778C161.65 194.094 162.511 193.502 163.383 192.91C163.475 192.842 163.578 192.785 163.67 192.717C163.992 192.785 164.324 192.865 164.657 192.944C166.631 193.4 168.903 194.049 171.405 194.948C174.366 196.029 177.625 197.475 180.976 199.444C181.309 199.637 181.642 199.854 182.009 200.07H182.02C182.422 200.332 182.858 200.605 183.306 200.901C186.714 203.177 191.327 206.934 197.318 214.127C197.341 214.15 197.352 214.161 197.364 214.184C198.58 215.653 199.865 217.269 201.197 219.044C201.38 219.284 201.575 219.534 201.759 219.784C202.046 220.183 202.356 220.581 202.666 221.014C202.688 221.036 202.711 221.071 202.734 221.093C202.78 221.162 202.838 221.23 202.884 221.31C205.466 224.793 208.679 229.3 212.018 234.969V272.622C212.328 272.383 212.65 272.167 212.982 271.95C214.004 271.29 221.188 266.817 226.295 269.184C226.432 269.731 226.57 270.266 226.708 270.801C226.822 271.279 226.937 271.757 227.052 272.223C227.97 276.173 228.67 279.941 229.198 283.606C227.993 285.814 226.478 287.214 226.157 287.499C228.2 289.024 229.634 291.118 230.357 293.418C230.391 293.782 230.426 294.146 230.46 294.51C230.564 295.728 230.667 296.935 230.759 298.141H230.782Z" fill="#AC9955"/>
<path d="M223.976 319.529C221.945 320.998 219.294 321.009 218.766 321.009C216.081 321.009 213.82 319.837 212.041 318.391V338.333C208.415 337.081 204.307 335.249 199.842 332.915C196.078 330.957 192.062 328.635 187.884 325.995C183.948 323.513 179.874 320.759 175.72 317.754C173.505 316.16 171.267 314.498 169.029 312.78C168.157 312.108 167.297 311.425 166.424 310.731C163.567 308.488 160.698 306.132 157.84 303.696C157.565 303.457 157.278 303.218 157.003 302.979C153.893 300.304 150.806 297.527 147.753 294.67C147.719 294.647 147.684 294.624 147.65 294.579C142.268 289.514 137.012 284.187 132.065 278.678C131.641 278.2 131.205 277.71 130.78 277.232C125.272 271.006 119.889 260.83 114.737 248.673C114.45 248.036 114.174 247.387 113.899 246.727C110.95 239.636 108.069 231.93 105.269 223.973C104.064 220.536 102.871 217.064 101.7 213.57C101.482 212.921 101.275 212.284 101.069 211.669C101 211.453 100.931 211.236 100.862 211.032C100.736 210.645 100.61 210.258 100.495 209.882C99.1638 205.773 98.1195 202.221 97.3162 199.444C97.2359 199.16 97.167 198.898 97.0867 198.636C97.0637 198.556 97.0522 198.488 97.0293 198.42C97.2359 198.238 97.4424 198.055 97.6605 197.873C97.9129 197.646 98.1654 197.429 98.4294 197.225C100.277 195.654 102.159 194.22 104.053 192.899C104.156 192.82 104.271 192.74 104.374 192.683C107.472 190.532 110.617 188.699 113.773 187.185C113.922 187.094 114.083 187.026 114.232 186.958C115.104 186.536 115.976 186.138 116.86 185.762C117.996 185.284 119.132 184.84 120.268 184.442C128.519 181.46 136.61 180.492 143.725 181.346C144.356 181.414 144.964 181.505 145.573 181.608C145.722 181.631 145.871 181.653 146.009 181.687C147.03 181.858 148.017 182.074 148.981 182.348C149.015 182.348 149.05 182.359 149.084 182.37C149.291 182.416 149.486 182.473 149.681 182.53C153.216 183.543 156.394 185.079 159.091 187.094C159.826 187.641 160.526 188.232 161.191 188.847C161.685 189.302 162.144 189.78 162.591 190.27C162.614 190.304 162.649 190.327 162.683 190.361C162.706 190.395 162.741 190.441 162.764 190.475C163.475 191.272 164.106 192.091 164.68 192.945C165.162 193.639 165.598 194.345 166 195.062C166.252 195.517 166.493 195.984 166.711 196.451C166.964 196.951 167.193 197.464 167.4 197.976C169.167 202.199 169.902 206.558 170.177 210.166C170.189 210.235 170.189 210.303 170.189 210.36C170.246 211.043 170.28 211.68 170.292 212.295V212.363C170.326 213.103 170.326 213.786 170.326 214.412C167.274 215.345 163.923 215.368 160.87 214.458C165.449 219.591 170.912 223.951 176.936 227.308C177.327 227.513 177.705 227.73 178.095 227.935C178.118 227.946 178.141 227.957 178.153 227.969C178.968 228.39 179.782 228.8 180.609 229.187C180.104 229.426 179.599 229.642 179.071 229.824C179.048 229.824 179.025 229.824 179.002 229.847C178.773 229.926 178.543 229.995 178.314 230.063C176.672 230.53 174.974 230.712 173.276 230.598C175.445 231.588 177.866 232.84 180.402 234.457C180.746 234.662 181.091 234.889 181.446 235.128C181.55 235.197 181.653 235.265 181.756 235.345C182.537 235.845 183.317 236.403 184.109 236.995C189.858 241.309 193.921 245.987 196.675 249.812C197.088 250.392 197.478 250.961 197.834 251.496C197.696 251.371 197.329 251.052 196.778 250.677C195.482 249.823 193.118 248.662 190.203 249.038C189.457 249.14 188.78 249.322 188.183 249.561C187.976 249.618 187.77 249.709 187.586 249.8C187.437 249.857 187.299 249.925 187.173 250.005C186.358 250.415 185.761 250.882 185.394 251.189C186.312 251.576 187.219 251.986 188.103 252.441C188.298 252.543 188.481 252.635 188.676 252.737C188.998 252.908 189.319 253.078 189.629 253.261C192.452 254.843 195.091 256.778 197.478 258.975C199.108 260.477 200.623 262.105 202.011 263.846C204.571 267.068 206.648 270.653 208.14 274.489C205.798 272.895 203.32 271.495 200.749 270.312C199.751 269.845 198.741 269.412 197.708 269.025C197.088 268.786 196.468 268.559 195.837 268.342C196.434 269.071 197.042 269.845 197.685 270.664C198.454 271.655 199.257 272.713 200.083 273.829C201.702 276.014 203.389 278.427 205.121 281.057C207.394 284.528 209.735 288.398 212.041 292.644C214.486 297.163 216.873 302.114 219.099 307.509C220.981 312.062 222.622 316.058 223.976 319.529Z" fill="#E0E5FF" stroke="#8D0F3A" stroke-width="2" stroke-miterlimit="10"/>
<path d="M188.194 328.055C181.492 283.185 173.436 249.527 167.251 234.798C165.46 230.529 161.845 224.121 155.373 218.168C150.324 213.535 143.713 210.257 136.828 210.337C127.509 210.439 118.684 217.303 116.355 226.261L113.463 266.361C138.377 286.93 163.291 307.486 188.194 328.055Z" fill="#FCFFEB"/>
<path d="M185.979 275.126C187.724 282.627 187.907 289.479 187.311 296.001C187.311 296.172 187.288 296.331 187.265 296.502C178.555 293.941 171.841 290.23 168.146 284.756C156.417 259.873 148.442 236.619 146.858 216.153C145.137 214.503 143.415 212.841 141.694 211.179C142.933 209.916 144.207 208.481 145.492 206.888C146.284 205.909 147.007 204.942 147.661 204.008C147.787 203.849 147.902 203.678 148.017 203.507C149.084 204.259 150.289 205.033 151.666 205.795C153.032 206.558 154.329 207.184 155.534 207.707C155.189 209.802 154.834 211.908 154.489 214.013C159.562 234.49 171.107 254.842 185.968 275.126H185.979Z" fill="#B73A40"/>
<path d="M187.311 295.99C187.311 296.161 187.288 296.32 187.265 296.491C178.555 293.93 171.841 290.219 168.146 284.744C156.417 259.862 148.442 236.608 146.858 216.142C145.137 214.492 143.415 212.83 141.694 211.168C142.933 209.905 144.207 208.47 145.492 206.877C146.284 205.898 147.007 204.93 147.661 203.997C146.158 206.251 144.976 208.607 144.482 211.122C144.873 211.737 145.446 212.431 146.261 213.023C149.302 215.22 153.755 213.877 153.755 213.877C153.663 214.674 149.911 216.131 149.073 215.971C149.073 215.971 154.225 247.307 159.654 257.529C164.634 268.467 173.092 282.445 187.288 296.002L187.311 295.99Z" fill="#6A0C0D"/>
<path d="M185.979 275.126C187.724 282.627 187.907 289.479 187.311 296.001C187.311 296.172 187.288 296.331 187.265 296.502C184.912 296.115 180.402 295.057 175.823 291.722C171.015 288.216 168.605 284.004 167.561 281.864C162.844 273.134 157.772 262.059 153.698 248.798C149.933 236.562 147.925 225.441 146.858 216.153C145.137 214.503 143.415 212.841 141.694 211.179C142.933 209.916 144.207 208.481 145.492 206.888C146.284 205.909 147.007 204.942 147.661 204.008C147.787 203.849 147.902 203.678 148.017 203.507C149.084 204.259 150.289 205.033 151.666 205.795C153.032 206.558 154.329 207.184 155.534 207.707C155.189 209.802 154.834 211.908 154.489 214.013C159.562 234.49 171.107 254.842 185.968 275.126H185.979Z" stroke="#8D0F3A" stroke-width="2" stroke-miterlimit="10"/>
<path d="M230.782 298.141C230.759 298.392 230.713 298.631 230.667 298.881C229.462 304.914 223.747 307.19 223.391 307.327C223.667 307.6 223.919 307.885 224.148 308.181C226.822 311.482 227.155 315.613 225.273 318.231C224.894 318.755 224.458 319.176 223.976 319.529C221.945 320.997 219.294 321.009 218.766 321.009C216.081 321.009 213.82 319.836 212.041 318.391V352.629C200.06 348.771 185.796 343.569 170.143 336.614C168.467 335.863 166.826 335.134 165.219 334.429C164.531 334.121 163.854 333.825 163.188 333.518C142.715 324.469 128.875 318.357 119.27 310.992C119.155 310.901 119.052 310.821 118.937 310.73C114.943 307.623 111.684 304.288 109.01 300.395C108.654 299.883 108.322 299.382 108.012 298.893C104.477 293.418 103.134 289.263 101.688 284.448C101.149 282.65 100.598 280.783 99.9097 278.711C99.8982 278.711 99.9097 278.7 99.9097 278.7C99.8868 278.632 99.8638 278.552 99.8294 278.484C98.5211 274.557 96.7194 269.97 93.6553 264.028C92.3126 261.433 90.7404 258.587 88.8584 255.434C86.5173 251.507 83.6827 247.136 81.0318 242.925C81.0318 242.925 81.0318 242.925 81.0203 242.902C81.0203 242.902 81.0203 242.895 81.0203 242.879C80.8022 242.527 80.5957 242.185 80.3776 241.844C80.2743 241.673 80.1596 241.502 80.0563 241.331C80.0333 241.297 80.0104 241.263 79.9989 241.229C78.9087 239.522 77.8759 237.86 76.9463 236.312C76.9463 236.289 76.9348 236.278 76.9119 236.255C73.6068 230.848 71.4149 226.705 72.2412 226.011H72.2526C72.2526 226.011 72.2756 225.988 72.31 225.988C72.5395 225.863 72.8379 226.056 73.4806 226.307C73.5494 226.341 73.6298 226.363 73.7101 226.386C73.756 226.409 73.7904 226.42 73.8363 226.432C74.0314 226.5 74.238 226.557 74.479 226.602C74.6282 226.637 74.8003 226.671 74.9725 226.694C75.0757 226.716 75.179 226.728 75.2938 226.739C79.9186 227.308 84.0385 224.36 84.8188 223.745C85.2205 223.427 87.0566 221.958 89.7764 219.955C89.9371 219.841 90.0748 219.727 90.2125 219.648C90.2355 219.625 90.247 219.625 90.2584 219.614C90.2699 219.602 90.2814 219.591 90.2929 219.579C90.4076 219.5 90.5109 219.42 90.6257 219.352C90.9929 219.079 91.3257 218.84 91.6011 218.646C91.7274 218.566 91.8306 218.487 91.9339 218.418C92.2438 218.202 92.4618 218.054 92.5307 218.009C92.588 217.975 92.6454 217.929 92.7028 217.883C92.7602 217.849 92.829 217.804 92.8864 217.758C94.298 216.745 96.685 214.787 100.862 211.031C102.262 209.768 103.869 208.311 105.705 206.615C105.854 206.478 106.003 206.33 106.153 206.194H106.164C106.164 206.364 106.199 206.558 106.21 206.74C106.233 206.911 106.244 207.093 106.256 207.264C106.325 208.026 106.394 208.789 106.462 209.552C106.83 213.831 107.22 218.111 107.599 222.38C109.492 226.318 112.097 231.178 115.62 236.448C117.319 239.021 119.235 241.673 121.393 244.371C122.047 245.19 122.724 246.021 123.424 246.852C123.424 246.852 123.424 246.863 123.435 246.863C124.135 247.694 124.858 248.525 125.604 249.356C125.983 249.777 126.362 250.198 126.763 250.619C127.923 251.883 129.139 253.135 130.401 254.376C132.1 256.049 133.89 257.711 135.784 259.338C137.482 260.807 139.318 262.298 141.269 263.789C141.613 264.062 141.969 264.324 142.325 264.586C142.933 265.052 143.553 265.519 144.184 265.974C144.207 265.997 144.23 266.009 144.253 266.02C145.24 266.737 146.238 267.454 147.26 268.16C147.81 268.547 148.373 268.934 148.946 269.31C150.507 270.368 152.102 271.404 153.709 272.406C153.743 272.428 153.778 272.451 153.812 272.462C155.419 273.476 157.037 274.432 158.667 275.354C158.701 275.376 158.736 275.399 158.77 275.411C159.229 275.672 159.688 275.934 160.147 276.185H160.159C160.25 276.241 160.342 276.287 160.434 276.333C162.121 277.243 163.808 278.12 165.46 278.916C165.701 279.03 165.954 279.155 166.195 279.269C166.654 279.485 167.124 279.702 167.583 279.907C167.779 279.998 167.985 280.089 168.192 280.18C168.261 280.203 168.329 280.237 168.398 280.282C168.467 280.316 168.536 280.339 168.605 280.373C168.662 280.407 168.731 280.43 168.8 280.453C169.752 280.863 170.705 281.261 171.634 281.625C172.346 281.899 173.046 282.16 173.723 282.399C174.079 282.525 174.412 282.638 174.756 282.741C174.94 282.798 175.112 282.855 175.295 282.9H175.307C177.143 283.481 178.887 283.913 180.528 284.186C180.85 284.243 181.171 284.289 181.492 284.323C183.11 284.539 184.602 284.562 185.945 284.391C186.45 284.323 186.92 284.232 187.38 284.118C187.552 284.073 187.712 284.027 187.873 283.97C187.93 283.959 187.988 283.947 188.045 283.925C188.068 283.913 188.091 283.913 188.114 283.891C188.194 283.868 188.275 283.834 188.355 283.799C188.516 283.754 188.676 283.686 188.825 283.617C188.894 283.583 188.975 283.538 189.044 283.504C189.112 283.469 189.193 283.424 189.262 283.39C189.457 283.287 189.64 283.173 189.824 283.06C190.042 282.912 190.248 282.764 190.444 282.593C190.673 282.399 190.891 282.195 191.086 281.967C191.201 281.853 191.304 281.728 191.396 281.591C191.534 281.421 191.66 281.216 191.786 281.022C191.924 280.794 192.05 280.567 192.176 280.328C192.199 280.294 192.211 280.271 192.222 280.237C192.326 280.02 192.417 279.804 192.509 279.577C192.578 279.394 192.647 279.212 192.704 279.03C192.739 278.905 192.785 278.78 192.808 278.655C192.819 278.643 192.819 278.62 192.819 278.609C193.049 277.767 193.209 276.811 193.29 275.729V275.695C193.611 270.903 192.257 263.573 188.08 252.441C187.781 251.655 187.471 250.836 187.15 250.005C185.36 245.44 183.122 240.284 180.379 234.456C179.714 233.034 179.014 231.565 178.291 230.063C177.843 229.164 177.395 228.242 176.913 227.308C174.94 223.29 172.736 218.999 170.303 214.412C168.984 211.93 167.606 209.369 166.149 206.706C166.092 206.592 166.023 206.49 165.977 206.376C164.037 202.859 161.995 199.182 159.814 195.346C160.136 195.13 160.445 194.914 160.767 194.697H160.778C161.65 194.094 162.511 193.502 163.383 192.91C163.475 192.842 163.578 192.785 163.67 192.717C163.991 192.785 164.324 192.865 164.657 192.944C166.631 193.4 168.903 194.049 171.405 194.948C174.366 196.029 177.625 197.475 180.976 199.444C181.309 199.637 181.642 199.854 182.009 200.07H182.02C182.422 200.332 182.858 200.605 183.306 200.901C186.714 203.177 191.327 206.934 197.318 214.127C197.341 214.15 197.352 214.161 197.364 214.184C198.58 215.653 199.865 217.269 201.197 219.044C201.38 219.284 201.575 219.534 201.759 219.784C202.046 220.183 202.356 220.581 202.665 221.014C202.688 221.036 202.711 221.071 202.734 221.093C202.78 221.162 202.838 221.23 202.884 221.31C205.466 224.793 208.679 229.3 212.018 234.969V272.622C212.328 272.383 212.65 272.167 212.982 271.95C214.004 271.29 221.188 266.817 226.294 269.184C226.432 269.731 226.57 270.266 226.708 270.801C226.822 271.279 226.937 271.757 227.052 272.223C227.97 276.173 228.67 279.941 229.198 283.606C227.993 285.814 226.478 287.214 226.157 287.499C228.2 289.024 229.634 291.118 230.357 293.418C230.391 293.782 230.426 294.146 230.46 294.51C230.564 295.728 230.667 296.935 230.759 298.141H230.782Z" fill="#CAD678"/>
<path d="M141.705 211.168C139.421 213.228 137.126 215.3 134.843 217.36C125.616 215.391 116.401 213.422 107.174 211.453" stroke="#8D0F3A" stroke-width="2" stroke-miterlimit="10"/>
<path d="M233.421 209.643C231.757 212.181 227.981 212.477 227.339 212.523C221.52 212.966 217.183 208.231 215.897 206.831C213.556 204.282 212.546 201.664 212.076 200.002H212.041V247.489C210.377 246.033 208.69 244.519 207.015 242.936C206.613 242.561 206.212 242.174 205.821 241.798C199.98 236.209 194.954 230.7 190.639 225.499C190.203 224.986 189.778 224.474 189.365 223.962C189.089 223.803 188.803 223.643 188.527 223.472C183.317 220.342 176.913 216.006 170.177 210.166C169.569 209.643 168.961 209.108 168.352 208.55C168.318 208.527 168.284 208.493 168.249 208.459C167.503 207.787 166.757 207.093 166 206.376C162.821 203.382 159.608 200.036 156.44 196.325C156.417 196.291 156.383 196.257 156.36 196.223C152.963 192.262 150.025 188.312 147.455 184.499C147.351 184.351 147.26 184.203 147.156 184.055C147.122 184.009 147.087 183.952 147.053 183.907C146.548 183.133 146.055 182.37 145.573 181.608C145.366 181.3 145.171 180.982 144.976 180.674C143.702 178.625 142.543 176.634 141.476 174.698C141.464 174.676 141.453 174.664 141.441 174.642C141.349 174.471 141.258 174.3 141.166 174.129C141.166 174.129 141.166 174.118 141.154 174.118C141.154 174.107 141.143 174.084 141.131 174.072C141.12 174.05 141.108 174.027 141.097 174.004C140.351 172.627 139.651 171.284 139.008 169.986C138.733 169.428 138.457 168.871 138.205 168.324C137.298 166.423 136.484 164.625 135.772 162.952C141.648 161.392 148.361 160.004 155.844 159.15C155.844 159.15 155.844 159.161 155.855 159.15C158.506 158.831 161.26 158.592 164.106 158.433H164.118C164.485 158.41 164.841 158.399 165.208 158.376C166.401 158.319 167.618 158.274 168.846 158.251C173.838 158.148 178.532 158.308 182.904 158.661C183.248 160.448 183.765 162.588 184.579 164.91C185.899 168.757 188.022 173.094 191.465 177.157C192.096 177.897 192.727 178.591 193.37 179.229C194.162 180.014 194.954 180.731 195.768 181.391C196.078 181.653 196.388 181.904 196.698 182.143C197.731 182.928 198.787 183.622 199.854 184.26C203.125 186.229 206.556 187.561 210.022 188.756C210.687 188.995 211.364 189.223 212.041 189.45C216.953 191.089 221.922 192.66 226.627 195.54C227.947 196.348 229.301 197.293 230.678 198.42C231.126 198.772 231.562 199.148 232.01 199.546C231.218 200.059 230.621 200.32 230.518 200.366C234.121 203.075 235.131 207.048 233.421 209.643Z" fill="#CAD678" stroke="#8D0F3A" stroke-width="2" stroke-miterlimit="10"/>
<path d="M206.28 235.834C208.185 237.382 210.102 238.93 212.041 240.489V247.489C210.377 246.032 208.69 244.518 207.015 242.936C206.613 242.561 206.212 242.174 205.821 241.798C199.98 236.209 194.954 230.7 190.639 225.498C190.203 224.986 189.778 224.474 189.365 223.962C189.089 223.802 188.803 223.643 188.527 223.472C183.329 220.433 176.913 216.176 170.189 210.36C169.638 209.87 169.075 209.381 168.525 208.868H168.513C168.513 208.868 168.444 208.812 168.41 208.766C167.664 208.106 166.918 207.412 166.172 206.706C162.924 203.633 159.654 200.184 156.44 196.325C156.417 196.291 156.383 196.257 156.36 196.223C153.009 192.182 150.129 188.175 147.661 184.339C147.569 184.191 147.466 184.032 147.374 183.884C147.351 183.838 147.317 183.793 147.294 183.747C146.846 183.053 146.422 182.37 146.009 181.687C145.768 181.289 145.527 180.89 145.309 180.492C144.081 178.432 142.991 176.428 141.992 174.516C141.992 174.516 141.988 174.509 141.981 174.493C141.889 174.311 141.797 174.129 141.717 173.958H141.705C141.705 173.958 141.682 173.902 141.682 173.89L141.659 173.867C140.649 171.864 139.743 169.952 138.951 168.153C141.086 167.926 147.432 169.121 147.432 169.121C147.856 169.849 148.281 170.566 148.706 171.272C148.729 171.306 148.751 171.34 148.774 171.386C148.797 171.42 148.82 171.466 148.843 171.5C148.912 171.625 148.992 171.75 149.061 171.864C149.463 172.524 149.853 173.162 150.255 173.799C150.622 174.402 150.989 174.994 151.368 175.586C151.62 175.996 151.873 176.394 152.137 176.793C152.286 177.043 152.447 177.305 152.619 177.555C152.653 177.612 152.688 177.658 152.722 177.715C152.814 177.874 152.906 178.011 153.009 178.159C155.109 181.414 157.163 184.396 159.091 187.094C160.078 188.482 161.042 189.791 161.96 191.021C161.983 191.044 162.006 191.066 162.006 191.089C162.041 191.123 162.064 191.157 162.087 191.192C162.534 191.783 162.97 192.353 163.406 192.91C164.003 193.707 164.6 194.47 165.162 195.187C165.908 196.131 166.642 197.065 167.4 197.975C174.217 206.387 180.964 213.456 187.804 219.864C193.852 225.532 199.969 230.689 206.28 235.834Z" fill="#8D7F45"/>
<path d="M230.529 294.499C230.506 294.226 230.483 293.953 230.449 293.691L230.38 293.418C229.657 291.119 228.222 289.024 226.18 287.499C226.501 287.214 228.016 285.814 229.221 283.606C229.232 283.583 229.255 283.549 229.267 283.526C228.739 279.895 228.039 276.185 227.075 272.224C226.96 271.757 226.845 271.279 226.731 270.801C226.593 270.266 226.455 269.731 226.317 269.184C221.211 266.817 214.027 271.29 213.005 271.95C212.673 272.167 212.351 272.383 212.041 272.622V234.525C208.438 228.219 203.607 220.957 197.387 214.184C197.375 214.162 197.364 214.15 197.341 214.127C197.169 213.945 197.008 213.763 196.836 213.581C196.698 213.444 196.859 213.604 185.096 202.551C184.442 201.937 183.868 201.39 183.328 200.901C182.56 200.184 181.883 199.569 181.251 199.046H181.24C180.815 198.681 180.402 198.363 180 198.078C179.094 197.429 178.199 196.906 177.143 196.439C175.192 195.585 173.241 195.13 171.428 194.948C169.397 194.743 167.538 194.857 166 195.062C165.713 195.096 165.426 195.141 165.162 195.187C165.656 195.585 166.172 196.006 166.711 196.45C168.387 197.828 170.234 199.455 172.208 201.322C174.813 203.781 177.613 206.672 180.471 210.007C180.471 210.007 183.202 213.217 185.555 216.415C186.358 217.508 187.116 218.669 187.804 219.864C188.86 221.651 189.801 223.541 190.639 225.498C193.932 233.159 195.723 241.923 196.675 249.811C196.709 250.096 196.744 250.392 196.778 250.677C197.111 253.602 197.341 256.402 197.478 258.974C197.708 263.049 197.742 266.532 197.708 269.025C197.708 269.628 197.696 270.186 197.685 270.664C197.65 272.235 197.593 273.123 197.593 273.123C197.444 275.581 197.249 277.756 197.031 279.679C195.401 293.873 192.119 295.046 192.555 306.337C192.567 306.656 192.578 306.974 192.613 307.282C192.727 309.592 192.991 311.846 193.37 314.043V314.066C194.563 320.963 196.916 327.281 199.842 332.915C203.434 339.904 207.887 345.857 212.041 350.672V318.391C213.82 319.837 216.081 321.009 218.766 321.009C219.294 321.009 221.945 320.998 223.976 319.529C224.458 319.176 224.894 318.755 225.273 318.232C227.155 315.614 226.822 311.482 224.148 308.181C223.919 307.885 223.667 307.6 223.391 307.327C223.747 307.191 229.462 304.914 230.667 298.881C230.713 298.631 230.759 298.392 230.782 298.142L230.816 297.834L230.529 294.499Z" fill="#5A5E3C"/>
<path d="M193.37 314.065C192.383 309.592 191.213 302.774 191.247 294.431C191.281 285.347 192.716 280.089 193.313 275.695C195.149 262.321 187.999 247.649 173.631 218.862C170.487 212.556 165.931 203.746 160.044 193.331C163.51 189.678 166.964 186.035 170.43 182.381C171.497 184.328 172.989 186.957 174.917 189.973C180.551 198.806 185.911 204.85 187.873 206.99C195.872 215.732 198.351 215.504 201.77 219.761C211.41 231.736 203.848 248.514 195.906 297.299C194.701 304.698 193.841 310.662 193.37 314.043V314.065Z" fill="#8E9751"/>
<path d="M155.419 207.582C156.601 207.992 157.921 208.379 159.378 208.709C161.168 209.119 162.821 209.37 164.301 209.518C164.382 208.231 164.485 206.934 164.577 205.647" stroke="#8D0F3A" stroke-width="2" stroke-miterlimit="10"/>
<path d="M197.49 97.4798C198.787 108.031 151.999 121.633 110.514 133.687C69.1197 145.719 26.3259 158.16 21.8273 149.042C17.1107 139.493 53.8337 105.015 98.9113 91.447C145.102 77.5376 196.17 86.7688 197.49 97.4684V97.4798Z" fill="#834612" stroke="#8D0F3A" stroke-width="2" stroke-miterlimit="10"/>
<path d="M179.748 83.5929C179.541 84.1506 179.312 84.697 179.071 85.2433L38.1461 144.33C37.4002 142.179 36.2182 139.435 34.3476 136.544C32.6147 133.869 30.79 131.798 29.2293 130.295C23.87 125.663 8.76765 111.4 3.19033 87.2353C-2.08861 64.4134 4.17726 46.0193 6.83969 39.3378C13.5072 41.3638 21.4142 44.4257 29.7342 49.1153C45.5022 57.9823 56.1175 68.8867 62.6129 76.8317C68.764 73.1437 79.6661 62.9223 92.129 60.1449C103.823 57.5497 124.067 54.2261 131.01 54.8407C133.385 33.0319 146.904 12.7255 166.16 1.96906C166.47 1.78694 166.78 1.60482 167.113 1.43408C185.704 23.9031 190.685 56.6164 179.748 83.5929Z" fill="#FF6D00" stroke="#8D0F3A" stroke-width="2" stroke-miterlimit="10"/>
<path d="M178.784 83.7752C178.486 83.502 178.05 83.1264 177.545 82.6483C175.215 80.4629 174.963 79.9393 174.963 79.5865C174.951 78.6872 175.502 77.8791 175.949 77.0823C176.523 76.0693 177.246 73.8725 178.497 69.3422C179.209 66.7584 181.102 57.3109 179.082 43.9251C177.751 35.1379 175.272 28.1604 172.598 20.6935C172.048 19.1568 169.959 14.251 167.951 7.34183C167.423 5.54339 167.033 4.05229 166.78 3.06201C171.371 8.93537 180.517 22.287 183.432 41.808C186.358 61.3745 181.469 76.8205 178.795 83.7638L178.784 83.7752Z" fill="#D54A0E"/>
<path d="M195.206 128.19C195.378 123.022 196.606 116.147 201.357 110.41C201.77 109.921 202.183 109.443 202.62 109.01C199.842 109.192 195.723 109.135 191.132 107.678C182.261 104.867 178.394 98.9365 168.903 88.6809C160.595 79.6888 154.753 72.9503 146.846 68.1242C136.598 61.8638 126.947 59.371 120.83 58.2897C114.576 57.8799 104.454 58.0507 92.9897 62.0573C85.4156 64.7094 79.5399 68.2494 75.3856 71.2202C69.3148 75.7504 61.0636 83.0011 53.6386 93.7347C48.9564 100.507 41.2446 112.038 38.6281 128.781C37.7215 134.552 38.1805 140.278 37.8477 146.071C37.4346 153.425 34.0377 161.529 29.0686 167.015C31.7999 166.401 34.1984 164.83 36.5165 163.293C32.0064 170.407 29.7342 178.899 30.1129 187.31C31.754 182.507 35.1509 178.307 39.5003 175.632C40.9692 183.668 38.41 192.33 32.7983 198.328C35.8509 196.621 38.9265 194.891 41.9905 193.149C48.5318 189.439 55.0043 185.717 61.3964 181.983" fill="#FF6D00"/>
<path d="M195.206 128.19C195.378 123.022 196.606 116.147 201.357 110.41C201.77 109.921 202.183 109.443 202.62 109.01C199.842 109.192 195.723 109.135 191.132 107.678C182.261 104.867 178.394 98.9365 168.903 88.6809C160.595 79.6888 154.753 72.9503 146.846 68.1242C136.598 61.8638 126.947 59.371 120.83 58.2897C114.576 57.8799 104.454 58.0507 92.9897 62.0573C85.4156 64.7094 79.5399 68.2494 75.3856 71.2202C69.3148 75.7504 61.0636 83.0011 53.6386 93.7347C48.9564 100.507 41.2446 112.038 38.6281 128.781C37.7215 134.552 38.1805 140.278 37.8477 146.071C37.4346 153.425 34.0377 161.529 29.0686 167.015C31.7999 166.401 34.1984 164.83 36.5165 163.293C32.0064 170.407 29.7342 178.899 30.1129 187.31C31.754 182.507 35.1509 178.307 39.5003 175.632C40.9692 183.668 38.41 192.33 32.7983 198.328C35.8509 196.621 38.9265 194.891 41.9905 193.149C48.5318 189.439 55.0043 185.717 61.3964 181.983" stroke="#8D0F3A" stroke-width="2" stroke-miterlimit="10"/>
<path d="M32.7524 120.062C16.5828 118.526 11.0858 91.5151 10.4776 88.4987C7.91841 76.0349 10.5349 65.5175 12.3826 59.9287C18.2583 64.5614 24.3864 68.8753 30.2965 73.4511C30.2965 73.4625 30.3195 73.4511 30.3195 73.4511C32.1327 74.7942 33.9574 76.2512 35.7935 77.8561C45.6399 86.4499 52.1697 95.9998 56.5306 104.298C55.9338 105.265 45.7088 121.292 32.7639 120.062H32.7524Z" fill="#F6927F" stroke="#8D0F3A" stroke-width="2" stroke-miterlimit="10"/>
<path d="M147.753 63.7535C148.419 53.5662 151.666 43.5268 157.163 34.8989C158.081 33.4419 159.08 32.0305 160.124 30.6646C163.647 26.0775 167.813 22.0139 171.944 17.9731C174.4 22.4237 177.533 29.1963 179.289 37.9153C179.496 38.9397 180.46 43.8114 180.632 50.0831C181.045 64.7096 176.948 77.845 173.597 86.1998L147.765 63.7535" fill="#F6927F"/>
<path d="M147.753 63.7535C148.419 53.5662 151.666 43.5268 157.163 34.8989C158.081 33.4419 159.08 32.0305 160.124 30.6646C163.647 26.0775 167.813 22.0139 171.944 17.9731C174.4 22.4237 177.533 29.1963 179.289 37.9153C179.496 38.9397 180.46 43.8114 180.632 50.0831C181.045 64.7096 176.948 77.845 173.597 86.1998L147.765 63.7535" stroke="#8D0F3A" stroke-width="2" stroke-miterlimit="10"/>
<path d="M160.79 31.9506C162.167 31.9392 164.703 31.7343 167.469 30.3456C170.785 28.6952 172.61 26.2593 173.367 25.0869C173.735 26.43 174.274 29.0822 173.459 32.2351C173 34.0449 172.243 35.4336 171.612 36.3783C172.346 36.1165 173.149 35.7978 173.987 35.3994C175.181 34.8303 176.202 34.2157 177.051 33.6238C176.191 36.0027 174.917 38.8711 172.977 41.8875C171.749 43.7997 170.464 45.4388 169.271 46.7933C170.12 46.9299 172.174 47.1462 174.446 46.1559C176.156 45.4047 177.223 44.3119 177.763 43.6631C177.809 46.0535 177.556 50.1625 175.433 54.6472C174.251 57.1514 172.817 59.0636 171.6 60.4182C172.53 60.2247 173.517 59.9856 174.561 59.6783C175.984 59.2571 177.258 58.7791 178.382 58.2896C177.499 60.4295 175.927 63.48 173.149 66.485C168.903 71.0608 164.095 73.0641 161.559 73.9178C157.921 72.1307 155.821 69.9339 154.558 68.1582C148.419 59.5303 150.897 45.029 160.778 31.9506H160.79Z" fill="#DD7162"/>
<path d="M157.163 34.8986C158.563 35.1376 160.893 35.3425 163.636 34.6937C167.262 33.8286 169.661 31.9164 170.774 30.9033C170.085 34.1929 168.261 37.232 165.667 39.3833C166.413 39.4971 167.4 39.554 168.547 39.406C170.407 39.167 171.807 38.4727 172.633 37.9718C171.531 39.6792 170.177 41.5573 168.536 43.4923C166.62 45.7575 164.703 47.6242 162.959 49.1494C164.175 49.6047 166.195 50.1739 168.72 50.1283C170.877 50.0828 172.61 49.5934 173.746 49.1722C172.679 55.2618 168.915 60.8393 163.624 64.1174C164.944 63.9353 166.344 63.7076 167.802 63.3889C169.902 62.945 171.818 62.41 173.54 61.8523C172.185 63.5824 170.418 65.5516 168.157 67.5094C164.795 70.4119 161.49 72.3128 158.873 73.5421C154.455 73.5763 152.16 72.2104 150.92 71.0949C144.918 65.711 146.858 50.982 157.14 34.8872L157.163 34.8986Z" fill="white"/>
<path d="M52.4107 92.4374C44.5497 85.8811 36.6772 79.3361 28.8162 72.7798C26.3029 71.505 23.6634 70.0367 20.9207 68.3634C18.8435 67.0886 16.9156 65.8137 15.1139 64.5503C15.3778 66.3829 15.9401 68.9098 17.2025 71.6871C18.396 74.2937 19.819 76.2856 20.9781 77.6515C20.037 77.1735 18.7058 76.3653 17.4435 75.0336C15.5614 73.0644 14.7696 70.9586 14.4253 69.7862C14.081 71.4139 13.0711 77.0369 16.1926 82.933C18.614 87.5315 22.2634 89.8763 23.8585 90.7755C22.9175 91.1056 21.7355 91.4243 20.3469 91.5951C18.1779 91.8569 16.3303 91.6634 15.022 91.413C15.8483 92.8813 17.4435 95.2147 20.2207 97.1839C21.8617 98.3449 23.4454 99.0506 24.6848 99.4831C24.3291 99.836 23.8585 100.234 23.2388 100.587C21.8962 101.35 20.6108 101.486 19.8764 101.498C20.301 102.306 21.0928 103.592 22.5273 104.719C23.3995 105.402 24.2487 105.835 24.9143 106.108C24.5815 106.313 24.1913 106.506 23.7438 106.688C22.5388 107.166 21.4371 107.28 20.6338 107.28C22.3322 108.612 25.9472 111.082 31.2146 112.027C35.9313 112.869 39.7987 112.084 41.8414 111.526L52.4107 92.4488V92.4374Z" fill="#DD7162"/>
<path d="M58.6078 102.784C55.9224 98.2423 52.1124 92.7332 46.7875 87.0989C40.9233 80.9068 35.0591 76.5018 30.3195 73.4513C30.3195 73.4513 30.3195 73.4513 30.308 73.4513C26.1193 72.7683 22.0912 71.2431 18.4534 69.0576C19.9911 72.9504 22.3208 76.5359 25.2586 79.5295C22.1716 79.7685 18.4993 79.7458 16.709 77.2302C17.7992 83.8207 24.0192 88.2826 30.0785 91.1966C26.762 92.6308 23.1815 93.4731 19.5665 93.6666C23.2618 96.774 28.4145 98.0943 33.177 97.1496C30.2736 99.3237 27.0603 101.099 23.6864 102.442C26.6357 104.309 30.2392 105.106 33.7049 104.673C30.8015 105.698 27.8751 106.734 24.9602 107.781C30.79 110.376 37.492 110.934 43.689 109.488C48.6581 107.257 53.6387 105.026 58.6078 102.795V102.784Z" fill="white"/>
<path d="M193.037 92.7786C178.015 88.3963 152.102 83.0807 120.899 88.2825C65.9065 97.4454 32.8901 132.902 22.9864 144.41C25.0061 132.025 29.0112 123.215 32.2589 117.524C37.1706 108.93 42.5299 99.5512 49.2663 94.0193C50.2188 93.2453 52.996 91.0598 54.7404 87.2126C55.0617 86.4955 55.3142 85.7897 55.5207 85.1068C56.2667 82.5343 56.2437 80.3261 56.2093 79.131C56.2093 78.6188 56.1863 78.1293 56.1634 77.6513C56.1404 76.9455 56.106 76.2626 56.0716 75.6024C55.383 61.2036 52.7321 55.2278 55.9109 48.0682C56.106 47.6129 58.1372 43.1965 61.8325 40.5557C63.0834 39.6679 64.4949 38.9736 66.1016 38.7004C68.3049 38.3248 69.9919 38.8711 71.6789 39.372C73.6642 39.9525 92.852 45.5299 96.8112 40.3509C98.5785 38.063 95.6407 35.8889 97.6834 32.1213C99.9212 27.9895 105.762 26.3049 107.931 25.6674C109.641 25.1666 110.95 24.9959 111.237 24.9617C112.212 24.8365 118.248 24.1308 123.401 27.0789C126.316 28.7293 128.164 31.1083 130.711 35.7523C131.985 38.0857 133.454 40.9769 134.9 44.4485C135.439 45.7006 135.944 47.021 136.461 48.4324C136.679 49.0015 136.885 49.6048 137.103 50.2195C137.287 50.7317 137.459 51.2667 137.631 51.7903C138.194 53.5318 138.744 55.3416 139.249 57.2766C145.871 60.4409 152.894 64.1744 160.17 68.6136C173.253 76.5699 184.143 84.9702 193.026 92.79L193.037 92.7786Z" fill="#CB8641" stroke="#231F20" stroke-miterlimit="10"/>
<path d="M93.0471 42.2517C94.5964 42.6387 96.9948 43.1054 99.9556 43.1509C103.823 43.2078 107.036 43.2647 108.827 41.1134C109.251 40.6126 110.353 39.0646 109.951 35.9458" stroke="#8D0F3A" stroke-width="2" stroke-miterlimit="10"/>
<path d="M136.472 48.4327L56.1634 77.6629C55.1535 70.2415 54.7289 63.9584 54.5453 59.1322C54.3731 54.4426 54.4649 51.4604 55.9109 48.0798C56.106 47.6245 58.1372 43.2081 61.8325 40.5674C62.0735 41.1593 60.6734 44.2439 61.0062 49.1042C61.3849 54.4199 63.6227 58.7452 65.8147 61.8754C74.4675 57.7777 85.3123 53.4751 98.1424 50.1401C112.166 46.4863 124.744 44.9838 134.923 44.4716L136.484 48.4554L136.472 48.4327Z" fill="#AA6B34"/>
<path d="M137.631 51.7905C137.631 51.7905 137.608 51.8133 137.585 51.8133" stroke="#231F20" stroke-miterlimit="10"/>
<path d="M193.037 92.7784C178.015 88.3962 152.102 83.0806 120.899 88.2823C65.9065 97.4452 32.8901 132.902 22.9864 144.409C23.1011 143.772 23.1929 143.135 23.3306 142.509C25.4193 131.115 29.1834 122.931 32.2589 117.524C37.1706 108.93 42.5299 99.551 49.2663 94.0191C50.2188 93.2451 52.996 91.0597 54.7403 87.2124C55.0617 86.4953 55.3141 85.7896 55.5207 85.1066C56.083 83.183 56.2093 81.4756 56.2322 80.2349C56.2322 79.8138 56.2093 79.4495 56.2093 79.1422C56.2093 78.63 56.1863 78.1406 56.1634 77.6625C56.1404 76.9568 56.106 76.2738 56.0716 75.6136C55.383 61.2148 52.7321 55.239 55.9109 48.0794C56.106 47.6241 58.1372 43.2077 61.8325 40.567C63.0834 39.6791 64.4949 38.9848 66.1016 38.7116C68.3049 38.336 69.9919 38.8824 71.6789 39.3832C73.6642 39.9637 92.852 45.5411 96.8112 40.3621C98.5785 38.0742 95.6407 35.9002 97.6834 32.1325C99.9212 28.0007 105.762 26.3161 107.931 25.6787C109.641 25.1778 110.95 25.0071 111.237 24.973C112.212 24.8478 118.248 24.142 123.401 27.0901C126.316 28.7406 128.164 31.1195 130.711 35.7636C131.985 38.097 133.454 40.9881 134.9 44.4598C135.439 45.7119 135.944 47.0322 136.461 48.4437C136.679 49.0128 136.885 49.616 137.103 50.2307C137.287 50.7429 137.459 51.2779 137.631 51.8015C138.194 53.543 138.744 55.3528 139.249 57.2878C145.871 60.4522 152.894 64.1856 160.17 68.6248C173.253 76.5812 184.143 84.9814 193.026 92.8012L193.037 92.7784Z" stroke="#8D0F3A" stroke-miterlimit="10"/>
<path d="M56.2207 80.2352C58.975 78.3457 62.3948 76.1375 66.4573 73.861C101.115 54.3856 138.446 53.7823 139.261 57.2768C140.099 60.9192 100.059 63.2981 62.8309 93.6893C43.0349 109.841 30.8359 128.372 23.3306 142.509C25.4193 131.115 29.1834 122.931 32.2589 117.524C37.1706 108.93 42.5299 99.5513 49.2663 94.0194C49.9778 93.4389 52.9501 91.1966 54.7403 87.2127C55.1305 86.3476 55.3715 85.6078 55.5207 85.1069L56.2322 80.2352H56.2207Z" fill="#AA6B34"/>
<path d="M139.261 57.2768C132.926 57.9142 125.708 58.95 117.835 60.6119C109.928 62.2623 101.356 64.573 92.3471 67.7487C77.4398 73.0074 65.1375 79.3133 55.5092 85.107C56.0715 83.1833 56.1978 81.476 56.2207 80.2353C56.2207 79.8141 56.1978 79.4499 56.1978 79.1426C56.1978 78.6304 56.1748 78.1409 56.1519 77.6628C56.1289 76.9571 56.0945 76.2742 56.0601 75.614C62.6817 68.9439 71.3575 64.664 80.1252 61.2038C98.085 54.0783 117.158 49.753 136.461 48.4326H136.552L137.103 50.2197L137.585 51.8132L139.249 57.2768H139.261Z" fill="#3F0015"/>
<path d="M39.5053 127.674C39.2299 129.063 38.8626 131.18 38.6331 133.775C38.3233 137.338 38.4954 139.216 38.4495 141.993C38.4265 143.621 38.3462 148.561 37.1527 153.433C36.4756 156.199 35.087 160.33 32 164.997C33.7214 163.711 36.3494 161.435 38.4724 157.94C43.6481 149.449 40.5152 142.528 44.2678 134.162C45.4843 131.43 47.7335 127.902 56.0421 121.88C84.8468 101.05 120.962 93.9934 120.962 93.9934C150.122 88.2907 170.102 89.9981 170.09 89.3152C170.09 88.4842 140.563 83.2938 106.295 91.8648C73.0151 100.197 50.5796 117.669 39.4938 127.663L39.5053 127.674Z" fill="#D54A0E"/>
<path d="M193.037 92.7787C177.843 88.4078 151.999 83.2402 120.899 88.2826C66.1704 97.161 32.7868 131.582 22.3666 143.294C24.9373 131.673 28.9768 123.181 32.2589 117.524C39.5003 105.049 43.6545 99.1301 49.2663 94.0194C50.6319 92.7787 53.9255 89.9103 55.5207 85.0955C56.6568 81.6467 56.3814 78.8238 56.083 75.5912C54.201 55.6035 54.2813 51.9156 55.9224 48.0569C56.1174 47.6016 58.1487 43.1852 61.844 40.5445C63.0948 39.6567 64.5064 38.9623 66.113 38.6892C68.7869 38.2339 70.9673 39.0989 71.6903 39.3607C76.9348 41.3071 93.2422 45.0178 96.8227 40.3396C98.5785 38.0517 95.6521 35.8777 97.6949 32.1101C99.9327 27.9782 105.774 26.2936 107.943 25.6562C109.653 25.1554 110.961 24.9846 111.248 24.9505C116.056 24.4269 120.566 25.5879 123.412 27.0676C128.783 29.8563 130.872 34.8419 134.9 44.4373C137.069 49.605 138.412 54.0783 139.249 57.2654C145.871 60.4297 152.894 64.1632 160.17 68.6023C173.253 76.5587 184.143 84.959 193.026 92.7787H193.037Z" stroke="#8D0F3A" stroke-width="2" stroke-miterlimit="10"/>
<path d="M141.533 35.9345C141.992 34.7735 143.92 29.9131 147.684 24.2105C153.112 16.0037 159.677 10.0849 164.829 6.18066C163.039 8.32057 160.583 11.3711 157.806 15.1501C154.489 19.6575 152.837 21.9113 151.62 24.3243C148.43 30.6416 149.566 32.884 146.778 37.6874C145.458 39.9525 143.105 43.0827 138.607 45.9966C139.123 43.3217 139.995 39.8501 141.51 35.9345H141.533Z" fill="#D05B04"/>
<path d="M33.9918 57.2198C40.2806 63.0135 45.6284 69.8316 52.4796 74.9537C42.3807 72.4154 33.0737 66.8038 26.1537 59.0751C21.8961 54.3173 18.1664 48.7171 11.7628 46.691C19.2452 44.9836 28.9309 52.553 33.9918 57.2084V57.2198Z" fill="#D05B04"/>
<path d="M174.722 85.0498C167.652 82.17 155.603 78.3227 140.328 78.5731C120.303 78.9032 105.453 86.097 98.3834 90.1264C108.654 86.6206 123.217 82.8985 140.936 82.2952C154.271 81.8399 165.759 83.2627 174.722 85.0498Z" fill="#E4AA52"/>
<path d="M102.239 129.894C102.205 130.702 102.17 131.92 101.654 133.298C100.151 137.27 95.5947 139.899 90.7059 141.254C88.3074 141.925 85.8286 142.29 83.5793 142.358C79.1381 142.495 73.8822 142.574 70.6 138.989C67.49 135.585 67.9835 130.828 68.0983 129.906C68.936 123.338 74.9724 119.855 76.7397 118.83C84.3597 114.425 94.2749 115.564 98.062 119.491C98.4522 119.889 98.8539 120.413 98.9457 120.526C100.265 122.222 102.365 125.58 102.228 129.883L102.239 129.894Z" fill="white" stroke="#8D0F3A" stroke-width="2" stroke-miterlimit="10"/>
<path d="M101.654 133.297C100.105 137.554 95.8476 140.582 90.7064 141.254C87.2406 139.785 84.4405 137.019 83.729 133.445C82.7076 128.289 85.634 121.881 91.1883 120.856C95.2394 120.105 99.6806 122.416 101.918 126.627C102.251 127.97 102.664 130.52 101.654 133.297Z" fill="#3F0015" stroke="#8D0F3A" stroke-width="2" stroke-miterlimit="10"/>
<path d="M85.2824 131.043C87.4796 130.949 89.1885 129.222 89.0993 127.187C89.0101 125.153 87.1566 123.58 84.9594 123.675C82.7621 123.769 81.0533 125.496 81.1425 127.531C81.2317 129.565 83.0852 131.138 85.2824 131.043Z" fill="white"/>
<path d="M162.833 111.23C162.81 111.343 162.799 111.423 162.787 111.457C161.353 118.082 154.834 120.723 153.503 121.269C152.711 121.588 151.885 121.849 151.036 122.054C144.781 123.568 137.276 121.963 134.338 117.023C132.938 114.678 132.984 112.265 133.007 111.252C133.202 104.423 139.296 100.325 140.099 99.8129C146.055 95.9429 155.844 95.5445 160.503 101.27C163.671 105.151 163.04 110.091 162.833 111.23Z" fill="white" stroke="#8D0F3A" stroke-width="2" stroke-miterlimit="10"/>
<path d="M161.444 114.075C161.398 114.178 161.375 114.257 161.352 114.291C159.964 117.387 157.542 119.243 155.282 120.37C153.652 121.178 152.218 122.157 150.232 121.997C146.675 121.713 144.609 118.332 144.299 117.831C142.474 114.849 142.371 110.763 144.414 107.587C144.861 106.893 146.95 103.831 150.909 103.307C155.5 102.693 158.598 106.005 159 106.449C160.756 108.372 161.593 111.093 161.444 114.075Z" fill="#3F0015" stroke="#8D0F3A" stroke-width="2" stroke-miterlimit="10"/>
<path d="M146.525 108.817C146.818 107.036 145.605 105.358 143.816 105.068C142.027 104.779 140.339 105.987 140.046 107.768C139.753 109.549 140.966 111.227 142.755 111.517C144.544 111.806 146.232 110.598 146.525 108.817Z" fill="white"/>
<path d="M201.449 130.569C202.838 131.081 204.307 131.718 205.753 132.56C208.484 134.131 210.527 136.021 212.041 137.91C214.463 140.904 215.576 143.92 216.115 145.81C216.115 145.81 214.669 144.785 212.041 144.171C211.376 144.023 210.63 143.886 209.815 143.818C206.98 143.556 203.17 145.206 203.17 145.206C207.359 146.857 209.551 148.872 210.779 150.545C211.238 151.171 211.663 151.877 212.041 152.594C213.327 154.995 214.13 157.556 214.13 157.556C213.522 157.329 212.822 157.078 212.041 156.851C209.827 156.19 206.946 155.644 203.652 155.826C197.088 156.179 192.199 159.195 189.101 161.381C187.483 162.519 185.991 163.703 184.579 164.909C178.727 169.929 174.492 175.472 170.43 180.788C170.418 180.811 170.395 180.834 170.372 180.856C167.87 184.169 165.415 187.39 162.683 190.361C162.465 190.6 162.236 190.85 162.006 191.089C161.777 191.34 161.536 191.59 161.295 191.829C159.768 193.388 158.139 194.857 156.36 196.223C154.57 197.589 152.63 198.852 150.473 199.968C145.423 202.585 141.166 203.416 134.82 204.225C133.661 204.384 132.421 204.532 131.101 204.691C129.69 204.862 128.313 204.999 126.959 205.101C126.867 205.112 126.763 205.112 126.649 205.112C126.545 205.112 126.419 205.112 126.281 205.101C126.281 205.101 126.27 205.101 126.259 205.09C124.675 204.999 122.001 204.361 118.57 203.439C118.512 203.416 118.455 203.405 118.386 203.394C114.748 202.403 110.284 201.106 105.384 199.808C105.212 199.763 105.039 199.717 104.867 199.672C102.538 199.057 100.128 198.454 97.6604 197.873C93.8963 196.985 90.0174 196.177 86.1615 195.562C85.9779 195.528 85.7828 195.494 85.5877 195.46C84.4975 195.301 83.4188 195.141 82.34 195.005H82.3285C72.0002 193.707 62.2227 194.049 55.865 198.226C51.9517 200.798 46.4203 206.74 41.8184 205.01C41.4971 204.885 40.2232 204.384 39.4773 203.132C39.3281 202.881 39.2134 202.62 39.1445 202.346C39.1215 202.301 39.0986 202.255 39.0986 202.21C39.0297 201.959 38.9838 201.709 38.9838 201.447C38.8117 199.068 40.5675 196.12 42.4151 192.922C42.484 192.785 42.5529 192.671 42.6217 192.558C42.7135 192.387 42.8168 192.216 42.9086 192.045C43.1267 191.658 43.3103 191.362 43.4021 191.18C46.6383 185.352 50.9647 181.676 52.1238 180.742C58.4471 175.632 63.4162 174.55 63.1063 173.105C62.8194 171.705 57.9651 171.625 57.1273 171.614C53.4321 171.602 51.2516 172.729 51.1369 172.422C50.9533 171.921 56.347 167.653 63.8867 166.014C72.0002 164.238 77.9906 166.799 78.5415 165.217C78.9546 164.056 76.1086 161.802 73.5265 160.698C69.9689 159.173 67.0885 159.89 67.0655 159.594C67.0081 158.991 79.2071 154.187 86.896 158.649C87.9518 159.264 89.6387 160.459 91.7274 160.14C94.5619 159.708 96.2374 156.737 96.6965 155.986C99.3359 151.683 106.692 144.341 117.066 139.481C118.638 138.73 120.291 138.047 122.001 137.444C125.318 136.26 128.864 135.372 132.616 134.905C134.475 134.678 136.392 134.552 138.343 134.552C138.951 134.552 139.559 134.564 140.179 134.587C144.482 134.746 151.517 135.269 160.067 139.72C161.662 135.52 165.747 126.755 174.905 121.223C174.905 121.223 183.547 116.022 197.846 116.056C199.693 116.067 201.633 116.17 203.675 116.363C203.905 116.386 204.111 116.409 204.111 116.409C207.485 116.818 210.159 117.649 212.041 118.378C212.248 118.458 212.443 118.526 212.627 118.606C212.627 118.606 212.42 118.64 212.041 118.708C210.641 118.97 206.854 119.778 202.241 121.61C200.497 122.293 198.259 123.967 198.259 123.967C200.405 124.115 203.01 124.456 205.833 125.241C208.243 125.902 210.309 126.733 212.041 127.598C214.164 128.656 215.794 129.76 216.976 130.671C216.792 130.648 216.62 130.637 216.414 130.614C215.002 130.466 213.545 130.364 212.041 130.307C208.736 130.159 205.202 130.227 201.449 130.569Z" fill="#FCFFEB"/>
<path d="M169.328 149.11C167.216 154.096 162.752 162.462 153.789 168.586C149.21 171.716 144.896 173.025 136.461 175.529C123.539 179.365 113.692 182.279 101.47 180.628C90.5109 179.149 81.2728 174.482 81.5367 173.503C81.7777 172.638 89.2026 175.097 99.3703 175.654C121.863 176.884 139.949 167.823 147.719 163.828C153.388 160.903 161.123 156.281 169.328 149.133V149.11Z" fill="#E0E5FF"/>
<path d="M79.8842 177.851C79.8153 177.589 79.1382 174.846 81.0892 172.558C83.0286 170.259 85.8861 170.453 86.1501 170.475" stroke="#8D0F3A" stroke-width="2" stroke-miterlimit="10"/>
<path d="M138.01 203.246C136.931 203.599 135.864 203.929 134.82 204.225C133.661 204.384 132.421 204.532 131.101 204.691C129.69 204.862 128.313 204.999 126.959 205.101C122.001 205.477 82.3974 190.975 55.865 198.226C47.9007 200.4 41.2102 204.521 40.4757 203.303C39.7872 202.153 45.1464 197.486 49.6335 194.561C54.5682 191.351 59.1815 189.712 61.2931 189.211C74.743 186.035 85.6566 192.888 99.2786 197.52C107.759 200.389 120.624 203.53 138.01 203.246Z" fill="#E0E5FF"/>
<path d="M201.449 130.568C202.838 131.081 204.307 131.718 205.753 132.56C208.484 134.131 210.527 136.021 212.041 137.91C214.463 140.904 215.576 143.92 216.115 145.81C216.115 145.81 214.669 144.785 212.041 144.171C211.376 144.023 210.63 143.886 209.815 143.818C206.98 143.556 203.17 145.206 203.17 145.206C207.359 146.857 209.551 148.872 210.779 150.545C211.238 151.171 211.663 151.877 212.041 152.594C213.327 154.995 214.13 157.556 214.13 157.556C213.522 157.329 212.822 157.078 212.041 156.851C209.827 156.19 206.946 155.644 203.652 155.826C197.088 156.179 192.199 159.195 189.101 161.381C187.483 162.519 185.991 163.703 184.579 164.909C178.727 169.929 174.492 175.472 170.43 180.788C170.418 180.811 170.395 180.834 170.372 180.856C167.87 184.169 165.415 187.39 162.683 190.361C162.465 190.6 162.236 190.85 162.006 191.089C161.777 191.34 161.536 191.59 161.295 191.829C159.768 193.388 158.139 194.857 156.36 196.223C154.57 197.589 152.63 198.852 150.473 199.967C145.423 202.585 141.166 203.416 134.82 204.225C133.661 204.384 132.421 204.532 131.101 204.691C129.69 204.862 128.313 204.999 126.959 205.101C126.867 205.112 126.763 205.112 126.649 205.112C126.545 205.112 126.419 205.112 126.281 205.101C123.16 204.976 115.173 203.12 105.556 201.106C105.384 201.072 105.2 201.037 105.028 200.992C102.549 200.48 99.9556 199.945 97.3162 199.444C90.224 198.067 82.7646 196.826 76.0168 196.234C67.4098 195.483 59.9619 195.79 55.865 198.226C52.8124 200.047 49.7598 200.969 43.666 202.813C43.425 202.881 43.207 202.95 42.9889 203.018C42.0709 203.28 41.3364 203.462 40.7626 203.485C40.2003 203.519 39.7871 203.416 39.4773 203.132C39.2822 202.95 39.156 202.722 39.0756 202.449C39.0527 202.403 39.0412 202.358 39.0412 202.301C38.9838 202.05 38.9609 201.755 38.9838 201.447C39.0986 199.08 41.1184 195.221 42.4151 192.922C42.484 192.785 42.5529 192.671 42.6217 192.558C42.7135 192.387 42.8168 192.216 42.9086 192.045C43.1267 191.658 43.3103 191.362 43.4021 191.18C46.6383 185.352 50.9647 181.676 52.1238 180.742C58.4471 175.632 63.4162 174.55 63.1063 173.105C62.8194 171.705 57.9651 171.625 57.1273 171.614C53.4321 171.602 51.2516 172.729 51.1369 172.422C50.9533 171.921 56.347 167.653 63.8867 166.014C72.0002 164.238 77.9906 166.799 78.5415 165.217C78.9546 164.056 76.1086 161.802 73.5265 160.698C69.9689 159.173 67.0885 159.89 67.0655 159.594C67.0081 158.991 79.2071 154.187 86.896 158.649C87.9518 159.264 89.6387 160.459 91.7274 160.14C94.5619 159.708 96.2374 156.737 96.6965 155.986C99.3359 151.683 106.692 144.341 117.066 139.481C118.639 138.73 120.291 138.047 122.001 137.444C125.318 136.26 128.864 135.372 132.616 134.905C134.475 134.678 136.392 134.552 138.343 134.552C138.951 134.552 139.559 134.564 140.179 134.587C144.482 134.746 151.517 135.269 160.067 139.72C161.662 135.52 165.747 126.755 174.905 121.223C174.905 121.223 183.547 116.022 197.846 116.056C199.693 116.067 201.633 116.17 203.675 116.363C203.905 116.386 204.111 116.409 204.111 116.409C207.485 116.818 210.159 117.649 212.041 118.378C212.248 118.458 212.443 118.526 212.627 118.606C212.627 118.606 212.42 118.64 212.041 118.708C210.641 118.97 206.854 119.778 202.241 121.61C200.497 122.293 198.259 123.967 198.259 123.967C200.405 124.115 203.01 124.456 205.833 125.241C208.243 125.902 210.308 126.733 212.041 127.598C214.164 128.656 215.794 129.76 216.976 130.671C216.792 130.648 216.62 130.637 216.414 130.614C215.002 130.466 213.545 130.364 212.041 130.307C208.736 130.159 205.202 130.227 201.449 130.568Z" stroke="#8D0F3A" stroke-width="2" stroke-miterlimit="10"/>
<path d="M118.099 135.042C118.925 134.12 120.062 133.539 121.209 133.05C125.937 131.012 128.795 129.772 132.375 130.5C133.58 130.751 137 131.502 138.159 134.086C139.02 136.009 138.354 138.286 137.459 141.325C137.126 142.463 136.885 143.283 136.38 144.25C136.048 144.91 133.511 150.169 129.162 150.442C124.595 150.727 122.162 146.14 119.465 143.34C117.342 141.143 115.597 137.819 118.099 135.03V135.042Z" fill="#532410" stroke="#8D0F3A" stroke-width="2" stroke-miterlimit="10"/>
<path opacity="0.6" d="M127.751 137.716C130.677 136.891 132.853 135.536 132.61 134.689C132.368 133.843 129.799 133.825 126.872 134.65C123.946 135.476 121.771 136.831 122.013 137.677C122.256 138.524 124.825 138.541 127.751 137.716Z" fill="#D54A0E"/>
<path d="M81.5367 173.492C84.3713 175.506 88.9387 178.306 95.0439 180.128C107.449 183.827 117.87 180.936 138.216 175.017C152.871 170.748 156.83 167.88 159.527 165.353C165.46 159.787 168.1 153.219 169.316 149.11" stroke="#8D0F3A" stroke-width="2" stroke-miterlimit="10"/>
<path d="M230.782 298.141C230.759 298.392 230.713 298.631 230.667 298.881C229.462 304.914 223.747 307.19 223.391 307.327C223.667 307.6 223.919 307.885 224.149 308.181C226.822 311.482 227.155 315.613 225.273 318.231C224.894 318.755 224.458 319.176 223.976 319.529C221.945 320.997 219.294 321.009 218.766 321.009C216.081 321.009 213.82 319.836 212.041 318.391V352.629C200.06 348.771 185.796 343.569 170.143 336.614C168.467 335.863 166.826 335.134 165.219 334.429C164.531 334.121 163.854 333.825 163.188 333.518C142.428 324.253 128.393 317.685 119.27 310.992C119.155 310.901 119.052 310.821 118.937 310.73C114.519 307.441 111.282 304.106 109.01 300.395C108.746 299.962 108.494 299.541 108.253 299.109C107.645 298.027 107.105 296.98 106.635 295.944C104.546 291.426 103.594 287.157 103.123 283.025C103.077 282.616 103.031 282.206 102.997 281.796C101.826 269.093 104.753 257.665 93.2881 244.757C91.7503 243.027 89.8912 241.195 87.9173 239.373C85.7369 237.37 83.4188 235.39 81.2613 233.591C78.7595 231.497 76.4758 229.664 74.8233 228.321C73.2396 227.012 72.2412 226.17 72.2412 226.01H72.2527C72.2527 226.01 72.2756 225.988 72.31 225.988C72.4248 225.988 72.7461 226.079 73.4806 226.306C73.5494 226.341 73.6298 226.363 73.7101 226.386C73.756 226.409 73.7904 226.42 73.8363 226.432C74.0314 226.5 74.238 226.557 74.479 226.602C74.6282 226.636 74.8003 226.671 74.9725 226.693C75.0757 226.716 75.179 226.728 75.2938 226.739C79.9186 227.308 84.0385 224.36 84.8188 223.745C85.2205 223.427 87.0567 221.958 89.7765 219.955C89.9371 219.841 90.0748 219.727 90.2125 219.648C90.2355 219.625 90.247 219.625 90.2584 219.613C90.2699 219.602 90.2814 219.591 90.2929 219.579C90.4076 219.5 90.5109 219.42 90.6257 219.352C90.9929 219.079 91.3257 218.839 91.6011 218.646C91.7274 218.566 91.8306 218.487 91.9339 218.418C92.2438 218.202 92.4618 218.054 92.5307 218.009C92.5881 217.974 92.6454 217.929 92.7028 217.883C94.0914 216.882 96.4325 214.617 100.495 209.881C101.907 208.231 103.525 206.285 105.384 203.985C105.499 204.862 105.602 205.738 105.705 206.615C105.728 206.785 105.74 206.945 105.762 207.116C105.774 207.298 105.797 207.48 105.82 207.65C105.843 207.787 105.866 207.924 105.877 208.06C106.141 210.257 106.405 212.443 106.669 214.639V214.685C106.979 217.246 107.289 219.818 107.599 222.379C109.492 226.318 112.097 231.178 115.62 236.448C117.319 239.021 119.235 241.673 121.393 244.37C122.047 245.19 122.724 246.021 123.424 246.852C123.424 246.852 123.424 246.863 123.435 246.863C124.135 247.694 124.858 248.525 125.604 249.356C125.983 249.777 126.362 250.198 126.763 250.619C127.923 251.883 129.139 253.135 130.401 254.376C132.1 256.049 133.89 257.711 135.784 259.338C137.482 260.807 139.318 262.298 141.269 263.789C141.613 264.051 141.958 264.313 142.302 264.586C142.922 265.041 143.553 265.508 144.184 265.974C144.207 265.997 144.23 266.009 144.253 266.02C145.24 266.748 146.238 267.454 147.26 268.16C147.81 268.547 148.373 268.934 148.947 269.309C150.507 270.368 152.102 271.404 153.709 272.405C153.743 272.428 153.778 272.451 153.812 272.462C155.419 273.475 157.037 274.432 158.667 275.354C158.701 275.376 158.736 275.399 158.77 275.41C159.229 275.672 159.688 275.934 160.147 276.184H160.159C160.25 276.241 160.342 276.287 160.434 276.332C162.121 277.266 163.808 278.142 165.472 278.939C165.724 279.064 165.977 279.178 166.218 279.292C166.952 279.645 167.687 279.975 168.41 280.282C168.479 280.316 168.547 280.339 168.616 280.373C168.674 280.407 168.743 280.43 168.811 280.453C169.764 280.885 170.705 281.272 171.646 281.625C172.346 281.91 173.046 282.16 173.735 282.399C174.09 282.524 174.423 282.638 174.767 282.741C174.951 282.809 175.135 282.877 175.318 282.923H175.33C177.166 283.503 178.899 283.925 180.54 284.186C180.873 284.243 181.194 284.3 181.504 284.323C183.122 284.539 184.614 284.562 185.956 284.391C186.461 284.323 186.932 284.232 187.391 284.118C187.563 284.061 187.724 284.016 187.884 283.97C187.965 283.936 188.045 283.913 188.125 283.89C188.206 283.868 188.286 283.833 188.366 283.799C188.527 283.742 188.688 283.674 188.837 283.606C188.906 283.572 188.986 283.538 189.055 283.503C189.124 283.469 189.204 283.424 189.273 283.39C189.468 283.287 189.652 283.173 189.835 283.059C190.053 282.911 190.26 282.764 190.455 282.593C190.685 282.399 190.903 282.194 191.098 281.967C191.212 281.853 191.316 281.728 191.408 281.591C191.867 281.033 192.245 280.373 192.555 279.599C192.624 279.428 192.693 279.269 192.739 279.098H192.75C192.75 279.098 192.762 279.053 192.762 279.041C193.221 277.698 193.485 276.048 193.485 273.999V273.942C193.485 269.207 192.131 262.423 188.665 252.737C188.332 251.78 187.965 250.813 187.575 249.8C185.945 245.463 183.914 240.591 181.435 235.128C180.666 233.432 179.851 231.668 178.991 229.846C178.692 229.22 178.394 228.583 178.084 227.934C177.453 226.614 176.799 225.259 176.122 223.882C175.031 221.674 173.884 219.374 172.679 217.007C171.91 215.493 171.107 213.945 170.28 212.363C169.672 211.179 169.041 209.984 168.398 208.766C168.341 208.664 168.295 208.561 168.238 208.459C165.942 204.122 163.464 199.546 160.778 194.697C160.537 194.253 160.285 193.798 160.032 193.343C160.445 192.842 160.87 192.33 161.283 191.829C161.513 191.556 161.731 191.294 161.949 191.021C162.167 190.77 162.373 190.52 162.58 190.269C165.174 187.128 167.767 183.986 170.361 180.856C170.384 180.833 170.407 180.811 170.418 180.788C170.452 180.754 170.475 180.731 170.498 180.697C171.508 183.201 172.92 186.388 174.871 189.928C174.882 189.939 174.882 189.962 174.894 189.973H174.905C176.294 192.523 177.981 195.266 179.989 198.078C180.322 198.533 180.643 198.988 180.987 199.444C183.34 202.608 185.612 204.976 187.827 206.968L187.862 207.002C192.693 211.361 197.169 213.945 201.208 219.044C201.392 219.283 201.587 219.534 201.77 219.784C202.057 220.183 202.367 220.581 202.677 221.014C202.7 221.036 202.723 221.07 202.746 221.093C202.792 221.162 202.849 221.23 202.895 221.309C205.477 224.793 208.69 229.3 212.03 234.968V272.622C212.34 272.383 212.661 272.166 212.994 271.95C214.015 271.29 221.199 266.817 226.306 269.184C226.444 269.731 226.581 270.266 226.719 270.801C226.834 271.279 226.949 271.757 227.063 272.223C227.981 276.173 228.682 279.941 229.209 283.606C228.004 285.814 226.49 287.214 226.168 287.499C228.211 289.024 229.645 291.118 230.368 293.418C230.403 293.782 230.437 294.146 230.472 294.51C230.575 295.728 230.678 296.935 230.77 298.141H230.782Z" stroke="#8D0F3A" stroke-width="2" stroke-miterlimit="10"/>
<path d="M102.916 183.429C103.192 185.011 103.582 187.287 103.984 190.053C106.049 204.088 107.576 214.503 106.038 221.378C102.825 235.754 84.7615 240.773 79.8612 241.98C75.8447 235.253 69.1886 225.942 58.711 217.2C51.2631 210.986 43.9874 206.831 38.1461 204.042C40.6594 199.034 46.0645 190.019 56.565 182.427C63.3244 177.544 69.9116 174.892 74.6167 173.423C74.6741 176.144 75.0528 179.684 76.3037 183.622C78.289 189.848 81.5712 194.276 83.8893 196.894C86.3681 195.494 88.9387 193.912 91.5667 192.136C95.8014 189.279 99.5769 186.32 102.916 183.44V183.429Z" fill="#CAD678"/>
<path d="M81.3646 243.699C78.048 237.473 72.1838 228.287 62.4063 219.523C53.3977 211.441 44.4235 206.729 38.1461 204.031C40.7856 199.41 45.135 193.036 51.9976 186.912C60.4783 179.331 69.0853 175.415 74.6282 173.412C74.6856 176.087 75.0528 179.638 76.3152 183.611C78.3235 189.928 81.6515 194.356 83.9008 196.883C86.7812 194.424 90.0289 191.874 93.6783 189.325C96.8916 187.082 99.9901 185.125 102.928 183.429C104.489 196.416 106.049 209.392 107.61 222.38" stroke="#8D0F3A" stroke-width="2" stroke-miterlimit="10"/>
<path d="M212.076 200.002H212.041V175.746C213.086 174.05 214.646 172.183 216.953 170.589C217.952 169.895 225.445 164.887 230.782 167.698C233.662 169.201 234.431 172.217 234.66 173.105C236.015 178.398 231.837 182.541 231.321 183.042C235.074 185.091 237.208 188.79 236.795 192.535C236.393 196.177 233.742 198.442 232.01 199.546C231.218 200.059 230.621 200.32 230.518 200.366C234.121 203.075 235.131 207.047 233.421 209.643C231.757 212.181 227.981 212.477 227.339 212.522C221.521 212.966 217.183 208.231 215.897 206.831C213.556 204.282 212.546 201.664 212.076 200.002Z" fill="url(#paint0_linear_333_57137)"/>
<path d="M230.38 293.418C229.657 291.118 228.222 289.024 226.18 287.499C226.501 287.214 228.016 285.814 229.221 283.606C229.232 283.583 229.255 283.549 229.267 283.526C230.288 281.637 231.08 279.19 230.724 276.367C230.587 275.331 230.15 271.814 227.396 269.822C227.052 269.571 226.685 269.367 226.317 269.184C221.211 266.817 214.027 271.29 213.005 271.95C212.673 272.167 212.351 272.383 212.041 272.622V318.391C213.82 319.836 216.081 321.009 218.766 321.009C219.294 321.009 221.945 320.997 223.976 319.529C224.458 319.176 224.894 318.755 225.273 318.232C227.155 315.614 226.822 311.482 224.149 308.181C223.919 307.885 223.667 307.6 223.391 307.327C223.747 307.191 229.462 304.914 230.667 298.881C230.713 298.631 230.759 298.392 230.782 298.141L230.816 297.834C230.931 296.719 230.873 295.592 230.644 294.499C230.598 294.226 230.529 293.964 230.449 293.691L230.38 293.418Z" fill="url(#paint1_linear_333_57137)"/>
<path d="M230.816 297.834C230.805 297.937 230.793 298.039 230.782 298.141C230.759 298.392 230.713 298.631 230.667 298.881C229.462 304.914 223.747 307.191 223.391 307.327C223.667 307.6 223.919 307.885 224.149 308.181C226.822 311.482 227.155 315.614 225.273 318.232C224.894 318.755 224.458 319.176 223.976 319.529C221.945 320.997 219.294 321.009 218.766 321.009C216.081 321.009 213.82 319.836 212.041 318.391C209.861 316.615 208.403 314.43 207.772 313.474C205.695 310.343 204.961 307.259 204.674 305.301C201.254 305.847 197.834 306.405 194.403 306.952C193.852 307.043 193.29 307.134 192.739 307.225C192.693 307.225 192.658 307.259 192.613 307.282C192.463 307.338 192.314 307.395 192.154 307.452C190.329 308.158 188.011 308.955 185.256 309.615C183.753 309.968 182.112 310.287 180.368 310.537C180.035 310.583 179.668 310.639 179.266 310.685H179.255C176.431 311.015 172.231 311.3 167.32 310.822C167.021 310.799 166.723 310.765 166.424 310.73C162.787 310.309 158.793 309.467 154.696 307.93C152.011 306.917 149.555 305.711 147.317 304.368C145.951 303.56 144.666 302.694 143.461 301.807C143.461 301.807 143.45 301.795 143.438 301.795C133.615 294.51 128.749 285.165 127.349 282.263L130.149 280.146L132.065 278.677L135.118 276.367C143.128 275.991 151.483 275.9 160.147 276.185H160.159C161.536 276.23 162.924 276.287 164.324 276.355C164.451 276.355 164.588 276.367 164.726 276.378C166.7 276.469 168.685 276.583 170.693 276.72C173.482 276.913 176.294 277.141 179.14 277.414C181.607 277.653 184.097 277.915 186.611 278.222C188.183 278.416 189.767 278.62 191.35 278.837C191.809 278.894 192.268 278.962 192.727 279.03C192.739 279.03 192.75 279.03 192.762 279.042H192.773C193.416 279.121 194.07 279.224 194.713 279.315C195.493 279.429 196.262 279.554 197.031 279.679C197.662 279.77 198.305 279.873 198.936 279.986C201.024 280.316 203.079 280.681 205.121 281.056C205.225 281.079 205.316 281.09 205.42 281.113C206.349 278.951 208.277 275.365 212.041 272.622C212.351 272.383 212.673 272.167 213.005 271.95C214.027 271.29 221.211 266.817 226.317 269.184C226.685 269.367 227.052 269.571 227.396 269.822C230.15 271.814 230.587 275.331 230.724 276.367C231.08 279.19 230.288 281.637 229.267 283.526C229.255 283.549 229.232 283.583 229.221 283.606C228.016 285.814 226.501 287.214 226.18 287.499C228.222 289.024 229.657 291.118 230.38 293.418C230.403 293.509 230.426 293.6 230.449 293.691C230.529 293.964 230.598 294.226 230.644 294.499C230.873 295.592 230.931 296.719 230.816 297.834Z" fill="#FF6D00" stroke="#8D0F3A" stroke-width="2" stroke-miterlimit="10"/>
<path d="M102.618 224.645C104.523 230.45 107.989 238.793 114.461 247.489C120.693 255.878 127.418 261.501 132.329 264.995C138.239 264.426 145.355 264.301 153.296 265.314C171.749 267.67 185.578 275.023 193.703 280.305C192.154 283.412 190.937 287.077 190.535 291.289C190.467 292.052 190.26 294.442 190.57 297.584C190.788 299.769 191.293 302.797 192.544 306.314C189.583 307.498 185.842 308.841 181.423 310.081C177.981 311.049 173.264 312.164 166.183 313.189C159.401 314.156 150.599 315.363 143.358 314.976C124.698 313.986 103.18 298.892 91.5667 279.485C79.6432 259.566 80.6072 239.681 81.4219 231.872" fill="#CAD678"/>
<path d="M102.618 224.645C104.523 230.45 107.989 238.793 114.461 247.489C120.693 255.878 127.418 261.501 132.329 264.995C138.239 264.426 145.355 264.301 153.296 265.314C171.749 267.67 185.578 275.023 193.703 280.305C192.154 283.412 190.937 287.077 190.535 291.289C190.467 292.052 190.26 294.442 190.57 297.584C190.788 299.769 191.293 302.797 192.544 306.314C189.583 307.498 185.842 308.841 181.423 310.081C177.981 311.049 173.264 312.164 166.183 313.189C159.401 314.156 150.599 315.363 143.358 314.976C124.698 313.986 103.18 298.892 91.5667 279.485C79.6432 259.566 80.6072 239.681 81.4219 231.872" stroke="#8D0F3A" stroke-width="2" stroke-miterlimit="10"/>
<path d="M162.741 302.843C154.099 304.641 133.534 307.407 114.874 294.158C107.943 289.229 102.974 283.31 99.4966 278.108C115.196 296.024 139.502 304.243 162.741 302.843Z" fill="#E6F29B"/>
<path d="M223.735 199.069C224.975 198.773 226.49 198.511 228.234 198.42C229.944 198.329 231.459 198.42 232.71 198.59" stroke="#231F20" stroke-width="2" stroke-miterlimit="10"/>
<path d="M202.272 173.577L202.273 173.576C203.706 172.867 206.295 172.029 210.5 172.82V207.473L197.067 206.764C194.524 198.733 193.968 191.364 194.97 185.541C195.989 179.627 198.597 175.389 202.272 173.577Z" fill="#5A5E3C" stroke="#8D0F3A"/>
<path d="M232.01 199.546C231.218 200.059 230.621 200.32 230.518 200.366C234.121 203.075 235.131 207.047 233.421 209.643C231.757 212.181 227.982 212.477 227.339 212.522C221.521 212.966 217.183 208.231 215.897 206.831C213.556 204.282 212.546 201.664 212.076 200.002H212.041L210.022 200.457L203.652 201.868L200.623 202.54C199.969 202.028 194.288 197.407 194.472 189.701C194.552 186.582 195.562 184.043 196.698 182.143C197.983 179.991 199.429 178.671 199.842 178.307C200.715 178.364 201.598 178.432 202.47 178.489C204.984 178.671 207.508 178.853 210.022 179.024C210.159 179.035 210.309 179.047 210.446 179.058C210.768 178.17 211.261 177.009 212.041 175.746C213.086 174.05 214.646 172.183 216.953 170.589C217.952 169.895 225.445 164.887 230.782 167.698C233.662 169.201 234.431 172.217 234.661 173.105C236.015 178.398 231.837 182.541 231.321 183.042C235.074 185.091 237.208 188.79 236.795 192.535C236.393 196.177 233.742 198.442 232.01 199.546Z" fill="#FF6D00" stroke="#8D0F3A" stroke-width="2" stroke-miterlimit="10"/>
<path d="M207.91 173.31C206.2 174.402 202.631 177.032 200.669 181.744C200.405 182.381 199.441 184.795 199.303 188.096C199.154 191.533 199.969 194.094 200.416 195.471C202.218 200.969 205.695 204.623 207.807 206.501C201.61 208.242 198.087 206.592 196.87 205.909C188.286 201.06 190.226 185.273 193.886 178.09C194.782 176.337 195.849 174.949 197.421 173.936C201.564 171.272 206.671 172.888 207.899 173.31H207.91Z" fill="#CAD678" stroke="#8D0F3A" stroke-width="2" stroke-miterlimit="10"/>
<path d="M148.625 182.814C138.354 192.341 119.143 192.33 101.849 181.414C110.227 180.845 118.983 179.661 127.98 177.635C132.628 176.588 135.726 175.723 136.495 175.506C145.01 173.048 151.747 170.111 156.371 167.823C154.765 176.371 150.714 180.868 148.614 182.814H148.625Z" fill="#6A0C0D"/>
<path d="M142.325 182.108C133.661 186.798 129.231 189.131 124.64 188.926C121.094 188.767 118.26 187.526 116.47 186.536C116.917 185.557 117.445 184.726 117.984 184.009C122.69 177.783 131.4 177.43 133.856 177.407C134.338 176.872 135.198 176.053 136.495 175.506C137.138 175.233 137.723 175.085 138.216 175.017C139.812 174.311 142.968 173.173 147.053 173.367C150.565 173.537 153.25 174.63 154.753 175.381C153.135 176.258 148.545 178.762 142.336 182.12L142.325 182.108Z" fill="#B73A40"/>
<path d="M148.625 182.814C145.71 184.943 136.851 190.793 125.88 189.154C123.401 188.779 121.221 188.096 119.362 187.288C119.557 185.762 120.073 184.692 120.578 183.941C123.022 180.287 128.852 178.99 135.233 180.504C135.52 179.764 136.679 177.032 139.731 175.359C143.025 173.56 146.192 174.243 146.927 174.414L153.686 176.155C151.999 178.364 150.324 180.583 148.637 182.791L148.625 182.814Z" fill="#F48888"/>
<path d="M148.625 183.542C139.789 191.317 127.062 189.268 119.35 188.016C111.581 186.764 105.59 184.112 101.849 182.142C110.227 181.573 118.983 180.39 127.98 178.363C132.628 177.316 135.726 176.451 136.495 176.235C145.01 173.776 151.747 170.84 156.371 168.552C154.857 177.464 150.473 181.903 148.614 183.542H148.625Z" stroke="#8D0F3A" stroke-width="2" stroke-miterlimit="10"/>
<path d="M217.378 307.042C218.33 307.327 219.409 307.6 220.602 307.805C222.014 308.044 223.311 308.158 224.435 308.192" stroke="#8D0F3A" stroke-width="2" stroke-miterlimit="10"/>
<path d="M218.686 288.5C219.696 288.159 220.947 287.817 222.393 287.601C223.816 287.396 225.09 287.351 226.145 287.385" stroke="#8D0F3A" stroke-width="2" stroke-miterlimit="10"/>
<path d="M223.093 198.59C224.114 198.898 225.285 199.194 226.581 199.41C228.108 199.672 229.508 199.785 230.724 199.831" stroke="#8D0F3A" stroke-width="2" stroke-miterlimit="10"/>
<path d="M223.712 184.556C224.803 184.18 226.157 183.816 227.729 183.588C229.267 183.361 230.644 183.315 231.78 183.361" stroke="#8D0F3A" stroke-width="2" stroke-miterlimit="10"/>
<defs>
<linearGradient id="paint0_linear_333_57137" x1="224.447" y1="212.545" x2="224.447" y2="166.845" gradientUnits="userSpaceOnUse">
<stop stop-color="#D4B5D6"/>
<stop offset="1" stop-color="#9E6AAD"/>
</linearGradient>
<linearGradient id="paint1_linear_333_57137" x1="221.463" y1="321.009" x2="221.463" y2="268.49" gradientUnits="userSpaceOnUse">
<stop stop-color="#D4B5D6"/>
<stop offset="1" stop-color="#9E6AAD"/>
</linearGradient>
</defs>
</svg>
