<svg width="214" height="190" viewBox="0 0 214 190" fill="none" xmlns="http://www.w3.org/2000/svg">
<mask id="path-1-inside-1_13_2171" fill="white">
<path d="M43.999 135.019C43.999 133.323 45.3743 131.947 47.0708 131.947H177.927C179.624 131.947 180.999 133.323 180.999 135.019V182.938C180.999 186.331 178.248 189.082 174.856 189.082H50.1425C46.7496 189.082 43.999 186.331 43.999 182.938V135.019Z"/>
</mask>
<path d="M43.999 135.019C43.999 133.323 45.3743 131.947 47.0708 131.947H177.927C179.624 131.947 180.999 133.323 180.999 135.019V182.938C180.999 186.331 178.248 189.082 174.856 189.082H50.1425C46.7496 189.082 43.999 186.331 43.999 182.938V135.019Z" fill="#FEBD01" stroke="#8D0F3A" stroke-width="7.3722" mask="url(#path-1-inside-1_13_2171)"/>
<path d="M51.6414 130.362L64.783 119.323H159.981L173.123 130.362C174.001 131.099 173.479 132.531 172.332 132.531H52.4316C51.2849 132.531 50.7632 131.099 51.6414 130.362Z" fill="#8D0F3A" stroke="#8D0F3A" stroke-width="3.6861"/>
<path d="M57.7035 76.6845H170.49C172.589 76.6845 174.032 78.7939 173.271 80.7501L159.391 116.442H65.487L54.8424 80.5162C54.2758 78.6038 55.7088 76.6845 57.7035 76.6845Z" fill="#8D0F3A" stroke="#8D0F3A" stroke-width="3.6861"/>
<mask id="path-4-inside-2_13_2171" fill="white">
<path d="M43.999 79.6687C43.999 73.4482 49.0417 68.4056 55.2621 68.4056H169.502C175.722 68.4056 180.765 73.4482 180.765 79.6687V79.6687C180.765 80.5573 180.045 81.2777 179.156 81.2777H45.608C44.7194 81.2777 43.999 80.5573 43.999 79.6687V79.6687Z"/>
</mask>
<path d="M43.999 79.6687C43.999 73.4482 49.0417 68.4056 55.2621 68.4056H169.502C175.722 68.4056 180.765 73.4482 180.765 79.6687V79.6687C180.765 80.5573 180.045 81.2777 179.156 81.2777H45.608C44.7194 81.2777 43.999 80.5573 43.999 79.6687V79.6687Z" fill="#FEBD01" stroke="#8D0F3A" stroke-width="7.3722" mask="url(#path-4-inside-2_13_2171)"/>
<path d="M74.5708 70.2486H151.803C157.267 70.2486 161.802 74.2208 162.679 79.4346H63.6951C64.5722 74.2208 69.1076 70.2486 74.5708 70.2486Z" fill="#E54E17" stroke="#8D0F3A" stroke-width="3.6861"/>
<mask id="path-6-inside-3_13_2171" fill="white">
<path fill-rule="evenodd" clip-rule="evenodd" d="M128.779 143.005H96.2192V177.409H128.779V143.005ZM139.837 177.409H165.025V143.005H139.837V177.409ZM61.2002 143.005H85.1609V177.409H61.2002V143.005Z"/>
</mask>
<path fill-rule="evenodd" clip-rule="evenodd" d="M128.779 143.005H96.2192V177.409H128.779V143.005ZM139.837 177.409H165.025V143.005H139.837V177.409ZM61.2002 143.005H85.1609V177.409H61.2002V143.005Z" fill="#E54E17"/>
<path d="M128.779 143.005H132.465V139.319H128.779V143.005ZM96.2192 143.005V139.319H92.5331V143.005H96.2192ZM96.2192 177.409H92.5331V181.095H96.2192V177.409ZM128.779 177.409V181.095H132.465V177.409H128.779ZM139.837 177.409H136.151V181.095H139.837V177.409ZM165.025 177.409V181.095H168.711V177.409H165.025ZM165.025 143.005H168.711V139.319H165.025V143.005ZM139.837 143.005V139.319H136.151V143.005H139.837ZM85.1609 143.005H88.847V139.319H85.1609V143.005ZM61.2002 143.005V139.319H57.5141V143.005H61.2002ZM85.1609 177.409V181.095H88.847V177.409H85.1609ZM61.2002 177.409H57.5141V181.095H61.2002V177.409ZM128.779 139.319H96.2192V146.691H128.779V139.319ZM92.5331 143.005V177.409H99.9053V143.005H92.5331ZM96.2192 181.095H128.779V173.722H96.2192V181.095ZM132.465 177.409V143.005H125.092V177.409H132.465ZM139.837 181.095H165.025V173.722H139.837V181.095ZM168.711 177.409V143.005H161.339V177.409H168.711ZM165.025 139.319H139.837V146.691H165.025V139.319ZM136.151 143.005V177.409H143.523V143.005H136.151ZM85.1609 139.319H61.2002V146.691H85.1609V139.319ZM88.847 177.409V143.005H81.4748V177.409H88.847ZM61.2002 181.095H85.1609V173.722H61.2002V181.095ZM57.5141 143.005V177.409H64.8863V143.005H57.5141Z" fill="#8D0F3A" mask="url(#path-6-inside-3_13_2171)"/>
<rect x="103.767" y="67.0305" width="22.0581" height="22.0581" rx="11.029" fill="#FEBD01" stroke="#8D0F3A" stroke-width="3.6861"/>
<rect x="111.813" y="68.2563" width="6.1435" height="10.3562" rx="3.07175" fill="#E54E17" stroke="#8D0F3A" stroke-width="3.6861"/>
<path d="M16 61.2758C16 78.5866 50.3954 114.971 60.9164 131H164.103C180.693 110.964 225.043 68.9695 211.447 61.2758C197.851 53.5821 174.219 86.9215 164.103 104.553C168.149 72.4958 173.814 8.38178 164.103 8.38178C154.391 8.38178 136.586 66.0844 128.898 94.9358C127.684 74.0986 122.828 31.4627 113.117 27.6158C103.405 23.7689 96.9304 70.8929 94.9072 94.9358C83.5769 68.4887 58.2457 14.1521 47.5629 8.38178C36.8801 2.6115 52.014 63.6802 60.9164 94.9358C45.9443 76.5029 16 43.965 16 61.2758Z" fill="url(#paint0_radial_13_2171)"/>
<path d="M157.155 77.2106L94.3638 49.1448L81.1006 78.8185L143.892 106.884C157.436 100.477 158.378 84.4323 157.155 77.2106Z" fill="#96A1C0" stroke="#8D0F3A" stroke-width="3"/>
<path d="M94.8634 63.6725C103.205 42.7339 83.1289 29.713 72.1665 25.5549L49.1929 76.9539C65.0613 83.4108 84.4363 89.8456 94.8634 63.6725Z" fill="#96A1C0" stroke="#8D0F3A" stroke-width="3"/>
<path d="M77.2139 56.1017L77.1967 56.1402L77.1816 56.1797C73.6032 65.5711 68.1327 72.1656 62.6394 75.9505C57.0837 79.7783 51.7599 80.5907 48.2654 79.0287C43.5596 76.9254 41.3674 72.3667 41.2056 66.2247C41.0433 60.0632 42.9633 52.6074 46.1805 45.4096C49.402 38.2022 53.6746 31.6325 58.407 27.4961C63.1256 23.3717 68.0364 21.8554 72.857 24.01C76.3758 25.5828 79.1147 29.8557 80.1275 35.8384C81.1294 41.7568 80.3686 49.0438 77.2139 56.1017Z" fill="#D9D9D9" stroke="#8D0F3A" stroke-width="3"/>
<path d="M73.3523 56.9186C70.1688 64.0412 65.6682 69.6853 61.0383 73.0781C56.3684 76.5002 51.855 77.4544 48.39 75.9056C44.925 74.3569 42.6257 70.3576 42.0607 64.5957C41.5006 58.8832 42.7041 51.7654 45.8877 44.6428C49.0713 37.5202 53.5718 31.8761 58.2017 28.4834C62.8716 25.0613 67.385 24.1071 70.85 25.6559C74.315 27.2046 76.6144 31.2038 77.1794 36.9658C77.7395 42.6783 76.5359 49.796 73.3523 56.9186Z" fill="#3FA9F5" stroke="#8D0F3A" stroke-width="3"/>
<path d="M54.317 36.3313C58.3136 30.2344 63.77 29.6428 65.9986 30.1092C71.9333 32.7618 63.6221 39.2189 58.7247 42.1159C55.5902 42.7281 50.3204 42.4282 54.317 36.3313Z" fill="#B9E1FF"/>
<path d="M67.3194 60.5797C66.6739 64.8685 61.6941 68.6611 59.2848 70.0213L58.5583 65.2462L60.0696 61.1537C62.6408 57.5348 67.9649 56.2908 67.3194 60.5797Z" fill="#B9E1FF"/>
<path d="M52.4864 24.0697C51.5209 20.7773 47.9261 12.3681 41.2704 5.07009C32.9508 -4.05235 46.1056 17.7211 52.4864 24.0697Z" fill="#FFEEAE" stroke="#8D0F3A"/>
<path d="M43.045 34.5667C41.37 31.5723 35.9913 24.1759 27.8764 18.545C17.7327 11.5064 35.4097 29.8 43.045 34.5667Z" fill="#FFEEAE" stroke="#8D0F3A"/>
<path d="M38.3941 68.3219C34.9907 67.8873 25.8456 67.8116 16.4923 70.9855C4.80069 74.953 30.0208 71.6243 38.3941 68.3219Z" fill="#FFEEAE" stroke="#8D0F3A"/>
<path d="M37.2551 53.452C34.1654 51.9601 25.5168 48.987 15.6397 49.0297C3.29333 49.0831 28.2666 53.9274 37.2551 53.452Z" fill="#FFEEAE" stroke="#8D0F3A"/>
<rect x="111.838" y="62.677" width="27.2792" height="7.5453" rx="3.77265" transform="rotate(24.0831 111.838 62.677)" fill="#D9D9D9"/>
<defs>
<radialGradient id="paint0_radial_13_2171" cx="0" cy="0" r="1" gradientUnits="userSpaceOnUse" gradientTransform="translate(116.711 131) rotate(-90) scale(123 199.833)">
<stop stop-color="#D8638A"/>
<stop offset="0.161458" stop-color="#C64470"/>
<stop offset="0.73" stop-color="#F6A569" stop-opacity="0.25"/>
<stop offset="1" stop-color="#FFFFF3" stop-opacity="0.31"/>
</radialGradient>
</defs>
</svg>
