<svg width="198" height="182" viewBox="0 0 198 182" fill="none" xmlns="http://www.w3.org/2000/svg">
<mask id="path-1-inside-1_40_6694" fill="white">
<path d="M27.999 127.019C27.999 125.323 29.3743 123.948 31.0708 123.948H161.927C163.624 123.948 164.999 125.323 164.999 127.019V174.939C164.999 178.331 162.248 181.082 158.856 181.082H34.1425C30.7496 181.082 27.999 178.332 27.999 174.939V127.019Z"/>
</mask>
<path d="M27.999 127.019C27.999 125.323 29.3743 123.948 31.0708 123.948H161.927C163.624 123.948 164.999 125.323 164.999 127.019V174.939C164.999 178.331 162.248 181.082 158.856 181.082H34.1425C30.7496 181.082 27.999 178.332 27.999 174.939V127.019Z" fill="#FEBD01" stroke="#8D0F3A" stroke-width="7.3722" mask="url(#path-1-inside-1_40_6694)"/>
<path d="M35.6414 122.362L48.783 111.323H143.981L157.123 122.362C158.001 123.099 157.479 124.531 156.332 124.531H36.4316C35.2849 124.531 34.7632 123.099 35.6414 122.362Z" fill="#8D0F3A" stroke="#8D0F3A" stroke-width="3.6861"/>
<path d="M41.704 68.6846H154.49C156.589 68.6846 158.032 70.794 157.271 72.7501L143.391 108.442H49.4875L38.8429 72.5163C38.2763 70.6039 39.7093 68.6846 41.704 68.6846Z" fill="#8D0F3A" stroke="#8D0F3A" stroke-width="3.6861"/>
<mask id="path-4-inside-2_40_6694" fill="white">
<path d="M27.999 71.6686C27.999 65.4482 33.0417 60.4055 39.2621 60.4055H153.502C159.722 60.4055 164.765 65.4482 164.765 71.6686V71.6686C164.765 72.5572 164.045 73.2776 163.156 73.2776H29.608C28.7194 73.2776 27.999 72.5572 27.999 71.6686V71.6686Z"/>
</mask>
<path d="M27.999 71.6686C27.999 65.4482 33.0417 60.4055 39.2621 60.4055H153.502C159.722 60.4055 164.765 65.4482 164.765 71.6686V71.6686C164.765 72.5572 164.045 73.2776 163.156 73.2776H29.608C28.7194 73.2776 27.999 72.5572 27.999 71.6686V71.6686Z" fill="#FEBD01" stroke="#8D0F3A" stroke-width="7.3722" mask="url(#path-4-inside-2_40_6694)"/>
<path d="M58.5703 62.2486H135.803C141.266 62.2486 145.801 66.2207 146.679 71.4346H47.6946C48.5717 66.2207 53.1072 62.2486 58.5703 62.2486Z" fill="#E54E17" stroke="#8D0F3A" stroke-width="3.6861"/>
<mask id="path-6-inside-3_40_6694" fill="white">
<path fill-rule="evenodd" clip-rule="evenodd" d="M112.779 135.005H80.2192V169.408H112.779V135.005ZM123.837 169.408H149.025V135.005H123.837V169.408ZM45.2002 135.005H69.1609V169.408H45.2002V135.005Z"/>
</mask>
<path fill-rule="evenodd" clip-rule="evenodd" d="M112.779 135.005H80.2192V169.408H112.779V135.005ZM123.837 169.408H149.025V135.005H123.837V169.408ZM45.2002 135.005H69.1609V169.408H45.2002V135.005Z" fill="#E54E17"/>
<path d="M112.779 135.005H116.465V131.319H112.779V135.005ZM80.2192 135.005V131.319H76.5331V135.005H80.2192ZM80.2192 169.408H76.5331V173.095H80.2192V169.408ZM112.779 169.408V173.095H116.465V169.408H112.779ZM123.837 169.408H120.151V173.095H123.837V169.408ZM149.025 169.408V173.095H152.711V169.408H149.025ZM149.025 135.005H152.711V131.319H149.025V135.005ZM123.837 135.005V131.319H120.151V135.005H123.837ZM69.1609 135.005H72.847V131.319H69.1609V135.005ZM45.2002 135.005V131.319H41.5141V135.005H45.2002ZM69.1609 169.408V173.095H72.847V169.408H69.1609ZM45.2002 169.408H41.5141V173.095H45.2002V169.408ZM112.779 131.319H80.2192V138.691H112.779V131.319ZM76.5331 135.005V169.408H83.9053V135.005H76.5331ZM80.2192 173.095H112.779V165.722H80.2192V173.095ZM116.465 169.408V135.005H109.092V169.408H116.465ZM123.837 173.095H149.025V165.722H123.837V173.095ZM152.711 169.408V135.005H145.339V169.408H152.711ZM149.025 131.319H123.837V138.691H149.025V131.319ZM120.151 135.005V169.408H127.523V135.005H120.151ZM69.1609 131.319H45.2002V138.691H69.1609V131.319ZM72.847 169.408V135.005H65.4748V169.408H72.847ZM45.2002 173.095H69.1609V165.722H45.2002V173.095ZM41.5141 135.005V169.408H48.8863V135.005H41.5141Z" fill="#8D0F3A" mask="url(#path-6-inside-3_40_6694)"/>
<rect x="87.7679" y="59.0305" width="22.0581" height="22.0581" rx="11.029" fill="#FEBD01" stroke="#8D0F3A" stroke-width="3.6861"/>
<rect x="95.8128" y="60.2564" width="6.1435" height="10.3562" rx="3.07175" fill="#E54E17" stroke="#8D0F3A" stroke-width="3.6861"/>
<path d="M0 53.2758C0 70.5866 34.3954 106.971 44.9164 123H148.103C164.693 102.964 209.043 60.9695 195.447 53.2758C181.851 45.5821 158.219 78.9215 148.103 96.5528C152.149 64.4958 157.814 0.381778 148.103 0.381778C138.391 0.381778 120.586 58.0844 112.898 86.9358C111.684 66.0986 106.828 23.4627 97.1165 19.6158C87.4049 15.7689 80.9304 62.8929 78.9072 86.9358C67.5769 60.4887 42.2457 6.15206 31.5629 0.381778C20.8801 -5.3885 36.014 55.6802 44.9164 86.9358C29.9443 68.5029 0 35.965 0 53.2758Z" fill="url(#paint0_radial_40_6694)"/>
<rect x="0.395684" y="0.586355" width="100.171" height="63.7586" rx="4.5" transform="matrix(0.981596 0.190971 -0.190228 0.98174 59.1501 20.0675)" fill="#570C25" stroke="#8D0F3A"/>
<path d="M128.768 106.014C129.985 106.483 132.814 107.084 134.388 105.732C136.355 104.043 127.082 104.043 128.768 106.014Z" fill="#390315" stroke="#8D0F3A"/>
<path d="M61.5853 18.1361L49.672 23.3814C47.8604 24.1789 48.1842 26.8418 50.134 27.182L143.26 43.4334C143.525 43.4796 143.796 43.4719 144.058 43.4108L155.272 40.7941C157.362 40.3063 157.321 37.3164 155.218 36.8869L62.7915 18.007C62.3857 17.9241 61.9643 17.9693 61.5853 18.1361Z" fill="#834612" stroke="#8D0F3A"/>
<path d="M147.63 101.046L135.123 105.432C133.672 105.941 132.213 104.687 132.496 103.173L143.449 44.6393C143.58 43.9364 144.077 43.3575 144.751 43.121L157.258 38.7337C158.709 38.2247 160.168 39.4794 159.885 40.9928L148.932 99.5278C148.801 100.231 148.304 100.81 147.63 101.046Z" fill="#834612" stroke="#8D0F3A" stroke-width="3"/>
<rect x="1.18705" y="1.75907" width="98.1715" height="61.7586" rx="3.5" transform="matrix(0.981596 0.190971 -0.190228 0.98174 45.1631 23.8237)" fill="#9F632F" stroke="#8D0F3A" stroke-width="3"/>
<path d="M133.653 95.8773L35.0913 78.803C33.4049 86.4056 33.123 86.4056 35.0911 87.532L126.627 105.451C130.843 106.014 131.686 106.577 132.248 104.325L133.653 95.8773Z" fill="#7D909E" stroke="#8D0F3A" stroke-width="3"/>
<path d="M141.52 54.2055L43.8028 33.1869C45.1096 25.5096 45.49 25.3184 47.737 25.0211L138.175 42.5168C142.289 43.5921 143.282 43.39 142.953 45.6884L141.52 54.2055Z" fill="#7D909E" stroke="#8D0F3A" stroke-width="3"/>
<path d="M63.3986 17.5981L47.7363 25.0212C78.4602 31.0283 139.44 42.9967 141.239 43.2219C143.037 43.4472 144.423 43.1281 144.892 42.9403C148.17 41.814 155.289 39.3924 157.537 38.7166C159.785 38.0408 159.017 37.9739 157.818 37.5903L63.3986 17.5981Z" fill="#425664" stroke="#8D0F3A" stroke-width="3"/>
<path d="M101.897 95.8773L109.484 50.5429L68.4567 42.6587L58.9023 95.8773L95.7148 102.072C99.3117 102.973 101.522 98.1299 101.897 95.8773Z" fill="#7D909E" stroke="#8D0F3A" stroke-width="3"/>
<path d="M96.9139 101.329L79.4912 98.232L88.4092 93.0618C95.4345 87.9934 98.0572 81.6109 98.8066 78.1381C100.83 79.4897 103.658 75.424 104.501 73.1714L101.41 93.0618C100.567 98.4118 100.848 99.6399 96.9139 101.329Z" fill="#425664" stroke="#425664"/>
<ellipse cx="20.1703" cy="20.2079" rx="20.1703" ry="20.2079" transform="matrix(0.978062 0.208314 -0.190438 0.981699 55.8467 54.4851)" fill="#3C3C3C"/>
<path d="M62.7405 95.3998L62.3147 95.0371L61.7616 95.0371C61.2502 95.0371 60.4762 94.7277 59.4586 93.8347C58.4747 92.9712 57.4434 91.7191 56.448 90.2341C54.4559 87.2623 52.7687 83.6018 51.9781 80.9294C51.4483 79.1382 51.8595 77.0472 52.6742 74.6729C52.9465 73.8795 53.241 73.1137 53.5394 72.338C53.6853 71.9588 53.832 71.5773 53.9775 71.189C54.3782 70.1199 54.762 69.0171 54.9875 67.9591C60.3448 57.4105 71.5358 52.4233 82.0747 54.668C92.522 56.8931 99.3436 67.2152 97.3043 77.7275C96.2997 82.9061 92.2502 88.3811 86.9584 92.2932C81.655 96.2139 75.4755 98.2954 70.4284 97.2204C69.7438 97.0746 68.9805 96.9764 68.2477 96.8863C68.1602 96.8755 68.073 96.8649 67.9859 96.8542C67.3219 96.7731 66.671 96.6935 66.0306 96.5862C64.532 96.335 63.4166 95.9755 62.7405 95.3998Z" fill="#3C3C3C" stroke="#8D0F3A" stroke-width="3"/>
<path d="M95.996 64.0588L79.4164 71.9431C71.5481 81.0475 64.8171 103.648 84.1935 94.4695C99.3681 87.2814 100.773 72.2247 95.996 64.0588Z" fill="#2B2B2B"/>
<path d="M88.7632 82.4747C86.8439 92.3686 77.3164 98.6783 67.4953 96.5865C57.6741 94.4947 51.2536 84.7883 53.1729 74.8944C55.0921 65.0006 64.6197 58.6908 74.4408 60.7826C84.262 62.8744 90.6825 72.5808 88.7632 82.4747Z" stroke="black" stroke-width="8"/>
<path d="M108.641 55.0482L67.8945 46.6008L68.4566 42.6587L109.484 50.8245L108.641 55.0482Z" fill="#A1BACB" stroke="#8D0F3A" stroke-width="3"/>
<path d="M83.433 26.5765L80.0879 28.5876L81.4259 20.7666L84.325 19.8728L83.433 26.5765Z" fill="black"/>
<path d="M60.4424 16.521L81.7078 20.7667L80.5402 28.58L59.1833 23.7931L60.4424 16.521Z" fill="#2B2B2B"/>
<path d="M84.3249 19.8729L63.1393 15.6272L60.2402 16.521L81.4258 20.7667L84.3249 19.8729Z" fill="black"/>
<path d="M70.5 41L83.6319 29.4245L90.6572 25.4824L95.9964 26.4552L99.6495 25.4824L118.477 29.4245L108.642 36.8864L111.171 45.4746L109.485 50.8246L70.5 41Z" fill="#3C3C3C"/>
<path d="M83.6319 29.4245L70.5 41L109.485 50.8246M83.6319 29.4245L100.212 32.8035M83.6319 29.4245L90.6572 25.4824L95.9964 26.4552M100.212 32.8035L109.485 50.8246M100.212 32.8035L106.113 28.2982M109.485 50.8246L111.171 45.4746L108.642 36.8864M106.113 28.2982L95.9964 26.4552M106.113 28.2982L107.237 32.8035M108.642 36.8864L118.477 29.4245M108.642 36.8864L107.237 32.8035M118.477 29.4245L99.6495 25.4824L95.9964 26.4552M118.477 29.4245L112.857 29.9877M107.237 32.8035L112.857 29.9877M112.857 29.9877L99.6495 26.8903" stroke="#8D0F3A" stroke-width="3"/>
<path d="M105.831 28.8613L100.492 33.085L109.485 50.2614L110.89 45.4745L105.831 28.8613Z" fill="#2B2B2B"/>
<path d="M112.576 29.9877L107.518 32.8035L108.923 36.7456L117.915 29.4246L112.576 29.9877Z" fill="#222222"/>
<path d="M112.576 29.706L97.1201 26.3271L99.6492 25.7639L117.072 29.1429L112.576 29.706Z" fill="#222222"/>
<path d="M69.0179 64.4579C77.4489 64.059 85.8796 73.9142 84.9406 82.2609" stroke="white" stroke-width="4" stroke-linecap="round"/>
<path d="M74.6396 37.8719L84.475 30.2693L87.8472 31.3956L86.1611 33.9298L74.6396 37.8719Z" fill="#6E6E6E"/>
<path d="M107.237 32.5221L106.394 28.8616L111.733 29.9879L107.237 32.5221Z" fill="#2B2B2B"/>
<path d="M132.32 95.6419C130.072 104.371 120.022 102.42 114.729 101.267L127.259 104.094C130.041 104.784 130.347 104.234 130.679 103.122L132.32 95.6419Z" fill="#425664"/>
<path d="M49.9101 89.2235C44.8121 87.8061 34.2919 87.8543 35.737 79.6798L35.8602 79.0846C35.8123 79.2877 35.7713 79.4861 35.737 79.6798L34.7981 84.2181C34.5744 85.3572 34.5897 85.9867 37.372 86.6744L49.9101 89.2235Z" fill="#425664"/>
<path d="M127.044 41.6067C132.077 42.5127 142.059 45.0657 141.298 52.7412L141.047 54.1542C141.17 53.6649 141.253 53.1941 141.298 52.7412L142.492 45.9953C142.609 44.8403 142.536 44.215 139.702 43.7889L127.044 41.6067Z" fill="#425664"/>
<path d="M62.6298 29.2488C54.6753 30.8429 47.4638 25.0163 45.2659 31.8282L44.9261 33.1907C45.0208 32.6885 45.1344 32.2357 45.2659 31.8282L46.3319 27.5528C46.7095 26.4553 47.4606 25.9754 50.2112 26.7813L62.6298 29.2488Z" fill="#C5D4DF"/>
<path d="M150.512 90.5276L133.652 95.8776L132.247 104.043C132.022 105.846 133.089 106.202 133.652 106.296L146.859 101.509C148.658 101.059 148.92 100.195 148.826 99.8197L150.512 90.5276Z" fill="#425664" stroke="#8D0F3A" stroke-width="3"/>
<path d="M158.38 49.1352L141.801 54.2036L143.206 45.7562C143.487 44.0667 144.611 43.0343 145.173 42.9404L158.38 38.4351C159.785 37.5904 160.348 38.9983 160.067 40.1246L158.38 49.1352Z" fill="#425664" stroke="#8D0F3A" stroke-width="3"/>
<path d="M143.207 52.7957C145.455 45.4329 149.951 44.0668 155.29 40.6879L147.141 42.9405C144.423 43.7853 144.893 44.0665 144.423 45.4329L143.207 52.7957Z" fill="#7D909E"/>
<path d="M53.0529 25.0211L65.9794 27.5553C59.9096 25.0774 57.2681 22.9562 56.706 22.2053C51.0858 24.458 51.9513 24.7395 53.0529 25.0211Z" fill="#7D909E" stroke="#7D909E"/>
<path d="M44.2899 34.2114L67.3328 39.5614L42.0418 63.2142L40.6367 54.2036L44.2899 34.2114Z" fill="#C3844D"/>
<defs>
<radialGradient id="paint0_radial_40_6694" cx="0" cy="0" r="1" gradientUnits="userSpaceOnUse" gradientTransform="translate(100.711 123) rotate(-90) scale(123 199.833)">
<stop stop-color="#D8638A"/>
<stop offset="0.161458" stop-color="#C64470"/>
<stop offset="0.73" stop-color="#F6A569" stop-opacity="0.25"/>
<stop offset="1" stop-color="#FFFFF3" stop-opacity="0.31"/>
</radialGradient>
</defs>
</svg>
