<svg width="414" height="385" viewBox="0 0 414 385" fill="none" xmlns="http://www.w3.org/2000/svg">
<path d="M362.478 197.76C323.506 256.605 262.45 374.297 330.001 374.297C369.043 374.297 389.494 363.476 399.824 353.404C411.823 341.707 409.942 328.315 409.728 312.752C408.274 207.098 377.127 204.309 362.478 197.76Z" fill="#CB8641" stroke="#8D0F3A" stroke-width="7"/>
<path d="M51.4824 197.76C90.4543 256.605 151.51 374.297 83.959 374.297C44.9165 374.297 24.4664 363.476 14.1356 353.404C2.13723 341.707 4.01768 328.315 4.23189 312.752C5.686 207.098 36.8334 204.309 51.4824 197.76Z" fill="#CB8641" stroke="#8D0F3A" stroke-width="7"/>
<rect x="46.9785" y="106.66" width="320.003" height="274.565" rx="41.5" fill="#CB8641" stroke="#8D0F3A" stroke-width="7"/>
<g filter="url(#filter0_i_345_58198)">
<rect x="63.5898" y="120.292" width="286.779" height="247.3" rx="45" fill="#FFD873"/>
</g>
<path d="M329.595 70.4194H72.5777C47.1393 70.4194 43.4307 110.106 43.4307 135.903C43.4307 148.083 61.979 181.543 220.959 181.543C419.684 181.543 364.041 98.2004 361.391 84.3099C359.272 73.1975 339.311 70.4194 329.595 70.4194Z" fill="#834612" fill-opacity="0.5"/>
<rect x="115.741" y="274.824" width="78.1968" height="78.1968" rx="25" fill="#FEBD01"/>
<rect x="121.997" y="281.08" width="65.6853" height="65.6853" rx="21" fill="#FEBD01"/>
<rect x="222" y="187" width="78.1968" height="78.1968" rx="25" fill="#FEBD01"/>
<rect x="228.256" y="193.256" width="65.6853" height="65.6853" rx="21" fill="#FEBD01"/>
<rect x="222" y="274.824" width="78.1968" height="78.1968" rx="25" fill="#FEBD01"/>
<rect x="228.256" y="281.08" width="65.6853" height="65.6853" rx="21" fill="#FEBD01"/>
<path d="M254.65 229.436C254.65 228.413 254.985 227.568 255.653 226.899C256.322 226.191 257.168 225.837 258.19 225.837C259.803 225.837 261.258 225.601 262.556 225.129C263.854 224.618 264.877 223.811 265.624 222.71C266.411 221.609 266.804 220.153 266.804 218.344C266.804 217.007 266.47 215.827 265.801 214.804C265.172 213.781 264.287 212.975 263.146 212.385C262.045 211.795 260.786 211.5 259.37 211.5C258.269 211.5 257.227 211.697 256.243 212.09C255.299 212.483 254.434 213.014 253.647 213.683C253.018 214.234 252.251 214.647 251.346 214.922C250.481 215.158 249.596 214.942 248.691 214.273C247.747 213.565 247.236 212.719 247.157 211.736C247.079 210.753 247.452 209.848 248.278 209.022C249.694 207.567 251.346 206.446 253.234 205.659C255.162 204.833 257.207 204.42 259.37 204.42C262.084 204.42 264.523 205.049 266.686 206.308C268.889 207.527 270.639 209.179 271.937 211.264C273.235 213.349 273.884 215.709 273.884 218.344C273.884 220.311 273.589 222.061 272.999 223.595C272.409 225.09 271.564 226.388 270.462 227.489C269.4 228.551 268.142 229.416 266.686 230.085C265.27 230.714 263.717 231.167 262.025 231.442C261.947 231.481 261.868 231.521 261.789 231.56C261.75 231.599 261.73 231.658 261.73 231.737V233.92C261.73 234.943 261.396 235.808 260.727 236.516C260.059 237.185 259.213 237.519 258.19 237.519C257.168 237.519 256.322 237.185 255.653 236.516C254.985 235.808 254.65 234.943 254.65 233.92V229.436ZM257.895 248.08C256.755 248.08 255.87 247.785 255.24 247.195C254.65 246.566 254.355 245.681 254.355 244.54V243.537C254.355 242.396 254.65 241.531 255.24 240.941C255.87 240.312 256.755 239.997 257.895 239.997H258.662C259.803 239.997 260.668 240.312 261.258 240.941C261.888 241.531 262.202 242.396 262.202 243.537V244.54C262.202 245.681 261.888 246.566 261.258 247.195C260.668 247.785 259.803 248.08 258.662 248.08H257.895Z" fill="#FFEEAE"/>
<rect x="115" y="187" width="78.1968" height="78.1968" rx="25" fill="#FEBD01"/>
<rect x="121.256" y="193.256" width="65.6853" height="65.6853" rx="21" fill="#FEBD01"/>
<path d="M147.647 229.436C147.647 228.413 147.982 227.568 148.65 226.899C149.319 226.191 150.165 225.837 151.187 225.837C152.8 225.837 154.255 225.601 155.553 225.129C156.851 224.618 157.874 223.811 158.621 222.71C159.408 221.609 159.801 220.153 159.801 218.344C159.801 217.007 159.467 215.827 158.798 214.804C158.169 213.781 157.284 212.975 156.143 212.385C155.042 211.795 153.783 211.5 152.367 211.5C151.266 211.5 150.224 211.697 149.24 212.09C148.296 212.483 147.431 213.014 146.644 213.683C146.015 214.234 145.248 214.647 144.343 214.922C143.478 215.158 142.593 214.942 141.688 214.273C140.744 213.565 140.233 212.719 140.154 211.736C140.076 210.753 140.449 209.848 141.275 209.022C142.691 207.567 144.343 206.446 146.231 205.659C148.159 204.833 150.204 204.42 152.367 204.42C155.081 204.42 157.52 205.049 159.683 206.308C161.886 207.527 163.636 209.179 164.934 211.264C166.232 213.349 166.881 215.709 166.881 218.344C166.881 220.311 166.586 222.061 165.996 223.595C165.406 225.09 164.561 226.388 163.459 227.489C162.397 228.551 161.139 229.416 159.683 230.085C158.267 230.714 156.714 231.167 155.022 231.442C154.944 231.481 154.865 231.521 154.786 231.56C154.747 231.599 154.727 231.658 154.727 231.737V233.92C154.727 234.943 154.393 235.808 153.724 236.516C153.056 237.185 152.21 237.519 151.187 237.519C150.165 237.519 149.319 237.185 148.65 236.516C147.982 235.808 147.647 234.943 147.647 233.92V229.436ZM150.892 248.08C149.752 248.08 148.867 247.785 148.237 247.195C147.647 246.566 147.352 245.681 147.352 244.54V243.537C147.352 242.396 147.647 241.531 148.237 240.941C148.867 240.312 149.752 239.997 150.892 239.997H151.659C152.8 239.997 153.665 240.312 154.255 240.941C154.885 241.531 155.199 242.396 155.199 243.537V244.54C155.199 245.681 154.885 246.566 154.255 247.195C153.665 247.785 152.8 248.08 151.659 248.08H150.892Z" fill="#FFEEAE"/>
<path d="M337.658 56.9771H63.7403C36.6292 56.9771 32.6768 96.6641 32.6768 122.461C32.6768 134.641 52.4447 168.101 221.878 168.101C433.67 168.101 374.368 84.758 371.545 70.8675C369.285 59.7551 348.012 56.9771 337.658 56.9771Z" fill="#CB8641" stroke="#8D0F3A" stroke-width="7"/>
<rect x="246.979" y="114.5" width="31" height="64" rx="15.5" fill="#E4AA52" stroke="#8D0F3A" stroke-width="7"/>
<rect x="140.979" y="114.5" width="32" height="64" rx="16" fill="#E4AA52" stroke="#8D0F3A" stroke-width="7"/>
<path d="M147.647 315.436C147.647 314.413 147.982 313.568 148.65 312.899C149.319 312.191 150.165 311.837 151.187 311.837C152.8 311.837 154.255 311.601 155.553 311.129C156.851 310.618 157.874 309.811 158.621 308.71C159.408 307.609 159.801 306.153 159.801 304.344C159.801 303.007 159.467 301.827 158.798 300.804C158.169 299.781 157.284 298.975 156.143 298.385C155.042 297.795 153.783 297.5 152.367 297.5C151.266 297.5 150.224 297.697 149.24 298.09C148.296 298.483 147.431 299.014 146.644 299.683C146.015 300.234 145.248 300.647 144.343 300.922C143.478 301.158 142.593 300.942 141.688 300.273C140.744 299.565 140.233 298.719 140.154 297.736C140.076 296.753 140.449 295.848 141.275 295.022C142.691 293.567 144.343 292.446 146.231 291.659C148.159 290.833 150.204 290.42 152.367 290.42C155.081 290.42 157.52 291.049 159.683 292.308C161.886 293.527 163.636 295.179 164.934 297.264C166.232 299.349 166.881 301.709 166.881 304.344C166.881 306.311 166.586 308.061 165.996 309.595C165.406 311.09 164.561 312.388 163.459 313.489C162.397 314.551 161.139 315.416 159.683 316.085C158.267 316.714 156.714 317.167 155.022 317.442C154.944 317.481 154.865 317.521 154.786 317.56C154.747 317.599 154.727 317.658 154.727 317.737V319.92C154.727 320.943 154.393 321.808 153.724 322.516C153.056 323.185 152.21 323.519 151.187 323.519C150.165 323.519 149.319 323.185 148.65 322.516C147.982 321.808 147.647 320.943 147.647 319.92V315.436ZM150.892 334.08C149.752 334.08 148.867 333.785 148.237 333.195C147.647 332.566 147.352 331.681 147.352 330.54V329.537C147.352 328.396 147.647 327.531 148.237 326.941C148.867 326.312 149.752 325.997 150.892 325.997H151.659C152.8 325.997 153.665 326.312 154.255 326.941C154.885 327.531 155.199 328.396 155.199 329.537V330.54C155.199 331.681 154.885 332.566 154.255 333.195C153.665 333.785 152.8 334.08 151.659 334.08H150.892Z" fill="#FFEEAE"/>
<path d="M254.65 315.436C254.65 314.413 254.985 313.568 255.653 312.899C256.322 312.191 257.168 311.837 258.19 311.837C259.803 311.837 261.258 311.601 262.556 311.129C263.854 310.618 264.877 309.811 265.624 308.71C266.411 307.609 266.804 306.153 266.804 304.344C266.804 303.007 266.47 301.827 265.801 300.804C265.172 299.781 264.287 298.975 263.146 298.385C262.045 297.795 260.786 297.5 259.37 297.5C258.269 297.5 257.227 297.697 256.243 298.09C255.299 298.483 254.434 299.014 253.647 299.683C253.018 300.234 252.251 300.647 251.346 300.922C250.481 301.158 249.596 300.942 248.691 300.273C247.747 299.565 247.236 298.719 247.157 297.736C247.079 296.753 247.452 295.848 248.278 295.022C249.694 293.567 251.346 292.446 253.234 291.659C255.162 290.833 257.207 290.42 259.37 290.42C262.084 290.42 264.523 291.049 266.686 292.308C268.889 293.527 270.639 295.179 271.937 297.264C273.235 299.349 273.884 301.709 273.884 304.344C273.884 306.311 273.589 308.061 272.999 309.595C272.409 311.09 271.564 312.388 270.462 313.489C269.4 314.551 268.142 315.416 266.686 316.085C265.27 316.714 263.717 317.167 262.025 317.442C261.947 317.481 261.868 317.521 261.789 317.56C261.75 317.599 261.73 317.658 261.73 317.737V319.92C261.73 320.943 261.396 321.808 260.727 322.516C260.059 323.185 259.213 323.519 258.19 323.519C257.168 323.519 256.322 323.185 255.653 322.516C254.985 321.808 254.65 320.943 254.65 319.92V315.436ZM257.895 334.08C256.755 334.08 255.87 333.785 255.24 333.195C254.65 332.566 254.355 331.681 254.355 330.54V329.537C254.355 328.396 254.65 327.531 255.24 326.941C255.87 326.312 256.755 325.997 257.895 325.997H258.662C259.803 325.997 260.668 326.312 261.258 326.941C261.888 327.531 262.202 328.396 262.202 329.537V330.54C262.202 331.681 261.888 332.566 261.258 333.195C260.668 333.785 259.803 334.08 258.662 334.08H257.895Z" fill="#FFEEAE"/>
<path d="M163.086 4C137.607 4 134.27 38.8821 135.787 56.3231H172.185C175.218 50.2567 163.086 31.299 210.552 31.299C253.583 31.299 248.015 50.2567 247.257 56.3231H279.106C279.106 18.1045 260.907 5.51661 251.807 4H163.086Z" fill="#CB8641" stroke="#8D0F3A" stroke-width="7"/>
<defs>
<filter id="filter0_i_345_58198" x="63.5898" y="120.292" width="286.779" height="248.301" filterUnits="userSpaceOnUse" color-interpolation-filters="sRGB">
<feFlood flood-opacity="0" result="BackgroundImageFix"/>
<feBlend mode="normal" in="SourceGraphic" in2="BackgroundImageFix" result="shape"/>
<feColorMatrix in="SourceAlpha" type="matrix" values="0 0 0 0 0 0 0 0 0 0 0 0 0 0 0 0 0 0 127 0" result="hardAlpha"/>
<feMorphology radius="3" operator="erode" in="SourceAlpha" result="effect1_innerShadow_345_58198"/>
<feOffset dy="1"/>
<feGaussianBlur stdDeviation="2.5"/>
<feComposite in2="hardAlpha" operator="arithmetic" k2="-1" k3="1"/>
<feColorMatrix type="matrix" values="0 0 0 0 0.996078 0 0 0 0 0.741176 0 0 0 0 0.00392157 0 0 0 1 0"/>
<feBlend mode="normal" in2="shape" result="effect1_innerShadow_345_58198"/>
</filter>
</defs>
</svg>
