<svg width="414" height="385" viewBox="0 0 414 385" fill="none" xmlns="http://www.w3.org/2000/svg">
<path d="M362.478 197.76C323.506 256.605 262.45 374.297 330.001 374.297C369.043 374.297 389.494 363.476 399.824 353.404C411.823 341.707 409.942 328.315 409.728 312.752C408.274 207.098 377.127 204.309 362.478 197.76Z" fill="#CB8641" stroke="#8D0F3A" stroke-width="7"/>
<path d="M51.4824 197.76C90.4543 256.605 151.51 374.297 83.959 374.297C44.9165 374.297 24.4664 363.476 14.1356 353.404C2.13723 341.707 4.01768 328.315 4.23189 312.752C5.686 207.098 36.8334 204.309 51.4824 197.76Z" fill="#CB8641" stroke="#8D0F3A" stroke-width="7"/>
<rect x="46.9785" y="106.66" width="320.003" height="274.565" rx="41.5" fill="#CB8641" stroke="#8D0F3A" stroke-width="7"/>
<g filter="url(#filter0_i_41_6840)">
<rect x="63.5898" y="120.292" width="286.779" height="247.3" rx="45" fill="#FFD873"/>
</g>
<path d="M329.595 70.4194H72.5777C47.1393 70.4194 43.4307 110.106 43.4307 135.903C43.4307 148.083 61.979 181.543 220.959 181.543C419.684 181.543 364.041 98.2004 361.391 84.3099C359.272 73.1975 339.311 70.4194 329.595 70.4194Z" fill="#834612" fill-opacity="0.5"/>
<rect x="115.741" y="274.824" width="78.1968" height="78.1968" rx="25" fill="#FEBD01"/>
<rect x="121.997" y="281.08" width="65.6853" height="65.6853" rx="21" fill="#FEBD01"/>
<rect x="222" y="187" width="78.1968" height="78.1968" rx="25" fill="#FEBD01"/>
<rect x="228.256" y="193.256" width="65.6853" height="65.6853" rx="21" fill="#FEBD01"/>
<rect x="222" y="274.824" width="78.1968" height="78.1968" rx="25" fill="#FEBD01"/>
<rect x="228.256" y="281.08" width="65.6853" height="65.6853" rx="21" fill="#FEBD01"/>
<rect x="115" y="187" width="78.1968" height="78.1968" rx="25" fill="#FEBD01"/>
<rect x="121.256" y="193.256" width="65.6853" height="65.6853" rx="21" fill="#FEBD01"/>
<path d="M337.658 56.9771H63.7403C36.6292 56.9771 32.6768 96.6641 32.6768 122.461C32.6768 134.641 52.4447 168.101 221.878 168.101C433.67 168.101 374.368 84.758 371.545 70.8675C369.285 59.7551 348.012 56.9771 337.658 56.9771Z" fill="#CB8641" stroke="#8D0F3A" stroke-width="7"/>
<rect x="246.979" y="114.5" width="31" height="64" rx="15.5" fill="#E4AA52" stroke="#8D0F3A" stroke-width="7"/>
<rect x="140.979" y="114.5" width="32" height="64" rx="16" fill="#E4AA52" stroke="#8D0F3A" stroke-width="7"/>
<path d="M163.086 4C137.607 4 134.27 38.8821 135.787 56.3231H172.185C175.218 50.2567 163.086 31.299 210.552 31.299C253.583 31.299 248.015 50.2567 247.257 56.3231H279.106C279.106 18.1045 260.907 5.51661 251.807 4H163.086Z" fill="#CB8641" stroke="#8D0F3A" stroke-width="7"/>
<path d="M282 249.82C278.25 256.806 272.521 256.473 270.125 255.434L261.063 229.548C250.063 232.293 243.147 224.87 241.064 220.816C235.064 207.842 243.564 199.401 248.563 196.802C260.813 191.563 269.084 198.985 271.688 203.351C277.938 216.325 270.75 224.351 266.375 226.742L282 249.82Z" fill="#3F0015" stroke="#8D0F3A"/>
<path d="M268.75 212.084C268.75 218.902 263.211 224.432 256.376 224.432C249.54 224.432 244.001 218.902 244.001 212.084C244.001 205.265 249.54 199.735 256.376 199.735C263.211 199.735 268.75 205.265 268.75 212.084Z" fill="#AEDDFF" stroke="#8D0F3A" stroke-width="1.5"/>
<path d="M251.689 209.536C251.689 211.947 249.007 214.267 247.626 214.267C246.246 214.267 246.376 210.7 246.376 208.288C246.376 205.877 250.621 203.04 252.001 203.04C253.382 203.04 251.689 207.124 251.689 209.536Z" fill="#FCFFEB"/>
<path d="M266.688 215.826C266.688 218.582 262.126 222.41 260.708 222.41C259.146 222.098 261.189 220.263 261.501 220.263C262.126 219.639 263.718 217.063 263.689 217.144C264.939 213.713 266.688 213.07 266.688 215.826Z" fill="#FCFFEB"/>
<g clip-path="url(#clip0_41_6840)">
<path d="M156.173 232.753C142.335 243.122 124.144 254.619 124.144 254.619C124.144 254.619 123.709 252.179 125.822 249.537C128.466 246.266 135.895 238.318 135.733 236.057C135.631 234.443 135.067 233.319 134.377 232.032C130.262 224.117 129.681 222.572 129.737 220.705C129.742 220.484 129.865 218.305 130.936 216.604C131.313 216.006 131.754 215.49 132.398 215.12C133.428 214.449 134.49 214.447 134.838 214.438C137.324 214.328 144.712 213.055 145.402 210.521C145.747 209.254 144.167 208.876 144.403 206.956C144.638 204.864 146.772 203.161 147.573 202.538C148.209 202.044 148.72 201.733 148.824 201.695C150.72 200.655 152.788 200.35 154.227 200.49C156.916 200.699 158.61 202.421 161.899 205.682C163.662 207.436 164.973 209.065 165.829 210.223C166.837 210.264 169.501 210.841 172.964 209.364C176.98 207.63 182.001 203.769 185.527 203.285C186.255 203.196 188.611 202.406 187.616 204.091C182.244 210.353 166.791 224.8 156.173 232.753Z" fill="#CB8641" stroke="#241F20" stroke-miterlimit="10"/>
<path d="M165.934 210.358C163.401 211.719 160.58 213.393 157.587 215.416C154.594 217.439 151.396 219.883 148.215 222.747C142.901 227.487 138.851 232.199 135.831 236.24C135.755 235.344 135.507 234.626 135.329 234.113C135.252 233.956 135.174 233.799 135.145 233.648C135.074 233.443 134.955 233.232 134.884 233.026C134.75 232.74 134.615 232.453 134.502 232.194C136.141 228.315 139.007 225.045 142.076 222.094C148.332 216.057 155.519 210.989 163.284 207.122L163.312 207.1L163.817 207.75L164.28 208.345L165.934 210.358Z" fill="#3F0015"/>
<path d="M144.169 211.957C144.877 211.841 145.945 211.618 147.171 211.143C148.792 210.49 150.122 209.977 150.509 208.764C150.597 208.479 150.806 207.665 150.109 206.427" stroke="#8D0F3A" stroke-width="2" stroke-miterlimit="10" stroke-linecap="round"/>
<path d="M138.183 226.236C135.099 225.37 132.768 219.272 132.353 215.639C131.27 216.184 129.968 218.384 130.047 221.586C130.11 224.147 133.2 229.517 134.737 231.881C134.693 231.204 137.064 227.897 138.183 226.236Z" fill="#CB8641"/>
<path d="M171.818 216.397C156.707 230.758 146.017 230.626 142.56 228.765L142.417 228.58C139.931 230.809 137.129 234.57 136.01 236.231C136.641 237.817 128.169 247.075 126.159 249.528C124.551 251.491 124.29 253.454 124.36 254.191C142.6 242.38 153.636 234.095 159.414 229.899C165.192 225.703 181.032 210.419 184.313 207.275C186.938 204.759 187.431 203.663 187.35 203.43C184.928 203.415 182.724 204.456 181.925 204.979C182.81 206.426 175.556 213.194 171.818 216.397Z" fill="#CB8641"/>
<path d="M156.173 232.753C142.335 243.122 124.144 254.619 124.144 254.619C124.144 254.619 123.709 252.179 125.822 249.537C128.466 246.266 135.895 238.318 135.733 236.057C135.631 234.443 135.067 233.319 134.377 232.032C130.262 224.117 129.681 222.572 129.737 220.705C129.742 220.484 129.865 218.305 130.936 216.604C131.313 216.006 131.754 215.49 132.398 215.12C133.428 214.449 134.49 214.447 134.838 214.438C137.324 214.328 144.712 213.055 145.402 210.521C145.747 209.254 144.167 208.876 144.403 206.956C144.638 204.864 146.772 203.161 147.573 202.538C148.209 202.044 148.72 201.733 148.824 201.695C150.72 200.655 152.788 200.35 154.227 200.49C156.916 200.699 158.61 202.421 161.899 205.682C163.662 207.436 164.973 209.065 165.829 210.223C166.837 210.264 169.501 210.841 172.964 209.364C176.98 207.63 182.001 203.769 185.527 203.285C186.255 203.196 188.611 202.406 187.616 204.091C182.244 210.353 166.791 224.8 156.173 232.753Z" stroke="#8D0F3A" stroke-width="2" stroke-miterlimit="10"/>
<path d="M146.006 204.826C147.236 203.259 150.974 200.474 156.095 201.866C153.4 202.333 147.608 203.58 146.006 204.826Z" fill="#E4AA52"/>
</g>
<path d="M186.185 331.917L161.648 309.717L151.157 321.312L175.694 343.513C182.845 342.602 185.668 335.403 186.185 331.917Z" fill="#96A1C0" stroke="#8D0F3A" stroke-width="3"/>
<path d="M159.71 316.437C166.648 308.103 159.406 299.153 155.012 295.617L136.839 315.702C143.135 321.021 151.038 326.854 159.71 316.437Z" fill="#96A1C0" stroke="#8D0F3A" stroke-width="3"/>
<path d="M152.188 309.82L152.16 309.851L152.134 309.884C149.184 313.538 145.827 315.64 142.918 316.502C139.937 317.386 137.709 316.914 136.628 315.936C135.095 314.549 134.737 312.498 135.532 309.825C136.331 307.133 138.242 304.109 140.742 301.346C143.249 298.576 146.094 296.295 148.734 295.169C151.357 294.051 153.465 294.17 155.036 295.591C156.136 296.586 156.76 298.631 156.35 301.394C155.949 304.092 154.585 307.171 152.188 309.82Z" fill="#D9D9D9" stroke="#8D0F3A" stroke-width="3"/>
<path d="M150.301 309.618C147.856 312.319 145.066 314.144 142.593 314.956C140.072 315.783 138.208 315.482 137.151 314.526C136.094 313.569 135.608 311.744 136.18 309.154C136.741 306.612 138.278 303.653 140.723 300.952C143.167 298.25 145.957 296.426 148.43 295.614C150.951 294.786 152.816 295.088 153.872 296.044C154.929 297 155.415 298.825 154.843 301.416C154.282 303.958 152.745 306.916 150.301 309.618Z" fill="#3FA9F5" stroke="#8D0F3A" stroke-width="3"/>
<path d="M145.241 297.885C147.978 295.692 150.562 296.235 151.512 296.781C153.831 298.879 149.066 300.593 146.394 301.188C144.869 301.001 142.503 300.078 145.241 297.885Z" fill="#B9E1FF"/>
<path d="M147.573 310.915C146.638 312.78 143.795 313.773 142.49 314.036L142.87 311.743L144.171 310.096C145.887 308.824 148.508 309.049 147.573 310.915Z" fill="#B9E1FF"/>
<path d="M146.232 292.003C146.281 290.353 145.891 285.971 143.934 281.64C141.489 276.227 144.26 288.148 146.232 292.003Z" fill="#FFEEAE" stroke="#8D0F3A"/>
<path d="M140.348 295.397C140.028 293.777 138.671 289.592 135.798 285.807C132.208 281.075 137.566 292.078 140.348 295.397Z" fill="#FFEEAE" stroke="#8D0F3A"/>
<path d="M133.187 310.143C131.695 309.437 127.523 308.039 122.772 308.096C116.832 308.168 128.865 310.406 133.187 310.143Z" fill="#FFEEAE" stroke="#8D0F3A"/>
<path d="M134.884 303.172C133.693 302.029 130.18 299.379 125.656 297.926C120.001 296.11 130.702 302.049 134.884 303.172Z" fill="#FFEEAE" stroke="#8D0F3A"/>
<rect x="167.623" y="318.512" width="13.1241" height="3.63006" rx="1.81503" transform="rotate(42.1379 167.623 318.512)" fill="#D9D9D9"/>
<rect x="239.9" y="290.104" width="57.0283" height="36.0737" rx="4.5" transform="rotate(10.9877 239.9 290.104)" fill="#570C25" stroke="#8D0F3A"/>
<path d="M279.506 338.68C280.204 338.949 281.827 339.293 282.73 338.519C283.858 337.552 278.539 337.552 279.506 338.68Z" fill="#390315" stroke="#8D0F3A"/>
<path d="M240.723 288.483L236.731 290.237C234.918 291.034 235.241 293.699 237.192 294.039L287.649 302.826C287.913 302.872 288.184 302.865 288.446 302.804L290.894 302.234C292.986 301.747 292.944 298.755 290.84 298.326L241.927 288.355C241.522 288.272 241.101 288.317 240.723 288.483Z" fill="#834612" stroke="#8D0F3A"/>
<path d="M289.859 336L284.543 337.86C283.092 338.368 281.633 337.116 281.917 335.604L287.836 304.033C287.968 303.33 288.466 302.75 289.141 302.514L294.457 300.653C295.909 300.145 297.367 301.397 297.084 302.909L291.164 334.481C291.032 335.184 290.535 335.763 289.859 336Z" fill="#834612" stroke="#8D0F3A"/>
<rect x="231.742" y="292.328" width="57.0283" height="36.0737" rx="4.5" transform="rotate(10.9877 231.742 292.328)" fill="#9F632F" stroke="#8D0F3A"/>
<path d="M282.308 332.878L225.408 323.045C224.441 327.397 224.28 327.397 225.408 328.042L278.279 338.358C280.696 338.681 281.18 339.003 281.502 337.713L282.308 332.878Z" fill="#7D909E" stroke="#8D0F3A"/>
<path d="M286.822 309.023L230.567 296.771C231.316 292.376 231.373 292.428 232.662 292.258L284.903 302.331C287.263 302.947 287.833 302.831 287.644 304.147L286.822 309.023Z" fill="#7D909E" stroke="#8D0F3A"/>
<path d="M242.011 288.068L232.501 292.259C250.124 295.697 285.629 302.607 286.661 302.736C287.692 302.865 288.488 302.682 288.756 302.575C290.637 301.93 294.72 300.544 296.01 300.157C297.299 299.77 296.655 299.566 296.171 299.512L242.011 288.068Z" fill="#425664" stroke="#8D0F3A"/>
<path d="M264.094 332.878L268.446 306.926L244.912 302.413L239.432 332.878L260.548 336.424C262.611 336.94 263.879 334.167 264.094 332.878Z" fill="#7D909E" stroke="#8D0F3A"/>
<path d="M261.193 336.263L251.199 334.651L256.357 331.266C260.387 328.364 261.891 324.711 262.321 322.723C263.482 323.496 265.545 321.111 266.029 319.821L264.094 330.943C263.611 334.006 263.45 335.296 261.193 336.263Z" fill="#425664" stroke="#425664"/>
<circle cx="11.5688" cy="11.5688" r="11.5688" transform="matrix(0.978148 0.207912 -0.190809 0.981627 237.679 309.183)" fill="#3C3C3C"/>
<path d="M242.329 332.114L242.187 331.994L242.003 331.994C241.558 331.994 241.001 331.762 240.364 331.277C239.738 330.801 239.088 330.121 238.47 329.325C237.231 327.731 236.177 325.747 235.718 324.199C235.37 323.024 235.516 321.762 235.834 320.464C235.972 319.896 236.14 319.337 236.306 318.78C236.329 318.702 236.353 318.624 236.376 318.546C236.555 317.944 236.729 317.343 236.845 316.77C239.981 310.562 246.574 307.614 252.792 308.936C258.981 310.252 263.019 316.353 261.812 322.564C261.213 325.643 258.821 328.846 255.741 331.118C252.658 333.393 249.01 334.645 245.975 333.999C244.67 333.722 243.443 333.061 242.329 332.114Z" fill="#3C3C3C" stroke="#8D0F3A"/>
<path d="M260.708 314.663L251.198 319.177C246.685 324.388 242.824 337.326 253.938 332.072C262.642 327.957 263.448 319.338 260.708 314.663Z" fill="#2B2B2B"/>
<circle cx="12.7297" cy="12.7297" r="8.7297" transform="matrix(0.978148 0.207912 -0.190809 0.981627 236.33 307.893)" stroke="black" stroke-width="8"/>
<path d="M267.962 309.505L244.59 304.67L244.912 302.413L268.446 307.088L267.962 309.505Z" fill="#A1BACB" stroke="#8D0F3A"/>
<path d="M253.503 293.207L251.584 294.358L252.351 289.881L254.014 289.37L253.503 293.207Z" fill="black"/>
<path d="M240.315 287.452L252.513 289.882L251.844 294.355L239.593 291.615L240.315 287.452Z" fill="#2B2B2B"/>
<path d="M254.014 289.37L241.862 286.939L240.199 287.451L252.351 289.881L254.014 289.37Z" fill="black"/>
<path d="M245.073 302.252L253.616 294.837L257.646 292.58L260.709 293.137L262.804 292.58L273.604 294.837L267.962 299.109L269.413 304.025L268.446 307.087L245.073 302.252Z" fill="#3C3C3C"/>
<path d="M253.616 294.837L245.073 302.252L268.446 307.087M253.616 294.837L263.127 296.771M253.616 294.837L257.646 292.58L260.709 293.137M263.127 296.771L268.446 307.087M263.127 296.771L266.511 294.192M268.446 307.087L269.413 304.025L267.962 299.109M266.511 294.192L260.709 293.137M266.511 294.192L267.156 296.771M267.962 299.109L273.604 294.837M267.962 299.109L267.156 296.771M273.604 294.837L262.804 292.58L260.709 293.137M273.604 294.837L270.38 295.159M267.156 296.771L270.38 295.159M270.38 295.159L262.804 293.386" stroke="#8D0F3A"/>
<path d="M266.35 294.514L263.287 296.932L268.445 306.765L269.251 304.025L266.35 294.514Z" fill="#2B2B2B"/>
<path d="M270.219 295.16L267.317 296.772L268.123 299.029L273.281 294.838L270.219 295.16Z" fill="#222222"/>
<path d="M270.219 294.998L261.354 293.064L262.804 292.741L272.798 294.676L270.219 294.998Z" fill="#222222"/>
<path d="M245.234 314.891C250.07 314.663 254.906 320.305 254.367 325.083" stroke="white" stroke-width="4" stroke-linecap="round"/>
<path d="M248.459 299.673L254.101 295.321L256.035 295.966L255.068 297.416L248.459 299.673Z" fill="#6E6E6E"/>
<path d="M267.156 296.61L266.673 294.514L269.735 295.159L267.156 296.61Z" fill="#2B2B2B"/>
<path d="M281.825 333.2C280.535 338.197 274.77 337.081 271.734 336.421L278.922 338.039C280.517 338.434 280.693 338.119 280.883 337.482L281.825 333.2Z" fill="#425664"/>
<path d="M233.628 329.172C230.704 328.36 224.669 328.388 225.498 323.708L225.569 323.368C225.541 323.484 225.518 323.598 225.498 323.708L224.96 326.306C224.831 326.958 224.84 327.319 226.436 327.713L233.628 329.172Z" fill="#425664"/>
<path d="M278.518 301.811C281.406 302.329 287.131 303.791 286.694 308.184L286.551 308.993C286.621 308.713 286.669 308.444 286.694 308.184L287.379 304.323C287.447 303.662 287.404 303.304 285.779 303.06L278.518 301.811Z" fill="#425664"/>
<path d="M241.044 294.193C236.481 295.105 232.344 291.77 231.084 295.669L230.889 296.449C230.943 296.162 231.008 295.902 231.084 295.669L231.695 293.222C231.912 292.593 232.343 292.319 233.92 292.78L241.044 294.193Z" fill="#C5D4DF"/>
<path d="M291.979 329.815L282.308 332.878L281.502 337.552C281.373 338.584 281.986 338.788 282.308 338.842L289.884 336.102C290.915 335.844 291.066 335.349 291.012 335.134L291.979 329.815Z" fill="#425664" stroke="#8D0F3A"/>
<path d="M296.494 306.121L286.983 309.022L287.789 304.186C287.951 303.219 288.595 302.628 288.918 302.574L296.494 299.995C297.3 299.512 297.622 300.318 297.461 300.962L296.494 306.121Z" fill="#425664" stroke="#8D0F3A"/>
<path d="M287.79 308.216C289.079 304.001 291.658 303.219 294.72 301.285L290.046 302.575C288.487 303.058 288.757 303.219 288.487 304.001L287.79 308.216Z" fill="#7D909E"/>
<path d="M235.079 292.258L242.494 293.709C239.012 292.29 237.497 291.076 237.175 290.646C233.951 291.936 234.434 292.258 235.079 292.258Z" fill="#7D909E" stroke="#7D909E"/>
<path d="M231.051 297.577L244.268 300.64L229.761 314.18L228.955 309.022L231.051 297.577Z" fill="#C3844D"/>
<defs>
<filter id="filter0_i_41_6840" x="63.5898" y="120.292" width="286.779" height="248.301" filterUnits="userSpaceOnUse" color-interpolation-filters="sRGB">
<feFlood flood-opacity="0" result="BackgroundImageFix"/>
<feBlend mode="normal" in="SourceGraphic" in2="BackgroundImageFix" result="shape"/>
<feColorMatrix in="SourceAlpha" type="matrix" values="0 0 0 0 0 0 0 0 0 0 0 0 0 0 0 0 0 0 127 0" result="hardAlpha"/>
<feMorphology radius="3" operator="erode" in="SourceAlpha" result="effect1_innerShadow_41_6840"/>
<feOffset dy="1"/>
<feGaussianBlur stdDeviation="2.5"/>
<feComposite in2="hardAlpha" operator="arithmetic" k2="-1" k3="1"/>
<feColorMatrix type="matrix" values="0 0 0 0 0.996078 0 0 0 0 0.741176 0 0 0 0 0.00392157 0 0 0 0.5 0"/>
<feBlend mode="normal" in2="shape" result="effect1_innerShadow_41_6840"/>
</filter>
<clipPath id="clip0_41_6840">
<rect width="89.0623" height="31.928" fill="white" transform="translate(104 234.671) rotate(-37.8684)"/>
</clipPath>
</defs>
</svg>
