<svg width="414" height="385" viewBox="0 0 414 385" fill="none" xmlns="http://www.w3.org/2000/svg">
<path d="M362.478 197.76C323.506 256.605 262.45 374.297 330.001 374.297C369.043 374.297 389.494 363.476 399.824 353.404C411.823 341.707 409.942 328.315 409.728 312.752C408.274 207.098 377.127 204.309 362.478 197.76Z" fill="#CB8641" stroke="#8D0F3A" stroke-width="7"/>
<path d="M51.4824 197.76C90.4543 256.605 151.51 374.297 83.959 374.297C44.9165 374.297 24.4664 363.476 14.1356 353.404C2.13723 341.707 4.01768 328.315 4.23189 312.752C5.686 207.098 36.8334 204.309 51.4824 197.76Z" fill="#CB8641" stroke="#8D0F3A" stroke-width="7"/>
<rect x="46.978" y="106.66" width="320.003" height="274.565" rx="41.5" fill="#CB8641" stroke="#8D0F3A" stroke-width="7"/>
<g filter="url(#filter0_i_1072_157927)">
<rect x="63.5903" y="120.292" width="286.779" height="247.3" rx="45" fill="#FFD873"/>
</g>
<path d="M329.596 70.4194H72.5781C47.1398 70.4194 43.4312 110.106 43.4312 135.903C43.4312 148.083 61.9795 181.543 220.96 181.543C419.685 181.543 364.042 98.2004 361.392 84.3099C359.272 73.1975 339.311 70.4194 329.596 70.4194Z" fill="#834612" fill-opacity="0.5"/>
<rect x="115.741" y="274.824" width="78.1968" height="78.1968" rx="25" fill="#FEBD01"/>
<rect x="121.997" y="281.08" width="65.6853" height="65.6853" rx="21" fill="#FEBD01"/>
<rect x="222" y="187" width="78.1968" height="78.1968" rx="25" fill="#FEBD01"/>
<rect x="228.255" y="193.255" width="65.6853" height="65.6853" rx="21" fill="#FEBD01"/>
<rect x="222" y="274.824" width="78.1968" height="78.1968" rx="25" fill="#FEBD01"/>
<rect x="228.255" y="281.08" width="65.6853" height="65.6853" rx="21" fill="#FEBD01"/>
<rect x="115" y="187" width="78.1968" height="78.1968" rx="25" fill="#FEBD01"/>
<rect x="121.255" y="193.255" width="65.6853" height="65.6853" rx="21" fill="#FEBD01"/>
<path d="M337.658 56.9771H63.7407C36.6297 56.9771 32.6772 96.6641 32.6772 122.461C32.6772 134.641 52.4452 168.101 221.879 168.101C433.671 168.101 374.369 84.758 371.545 70.8675C369.286 59.7551 348.013 56.9771 337.658 56.9771Z" fill="#CB8641" stroke="#8D0F3A" stroke-width="7"/>
<rect x="246.98" y="114.5" width="31" height="64" rx="15.5" fill="#E4AA52" stroke="#8D0F3A" stroke-width="7"/>
<rect x="140.98" y="114.5" width="32" height="64" rx="16" fill="#E4AA52" stroke="#8D0F3A" stroke-width="7"/>
<path d="M254.65 315.436C254.65 314.413 254.985 313.568 255.653 312.899C256.322 312.191 257.168 311.837 258.19 311.837C259.803 311.837 261.258 311.601 262.556 311.129C263.854 310.618 264.877 309.811 265.624 308.71C266.411 307.609 266.804 306.153 266.804 304.344C266.804 303.007 266.47 301.827 265.801 300.804C265.172 299.781 264.287 298.975 263.146 298.385C262.045 297.795 260.786 297.5 259.37 297.5C258.269 297.5 257.227 297.697 256.243 298.09C255.299 298.483 254.434 299.014 253.647 299.683C253.018 300.234 252.251 300.647 251.346 300.922C250.481 301.158 249.596 300.942 248.691 300.273C247.747 299.565 247.236 298.719 247.157 297.736C247.079 296.753 247.452 295.848 248.278 295.022C249.694 293.567 251.346 292.446 253.234 291.659C255.162 290.833 257.207 290.42 259.37 290.42C262.084 290.42 264.523 291.049 266.686 292.308C268.889 293.527 270.639 295.179 271.937 297.264C273.235 299.349 273.884 301.709 273.884 304.344C273.884 306.311 273.589 308.061 272.999 309.595C272.409 311.09 271.564 312.388 270.462 313.489C269.4 314.551 268.142 315.416 266.686 316.085C265.27 316.714 263.717 317.167 262.025 317.442C261.947 317.481 261.868 317.521 261.789 317.56C261.75 317.599 261.73 317.658 261.73 317.737V319.92C261.73 320.943 261.396 321.808 260.727 322.516C260.059 323.185 259.213 323.519 258.19 323.519C257.168 323.519 256.322 323.185 255.653 322.516C254.985 321.808 254.65 320.943 254.65 319.92V315.436ZM257.895 334.08C256.755 334.08 255.87 333.785 255.24 333.195C254.65 332.566 254.355 331.681 254.355 330.54V329.537C254.355 328.396 254.65 327.531 255.24 326.941C255.87 326.312 256.755 325.997 257.895 325.997H258.662C259.803 325.997 260.668 326.312 261.258 326.941C261.888 327.531 262.202 328.396 262.202 329.537V330.54C262.202 331.681 261.888 332.566 261.258 333.195C260.668 333.785 259.803 334.08 258.662 334.08H257.895Z" fill="#FFEEAE"/>
<path d="M163.086 4C137.607 4 134.27 38.8821 135.787 56.3231H172.185C175.218 50.2567 163.086 31.299 210.552 31.299C253.583 31.299 248.015 50.2567 247.257 56.3231H279.106C279.106 18.1045 260.907 5.51661 251.807 4H163.086Z" fill="#CB8641" stroke="#8D0F3A" stroke-width="7"/>
<path d="M282 249.82C278.25 256.806 272.521 256.473 270.125 255.434L261.063 229.548C250.063 232.293 243.147 224.87 241.064 220.816C235.064 207.842 243.564 199.401 248.563 196.802C260.813 191.563 269.084 198.985 271.688 203.351C277.938 216.325 270.75 224.351 266.375 226.742L282 249.82Z" fill="#3F0015" stroke="#8D0F3A"/>
<path d="M268.75 212.084C268.75 218.902 263.211 224.432 256.376 224.432C249.54 224.432 244.001 218.902 244.001 212.084C244.001 205.265 249.54 199.735 256.376 199.735C263.211 199.735 268.75 205.265 268.75 212.084Z" fill="#AEDDFF" stroke="#8D0F3A" stroke-width="1.5"/>
<path d="M251.688 209.536C251.688 211.947 249.006 214.267 247.626 214.267C246.245 214.267 246.376 210.7 246.376 208.288C246.376 205.877 250.62 203.04 252.001 203.04C253.381 203.04 251.688 207.124 251.688 209.536Z" fill="#FCFFEB"/>
<path d="M266.688 215.826C266.688 218.582 262.126 222.411 260.708 222.411C259.145 222.098 261.188 220.263 261.501 220.263C262.126 219.639 263.718 217.063 263.688 217.144C264.938 213.714 266.688 213.071 266.688 215.826Z" fill="#FCFFEB"/>
<g clip-path="url(#clip0_1072_157927)">
<path d="M156.173 232.753C142.335 243.122 124.144 254.619 124.144 254.619C124.144 254.619 123.709 252.179 125.822 249.537C128.466 246.266 135.895 238.318 135.733 236.057C135.631 234.443 135.067 233.319 134.377 232.032C130.262 224.117 129.681 222.572 129.737 220.705C129.742 220.484 129.865 218.305 130.936 216.604C131.313 216.006 131.754 215.49 132.398 215.12C133.428 214.449 134.49 214.447 134.838 214.438C137.324 214.328 144.712 213.055 145.402 210.521C145.747 209.254 144.167 208.876 144.403 206.956C144.638 204.864 146.772 203.161 147.573 202.538C148.209 202.044 148.72 201.733 148.824 201.695C150.72 200.655 152.788 200.35 154.227 200.49C156.916 200.699 158.61 202.421 161.899 205.682C163.662 207.436 164.973 209.065 165.829 210.223C166.837 210.264 169.501 210.841 172.964 209.364C176.98 207.63 182.001 203.769 185.527 203.285C186.255 203.196 188.611 202.406 187.616 204.091C182.244 210.353 166.791 224.8 156.173 232.753Z" fill="#CB8641" stroke="#241F20" stroke-miterlimit="10"/>
<path d="M165.934 210.358C163.402 211.72 160.58 213.393 157.587 215.416C154.594 217.44 151.396 219.883 148.215 222.747C142.901 227.487 138.851 232.199 135.832 236.241C135.756 235.345 135.507 234.626 135.33 234.113C135.252 233.956 135.175 233.799 135.146 233.648C135.075 233.443 134.955 233.232 134.884 233.027C134.75 232.74 134.616 232.454 134.503 232.194C136.142 228.315 139.007 225.045 142.077 222.094C148.333 216.057 155.519 210.99 163.285 207.122L163.312 207.101L163.817 207.75L164.28 208.345L165.934 210.358Z" fill="#3F0015"/>
<path d="M144.169 211.957C144.877 211.841 145.945 211.618 147.171 211.143C148.792 210.49 150.122 209.977 150.509 208.764C150.597 208.479 150.806 207.665 150.109 206.427" stroke="#8D0F3A" stroke-width="2" stroke-miterlimit="10" stroke-linecap="round"/>
<path d="M138.183 226.236C135.099 225.37 132.768 219.272 132.353 215.639C131.27 216.184 129.968 218.384 130.047 221.586C130.11 224.147 133.2 229.517 134.737 231.882C134.693 231.204 137.064 227.897 138.183 226.236Z" fill="#CB8641"/>
<path d="M171.818 216.397C156.707 230.759 146.017 230.626 142.56 228.765L142.417 228.58C139.931 230.81 137.129 234.57 136.01 236.232C136.641 237.818 128.169 247.075 126.159 249.528C124.551 251.491 124.29 253.454 124.36 254.191C142.6 242.381 153.636 234.096 159.414 229.899C165.192 225.703 181.032 210.419 184.313 207.275C186.938 204.759 187.431 203.663 187.35 203.43C184.928 203.415 182.724 204.456 181.925 204.979C182.81 206.427 175.556 213.195 171.818 216.397Z" fill="#CB8641"/>
<path d="M156.173 232.753C142.335 243.122 124.144 254.619 124.144 254.619C124.144 254.619 123.709 252.179 125.822 249.537C128.466 246.266 135.895 238.318 135.733 236.057C135.631 234.443 135.067 233.319 134.377 232.032C130.262 224.117 129.681 222.572 129.737 220.705C129.742 220.484 129.865 218.305 130.936 216.604C131.313 216.006 131.754 215.49 132.398 215.12C133.428 214.449 134.49 214.447 134.838 214.438C137.324 214.328 144.712 213.055 145.402 210.521C145.747 209.254 144.167 208.876 144.403 206.956C144.638 204.864 146.772 203.161 147.573 202.538C148.209 202.044 148.72 201.733 148.824 201.695C150.72 200.655 152.788 200.35 154.227 200.49C156.916 200.699 158.61 202.421 161.899 205.682C163.662 207.436 164.973 209.065 165.829 210.223C166.837 210.264 169.501 210.841 172.964 209.364C176.98 207.63 182.001 203.769 185.527 203.285C186.255 203.196 188.611 202.406 187.616 204.091C182.244 210.353 166.791 224.8 156.173 232.753Z" stroke="#8D0F3A" stroke-width="2" stroke-miterlimit="10"/>
<path d="M146.006 204.826C147.236 203.259 150.974 200.474 156.095 201.866C153.4 202.333 147.608 203.58 146.006 204.826Z" fill="#E4AA52"/>
</g>
<path d="M186.185 331.917L161.648 309.717L151.157 321.312L175.694 343.513C182.844 342.602 185.667 335.403 186.185 331.917Z" fill="#96A1C0" stroke="#8D0F3A" stroke-width="3"/>
<path d="M159.71 316.437C166.648 308.103 159.406 299.153 155.012 295.617L136.84 315.702C143.135 321.021 151.038 326.854 159.71 316.437Z" fill="#96A1C0" stroke="#8D0F3A" stroke-width="3"/>
<path d="M152.189 309.82L152.161 309.851L152.134 309.884C149.184 313.538 145.828 315.64 142.919 316.502C139.937 317.386 137.709 316.914 136.628 315.936C135.095 314.549 134.738 312.498 135.532 309.825C136.332 307.133 138.243 304.109 140.742 301.346C143.249 298.576 146.095 296.295 148.734 295.169C151.357 294.051 153.466 294.17 155.036 295.591C156.137 296.586 156.76 298.631 156.35 301.394C155.95 304.092 154.586 307.171 152.189 309.82Z" fill="#D9D9D9" stroke="#8D0F3A" stroke-width="3"/>
<path d="M150.301 309.618C147.856 312.319 145.066 314.144 142.593 314.956C140.072 315.783 138.208 315.482 137.151 314.526C136.094 313.569 135.608 311.744 136.18 309.154C136.741 306.612 138.278 303.653 140.723 300.952C143.167 298.25 145.957 296.426 148.43 295.614C150.951 294.786 152.816 295.088 153.872 296.044C154.929 297 155.415 298.825 154.843 301.416C154.282 303.958 152.745 306.916 150.301 309.618Z" fill="#3FA9F5" stroke="#8D0F3A" stroke-width="3"/>
<path d="M145.241 297.885C147.978 295.692 150.562 296.235 151.512 296.781C153.831 298.879 149.066 300.593 146.394 301.188C144.869 301.001 142.503 300.078 145.241 297.885Z" fill="#B9E1FF"/>
<path d="M147.572 310.915C146.638 312.78 143.794 313.773 142.49 314.036L142.869 311.743L144.171 310.096C145.886 308.824 148.507 309.049 147.572 310.915Z" fill="#B9E1FF"/>
<path d="M146.232 292.003C146.281 290.353 145.891 285.971 143.934 281.64C141.489 276.227 144.26 288.148 146.232 292.003Z" fill="#FFEEAE" stroke="#8D0F3A"/>
<path d="M140.348 295.397C140.028 293.777 138.671 289.592 135.798 285.807C132.208 281.075 137.566 292.078 140.348 295.397Z" fill="#FFEEAE" stroke="#8D0F3A"/>
<path d="M133.187 310.143C131.695 309.437 127.523 308.039 122.772 308.096C116.832 308.168 128.865 310.406 133.187 310.143Z" fill="#FFEEAE" stroke="#8D0F3A"/>
<path d="M134.883 303.172C133.693 302.029 130.18 299.379 125.656 297.926C120 296.11 130.701 302.049 134.883 303.172Z" fill="#FFEEAE" stroke="#8D0F3A"/>
<rect x="167.623" y="318.512" width="13.1241" height="3.63006" rx="1.81503" transform="rotate(42.1379 167.623 318.512)" fill="#D9D9D9"/>
<defs>
<filter id="filter0_i_1072_157927" x="63.5903" y="120.292" width="286.779" height="248.3" filterUnits="userSpaceOnUse" color-interpolation-filters="sRGB">
<feFlood flood-opacity="0" result="BackgroundImageFix"/>
<feBlend mode="normal" in="SourceGraphic" in2="BackgroundImageFix" result="shape"/>
<feColorMatrix in="SourceAlpha" type="matrix" values="0 0 0 0 0 0 0 0 0 0 0 0 0 0 0 0 0 0 127 0" result="hardAlpha"/>
<feMorphology radius="3" operator="erode" in="SourceAlpha" result="effect1_innerShadow_1072_157927"/>
<feOffset dy="1"/>
<feGaussianBlur stdDeviation="2.5"/>
<feComposite in2="hardAlpha" operator="arithmetic" k2="-1" k3="1"/>
<feColorMatrix type="matrix" values="0 0 0 0 0.996078 0 0 0 0 0.741176 0 0 0 0 0.00392157 0 0 0 0.5 0"/>
<feBlend mode="normal" in2="shape" result="effect1_innerShadow_1072_157927"/>
</filter>
<clipPath id="clip0_1072_157927">
<rect width="89.0623" height="31.928" fill="white" transform="translate(104 234.671) rotate(-37.8684)"/>
</clipPath>
</defs>
</svg>
