<svg width="457" height="315" viewBox="0 0 457 315" fill="none" xmlns="http://www.w3.org/2000/svg">
<path d="M402.015 109C358.528 174.664 290.397 305.993 365.776 305.993C409.342 305.993 432.162 293.918 443.69 282.679C457.078 269.627 454.98 254.684 454.741 237.316C453.118 119.42 418.362 116.309 402.015 109Z" fill="#CC9000" stroke="black" stroke-width="3"/>
<path d="M54.9846 109C98.4723 174.664 166.603 305.993 91.2244 305.993C47.6579 305.993 24.8382 293.918 13.3103 282.679C-0.0783386 269.627 2.02 254.684 2.25903 237.316C3.88165 119.42 38.6382 116.309 54.9846 109Z" fill="#CC9000" stroke="black" stroke-width="3"/>
<rect x="47.5" y="55.5" width="362" height="258" rx="43.5" fill="#CC9000" stroke="black" stroke-width="3"/>
<g filter="url(#filter0_i_1716_23319)">
<rect x="68" y="69" width="321" height="230" rx="45" fill="url(#paint0_linear_1716_23319)"/>
</g>
<path d="M374.32 2H68.6624C38.41 2 33.9995 46.2857 33.9995 75.0714C33.9995 88.6627 56.058 126 245.124 126C481.457 126 415.284 33 412.133 17.5C409.612 5.1 385.874 2 374.32 2Z" fill="#CC9000" stroke="black" stroke-width="3"/>
<rect x="287.5" y="63.5" width="53" height="77" rx="26.5" fill="#362701" stroke="black" stroke-width="3"/>
<rect x="129.5" y="63.5" width="55" height="77" rx="27.5" fill="#362701" stroke="black" stroke-width="3"/>
<defs>
<filter id="filter0_i_1716_23319" x="68" y="69" width="321" height="231" filterUnits="userSpaceOnUse" color-interpolation-filters="sRGB">
<feFlood flood-opacity="0" result="BackgroundImageFix"/>
<feBlend mode="normal" in="SourceGraphic" in2="BackgroundImageFix" result="shape"/>
<feColorMatrix in="SourceAlpha" type="matrix" values="0 0 0 0 0 0 0 0 0 0 0 0 0 0 0 0 0 0 127 0" result="hardAlpha"/>
<feMorphology radius="3" operator="erode" in="SourceAlpha" result="effect1_innerShadow_1716_23319"/>
<feOffset dy="1"/>
<feGaussianBlur stdDeviation="2.5"/>
<feComposite in2="hardAlpha" operator="arithmetic" k2="-1" k3="1"/>
<feColorMatrix type="matrix" values="0 0 0 0 0 0 0 0 0 0 0 0 0 0 0 0 0 0 0.25 0"/>
<feBlend mode="normal" in2="shape" result="effect1_innerShadow_1716_23319"/>
</filter>
<linearGradient id="paint0_linear_1716_23319" x1="68" y1="184" x2="389" y2="184" gradientUnits="userSpaceOnUse">
<stop stop-color="#DB94F3"/>
<stop offset="1" stop-color="#BF56E3"/>
</linearGradient>
</defs>
</svg>
