<svg width="136" height="132" viewBox="0 0 136 132" fill="none" xmlns="http://www.w3.org/2000/svg">
<rect x="4.50635" y="0.845215" width="131.044" height="131.044" rx="25" fill="white"/>
<g clip-path="url(#clip0_1611_22255)">
<path d="M73.6752 81.5763C52.1977 93.4725 24.3816 106.117 24.3816 106.117C24.3816 106.117 24.2504 102.61 27.7381 99.3091C32.0945 95.2265 44.0943 85.4994 44.3103 82.2957C44.4838 80.0123 43.9124 78.3269 43.1956 76.3896C38.9697 64.4984 38.4571 62.2192 38.9022 59.611C38.9532 59.3017 39.5541 56.2677 41.3932 54.0863C42.0411 53.3203 42.7618 52.6803 43.7383 52.2845C45.3172 51.5408 46.8107 51.7422 47.3004 51.7954C50.8145 52.1177 61.4449 51.7462 62.9119 48.3241C63.6455 46.613 61.5006 45.7801 62.2093 43.1317C62.9502 40.2408 66.2827 38.2608 67.5307 37.5402C68.5205 36.9688 69.3006 36.6304 69.454 36.5978C72.3215 35.502 75.2865 35.4696 77.2806 35.9418C81.0183 36.7508 83.0594 39.491 87.0392 44.6947C89.1718 47.494 90.6935 50.0303 91.6686 51.8185C93.0759 52.0696 96.7063 53.3884 101.861 51.98C107.844 50.3171 115.657 45.8619 120.705 45.8587C121.746 45.8733 125.211 45.2162 123.482 47.3899C114.705 55.1447 90.1552 72.4534 73.6752 81.5763Z" fill="#D38428" stroke="#241F20" stroke-miterlimit="10"/>
<path d="M91.7901 52.0283C87.9649 53.453 83.6717 55.2599 79.0695 57.5252C74.4672 59.7904 69.4939 62.6058 64.4618 66.0149C56.065 71.6465 49.4495 77.4812 44.413 82.5723C44.4822 81.3008 44.2744 80.2452 44.126 79.4912C44.0478 79.2564 43.9697 79.0216 43.9588 78.804C43.8994 78.5024 43.7728 78.1836 43.7134 77.882C43.5813 77.4545 43.4492 77.0269 43.3414 76.6413C46.4056 71.5133 51.0741 67.4744 55.9663 63.9222C65.9414 56.6516 77.0341 50.919 88.7037 46.9806L88.7467 46.9557L89.3285 47.9634L89.8618 48.8871L91.7901 52.0283Z" fill="#441009"/>
<path d="M60.8977 50.1029C61.9148 50.0755 63.4591 49.9676 65.275 49.535C67.6801 48.9302 69.6493 48.465 70.4313 46.8379C70.6114 46.454 71.0654 45.3522 70.3298 43.4817" fill="#D38428"/>
<path d="M60.8977 50.1029C61.9148 50.0755 63.4591 49.9676 65.275 49.535C67.6801 48.9302 69.6493 48.465 70.4313 46.8379C70.6114 46.454 71.0654 45.3522 70.3298 43.4817" stroke="#241F20" stroke-width="2" stroke-miterlimit="10" stroke-linecap="round"/>
<path d="M49.6818 68.9871C45.5194 67.1824 43.4425 58.1807 43.5743 53.0041C41.9458 53.5618 39.6832 56.3982 39.165 60.9053C38.7504 64.511 42.0371 72.6358 43.7322 76.2475C43.8028 75.2887 47.7833 71.1034 49.6818 68.9871Z" fill="#B1691F"/>
<path d="M98.87 61.6277C74.8183 78.8803 59.825 76.6472 55.3349 73.3741L55.1693 73.0871C51.2394 75.7385 46.5645 80.4778 44.666 82.594C45.2404 84.9401 31.5192 96.3049 28.2131 99.3612C25.5682 101.806 24.8153 104.511 24.7694 105.557C52.7157 92.4828 69.8486 82.9737 78.7904 78.1936C87.7322 73.4136 112.989 55.006 118.216 51.2232C122.398 48.1969 123.307 46.7539 123.239 46.4107C119.839 45.9257 116.538 46.9644 115.312 47.5444C116.271 49.7452 104.75 57.8503 98.87 61.6277Z" fill="#B1691F"/>
<path d="M73.6752 81.5763C52.1977 93.4725 24.3816 106.117 24.3816 106.117C24.3816 106.117 24.2504 102.61 27.7381 99.3091C32.0945 95.2265 44.0943 85.4994 44.3103 82.2957C44.4838 80.0123 43.9124 78.3269 43.1956 76.3896C38.9697 64.4984 38.4571 62.2192 38.9022 59.611C38.9532 59.3017 39.5541 56.2677 41.3932 54.0863C42.0411 53.3203 42.7618 52.6803 43.7383 52.2845C45.3172 51.5408 46.8107 51.7422 47.3004 51.7954C50.8145 52.1177 61.4449 51.7462 62.9119 48.3241C63.6455 46.613 61.5006 45.7801 62.2093 43.1317C62.9502 40.2408 66.2827 38.2608 67.5307 37.5403C68.5205 36.9688 69.3006 36.6304 69.454 36.5978C72.3215 35.502 75.2865 35.4696 77.2806 35.9418C81.0183 36.7508 83.0594 39.491 87.0392 44.6947C89.1718 47.494 90.6935 50.0303 91.6686 51.8185C93.0759 52.0696 96.7063 53.3884 101.861 51.98C107.844 50.3171 115.657 45.8619 120.705 45.8587C121.746 45.8733 125.211 45.2162 123.482 47.3899C114.705 55.1447 90.1552 72.4534 73.6752 81.5763Z" stroke="#241F20" stroke-width="2" stroke-miterlimit="10"/>
<path d="M64.8801 40.4499C66.9151 38.4876 72.7152 35.2964 79.6358 38.23C75.7567 38.3698 67.3748 39.0095 64.8801 40.4499Z" fill="#D69625"/>
</g>
<defs>
<clipPath id="clip0_1611_22255">
<rect width="126.461" height="45.1646" fill="white" transform="translate(0.000976562 74.2734) rotate(-30)"/>
</clipPath>
</defs>
</svg>
