<svg width="104" height="104" viewBox="0 0 104 104" fill="none" xmlns="http://www.w3.org/2000/svg">
<rect x="0.554199" y="0.388672" width="103.379" height="103.379" rx="25" fill="#8C03BA"/>
<path d="M53.3901 64.9976C37.5764 75.093 16.9642 86.0613 16.9642 86.0613C16.9642 86.0613 16.6971 83.3929 19.1999 80.7091C22.328 77.388 31.0166 69.3981 31.0288 66.9445C31.0525 65.1948 30.5364 63.9366 29.8975 62.4932C26.1083 53.6254 25.6089 51.9116 25.8242 49.9012C25.8483 49.6629 26.1621 47.3204 27.4608 45.5691C27.9186 44.9541 28.4377 44.4317 29.1636 44.0833C30.3324 43.4409 31.481 43.5234 31.857 43.5406C34.5524 43.6191 42.6421 42.8297 43.5981 40.1499C44.076 38.81 42.4005 38.2769 42.815 36.2233C43.2424 33.9832 45.6896 32.3145 46.6072 31.7055C47.3348 31.2226 47.9137 30.9273 48.0291 30.8952C50.1639 29.923 52.4236 29.757 53.9669 30.0222C56.856 30.4612 58.5432 32.4539 61.8262 36.233C65.6147 40.6107 66.8617 43.3427 73.4769 41.0836C77.9607 39.5305 83.7077 35.7606 87.5571 35.5178C88.352 35.4794 90.9634 34.8133 89.7484 36.5534C83.4234 42.8856 65.5244 57.2552 53.3901 64.9976Z" fill="#A90FDD"/>
<path d="M46.0323 54.616C46.0323 53.3333 46.4516 52.2727 47.2903 51.434C48.1289 50.546 49.1896 50.102 50.4723 50.102C52.4949 50.102 54.3203 49.806 55.9483 49.214C57.5763 48.5727 58.8589 47.5613 59.7963 46.18C60.7829 44.7987 61.2763 42.9733 61.2763 40.704C61.2763 39.0267 60.8569 37.5467 60.0183 36.264C59.2289 34.9813 58.1189 33.97 56.6883 33.23C55.3069 32.49 53.7283 32.12 51.9523 32.12C50.5709 32.12 49.2636 32.3667 48.0303 32.86C46.8463 33.3533 45.7609 34.0193 44.7743 34.858C43.9849 35.5487 43.0229 36.0667 41.8883 36.412C40.8029 36.708 39.6929 36.4367 38.5583 35.598C37.3743 34.71 36.7329 33.6493 36.6343 32.416C36.5356 31.1827 37.0043 30.048 38.0403 29.012C39.8163 27.1867 41.8883 25.7807 44.2563 24.794C46.6736 23.758 49.2389 23.24 51.9523 23.24C55.3563 23.24 58.4149 24.0293 61.1283 25.608C63.8909 27.1373 66.0863 29.2093 67.7143 31.824C69.3423 34.4387 70.1563 37.3987 70.1563 40.704C70.1563 43.1707 69.7863 45.366 69.0463 47.29C68.3063 49.1647 67.2456 50.7927 65.8643 52.174C64.5323 53.506 62.9536 54.5913 61.1283 55.43C59.3523 56.2193 57.4036 56.7867 55.2823 57.132C55.1836 57.1813 55.0849 57.2307 54.9863 57.28C54.9369 57.3293 54.9123 57.4033 54.9123 57.502V60.24C54.9123 61.5227 54.4929 62.608 53.6543 63.496C52.8156 64.3347 51.7549 64.754 50.4723 64.754C49.1896 64.754 48.1289 64.3347 47.2903 63.496C46.4516 62.608 46.0323 61.5227 46.0323 60.24V54.616ZM50.1023 78C48.6716 78 47.5616 77.63 46.7723 76.89C46.0323 76.1007 45.6623 74.9907 45.6623 73.56V72.302C45.6623 70.8713 46.0323 69.786 46.7723 69.046C47.5616 68.2567 48.6716 67.862 50.1023 67.862H51.0643C52.4949 67.862 53.5803 68.2567 54.3203 69.046C55.1096 69.786 55.5043 70.8713 55.5043 72.302V73.56C55.5043 74.9907 55.1096 76.1007 54.3203 76.89C53.5803 77.63 52.4949 78 51.0643 78H50.1023Z" fill="#E7A0FF"/>
</svg>
