<svg width="104" height="104" viewBox="0 0 104 104" fill="none" xmlns="http://www.w3.org/2000/svg">
<rect x="0.460938" y="0.140625" width="103.379" height="103.379" rx="25" fill="#8C03BA"/>
<rect x="8.73096" y="8.41016" width="86.8382" height="86.8382" rx="21" fill="#8C03BA"/>
<circle cx="43.4987" cy="39.4983" r="21.6361" transform="rotate(-15 43.4987 39.4983)" fill="#A90FDD"/>
<path d="M72.3161 85.0731L52.3859 56.8143L60.0941 52.4317C66.6772 58.263 80.5215 70.4389 83.2345 72.4926C85.9474 74.5463 84.9315 78.3458 84.0845 79.9888C82.8041 80.9755 79.8161 83.3724 78.1072 85.0662C76.3983 86.7599 73.5345 85.7765 72.3161 85.0731Z" fill="#A90FDD"/>
<path d="M46.0323 54.616C46.0323 53.3333 46.4516 52.2727 47.2903 51.434C48.1289 50.546 49.1896 50.102 50.4723 50.102C52.4949 50.102 54.3203 49.806 55.9483 49.214C57.5763 48.5727 58.8589 47.5613 59.7963 46.18C60.7829 44.7987 61.2763 42.9733 61.2763 40.704C61.2763 39.0267 60.8569 37.5467 60.0183 36.264C59.2289 34.9813 58.1189 33.97 56.6883 33.23C55.3069 32.49 53.7283 32.12 51.9523 32.12C50.5709 32.12 49.2636 32.3667 48.0303 32.86C46.8463 33.3533 45.7609 34.0193 44.7743 34.858C43.9849 35.5487 43.0229 36.0667 41.8883 36.412C40.8029 36.708 39.6929 36.4367 38.5583 35.598C37.3743 34.71 36.7329 33.6493 36.6343 32.416C36.5356 31.1827 37.0043 30.048 38.0403 29.012C39.8163 27.1867 41.8883 25.7807 44.2563 24.794C46.6736 23.758 49.2389 23.24 51.9523 23.24C55.3563 23.24 58.4149 24.0293 61.1283 25.608C63.8909 27.1373 66.0863 29.2093 67.7143 31.824C69.3423 34.4387 70.1563 37.3987 70.1563 40.704C70.1563 43.1707 69.7863 45.366 69.0463 47.29C68.3063 49.1647 67.2456 50.7927 65.8643 52.174C64.5323 53.506 62.9536 54.5913 61.1283 55.43C59.3523 56.2193 57.4036 56.7867 55.2823 57.132C55.1836 57.1813 55.0849 57.2307 54.9863 57.28C54.9369 57.3293 54.9123 57.4033 54.9123 57.502V60.24C54.9123 61.5227 54.4929 62.608 53.6543 63.496C52.8156 64.3347 51.7549 64.754 50.4723 64.754C49.1896 64.754 48.1289 64.3347 47.2903 63.496C46.4516 62.608 46.0323 61.5227 46.0323 60.24V54.616ZM50.1023 78C48.6716 78 47.5616 77.63 46.7723 76.89C46.0323 76.1007 45.6623 74.9907 45.6623 73.56V72.302C45.6623 70.8713 46.0323 69.786 46.7723 69.046C47.5616 68.2567 48.6716 67.862 50.1023 67.862H51.0643C52.4949 67.862 53.5803 68.2567 54.3203 69.046C55.1096 69.786 55.5043 70.8713 55.5043 72.302V73.56C55.5043 74.9907 55.1096 76.1007 54.3203 76.89C53.5803 77.63 52.4949 78 51.0643 78H50.1023Z" fill="#E7A0FF"/>
</svg>
